<?xml version="1.0" encoding="utf-8"?>
<!-- Generator: Adobe Illustrator 15.0.0, SVG Export Plug-In . SVG Version: 6.00 Build 0)  -->
<!DOCTYPE svg PUBLIC "-//W3C//DTD SVG 1.0//EN" "http://www.w3.org/TR/2001/REC-SVG-20010904/DTD/svg10.dtd">
<svg version="1.0" id="Layer_1" xmlns="http://www.w3.org/2000/svg" xmlns:xlink="http://www.w3.org/1999/xlink" x="0px" y="0px"
	 width="134.013px" height="141.497px" viewBox="0 0 134.013 141.497" enable-background="new 0 0 134.013 141.497"
	 xml:space="preserve">
<g>
	<g>
		<ellipse fill="#434343" cx="73.072" cy="76.231" rx="1.957" ry="1.906"/>
		<ellipse fill="#434343" cx="85.072" cy="76.231" rx="1.957" ry="1.906"/>
		<path fill="#434343" d="M89.083,71.284H71.037V61.046l-3.172-4.368c-0.324-0.444-0.945-0.542-1.39-0.219
			c-0.442,0.323-0.541,0.946-0.218,1.393l2.85,3.901v9.53h-0.056c-0.553,0-1,0.44-1,0.984c0,0.543,0.447,0.984,1,0.984h20.032
			c0.553,0,1-0.441,1-0.984C90.083,71.724,89.636,71.284,89.083,71.284z"/>
	</g>
	<path fill="#434343" d="M83.011,63.293h-1.952v-1.925c0-0.543-0.438-0.981-0.98-0.981c-0.541,0-0.979,0.438-0.979,0.981v1.925
		h-1.981c-0.547,0-0.99,0.434-0.99,0.969s0.443,0.969,0.99,0.969h1.981v1.986c0,0.543,0.438,0.981,0.979,0.981
		c0.543,0,0.98-0.438,0.98-0.981v-1.986h1.952c0.547,0,0.989-0.434,0.989-0.969S83.558,63.293,83.011,63.293z"/>
</g>
</svg>
