<?xml version="1.0" encoding="utf-8"?>
<!-- Generator: Adobe Illustrator 15.0.0, SVG Export Plug-In . SVG Version: 6.00 Build 0)  -->
<!DOCTYPE svg PUBLIC "-//W3C//DTD SVG 1.0//EN" "http://www.w3.org/TR/2001/REC-SVG-20010904/DTD/svg10.dtd">
<svg version="1.0" id="Layer_1" xmlns="http://www.w3.org/2000/svg" xmlns:xlink="http://www.w3.org/1999/xlink" x="0px" y="0px"
	 width="134.013px" height="141.497px" viewBox="0 0 134.013 141.497" enable-background="new 0 0 134.013 141.497"
	 xml:space="preserve">
<g>
	<path fill="#434343" d="M76.595,50.71c0,0.519-0.42,0.938-0.938,0.938H53.576c-0.519,0-0.938-0.42-0.938-0.938l0,0
		c0-0.518,0.42-0.938,0.938-0.938h22.082C76.175,49.772,76.595,50.192,76.595,50.71L76.595,50.71z"/>
	<path fill="#434343" d="M64.595,54.71c0,0.519-0.42,0.938-0.938,0.938H53.576c-0.519,0-0.938-0.42-0.938-0.938l0,0
		c0-0.518,0.42-0.938,0.938-0.938h10.081C64.175,53.772,64.595,54.192,64.595,54.71L64.595,54.71z"/>
	<path fill="#434343" d="M67.595,58.71c0,0.519-0.42,0.938-0.938,0.938H53.576c-0.519,0-0.938-0.42-0.938-0.938l0,0
		c0-0.518,0.42-0.938,0.938-0.938h13.081C67.175,57.772,67.595,58.192,67.595,58.71L67.595,58.71z"/>
	<path fill="#434343" d="M73.595,62.71c0,0.519-0.42,0.938-0.938,0.938H53.576c-0.519,0-0.938-0.42-0.938-0.938l0,0
		c0-0.518,0.42-0.938,0.938-0.938h19.082C73.175,61.772,73.595,62.192,73.595,62.71L73.595,62.71z"/>
	<path fill="#434343" d="M69.595,66.71c0,0.519-0.42,0.938-0.938,0.938H53.576c-0.519,0-0.938-0.42-0.938-0.938l0,0
		c0-0.518,0.42-0.938,0.938-0.938h15.081C69.175,65.772,69.595,66.192,69.595,66.71L69.595,66.71z"/>
	<path fill="#434343" d="M76.595,70.71c0,0.519-0.42,0.938-0.938,0.938H53.576c-0.519,0-0.938-0.42-0.938-0.938l0,0
		c0-0.518,0.42-0.938,0.938-0.938h22.082C76.175,69.772,76.595,70.192,76.595,70.71L76.595,70.71z"/>
</g>
</svg>
