<?xml version="1.0" encoding="utf-8"?>
<!-- Generator: Adobe Illustrator 15.0.0, SVG Export Plug-In . SVG Version: 6.00 Build 0)  -->
<!DOCTYPE svg PUBLIC "-//W3C//DTD SVG 1.0//EN" "http://www.w3.org/TR/2001/REC-SVG-20010904/DTD/svg10.dtd">
<svg version="1.0" id="Layer_1" xmlns="http://www.w3.org/2000/svg" xmlns:xlink="http://www.w3.org/1999/xlink" x="0px" y="0px"
	 width="134.013px" height="141.497px" viewBox="0 0 134.013 141.497" enable-background="new 0 0 134.013 141.497"
	 xml:space="preserve">
<g>
	<path fill="#434343" d="M77.927,52.229c0,0.519-0.42,0.938-0.938,0.938H54.908c-0.519,0-0.938-0.42-0.938-0.938l0,0
		c0-0.518,0.42-0.938,0.938-0.938H76.99C77.507,51.291,77.927,51.711,77.927,52.229L77.927,52.229z"/>
	<path fill="#434343" d="M77.927,56.229c0,0.519-0.42,0.938-0.938,0.938H54.908c-0.519,0-0.938-0.42-0.938-0.938l0,0
		c0-0.518,0.42-0.938,0.938-0.938H76.99C77.507,55.291,77.927,55.711,77.927,56.229L77.927,56.229z"/>
	<path fill="#434343" d="M77.927,60.229c0,0.519-0.42,0.938-0.938,0.938H54.908c-0.519,0-0.938-0.42-0.938-0.938l0,0
		c0-0.518,0.42-0.938,0.938-0.938H76.99C77.507,59.291,77.927,59.711,77.927,60.229L77.927,60.229z"/>
	<path fill="#434343" d="M77.927,64.229c0,0.519-0.42,0.938-0.938,0.938H54.908c-0.519,0-0.938-0.42-0.938-0.938l0,0
		c0-0.518,0.42-0.938,0.938-0.938H76.99C77.507,63.291,77.927,63.711,77.927,64.229L77.927,64.229z"/>
	<path fill="#434343" d="M77.927,68.229c0,0.519-0.42,0.938-0.938,0.938H54.908c-0.519,0-0.938-0.42-0.938-0.938l0,0
		c0-0.518,0.42-0.938,0.938-0.938H76.99C77.507,67.291,77.927,67.711,77.927,68.229L77.927,68.229z"/>
	<path fill="#434343" d="M73.927,72.229c0,0.519-0.42,0.938-0.938,0.938H58.908c-0.519,0-0.938-0.42-0.938-0.938l0,0
		c0-0.518,0.42-0.938,0.938-0.938H72.99C73.507,71.291,73.927,71.711,73.927,72.229L73.927,72.229z"/>
</g>
</svg>
