<?xml version="1.0" encoding="utf-8"?>
<!-- Generator: Adobe Illustrator 15.0.0, SVG Export Plug-In . SVG Version: 6.00 Build 0)  -->
<!DOCTYPE svg PUBLIC "-//W3C//DTD SVG 1.0//EN" "http://www.w3.org/TR/2001/REC-SVG-20010904/DTD/svg10.dtd">
<svg version="1.0" id="Layer_1" xmlns="http://www.w3.org/2000/svg" xmlns:xlink="http://www.w3.org/1999/xlink" x="0px" y="0px"
	 width="134.013px" height="141.497px" viewBox="0 0 134.013 141.497" enable-background="new 0 0 134.013 141.497"
	 xml:space="preserve">
<g>
	<path fill="#434343" d="M70.814,65.338c-0.322-0.323-0.847-0.323-1.17,0v1.653c-0.16-0.06-0.334-0.097-0.516-0.097h-19
		c-0.828,0-1.5,0.672-1.5,1.5s0.672,1.346,1.5,1.346h19c0.182,0,0.354-0.037,0.516-0.097v2.009c0.323,0.322,0.848,0.322,1.17,0
		l2.573-2.572c0.322-0.323,0.322-0.848,0-1.17L70.814,65.338z"/>
	<path fill="#434343" d="M50.129,60.77h19.516v1.884c0.323,0.322,0.848,0.322,1.17,0l2.573-2.571c0.322-0.324,0.322-0.849,0-1.171
		l-2.573-2.572c-0.322-0.323-0.847-0.323-1.17,0v1.558H50.129c-0.828,0-1.5,0.672-1.5,1.5S49.301,60.77,50.129,60.77z"/>
</g>
</svg>
