<?xml version="1.0" encoding="utf-8"?>
<!-- Generator: Adobe Illustrator 15.0.0, SVG Export Plug-In . SVG Version: 6.00 Build 0)  -->
<!DOCTYPE svg PUBLIC "-//W3C//DTD SVG 1.0//EN" "http://www.w3.org/TR/2001/REC-SVG-20010904/DTD/svg10.dtd">
<svg version="1.0" id="Layer_1" xmlns="http://www.w3.org/2000/svg" xmlns:xlink="http://www.w3.org/1999/xlink" x="0px" y="0px"
	 width="134.013px" height="141.497px" viewBox="0 0 134.013 141.497" enable-background="new 0 0 134.013 141.497"
	 xml:space="preserve">
<g>
	<path fill="#434343" d="M69.933,59.673l-5-7.893l-4.917,7.895h2.959v2.016c0,1.097,0.886,1.984,1.979,1.984
		c1.094,0,1.979-0.889,1.979-1.984v-2.017L69.933,59.673z"/>
	<path fill="#434343" d="M57.002,65.286l-4.008,8.348l9.287,0.047l-1.575-2.506l1.708-1.071c0.928-0.584,1.208-1.806,0.626-2.731
		s-1.805-1.202-2.732-0.618l-1.707,1.071L57.002,65.286z"/>
	<path fill="#434343" d="M67.362,73.624l9.345,0.004l-3.773-8.433l-1.583,2.584l-1.963-1.112c-0.928-0.586-2.151-0.314-2.737,0.607
		c-0.586,0.924-0.309,2.147,0.617,2.734l1.703,1.079L67.362,73.624z"/>
</g>
</svg>
