<?xml version="1.0" encoding="utf-8"?>
<!-- Generator: Adobe Illustrator 15.0.0, SVG Export Plug-In . SVG Version: 6.00 Build 0)  -->
<!DOCTYPE svg PUBLIC "-//W3C//DTD SVG 1.0//EN" "http://www.w3.org/TR/2001/REC-SVG-20010904/DTD/svg10.dtd">
<svg version="1.0" id="Layer_1" xmlns="http://www.w3.org/2000/svg" xmlns:xlink="http://www.w3.org/1999/xlink" x="0px" y="0px"
	 width="134.013px" height="141.497px" viewBox="0 0 134.013 141.497" enable-background="new 0 0 134.013 141.497"
	 xml:space="preserve">
<g>
	<rect x="65.456" y="76.572" fill="none" width="1.104" height="1.125"/>
	<rect x="63.456" y="72.572" fill="none" width="1.104" height="1.125"/>
	<rect x="67.456" y="72.572" fill="none" width="1.104" height="1.125"/>
	<rect x="67.456" y="74.572" fill="none" width="1.104" height="1.125"/>
	<rect x="63.456" y="74.572" fill="none" width="1.104" height="1.125"/>
	<rect x="65.456" y="72.572" fill="none" width="1.104" height="1.125"/>
	<rect x="67.456" y="76.572" fill="none" width="1.104" height="1.125"/>
	<rect x="54.456" y="72.572" fill="none" width="4.125" height="1.125"/>
	<rect x="53.435" y="74.552" fill="none" width="6.083" height="2.083"/>
	<rect x="61.456" y="76.572" fill="none" width="1.104" height="1.125"/>
	<rect x="63.456" y="76.572" fill="none" width="1.104" height="1.125"/>
	<rect x="61.456" y="74.572" fill="none" width="1.104" height="1.125"/>
	<rect x="61.456" y="72.572" fill="none" width="1.104" height="1.125"/>
	<rect x="65.456" y="74.572" fill="none" width="1.104" height="1.125"/>
	<path fill="none" d="M66.56,57.583H55.476c-1.104,0-2,0.885-2,1.977v9.142c0,1.091,0.896,1.977,2,1.977H66.56
		c1.104,0,2-0.886,2-1.977V59.56C68.56,58.468,67.665,57.583,66.56,57.583z M67.476,67.625c0,1.099-0.888,1.988-1.984,1.988h-8.969
		c-1.097,0-1.983-0.891-1.983-1.988v-6.959c0-1.1,0.888-1.989,1.983-1.989h8.969c1.098,0,1.984,0.892,1.984,1.989V67.625z"/>
	<path fill="#434343" d="M68.452,55.666H53.538c-1.114,0-2.02,0.904-2.02,2.019v19.933c0,1.113,0.904,2.019,2.02,2.019h14.914
		c1.115,0,2.021-0.904,2.021-2.019V57.685C70.471,56.57,69.567,55.666,68.452,55.666z M59.518,76.635h-6.083v-2.083h6.083V76.635z
		 M54.456,73.697v-1.125h4.125v1.125H54.456z M62.56,77.697h-1.104v-1.125h1.104V77.697z M62.56,75.697h-1.104v-1.125h1.104V75.697z
		 M62.56,73.697h-1.104v-1.125h1.104V73.697z M64.56,77.697h-1.104v-1.125h1.104V77.697z M64.56,75.697h-1.104v-1.125h1.104V75.697z
		 M64.56,73.697h-1.104v-1.125h1.104V73.697z M66.56,77.697h-1.104v-1.125h1.104V77.697z M66.56,75.697h-1.104v-1.125h1.104V75.697z
		 M66.56,73.697h-1.104v-1.125h1.104V73.697z M68.56,77.697h-1.104v-1.125h1.104V77.697z M68.56,75.697h-1.104v-1.125h1.104V75.697z
		 M68.56,73.697h-1.104v-1.125h1.104V73.697z M68.56,68.699c0,1.092-0.896,1.978-2,1.978H55.476c-1.104,0-2-0.886-2-1.978v-9.141
		c0-1.092,0.896-1.977,2-1.977H66.56c1.104,0,2,0.885,2,1.977V68.699z"/>
	<rect x="61.54" y="64.674" fill="#434343" width="0.948" height="1.919"/>
	<rect x="59.54" y="61.656" fill="#434343" width="0.933" height="1.965"/>
	<polygon fill="none" points="62.534,63.62 61.54,63.62 61.54,61.656 62.502,61.656 62.502,61.604 62.56,61.604 62.56,60.603 
		61.54,60.603 61.54,59.593 60.471,59.593 60.471,60.603 59.497,60.603 59.497,61.609 58.497,61.609 58.497,63.668 59.497,63.668 
		59.497,64.674 60.471,64.674 60.471,66.593 59.549,66.593 59.549,66.666 59.497,66.666 59.497,67.691 60.471,67.691 60.471,68.682 
		61.54,68.682 61.54,67.691 62.56,67.691 62.56,66.717 63.56,66.717 63.56,64.626 62.534,64.626 	"/>
	<path fill="#434343" d="M65.492,58.677h-8.969c-1.097,0-1.983,0.892-1.983,1.989v6.959c0,1.099,0.888,1.988,1.983,1.988h8.969
		c1.098,0,1.984-0.891,1.984-1.988v-6.959C67.476,59.568,66.588,58.677,65.492,58.677z M63.56,66.717h-1v0.975H61.54v0.99h-1.067
		v-0.99h-0.974v-1.024h-0.995v-1.062h1.047v0.988h0.922v-1.919h-0.974v-1.006h-1v-2.06h1v-1.007h0.974v-1.01h1.067v1.01h1.021v1.001
		h0.989v1.062h-1.047v-1.012h-0.965v1.966h0.995v1.006h1.026L63.56,66.717L63.56,66.717z"/>
</g>
</svg>
