<?xml version="1.0" encoding="utf-8"?>
<!-- Generator: Adobe Illustrator 15.0.0, SVG Export Plug-In . SVG Version: 6.00 Build 0)  -->
<!DOCTYPE svg PUBLIC "-//W3C//DTD SVG 1.0//EN" "http://www.w3.org/TR/2001/REC-SVG-20010904/DTD/svg10.dtd">
<svg version="1.0" id="Layer_1" xmlns="http://www.w3.org/2000/svg" xmlns:xlink="http://www.w3.org/1999/xlink" x="0px" y="0px"
	 width="220px" height="227px" viewBox="0 0 220 227" enable-background="new 0 0 220 227" xml:space="preserve">
<g>
	<path fill="#434343" d="M118.738,102.069H99.05c-1.191,0-2.156,0.977-2.156,2.18v12.558c0,1.205,0.965,2.183,2.156,2.183h19.688
		c1.191,0,2.156-0.978,2.156-2.183v-12.558C120.895,103.045,119.93,102.069,118.738,102.069z M108.89,104.84
		c1.175,0,2.129,0.914,2.129,2.041c0,1.128-0.954,3.283-2.129,3.283c-1.175,0-2.128-2.155-2.128-3.283
		C106.762,105.754,107.714,104.84,108.89,104.84z M113.982,114.119h-10.17c0,0-0.173-4.102,2.436-4.102
		c0.545,0.791,1.296,1.553,2.674,1.553c1.379,0,2.037-0.768,2.578-1.57C114.436,110,113.982,114.119,113.982,114.119z"/>
	<path fill="#434343" d="M105.794,100.086c0-0.641,0.531-1.162,1.187-1.162h3.89c0.654,0,1.186,0.521,1.186,1.162v0.879h1.713
		v-1.786c0-1.113-0.926-2.021-2.062-2.021h-5.689c-1.137,0-2.062,0.906-2.062,2.021v1.786h1.838L105.794,100.086L105.794,100.086z"
		/>
</g>
</svg>
