<?xml version="1.0" encoding="utf-8"?>
<!-- Generator: Adobe Illustrator 15.0.0, SVG Export Plug-In . SVG Version: 6.00 Build 0)  -->
<!DOCTYPE svg PUBLIC "-//W3C//DTD SVG 1.0//EN" "http://www.w3.org/TR/2001/REC-SVG-20010904/DTD/svg10.dtd">
<svg version="1.0" id="Layer_1" xmlns="http://www.w3.org/2000/svg" xmlns:xlink="http://www.w3.org/1999/xlink" x="0px" y="0px"
	 width="220px" height="227px" viewBox="0 0 220 227" enable-background="new 0 0 220 227" xml:space="preserve">
<g>
	<rect x="117.652" y="113.772" fill="#434343" width="5.934" height="1.939"/>
	<path fill="#434343" d="M112.719,93.794c-0.529,0-1.416,0.229-1.668,0.35c0.848,0.338,1.457,1.183,1.457,1.183
		c0.102-0.017,0.104-0.01,0.211-0.01c1.328,0,2.406,1.119,2.406,2.501h-4.275c-0.061-0.826-0.324-1.589-0.75-2.223
		c-0.332-0.491-0.756-0.904-1.244-1.211c-0.596-0.373-1.284-0.59-2.021-0.59c-2.123,0-3.844,1.771-4.012,4.021h-2.134
		c-0.512,0-0.928,0.389-0.928,0.869v18.114c0,0.479,0.416,0.869,0.928,0.869h15.892V97.901c0.002-0.029,0.008-0.058,0.008-0.087
		C116.588,95.595,114.855,93.794,112.719,93.794z M104.352,97.817c0.162-1.336,1.205-2.368,2.482-2.368
		c0.273,0,0.531,0.06,0.777,0.146c0.504,0.18,0.938,0.518,1.243,0.97c0.244,0.361,0.408,0.789,0.466,1.253h-4.968V97.817z"/>
	<path fill="#434343" d="M121.582,98.602c0-0.481-0.438-0.871-0.981-0.871h-2.938v14.979h3.922L121.582,98.602L121.582,98.602z"/>
	<path fill="#434343" d="M117.66,116.754v0.967h2.955c0.545,0,0.985-0.408,0.985-0.91v-0.057H117.66z"/>
</g>
</svg>
