<?xml version="1.0" encoding="utf-8"?>
<!-- Generator: Adobe Illustrator 15.0.0, SVG Export Plug-In . SVG Version: 6.00 Build 0)  -->
<!DOCTYPE svg PUBLIC "-//W3C//DTD SVG 1.0//EN" "http://www.w3.org/TR/2001/REC-SVG-20010904/DTD/svg10.dtd">
<svg version="1.0" id="Layer_1" xmlns="http://www.w3.org/2000/svg" xmlns:xlink="http://www.w3.org/1999/xlink" x="0px" y="0px"
	 width="220px" height="227px" viewBox="0 0 220 227" enable-background="new 0 0 220 227" xml:space="preserve">
<g>
	<path fill="#434343" d="M106.611,112.126c2.494-0.461,4.334-2.788,4.286-5.419c-0.023-1.276-0.554-2.447-1.467-3.342
		c-0.922-0.876-2.137-1.334-3.416-1.293c-2.583,0.084-4.123,1.413-4.831,4.23c-0.529,2.107-2.029,4.252-3.281,4.938
		c-0.273,0.149-0.549,0.242-0.813,0.276c0.468,0.922,1.084,1.786,1.854,2.555c0.797,0.798,1.695,1.425,2.653,1.899
		C101.846,114.026,104.218,112.57,106.611,112.126z"/>
	<path fill="#434343" d="M115.658,114.327c4.642-4.641,4.604-12.202-0.084-16.89c-4.687-4.688-12.249-4.724-16.888-0.084
		c-3.536,3.536-4.35,8.764-2.465,13.126c0.286,0.029,0.597-0.045,0.929-0.225c1.244-0.674,2.436-2.608,2.967-4.817
		c0.871-3.632,2.459-5.134,5.841-5.205c1.693-0.033,3.309,0.594,4.542,1.768c1.234,1.188,1.943,2.755,1.994,4.45
		c0.104,3.436-1.428,5.832-4.69,6.399c-2.622,0.455-5.144,2.04-5.17,3.988C106.974,118.666,112.15,117.836,115.658,114.327z"/>
</g>
</svg>
