<?xml version="1.0" encoding="utf-8"?>
<!-- Generator: Adobe Illustrator 15.0.0, SVG Export Plug-In . SVG Version: 6.00 Build 0)  -->
<!DOCTYPE svg PUBLIC "-//W3C//DTD SVG 1.0//EN" "http://www.w3.org/TR/2001/REC-SVG-20010904/DTD/svg10.dtd">
<svg version="1.0" id="Layer_1" xmlns="http://www.w3.org/2000/svg" xmlns:xlink="http://www.w3.org/1999/xlink" x="0px" y="0px"
	 width="220px" height="227px" viewBox="0 0 220 227" enable-background="new 0 0 220 227" xml:space="preserve">
<g>
	<path fill="#434343" d="M115.984,103.03h-14.875c0,2.457,3.727,4.488,7.283,4.856l-1.346,10.096c0,1.105,0.896,2,2,2h4.938
		c1.104,0,2-0.895,2-2C115.984,117.982,115.984,103.056,115.984,103.03z"/>
	<g>
		<path fill="#434343" d="M115.047,103.014h-0.955c0,0,0-4.253,0-5.003s-0.342-1.044-1.029-1.044c-0.686,0-1.561,0-1.561,0l-0.453,1
			l-0.985,0.016l0.807-1.637c0.079-0.188,0.258-0.309,0.456-0.309h2.021c0.869,0,1.703,0.43,1.703,1.508v5.469H115.047z"/>
	</g>
	<rect x="113.078" y="101.03" fill="#434343" width="1.422" height="0.97"/>
</g>
</svg>
