<?xml version="1.0" encoding="utf-8"?>
<!-- Generator: Adobe Illustrator 15.0.0, SVG Export Plug-In . SVG Version: 6.00 Build 0)  -->
<!DOCTYPE svg PUBLIC "-//W3C//DTD SVG 1.0//EN" "http://www.w3.org/TR/2001/REC-SVG-20010904/DTD/svg10.dtd">
<svg version="1.0" id="Layer_1" xmlns="http://www.w3.org/2000/svg" xmlns:xlink="http://www.w3.org/1999/xlink" x="0px" y="0px"
	 width="220px" height="227px" viewBox="0 0 220 227" enable-background="new 0 0 220 227" xml:space="preserve">
<g>
	<g>
		<path fill="#434343" d="M117.656,109.467h-7.58c-0.939,0-1.702,0.775-1.702,1.732v18.407c0,0.958,0.763,1.734,1.702,1.734h7.58
			c0.939,0,1.702-0.776,1.702-1.734v-18.407C119.357,110.243,118.596,109.467,117.656,109.467z M118.475,129.607
			c0,0.541-0.418,0.979-0.934,0.979h-7.35c-0.515,0-0.934-0.438-0.934-0.979v-18.407c0-0.539,0.419-0.979,0.934-0.979h7.35
			c0.516,0,0.934,0.44,0.934,0.979V129.607z M110.5,128.781c0,0.264,0.205,0.479,0.456,0.479h5.822c0.249,0,0.454-0.215,0.454-0.479
			v-6.767L110.5,126V128.781L110.5,128.781z"/>
	</g>
	<rect x="112.457" y="107.384" fill="#434343" width="2.909" height="0.875"/>
</g>
</svg>
