<?xml version="1.0" encoding="utf-8"?>
<!-- Generator: Adobe Illustrator 15.0.0, SVG Export Plug-In . SVG Version: 6.00 Build 0)  -->
<!DOCTYPE svg PUBLIC "-//W3C//DTD SVG 1.0//EN" "http://www.w3.org/TR/2001/REC-SVG-20010904/DTD/svg10.dtd">
<svg version="1.0" id="Layer_1" xmlns="http://www.w3.org/2000/svg" xmlns:xlink="http://www.w3.org/1999/xlink" x="0px" y="0px"
	 width="220px" height="227px" viewBox="0 0 220 227" enable-background="new 0 0 220 227" xml:space="preserve">
<g>
	<g>
		<g>
			<path fill="#434343" d="M119.612,95.366h-7.532c-0.936,0-1.691,0.763-1.691,1.703v18.497c0,0.94,0.758,1.703,1.691,1.703h7.532
				c0.937,0,1.692-0.763,1.692-1.703V97.069C121.305,96.129,120.549,95.366,119.612,95.366z M120.381,115.445
				c0,0.523-0.418,0.949-0.932,0.949h-7.34c-0.514,0-0.932-0.426-0.932-0.949V97.189c0-0.521,0.418-0.948,0.932-0.948h7.34
				c0.514,0,0.932,0.427,0.932,0.948V115.445z"/>
		</g>
		<rect x="114.367" y="93.345" fill="#434343" width="2.938" height="0.932"/>
	</g>
	<polygon fill="#434343" points="118.307,103.305 116.203,104.735 117.213,98.417 113.346,108.194 115.321,106.819 114.312,113.29 	
		"/>
</g>
</svg>
