<?xml version="1.0" encoding="utf-8"?>
<!-- Generator: Adobe Illustrator 15.0.0, SVG Export Plug-In . SVG Version: 6.00 Build 0)  -->
<!DOCTYPE svg PUBLIC "-//W3C//DTD SVG 1.0//EN" "http://www.w3.org/TR/2001/REC-SVG-20010904/DTD/svg10.dtd">
<svg version="1.0" id="Layer_1" xmlns="http://www.w3.org/2000/svg" xmlns:xlink="http://www.w3.org/1999/xlink" x="0px" y="0px"
	 width="220px" height="227px" viewBox="0 0 220 227" enable-background="new 0 0 220 227" xml:space="preserve">
<g>
	<path fill="#434343" d="M100.529,119.737c-2.188,0-3.969,1.778-3.969,3.969s1.781,3.969,3.969,3.969s3.969-1.778,3.969-3.969
		S102.717,119.737,100.529,119.737z M100.529,126.698c-1.65,0-2.992-1.343-2.992-2.992s1.342-2.992,2.992-2.992
		s2.992,1.345,2.992,2.992C103.521,125.355,102.179,126.698,100.529,126.698z"/>
	<path fill="#434343" d="M116.561,119.737c-2.193,0-3.974,1.788-3.974,3.983c0,2.196,1.78,3.983,3.974,3.983
		c2.188,0,3.969-1.787,3.969-3.983C120.529,121.525,118.749,119.737,116.561,119.737z M116.513,126.719
		c-1.671,0-3.03-1.352-3.03-3.014c0-1.661,1.359-3.014,3.03-3.014s3.027,1.353,3.027,3.014
		C119.541,125.368,118.182,126.719,116.513,126.719z"/>
	<path fill="#434343" d="M114.5,118l0.17,0.525c0.066,0.211,0.266,0.346,0.477,0.346c0.051,0,0.105-0.008,0.156-0.023
		c0.264-0.084,0.408-0.365,0.324-0.629l-0.908-2.802l1.654-1.849c0.137-0.146,0.174-0.357,0.096-0.541
		c-0.08-0.185-0.262-0.303-0.461-0.303h-3.916c-0.277,0-0.502,0.225-0.502,0.5c0,0.276,0.225,0.5,0.502,0.5h2.852l-1.157,1.221
		c-0.125,0.133-0.169,0.322-0.111,0.496l0.521,1.613l-7.729,3.352v-2.701h0.441c0.322,0,0.578-0.448,0.578-1
		c0-0.553-3.359-1-3.359-1c-0.316,0-0.576,0.447-0.576,1s0.26,1,0.576,1h1.434v3.484c0,0.274,0.224,0.5,0.502,0.5
		C106.197,121.689,114.5,118,114.5,118z"/>
</g>
</svg>
