<?xml version="1.0" encoding="utf-8"?>
<!-- Generator: Adobe Illustrator 15.0.0, SVG Export Plug-In . SVG Version: 6.00 Build 0)  -->
<!DOCTYPE svg PUBLIC "-//W3C//DTD SVG 1.0//EN" "http://www.w3.org/TR/2001/REC-SVG-20010904/DTD/svg10.dtd">
<svg version="1.0" id="Layer_1" xmlns="http://www.w3.org/2000/svg" xmlns:xlink="http://www.w3.org/1999/xlink" x="0px" y="0px"
	 width="220px" height="227px" viewBox="0 0 220 227" enable-background="new 0 0 220 227" xml:space="preserve">
<g>
	<rect x="95.5" y="127" fill="#434343" width="9" height="2"/>
	<rect x="110.5" y="127" fill="#434343" width="9" height="2"/>
	<polygon fill="#434343" points="96.5,126 103.5,126 102.468,120 105.5,120 105.5,111 98.562,111 	"/>
	<polygon fill="#434343" points="111.5,126 118.5,126 116.438,111 109.562,111 109.562,120 112.562,120 	"/>
	<polygon fill="#434343" points="100.5,109.969 104.437,109.969 104.437,107.969 105.478,107.969 105.478,105.073 99.541,105.073 
		99.541,107.969 100.5,107.969 	"/>
	<polygon fill="#434343" points="110.5,109.969 114.438,109.969 114.438,107.969 115.479,107.969 115.479,105.073 109.541,105.073 
		109.541,107.969 110.5,107.969 	"/>
	<polygon fill="#434343" points="105.509,112.969 106.5,112.969 106.5,118.073 105.509,118.073 105.509,120.969 109.457,120.969 
		109.457,118.073 108.459,118.073 108.459,112.969 109.457,112.969 109.457,110.073 105.509,110.073 	"/>
</g>
</svg>
