<?xml version="1.0" encoding="utf-8"?>
<!-- Generator: Adobe Illustrator 15.0.0, SVG Export Plug-In . SVG Version: 6.00 Build 0)  -->
<!DOCTYPE svg PUBLIC "-//W3C//DTD SVG 1.0//EN" "http://www.w3.org/TR/2001/REC-SVG-20010904/DTD/svg10.dtd">
<svg version="1.0" id="Layer_1" xmlns="http://www.w3.org/2000/svg" xmlns:xlink="http://www.w3.org/1999/xlink" x="0px" y="0px"
	 width="220px" height="227px" viewBox="0 0 220 227" enable-background="new 0 0 220 227" xml:space="preserve">
<g>
	<polygon fill="#434343" points="96.854,116.278 96.137,116.998 95.422,116.284 101.88,111.251 111.861,121.232 106.83,127.691 
		106.117,126.979 106.834,126.26 105.409,124.834 104.69,125.553 103.264,124.127 103.983,123.407 102.557,121.982 101.838,122.7 
		101.126,121.987 101.844,121.27 101.131,120.557 100.413,121.275 98.988,119.848 99.705,119.131 98.28,117.704 97.561,118.424 
		96.848,117.711 97.567,116.991 	"/>
	<path fill="#434343" d="M114.744,115.498l-1.707-1.708c2.764-2.405,4.92-4.356,5.308-4.746c1.19-1.188,1.198-3.11,0.019-4.293
		c-1.183-1.182-3.104-1.174-4.293,0.017c-0.39,0.389-2.34,2.545-4.746,5.309l-1.707-1.707c-0.788-0.787-2.069-0.782-2.863,0.011
		l-1.436,1.438l9.979,9.979l1.438-1.438C115.525,117.566,115.531,116.284,114.744,115.498z M114.771,108.343
		c-0.789-0.789-0.785-2.07,0.01-2.863c0.793-0.793,2.074-0.797,2.861-0.01c0.787,0.787,0.782,2.067-0.012,2.86
		C116.839,109.125,115.557,109.13,114.771,108.343z"/>
</g>
</svg>
