<?xml version="1.0" encoding="utf-8"?>
<!-- Generator: Adobe Illustrator 15.0.0, SVG Export Plug-In . SVG Version: 6.00 Build 0)  -->
<!DOCTYPE svg PUBLIC "-//W3C//DTD SVG 1.0//EN" "http://www.w3.org/TR/2001/REC-SVG-20010904/DTD/svg10.dtd">
<svg version="1.0" id="Layer_1" xmlns="http://www.w3.org/2000/svg" xmlns:xlink="http://www.w3.org/1999/xlink" x="0px" y="0px"
	 width="220px" height="227px" viewBox="0 0 220 227" enable-background="new 0 0 220 227" xml:space="preserve">
<g>
	<path fill="#434343" d="M113.48,115.949c-0.004,1.624,1.32,2.943,2.953,2.947c1.633,0.005,2.965-1.312,2.969-2.936
		c0.004-1.623-1.322-2.942-2.955-2.946C114.812,113.01,113.483,114.326,113.48,115.949z M114.762,115.942
		c0.002-0.929,0.758-1.683,1.688-1.679c0.93,0.002,1.686,0.758,1.684,1.687c-0.004,0.929-0.763,1.681-1.689,1.679
		C115.512,117.626,114.758,116.87,114.762,115.942z"/>
	<path fill="#434343" d="M124.938,112.632c1.691,0.004,3.445,1.375,3.43,3.061l0.068-11.843c0.002-1.525-1.326-2.88-2.83-2.884
		l-6.405-0.016c-1.502-0.003-2.728,1.234-2.729,2.76l-1.014,5.414c0,0.215-1.974,0.417-1.927,0.617
		c-0.654,0.477-1.08,1.172-1.083,2.174c-0.002,0.787,0.033,1.518,0.261,2.136c0.625-1.212,1.907-2.382,4.134-2.157
		c3.271,0.414,3.725,4.009,3.723,4.042l0.906-0.012C121.446,114.133,123.159,112.628,124.938,112.632z M120.488,108.017
		l-3.094-0.009l0.677-3.889c0,0,0.496-1.172,1.14-1.171c0.641,0.001,1.291,0.005,1.291,0.005L120.488,108.017z M122.395,104.65
		c0.004-1.441,0.199-1.784,1.354-1.781l1.438,0.003c0.994,0.003,1.348,0.597,1.345,1.788l-0.011,4.371l-4.133-0.01L122.395,104.65z"
		/>
	<path fill="#434343" d="M110.424,101.994c-0.55-0.002-0.929,0.445-0.929,0.998l-0.026,11l-4.038-0.01
		c-0.55-0.002-0.995,0.377-0.996,0.93c-0.002,0.553,0.442,1,0.992,1.002l4.964,0.012c0.55,0.002,0.996-0.443,0.998-0.998
		l0.026-11.932C111.418,102.443,110.975,101.994,110.424,101.994z"/>
	<path fill="#434343" d="M124.946,113.945c-1.347,0-2.438,1.119-2.438,2.5s1.092,2.5,2.438,2.5c1.349,0,2.438-1.119,2.438-2.5
		S126.293,113.945,124.946,113.945z M125.51,117.07h-1.188v-1.25h1.188V117.07z"/>
</g>
</svg>
