<?xml version="1.0" encoding="utf-8"?>
<!-- Generator: Adobe Illustrator 15.0.0, SVG Export Plug-In . SVG Version: 6.00 Build 0)  -->
<!DOCTYPE svg PUBLIC "-//W3C//DTD SVG 1.0//EN" "http://www.w3.org/TR/2001/REC-SVG-20010904/DTD/svg10.dtd">
<svg version="1.0" id="Layer_1" xmlns="http://www.w3.org/2000/svg" xmlns:xlink="http://www.w3.org/1999/xlink" x="0px" y="0px"
	 width="220px" height="227px" viewBox="0 0 220 227" enable-background="new 0 0 220 227" xml:space="preserve">
<path fill="#434343" d="M107.104,100.735c-6.595,0-11.938,5.354-11.938,11.958s5.344,11.958,11.938,11.958
	c6.592,0,11.938-5.354,11.938-11.958S113.696,100.735,107.104,100.735z M112.309,117.191c-1.188-2.177-3.082-3.191-5.809-3.191
	c-0.033,0-0.293,0.001-0.354,0.002v2.398c-0.322,0.318-0.738,0.283-1.019,0.053l-3.889-3.636c-0.318-0.321-0.318-0.843,0-1.163
	l3.889-3.635c0.32-0.322,0.695-0.375,1.019-0.056v2.451c0.073,0,0.344-0.001,0.383-0.001c3.926,0,6.639,2.604,6.639,6.398
	C113.169,118.131,112.561,117.652,112.309,117.191z"/>
</svg>
