<?xml version="1.0" encoding="utf-8"?>
<!-- Generator: Adobe Illustrator 15.0.0, SVG Export Plug-In . SVG Version: 6.00 Build 0)  -->
<!DOCTYPE svg PUBLIC "-//W3C//DTD SVG 1.0//EN" "http://www.w3.org/TR/2001/REC-SVG-20010904/DTD/svg10.dtd">
<svg version="1.0" id="Layer_1" xmlns="http://www.w3.org/2000/svg" xmlns:xlink="http://www.w3.org/1999/xlink" x="0px" y="0px"
	 width="220px" height="227px" viewBox="0 0 220 227" enable-background="new 0 0 220 227" xml:space="preserve">
<path fill="#434343" d="M102.756,101.875c-6.575,0-11.906,5.33-11.906,11.906s5.331,11.906,11.906,11.906
	c6.574,0,11.906-5.33,11.906-11.906S109.33,101.875,102.756,101.875z M102.818,122.406c-0.863,0-1.562-0.699-1.562-1.562
	s0.698-1.562,1.562-1.562c0.864,0,1.562,0.698,1.562,1.562C104.38,121.708,103.682,122.406,102.818,122.406z M105.117,113.745
	c-0.671,0.563-1.041,0.876-1.041,1.772v1.264c0,0.711-0.578,1.289-1.289,1.289s-1.288-0.578-1.288-1.289v-1.264
	c0-2.1,1.179-3.091,1.958-3.747c0.671-0.564,1.04-0.875,1.04-1.771c0-1.014-0.768-1.838-1.709-1.838c-0.942,0-1.71,0.824-1.71,1.838
	c0,0.711-0.578,1.289-1.289,1.289c-0.711,0-1.289-0.578-1.289-1.289c0-2.436,1.924-4.416,4.288-4.416
	c2.362,0,4.288,1.98,4.288,4.416C107.075,112.095,105.896,113.087,105.117,113.745z"/>
</svg>
