<?xml version="1.0" encoding="utf-8"?>
<!-- Generator: Adobe Illustrator 15.0.0, SVG Export Plug-In . SVG Version: 6.00 Build 0)  -->
<!DOCTYPE svg PUBLIC "-//W3C//DTD SVG 1.0//EN" "http://www.w3.org/TR/2001/REC-SVG-20010904/DTD/svg10.dtd">
<svg version="1.0" id="Layer_1" xmlns="http://www.w3.org/2000/svg" xmlns:xlink="http://www.w3.org/1999/xlink" x="0px" y="0px"
	 width="220px" height="227px" viewBox="0 0 220 227" enable-background="new 0 0 220 227" xml:space="preserve">
<path fill="#434343" d="M127.41,107.152l-7.959,1l-8.123-1c-2.188,0-3.959,1.93-3.959,4.311v7.294c0,2.383,1.771,4.312,3.959,4.312
	l8.207-1l7.875,1c2.186,0,3.959-1.93,3.959-4.312v-7.294C131.369,109.083,129.596,107.152,127.41,107.152z M121.953,116.004
	l-3.633,2.816c-0.604,0.469-1.445,0.467-2.059-0.006l0.045-7.496c0.605-0.471,1.369-0.328,1.98,0.146l3.656,2.834
	C122.557,114.772,122.559,115.535,121.953,116.004z"/>
</svg>
