<?xml version="1.0" encoding="utf-8"?>
<!-- Generator: Adobe Illustrator 15.0.0, SVG Export Plug-In . SVG Version: 6.00 Build 0)  -->
<!DOCTYPE svg PUBLIC "-//W3C//DTD SVG 1.0//EN" "http://www.w3.org/TR/2001/REC-SVG-20010904/DTD/svg10.dtd">
<svg version="1.0" id="Layer_1" xmlns="http://www.w3.org/2000/svg" xmlns:xlink="http://www.w3.org/1999/xlink" x="0px" y="0px"
	 width="220px" height="227px" viewBox="0 0 220 227" enable-background="new 0 0 220 227" xml:space="preserve">
<path fill="#434343" d="M120.863,104.095c-6.575,0-11.906,5.33-11.906,11.906c0,6.576,5.331,11.906,11.906,11.906
	c6.574,0,11.906-5.33,11.906-11.906C132.77,109.425,127.438,104.095,120.863,104.095z M122.036,122.27
	c0,0.812-0.502,1.473-1.12,1.473c-0.617,0-1.119-0.66-1.119-1.473v-7.41c0-0.812,0.502-1.473,1.119-1.473
	c0.618,0,1.12,0.659,1.12,1.473V122.27z M120.863,111.638c-0.903,0-1.637-0.732-1.637-1.638c0-0.906,0.731-1.637,1.637-1.637
	c0.902,0,1.637,0.731,1.637,1.637C122.5,110.906,121.768,111.638,120.863,111.638z"/>
</svg>
