<?xml version="1.0" encoding="utf-8"?>
<!-- Generator: Adobe Illustrator 15.0.0, SVG Export Plug-In . SVG Version: 6.00 Build 0)  -->
<!DOCTYPE svg PUBLIC "-//W3C//DTD SVG 1.0//EN" "http://www.w3.org/TR/2001/REC-SVG-20010904/DTD/svg10.dtd">
<svg version="1.0" id="Layer_1" xmlns="http://www.w3.org/2000/svg" xmlns:xlink="http://www.w3.org/1999/xlink" x="0px" y="0px"
	 width="220px" height="227px" viewBox="0 0 220 227" enable-background="new 0 0 220 227" xml:space="preserve">
<g>
	<g>
		<path fill="#434343" d="M130.247,120.875c0,6.57-5.383,11.916-12,11.916c-6.616,0-12-5.346-12-11.916
			c0-6.572,5.384-11.917,12-11.917C124.864,108.958,130.247,114.303,130.247,120.875z M108.247,120.875
			c0,5.467,4.486,9.916,10,9.916c5.515,0,10-4.449,10-9.916c0-5.469-4.485-9.917-10-9.917
			C112.733,110.958,108.247,115.406,108.247,120.875z"/>
	</g>
	<g>
		<path fill="#434343" d="M118.321,125.787l5.928-5.031l-5.929-4.979v3.043h-4.406c-0.699,0-1.611,0.662-1.611,1.948
			c0,1.284,0.986,1.989,1.688,1.989h4.332L118.321,125.787L118.321,125.787z"/>
	</g>
</g>
</svg>
