<?xml version="1.0" encoding="utf-8"?>
<!-- Generator: Adobe Illustrator 15.0.0, SVG Export Plug-In . SVG Version: 6.00 Build 0)  -->
<!DOCTYPE svg PUBLIC "-//W3C//DTD SVG 1.0//EN" "http://www.w3.org/TR/2001/REC-SVG-20010904/DTD/svg10.dtd">
<svg version="1.0" id="Layer_1" xmlns="http://www.w3.org/2000/svg" xmlns:xlink="http://www.w3.org/1999/xlink" x="0px" y="0px"
	 width="220px" height="227px" viewBox="0 0 220 227" enable-background="new 0 0 220 227" xml:space="preserve">
<path fill="#434343" d="M115.583,114.082l-8.041,1l-8.041-1c-2.188,0-3.959,1.93-3.959,4.311v7.299c0,2.381,1.771,4.311,3.959,4.311
	l8.041-1l8.041,1c2.187,0,3.959-1.93,3.959-4.311v-7.299C119.542,116.012,117.77,114.082,115.583,114.082z M106.605,120.104h-3.031
	v6h-2.062v-6H98.5V118h8.104L106.605,120.104L106.605,120.104z M113.042,126.041h-1.966l-3.483-8h2.267l2.216,5.785l2.146-5.785
	h2.258L113.042,126.041z"/>
</svg>
