<?xml version="1.0" encoding="utf-8"?>
<!-- Generator: Adobe Illustrator 15.0.0, SVG Export Plug-In . SVG Version: 6.00 Build 0)  -->
<!DOCTYPE svg PUBLIC "-//W3C//DTD SVG 1.0//EN" "http://www.w3.org/TR/2001/REC-SVG-20010904/DTD/svg10.dtd">
<svg version="1.0" id="Layer_1" xmlns="http://www.w3.org/2000/svg" xmlns:xlink="http://www.w3.org/1999/xlink" x="0px" y="0px"
	 width="220px" height="227px" viewBox="0 0 220 227" enable-background="new 0 0 220 227" xml:space="preserve">
<g>
	<path fill="#434343" d="M118.73,102.5c0,1.646-2.616,2.986-4.239,2.986s-4.014-1.34-4.014-2.986h-6.357v1.969h4.666
		c0.903,1.372,2.534,2.417,4.289,2.803v8.166c0,0,0.588-1.149,1.432-1.149c0.594,0,1.219,0.477,1.41,1.125v-8.144
		c1.787-0.396,3.676-1.473,4.561-2.884H125V102.5H118.73z"/>
	<path fill="#434343" d="M114.507,116.5c-0.794,0-1.438,0.546-1.438,1.219v7.562c0,0.673,0.644,1.219,1.438,1.219
		s1.438-0.546,1.438-1.219v-7.562C115.944,117.046,115.301,116.5,114.507,116.5z"/>
	<path fill="#434343" d="M111.06,118.562h-3.129c-0.481,0-0.873,0.405-0.873,0.905s0.392,0.906,0.873,0.906h3.129
		c0.482,0,0.873-0.406,0.873-0.906S111.542,118.562,111.06,118.562z"/>
	<path fill="#434343" d="M121.06,122.562h-3.129c-0.481,0-0.873,0.405-0.873,0.905s0.392,0.906,0.873,0.906h3.129
		c0.482,0,0.873-0.406,0.873-0.906S121.542,122.562,121.06,122.562z"/>
</g>
</svg>
