<?xml version="1.0" encoding="utf-8"?>
<!-- Generator: Adobe Illustrator 15.0.0, SVG Export Plug-In . SVG Version: 6.00 Build 0)  -->
<!DOCTYPE svg PUBLIC "-//W3C//DTD SVG 1.0//EN" "http://www.w3.org/TR/2001/REC-SVG-20010904/DTD/svg10.dtd">
<svg version="1.0" id="Layer_1" xmlns="http://www.w3.org/2000/svg" xmlns:xlink="http://www.w3.org/1999/xlink" x="0px" y="0px"
	 width="220px" height="227px" viewBox="0 0 220 227" enable-background="new 0 0 220 227" xml:space="preserve">
<path fill="#434343" d="M114.414,113.127c-0.59,0-1.135-0.129-1.623-0.338c-0.9-0.387-1.578-1.074-1.822-1.908
	c-0.373,0.983-1.524,1.768-3.021,2.084c-0.458,0.097-0.938,0.162-1.447,0.162c-0.509,0-0.988-0.065-1.446-0.162
	c-1.603-0.338-2.792-1.215-3.071-2.299h-0.064c-0.183,0.923-0.856,1.694-1.811,2.114c-0.486,0.214-1.031,0.347-1.619,0.347
	c-0.451,0-0.881-0.076-1.277-0.209l2.043,8.605c0.158,0.744,0.847,2.475,2.301,2.475h9.92c1.438,0,2.062-1.729,2.301-2.475
	l2.049-8.639C115.391,113.041,114.916,113.127,114.414,113.127z M107.006,122.125h-1.062V115h1.062V122.125z M102.961,122.037
	l-1.057,0.127l-0.854-7.073l1.055-0.128L102.961,122.037z M110.906,114.961l1.056,0.129l-0.854,7.072l-1.056-0.127L110.906,114.961z
	"/>
<g>
	<path fill="#434343" d="M106.578,101.15c-6.338,0-11.556,3.841-11.556,7.246c0,0.061-0.038,0.477-0.038,0.634
		c0,1.642,1.569,2.97,3.504,2.97c0.588,0,1.134-0.134,1.619-0.35c0.99-0.441,1.693-1.264,1.842-2.244
		c0.228,1.146,1.451,2.076,3.104,2.43c0.458,0.099,0.938,0.164,1.447,0.164c0.509,0,0.989-0.065,1.446-0.164
		c1.496-0.319,2.647-1.111,3.021-2.108c0.244,0.844,0.922,1.541,1.822,1.932c0.49,0.211,1.035,0.343,1.624,0.343
		c1.962,0,3.553-1.33,3.553-2.971c0-0.089,0.006-0.501,0.006-0.634C117.974,104.991,112.916,101.15,106.578,101.15z
		 M115.755,109.119c-0.063,0.025-0.127,0.037-0.19,0.037c-0.199,0-0.389-0.117-0.467-0.312c-0.91-2.224-3.234-3.775-5.65-3.775
		c-0.277,0-0.504-0.225-0.504-0.502c0-0.278,0.227-0.504,0.504-0.504c2.815,0,5.521,1.812,6.583,4.4
		C116.137,108.72,116.012,109.013,115.755,109.119z"/>
</g>
</svg>
