<?xml version="1.0" encoding="utf-8"?>
<!-- Generator: Adobe Illustrator 15.0.0, SVG Export Plug-In . SVG Version: 6.00 Build 0)  -->
<!DOCTYPE svg PUBLIC "-//W3C//DTD SVG 1.0//EN" "http://www.w3.org/TR/2001/REC-SVG-20010904/DTD/svg10.dtd">
<svg version="1.0" id="Layer_1" xmlns="http://www.w3.org/2000/svg" xmlns:xlink="http://www.w3.org/1999/xlink" x="0px" y="0px"
	 width="220px" height="227px" viewBox="0 0 220 227" enable-background="new 0 0 220 227" xml:space="preserve">
<path fill="#434343" d="M118.471,92h-13.935c-1.101,0-1.991,0.896-1.991,2v20c0,1.105,0.892,2,1.991,2h13.935
	c1.102,0,1.991-0.895,1.991-2V94C120.463,92.896,119.571,92,118.471,92z M107.522,93h8.09v1h-8.09V93z M106.611,114h-2.158v-2h2.158
	V114z M106.611,110h-2.158v-2h2.158V110z M110.591,114h-2.116v-2h2.116V114z M110.591,110h-2.116v-2h2.116V110z M110.591,106h-2.116
	v-2h2.116V106z M114.575,114H112.5v-2h2.075V114z M114.575,110H112.5v-2h2.075V110z M114.575,106H112.5v-2h2.075V106z M118.596,114
	h-2.115v-6h2.115V114z M118.555,106h-2.074v-2h2.074V106z M118.596,102h-14.143v-6h14.143V102z"/>
</svg>
