<?xml version="1.0" encoding="utf-8"?>
<!-- Generator: Adobe Illustrator 15.0.0, SVG Export Plug-In . SVG Version: 6.00 Build 0)  -->
<!DOCTYPE svg PUBLIC "-//W3C//DTD SVG 1.0//EN" "http://www.w3.org/TR/2001/REC-SVG-20010904/DTD/svg10.dtd">
<svg version="1.0" id="Layer_1" xmlns="http://www.w3.org/2000/svg" xmlns:xlink="http://www.w3.org/1999/xlink" x="0px" y="0px"
	 width="220px" height="227px" viewBox="0 0 220 227" enable-background="new 0 0 220 227" xml:space="preserve">
<g>
	<path fill="#434343" d="M114.301,106.902h2.918v-0.849h-2.918v-3.041h-0.959v3.041h-5.14v-3.041h-0.867v3.041h-4.148v-3.043h-0.785
		v3.043h-3.069v0.849h3.069v3.091h-3.1v0.977h3.1v1.976h0.785v-1.976h4.148v1.976h0.867v-1.976h5.14v1.974h0.959v-1.974h2.957
		v-0.977h-2.957V106.902z M103.186,109.992v-3.091h4.148v3.091H103.186z M108.244,109.992v-3.091h5.098v3.091H108.244z"/>
	<path fill="#434343" d="M118.07,97.035h-1.639v1.866c0,0.15-0.119,0.272-0.268,0.272h-0.811c-0.146,0-0.268-0.122-0.268-0.272
		v-1.866h-13.573v1.866c0,0.15-0.121,0.272-0.27,0.272h-0.81c-0.147,0-0.268-0.122-0.268-0.272v-1.866h-1.64
		c-1.231,0-2.229,1.01-2.229,2.255v14.322c0,1.244,0.998,2.255,2.229,2.255h19.539c1.232,0,2.23-1.011,2.23-2.255V99.291
		C120.301,98.046,119.303,97.035,118.07,97.035z M118.32,112.185c0,1.067-0.834,1.931-1.859,1.931h-16.316
		c-1.026,0-1.862-0.863-1.862-1.931v-8.366c0-1.066,0.836-1.931,1.862-1.931h16.316c1.025,0,1.859,0.864,1.859,1.931V112.185z"/>
	<path fill="#434343" d="M101.279,95.381c0-0.187-0.084-0.34-0.186-0.34h-0.559c-0.103,0-0.185,0.153-0.185,0.34v1.526h0.928
		L101.279,95.381L101.279,95.381z"/>
	<path fill="#434343" d="M116.201,95.335c0-0.193-0.074-0.35-0.166-0.35h-0.506c-0.093,0-0.166,0.156-0.166,0.35v1.572h0.838V95.335
		L116.201,95.335z"/>
</g>
</svg>
