<?xml version="1.0" encoding="utf-8"?>
<!-- Generator: Adobe Illustrator 15.0.0, SVG Export Plug-In . SVG Version: 6.00 Build 0)  -->
<!DOCTYPE svg PUBLIC "-//W3C//DTD SVG 1.0//EN" "http://www.w3.org/TR/2001/REC-SVG-20010904/DTD/svg10.dtd">
<svg version="1.0" id="Layer_1" xmlns="http://www.w3.org/2000/svg" xmlns:xlink="http://www.w3.org/1999/xlink" x="0px" y="0px"
	 width="220px" height="227px" viewBox="0 0 220 227" enable-background="new 0 0 220 227" xml:space="preserve">
<g>
	<path fill="#434343" d="M120.918,100.776c-4.646-4.646-12.208-4.646-16.854,0c-4.646,4.646-4.646,12.207,0,16.854
		c4.646,4.646,12.206,4.646,16.854,0C125.564,112.982,125.562,105.421,120.918,100.776z M105.479,116.214
		c-3.873-3.871-3.877-10.168-0.01-14.033c3.865-3.867,10.162-3.863,14.034,0.009c3.872,3.872,3.876,10.169,0.009,14.035
		C115.646,120.091,109.35,120.087,105.479,116.214z"/>
	<path fill="#434343" d="M118.066,111.994l-2.781-2.781l2.761-2.76c0.495-0.494,0.67-1.607-0.237-2.519
		c-0.91-0.909-2.104-0.71-2.602-0.215l-2.707,2.707l-2.729-2.727c-0.495-0.494-1.607-0.671-2.518,0.239
		c-0.91,0.908-0.71,2.104-0.215,2.601l2.675,2.674l-2.757,2.758c-0.495,0.496-0.671,1.608,0.239,2.518
		c0.908,0.909,2.104,0.711,2.6,0.216L112.5,112l2.833,2.833c0.495,0.495,1.608,0.671,2.519-0.239
		C118.76,113.684,118.561,112.489,118.066,111.994z"/>
</g>
</svg>
