<?xml version="1.0" encoding="utf-8"?>
<!-- Generator: Adobe Illustrator 15.0.0, SVG Export Plug-In . SVG Version: 6.00 Build 0)  -->
<!DOCTYPE svg PUBLIC "-//W3C//DTD SVG 1.0//EN" "http://www.w3.org/TR/2001/REC-SVG-20010904/DTD/svg10.dtd">
<svg version="1.0" id="Layer_1" xmlns="http://www.w3.org/2000/svg" xmlns:xlink="http://www.w3.org/1999/xlink" x="0px" y="0px"
	 width="220px" height="227px" viewBox="0 0 220 227" enable-background="new 0 0 220 227" xml:space="preserve">
<g>
	<path fill="#434343" d="M112.805,105.27l-1.95,3.731c-0.095,0.182-0.276,0.285-0.495,0.267c-0.204-0.021-0.374-0.166-0.43-0.362
		l-1.459-5.188l-1.541,6.172c-0.055,0.22-0.249,0.374-0.475,0.379h-0.011c-0.221,0-0.416-0.145-0.479-0.356l-2.612-8.803
		L101.361,105c-0.086,0.166-0.188,0.341-0.376,0.341h-2.333c2.521,7.178,11.301,10.789,11.301,10.789s8.745-3.59,11.236-10.859
		L112.805,105.27L112.805,105.27z"/>
	<path fill="#434343" d="M100.608,104.004l2.421-4.65c0.094-0.182,0.284-0.294,0.491-0.27c0.204,0.02,0.375,0.16,0.434,0.354
		l2.446,8.245l1.554-6.224c0.055-0.221,0.251-0.375,0.478-0.379h0.008c0.224,0,0.421,0.147,0.481,0.364l1.629,5.787l1.506-2.884
		c0.088-0.165,0.258-0.347,0.443-0.347h8.984c0.23-0.921,0.365-1.814,0.365-2.844c0-3.332-2.7-6.031-6.031-6.031
		c-2.877,0-5.279,2.016-5.882,4.712c-0.627-2.698-3.04-4.712-5.931-4.712c-3.366,0-6.094,2.729-6.094,6.094
		c0,1.005,0.135,1.878,0.365,2.781h2.332V104.004L100.608,104.004z"/>
</g>
</svg>
