<?xml version="1.0" encoding="utf-8"?>
<!-- Generator: Adobe Illustrator 15.0.0, SVG Export Plug-In . SVG Version: 6.00 Build 0)  -->
<!DOCTYPE svg PUBLIC "-//W3C//DTD SVG 1.0//EN" "http://www.w3.org/TR/2001/REC-SVG-20010904/DTD/svg10.dtd">
<svg version="1.0" id="Layer_1" xmlns="http://www.w3.org/2000/svg" xmlns:xlink="http://www.w3.org/1999/xlink" x="0px" y="0px"
	 width="220px" height="227px" viewBox="0 0 220 227" enable-background="new 0 0 220 227" xml:space="preserve">
<g>
	<rect x="120.047" y="109.557" fill="#434343" width="5.906" height="1.938"/>
	<path fill="#434343" d="M123.208,108.333l0.604-7.854h1.041c0.6,0,1.084-0.558,1.084-1.113v-0.818c0-0.555-0.484-1.006-1.084-1.006
		h-2.886l-2.602-5.441c-0.228-0.475-0.788-0.666-1.254-0.427l-0.105,0.054c-0.466,0.238-0.659,0.816-0.433,1.291l2.162,4.523
		h-11.452l2.207-4.515c0.229-0.472,0.042-1.052-0.422-1.295l-0.105-0.055c-0.464-0.243-1.026-0.058-1.258,0.415l-2.664,5.449h-2.959
		c-0.6,0-1.084,0.451-1.084,1.006v0.818c0,0.556,0.484,1.113,1.084,1.113h1.083l0.672,9.062c0,0,0.078,1.959,3.161,1.959h11
		l-0.016-1.959h-0.007c-0.563,0-1.021-0.422-1.021-0.941v-7.117c0-0.52,0.456-0.941,1.021-0.941h0.043
		c0.562,0,1.021,0.422,1.021,0.941v6.851H123.208L123.208,108.333z M107.083,99.624h-1.166v-1.207h1.166V99.624z M110.042,108.6
		c0,0.52-0.458,0.941-1.021,0.941h-0.043c-0.564,0-1.021-0.422-1.021-0.941v-7.117c0-0.52,0.456-0.941,1.021-0.941h0.043
		c0.562,0,1.021,0.422,1.021,0.941V108.6z M115.042,108.6c0,0.52-0.458,0.941-1.021,0.941h-0.043c-0.564,0-1.021-0.422-1.021-0.941
		v-7.117c0-0.52,0.456-0.941,1.021-0.941h0.043c0.562,0,1.021,0.422,1.021,0.941V108.6z M120.918,98.417h1.124v1.207h-1.124V98.417z
		"/>
</g>
</svg>
