<?xml version="1.0" encoding="utf-8"?>
<!-- Generator: Adobe Illustrator 15.0.0, SVG Export Plug-In . SVG Version: 6.00 Build 0)  -->
<!DOCTYPE svg PUBLIC "-//W3C//DTD SVG 1.0//EN" "http://www.w3.org/TR/2001/REC-SVG-20010904/DTD/svg10.dtd">
<svg version="1.0" id="Layer_1" xmlns="http://www.w3.org/2000/svg" xmlns:xlink="http://www.w3.org/1999/xlink" x="0px" y="0px"
	 width="220px" height="227px" viewBox="0 0 220 227" enable-background="new 0 0 220 227" xml:space="preserve">
<path fill="#434343" d="M113.979,135.541L113.979,135.541h-0.044c-0.563,0-0.978-0.422-0.978-0.941v-7.116
	c0-0.521,0.456-0.941,1.021-0.941h0.044c0.562,0,1.021,0.423,1.021,0.941v5.976h1.949l-0.01-3.451l1.423,1.468l0.304-4.999h1.146
	c0.601,0,1.084-0.451,1.084-1.006v-0.923c0-0.555-0.483-1.006-1.084-1.006h-2.885l-2.047-5.44c-0.227-0.476-0.788-0.666-1.254-0.429
	l-0.105,0.056c-0.466,0.237-0.658,0.815-0.433,1.291l1.607,4.522h-11.452l1.604-4.517c0.23-0.471,0.042-1.051-0.422-1.295
	l-0.104-0.055c-0.464-0.242-1.026-0.057-1.259,0.416l-2.062,5.449h-2.959c-0.6,0-1.084,0.451-1.084,1.006v0.922
	c0,0.556,0.484,1.007,1.084,1.007h1.083l0.672,9.065c0,0,0.078,1.959,3.161,1.959c2.792,0,7.688,0,10.979,0V135.541L113.979,135.541
	z M115.959,124.469h1.072v1.076h-1.072V124.469z M102.031,125.547h-1.062v-1.084h1.062V125.547z M105.042,134.6
	c0,0.521-0.458,0.941-1.021,0.941h-0.044c-0.563,0-1.021-0.422-1.021-0.941v-7.116c0-0.521,0.456-0.941,1.021-0.941h0.044
	c0.562,0,1.021,0.423,1.021,0.941V134.6z M110.042,134.6c0,0.521-0.458,0.941-1.021,0.941h-0.044c-0.563,0-1.021-0.422-1.021-0.941
	v-7.116c0-0.521,0.456-0.941,1.021-0.941h0.044c0.562,0,1.021,0.423,1.021,0.941V134.6z"/>
<polygon fill="#434343" points="120.917,135.532 118.009,132.531 118.015,134.531 115.042,134.531 115.042,136.482 118.021,136.482 
	118.027,138.438 "/>
</svg>
