<?xml version="1.0" encoding="utf-8"?>
<!-- Generator: Adobe Illustrator 15.0.0, SVG Export Plug-In . SVG Version: 6.00 Build 0)  -->
<!DOCTYPE svg PUBLIC "-//W3C//DTD SVG 1.0//EN" "http://www.w3.org/TR/2001/REC-SVG-20010904/DTD/svg10.dtd">
<svg version="1.0" id="Layer_1" xmlns="http://www.w3.org/2000/svg" xmlns:xlink="http://www.w3.org/1999/xlink" x="0px" y="0px"
	 width="220px" height="227px" viewBox="0 0 220 227" enable-background="new 0 0 220 227" xml:space="preserve">
<g>
	<g>
		<ellipse fill="#434343" cx="105.988" cy="137.463" rx="1.957" ry="1.906"/>
		<ellipse fill="#434343" cx="117.988" cy="137.463" rx="1.957" ry="1.906"/>
		<path fill="#434343" d="M122,132.516h-18.047v-10.237l-3.172-4.368c-0.324-0.444-0.945-0.542-1.39-0.219
			c-0.442,0.323-0.541,0.946-0.218,1.393l2.85,3.901v9.53h-0.056c-0.553,0-1,0.44-1,0.984c0,0.543,0.447,0.984,1,0.984H122
			c0.553,0,1-0.441,1-0.984C123,132.956,122.553,132.516,122,132.516z"/>
	</g>
	<path fill="#434343" d="M115.959,124.525h-6.012c-0.559,0-1.011,0.434-1.011,0.969s0.452,0.969,1.011,0.969h6.012
		c0.559,0,1.01-0.434,1.01-0.969S116.518,124.525,115.959,124.525z"/>
</g>
</svg>
