<?xml version="1.0" encoding="utf-8"?>
<!-- Generator: Adobe Illustrator 15.0.0, SVG Export Plug-In . SVG Version: 6.00 Build 0)  -->
<!DOCTYPE svg PUBLIC "-//W3C//DTD SVG 1.0//EN" "http://www.w3.org/TR/2001/REC-SVG-20010904/DTD/svg10.dtd">
<svg version="1.0" id="Layer_1" xmlns="http://www.w3.org/2000/svg" xmlns:xlink="http://www.w3.org/1999/xlink" x="0px" y="0px"
	 width="220px" height="227px" viewBox="0 0 220 227" enable-background="new 0 0 220 227" xml:space="preserve">
<path fill="none" d="M89.021,115.541h-0.043c-0.564,0-1.021,0.422-1.021,0.941v7.116c0,0.521,0.456,0.941,1.021,0.941h0.043
	c0.562,0,1.021-0.423,1.021-0.941v-7.116C90.042,115.963,89.584,115.541,89.021,115.541z"/>
<rect x="85.959" y="113.541" fill="none" width="1.041" height="1.082"/>
<g>
	<polygon fill="#434343" points="110.969,128.557 110.969,126.572 109.031,126.572 109.031,128.557 107.047,128.557 
		107.047,130.494 109.031,130.494 109.031,132.479 110.969,132.479 110.969,130.494 112.953,130.494 112.953,128.557 	"/>
	<path fill="#434343" d="M105.984,131.557v-1.016h-0.006c-0.564,0-1.021-0.422-1.021-0.941v-7.116c0-0.521,0.456-0.941,1.021-0.941
		h0.043c0.562,0,1.021,0.422,1.021,0.941v5.026h0.942v-2.093h2.516l0.208-4.046h1.146c0.601,0,1.084-0.45,1.084-1.006v-0.818
		c0-0.555-0.483-1.006-1.084-1.006h-2.885l-2.602-5.441c-0.228-0.475-0.788-0.666-1.254-0.427l-0.105,0.054
		c-0.466,0.238-0.659,0.816-0.433,1.291l2.162,4.523H95.285l2.207-4.515c0.229-0.473,0.042-1.053-0.422-1.296l-0.105-0.055
		c-0.464-0.243-1.025-0.058-1.258,0.415l-2.664,5.449h-2.959c-0.6,0-1.084,0.451-1.084,1.006v0.818c0,0.556,0.484,1.006,1.084,1.006
		h1.083l0.672,9.17c0,0,0.078,1.959,3.161,1.959s8.792,0,12,0c0.383,0,0.699-0.035,0.984-0.086v-0.857h-1L105.984,131.557
		L105.984,131.557z M108,119.5h1v1.124h-1V119.5z M94,120.624h-1.041V119.5H94V120.624z M97.042,129.6
		c0,0.521-0.458,0.941-1.021,0.941h-0.043c-0.564,0-1.021-0.422-1.021-0.941v-7.116c0-0.521,0.456-0.941,1.021-0.941h0.043
		c0.562,0,1.021,0.422,1.021,0.941V129.6z M102.042,129.6c0,0.521-0.458,0.941-1.021,0.941h-0.043c-0.564,0-1.021-0.422-1.021-0.941
		v-7.116c0-0.521,0.456-0.941,1.021-0.941h0.043c0.562,0,1.021,0.422,1.021,0.941V129.6z"/>
</g>
</svg>
