<?xml version="1.0" encoding="utf-8"?>
<!-- Generator: Adobe Illustrator 15.0.0, SVG Export Plug-In . SVG Version: 6.00 Build 0)  -->
<!DOCTYPE svg PUBLIC "-//W3C//DTD SVG 1.0//EN" "http://www.w3.org/TR/2001/REC-SVG-20010904/DTD/svg10.dtd">
<svg version="1.0" id="Layer_1" xmlns="http://www.w3.org/2000/svg" xmlns:xlink="http://www.w3.org/1999/xlink" x="0px" y="0px"
	 width="220px" height="227px" viewBox="0 0 220 227" enable-background="new 0 0 220 227" xml:space="preserve">
<g>
	<path fill="#434343" d="M102.729,118.077c-1.081,0-1.959,0.888-1.959,1.983v2.881c0,0.032,0.009,0.062,0.011,0.095h3.896
		c0.002-0.032,0.01-0.062,0.01-0.095v-2.881C104.687,118.965,103.81,118.077,102.729,118.077z"/>
	<path fill="#434343" d="M114.687,111.066c0,0-0.414,0.055-0.938,0.015v1.068h-1.041h-0.062v-1.083h-0.896v1.083h-1.104v-1.068
		l-0.938-0.015l0.013,2.979h1.029v1.021h-4.042v-5.83c0-0.6-0.447-1.087-1-1.087H99.75c-0.553,0-1,0.487-1,1.087v5.83h-4.042v-1.021
		h0.967l0.014-2.979c0,0-0.415,0.055-0.938,0.015v1.068h-1.104v-1.083H92.75v1.083h-1.104v-1.068
		c-0.522,0.04-0.938-0.015-0.938-0.015l0.042,10.951c0,0.556,0.447,1.007,1,1.007h7.973c-0.002-0.042-0.015-0.081-0.015-0.124
		v-3.312c0-1.428,1.361-2.584,3.041-2.584c1.681,0,3.042,1.156,3.042,2.584v3.312c0,0.043-0.013,0.082-0.015,0.124h7.932
		c0.553,0,1-0.487,1-1.087L114.687,111.066z M93.708,116.17h-1.104v-2.104h1.104V116.17z M96.791,118.108h-1.166v-2.167h1.166
		V118.108z M98.791,118.108h-1.166v-2.167h1.166V118.108z M103.957,113.146c0,0.678-2.457,0.678-2.457,0V111
		c0-0.678,0.343-1.227,0.766-1.227h0.927c0.423,0,0.766,0.549,0.766,1.227L103.957,113.146L103.957,113.146z M107.791,118.108
		h-1.166v-2.167h1.166V118.108z M109.791,118.108h-1.166v-2.167h1.166V118.108z M112.791,116.149h-1.104v-2.083h1.104V116.149z"/>
	<path fill="#434343" d="M98.7,107.066h8.016c0.549,0,0.992-0.434,0.992-0.97c0,0-3.443-2.988-3.992-2.988h-1.091v1h-0.834v-1H101.7
		c-0.548,0-3.991,2.988-3.991,2.988C97.709,106.633,98.152,107.066,98.7,107.066z"/>
	<rect x="101.791" y="99.149" fill="#434343" width="0.834" height="3.959"/>
</g>
</svg>
