<?xml version="1.0" encoding="utf-8"?>
<!-- Generator: Adobe Illustrator 15.0.0, SVG Export Plug-In . SVG Version: 6.00 Build 0)  -->
<!DOCTYPE svg PUBLIC "-//W3C//DTD SVG 1.0//EN" "http://www.w3.org/TR/2001/REC-SVG-20010904/DTD/svg10.dtd">
<svg version="1.0" id="Layer_1" xmlns="http://www.w3.org/2000/svg" xmlns:xlink="http://www.w3.org/1999/xlink" x="0px" y="0px"
	 width="220px" height="227px" viewBox="0 0 220 227" enable-background="new 0 0 220 227" xml:space="preserve">
<path fill="#434343" d="M113.699,125.748c-2.74-3.434-0.688-8.01-3.199-12.748c-0.541-1.056-1.337-1.896-2.264-2.458
	c0.016-0.016,0.03-0.028,0.045-0.044c1.329-1.4,2.047-2.872,1.606-3.288c-0.442-0.417-1.88,0.382-3.206,1.781
	c-0.255,0.269-0.479,0.538-0.686,0.804c-1.41-0.121-2.902,0.365-4.193,1.652c0,0-5.665,5.577-7.175,7.086
	c-1.511,1.506,0.534,2.313,0.534,2.313s5.801-1.457,7.004-0.973c2.093,0.842-2.938,4.514-2.781,9.275
	c0.099,3.083,7.558,1.819,12.411,0.339C114.438,128.685,114.213,126.391,113.699,125.748z"/>
</svg>
