<?xml version="1.0" encoding="utf-8"?>
<!-- Generator: Adobe Illustrator 15.0.0, SVG Export Plug-In . SVG Version: 6.00 Build 0)  -->
<!DOCTYPE svg PUBLIC "-//W3C//DTD SVG 1.0//EN" "http://www.w3.org/TR/2001/REC-SVG-20010904/DTD/svg10.dtd">
<svg version="1.0" id="Layer_1" xmlns="http://www.w3.org/2000/svg" xmlns:xlink="http://www.w3.org/1999/xlink" x="0px" y="0px"
	 width="220px" height="227px" viewBox="0 0 220 227" enable-background="new 0 0 220 227" xml:space="preserve">
<g>
	<g>
		<path fill="#434343" d="M110.269,101.792H96.774c-1.211,0-2.19,0.985-2.19,2.199v13.56c0,1.216,0.979,2.199,2.19,2.199h13.494
			c1.211,0,2.189-0.983,2.189-2.199v-13.56C112.458,102.776,111.479,101.792,110.269,101.792z M97.589,117.812h-1.109v-1.104h1.109
			V117.812z M97.589,104.812h-1.109v-1.104h1.109V104.812z M107.625,113.854c0,0.551-0.445,0.998-0.995,0.998h-6.134
			c-0.551,0-0.996-0.447-0.996-0.998v-6.165c0-0.552,0.445-0.999,0.996-0.999h6.134c0.55,0,0.995,0.447,0.995,0.999V113.854z
			 M110.589,117.812h-1.109v-1.104h1.109V117.812z M110.589,104.812h-1.109v-1.104h1.109V104.812z"/>
		<path fill="#434343" d="M105.78,107.82h-4.437c-0.396,0-0.72,0.322-0.72,0.723V113c0,0.398,0.322,0.723,0.72,0.723h4.437
			c0.396,0,0.72-0.323,0.72-0.723v-4.457C106.5,108.144,106.177,107.82,105.78,107.82z"/>
	</g>
	<rect x="97.606" y="98.75" fill="#434343" width="0.87" height="2"/>
	<rect x="108.606" y="98.75" fill="#434343" width="0.87" height="2"/>
	<rect x="103.606" y="98.75" fill="#434343" width="0.87" height="2"/>
	<rect x="97.542" y="120.791" fill="#434343" width="0.959" height="1.896"/>
	<rect x="108.602" y="120.791" fill="#434343" width="0.876" height="1.896"/>
	<rect x="103.573" y="120.791" fill="#434343" width="0.918" height="1.896"/>
	<rect x="91.542" y="115.771" fill="#434343" width="2" height="0.975"/>
	<rect x="91.542" y="104.771" fill="#434343" width="2" height="0.975"/>
	<rect x="91.542" y="110.771" fill="#434343" width="2" height="0.975"/>
	<rect x="113.584" y="115.771" fill="#434343" width="1.958" height="0.975"/>
	<rect x="113.584" y="109.771" fill="#434343" width="1.958" height="0.975"/>
	<rect x="113.584" y="104.771" fill="#434343" width="1.958" height="0.975"/>
</g>
</svg>
