<?xml version="1.0" encoding="utf-8"?>
<!-- Generator: Adobe Illustrator 15.0.0, SVG Export Plug-In . SVG Version: 6.00 Build 0)  -->
<!DOCTYPE svg PUBLIC "-//W3C//DTD SVG 1.0//EN" "http://www.w3.org/TR/2001/REC-SVG-20010904/DTD/svg10.dtd">
<svg version="1.0" id="Layer_1" xmlns="http://www.w3.org/2000/svg" xmlns:xlink="http://www.w3.org/1999/xlink" x="0px" y="0px"
	 width="220px" height="227px" viewBox="0 0 220 227" enable-background="new 0 0 220 227" xml:space="preserve">
<g>
	<g>
		<rect x="105.417" y="135.875" fill="#434343" width="1" height="9.959"/>
		<rect x="128.417" y="135.875" fill="#434343" width="1" height="9.959"/>
		<path fill="#434343" d="M117.417,123.875c-0.553,0-6,15-12,15c0,0,0.447,1,1,1h6c3.901-2.877,5-9,5-9s1.415,6.123,5,9h6
			c0.553,0,1,0,1-1C123.417,138.875,117.97,123.875,117.417,123.875z"/>
		<g>
			<path fill="#434343" d="M118.479,127.906c-0.147,0-0.294-0.087-0.375-0.242l-2.625-4.975c-0.125-0.234-0.059-0.541,0.149-0.683
				c0.206-0.141,0.476-0.063,0.601,0.173l2.625,4.974c0.125,0.235,0.058,0.54-0.15,0.683
				C118.634,127.884,118.557,127.906,118.479,127.906z"/>
		</g>
		<g>
			<path fill="#434343" d="M116.354,127.906c-0.076,0-0.153-0.022-0.225-0.07c-0.208-0.143-0.275-0.447-0.15-0.684l2.625-4.974
				c0.127-0.236,0.396-0.312,0.601-0.172c0.208,0.142,0.274,0.446,0.149,0.682l-2.625,4.976
				C116.647,127.819,116.502,127.906,116.354,127.906z"/>
		</g>
	</g>
	<rect x="106.5" y="139" fill="#434343" width="5.834" height="6.792"/>
	<rect x="122.5" y="139" fill="#434343" width="5.876" height="6.792"/>
</g>
</svg>
