<?xml version="1.0" encoding="utf-8"?>
<!-- Generator: Adobe Illustrator 15.0.0, SVG Export Plug-In . SVG Version: 6.00 Build 0)  -->
<!DOCTYPE svg PUBLIC "-//W3C//DTD SVG 1.0//EN" "http://www.w3.org/TR/2001/REC-SVG-20010904/DTD/svg10.dtd">
<svg version="1.0" id="Layer_1" xmlns="http://www.w3.org/2000/svg" xmlns:xlink="http://www.w3.org/1999/xlink" x="0px" y="0px"
	 width="220px" height="227px" viewBox="0 0 220 227" enable-background="new 0 0 220 227" xml:space="preserve">
<g>
	<g>
		<path fill="#434343" d="M105.684,103.009c-3.566,0-6.458,2.873-6.458,6.416s2.892,6.416,6.458,6.416s6.458-2.873,6.458-6.416
			S109.25,103.009,105.684,103.009z M106.5,105c-2.896,0-5.241,2.347-5.241,5.24c0,1.185-1.034,0.678-1.034-1.033
			c0-2.895,2.346-5.241,5.241-5.241C107.177,103.966,107.682,105,106.5,105z"/>
	</g>
	<path fill="#434343" d="M105.824,101.677c0.147,0,0.292,0.014,0.438,0.021c-0.021-0.152-0.037-0.311-0.037-0.491
		c0-2.895,2.346-5.241,5.241-5.241c1.711,0,2.216,1.034,1.034,1.034c-2.752,0-4.981,2.126-5.199,4.821
		c1.496,0.291,2.835,1.012,3.876,2.029c1.365-1.363,3.248-2.217,5.335-2.217c0.551,0,1.087,0.062,1.604,0.173
		c0.014-0.165,0.025-0.331,0.025-0.501c0-3.5-2.873-6.34-6.417-6.34s-6.417,2.84-6.417,6.34c0,0.135,0.012,0.266,0.021,0.396
		C105.493,101.693,105.657,101.677,105.824,101.677z"/>
	<path fill="#434343" d="M116.822,102.994c-1.807,0-3.434,0.777-4.585,2.018c0.316,0.444,0.568,0.934,0.787,1.439
		c0.924-1.486,2.562-2.485,4.441-2.485c1.711,0,2.216,1.034,1.033,1.034c-2.274,0-4.191,1.458-4.916,3.482
		c0.039,0.316,0.075,0.635,0.075,0.963c0,1.646-0.523,3.164-1.405,4.41c1.15,1.229,2.771,1.998,4.568,1.998
		c3.49,0,6.318-2.877,6.318-6.43C123.141,105.872,120.312,102.994,116.822,102.994z"/>
</g>
</svg>
