<?xml version="1.0" encoding="utf-8"?>
<!-- Generator: Adobe Illustrator 15.0.0, SVG Export Plug-In . SVG Version: 6.00 Build 0)  -->
<!DOCTYPE svg PUBLIC "-//W3C//DTD SVG 1.0//EN" "http://www.w3.org/TR/2001/REC-SVG-20010904/DTD/svg10.dtd">
<svg version="1.0" id="Layer_1" xmlns="http://www.w3.org/2000/svg" xmlns:xlink="http://www.w3.org/1999/xlink" x="0px" y="0px"
	 width="220px" height="227px" viewBox="0 0 220 227" enable-background="new 0 0 220 227" xml:space="preserve">
<g>
	<ellipse fill="#434343" cx="92.672" cy="100.791" rx="6.458" ry="6.416"/>
	<path fill="#434343" d="M103.811,94.36c-1.808,0-3.435,0.777-4.586,2.019c0.893,1.248,1.423,2.775,1.423,4.434
		c0,1.646-0.524,3.165-1.406,4.411c1.15,1.229,2.771,1.998,4.568,1.998c3.49,0,6.318-2.878,6.318-6.431
		C110.129,97.238,107.301,94.36,103.811,94.36z"/>
	<path fill="#434343" d="M98.165,95.217C99.53,93.854,101.413,93,103.5,93c0.551,0,1.086,0.062,1.604,0.173
		c0.014-0.165,0.025-0.331,0.025-0.501c0-3.5-2.873-6.34-6.417-6.34s-6.417,2.84-6.417,6.34c0,0.135,0.013,0.266,0.021,0.396
		c0.165-0.01,0.329-0.025,0.496-0.025C94.901,93.043,96.792,93.875,98.165,95.217z"/>
</g>
</svg>
