<?xml version="1.0" encoding="utf-8"?>
<!-- Generator: Adobe Illustrator 15.0.0, SVG Export Plug-In . SVG Version: 6.00 Build 0)  -->
<!DOCTYPE svg PUBLIC "-//W3C//DTD SVG 1.0//EN" "http://www.w3.org/TR/2001/REC-SVG-20010904/DTD/svg10.dtd">
<svg version="1.0" id="Layer_1" xmlns="http://www.w3.org/2000/svg" xmlns:xlink="http://www.w3.org/1999/xlink" x="0px" y="0px"
	 width="220px" height="227px" viewBox="0 0 220 227" enable-background="new 0 0 220 227" xml:space="preserve">
<path fill="#434343" d="M107.583,127.084v1.223c-1.235,0.396-2.082,1.107-2.082,1.672h7.978c0-0.562-0.838-1.268-2.062-1.666v-1.229
	h-0.959V122h2.042v-3h-2.042v-2.164c1.173-0.328,2.021-1.18,2.021-1.836h-5.978c0,0.66,0.858,1.518,2.041,1.84V119H105
	c-0.275,0-0.5-0.225-0.5-0.5v-9c0-0.275,0.225-0.5,0.5-0.5h7.5v-3H105c-1.93,0-3.5,1.57-3.5,3.5v9c0,1.93,1.57,3.5,3.5,3.5h3.542
	v5.084H107.583z"/>
</svg>
