<?xml version="1.0" encoding="utf-8"?>
<!-- Generator: Adobe Illustrator 15.0.0, SVG Export Plug-In . SVG Version: 6.00 Build 0)  -->
<!DOCTYPE svg PUBLIC "-//W3C//DTD SVG 1.0//EN" "http://www.w3.org/TR/2001/REC-SVG-20010904/DTD/svg10.dtd">
<svg version="1.0" id="Layer_1" xmlns="http://www.w3.org/2000/svg" xmlns:xlink="http://www.w3.org/1999/xlink" x="0px" y="0px"
	 width="220px" height="227px" viewBox="0 0 220 227" enable-background="new 0 0 220 227" xml:space="preserve">
<g>
	<path fill="#434343" d="M108.494,111.354c-6.617,0-12-5.336-12-11.894c0-6.559,5.383-11.896,12-11.896s12,5.337,12,11.896
		C120.494,106.019,115.111,111.354,108.494,111.354L108.494,111.354z M108.535,90.449c-5.011,0-9.09,4.07-9.09,9.072
		c0,5.004,4.079,9.072,9.09,9.072c5.014,0,9.091-4.068,9.091-9.072C117.626,94.521,113.549,90.449,108.535,90.449L108.535,90.449z"
		/>
	<path fill="#434343" d="M110.472,99.5c-0.13-0.581-0.435-0.952-1.035-1.035v-4.923h-0.867v4.896
		c-0.658,0.146-1.069,0.584-1.069,1.562c0,0.885,0.64,1.416,1.432,1.416c0.021,0,1.396,0.004,1.541-1.049h3.98V99.5H110.472
		L110.472,99.5z"/>
</g>
</svg>
