<?xml version="1.0" encoding="utf-8"?>
<!-- Generator: Adobe Illustrator 15.0.0, SVG Export Plug-In . SVG Version: 6.00 Build 0)  -->
<!DOCTYPE svg PUBLIC "-//W3C//DTD SVG 1.0//EN" "http://www.w3.org/TR/2001/REC-SVG-20010904/DTD/svg10.dtd">
<svg version="1.0" id="Layer_1" xmlns="http://www.w3.org/2000/svg" xmlns:xlink="http://www.w3.org/1999/xlink" x="0px" y="0px"
	 width="220px" height="227px" viewBox="0 0 220 227" enable-background="new 0 0 220 227" xml:space="preserve">
<g>
	<path fill="#434343" d="M107.148,93.903c1.436,0,2.702,0.812,3.479,1.85c0.25-0.101,0.516-0.167,0.797-0.167
		c0.689,0,1.303,0.338,1.748,0.872H119c0-1.375-1.053-2.49-2.355-2.49c-0.016,0-0.032,0.004-0.051,0.004
		c-0.293-1.965-1.896-3.472-3.836-3.472c-1.375,0-2.578,0.759-3.271,1.897c-0.201-0.034-0.406-0.057-0.617-0.057
		c-1.099,0-2.084,0.354-2.789,1.13c0.141,0.154,0.275,0.314,0.391,0.488C106.693,93.926,106.918,93.903,107.148,93.903z"/>
	<path fill="#434343" d="M112.256,97.649c-0.447-0.591-1.063-0.966-1.758-0.966c-0.281,0-0.547,0.074-0.799,0.187
		c-0.779-1.147-2.056-1.896-3.498-1.896c-0.232,0-0.457,0.022-0.681,0.062c-0.116-0.192-0.252-0.37-0.395-0.54
		c-0.787-0.941-1.789-1.885-3.076-1.885c-2.143,0-4.062,1.994-4.385,4.149c-0.021-0.001-0.037-0.006-0.058-0.006
		c-1.438,0-2.602,1.224-2.602,2.73h17.947C112.885,98.771,112.627,98.138,112.256,97.649z"/>
</g>
</svg>
