<?xml version="1.0" encoding="utf-8"?>
<!-- Generator: Adobe Illustrator 15.0.0, SVG Export Plug-In . SVG Version: 6.00 Build 0)  -->
<!DOCTYPE svg PUBLIC "-//W3C//DTD SVG 1.0//EN" "http://www.w3.org/TR/2001/REC-SVG-20010904/DTD/svg10.dtd">
<svg version="1.0" id="Layer_1" xmlns="http://www.w3.org/2000/svg" xmlns:xlink="http://www.w3.org/1999/xlink" x="0px" y="0px"
	 width="220px" height="227px" viewBox="0 0 220 227" enable-background="new 0 0 220 227" xml:space="preserve">
<g>
	<path fill="#434343" d="M120.695,100.623c-0.375,0-0.73,0.102-1.068,0.254c-1.041-1.575-2.744-2.604-4.674-2.604
		c-0.312,0-0.611,0.033-0.908,0.084c-1.021-1.717-2.803-2.856-4.832-2.856c-2.865,0-5.231,2.267-5.666,5.228
		c-0.025,0-0.051-0.009-0.076-0.009c-1.92,0-3.475,1.679-3.475,3.75h23.979C123.77,102.303,122.387,100.623,120.695,100.623z"/>
	<g>
		<path fill="#434343" d="M102.578,113.417c-0.066,0-0.134-0.014-0.199-0.042c-0.25-0.111-0.363-0.406-0.254-0.659l2.974-6.835
			c0.11-0.252,0.405-0.365,0.653-0.257c0.25,0.111,0.363,0.406,0.254,0.659l-2.973,6.835
			C102.951,113.306,102.77,113.417,102.578,113.417z"/>
	</g>
	<g>
		<path fill="#434343" d="M107.535,113.417c-0.067,0-0.135-0.014-0.2-0.042c-0.251-0.111-0.364-0.406-0.254-0.659l2.974-6.835
			c0.11-0.252,0.404-0.365,0.653-0.257c0.251,0.111,0.364,0.406,0.255,0.659l-2.975,6.835
			C107.907,113.306,107.726,113.417,107.535,113.417z"/>
	</g>
	<g>
		<path fill="#434343" d="M112.49,113.417c-0.066,0-0.134-0.014-0.199-0.042c-0.25-0.111-0.363-0.406-0.254-0.659l2.974-6.835
			c0.11-0.252,0.404-0.365,0.653-0.257c0.25,0.111,0.363,0.406,0.254,0.659l-2.973,6.835
			C112.863,113.306,112.682,113.417,112.49,113.417z"/>
	</g>
	<g>
		<path fill="#434343" d="M117.447,113.417c-0.067,0-0.135-0.014-0.2-0.042c-0.251-0.111-0.364-0.406-0.254-0.659l2.974-6.835
			c0.109-0.252,0.403-0.365,0.653-0.257c0.251,0.111,0.364,0.406,0.255,0.659l-2.975,6.835
			C117.819,113.306,117.638,113.417,117.447,113.417z"/>
	</g>
</g>
</svg>
