<?xml version="1.0" encoding="utf-8"?>
<!-- Generator: Adobe Illustrator 15.0.0, SVG Export Plug-In . SVG Version: 6.00 Build 0)  -->
<!DOCTYPE svg PUBLIC "-//W3C//DTD SVG 1.0//EN" "http://www.w3.org/TR/2001/REC-SVG-20010904/DTD/svg10.dtd">
<svg version="1.0" id="Layer_1" xmlns="http://www.w3.org/2000/svg" xmlns:xlink="http://www.w3.org/1999/xlink" x="0px" y="0px"
	 width="220px" height="227px" viewBox="0 0 220 227" enable-background="new 0 0 220 227" xml:space="preserve">
<g>
	<path fill="#434343" d="M119.7,112.654c-0.376,0-0.731,0.102-1.069,0.254c-1.041-1.575-2.744-2.604-4.673-2.604
		c-0.312,0-0.612,0.034-0.909,0.085c-1.021-1.717-2.802-2.856-4.832-2.856c-2.864,0-5.231,2.267-5.665,5.227
		c-0.026,0-0.051-0.008-0.076-0.008c-1.921,0-3.476,1.679-3.476,3.75h23.98C122.773,114.334,121.393,112.654,119.7,112.654z"/>
	<path fill="#434343" d="M113.951,108.801c0.3-0.054,0.604-0.09,0.918-0.09c1.523,0,2.902,0.672,3.938,1.759
		c0.709-0.838,1.152-1.927,1.152-3.136c0-2.623-2.034-4.75-4.543-4.75c-2.125,0-3.895,1.531-4.391,3.594
		C112.236,106.67,113.266,107.596,113.951,108.801z"/>
	<rect x="115.031" y="99.5" fill="#434343" width="0.938" height="1.938"/>
	
		<rect x="111.513" y="100.468" transform="matrix(-0.7295 0.6839 -0.6839 -0.7295 262.9686 98.8418)" fill="#434343" width="0.857" height="1.895"/>
	
		<rect x="108.655" y="103.665" transform="matrix(-0.4037 0.9149 -0.9149 -0.4037 248.8434 46.9879)" fill="#434343" width="0.909" height="1.837"/>
	
		<rect x="121.356" y="110.52" transform="matrix(-0.5013 0.8653 -0.8653 -0.5013 279.3642 61.9623)" fill="#434343" width="0.939" height="1.937"/>
	<rect x="121" y="107.541" fill="#434343" width="1.969" height="0.939"/>
	
		<rect x="121.493" y="103.419" transform="matrix(0.4985 0.8669 -0.8669 0.4985 151.6584 -53.3772)" fill="#434343" width="0.938" height="1.938"/>
	
		<rect x="118.657" y="100.653" transform="matrix(0.8084 0.5886 -0.5886 0.8084 82.5932 -50.623)" fill="#434343" width="0.813" height="1.832"/>
</g>
</svg>
