<?xml version="1.0" encoding="utf-8"?>
<!-- Generator: Adobe Illustrator 15.0.0, SVG Export Plug-In . SVG Version: 6.00 Build 0)  -->
<!DOCTYPE svg PUBLIC "-//W3C//DTD SVG 1.0//EN" "http://www.w3.org/TR/2001/REC-SVG-20010904/DTD/svg10.dtd">
<svg version="1.0" id="Layer_1" xmlns="http://www.w3.org/2000/svg" xmlns:xlink="http://www.w3.org/1999/xlink" x="0px" y="0px"
	 width="220px" height="227px" viewBox="0 0 220 227" enable-background="new 0 0 220 227" xml:space="preserve">
<g>
	<path fill="#434343" d="M126.835,107.618v-1.992h4.027v1.992h2.988l-1.022,1.008h8.009c-0.208-2.166-1.59-3.846-3.281-3.846
		c-0.376,0-0.73,0.104-1.068,0.254c-1.041-1.576-2.743-2.604-4.674-2.604c-0.311,0-0.61,0.035-0.908,0.086
		c-1.021-1.717-2.803-2.857-4.832-2.857c-2.863,0-5.23,2.268-5.664,5.229c-0.026,0-0.053-0.008-0.076-0.008
		c-1.921,0-3.477,1.678-3.477,3.75h8.025l-1.009-1.01L126.835,107.618L126.835,107.618z"/>
	<polygon fill="#434343" points="129.834,108.719 129.834,106.667 127.887,106.667 127.887,108.719 125.872,108.719 
		128.817,111.581 131.812,108.719 	"/>
</g>
</svg>
