<?xml version="1.0" encoding="utf-8"?>
<!-- Generator: Adobe Illustrator 15.0.0, SVG Export Plug-In . SVG Version: 6.00 Build 0)  -->
<!DOCTYPE svg PUBLIC "-//W3C//DTD SVG 1.0//EN" "http://www.w3.org/TR/2001/REC-SVG-20010904/DTD/svg10.dtd">
<svg version="1.0" id="Layer_1" xmlns="http://www.w3.org/2000/svg" xmlns:xlink="http://www.w3.org/1999/xlink" x="0px" y="0px"
	 width="220px" height="227px" viewBox="0 0 220 227" enable-background="new 0 0 220 227" xml:space="preserve">
<g>
	<path fill="#434343" d="M108,111.5h-4c-0.553,0-1,0.447-1,1v4c0,0.553,0.447,1,1,1h4c0.553,0,1-0.447,1-1v-4
		C109,111.947,108.553,111.5,108,111.5z"/>
	<path fill="#434343" d="M113,102.5h4c0.553,0,1-0.447,1-1v-4c0-0.553-0.447-1-1-1h-4c-0.553,0-1,0.447-1,1v4
		C112,102.053,112.447,102.5,113,102.5z"/>
	<path fill="#434343" d="M104,102.5h4c0.553,0,1-0.447,1-1v-4c0-0.553-0.447-1-1-1h-4c-0.553,0-1,0.447-1,1v4
		C103,102.053,103.447,102.5,104,102.5z"/>
	<path fill="#434343" d="M95,102.5h4c0.553,0,1-0.447,1-1v-4c0-0.553-0.447-1-1-1h-4c-0.553,0-1,0.447-1,1v4
		C94,102.053,94.447,102.5,95,102.5z"/>
	<polygon fill="#434343" points="114,105.5 107,105.5 107,103.5 105,103.5 105,105.5 98,105.5 98,103.5 96,103.5 96,105.5 96,107.5 
		98,107.5 105,107.5 105,110.5 107,110.5 107,107.5 114,107.5 116,107.5 116,105.5 116,103.5 114,103.5 	"/>
</g>
</svg>
