<?xml version="1.0" encoding="utf-8"?>
<!-- Generator: Adobe Illustrator 15.0.0, SVG Export Plug-In . SVG Version: 6.00 Build 0)  -->
<!DOCTYPE svg PUBLIC "-//W3C//DTD SVG 1.0//EN" "http://www.w3.org/TR/2001/REC-SVG-20010904/DTD/svg10.dtd">
<svg version="1.0" id="Layer_1" xmlns="http://www.w3.org/2000/svg" xmlns:xlink="http://www.w3.org/1999/xlink" x="0px" y="0px"
	 width="220px" height="227px" viewBox="0 0 220 227" enable-background="new 0 0 220 227" xml:space="preserve">
<g>
	<path fill="#434343" d="M117.812,121.531c0,1.088-2.658,1.969-5.938,1.969s-5.938-0.881-5.938-1.969H117.812z"/>
	<path fill="#434343" d="M119.47,110.848c0.298-0.725,0.468-1.502,0.468-2.315c0-3.814-3.553-6.906-7.938-6.906
		s-7.938,3.092-7.938,6.906c0,0.795,0.161,1.556,0.445,2.267c-1.473,0.58-2.509,1.946-2.509,3.54v1.199
		c0,2.119,2.83,4.838,5.086,4.838h9.703c2.256,0,5.086-2.719,5.086-4.838v-1.199C121.875,112.783,120.885,111.451,119.47,110.848z
		 M108.5,117.625c-0.898,0-1.625-0.727-1.625-1.625c0-0.896,0.727-1.625,1.625-1.625c0.896,0,1.625,0.729,1.625,1.625
		C110.125,116.898,109.396,117.625,108.5,117.625z M107.812,110.107c0-2.132,0.756-3.857,1.688-3.857s1.688,1.727,1.688,3.857
		C111.188,112.236,107.812,112.236,107.812,110.107z M112.854,110.107c0-2.132,0.736-3.857,1.646-3.857s1.646,1.727,1.646,3.857
		C116.146,112.236,112.854,112.236,112.854,110.107z M115.5,117.625c-0.898,0-1.625-0.727-1.625-1.625
		c0-0.896,0.727-1.625,1.625-1.625c0.896,0,1.625,0.729,1.625,1.625C117.125,116.898,116.396,117.625,115.5,117.625z"/>
	<ellipse fill="#434343" cx="109.958" cy="109.479" rx="0.917" ry="0.938"/>
	<ellipse fill="#434343" cx="113.958" cy="109.479" rx="0.917" ry="0.938"/>
	<path fill="#434343" d="M102.444,105.073c-1.326-1.328-1.781-4.438-1.018-5.201c0.766-0.764,1.752,0.397,3.079,1.726
		c1.326,1.325,3.781,3.021,3.018,3.784C106.759,106.146,103.771,106.398,102.444,105.073z"/>
	<path fill="#434343" d="M121.53,105.073c1.326-1.328,1.78-4.438,1.017-5.201c-0.765-0.764-1.752,0.397-3.079,1.726
		c-1.326,1.325-3.78,3.021-3.017,3.784C117.216,106.146,120.204,106.398,121.53,105.073z"/>
</g>
</svg>
