<?xml version="1.0" encoding="utf-8"?>
<!-- Generator: Adobe Illustrator 15.0.0, SVG Export Plug-In . SVG Version: 6.00 Build 0)  -->
<!DOCTYPE svg PUBLIC "-//W3C//DTD SVG 1.0//EN" "http://www.w3.org/TR/2001/REC-SVG-20010904/DTD/svg10.dtd">
<svg version="1.0" id="Layer_1" xmlns="http://www.w3.org/2000/svg" xmlns:xlink="http://www.w3.org/1999/xlink" x="0px" y="0px"
	 width="220px" height="227px" viewBox="0 0 220 227" enable-background="new 0 0 220 227" xml:space="preserve">
<g>
	<path fill="#434343" d="M129.279,117.605h-14.538c-0.911,0-1.647,0.869-1.647,1.944v1.943c0,1.073,0.736,1.943,1.647,1.943h14.538
		c0.911,0,1.646-0.87,1.646-1.943v-1.943C130.927,118.476,130.19,117.605,129.279,117.605z M116.99,122.614
		c-1.106,0-2.004-0.916-2.004-2.044c0-1.13,0.896-2.044,2.004-2.044c1.104,0,2.002,0.914,2.002,2.044
		C118.992,121.698,118.095,122.614,116.99,122.614z M121.99,122.531c-1.063,0-1.925-0.887-1.925-1.981c0-1.096,0.86-1.98,1.925-1.98
		c1.061,0,1.923,0.886,1.923,1.98S123.051,122.531,121.99,122.531z M126.99,122.529c-1.062,0-1.924-0.887-1.924-1.979
		c0-1.096,0.861-1.98,1.924-1.98c1.061,0,1.922,0.886,1.922,1.98C128.912,121.643,128.051,122.529,126.99,122.529z"/>
	<path fill="#434343" d="M124.969,111.547l0.03-3.012h-6.854l-1.245-3.138l-0.007-0.019l-0.008,0.003l-3.869-4.034l0.52-1.347
		l-1.291-0.502l-3.444,8.942c-1.652,0.932-2.282,3.021-1.397,4.715c0.896,1.714,3.443,2.881,5.146,1.968
		c1.318-0.706-0.774-5.095-2.377-6.387l2.293-5.955l3.235,3.374l2.321,6.86c0,0,0-1.007,0,1.398s2.073,2.036,2.073,2.036h6.896
		c0,0,1.953,0.116,1.953-1.974c0-0.341,0-0.599,0-0.923c0-1.299-1.5-2.025-2.095-2.025
		C126.255,111.529,124.969,111.547,124.969,111.547z M123.104,113.656h-3.219v-4.293h3.219V113.656z"/>
</g>
</svg>
