<?xml version="1.0" encoding="utf-8"?>
<!-- Generator: Adobe Illustrator 15.0.0, SVG Export Plug-In . SVG Version: 6.00 Build 0)  -->
<!DOCTYPE svg PUBLIC "-//W3C//DTD SVG 1.0//EN" "http://www.w3.org/TR/2001/REC-SVG-20010904/DTD/svg10.dtd">
<svg version="1.0" id="Layer_1" xmlns="http://www.w3.org/2000/svg" xmlns:xlink="http://www.w3.org/1999/xlink" x="0px" y="0px"
	 width="220px" height="227px" viewBox="0 0 220 227" enable-background="new 0 0 220 227" xml:space="preserve">
<path fill="#434343" d="M133.757,119.555h-2.137c0.033-5.996-4.656-10.94-10.527-11.051c-5.922-0.111-10.83,4.732-10.942,10.797
	c-0.113,6.065,4.608,11.088,10.53,11.199l0.039-2c-4.846-0.092-8.711-4.201-8.616-9.162c0.092-4.963,4.106-8.924,8.952-8.834
	c4.81,0.09,8.519,4.139,8.482,9.051h-2.133c-0.324,0.324-0.324,0.853,0,1.177l2.588,2.588c0.324,0.323,0.852,0.323,1.176,0
	l2.588-2.588C134.081,120.406,134.081,119.879,133.757,119.555z"/>
</svg>
