<?xml version="1.0" encoding="utf-8"?>
<!-- Generator: Adobe Illustrator 15.0.0, SVG Export Plug-In . SVG Version: 6.00 Build 0)  -->
<!DOCTYPE svg PUBLIC "-//W3C//DTD SVG 1.0//EN" "http://www.w3.org/TR/2001/REC-SVG-20010904/DTD/svg10.dtd">
<svg version="1.0" id="Layer_1" xmlns="http://www.w3.org/2000/svg" xmlns:xlink="http://www.w3.org/1999/xlink" x="0px" y="0px"
	 width="220px" height="227px" viewBox="0 0 220 227" enable-background="new 0 0 220 227" xml:space="preserve">
<g>
	<rect x="110.041" y="86.5" fill="#434343" width="5.959" height="1.916"/>
	<ellipse fill="#434343" cx="101.896" cy="70.562" rx="9.896" ry="3.938"/>
	<path fill="#434343" d="M111.792,85.438v-4.875c0,1.203-4.48,3.095-9.896,3.095S92,81.766,92,80.562v6
		c0,2.176,4.431,3.938,9.896,3.938c2.746,0,5.229-0.445,7.021-1.163v-3.899H111.792z"/>
	<path fill="#434343" d="M101.896,82.5c5.466,0,9.896-1.762,9.896-3.938v-6c0,1.202-4.48,3.094-9.896,3.094S92,73.766,92,72.562v6
		C92,80.738,96.431,82.5,101.896,82.5z"/>
</g>
</svg>
