<?xml version="1.0" encoding="utf-8"?>
<!-- Generator: Adobe Illustrator 15.0.0, SVG Export Plug-In . SVG Version: 6.00 Build 0)  -->
<!DOCTYPE svg PUBLIC "-//W3C//DTD SVG 1.0//EN" "http://www.w3.org/TR/2001/REC-SVG-20010904/DTD/svg10.dtd">
<svg version="1.0" id="Layer_1" xmlns="http://www.w3.org/2000/svg" xmlns:xlink="http://www.w3.org/1999/xlink" x="0px" y="0px"
	 width="220px" height="227px" viewBox="0 0 220 227" enable-background="new 0 0 220 227" xml:space="preserve">
<g>
	<path fill="#434343" d="M120,124.08l1.363,1.357c1.035-1.767,1.637-3.811,1.637-5.998c0-6.596-5.373-11.939-12-11.939
		s-12,5.346-12,11.939c0,6.593,5.373,11.938,12,11.938c2.413,0,4.656-0.575,6.537-1.796h-2.93L120,124.08z M117.637,111.556
		l1.268,1.27l-2.682,2.682l-1.268-1.268L117.637,111.556z M104.322,127.404l-1.268-1.27l2.682-2.682l1.268,1.268L104.322,127.404z
		 M111,124.543c-2.807,0-5.083-2.276-5.083-5.083c0-2.809,2.276-5.085,5.083-5.085c2.807,0,5.083,2.276,5.083,5.085
		C116.083,122.267,113.807,124.543,111,124.543z"/>
	<path fill="#434343" d="M110.98,115.533c-2.18,0-3.944,1.779-3.944,3.973c0,2.194,1.766,3.971,3.944,3.971
		c2.178,0,3.943-1.774,3.943-3.971C114.925,117.312,113.158,115.533,110.98,115.533z M110.98,121.771
		c-1.245,0-2.252-1.017-2.252-2.268c0-1.252,1.008-2.268,2.252-2.268c1.242,0,2.25,1.016,2.25,2.268S112.223,121.771,110.98,121.771
		z"/>
	<polygon fill="#434343" points="122.969,128.443 120,125.49 117.031,128.443 119.016,128.443 119.016,131.428 120.953,131.428 
		120.953,128.443 	"/>
</g>
</svg>
