<?xml version="1.0" encoding="utf-8"?>
<!-- Generator: Adobe Illustrator 15.0.0, SVG Export Plug-In . SVG Version: 6.00 Build 0)  -->
<!DOCTYPE svg PUBLIC "-//W3C//DTD SVG 1.0//EN" "http://www.w3.org/TR/2001/REC-SVG-20010904/DTD/svg10.dtd">
<svg version="1.0" id="Layer_1" xmlns="http://www.w3.org/2000/svg" xmlns:xlink="http://www.w3.org/1999/xlink" x="0px" y="0px"
	 width="220px" height="227px" viewBox="0 0 220 227" enable-background="new 0 0 220 227" xml:space="preserve">
<g>
	<path fill="#434343" d="M116.969,107.484c0,0.509-0.308,0.922-0.687,0.922H96.749c-0.379,0-0.687-0.413-0.687-0.922l0,0
		c0-0.51,0.308-0.924,0.687-0.924h19.533C116.661,106.562,116.969,106.977,116.969,107.484L116.969,107.484z"/>
	<path fill="#434343" d="M116.969,123.484c0,0.509-0.308,0.922-0.687,0.922H96.749c-0.379,0-0.687-0.413-0.687-0.922l0,0
		c0-0.51,0.308-0.924,0.687-0.924h19.533C116.661,122.562,116.969,122.977,116.969,123.484L116.969,123.484z"/>
	<path fill="#434343" d="M114.973,109.562H97.996c-0.551,0-0.996,0.445-0.996,1v9.844c0,0.553,0.445,1,0.996,1h16.977
		c0.553,0,0.996-0.447,0.996-1v-9.844C115.969,110.01,115.523,109.562,114.973,109.562z"/>
	<ellipse fill="#434343" cx="104.521" cy="104.041" rx="1.438" ry="1.459"/>
	<ellipse fill="#434343" cx="108.521" cy="104.041" rx="1.438" ry="1.459"/>
	<g>
		<path fill="#434343" d="M104.528,104.457c-0.065,0-0.132-0.014-0.194-0.041l-7.083-3.126c-0.218-0.096-0.309-0.333-0.199-0.528
			c0.106-0.195,0.37-0.277,0.587-0.18l7.085,3.126c0.22,0.096,0.309,0.333,0.2,0.528
			C104.846,104.376,104.691,104.457,104.528,104.457z"/>
	</g>
	<g>
		<path fill="#434343" d="M108.446,104.457c0.063,0,0.132-0.014,0.192-0.041l7.083-3.126c0.22-0.096,0.31-0.333,0.199-0.528
			c-0.104-0.195-0.37-0.277-0.587-0.18l-7.085,3.126c-0.218,0.096-0.307,0.333-0.2,0.528
			C108.129,104.376,108.283,104.457,108.446,104.457z"/>
	</g>
</g>
</svg>
