<?xml version="1.0" encoding="utf-8"?>
<!-- Generator: Adobe Illustrator 15.0.0, SVG Export Plug-In . SVG Version: 6.00 Build 0)  -->
<!DOCTYPE svg PUBLIC "-//W3C//DTD SVG 1.0//EN" "http://www.w3.org/TR/2001/REC-SVG-20010904/DTD/svg10.dtd">
<svg version="1.0" id="Layer_1" xmlns="http://www.w3.org/2000/svg" xmlns:xlink="http://www.w3.org/1999/xlink" x="0px" y="0px"
	 width="220px" height="227px" viewBox="0 0 220 227" enable-background="new 0 0 220 227" xml:space="preserve">
<g>
	<path fill="#434343" d="M95.53,121.523c-0.564,0.563-0.564,1.407,0,1.971l23.174,0.002c0.563-0.564,0.563-1.408,0-1.974
		l-10.564-13.563c-0.563-0.564-1.479-0.564-2.045,0L95.53,121.523z"/>
	<path fill="#434343" d="M96.731,129.465c-0.787,0-1.427-0.881-1.427-1.969l0,0c0-1.089,0.64-1.969,1.427-1.969h20.979
		c0.787,0,1.426,0.88,1.426,1.969l0,0c0,1.088-0.639,1.969-1.426,1.969H96.731z"/>
</g>
</svg>
