<?xml version="1.0" encoding="utf-8"?>
<!-- Generator: Adobe Illustrator 15.0.0, SVG Export Plug-In . SVG Version: 6.00 Build 0)  -->
<!DOCTYPE svg PUBLIC "-//W3C//DTD SVG 1.0//EN" "http://www.w3.org/TR/2001/REC-SVG-20010904/DTD/svg10.dtd">
<svg version="1.0" id="Layer_1" xmlns="http://www.w3.org/2000/svg" xmlns:xlink="http://www.w3.org/1999/xlink" x="0px" y="0px"
	 width="220px" height="227px" viewBox="0 0 220 227" enable-background="new 0 0 220 227" xml:space="preserve">
<g>
	<path fill="#434343" d="M106.96,102.484c0.352-1.613-0.075-3.34-1.289-4.562c-1.932-1.946-5.125-1.887-7.129,0.133
		c-2.002,2.021-2.064,5.235-0.131,7.184c1.215,1.224,2.924,1.649,4.529,1.301l0.899,0.877l-0.87,0.874l0.752,0.757l0.818-0.825
		l8.206,8.269l4.221-0.02l0.019-3.954l-8.354-8.413l0.791-0.801l-0.749-0.756l-0.831,0.837L106.96,102.484z M116.056,113.101
		l0.007,2.433l-2.698,0.013l-8.027-8.087l2.559-2.578L116.056,113.101z"/>
	<path fill="#434343" d="M119.007,118.93c0,0.85-0.665,1.535-1.488,1.535c-0.82,0-1.486-0.688-1.486-1.535
		c0-0.849,1.486-2.434,1.486-2.434S119.007,118.081,119.007,118.93z"/>
</g>
</svg>
