<?xml version="1.0" encoding="utf-8"?>
<!-- Generator: Adobe Illustrator 15.0.0, SVG Export Plug-In . SVG Version: 6.00 Build 0)  -->
<!DOCTYPE svg PUBLIC "-//W3C//DTD SVG 1.0//EN" "http://www.w3.org/TR/2001/REC-SVG-20010904/DTD/svg10.dtd">
<svg version="1.0" id="Layer_1" xmlns="http://www.w3.org/2000/svg" xmlns:xlink="http://www.w3.org/1999/xlink" x="0px" y="0px"
	 width="220px" height="227px" viewBox="0 0 220 227" enable-background="new 0 0 220 227" xml:space="preserve">
<g>
	<ellipse fill="#434343" cx="105.938" cy="98.584" rx="3.021" ry="2"/>
	<ellipse fill="#434343" cx="110.021" cy="98.604" rx="1.896" ry="0.896"/>
	<ellipse fill="#434343" cx="102" cy="98.566" rx="1.833" ry="0.935"/>
	<path fill="#434343" d="M110.917,105.545c0,2.164-1.764,3.918-3.939,3.918h-1.913c-2.176,0-3.938-1.754-3.938-3.918l0,0
		c0-2.165,1.764-3.919,3.938-3.919h1.913C109.153,101.626,110.917,103.38,110.917,105.545L110.917,105.545z"/>
	<rect x="105.042" y="99.667" fill="#434343" width="1.916" height="4.334"/>
	<path fill="#434343" d="M114.838,105.677c-2.094-2.089-5.068-2.073-8.229-2.073H95c-1.104,0-2,0.896-2,2
		c0,1.104,0.896,1.814,2,1.814l11.619-0.001c2.406,0.002,4.475,0.175,5.395,1.092c0.417,0.416,0.746,0.973,0.929,1.897h3.931
		C116.633,108.302,115.967,106.804,114.838,105.677z"/>
	<path fill="#434343" d="M116.958,116.524c0,1.592-1.101,2.882-2.459,2.882c-1.356,0-2.457-1.29-2.457-2.882
		c0-1.591,2.457-4.857,2.457-4.857S116.958,114.934,116.958,116.524z"/>
</g>
</svg>
