<?xml version="1.0" encoding="utf-8"?>
<!-- Generator: Adobe Illustrator 15.0.0, SVG Export Plug-In . SVG Version: 6.00 Build 0)  -->
<!DOCTYPE svg PUBLIC "-//W3C//DTD SVG 1.0//EN" "http://www.w3.org/TR/2001/REC-SVG-20010904/DTD/svg10.dtd">
<svg version="1.0" id="Layer_1" xmlns="http://www.w3.org/2000/svg" xmlns:xlink="http://www.w3.org/1999/xlink" x="0px" y="0px"
	 width="220px" height="227px" viewBox="0 0 220 227" enable-background="new 0 0 220 227" xml:space="preserve">
<g>
	<path fill="#434343" d="M101.521,123.455c0,0.564-0.459,1.023-1.027,1.023h-1.776c-0.567,0-1.027-0.459-1.027-1.023v-16.891
		c0-0.564,0.46-1.023,1.027-1.023h1.776c0.568,0,1.027,0.459,1.027,1.023V123.455z"/>
	<path fill="#434343" d="M120.493,105.541h-16.776c-0.567,0-1.027,0.459-1.027,1.023v16.891c0,0.564,0.46,1.023,1.027,1.023h1.868
		v-2.021h12.125v2.021h2.784c0.567,0,1.026-0.459,1.026-1.023v-16.891C121.521,106,121.062,105.541,120.493,105.541z
		 M107.688,120.562h-1.125v-1.125h1.125V120.562z M107.688,118.562h-1.125v-1.125h1.125V118.562z M107.688,116.562h-1.125v-1.125
		h1.125V116.562z M107.688,114.562h-1.125v-1.125h1.125V114.562z M109.688,120.562h-1.125v-1.125h1.125V120.562z M109.688,118.562
		h-1.125v-1.125h1.125V118.562z M109.688,116.562h-1.125v-1.125h1.125V116.562z M109.688,114.562h-1.125v-1.125h1.125V114.562z
		 M111.688,120.562h-1.125v-1.125h1.125V120.562z M111.688,118.562h-1.125v-1.125h1.125V118.562z M111.688,116.562h-1.125v-1.125
		h1.125V116.562z M111.688,114.562h-1.125v-1.125h1.125V114.562z M113.688,120.562h-1.125v-1.125h1.125V120.562z M113.688,118.562
		h-1.125v-1.125h1.125V118.562z M113.688,116.562h-1.125v-1.125h1.125V116.562z M113.688,114.562h-1.125v-1.125h1.125V114.562z
		 M116.109,120.625c-0.889,0-1.609-0.729-1.609-1.625s0.723-1.625,1.609-1.625c0.889,0,1.609,0.729,1.609,1.625
		S116.998,120.625,116.109,120.625z M117.75,115.5v1.062h-3.188V115.5H117.75z M114.562,114.562V113.5h3.188v1.062H114.562z
		 M118.688,111.562H105.5v-3.125h13.188V111.562z"/>
	<g>
		<path fill="#434343" d="M116.564,129.438l-0.002-5.781h-9.873l0.002,5.751L116.564,129.438z M108.562,125.583v-1.042h6.125v1.042
			H108.562z M108.562,127.541v-1.042h6.125v1.042H108.562z"/>
	</g>
</g>
</svg>
