<?xml version="1.0" encoding="utf-8"?>
<!-- Generator: Adobe Illustrator 15.0.0, SVG Export Plug-In . SVG Version: 6.00 Build 0)  -->
<!DOCTYPE svg PUBLIC "-//W3C//DTD SVG 1.0//EN" "http://www.w3.org/TR/2001/REC-SVG-20010904/DTD/svg10.dtd">
<svg version="1.0" id="Layer_1" xmlns="http://www.w3.org/2000/svg" xmlns:xlink="http://www.w3.org/1999/xlink" x="0px" y="0px"
	 width="220px" height="227px" viewBox="0 0 220 227" enable-background="new 0 0 220 227" xml:space="preserve">
<g>
	<path fill="#434343" d="M116.873,101.569c-0.383-0.373-3.539,0.817-5.066,2.02c-0.293,0.231-2.34,3.923-2.712,4.074
		c-0.32,0.134-0.1-2.119,1.008-3.157c-1.484,0.709-3.561,1.804-4.936,3.073c-0.107,0.1-0.385,3.188-0.514,3.326
		c-0.26,0.271-0.357-2.447-0.592-2.164c-3.525,4.235-5.996,10.062-4.59,12.18c2.82-4.465,7.984-11.354,15.496-16.457
		c0.154-0.108,0.24-0.166,0.24-0.166c-0.082,0.057-0.158,0.111-0.24,0.166c-1.271,0.905-7.5,5.679-14.627,16.934
		c1.387,0.141,4.553-0.673,7.932-3.934c0.303-0.292-1.535-0.688-1.23-1.02c0.305-0.334,2.754-0.604,3.061-0.979
		c1.093-1.344,2.055-2.697,2.884-4.007c0.22-0.343-2.27,0.28-2.069-0.057c0.194-0.328,3.078-1.615,3.256-1.936
		C116.471,105.347,117.352,102.036,116.873,101.569z"/>
	<path fill="#434343" d="M99.504,120.919c-1.67,2.706-2.504,4.525-2.504,4.525l1-0.041c0.793-1.421,1.578-2.753,2.355-4.01
		c-0.352-0.036-0.596-0.128-0.709-0.258C99.592,121.072,99.551,120.992,99.504,120.919z"/>
</g>
</svg>
