<?xml version="1.0" encoding="utf-8"?>
<!-- Generator: Adobe Illustrator 15.0.0, SVG Export Plug-In . SVG Version: 6.00 Build 0)  -->
<!DOCTYPE svg PUBLIC "-//W3C//DTD SVG 1.0//EN" "http://www.w3.org/TR/2001/REC-SVG-20010904/DTD/svg10.dtd">
<svg version="1.0" id="Layer_1" xmlns="http://www.w3.org/2000/svg" xmlns:xlink="http://www.w3.org/1999/xlink" x="0px" y="0px"
	 width="220px" height="227px" viewBox="0 0 220 227" enable-background="new 0 0 220 227" xml:space="preserve">
<g>
	<path fill="#434343" d="M129,105.584l-21.866-5.285l-1.47,6.084l21.866,5.285L129,105.584z M107.253,105.543l2.174-3.469
		l3.018,0.729l-2.175,3.469L107.253,105.543z M112.28,106.759l2.175-3.469l3.014,0.729l-2.174,3.469L112.28,106.759z
		 M117.307,107.974l2.176-3.468l3.015,0.729l-2.173,3.468L117.307,107.974z M122.334,109.188l2.173-3.468l3.018,0.729l-2.176,3.468
		L122.334,109.188z"/>
	<g>
		<path fill="#434343" d="M127.916,123.5H105v-11.875h22.916V123.5z M106.833,121.708h19.25v-8.291h-19.25V121.708z"/>
	</g>
</g>
</svg>
