<?xml version="1.0" encoding="utf-8"?>
<!-- Generator: Adobe Illustrator 15.0.0, SVG Export Plug-In . SVG Version: 6.00 Build 0)  -->
<!DOCTYPE svg PUBLIC "-//W3C//DTD SVG 1.0//EN" "http://www.w3.org/TR/2001/REC-SVG-20010904/DTD/svg10.dtd">
<svg version="1.0" id="Layer_1" xmlns="http://www.w3.org/2000/svg" xmlns:xlink="http://www.w3.org/1999/xlink" x="0px" y="0px"
	 width="220px" height="227px" viewBox="0 0 220 227" enable-background="new 0 0 220 227" xml:space="preserve">
<g>
	<path fill="#434343" d="M98,98.5v21.916h23.917V98.5H98z M116.917,99.416h1.166v2.25h-1.166V99.416z M120.167,102.416v14.168
		h-20.25v-14.168H120.167z M113.917,99.416h1.166v2.25h-1.166V99.416z M110.917,99.416h1.166v2.25h-1.166V99.416z M107.917,99.416
		h1.166v2.25h-1.166V99.416z M104.917,99.416h1.166v2.25h-1.166V99.416z M101.917,99.416h1.166v2.25h-1.166V99.416z M98.917,99.416
		h1.166v2.25h-1.166V99.416z M100.083,119.666h-1.166v-2.25h1.166V119.666z M103.083,119.666h-1.166v-2.25h1.166V119.666z
		 M106.083,119.666h-1.166v-2.25h1.166V119.666z M109.083,119.666h-1.166v-2.25h1.166V119.666z M112.083,119.666h-1.166v-2.25h1.166
		V119.666z M115.083,119.666h-1.166v-2.25h1.166V119.666z M118.083,119.666h-1.166v-2.25h1.166V119.666z M121.083,119.666h-1.166
		v-2.25h1.166V119.666z M121.083,101.666h-1.166v-2.25h1.166V101.666z"/>
	<polygon fill="#434343" points="108.042,114.333 108.041,104.375 114.083,109.5 	"/>
</g>
</svg>
