<?xml version="1.0" encoding="utf-8"?>
<!-- Generator: Adobe Illustrator 15.0.0, SVG Export Plug-In . SVG Version: 6.00 Build 0)  -->
<!DOCTYPE svg PUBLIC "-//W3C//DTD SVG 1.0//EN" "http://www.w3.org/TR/2001/REC-SVG-20010904/DTD/svg10.dtd">
<svg version="1.0" id="Layer_1" xmlns="http://www.w3.org/2000/svg" xmlns:xlink="http://www.w3.org/1999/xlink" x="0px" y="0px"
	 width="220px" height="227px" viewBox="0 0 220 227" enable-background="new 0 0 220 227" xml:space="preserve">
<path fill="#434343" d="M116.727,111.084c-0.257-0.14-0.778-0.354-1.47-0.604c0.688-0.248,1.211-0.464,1.468-0.604
	c1.521-0.822,1.68-3.234,0.354-5.387c-1.326-2.152-3.634-3.23-5.153-2.408c-0.258,0.141-0.719,0.457-1.294,0.894
	c0.116-0.687,0.181-1.219,0.181-1.498c0-1.646-2.149-2.979-4.802-2.979c-2.649,0-4.802,1.334-4.802,2.979
	c0,0.278,0.062,0.812,0.18,1.494c-0.573-0.435-1.031-0.751-1.291-0.892c-1.52-0.822-3.83,0.256-5.151,2.408
	c-1.325,2.15-1.167,4.562,0.352,5.387c0.258,0.141,0.781,0.354,1.474,0.604c-0.69,0.248-1.219,0.465-1.475,0.604
	c-1.521,0.822-1.679,3.231-0.353,5.385c1.323,2.152,3.633,3.23,5.151,2.408c0.259-0.139,0.716-0.455,1.293-0.892
	c-0.114,0.684-0.18,1.214-0.18,1.491c0,1.646,2.148,2.979,4.802,2.979c2.65,0,4.802-1.334,4.802-2.979
	c0-0.277-0.062-0.812-0.181-1.497c0.577,0.438,1.038,0.757,1.296,0.896c1.521,0.822,3.827-0.254,5.151-2.406
	C118.404,114.318,118.246,111.906,116.727,111.084z M106.009,114.48c-2.209,0-4-1.791-4-4s1.791-4,4-4c2.208,0,4,1.791,4,4
	S108.217,114.48,106.009,114.48z"/>
</svg>
