<?xml version="1.0" encoding="utf-8"?>
<!-- Generator: Adobe Illustrator 15.0.0, SVG Export Plug-In . SVG Version: 6.00 Build 0)  -->
<!DOCTYPE svg PUBLIC "-//W3C//DTD SVG 1.0//EN" "http://www.w3.org/TR/2001/REC-SVG-20010904/DTD/svg10.dtd">
<svg version="1.0" id="Layer_1" xmlns="http://www.w3.org/2000/svg" xmlns:xlink="http://www.w3.org/1999/xlink" x="0px" y="0px"
	 width="220px" height="227px" viewBox="0 0 220 227" enable-background="new 0 0 220 227" xml:space="preserve">
<g>
	<path fill="#434343" d="M112,104.5l-2.348-4H103v2h-2v15h1.016l0.002,1h22.888l0.03-14H112z M117.051,111.553h-0.971l-0.018,1.01
		h-4.156l0.018-1.021h-0.967v-2.051h0.958v-1.043l3.042-0.011v-0.888h-3.931v0.998h-0.997v3.91h1.012v1.017h4.006v1.038h-4.086
		v-0.95h-1.003v-1.03h-1.005v-4.041h1.02v-1.02h0.967v-1.035h4.094v1.021h0.979v0.99h1.041L117.051,111.553L117.051,111.553z"/>
	<polygon fill="#434343" points="120.959,103.5 120.959,101.543 112.042,101.543 113.042,103.5 	"/>
	<rect x="115.062" y="108.512" fill="#434343" width="0.885" height="2.926"/>
	<rect x="114.957" y="107.459" fill="#434343" width="0.074" height="0.092"/>
	<rect x="112.042" y="109.562" fill="#434343" width="1.896" height="1.875"/>
</g>
</svg>
