<?xml version="1.0" encoding="utf-8"?>
<!-- Generator: Adobe Illustrator 15.0.0, SVG Export Plug-In . SVG Version: 6.00 Build 0)  -->
<!DOCTYPE svg PUBLIC "-//W3C//DTD SVG 1.0//EN" "http://www.w3.org/TR/2001/REC-SVG-20010904/DTD/svg10.dtd">
<svg version="1.0" id="Layer_1" xmlns="http://www.w3.org/2000/svg" xmlns:xlink="http://www.w3.org/1999/xlink" x="0px" y="0px"
	 width="220px" height="227px" viewBox="0 0 220 227" enable-background="new 0 0 220 227" xml:space="preserve">
<path fill="#434343" d="M125.373,110.09c0.558-0.378,1.145-0.709,1.755-0.996c-0.675-0.98-1.453-1.974-2.336-2.949
	c-1.334,0.102-2.629,0.369-3.836,0.83c-2.502,0.961-3.521-0.338-1.151-1.959c0.784-0.534,1.631-0.971,2.521-1.312
	c-1.104-0.982-2.229-1.864-3.354-2.621c-1.243,0.116-2.448,0.387-3.582,0.819c-2.5,0.96-3.521-0.341-1.148-1.96
	c0.436-0.299,0.894-0.557,1.36-0.796c-3.812-1.8-7.188-2.028-8.801-0.261c-2.569,2.817,2.042,7.771,8.193,13.379
	c6.148,5.605,11.505,9.742,14.076,6.925c1.457-1.601,1.149-4.489-0.506-7.718c-0.697,0.148-1.385,0.328-2.037,0.58
	C124.021,113.01,123.003,111.712,125.373,110.09z"/>
</svg>
