<?xml version="1.0" encoding="utf-8"?>
<!-- Generator: Adobe Illustrator 15.0.0, SVG Export Plug-In . SVG Version: 6.00 Build 0)  -->
<!DOCTYPE svg PUBLIC "-//W3C//DTD SVG 1.0//EN" "http://www.w3.org/TR/2001/REC-SVG-20010904/DTD/svg10.dtd">
<svg version="1.0" id="Layer_1" xmlns="http://www.w3.org/2000/svg" xmlns:xlink="http://www.w3.org/1999/xlink" x="0px" y="0px"
	 width="220px" height="227px" viewBox="0 0 220 227" enable-background="new 0 0 220 227" xml:space="preserve">
<g>
	<path fill="#434343" d="M102.43,115.827l-5.541-2.188l-0.707,1.793c0,0-0.674,2.9,1.746,3.855c2.424,0.957,3.82-1.66,3.82-1.66
		L102.43,115.827z"/>
	<path fill="#434343" d="M106.48,99.971c-2.395-1.006-5.758,1.201-6.92,3.983c-0.479,1.146-0.693,2.381-0.875,3.602
		c-0.086,0.583-0.146,1.183-0.256,1.763c-0.141,0.728-0.35,1.431-0.557,2.138c-0.287,0.979,0.031,1.146,0.904,1.315l3.059,1.212
		c0.312,0.152,0.922,0.547,1.234,0.181c0.275-0.327,0.223-0.928,0.404-1.317c0.24-0.506,0.51-1.021,0.805-1.498
		c0.654-1.064,1.896-1.846,2.738-2.764c1.044-1.143,1.619-2.289,1.938-3.804C109.381,102.757,108.408,100.778,106.48,99.971z"/>
	<g>
		<path fill="#434343" d="M109.443,109.542l5.512,2.178c0,0-1.137,4.461-4.502,3.161S109.443,109.542,109.443,109.542z"/>
		<path fill="#434343" d="M117.301,95.847c2.354,0.875,3.301,4.587,2.312,7.253c-0.41,1.101-1.062,2.088-1.729,3.041
			c-0.319,0.457-0.666,0.904-0.967,1.377c-0.375,0.59-0.686,1.209-1,1.827c-0.438,0.861-0.771,0.767-1.5,0.312l-2.961-1.168
			c-0.32-0.097-1.01-0.229-0.992-0.683c0.017-0.404,0.445-0.781,0.57-1.168c0.16-0.506,0.307-1.031,0.408-1.554
			c0.229-1.16-0.146-2.507-0.143-3.686c0.002-1.464,0.342-2.628,1.105-3.874C113.424,95.862,115.406,95.143,117.301,95.847z"/>
	</g>
</g>
</svg>
