<?xml version="1.0" encoding="utf-8"?>
<!-- Generator: Adobe Illustrator 15.0.0, SVG Export Plug-In . SVG Version: 6.00 Build 0)  -->
<!DOCTYPE svg PUBLIC "-//W3C//DTD SVG 1.0//EN" "http://www.w3.org/TR/2001/REC-SVG-20010904/DTD/svg10.dtd">
<svg version="1.0" id="Layer_1" xmlns="http://www.w3.org/2000/svg" xmlns:xlink="http://www.w3.org/1999/xlink" x="0px" y="0px"
	 width="220px" height="227px" viewBox="0 0 220 227" enable-background="new 0 0 220 227" xml:space="preserve">
<path fill="#434343" d="M121.969,98.5h-17.854c-1.675,0-3.031,1.363-3.031,3.043v17.915c0,1.68,1.356,3.042,3.031,3.042h17.854
	c1.675,0,3.031-1.362,3.031-3.042v-17.915C125,99.863,123.644,98.5,121.969,98.5z M108.574,118.541
	c-1.962,0-3.553-1.595-3.553-3.562c0-1.967,1.591-3.562,3.553-3.562c1.963,0,3.554,1.595,3.554,3.562
	C112.128,116.946,110.537,118.541,108.574,118.541z M117.605,109.506c-1.944,0-3.521-1.578-3.521-3.522
	c0-1.946,1.577-3.524,3.521-3.524c1.941,0,3.521,1.578,3.521,3.524C121.126,107.928,119.549,109.506,117.605,109.506z"/>
</svg>
