<?xml version="1.0" encoding="utf-8"?>
<!-- Generator: Adobe Illustrator 15.0.0, SVG Export Plug-In . SVG Version: 6.00 Build 0)  -->
<!DOCTYPE svg PUBLIC "-//W3C//DTD SVG 1.0//EN" "http://www.w3.org/TR/2001/REC-SVG-20010904/DTD/svg10.dtd">
<svg version="1.0" id="Layer_1" xmlns="http://www.w3.org/2000/svg" xmlns:xlink="http://www.w3.org/1999/xlink" x="0px" y="0px"
	 width="220px" height="227px" viewBox="0 0 220 227" enable-background="new 0 0 220 227" xml:space="preserve">
<path fill="#434343" d="M122.969,104.5h-17.854c-1.675,0-3.031,1.363-3.031,3.043v17.915c0,1.68,1.356,3.042,3.031,3.042h17.854
	c1.675,0,3.031-1.362,3.031-3.042v-17.915C126,105.863,124.644,104.5,122.969,104.5z M109.072,124.529
	c-1.648,0-2.983-1.354-2.983-3.021c0-1.666,1.335-3.019,2.983-3.019c1.646,0,2.981,1.353,2.981,3.019
	C112.056,123.178,110.719,124.529,109.072,124.529z M119.094,124.501c-1.646,0-2.98-1.337-2.98-2.983s1.336-2.982,2.98-2.982
	c1.649,0,2.984,1.336,2.984,2.982S120.742,124.501,119.094,124.501z M119.034,114.65c-1.687,0-3.05-1.367-3.05-3.057
	c0-1.688,1.363-3.055,3.05-3.055c1.686,0,3.05,1.367,3.05,3.055C122.084,113.283,120.719,114.65,119.034,114.65z M109.112,114.51
	c-1.673,0-3.028-1.354-3.028-3.024s1.355-3.026,3.028-3.026c1.671,0,3.024,1.355,3.024,3.026S110.783,114.51,109.112,114.51z"/>
</svg>
