<?xml version="1.0" encoding="utf-8"?>
<!-- Generator: Adobe Illustrator 15.0.0, SVG Export Plug-In . SVG Version: 6.00 Build 0)  -->
<!DOCTYPE svg PUBLIC "-//W3C//DTD SVG 1.0//EN" "http://www.w3.org/TR/2001/REC-SVG-20010904/DTD/svg10.dtd">
<svg version="1.0" id="Layer_1" xmlns="http://www.w3.org/2000/svg" xmlns:xlink="http://www.w3.org/1999/xlink" x="0px" y="0px"
	 width="220px" height="227px" viewBox="0 0 220 227" enable-background="new 0 0 220 227" xml:space="preserve">
<g>
	<path fill="#434343" d="M104.5,107.464c1.185,0,2.175-0.816,2.455-1.917h-4.91C102.325,106.646,103.315,107.464,104.5,107.464z"/>
	<path fill="#434343" d="M104.5,102.521c-1.2,0-2.203,0.83-2.468,1.941h4.936C106.703,103.352,105.7,102.521,104.5,102.521z"/>
	<path fill="#434343" d="M110.874,95.585h-2.827v2.962h-7.078v-2.962h-2.885c-0.588,0-1.063,0.45-1.063,1.007v7.865h3.845
		c0.284-1.757,1.798-3.105,3.635-3.105c1.836,0,3.352,1.351,3.636,3.105h3.802v-7.865C111.938,96.035,111.461,95.585,110.874,95.585
		z"/>
	<rect x="102.031" y="95.554" fill="#434343" width="4.922" height="1.884"/>
	<path fill="#434343" d="M108.142,105.547c-0.301,1.736-1.811,3.064-3.634,3.064c-1.823,0-3.333-1.328-3.634-3.064H97.02v7.904
		c0,0.555,0.476,1.007,1.064,1.007h2.853v-3.083h7.125v3.083h2.827c0.588,0,1.063-0.452,1.063-1.007v-7.904H108.142z"/>
	<rect x="102.125" y="112.562" fill="#434343" width="4.75" height="1.896"/>
	
		<rect x="95.438" y="93.938" fill="none" stroke="#434343" stroke-linecap="round" stroke-linejoin="round" stroke-miterlimit="10" width="18" height="22.125"/>
</g>
</svg>
