<?xml version="1.0" encoding="utf-8"?>
<!-- Generator: Adobe Illustrator 15.0.0, SVG Export Plug-In . SVG Version: 6.00 Build 0)  -->
<!DOCTYPE svg PUBLIC "-//W3C//DTD SVG 1.0//EN" "http://www.w3.org/TR/2001/REC-SVG-20010904/DTD/svg10.dtd">
<svg version="1.0" id="Layer_1" xmlns="http://www.w3.org/2000/svg" xmlns:xlink="http://www.w3.org/1999/xlink" x="0px" y="0px"
	 width="220px" height="227px" viewBox="0 0 220 227" enable-background="new 0 0 220 227" xml:space="preserve">
<path fill="#434343" d="M117,103.913c0-1.812-1.361-3.285-3.107-3.481l-0.012-3.264c0-1.359-1.099-2.461-2.454-2.461h-3.776
	c0.002-0.018,0.006-0.033,0.006-0.051c0-1.932-1.567-3.908-3.562-3.908s-3.66,1.979-3.66,3.908c0,0.018,0.007,0.033,0.009,0.051
	h-3.788c-1.354,0-2.454,1.102-2.454,2.461l0.05,3.104c1.973,0.023,3.564,1.574,3.564,3.49s-1.594,3.468-3.564,3.491v4.784
	c0,1.359,1.1,2.461,2.454,2.461h14.772c1.354,0,2.454-1.102,2.454-2.461l-0.016-4.648C115.65,107.186,117,105.715,117,103.913z"/>
</svg>
