<?xml version="1.0" encoding="utf-8"?>
<!-- Generator: Adobe Illustrator 15.0.0, SVG Export Plug-In . SVG Version: 6.00 Build 0)  -->
<!DOCTYPE svg PUBLIC "-//W3C//DTD SVG 1.0//EN" "http://www.w3.org/TR/2001/REC-SVG-20010904/DTD/svg10.dtd">
<svg version="1.0" id="Layer_1" xmlns="http://www.w3.org/2000/svg" xmlns:xlink="http://www.w3.org/1999/xlink" x="0px" y="0px"
	 width="220px" height="227px" viewBox="0 0 220 227" enable-background="new 0 0 220 227" xml:space="preserve">
<path fill="#434343" d="M119.381,92h-17.885c-1.678,0-3.037,1.363-3.037,3.043v17.915c0,1.681,1.359,3.042,3.037,3.042h17.885
	c1.678,0,3.036-1.361,3.036-3.042V95.043C122.417,93.363,121.059,92,119.381,92z M110.459,106.959c-1.635,0-2.959-1.325-2.959-2.959
	s1.324-2.959,2.959-2.959c1.634,0,2.958,1.325,2.958,2.959S112.093,106.959,110.459,106.959z M104.459,100.959
	c-1.635,0-2.959-1.325-2.959-2.959s1.324-2.959,2.959-2.959c1.634,0,2.958,1.325,2.958,2.959S106.093,100.959,104.459,100.959z
	 M104.459,112.959c-1.635,0-2.959-1.325-2.959-2.959s1.324-2.959,2.959-2.959c1.634,0,2.958,1.325,2.958,2.959
	S106.093,112.959,104.459,112.959z M116.459,112.959c-1.635,0-2.959-1.325-2.959-2.959s1.324-2.959,2.959-2.959
	c1.634,0,2.958,1.325,2.958,2.959S118.093,112.959,116.459,112.959z M116.459,100.959c-1.635,0-2.959-1.325-2.959-2.959
	s1.324-2.959,2.959-2.959c1.634,0,2.958,1.325,2.958,2.959S118.093,100.959,116.459,100.959z"/>
</svg>
