<?xml version="1.0" encoding="utf-8"?>
<!-- Generator: Adobe Illustrator 15.0.0, SVG Export Plug-In . SVG Version: 6.00 Build 0)  -->
<!DOCTYPE svg PUBLIC "-//W3C//DTD SVG 1.0//EN" "http://www.w3.org/TR/2001/REC-SVG-20010904/DTD/svg10.dtd">
<svg version="1.0" id="Layer_1" xmlns="http://www.w3.org/2000/svg" xmlns:xlink="http://www.w3.org/1999/xlink" x="0px" y="0px"
	 width="220px" height="227px" viewBox="0 0 220 227" enable-background="new 0 0 220 227" xml:space="preserve">
<g>
	<polygon fill="#434343" points="105.562,112.969 107.562,114.938 107.562,118.969 108.469,118.969 108.469,114.938 
		110.469,112.969 	"/>
	<path fill="#434343" d="M108,95.031c-4.677,0-8.469,3.791-8.469,8.469s3.792,8.469,8.469,8.469c4.678,0,8.469-3.791,8.469-8.469
		S112.678,95.031,108,95.031z M106.562,111H105.5v-1.062h1.062V111z M108.562,111H107.5v-1.062h1.062V111z M110.562,111H109.5
		v-1.062h1.062V111z M110.562,109H109.5v-1.062h1.062V109z M108.562,109H107.5v-1.062h1.062V109z M112.562,105H111.5v-1.062h1.062
		V105z M110.562,107H109.5v-1.062h1.062V107z M112.562,109H111.5v-1.062h1.062V109z M112.562,107H111.5v-1.062h1.062V107z
		 M114.562,107H113.5v-1.062h1.062V107z M114.562,105H113.5v-1.062h1.062V105z M113.5,103v-1.062h1.062V103H113.5z"/>
</g>
</svg>
