<?xml version="1.0" encoding="utf-8"?>
<!-- Generator: Adobe Illustrator 15.0.0, SVG Export Plug-In . SVG Version: 6.00 Build 0)  -->
<!DOCTYPE svg PUBLIC "-//W3C//DTD SVG 1.0//EN" "http://www.w3.org/TR/2001/REC-SVG-20010904/DTD/svg10.dtd">
<svg version="1.0" id="Layer_1" xmlns="http://www.w3.org/2000/svg" xmlns:xlink="http://www.w3.org/1999/xlink" x="0px" y="0px"
	 width="220px" height="227px" viewBox="0 0 220 227" enable-background="new 0 0 220 227" xml:space="preserve">
<path fill="#434343" d="M117.965,107.5c-1.338,0-2.454,0.92-2.797,2.166h-4.404c-0.343-1.246-1.459-2.166-2.799-2.166
	c-1.608,0-2.916,1.324-2.916,2.959c0,0.393,0.079,0.768,0.217,1.111l-3.659,2.442c-0.47-0.323-1.031-0.513-1.641-0.513
	c-1.609,0-2.917,1.324-2.917,2.959c0,1.633,1.308,2.957,2.917,2.957c1.611,0,2.917-1.324,2.917-2.957
	c0-0.285-0.052-0.553-0.125-0.812l3.864-2.579c0.404,0.215,0.856,0.348,1.343,0.348c1.279,0,2.354-0.84,2.748-2h4.506
	c0.396,1.16,1.469,2,2.746,2c1.612,0,2.918-1.324,2.918-2.957C120.883,108.824,119.577,107.5,117.965,107.5z"/>
</svg>
