<?xml version="1.0" encoding="utf-8"?>
<!-- Generator: Adobe Illustrator 15.0.0, SVG Export Plug-In . SVG Version: 6.00 Build 0)  -->
<!DOCTYPE svg PUBLIC "-//W3C//DTD SVG 1.0//EN" "http://www.w3.org/TR/2001/REC-SVG-20010904/DTD/svg10.dtd">
<svg version="1.0" id="Layer_1" xmlns="http://www.w3.org/2000/svg" xmlns:xlink="http://www.w3.org/1999/xlink" x="0px" y="0px"
	 width="220px" height="227px" viewBox="0 0 220 227" enable-background="new 0 0 220 227" xml:space="preserve">
<path fill="#434343" d="M118.964,109.5c0-1.656-1.342-3-2.995-3c-1.651,0-2.938,1.344-2.938,3c0,1.305,0.866,2.402,2.025,2.816
	v5.184h-5.264c-0.414-1.162-1.511-2-2.812-2c-1.304,0-2.398,0.838-2.813,2h-6.174c-0.552,0-0.963,0.414-0.963,0.967v6.186
	c-1.161,0.413-2.032,1.545-2.032,2.85c0,1.656,1.342,3,2.995,3s2.996-1.344,2.996-3c0-1.305-0.884-2.402-2.045-2.816V119.5h5.223
	c0.415,1.162,1.512,2,2.813,2c1.301,0,2.396-0.838,2.812-2h6.175c0.554,0,0.997-0.447,0.997-1v-6.184
	C118.127,111.902,118.964,110.805,118.964,109.5z"/>
</svg>
