<?xml version="1.0" encoding="utf-8"?>
<!-- Generator: Adobe Illustrator 15.0.0, SVG Export Plug-In . SVG Version: 6.00 Build 0)  -->
<!DOCTYPE svg PUBLIC "-//W3C//DTD SVG 1.0//EN" "http://www.w3.org/TR/2001/REC-SVG-20010904/DTD/svg10.dtd">
<svg version="1.0" id="Layer_1" xmlns="http://www.w3.org/2000/svg" xmlns:xlink="http://www.w3.org/1999/xlink" x="0px" y="0px"
	 width="220px" height="227px" viewBox="0 0 220 227" enable-background="new 0 0 220 227" xml:space="preserve">
<g>
	<path fill="#434343" d="M117.459,107.875l-1.303-4.229c-0.002-0.568-1.546-1.023-2.114-1.021l-2.275,0.008
		c-0.521,0.002-2.002,0.396-2.244,0.898c-0.021,0.045-0.051,0.09-0.051,0.138l-0.903,4.236c-0.661,0.447-1.24,1.005-1.739,1.628
		c-1.098,1.369-1.762,3.1-1.755,4.99c0.006,1.854,0.649,3.556,1.719,4.904c0.604,0.768,1.347,1.413,2.188,1.913
		c1.195,0.71,2.591,1.124,4.084,1.12c4.396-0.016,7.948-3.593,7.937-7.991C120.99,111.721,119.586,109.299,117.459,107.875z
		 M113.907,105.365l1.125-0.004l0.004,1.154l-1.125,0.006L113.907,105.365z M110.876,105.406l1.188-0.004l0.004,1.188l-1.188,0.004
		L110.876,105.406z M113.055,120.062c-0.692,0.002-1.352-0.14-1.965-0.367c-0.905-0.34-1.688-0.911-2.299-1.641
		c-0.809-0.963-1.315-2.187-1.319-3.54c-0.005-1.379,0.513-2.626,1.338-3.601c0.614-0.725,1.401-1.287,2.312-1.622
		c0.595-0.22,1.229-0.358,1.897-0.36c3.07-0.012,5.572,2.475,5.583,5.548C118.611,117.553,116.125,120.053,113.055,120.062z"/>
	<rect x="113.909" y="105.363" fill="#434343" width="1.125" height="1.156"/>
	<path fill="#434343" d="M110.065,111.865c0.238,0.699,0.461,2.247,0.095,3.404c-0.143,0.447-0.208,0.812-0.29,0.909
		c-0.112,0.221,1.155,1.8,2.117,1.507c0.328-0.505,0.402-0.914,0.627-1.619c0.589-1.861,0.438-5.035-0.27-5.443
		C111.799,110.373,109.833,111.285,110.065,111.865z"/>
	<path fill="#434343" d="M104.889,118.74c-0.49-0.008-0.988-0.079-1.482-0.238c-0.628-0.203-1.184-0.525-1.667-0.918
		c-0.722-0.578-1.261-1.33-1.601-2.177c-0.446-1.116-0.549-2.384-0.155-3.622c0.397-1.26,1.229-2.246,2.263-2.893
		c0.766-0.48,1.642-0.763,2.56-0.801c0.604-0.022,0.632,0.021,1.238,0.219c0,0,0.621-1.02,1.411-1.369l0.747-3.727
		c0.212-0.473,0.541-0.707,0.728-0.945l-1.468-0.664c-0.496-0.16-2.026-0.244-2.413,0.164c-0.034,0.036-0.074,0.07-0.089,0.115
		l-2.166,3.793c-0.769,0.229-1.489,0.581-2.156,1.025c-1.466,0.978-2.631,2.434-3.206,4.254c-0.563,1.786-0.476,3.623,0.124,5.254
		c0.342,0.925,0.848,1.779,1.494,2.522c0.919,1.056,2.117,1.888,3.54,2.349c1.499,0.484,3.033,0.491,4.448,0.111
		C106.02,120.664,104.934,119.739,104.889,118.74z M106.014,104.139l1.282,0.414l-0.41,1.295l-1.279-0.414L106.014,104.139z"/>
	<path fill="#434343" d="M113.441,102.459c-0.118,0.001-0.227-0.054-0.303-0.152c-1.074-1.377-1.318-2.541-2.097-2.905l-0.118,0.003
		c-1.956,0.079-3.19,1.914-3.205,1.934c-0.066,0.102-0.186,0.162-0.309,0.162c-0.098,0-0.192-0.04-0.268-0.115
		c-0.077-0.08-0.123-0.184-0.132-0.3c-0.007-0.111,0.021-0.218,0.081-0.308c0.152-0.227,1.561-2.186,3.801-2.273l0.109-0.002
		c1.799,0.449,1.489,1.625,2.73,3.212c0.065,0.085,0.104,0.191,0.101,0.308c-0.001,0.113-0.039,0.22-0.109,0.303
		C113.65,102.409,113.549,102.459,113.441,102.459z"/>
</g>
</svg>
