<?xml version="1.0" encoding="utf-8"?>
<!-- Generator: Adobe Illustrator 15.0.0, SVG Export Plug-In . SVG Version: 6.00 Build 0)  -->
<!DOCTYPE svg PUBLIC "-//W3C//DTD SVG 1.0//EN" "http://www.w3.org/TR/2001/REC-SVG-20010904/DTD/svg10.dtd">
<svg version="1.0" id="Layer_1" xmlns="http://www.w3.org/2000/svg" xmlns:xlink="http://www.w3.org/1999/xlink" x="0px" y="0px"
	 width="220px" height="227px" viewBox="0 0 220 227" enable-background="new 0 0 220 227" xml:space="preserve">
<path fill="#434343" d="M118.973,114.666l-0.015,0.002v-1.65c0-4.59-3.906-8.32-8.71-8.32h-2.497c-4.804,0-8.71,3.73-8.71,8.32v1.66
	c-0.039-0.002-0.075-0.012-0.115-0.012c-1.062,0-1.926,0.881-1.926,1.969v4.022c0,1.087,0.863,1.968,1.926,1.968
	c0.095,0,0.188-0.016,0.278-0.029c0.869,2.592,4.026,4.59,7.945,4.961c0.417,0.549,1.497,0.943,2.775,0.943
	c1.642,0,2.969-0.645,2.969-1.438c0-0.796-1.327-1.438-2.969-1.438c-1.269,0-2.344,0.387-2.769,0.93
	c-3.541-0.353-6.367-2.108-7.042-4.359c0.443-0.359,0.734-0.91,0.734-1.536v-0.186h0.012v-7.541c0-3.812,2.77-6.371,6.889-6.371
	h2.497c4.105,0,6.763,2.509,6.763,6.39v7.541h0.021v0.167c0,1.087,0.87,1.968,1.939,1.968c1.073,0,1.942-0.881,1.942-1.968v-4.022
	C120.915,115.547,120.046,114.666,118.973,114.666z"/>
</svg>
