<?xml version="1.0" encoding="utf-8"?>
<!-- Generator: Adobe Illustrator 15.0.0, SVG Export Plug-In . SVG Version: 6.00 Build 0)  -->
<!DOCTYPE svg PUBLIC "-//W3C//DTD SVG 1.0//EN" "http://www.w3.org/TR/2001/REC-SVG-20010904/DTD/svg10.dtd">
<svg version="1.0" id="Layer_1" xmlns="http://www.w3.org/2000/svg" xmlns:xlink="http://www.w3.org/1999/xlink" x="0px" y="0px"
	 width="220px" height="227px" viewBox="0 0 220 227" enable-background="new 0 0 220 227" xml:space="preserve">
<g>
	<path fill="#434343" d="M125.69,111.748l-5.861-5.859v-3.945c0-0.195-0.158-0.354-0.354-0.354l-0.994,0.031
		c-0.194,0-0.354,0.158-0.354,0.354v1.814l-3.374-2.979c-0.415-0.414-1.086-0.414-1.502,0l-10.939,10.938
		c-0.414,0.416-0.411,1.09,0,1.504c0.416,0.414,1.091,0.414,1.505-0.002L114,103.064l10.188,10.186
		c0.207,0.207,0.479,0.312,0.75,0.312c0.271,0,0.545-0.104,0.754-0.312C126.104,112.838,126.104,112.162,125.69,111.748z
		 M106.125,113.281v8.779c0,0.586,0.453,1.062,1.011,1.062h3.812v-5.729c0-0.586,0.453-1.062,1.01-1.062h4.031
		c0.559,0,1.011,0.476,1.011,1.062v5.729h3.99c0.558,0,1.01-0.476,1.01-1.062v-8.781l-8-7.906L106.125,113.281z"/>
</g>
</svg>
