<?xml version="1.0" encoding="utf-8"?>
<!-- Generator: Adobe Illustrator 15.0.0, SVG Export Plug-In . SVG Version: 6.00 Build 0)  -->
<!DOCTYPE svg PUBLIC "-//W3C//DTD SVG 1.0//EN" "http://www.w3.org/TR/2001/REC-SVG-20010904/DTD/svg10.dtd">
<svg version="1.0" id="Layer_1" xmlns="http://www.w3.org/2000/svg" xmlns:xlink="http://www.w3.org/1999/xlink" x="0px" y="0px"
	 width="220px" height="227px" viewBox="0 0 220 227" enable-background="new 0 0 220 227" xml:space="preserve">
<g>
	<path fill="#434343" d="M116,122.609h-6.114v-2.234H116V122.609z M104.364,118.666l1.698-10.168h2.57l1.334-1.992h-5.844
		l-3.011,13.078c0,0,0,4.73,0,6.725c0,1.992,0.716,3.031,2.732,3.031c2.02,0,16.404,0,18.295,0c1.892,0,2.856-0.789,2.856-3.156
		c0-2.363,0-6.6,0-6.6l-3.125-13.078h-5.812l1.284,1.992h2.716l1.354,10.168H104.364z"/>
	<path fill="#434343" d="M115.738,108.326l-2.24-2.609c-0.279-0.289-0.736-0.289-1.018,0l-2.238,2.609
		c-0.281,0.289-0.281,0.758,0,1.049h1.789v3.055c0,0.564,0.527,1.023,1.019,1.023s0.89-0.459,0.89-1.023v-3.055h1.801
		C116.02,109.084,116.02,108.615,115.738,108.326z"/>
</g>
</svg>
