<?xml version="1.0" encoding="utf-8"?>
<!-- Generator: Adobe Illustrator 15.0.0, SVG Export Plug-In . SVG Version: 6.00 Build 0)  -->
<!DOCTYPE svg PUBLIC "-//W3C//DTD SVG 1.0//EN" "http://www.w3.org/TR/2001/REC-SVG-20010904/DTD/svg10.dtd">
<svg version="1.0" id="Layer_1" xmlns="http://www.w3.org/2000/svg" xmlns:xlink="http://www.w3.org/1999/xlink" x="0px" y="0px"
	 width="220px" height="227px" viewBox="0 0 220 227" enable-background="new 0 0 220 227" xml:space="preserve">
<g>
	<path fill="#434343" d="M103.488,120.499C99.91,120.499,97,117.584,97,114s2.91-6.5,6.488-6.5c2.018,0,3.914,0.941,5.141,2.533
		l-1.459,1.393c-0.84-1.206-2.215-1.926-3.682-1.926c-2.477,0-4.488,2.019-4.488,4.5c0,2.48,2.014,4.499,4.488,4.499
		c1.303,0,3.182-2.821,4.691-5.087c2.025-3.041,3.938-5.912,6.27-5.912c3.566,0,6.471,2.906,6.471,6.48
		c0,3.571-2.902,6.479-6.471,6.479c-2.014,0-3.904-0.938-5.129-2.528l1.447-1.405c0.836,1.212,2.215,1.936,3.682,1.936
		c2.465,0,4.471-2.01,4.471-4.479c0-2.472-2.006-4.48-4.471-4.48c-1.258,0-3.113,2.783-4.604,5.021
		C107.797,117.596,105.861,120.499,103.488,120.499z"/>
</g>
</svg>
