<?xml version="1.0" encoding="utf-8"?>
<!-- Generator: Adobe Illustrator 15.0.0, SVG Export Plug-In . SVG Version: 6.00 Build 0)  -->
<!DOCTYPE svg PUBLIC "-//W3C//DTD SVG 1.0//EN" "http://www.w3.org/TR/2001/REC-SVG-20010904/DTD/svg10.dtd">
<svg version="1.0" id="Layer_1" xmlns="http://www.w3.org/2000/svg" xmlns:xlink="http://www.w3.org/1999/xlink" x="0px" y="0px"
	 width="220px" height="227px" viewBox="0 0 220 227" enable-background="new 0 0 220 227" xml:space="preserve">
<g>
	<path fill="#434343" d="M103.083,111.02l-1.325,1.325c-0.39,0.39-0.386,1.029,0.011,1.425l1.982,1.983
		c0.396,0.396,1.035,0.399,1.425,0.01l1.326-1.325L103.083,111.02z"/>
	<path fill="#434343" d="M110.026,110.912c0.381-0.38,0.366-1.01-0.028-1.406l-1.984-1.981c-0.395-0.396-1.022-0.408-1.403-0.028
		l-2.729,2.729l3.418,3.418L110.026,110.912z"/>
	<path fill="#434343" d="M96.632,118.825l-1.286,1.286c-0.396,0.396-0.375,1.06,0.048,1.48l0.506,0.505
		c0.422,0.422,1.086,0.44,1.479,0.047l1.286-1.284L96.632,118.825z"/>
	
		<rect x="98.709" y="114.877" transform="matrix(0.7071 0.7071 -0.7071 0.7071 112.2774 -36.4746)" fill="#434343" width="2.917" height="4.832"/>
	<g>
		<path fill="#434343" d="M118.57,125.45c-0.729,0-2.686,0.125-4.166-1.193c-1.683-1.497-2.342-3.318-2.342-6.694
			c0-1.846,0.979-4.132,1.778-5.324c0.694-1.034,1.214-2.129,1.214-3.301c0-1.715-0.237-2.738-0.945-3.177
			c-0.684-0.422-1.563-0.122-1.813-0.021l-3.623,3.662l-0.717-0.7l3.826-3.831c0.062-0.03,1.581-0.751,2.857,0.041
			c1.032,0.64,1.423,1.917,1.423,4.023c0,1.477-0.638,2.741-1.385,3.854c-0.791,1.18-1.609,3.228-1.609,4.771
			c0,3.069,0.544,4.639,1.994,5.938c1.565,1.403,3.736,0.939,3.758,0.938l0.107,0.994C118.908,125.438,118.779,125.45,118.57,125.45
			z"/>
	</g>
</g>
</svg>
