<?xml version="1.0" encoding="utf-8"?>
<!-- Generator: Adobe Illustrator 15.0.0, SVG Export Plug-In . SVG Version: 6.00 Build 0)  -->
<!DOCTYPE svg PUBLIC "-//W3C//DTD SVG 1.0//EN" "http://www.w3.org/TR/2001/REC-SVG-20010904/DTD/svg10.dtd">
<svg version="1.0" id="Layer_1" xmlns="http://www.w3.org/2000/svg" xmlns:xlink="http://www.w3.org/1999/xlink" x="0px" y="0px"
	 width="220px" height="227px" viewBox="0 0 220 227" enable-background="new 0 0 220 227" xml:space="preserve">
<path fill="#434343" d="M113.105,103.653c-1.019,1.018-1.59,3.492-0.377,4.705l1.526,1.527l-14.218,14.219
	c-0.336,0.336-0.312,0.908,0.056,1.275c0.368,0.367,0.938,0.393,1.275,0.055l1.177-1.176l2.118,2.117l0.727-0.725l0.605-0.607
	l0.727-0.725l-2.118-2.119l1.846-1.846l1.452,1.451l1.332-1.332l-1.451-1.451l7.805-7.808l1.525,1.527
	c1.215,1.215,3.688,0.641,4.707-0.375c1.019-1.021,1.365-3.494,0.15-4.709l-4.384-4.383
	C116.374,102.062,114.123,102.634,113.105,103.653z M121.076,109.251c0.482,0.483-0.264,1.824-0.438,1.998
	c-0.171,0.17-1.509,0.916-1.992,0.433l-4.795-4.796c-0.483-0.482,0.262-1.82,0.434-1.992c0.174-0.174,1.513-0.92,1.996-0.438
	L121.076,109.251z"/>
</svg>
