<?xml version="1.0" encoding="utf-8"?>
<!-- Generator: Adobe Illustrator 15.0.0, SVG Export Plug-In . SVG Version: 6.00 Build 0)  -->
<!DOCTYPE svg PUBLIC "-//W3C//DTD SVG 1.0//EN" "http://www.w3.org/TR/2001/REC-SVG-20010904/DTD/svg10.dtd">
<svg version="1.0" id="Layer_1" xmlns="http://www.w3.org/2000/svg" xmlns:xlink="http://www.w3.org/1999/xlink" x="0px" y="0px"
	 width="220px" height="227px" viewBox="0 0 220 227" enable-background="new 0 0 220 227" xml:space="preserve">
<g>
	<path fill="#434343" d="M102.531,108.378c0,0-3.175-3.174-3.846-3.846c-0.671-0.671-1.395,0.048-2.257-0.814
		c-0.862-0.86,0.108-2.023,0.709-2.625l0,0c0.6-0.601,1.517-0.656,2.045-0.129l4.849,4.851
		C104.561,106.342,103.062,108.909,102.531,108.378z"/>
	<path fill="#434343" d="M119.732,123.23c-1.793,1.793-9.788-4.653-17.591-12.459c0,0,2.259-2.25,3.43-3.421
		C105.571,107.354,120.592,122.372,119.732,123.23z"/>
</g>
</svg>
