<?xml version="1.0" encoding="utf-8"?>
<!-- Generator: Adobe Illustrator 15.0.0, SVG Export Plug-In . SVG Version: 6.00 Build 0)  -->
<!DOCTYPE svg PUBLIC "-//W3C//DTD SVG 1.0//EN" "http://www.w3.org/TR/2001/REC-SVG-20010904/DTD/svg10.dtd">
<svg version="1.0" id="Layer_1" xmlns="http://www.w3.org/2000/svg" xmlns:xlink="http://www.w3.org/1999/xlink" x="0px" y="0px"
	 width="220px" height="227px" viewBox="0 0 220 227" enable-background="new 0 0 220 227" xml:space="preserve">
<path fill="#434343" d="M122.518,119.282l-7.596-7.99c-0.104,0.01-0.213,0.017-0.32,0.017c-1.832,0-3.314-1.554-3.314-3.47
	c0-0.112,0.006-0.224,0.016-0.335l-1.311-1.37c-0.811-0.847-2.053-0.759-2.615-0.134l-2,2.062c-0.531,0.529-0.376,2.125,0.193,2.693
	l12.525,13.148c0.812,0.848,2.242,0.727,3.197-0.274l0.961-1.007C123.209,121.627,123.327,120.129,122.518,119.282z
	 M120.016,122.604c-0.6,0-1.088-0.498-1.088-1.112c0-0.617,0.488-1.117,1.088-1.117c0.605,0,1.096,0.5,1.096,1.117
	C121.109,122.104,120.621,122.604,120.016,122.604z"/>
</svg>
