<?xml version="1.0" encoding="utf-8"?>
<!-- Generator: Adobe Illustrator 15.0.0, SVG Export Plug-In . SVG Version: 6.00 Build 0)  -->
<!DOCTYPE svg PUBLIC "-//W3C//DTD SVG 1.0//EN" "http://www.w3.org/TR/2001/REC-SVG-20010904/DTD/svg10.dtd">
<svg version="1.0" id="Layer_1" xmlns="http://www.w3.org/2000/svg" xmlns:xlink="http://www.w3.org/1999/xlink" x="0px" y="0px"
	 width="220px" height="227px" viewBox="0 0 220 227" enable-background="new 0 0 220 227" xml:space="preserve">
<g>
	<path fill="#434343" d="M113.534,121.763c0.203-0.17,0.395-0.348,0.572-0.529c-2.992-1.354-5.264-2.992-7.311-4.652
		c-2.439-0.006-4.959-0.625-6.25-2.209c1.922,0.963,3.943,0.967,4.625,0.875c-5.774-5.188-7.377-10.26-7.377-10.26
		c1.979,3.082,4.064,5.467,6.107,7.355c-0.857-1.627-0.355-4.639-0.355-4.639c1.666,5.834,1.861,5.926,1.75,5.979
		c1.355,1.092,2.82,2.115,4.041,2.896c-0.438-1.018-0.75-2.5-0.709-5.041c0,0,1.086,5.33,2.793,6.645
		c1.359,0.779,2.556,1.385,3.482,1.846c1.467-2.182,1.476-7.988-2.122-10.322c-3.88-2.52-10.419-2.613-17.034-9.053
		c-1.979-1.926,1.698,15.021,7.025,19.745C106.052,123.308,110.312,124.44,113.534,121.763z"/>
	<path fill="#434343" d="M111.985,121.558c0,0,1.771,0.918,3.812,1.812c2.037,0.895,3.014,0.713,3.129,0.936
		c0.117,0.227,0.061-2.457,0.061-2.457s-2.751,0.646-5.812-1.041L111.985,121.558z"/>
</g>
</svg>
