<?xml version="1.0" encoding="utf-8"?>
<!-- Generator: Adobe Illustrator 15.0.0, SVG Export Plug-In . SVG Version: 6.00 Build 0)  -->
<!DOCTYPE svg PUBLIC "-//W3C//DTD SVG 1.0//EN" "http://www.w3.org/TR/2001/REC-SVG-20010904/DTD/svg10.dtd">
<svg version="1.0" id="Layer_1" xmlns="http://www.w3.org/2000/svg" xmlns:xlink="http://www.w3.org/1999/xlink" x="0px" y="0px"
	 width="220px" height="227px" viewBox="0 0 220 227" enable-background="new 0 0 220 227" xml:space="preserve">
<g>
	<g>
		<path fill="#434343" d="M104.724,125.5H100c-1.104,0-2-0.896-2-2s0.896-2,2-2h3.276l12-10H120c1.104,0,2,0.896,2,2s-0.896,2-2,2
			h-3.275L104.724,125.5z"/>
	</g>
	<g>
		<circle fill="#434343" cx="109" cy="107.5" r="2"/>
		<path fill="#434343" d="M109,110.5c-1.104,0-2,0.896-2,2v2.599l-1.82,1.519c-0.212,0.178-0.24,0.49-0.063,0.705
			c0.099,0.117,0.241,0.18,0.384,0.18c0.113,0,0.227-0.038,0.32-0.115l5.18-4.314V112.5c0-0.225-0.045-0.438-0.114-0.64
			C110.618,111.071,109.879,110.5,109,110.5z"/>
	</g>
</g>
</svg>
