<?xml version="1.0" encoding="utf-8"?>
<!-- Generator: Adobe Illustrator 15.0.0, SVG Export Plug-In . SVG Version: 6.00 Build 0)  -->
<!DOCTYPE svg PUBLIC "-//W3C//DTD SVG 1.0//EN" "http://www.w3.org/TR/2001/REC-SVG-20010904/DTD/svg10.dtd">
<svg version="1.0" id="Layer_1" xmlns="http://www.w3.org/2000/svg" xmlns:xlink="http://www.w3.org/1999/xlink" x="0px" y="0px"
	 width="220px" height="227px" viewBox="0 0 220 227" enable-background="new 0 0 220 227" xml:space="preserve">
<g>
	<polygon fill="#434343" points="119,117.625 96.959,117.625 96.959,95.584 95.125,95.584 95.084,119.459 95.125,119.459 
		95.125,119.5 119,119.459 	"/>
	<path fill="#434343" d="M98.199,116.42h3.597c0.071,0,0.129-0.058,0.129-0.129l-1.388-1.411l6.502-7.464l5.031,4.125l6.856-8.982
		l-0.009-2.5l-6.912,9.141l-4.969-3.656l-7.39,8.451l-1.45-1.451c-0.071,0-0.129,0.059-0.129,0.129v3.621
		C98.07,116.362,98.128,116.42,98.199,116.42z"/>
</g>
</svg>
