<?xml version="1.0" encoding="utf-8"?>
<!-- Generator: Adobe Illustrator 15.0.0, SVG Export Plug-In . SVG Version: 6.00 Build 0)  -->
<!DOCTYPE svg PUBLIC "-//W3C//DTD SVG 1.0//EN" "http://www.w3.org/TR/2001/REC-SVG-20010904/DTD/svg10.dtd">
<svg version="1.0" id="Layer_1" xmlns="http://www.w3.org/2000/svg" xmlns:xlink="http://www.w3.org/1999/xlink" x="0px" y="0px"
	 width="220px" height="227px" viewBox="0 0 220 227" enable-background="new 0 0 220 227" xml:space="preserve">
<g>
	<g>
		<polygon fill="#434343" points="122.942,105.539 121.509,109.77 124.178,113.348 119.713,113.291 117.133,116.936 
			115.809,112.672 111.545,111.348 115.19,108.768 115.133,104.303 118.712,106.973 		"/>
		<path fill="#434343" d="M102.854,127.033c-0.392,0.391-0.924,0.492-1.188,0.226l-0.406-0.405
			c-0.266-0.266-0.164-0.797,0.229-1.188l13.303-13.303c0.391-0.393,0.922-0.492,1.188-0.229l0.406,0.406
			c0.268,0.268,0.165,0.797-0.227,1.188L102.854,127.033z"/>
	</g>
	<path fill="#434343" d="M121.511,121.449c0,0,0.162-1.061-0.608-1.823c-0.773-0.762-1.87-0.626-1.87-0.626s1.266,0.02,1.895-0.604
		c0.631-0.623,0.586-1.848,0.586-1.848s0.134,1.352,0.636,1.848c0.505,0.496,1.847,0.604,1.847,0.604s-1.261,0.102-1.819,0.652
		C121.614,120.205,121.511,121.449,121.511,121.449z"/>
	<path fill="#434343" d="M117.511,126.449c0,0,0.162-1.061-0.608-1.823c-0.773-0.762-1.87-0.626-1.87-0.626s1.266,0.02,1.895-0.604
		c0.631-0.623,0.586-1.848,0.586-1.848s0.134,1.352,0.636,1.848c0.505,0.496,1.847,0.604,1.847,0.604s-1.261,0.102-1.819,0.652
		C117.614,125.205,117.511,126.449,117.511,126.449z"/>
	<path fill="#434343" d="M110.511,109.449c0,0,0.162-1.061-0.608-1.823c-0.773-0.762-1.87-0.626-1.87-0.626s1.266,0.02,1.895-0.604
		c0.631-0.623,0.586-1.848,0.586-1.848s0.134,1.352,0.636,1.848c0.505,0.496,1.847,0.604,1.847,0.604s-1.261,0.102-1.819,0.652
		C110.614,108.205,110.511,109.449,110.511,109.449z"/>
</g>
</svg>
