<?xml version="1.0" encoding="utf-8"?>
<!-- Generator: Adobe Illustrator 15.0.0, SVG Export Plug-In . SVG Version: 6.00 Build 0)  -->
<!DOCTYPE svg PUBLIC "-//W3C//DTD SVG 1.0//EN" "http://www.w3.org/TR/2001/REC-SVG-20010904/DTD/svg10.dtd">
<svg version="1.0" id="Layer_1" xmlns="http://www.w3.org/2000/svg" xmlns:xlink="http://www.w3.org/1999/xlink" x="0px" y="0px"
	 width="220px" height="227px" viewBox="0 0 220 227" enable-background="new 0 0 220 227" xml:space="preserve">
<g>
	<polygon fill="#434343" points="96,113.68 102.875,116.462 102.875,98.67 96,96.5 	"/>
	<path fill="#434343" d="M120,97.975l-6.958-1.391V107.4c2.791,0.023,5.047,2.32,5.047,5.154c0,0.736-0.153,1.436-0.428,2.069
		l-0.556,0.968l2.895,0.868V97.975z"/>
	<path fill="#434343" d="M107.91,112.555c0-2.496,1.751-4.578,4.074-5.055V96.584l-7.942,2.086v17.792l4.661-1.226l-0.365-0.612
		C108.065,113.99,107.91,113.291,107.91,112.555z"/>
	<path fill="#434343" d="M113.023,108.529c-2.195,0-3.977,1.807-3.977,4.035c0,0.576,0.122,1.121,0.334,1.62l3.655,6.229
		l3.626-6.229c0.214-0.499,0.334-1.043,0.334-1.62C116.997,110.336,115.218,108.529,113.023,108.529z M113.002,114.893
		c-1.311,0-2.373-1.074-2.373-2.399c0-1.326,1.062-2.4,2.373-2.4s2.373,1.074,2.373,2.4
		C115.375,113.819,114.312,114.893,113.002,114.893z M113.99,112.479c0,0.544-0.443,0.984-0.988,0.984
		c-0.546,0-0.988-0.44-0.988-0.984c0-0.543,0.442-0.984,0.988-0.984C113.547,111.494,113.99,111.936,113.99,112.479z"/>
</g>
</svg>
