<?xml version="1.0" encoding="utf-8"?>
<!-- Generator: Adobe Illustrator 15.0.0, SVG Export Plug-In . SVG Version: 6.00 Build 0)  -->
<!DOCTYPE svg PUBLIC "-//W3C//DTD SVG 1.0//EN" "http://www.w3.org/TR/2001/REC-SVG-20010904/DTD/svg10.dtd">
<svg version="1.0" id="Layer_1" xmlns="http://www.w3.org/2000/svg" xmlns:xlink="http://www.w3.org/1999/xlink" x="0px" y="0px"
	 width="220px" height="227px" viewBox="0 0 220 227" enable-background="new 0 0 220 227" xml:space="preserve">
<path fill="#434343" d="M125.773,99.32c0.172-1.169,0.188-2.015,0.188-2.015c0-1.565-0.885,0.169-3.798-0.704
	c-2.001-0.6-5.487,1.646-8.183,1.646c-2.709,0-6.209-2.242-8.215-1.637c-2.894,0.875-3.764-0.865-3.764,0.694
	c0,0-0.292,7.749,5.032,8.961c3.009,0.415,5.183-0.837,6.946-0.837c1.793,0,3.291,1.438,7.021,0.822
	c1.039-0.137,1.851-0.639,2.499-1.326l0.977,13.441L125.773,99.32z M111.755,103.456c-0.251-0.103-0.595-0.351-1.057-0.204
	c-0.749,0.237-1.841,0.178-2.962-0.224c-1.813-0.65-2.775-3.564-2.775-3.564s2.626-0.202,4.441,0.447
	c0.842,0.302,1.057,0.442,1.566,0.883C112.002,101.684,112.004,103.559,111.755,103.456z M119.747,103.002
	c-1.284,0.426-2.534,0.489-3.394,0.238c-0.531-0.156-0.926,0.105-1.211,0.215c-0.285,0.109-0.285-1.881,0.899-2.825
	c0.585-0.468,0.832-0.616,1.796-0.937c2.082-0.69,5.094,0.367,5.094,0.367S121.828,102.312,119.747,103.002z"/>
</svg>
