<?xml version="1.0" encoding="utf-8"?>
<!-- Generator: Adobe Illustrator 15.0.0, SVG Export Plug-In . SVG Version: 6.00 Build 0)  -->
<!DOCTYPE svg PUBLIC "-//W3C//DTD SVG 1.0//EN" "http://www.w3.org/TR/2001/REC-SVG-20010904/DTD/svg10.dtd">
<svg version="1.0" id="Layer_1" xmlns="http://www.w3.org/2000/svg" xmlns:xlink="http://www.w3.org/1999/xlink" x="0px" y="0px"
	 width="220px" height="227px" viewBox="0 0 220 227" enable-background="new 0 0 220 227" xml:space="preserve">
<path fill="#434343" d="M120.03,105.619c-1.032,0-1.87,0.822-1.903,1.848l-5.091-0.748l-2.188-4.473
	c0.644-0.31,1.091-0.959,1.091-1.719c0-1.054-0.855-1.908-1.909-1.908c-1.055,0-1.909,0.854-1.909,1.908
	c0,0.728,0.41,1.352,1.009,1.675l-2.207,4.517l-4.991,0.733c-0.041-1.019-0.874-1.833-1.9-1.833c-1.055,0-1.909,0.854-1.909,1.908
	c0,1.055,0.854,1.909,1.909,1.909c0.497,0,0.945-0.194,1.284-0.506l3.719,3.658l-0.855,5.044c-0.05-0.004-0.098-0.016-0.146-0.016
	c-1.054,0-1.909,0.855-1.909,1.909s0.855,1.909,1.909,1.909s1.909-0.855,1.909-1.909c0-0.371-0.11-0.714-0.294-1.007l4.334-2.302
	l4.413,2.343c-0.169,0.285-0.271,0.611-0.271,0.966c0,1.054,0.855,1.909,1.909,1.909s1.909-0.855,1.909-1.909
	s-0.855-1.909-1.909-1.909c-0.085,0-0.165,0.015-0.247,0.025l-0.857-5.055l3.765-3.704c0.345,0.341,0.817,0.552,1.341,0.552
	c1.054,0,1.909-0.855,1.909-1.909S121.084,105.619,120.03,105.619z"/>
</svg>
