<?xml version="1.0" encoding="utf-8"?>
<!-- Generator: Adobe Illustrator 15.0.0, SVG Export Plug-In . SVG Version: 6.00 Build 0)  -->
<!DOCTYPE svg PUBLIC "-//W3C//DTD SVG 1.0//EN" "http://www.w3.org/TR/2001/REC-SVG-20010904/DTD/svg10.dtd">
<svg version="1.0" id="Layer_1" xmlns="http://www.w3.org/2000/svg" xmlns:xlink="http://www.w3.org/1999/xlink" x="0px" y="0px"
	 width="220px" height="227px" viewBox="0 0 220 227" enable-background="new 0 0 220 227" xml:space="preserve">
<g>
	<path fill="#434343" d="M110.833,104.5h-3.625c-1.19,0-3.166,0.92-3.166,2.057v11.889c0,1.135,0.963,2.057,2.153,2.057h5.648
		c1.19,0,2.154-0.922,2.154-2.057v-11.889C114,105.42,112.023,104.5,110.833,104.5z M112.144,117.443
		c0,0.582-0.549,1.057-1.223,1.057h-3.886c-0.673,0-1.221-0.475-1.221-1.057v-8.889c0-0.293,0.146-1.617,3.197-0.438
		c3.059,1.184,3.13,0.146,3.13,0.438L112.144,117.443L112.144,117.443z"/>
	<rect x="106.087" y="101.562" fill="#434343" width="5.867" height="1.895"/>
	<path fill="#434343" d="M110.962,100.469h-3.896l0.986-1.031v-2.1c0-0.463,0.433-0.838,0.959-0.838l0,0
		c0.528,0,0.959,0.375,0.959,0.838v2.131L110.962,100.469z"/>
</g>
</svg>
