<?xml version="1.0" encoding="utf-8"?>
<!-- Generator: Adobe Illustrator 15.0.0, SVG Export Plug-In . SVG Version: 6.00 Build 0)  -->
<!DOCTYPE svg PUBLIC "-//W3C//DTD SVG 1.0//EN" "http://www.w3.org/TR/2001/REC-SVG-20010904/DTD/svg10.dtd">
<svg version="1.0" id="Layer_1" xmlns="http://www.w3.org/2000/svg" xmlns:xlink="http://www.w3.org/1999/xlink" x="0px" y="0px"
	 width="220px" height="227px" viewBox="0 0 220 227" enable-background="new 0 0 220 227" xml:space="preserve">
<path fill="#434343" d="M115.5,97.787c0.706-0.858,0.581-2.125-0.277-2.83c-0.855-0.704-2.126-0.582-2.833,0.277l-7.436,9.035
	l-7.381-9.03c-0.703-0.859-1.972-0.988-2.833-0.286c-0.86,0.701-0.99,1.968-0.287,2.828l8.578,10.438v2.344h-3.588
	c-0.788,0-1.428,0.65-1.428,1.455c0,0.806,0.64,1.455,1.428,1.455h3.588v3.018c0,1.108,0.85,2.011,1.958,2.011
	c1.105,0,2.006-0.9,2.006-2.011v-3.018h3.545c0.788,0,1.427-0.649,1.427-1.455c0-0.805-0.639-1.455-1.427-1.455h-3.545v-2.439
	L115.5,97.787z"/>
</svg>
