<?xml version="1.0" encoding="utf-8"?>
<!-- Generator: Adobe Illustrator 15.0.0, SVG Export Plug-In . SVG Version: 6.00 Build 0)  -->
<!DOCTYPE svg PUBLIC "-//W3C//DTD SVG 1.0//EN" "http://www.w3.org/TR/2001/REC-SVG-20010904/DTD/svg10.dtd">
<svg version="1.0" id="Layer_1" xmlns="http://www.w3.org/2000/svg" xmlns:xlink="http://www.w3.org/1999/xlink" x="0px" y="0px"
	 width="220px" height="227px" viewBox="0 0 220 227" enable-background="new 0 0 220 227" xml:space="preserve">
<path fill="#434343" d="M107.625,99.639c1.169-1.497,1.999-4.876,1.999-6.099c0-1.957-1.399-0.082-3.127-0.082
	c-1.729,0-3.126-2.083-3.126,0.082c0,1.243,0.854,4.714,2.057,6.171c-3.549,1.107-6.345,6.729-6.345,11.668
	c0,4.371,3.339,5.038,7.459,5.038c4.118,0,7.458-0.729,7.458-5.038C114,106.881,111.274,100.6,107.625,99.639z M109.031,106.547
	h-1.078v-1.031h-0.922v2.953h1.016v1.018h0.984v2.062h-1v0.984h-1v1.03h-1.062v-1.03h-1v-0.984h-1.016v-1.062h1.078v0.982h0.938
	v-2.938h-1.016v-0.984h-1v-2.062h1v-1.018h1.016v-1.03h1.062v1.03h1v1.018h1V106.547z"/>
</svg>
