<?xml version="1.0" encoding="utf-8"?>
<!-- Generator: Adobe Illustrator 15.0.0, SVG Export Plug-In . SVG Version: 6.00 Build 0)  -->
<!DOCTYPE svg PUBLIC "-//W3C//DTD SVG 1.0//EN" "http://www.w3.org/TR/2001/REC-SVG-20010904/DTD/svg10.dtd">
<svg version="1.0" id="Layer_1" xmlns="http://www.w3.org/2000/svg" xmlns:xlink="http://www.w3.org/1999/xlink" x="0px" y="0px"
	 width="220px" height="227px" viewBox="0 0 220 227" enable-background="new 0 0 220 227" xml:space="preserve">
<path fill="#434343" d="M121.633,99.5h-21.264c-0.756,0-1.369,0.619-1.369,1.382v16.136c0,0.766,0.613,1.384,1.369,1.384h21.264
	c0.754,0,1.367-0.618,1.367-1.384v-16.136C123,100.119,122.387,99.5,121.633,99.5z M101.955,112.727v-9.489
	c0-0.477,0.426-0.858,0.949-0.858h16.189c0.525,0,0.949,0.384,0.949,0.858v9.489c0,0.477-0.424,0.858-0.949,0.858h-16.189
	C102.381,113.585,101.955,113.201,101.955,112.727z M119.475,117.368c-0.832,0-1.51-0.705-1.51-1.572s0.678-1.571,1.51-1.571
	c0.835,0,1.512,0.704,1.512,1.571S120.31,117.368,119.475,117.368z"/>
<path fill="#434343" d="M118.179,121.712h-4.312v-2.125h-5.789v2.125h-4.132c-0.423,0-0.769,0.13-0.769,0.732
	c0,0.604,0.346,0.935,0.769,0.935h14.231c0.423,0,0.769-0.329,0.769-0.935C118.945,121.842,118.602,121.712,118.179,121.712z"/>
</svg>
