<?xml version="1.0" encoding="utf-8"?>
<!-- Generator: Adobe Illustrator 15.0.0, SVG Export Plug-In . SVG Version: 6.00 Build 0)  -->
<!DOCTYPE svg PUBLIC "-//W3C//DTD SVG 1.0//EN" "http://www.w3.org/TR/2001/REC-SVG-20010904/DTD/svg10.dtd">
<svg version="1.0" id="Layer_1" xmlns="http://www.w3.org/2000/svg" xmlns:xlink="http://www.w3.org/1999/xlink" x="0px" y="0px"
	 width="220px" height="227px" viewBox="0 0 220 227" enable-background="new 0 0 220 227" xml:space="preserve">
<path fill="#434343" d="M111.706,103.512l-0.017-0.012h-0.181c-6.337,0-11.49,5.143-11.49,11.463
	c0,6.258,5.104,11.396,11.381,11.457l0.01-0.002l0.102,0.008c6.335,0,11.489-5.143,11.489-11.463
	C123,108.727,117.943,103.617,111.706,103.512z M100.837,115.445h5.244c0.032,1.438,0.205,2.844,0.545,4.175h-4.742
	C101.271,118.345,100.906,116.931,100.837,115.445z M111.005,114.578h-4.038c0.051-1.434,0.284-2.83,0.704-4.133h3.334V114.578
	L111.005,114.578z M111.997,110.445h3.361c0.41,1.305,0.638,2.701,0.682,4.133h-4.043V110.445z M106.085,114.578h-5.246
	c0.072-1.475,0.439-2.872,1.052-4.133h4.766C106.305,111.759,106.124,113.15,106.085,114.578z M106.962,115.445h4.043v4.175h-3.365
	C107.229,118.3,107.005,116.892,106.962,115.445z M111.997,115.445h4.039c-0.051,1.447-0.283,2.854-0.702,4.175h-3.337V115.445z
	 M116.918,115.445h5.067c-0.065,1.485-0.413,2.897-0.998,4.175h-4.631C116.702,118.292,116.88,116.886,116.918,115.445z
	 M116.921,114.578c-0.032-1.426-0.203-2.817-0.542-4.133h4.594c0.593,1.263,0.942,2.66,1.014,4.133H116.921z M120.423,109.578
	h-4.348c-0.633-1.922-1.623-3.659-3.038-5.062C116.15,104.995,118.823,106.907,120.423,109.578z M114.983,109.578h-2.986v-4.562
	C113.272,106.266,114.288,107.823,114.983,109.578z M111.005,105.107v4.471h-2.953C108.745,107.858,109.75,106.338,111.005,105.107z
	 M110.091,104.505c-1.446,1.397-2.468,3.14-3.124,5.073h-4.51C104.13,106.88,106.919,104.96,110.091,104.505z M102.448,120.445
	h4.484c0.643,1.855,1.646,3.529,3.071,4.881C106.874,124.873,104.108,123.025,102.448,120.445z M108.016,120.445h2.989v4.383
	C109.728,123.627,108.711,122.131,108.016,120.445z M111.997,124.74v-4.295h2.956C114.259,122.096,113.254,123.559,111.997,124.74z
	 M112.898,125.348c1.463-1.348,2.487-3.027,3.146-4.9h4.405C118.831,123.064,116.089,124.926,112.898,125.348z"/>
</svg>
