<?xml version="1.0" encoding="utf-8"?>
<!-- Generator: Adobe Illustrator 15.0.0, SVG Export Plug-In . SVG Version: 6.00 Build 0)  -->
<!DOCTYPE svg PUBLIC "-//W3C//DTD SVG 1.0//EN" "http://www.w3.org/TR/2001/REC-SVG-20010904/DTD/svg10.dtd">
<svg version="1.0" id="Layer_1" xmlns="http://www.w3.org/2000/svg" xmlns:xlink="http://www.w3.org/1999/xlink" x="0px" y="0px"
	 width="220px" height="227px" viewBox="0 0 220 227" enable-background="new 0 0 220 227" xml:space="preserve">
<path fill="#434343" d="M116.997,121.533h-1.259c-0.894,0.395-1.84,0.682-2.84,0.812c0.399-0.369,0.763-0.77,1.1-1.186v-1.901
	c-0.568,0.914-1.23,1.755-2.001,2.479v-4.297h2.956c-0.008,0.02-0.018,0.035-0.025,0.055h1.096c0.008-0.02,0.018-0.035,0.021-0.055
	h0.952v-0.823h-0.642c0.346-1.328,0.522-2.734,0.562-4.177h5.067c-0.065,1.475-0.407,2.87-0.982,4.138v0.917h0.562
	c0.911-1.645,1.437-3.528,1.437-5.535c0-6.236-5.057-11.346-11.294-11.451l-0.017-0.012h-0.181c-6.337,0-11.488,5.143-11.488,11.463
	c0,6.258,5.104,11.396,11.378,11.457l0.011-0.002l0.102,0.008c1.985,0,3.854-0.506,5.486-1.395L116.997,121.533L116.997,121.533z
	 M121.984,111.578h-5.063c-0.032-1.426-0.204-2.817-0.542-4.133h4.594C121.562,108.708,121.915,110.105,121.984,111.578z
	 M120.423,106.578h-4.348c-0.634-1.922-1.624-3.659-3.038-5.062C116.15,101.995,118.823,103.907,120.423,106.578z M111.997,102.017
	c1.274,1.249,2.291,2.809,2.985,4.562h-2.985V102.017z M111.997,107.445h3.36c0.411,1.305,0.639,2.701,0.683,4.133h-4.043V107.445z
	 M111.997,112.445h4.039c-0.052,1.447-0.283,2.854-0.702,4.175h-3.337V112.445L111.997,112.445z M110.091,101.505
	c-1.446,1.397-2.468,3.14-3.124,5.073h-4.51C104.13,103.88,106.918,101.96,110.091,101.505z M101.891,107.445h4.766
	c-0.352,1.312-0.53,2.705-0.569,4.133h-5.246C100.911,110.104,101.278,108.706,101.891,107.445z M100.837,112.445h5.244
	c0.032,1.438,0.205,2.844,0.545,4.175h-4.742C101.271,115.345,100.906,113.931,100.837,112.445z M102.447,117.445h4.484
	c0.644,1.855,1.646,3.529,3.072,4.881C106.874,121.873,104.108,120.025,102.447,117.445z M111.005,121.828
	c-1.276-1.201-2.294-2.697-2.989-4.383h2.989V121.828z M111.005,116.62h-3.365c-0.411-1.32-0.635-2.729-0.678-4.175h4.043V116.62z
	 M111.005,111.578h-4.038c0.051-1.434,0.284-2.83,0.704-4.133h3.334V111.578z M111.005,106.578h-2.953
	c0.693-1.72,1.698-3.24,2.953-4.471V106.578z"/>
</svg>
