<?xml version="1.0" encoding="utf-8"?>
<!-- Generator: Adobe Illustrator 15.0.0, SVG Export Plug-In . SVG Version: 6.00 Build 0)  -->
<!DOCTYPE svg PUBLIC "-//W3C//DTD SVG 1.0//EN" "http://www.w3.org/TR/2001/REC-SVG-20010904/DTD/svg10.dtd">
<svg version="1.0" id="Layer_1" xmlns="http://www.w3.org/2000/svg" xmlns:xlink="http://www.w3.org/1999/xlink" x="0px" y="0px"
	 width="220px" height="227px" viewBox="0 0 220 227" enable-background="new 0 0 220 227" xml:space="preserve">
<g>
	<polygon fill="#434343" points="117.026,107.186 116.519,105.5 113.288,108.691 114.904,110.374 118.325,111.109 119.774,110.047 	
		"/>
	<path fill="#434343" d="M112.362,109.579h-7.934c-0.028,0-3.855-1.63-4.431-1.874v0.758l2.583,2.352
		c-0.336,0.414-0.571,0.857-0.571,1.201v6.445h2.369v-2.486l3.231-1.625h4.023l0.81,4.111h1.512v-7.273L112.362,109.579z"/>
	<g>
		<path fill="#434343" d="M110.062,123.312c-6.582,0-11.938-5.328-11.938-11.875c0-6.55,5.354-11.875,11.938-11.875
			c6.581,0,11.938,5.326,11.938,11.875C122,117.984,116.645,123.312,110.062,123.312z M110,101.562
			c-5.549,0-10.062,4.457-10.062,9.938s4.516,9.938,10.062,9.938s10.062-4.457,10.062-9.938S115.549,101.562,110,101.562z"/>
	</g>
	<g>
		
			<rect x="109.253" y="100.394" transform="matrix(0.9015 0.4327 -0.4327 0.9015 59.0311 -36.7461)" fill="#434343" width="2.002" height="21.872"/>
	</g>
</g>
</svg>
