<?xml version="1.0" encoding="utf-8"?>
<!-- Generator: Adobe Illustrator 15.0.0, SVG Export Plug-In . SVG Version: 6.00 Build 0)  -->
<!DOCTYPE svg PUBLIC "-//W3C//DTD SVG 1.0//EN" "http://www.w3.org/TR/2001/REC-SVG-20010904/DTD/svg10.dtd">
<svg version="1.0" id="Layer_1" xmlns="http://www.w3.org/2000/svg" xmlns:xlink="http://www.w3.org/1999/xlink" x="0px" y="0px"
	 width="220px" height="227px" viewBox="0 0 220 227" enable-background="new 0 0 220 227" xml:space="preserve">
<g>
	<rect x="100.021" y="108.543" fill="#434343" width="3.969" height="1.938"/>
	<rect x="105.021" y="108.543" fill="#434343" width="8.969" height="1.938"/>
	<path fill="#434343" d="M113.775,105.438c-0.541-0.402-1.043-0.496-1.646-0.672c-1.329-0.383-1.925-1.945-1.986-3.168
		c-0.176,0.818-0.089,1.646,0.022,2.188c0.166,0.812,0.622,1.576,1.36,1.982c0.613,0.342,1.438,0.369,2.101,0.707
		c0.639,0.324,1.17,0.764,1.362,1.037C114.989,107.512,114.643,106.09,113.775,105.438z"/>
	<path fill="#434343" d="M108.031,96.605c-6.602,0-11.969,5.357-11.969,11.945s5.369,11.949,11.969,11.949
		c6.599,0,11.969-5.359,11.969-11.947S114.631,96.605,108.031,96.605z M118.125,108.553c0,2.4-0.849,4.605-2.26,6.338
		l-14.168-14.168c1.731-1.396,3.937-2.238,6.334-2.238C113.597,98.482,118.125,102.998,118.125,108.553z M97.938,108.553
		c0-2.441,0.879-4.686,2.332-6.43l14.188,14.189c-1.746,1.441-3.986,2.311-6.427,2.311
		C102.465,118.623,97.938,114.105,97.938,108.553z"/>
</g>
</svg>
