<?xml version="1.0" encoding="utf-8"?>
<!-- Generator: Adobe Illustrator 15.0.0, SVG Export Plug-In . SVG Version: 6.00 Build 0)  -->
<!DOCTYPE svg PUBLIC "-//W3C//DTD SVG 1.0//EN" "http://www.w3.org/TR/2001/REC-SVG-20010904/DTD/svg10.dtd">
<svg version="1.0" id="Layer_1" xmlns="http://www.w3.org/2000/svg" xmlns:xlink="http://www.w3.org/1999/xlink" x="0px" y="0px"
	 width="220px" height="227px" viewBox="0 0 220 227" enable-background="new 0 0 220 227" xml:space="preserve">
<g>
	<g>
		<rect x="104.084" y="108.526" fill="#434343" width="1.854" height="1.854"/>
		<rect x="99.084" y="108.526" fill="#434343" width="1.854" height="3.854"/>
		<path fill="#434343" d="M117,103.609H97c-1.105,0-2,1.896-2,3.012v8.843c0,1.115,0.895,2.021,2,2.021h20c1.104,0,2-0.905,2-2.021
			v-8.843C119,105.506,118.104,103.609,117,103.609z M102.084,112.547h-0.979v0.979h-2.188v-0.979h-0.979v-4.188h0.979v-0.979h2.188
			v0.979h0.979V112.547z M107.084,110.547h-0.979v0.979h-2.021v2.021h-1.146v-6.188l3.17,0.021v0.979h0.979L107.084,110.547
			L107.084,110.547z M111.105,108.526h-2.021v0.854h2.021v1.146h-2.021v1.854h2.021v1.146h-2.021v0.021h-1.146v-6.188h1.146v0.021
			h2.021V108.526z M116.084,113.547h-1.146v-2.219l-1.854-1.797v4.016h-1.146v-6.188h1.146v0.312l1.854,1.797v-2.107h1.146V113.547z
			"/>
	</g>
	<path fill="#434343" d="M115.297,104.02l-7.318-5.424c0.006-0.035,0.021-0.065,0.021-0.104c0-0.548-0.447-0.992-1-0.992
		s-1,0.444-1,0.992c0,0.059,0.023,0.109,0.033,0.167l-6.42,5.476c-0.211,0.182-0.236,0.495-0.059,0.705
		c0.102,0.116,0.24,0.176,0.383,0.176c0.113,0,0.229-0.039,0.322-0.119l6.42-5.477c0.104,0.035,0.205,0.064,0.318,0.064
		c0.139,0,0.271-0.028,0.391-0.079l7.312,5.419c0.09,0.064,0.193,0.098,0.299,0.098c0.152,0,0.303-0.07,0.4-0.202
		C115.566,104.498,115.52,104.186,115.297,104.02z"/>
</g>
</svg>
