<?xml version="1.0" encoding="utf-8"?>
<!-- Generator: Adobe Illustrator 15.0.0, SVG Export Plug-In . SVG Version: 6.00 Build 0)  -->
<!DOCTYPE svg PUBLIC "-//W3C//DTD SVG 1.0//EN" "http://www.w3.org/TR/2001/REC-SVG-20010904/DTD/svg10.dtd">
<svg version="1.0" id="Layer_1" xmlns="http://www.w3.org/2000/svg" xmlns:xlink="http://www.w3.org/1999/xlink" x="0px" y="0px"
	 width="220px" height="227px" viewBox="0 0 220 227" enable-background="new 0 0 220 227" xml:space="preserve">
<g>
	<polygon fill="#434343" points="108.01,99.526 108.01,105.495 113.927,105.495 	"/>
	<path fill="#434343" d="M103.479,113.538c-1.898,0-3.438,1.543-3.438,3.447c0,1.902,1.54,3.445,3.438,3.445
		c1.897,0,3.437-1.543,3.437-3.445C106.916,115.081,105.377,113.538,103.479,113.538z M103.395,119.146
		c-1.134,0-2.053-0.927-2.053-2.065c0-1.142,0.919-2.066,2.053-2.066c1.135,0,2.055,0.927,2.055,2.066
		C105.449,118.221,104.529,119.146,103.395,119.146z"/>
	<path fill="#434343" d="M113.896,106.538h-7.042v-6.949h-9.802v20.822l1.929-1.84c-0.173-0.479-0.272-0.994-0.272-1.534
		c0-2.603,2.108-4.708,4.708-4.708c2.602,0,4.709,2.105,4.709,4.708c0,2.601-2.107,4.708-4.709,4.708
		c-0.516,0-1.008-0.09-1.47-0.248l-1.802,1.936h13.751V106.538z"/>
	<g>
		<polygon fill="#434343" points="97.979,123.474 97,122.536 99.541,119.954 100.582,120.974 		"/>
	</g>
</g>
</svg>
