<?xml version="1.0" encoding="utf-8"?>
<!-- Generator: Adobe Illustrator 15.0.0, SVG Export Plug-In . SVG Version: 6.00 Build 0)  -->
<!DOCTYPE svg PUBLIC "-//W3C//DTD SVG 1.0//EN" "http://www.w3.org/TR/2001/REC-SVG-20010904/DTD/svg10.dtd">
<svg version="1.0" id="Layer_1" xmlns="http://www.w3.org/2000/svg" xmlns:xlink="http://www.w3.org/1999/xlink" x="0px" y="0px"
	 width="220px" height="227px" viewBox="0 0 220 227" enable-background="new 0 0 220 227" xml:space="preserve">
<g>
	<polygon fill="#434343" points="108.041,101.533 108.041,109.47 114.917,109.47 	"/>
	<rect x="100.037" y="115.559" fill="#434343" width="1.9" height="3.916"/>
	<rect x="105.016" y="115.559" fill="#434343" width="1.922" height="3.929"/>
	<path fill="#434343" d="M106.938,110.599v-9.064H96.042v23.885h18.927V110.6L106.938,110.599L106.938,110.599z M102.016,119.531
		v1.031h-3.078v-6.123l3.102,0.016v0.979h0.994l0.021,4.098H102.016L102.016,119.531z M108.037,119.528h-1.006v1.015h-2.062v-1.015
		h-1v-4.077h1v-1.006h2.062v1.006h1.006V119.528z M112.031,115.51h-2.01v3.959h2.01v1.074h-2.078v-1.012h-1.016v-4.11h1.016v-0.961
		h2.078V115.51z"/>
</g>
</svg>
