<?xml version="1.0" encoding="utf-8"?>
<!-- Generator: Adobe Illustrator 15.0.0, SVG Export Plug-In . SVG Version: 6.00 Build 0)  -->
<!DOCTYPE svg PUBLIC "-//W3C//DTD SVG 1.0//EN" "http://www.w3.org/TR/2001/REC-SVG-20010904/DTD/svg10.dtd">
<svg version="1.0" id="Layer_1" xmlns="http://www.w3.org/2000/svg" xmlns:xlink="http://www.w3.org/1999/xlink" x="0px" y="0px"
	 width="220px" height="227px" viewBox="0 0 220 227" enable-background="new 0 0 220 227" xml:space="preserve">
<g>
	<path fill="#434343" d="M110.926,100.562h-9.801v23.844h17.844V107.51h-8.043V100.562L110.926,100.562z M115.26,117.844
		c0,0.551-0.145,0.831-0.432,0.831c-0.307,0.001-0.523-0.382-0.564-0.459c-0.775-1.442-3.064-2.669-5.037-2.707v1.886l-0.059,0.061
		c-0.145,0.146-0.377,0.23-0.641,0.23c-0.234,0-0.455-0.066-0.592-0.18l-2.822-2.93c-0.305-0.312-0.305-0.82,0-1.133l2.809-2.856
		c0.158-0.161,0.408-0.259,0.67-0.259c0.234,0,0.439,0.078,0.576,0.219l0.059,0.061v1.863
		C112.033,112.511,115.26,114.844,115.26,117.844z"/>
	<polygon fill="#434343" points="112.082,100.5 112.082,106.469 119,106.469 	"/>
</g>
</svg>
