<?xml version="1.0" encoding="utf-8"?>
<!-- Generator: Adobe Illustrator 15.0.0, SVG Export Plug-In . SVG Version: 6.00 Build 0)  -->
<!DOCTYPE svg PUBLIC "-//W3C//DTD SVG 1.0//EN" "http://www.w3.org/TR/2001/REC-SVG-20010904/DTD/svg10.dtd">
<svg version="1.0" id="Layer_1" xmlns="http://www.w3.org/2000/svg" xmlns:xlink="http://www.w3.org/1999/xlink" x="0px" y="0px"
	 width="220px" height="227px" viewBox="0 0 220 227" enable-background="new 0 0 220 227" xml:space="preserve">
<g>
	<g>
		<path fill="#434343" d="M114.984,126.748c-2.306,0.898-6.109,2.396-6.512,2.595c-0.207,0.105-0.43,0.157-0.664,0.157
			c-0.542,0-1.064-0.289-1.399-0.771c-0.321-0.465-0.402-1.039-0.215-1.534c0.142-0.379,1.462-4.292,2.312-6.829l0.084-0.248
			l6.593-6.604h-3.258v-6.948h-9.802v23.845h16.844v-7.523l-3.767,3.781L114.984,126.748z"/>
		<polygon fill="#434343" points="113.083,106.5 113.083,112.344 116.351,112.344 117.666,111.025 		"/>
		<path fill="#434343" d="M123.527,114.294l-2.225-2.205c-0.596-0.595-1.765-0.843-2.33-0.277l-8.768,8.783
			c0,0-1.914,5.699-2.095,6.18c-0.146,0.382,0.334,0.859,0.667,0.691c0.541-0.271,5.943-2.374,5.943-2.374l8.792-8.827
			C124.083,115.698,124.122,114.888,123.527,114.294z M109.434,125.059l1.516-4.058l8.477-8.668
			c0.143-0.205,0.812,0.222,1.116,0.524l-8.504,8.476l0.007,1.203l0.993,0.006l8.624-8.521l0.84,0.825l-8.826,8.859l-0.012,0.287
			l0.539,0.54l-3.652,1.54L109.434,125.059z"/>
	</g>
</g>
</svg>
