<?xml version="1.0" encoding="utf-8"?>
<!-- Generator: Adobe Illustrator 15.0.0, SVG Export Plug-In . SVG Version: 6.00 Build 0)  -->
<!DOCTYPE svg PUBLIC "-//W3C//DTD SVG 1.0//EN" "http://www.w3.org/TR/2001/REC-SVG-20010904/DTD/svg10.dtd">
<svg version="1.0" id="Layer_1" xmlns="http://www.w3.org/2000/svg" xmlns:xlink="http://www.w3.org/1999/xlink" x="0px" y="0px"
	 width="220px" height="227px" viewBox="0 0 220 227" enable-background="new 0 0 220 227" xml:space="preserve">
<g>
	<path fill="#434343" d="M119.08,123.64c0,0.791-0.875,1.434-1.959,1.434l0,0c-1.082,0-1.957-0.643-1.957-1.434v-21.072
		c0-0.791,0.875-1.434,1.957-1.434l0,0c1.084,0,1.959,0.643,1.959,1.434V123.64z"/>
	<path fill="#434343" d="M109.08,123.64c0,0.791-0.875,1.434-1.959,1.434l0,0c-1.082,0-1.957-0.643-1.957-1.434v-21.072
		c0-0.791,0.875-1.434,1.957-1.434l0,0c1.084,0,1.959,0.643,1.959,1.434V123.64z"/>
</g>
</svg>
