<?xml version="1.0" encoding="utf-8"?>
<!-- Generator: Adobe Illustrator 15.0.0, SVG Export Plug-In . SVG Version: 6.00 Build 0)  -->
<!DOCTYPE svg PUBLIC "-//W3C//DTD SVG 1.0//EN" "http://www.w3.org/TR/2001/REC-SVG-20010904/DTD/svg10.dtd">
<svg version="1.0" id="Layer_1" xmlns="http://www.w3.org/2000/svg" xmlns:xlink="http://www.w3.org/1999/xlink" x="0px" y="0px"
	 width="220px" height="227px" viewBox="0 0 220 227" enable-background="new 0 0 220 227" xml:space="preserve">
<path fill="#434343" d="M104.916,114.625h-5.977v-3.25c0-0.483-0.436-0.875-0.969-0.875c-0.529,0-0.965,0.392-0.965,0.875v3.558
	c-0.578,0.354-0.966,0.979-0.966,1.692v15.75c0,1.105,0.913,2,2.042,2h6.832c1.129,0,2.042-0.895,2.042-2v-15.75
	C106.958,115.521,106.045,114.625,104.916,114.625z M99.027,130.521h-1.1v-1.096h1.1V130.521z M99.027,128.521h-1.1v-1.096h1.1
	V128.521z M99.027,126.521h-1.1v-1.096h1.1V126.521z M102.054,130.521h-1.056v-1.096h1.056V130.521z M102.054,128.521h-1.056v-1.096
	h1.056V128.521z M102.054,126.521h-1.056v-1.096h1.056V126.521z M105.123,130.521h-1.181v-1.096h1.181V130.521z M99.027,132.521
	h-1.1v-1.096h1.1V132.521z M102.054,132.521h-1.056v-1.096h1.056V132.521z M105.123,132.521h-1.181v-1.096h1.181V132.521z
	 M105.123,128.521h-1.181v-1.096h1.181V128.521z M105.123,126.521h-1.181v-1.096h1.181V126.521z M105.062,123.521h-7.164v-7.125
	h7.164V123.521z"/>
</svg>
