<?xml version="1.0" encoding="utf-8"?>
<!-- Generator: Adobe Illustrator 15.0.0, SVG Export Plug-In . SVG Version: 6.00 Build 0)  -->
<!DOCTYPE svg PUBLIC "-//W3C//DTD SVG 1.0//EN" "http://www.w3.org/TR/2001/REC-SVG-20010904/DTD/svg10.dtd">
<svg version="1.0" id="Layer_1" xmlns="http://www.w3.org/2000/svg" xmlns:xlink="http://www.w3.org/1999/xlink" x="0px" y="0px"
	 width="220px" height="227px" viewBox="0 0 220 227" enable-background="new 0 0 220 227" xml:space="preserve">
<g>
	<path fill="#434343" d="M91.944,110.48h2.015c0,0,1.951,0.396,2.011-1.919h-5.914C90.056,110.731,91.944,110.48,91.944,110.48z"/>
	<path fill="#434343" d="M113,107.417c0-5.086-8.875-4.916-11.987-4.916c-3.108,0-10.987-0.128-10.987,4.959h5.938
		c0.001-0.037,0.006-1.402,0.006-1.086c0-0.585,1.432-1.014,1.961-1.014h7.25c0.527,0,1.898,0.429,1.898,1.014l0,0
		c0,0.205,0.012,1.047,0.013,1.086H113C112.998,107.444,113,107.433,113,107.417z"/>
	<path fill="#434343" d="M107.068,108.562c0.069,2.063,2.021,1.918,2.021,1.918h1.989c0,0,1.919,0.021,1.919-1.918H107.068z"/>
	<path fill="#434343" d="M97.969,115.534c0,0.528-0.428,0.957-0.956,0.957h-1.046c-0.527,0-0.956-0.43-0.956-0.957v-1.045
		c0-0.529,0.428-0.957,0.956-0.957h1.046c0.528,0,0.956,0.428,0.956,0.957V115.534z"/>
	<path fill="#434343" d="M107.969,115.534c0,0.528-0.428,0.957-0.956,0.957h-1.046c-0.527,0-0.956-0.43-0.956-0.957v-1.045
		c0-0.529,0.428-0.957,0.956-0.957h1.046c0.528,0,0.956,0.428,0.956,0.957V115.534z"/>
	<path fill="#434343" d="M102.969,115.534c0,0.528-0.428,0.957-0.956,0.957h-1.046c-0.527,0-0.956-0.43-0.956-0.957v-1.045
		c0-0.529,0.428-0.957,0.956-0.957h1.046c0.528,0,0.956,0.428,0.956,0.957V115.534z"/>
	<path fill="#434343" d="M97.969,120.534c0,0.528-0.428,0.957-0.956,0.957h-1.046c-0.527,0-0.956-0.43-0.956-0.957v-1.045
		c0-0.529,0.428-0.957,0.956-0.957h1.046c0.528,0,0.956,0.428,0.956,0.957V120.534z"/>
	<path fill="#434343" d="M107.969,120.534c0,0.528-0.428,0.957-0.956,0.957h-1.046c-0.527,0-0.956-0.43-0.956-0.957v-1.045
		c0-0.529,0.428-0.957,0.956-0.957h1.046c0.528,0,0.956,0.428,0.956,0.957V120.534z"/>
	<path fill="#434343" d="M102.969,120.534c0,0.528-0.428,0.957-0.956,0.957h-1.046c-0.527,0-0.956-0.43-0.956-0.957v-1.045
		c0-0.529,0.428-0.957,0.956-0.957h1.046c0.528,0,0.956,0.428,0.956,0.957V120.534z"/>
	<path fill="#434343" d="M97.969,125.534c0,0.528-0.428,0.957-0.956,0.957h-1.046c-0.527,0-0.956-0.43-0.956-0.957v-1.045
		c0-0.529,0.428-0.957,0.956-0.957h1.046c0.528,0,0.956,0.428,0.956,0.957V125.534z"/>
	<path fill="#434343" d="M107.969,125.534c0,0.528-0.428,0.957-0.956,0.957h-1.046c-0.527,0-0.956-0.43-0.956-0.957v-1.045
		c0-0.529,0.428-0.957,0.956-0.957h1.046c0.528,0,0.956,0.428,0.956,0.957V125.534z"/>
	<path fill="#434343" d="M102.969,125.534c0,0.528-0.428,0.957-0.956,0.957h-1.046c-0.527,0-0.956-0.43-0.956-0.957v-1.045
		c0-0.529,0.428-0.957,0.956-0.957h1.046c0.528,0,0.956,0.428,0.956,0.957V125.534z"/>
</g>
</svg>
