<?xml version="1.0" encoding="utf-8"?>
<!-- Generator: Adobe Illustrator 15.0.0, SVG Export Plug-In . SVG Version: 6.00 Build 0)  -->
<!DOCTYPE svg PUBLIC "-//W3C//DTD SVG 1.0//EN" "http://www.w3.org/TR/2001/REC-SVG-20010904/DTD/svg10.dtd">
<svg version="1.0" id="Layer_1" xmlns="http://www.w3.org/2000/svg" xmlns:xlink="http://www.w3.org/1999/xlink" x="0px" y="0px"
	 width="220px" height="227px" viewBox="0 0 220 227" enable-background="new 0 0 220 227" xml:space="preserve">
<g>
	<path fill="#434343" d="M118.777,128.669c0.531-1.242-0.625-2.539-1.27-3.353c-0.642-0.812-1.685-1.983-2.578-2.094
		c-0.541-0.066-1.169,0.383-1.781,0.809l4.689,5.93C118.252,129.584,118.56,129.18,118.777,128.669z M106.516,112.587
		c0.112-0.879-0.787-2.161-1.43-2.972c-0.643-0.812-1.638-2.234-2.992-2.034c-0.558,0.083-1.031,0.274-1.506,0.573l4.69,5.931
		C105.85,113.604,106.448,113.118,106.516,112.587z M112.339,124.537c-0.12,0.061-0.237,0.107-0.351,0.14
		c-0.597,0.171-1.863,0.22-2.63-0.481c-0.737-0.674-1.904-1.926-2.851-3.072c-0.896-1.182-1.844-2.602-2.326-3.469
		c-0.503-0.903-0.143-2.1,0.172-2.623c0.062-0.102,0.139-0.2,0.228-0.301l-4.756-6.01c-0.091,0.076-0.183,0.153-0.274,0.237
		c-0.879,0.783-2.202,2.625-1.18,5.939c0.759,2.461,2.379,5.356,4.584,8.281l-0.013,0.01c0.107,0.141,0.221,0.27,0.332,0.406
		c0.104,0.139,0.208,0.276,0.315,0.415l0.016-0.011c2.34,2.82,4.797,5.079,7.035,6.408c3.02,1.792,5.16,0.984,6.15,0.342
		c0.104-0.068,0.204-0.135,0.301-0.201L112.339,124.537z"/>
</g>
</svg>
