<?xml version="1.0" encoding="utf-8"?>
<!-- Generator: Adobe Illustrator 15.0.0, SVG Export Plug-In . SVG Version: 6.00 Build 0)  -->
<!DOCTYPE svg PUBLIC "-//W3C//DTD SVG 1.0//EN" "http://www.w3.org/TR/2001/REC-SVG-20010904/DTD/svg10.dtd">
<svg version="1.0" id="Layer_1" xmlns="http://www.w3.org/2000/svg" xmlns:xlink="http://www.w3.org/1999/xlink" x="0px" y="0px"
	 width="220px" height="227px" viewBox="0 0 220 227" enable-background="new 0 0 220 227" xml:space="preserve">
<g>
	<path fill="#434343" d="M98.974,115.511c-2.341,0.123-4.479,1-6.17,2.41l0.695,0.695c1.512-1.225,3.407-1.986,5.475-2.102V115.511z
		"/>
	<path fill="#434343" d="M98.974,117.517c-1.792,0.109-3.436,0.77-4.762,1.812l4.762,4.763V117.517z"/>
	<path fill="#434343" d="M98.196,124.993l-4.865-4.863c-1.334,1.392-2.195,3.229-2.339,5.262h6.981
		C98.03,125.247,98.104,125.116,98.196,124.993z"/>
	<path fill="#434343" d="M91.938,118.737c-1.673,1.751-2.737,4.078-2.884,6.652h0.938c0.146-2.31,1.118-4.396,2.633-5.969
		L91.938,118.737z"/>
	<path fill="#434343" d="M105.836,116.358c-1.331-1.062-2.986-1.729-4.79-1.844v6.561L105.836,116.358z"/>
	<path fill="#434343" d="M107.271,114.944c-1.7-1.415-3.86-2.307-6.228-2.444v1.017c2.084,0.117,3.993,0.893,5.51,2.135
		L107.271,114.944z"/>
	<path fill="#434343" d="M89.055,126.58c0.13,2.347,1.022,4.487,2.446,6.173l0.682-0.682c-1.266-1.507-2.061-3.41-2.188-5.491
		H89.055z"/>
	<path fill="#434343" d="M90.992,126.58c0.126,1.806,0.812,3.46,1.897,4.782l4.782-4.782H90.992z"/>
	<path fill="#434343" d="M92.322,133.614c1.755,1.657,4.079,2.713,6.649,2.848v-1c-2.3-0.127-4.382-1.062-5.966-2.534
		L92.322,133.614z"/>
	<path fill="#434343" d="M98.58,127.355l-4.865,4.864c1.401,1.29,3.233,2.116,5.259,2.24v-6.91
		C98.833,127.502,98.701,127.438,98.58,127.355z"/>
	<path fill="#434343" d="M101.422,126.58l4.743,4.721c1.059-1.312,1.729-2.941,1.853-4.721H101.422z"/>
	<path fill="#434343" d="M107.581,132.71c1.408-1.679,2.286-3.805,2.419-6.13h-0.982c-0.127,2.054-0.9,3.935-2.138,5.432
		L107.581,132.71z"/>
	<path fill="#434343" d="M100.069,136.457c2.597-0.153,4.938-1.218,6.707-2.882l-0.715-0.703c-1.583,1.496-3.679,2.453-5.992,2.589
		V136.457L100.069,136.457z"/>
	<path fill="#434343" d="M100.069,127.526v6.935c2.039-0.134,3.881-0.978,5.28-2.291l-4.921-4.853
		C100.318,127.4,100.199,127.473,100.069,127.526z"/>
	<path fill="#434343" d="M109.969,125.423c-0.144-2.651-1.188-5.049-2.837-6.86l-0.783,0.815c1.552,1.584,2.54,3.701,2.673,6.045
		H109.969L109.969,125.423z"/>
	<path fill="#434343" d="M101.078,125.423h6.943c-0.132-2.061-1.006-3.923-2.364-5.324l-4.761,4.959
		C100.972,125.169,101.031,125.294,101.078,125.423z"/>
</g>
</svg>
