<?xml version="1.0" encoding="utf-8"?>
<!-- Generator: Adobe Illustrator 15.0.0, SVG Export Plug-In . SVG Version: 6.00 Build 0)  -->
<!DOCTYPE svg PUBLIC "-//W3C//DTD SVG 1.0//EN" "http://www.w3.org/TR/2001/REC-SVG-20010904/DTD/svg10.dtd">
<svg version="1.0" id="Layer_1" xmlns="http://www.w3.org/2000/svg" xmlns:xlink="http://www.w3.org/1999/xlink" x="0px" y="0px"
	 width="220px" height="227px" viewBox="0 0 220 227" enable-background="new 0 0 220 227" xml:space="preserve">
<g>
	<rect x="92.441" y="114.338" fill="#434343" width="1.958" height="2"/>
	<path fill="#434343" d="M94.252,118.404c0,0.566,0.722,4.893-0.817,4.893c-1.54,0-0.817-4.325-0.817-4.893
		c0-0.566,0.366-1.025,0.817-1.025S94.252,117.838,94.252,118.404z"/>
	<path fill="#434343" d="M92.65,112.272c0-0.567-0.703-4.893,0.804-4.893s0.8,4.325,0.8,4.893c0,0.566-0.356,1.025-0.8,1.025
		S92.65,112.838,92.65,112.272z"/>
	<polygon fill="#434343" points="116.316,113.338 113.483,113.338 114.483,109.38 116.316,109.38 	"/>
	<polygon fill="#434343" points="116.316,117.38 113.483,117.38 114.483,121.338 116.316,121.338 	"/>
	<path fill="#434343" d="M97.595,112.379c-1.167,0-2.111,1.324-2.111,2.959s0.944,2.959,2.111,2.959
		c1.166,0,18.805-1.324,18.805-2.959S98.761,112.379,97.595,112.379z M101.247,116.629c-1.48,0-2.686-0.559-2.686-1.249
		s1.203-1.251,2.686-1.251c1.483,0,2.688,0.561,2.688,1.251C103.933,116.07,102.73,116.629,101.247,116.629z"/>
	<path fill="#434343" d="M104.377,115.666c0.075-0.102,0.127-0.206,0.127-0.317c0-0.11-0.052-0.216-0.125-0.315
		c0,0.07,0,0.141,0,0.212C104.379,115.387,104.377,115.525,104.377,115.666z"/>
	<path fill="#434343" d="M98.49,119.678c0.137,5.145,0.698,7.619,2.454,7.619c1.81,0,2.354-2.711,2.467-8.1
		C100.912,119.502,98.494,119.678,98.49,119.678z"/>
	<path fill="#434343" d="M103.415,111.479c-0.105-5.432-0.651-8.141-2.471-8.141c-1.764,0-2.327,2.475-2.457,7.665L98.5,111
		C98.838,111,100.914,111.177,103.415,111.479z"/>
</g>
</svg>
