<?xml version="1.0" encoding="utf-8"?>
<!-- Generator: Adobe Illustrator 15.0.0, SVG Export Plug-In . SVG Version: 6.00 Build 0)  -->
<!DOCTYPE svg PUBLIC "-//W3C//DTD SVG 1.0//EN" "http://www.w3.org/TR/2001/REC-SVG-20010904/DTD/svg10.dtd">
<svg version="1.0" id="Layer_1" xmlns="http://www.w3.org/2000/svg" xmlns:xlink="http://www.w3.org/1999/xlink" x="0px" y="0px"
	 width="220px" height="227px" viewBox="0 0 220 227" enable-background="new 0 0 220 227" xml:space="preserve">
<g>
	<ellipse fill="#434343" cx="106.953" cy="113.553" rx="1.938" ry="1.908"/>
	<path fill="#434343" d="M100.667,106.562c1.184,1.315,1.969,2.575,1.757,2.812s-1.343-0.639-2.524-1.956
		c-1.185-1.317-1.972-2.577-1.759-2.812C98.354,104.369,99.484,105.245,100.667,106.562z"/>
	<path fill="#434343" d="M114.07,107.419c-1.186,1.317-2.315,2.193-2.526,1.956c-0.213-0.236,0.573-1.495,1.757-2.812
		c1.185-1.316,2.313-2.191,2.525-1.955C116.039,104.842,115.252,106.102,114.07,107.419z"/>
	<path fill="#434343" d="M103.953,123.73c0,0.406-0.419,0.736-0.938,0.736l0,0c-0.519,0-0.938-0.33-0.938-0.736v-1.419
		c0-0.405,0.419-0.735,0.938-0.735l0,0c0.521,0,0.938,0.33,0.938,0.735V123.73z"/>
	<path fill="#434343" d="M111.953,123.73c0,0.406-0.436,0.736-0.969,0.736l0,0c-0.535,0-0.971-0.33-0.971-0.736v-1.419
		c0-0.405,0.436-0.735,0.971-0.735l0,0c0.533,0,0.969,0.33,0.969,0.735V123.73z"/>
	<path fill="#434343" d="M118.933,103.93c0,0.775-0.851,1.404-1.898,1.404H97.085c-1.05,0-1.9-0.629-1.9-1.404l0,0
		c0,0-0.292-0.396,1.9-0.396h19.949C119.078,103.531,118.933,103.93,118.933,103.93L118.933,103.93z"/>
	<path fill="#434343" d="M107.112,109.985c2.247,0,3.241,1.429,3.241,1.429h3.604c-0.836-2.814-3.615-4.885-6.923-4.885
		c-3.311,0-6.087,2.068-6.923,4.885h3.757C103.87,111.414,104.865,109.985,107.112,109.985z"/>
	<path fill="#434343" d="M107.097,117.131c-2.55,0-3.249-1.521-3.249-1.521h-3.761c0.845,2.791,3.625,4.843,6.933,4.843
		c3.311,0,6.091-2.052,6.936-4.843h-3.607C110.346,115.607,109.646,117.131,107.097,117.131z"/>
	<path fill="#434343" d="M103.891,114.41c0,0-6.875,0.324-6.875-0.781c0-1.104,6.875-1.041,6.875-1.041V114.41z"/>
	<path fill="#434343" d="M110.078,112.65c0,0,6.812-0.188,6.812,0.881c0,1.067-6.812,0.881-6.812,0.881V112.65z"/>
</g>
</svg>
