<?xml version="1.0" encoding="utf-8"?>
<!-- Generator: Adobe Illustrator 15.0.0, SVG Export Plug-In . SVG Version: 6.00 Build 0)  -->
<!DOCTYPE svg PUBLIC "-//W3C//DTD SVG 1.0//EN" "http://www.w3.org/TR/2001/REC-SVG-20010904/DTD/svg10.dtd">
<svg version="1.0" id="Layer_1" xmlns="http://www.w3.org/2000/svg" xmlns:xlink="http://www.w3.org/1999/xlink" x="0px" y="0px"
	 width="220px" height="227px" viewBox="0 0 220 227" enable-background="new 0 0 220 227" xml:space="preserve">
<g>
	<rect x="106.031" y="84.5" fill="#434343" width="1.834" height="10.938"/>
	<path fill="#434343" d="M111.907,87.469c0,0.488-0.409,0.885-0.914,0.885h-3.047c-0.505,0-0.915-0.396-0.915-0.885l0,0
		c0-0.488,0.41-0.885,0.915-0.885h3.047C111.498,86.584,111.907,86.98,111.907,87.469L111.907,87.469z"/>
	<path fill="#434343" d="M111.907,92.469c0,0.488-0.409,0.885-0.914,0.885h-3.047c-0.505,0-0.915-0.396-0.915-0.885l0,0
		c0-0.488,0.41-0.885,0.915-0.885h3.047C111.498,91.584,111.907,91.98,111.907,92.469L111.907,92.469z"/>
	<polygon fill="#434343" points="104.99,95.438 96.031,92.438 96.031,87.5 104.99,84.5 	"/>
	<rect x="88" y="88.625" fill="#434343" width="8.031" height="2.709"/>
</g>
</svg>
