<?xml version="1.0" encoding="utf-8"?>
<!-- Generator: Adobe Illustrator 15.0.0, SVG Export Plug-In . SVG Version: 6.00 Build 0)  -->
<!DOCTYPE svg PUBLIC "-//W3C//DTD SVG 1.0//EN" "http://www.w3.org/TR/2001/REC-SVG-20010904/DTD/svg10.dtd">
<svg version="1.0" id="Layer_1" xmlns="http://www.w3.org/2000/svg" xmlns:xlink="http://www.w3.org/1999/xlink" x="0px" y="0px"
	 width="220px" height="227px" viewBox="0 0 220 227" enable-background="new 0 0 220 227" xml:space="preserve">
<g>
	<rect x="112.236" y="125.188" fill="#434343" width="0.953" height="0.969"/>
	<rect x="104.237" y="108.219" fill="#434343" width="0.965" height="0.928"/>
	<path fill="#434343" d="M113.727,105.188h-10.082c-1.33,0-2.412,1.097-2.412,2.444v19.101c0,1.348,1.082,2.445,2.412,2.445h10.082
		c1.33,0,2.412-1.1,2.412-2.445v-19.101C116.139,106.284,115.057,105.188,113.727,105.188z M104.249,110.225v0.963h-1.074v-3.047
		h1.039v-0.984h1.055v0.984h1v3.047h-1.057v-0.963H104.249z M108.762,120.334c0,0-3.559-1.521-3.559-4.479
		c0-1.022,0.807-1.854,1.801-1.854c0.857,0,1.57,0.613,1.756,1.437c0.178-0.821,0.887-1.437,1.74-1.437
		c0.984,0,1.783,0.822,1.783,1.838C112.283,118.85,108.762,120.334,108.762,120.334z M114.242,126.188h-0.993v1.031h-1.048v-1.031
		h-1.02v-3.047h1.057v1.006h0.953v-1.006h1.053v3.047H114.242z"/>
</g>
</svg>
