<?xml version="1.0" encoding="utf-8"?>
<!-- Generator: Adobe Illustrator 15.0.0, SVG Export Plug-In . SVG Version: 6.00 Build 0)  -->
<!DOCTYPE svg PUBLIC "-//W3C//DTD SVG 1.0//EN" "http://www.w3.org/TR/2001/REC-SVG-20010904/DTD/svg10.dtd">
<svg version="1.0" id="Layer_1" xmlns="http://www.w3.org/2000/svg" xmlns:xlink="http://www.w3.org/1999/xlink" x="0px" y="0px"
	 width="220px" height="227px" viewBox="0 0 220 227" enable-background="new 0 0 220 227" xml:space="preserve">
<g>
	<path fill="none" stroke="#434343" stroke-width="2" stroke-linecap="round" stroke-linejoin="round" stroke-miterlimit="10" d="
		M101.062,120.543c0,0,2.156,2.156,4.969,0c2.812-2.156,5.969,0,5.969,0s3.125,2.125,6.031,0s4.906,0,4.906,0"/>
	<path fill="none" stroke="#434343" stroke-width="2" stroke-linecap="round" stroke-linejoin="round" stroke-miterlimit="10" d="
		M101.062,124.543c0,0,2.156,2.156,4.969,0c2.812-2.156,5.969,0,5.969,0s3.125,2.125,6.031,0s4.906,0,4.906,0"/>
	<path fill="none" stroke="#434343" stroke-width="2" stroke-linecap="round" stroke-linejoin="round" stroke-miterlimit="10" d="
		M101.062,128.543c0,0,2.156,2.156,4.969,0c2.812-2.156,5.969,0,5.969,0s3.125,2.125,6.031,0s4.906,0,4.906,0"/>
	<path fill="none" stroke="#434343" stroke-width="2" stroke-linecap="round" stroke-linejoin="round" stroke-miterlimit="10" d="
		M100.969,110.552c0-0.558,0.825-1.009,1.844-1.009h0.344c1.019,0,1.844,0.451,1.844,1.009v9.585"/>
	<path fill="none" stroke="#434343" stroke-width="2" stroke-linecap="round" stroke-linejoin="round" stroke-miterlimit="10" d="
		M108.969,110.552c0-0.558,0.825-1.009,1.844-1.009h0.346c1.019,0,1.844,0.451,1.844,1.009v9.585"/>
	
		<line fill="none" stroke="#434343" stroke-width="2" stroke-linecap="round" stroke-linejoin="round" stroke-miterlimit="10" x1="104.875" y1="113.605" x2="112.625" y2="113.605"/>
	
		<line fill="none" stroke="#434343" stroke-width="2" stroke-linecap="round" stroke-linejoin="round" stroke-miterlimit="10" x1="104.875" y1="116.605" x2="112.625" y2="116.605"/>
</g>
</svg>
