<?xml version="1.0" encoding="utf-8"?>
<!-- Generator: Adobe Illustrator 15.0.0, SVG Export Plug-In . SVG Version: 6.00 Build 0)  -->
<!DOCTYPE svg PUBLIC "-//W3C//DTD SVG 1.0//EN" "http://www.w3.org/TR/2001/REC-SVG-20010904/DTD/svg10.dtd">
<svg version="1.0" id="Layer_1" xmlns="http://www.w3.org/2000/svg" xmlns:xlink="http://www.w3.org/1999/xlink" x="0px" y="0px"
	 width="220px" height="227px" viewBox="0 0 220 227" enable-background="new 0 0 220 227" xml:space="preserve">
<g>
	<path fill="#434343" d="M118,101.5c-6.627,0-12,5.33-12,11.906c0,6.571,5.373,11.903,12,11.903s12-5.332,12-11.903
		C130,106.83,124.627,101.5,118,101.5z M116.512,119.438c-4.119,0-7.459-3.35-7.459-7.479c0-4.13,3.34-7.479,7.459-7.479
		c4.123,0,7.463,3.35,7.463,7.479S120.635,119.438,116.512,119.438z"/>
	<g>
		<path fill="#434343" d="M113.816,108.876c0-1.362,1.252-2.354,2.693-2.354c1.443,0,2.684,0.991,2.684,2.354
			c0,0.851-0.439,1.46-1.005,1.844c1.046,0.454,1.802,1.334,1.802,2.581c0,1.816-1.443,3.121-3.479,3.121
			c-2.033,0-3.492-1.305-3.492-3.121c0-1.247,0.758-2.127,1.803-2.581C114.256,110.336,113.816,109.74,113.816,108.876z
			 M118.49,113.259c0-1.05-0.812-1.803-1.979-1.803c-1.17,0-1.994,0.753-1.994,1.803c0,1.092,0.824,1.815,1.994,1.815
			C117.68,115.074,118.49,114.308,118.49,113.259z M117.984,108.942c0-0.921-0.627-1.541-1.504-1.541
			c-0.896,0-1.521,0.62-1.521,1.541c0,0.883,0.625,1.502,1.521,1.502C117.357,110.444,117.984,109.825,117.984,108.942z"/>
	</g>
</g>
</svg>
