<?xml version="1.0" encoding="utf-8"?>
<!-- Generator: Adobe Illustrator 15.0.0, SVG Export Plug-In . SVG Version: 6.00 Build 0)  -->
<!DOCTYPE svg PUBLIC "-//W3C//DTD SVG 1.0//EN" "http://www.w3.org/TR/2001/REC-SVG-20010904/DTD/svg10.dtd">
<svg version="1.0" id="Layer_1" xmlns="http://www.w3.org/2000/svg" xmlns:xlink="http://www.w3.org/1999/xlink" x="0px" y="0px"
	 width="220px" height="227px" viewBox="0 0 220 227" enable-background="new 0 0 220 227" xml:space="preserve">
<g>
	<path fill="#434343" d="M106.047,93.639v3.42c2.852,1.143,4.715,4.023,4.715,7.295c0,4.29-3.461,7.767-7.729,7.767
		c-4.269,0-7.729-3.477-7.729-7.767c0-3.271,1.724-6.066,4.572-7.21v-3.419c-4.667,1.267-7.812,5.539-7.812,10.629
		c0,6.088,4.91,11.021,10.969,11.021s10.969-4.934,10.969-11.021C114,99.264,110.714,94.906,106.047,93.639z"/>
	<path fill="#434343" d="M104.928,102.653c0,0.974-0.868,1.762-1.938,1.762l0,0c-1.069,0-1.938-0.788-1.938-1.762v-9.31
		c0-0.973,0.867-1.762,1.938-1.762l0,0c1.067,0,1.938,0.789,1.938,1.762V102.653z"/>
</g>
</svg>
