<?xml version="1.0" encoding="utf-8"?>
<!-- Generator: Adobe Illustrator 15.0.0, SVG Export Plug-In . SVG Version: 6.00 Build 0)  -->
<!DOCTYPE svg PUBLIC "-//W3C//DTD SVG 1.0//EN" "http://www.w3.org/TR/2001/REC-SVG-20010904/DTD/svg10.dtd">
<svg version="1.0" id="Layer_1" xmlns="http://www.w3.org/2000/svg" xmlns:xlink="http://www.w3.org/1999/xlink" x="0px" y="0px"
	 width="220px" height="227px" viewBox="0 0 220 227" enable-background="new 0 0 220 227" xml:space="preserve">
<g>
	<rect x="103.499" y="102.104" fill="#434343" width="9.709" height="4.834"/>
	<rect x="102.396" y="89.125" fill="#434343" width="11.831" height="3.896"/>
	<path fill="#434343" d="M96.458,94.111v9.765h5.771V101H114.5v2.876h5.732v-9.765H96.458z M99.198,98.535
		c-0.737,0-1.331-0.621-1.331-1.389c0-0.769,0.594-1.391,1.331-1.391c0.732,0,1.328,0.622,1.328,1.391
		C100.526,97.914,99.933,98.535,99.198,98.535z M103.257,98.576c-0.771,0-1.394-0.631-1.394-1.409s0.623-1.41,1.394-1.41
		s1.393,0.632,1.393,1.41C104.648,97.945,104.025,98.576,103.257,98.576z"/>
</g>
</svg>
