<?xml version="1.0" encoding="utf-8"?>
<!-- Generator: Adobe Illustrator 15.0.0, SVG Export Plug-In . SVG Version: 6.00 Build 0)  -->
<!DOCTYPE svg PUBLIC "-//W3C//DTD SVG 1.0//EN" "http://www.w3.org/TR/2001/REC-SVG-20010904/DTD/svg10.dtd">
<svg version="1.0" id="Layer_1" xmlns="http://www.w3.org/2000/svg" xmlns:xlink="http://www.w3.org/1999/xlink" x="0px" y="0px"
	 width="220px" height="227px" viewBox="0 0 220 227" enable-background="new 0 0 220 227" xml:space="preserve">
<path fill="#434343" d="M124.833,124.5H107c-1.656,0-3,1.344-3,3v12c0,1.656,1.344,3,3,3h1.833v-2.084H112v2.084h7.833v-2.084H123
	v2.084h1.833c1.656,0,3-1.344,3-3v-12C127.833,125.844,126.489,124.5,124.833,124.5z M110.911,128.291
	c1.175,0,2.13,0.914,2.13,2.041s-0.955,3.283-2.13,3.283s-2.128-2.156-2.128-3.283S109.736,128.291,110.911,128.291z
	 M116.004,137.57h-10.17c0,0-0.173-4.104,2.436-4.104c0.547,0.792,1.298,1.554,2.676,1.554c1.379,0,2.037-0.769,2.578-1.569
	C116.457,133.451,116.004,137.57,116.004,137.57z M124.999,136.584h-7.166v-1.126h7.166V136.584z M123.999,134.583h-6.166v-1.125
	h6.166V134.583z M121.999,132.583h-4.166v-1.125h4.166V132.583z M125.999,130.583h-8.166v-1.125h8.166V130.583z"/>
</svg>
