<?xml version="1.0" encoding="utf-8"?>
<!-- Generator: Adobe Illustrator 15.0.0, SVG Export Plug-In . SVG Version: 6.00 Build 0)  -->
<!DOCTYPE svg PUBLIC "-//W3C//DTD SVG 1.0//EN" "http://www.w3.org/TR/2001/REC-SVG-20010904/DTD/svg10.dtd">
<svg version="1.0" id="Layer_1" xmlns="http://www.w3.org/2000/svg" xmlns:xlink="http://www.w3.org/1999/xlink" x="0px" y="0px"
	 width="220px" height="227px" viewBox="0 0 220 227" enable-background="new 0 0 220 227" xml:space="preserve">
<g>
	<path fill="#434343" d="M105.59,121.949h6.936c1.107,0,2.007-0.9,2.007-2.012v-6.957c0-1.109-0.898-2.01-2.007-2.01h-5.941v-0.646
		c0-2.43,2.019-4.406,4.5-4.406c0.828,0,1.5-0.658,1.5-1.469c0-0.812-0.672-1.469-1.5-1.469c-4.136,0-7.5,3.295-7.5,7.344v9.613
		C103.584,121.049,104.481,121.949,105.59,121.949z"/>
	<path fill="#434343" d="M92.584,121.949H99.5c1.104,0,2-0.898,2-2.006v-6.938c0-1.107-0.896-2.006-2-2.006h-5.934v-0.678
		c0-2.43,2.008-4.406,4.475-4.406c0.824,0,1.492-0.656,1.492-1.469s-0.668-1.469-1.492-1.469c-4.111,0-7.457,3.295-7.457,7.344
		v9.619C90.584,121.051,91.479,121.949,92.584,121.949z"/>
</g>
</svg>
