<?xml version="1.0" encoding="utf-8"?>
<!-- Generator: Adobe Illustrator 15.0.0, SVG Export Plug-In . SVG Version: 6.00 Build 0)  -->
<!DOCTYPE svg PUBLIC "-//W3C//DTD SVG 1.0//EN" "http://www.w3.org/TR/2001/REC-SVG-20010904/DTD/svg10.dtd">
<svg version="1.0" id="Layer_1" xmlns="http://www.w3.org/2000/svg" xmlns:xlink="http://www.w3.org/1999/xlink" x="0px" y="0px"
	 width="220px" height="227px" viewBox="0 0 220 227" enable-background="new 0 0 220 227" xml:space="preserve">
<rect x="101.03" y="95.542" fill="#434343" width="0.959" height="7.917"/>
<path fill="#434343" d="M113,105.5v15h4.917v-15H113z M115.498,111.946c-0.522,0-0.943-0.437-0.943-0.973
	c0-0.536,0.421-0.973,0.943-0.973c0.519,0,0.941,0.437,0.941,0.973C116.439,111.509,116.017,111.946,115.498,111.946z
	 M115.518,109.034c-0.532,0-0.963-0.444-0.963-0.993s0.431-0.99,0.963-0.99c0.531,0,0.964,0.441,0.964,0.99
	S116.049,109.034,115.518,109.034z"/>
<path fill="#434343" d="M97.034,105.672V120.5h14.883v-14.828H97.034z M99.685,116.5c-0.203-0.312-0.357-0.66-0.481-1.021h8.577
	c-0.124,0.361-0.278,0.709-0.483,1.021H99.685z M98.986,114.5c-0.02-0.163-0.051-0.322-0.051-0.49c0-0.182,0.033-0.354,0.056-0.531
	h8.997c0.021,0.177,0.054,0.35,0.054,0.531c0,0.168-0.032,0.327-0.05,0.49H98.986z M107.271,111.479
	c0.21,0.312,0.364,0.66,0.492,1.021h-8.552c0.128-0.361,0.284-0.709,0.493-1.021H107.271z M106.355,110.5h-5.731
	c0.784-0.642,1.773-1.042,2.866-1.042C104.582,109.458,105.571,109.858,106.355,110.5z M100.573,117.479h5.833
	c-0.791,0.668-1.8,1.084-2.916,1.084S101.365,118.146,100.573,117.479z"/>
</svg>
