<?xml version="1.0" encoding="utf-8"?>
<!-- Generator: Adobe Illustrator 15.0.0, SVG Export Plug-In . SVG Version: 6.00 Build 0)  -->
<!DOCTYPE svg PUBLIC "-//W3C//DTD SVG 1.0//EN" "http://www.w3.org/TR/2001/REC-SVG-20010904/DTD/svg10.dtd">
<svg version="1.0" id="Layer_1" xmlns="http://www.w3.org/2000/svg" xmlns:xlink="http://www.w3.org/1999/xlink" x="0px" y="0px"
	 width="220px" height="227px" viewBox="0 0 220 227" enable-background="new 0 0 220 227" xml:space="preserve">
<g>
	<rect x="100.084" y="118.585" fill="#434343" width="23.854" height="2.75"/>
	<g>
		<rect x="116.036" y="106.539" fill="#434343" width="0.904" height="0.898"/>
		<rect x="108.042" y="106.538" fill="#434343" width="0.952" height="0.905"/>
		<path fill="#434343" d="M112.021,97.501c-4.94,0-8.945,2.066-8.945,7.359v12.516h17.891V104.86
			C120.966,99.567,116.961,97.501,112.021,97.501z M110.072,110.584h-1.111v-2.072h-0.919v2.042h-1.075v-5.066h3.09v2.066h-0.965
			v0.876h0.98V110.584L110.072,110.584z M113.013,110.537h-1.06v-5.083h1.06V110.537z M116.032,108.529v1.979h-1.087v-5.054h3.133
			l0.005,3.062L116.032,108.529z"/>
	</g>
</g>
</svg>
