<?xml version="1.0" encoding="utf-8"?>
<!-- Generator: Adobe Illustrator 15.0.0, SVG Export Plug-In . SVG Version: 6.00 Build 0)  -->
<!DOCTYPE svg PUBLIC "-//W3C//DTD SVG 1.0//EN" "http://www.w3.org/TR/2001/REC-SVG-20010904/DTD/svg10.dtd">
<svg version="1.0" id="Layer_1" xmlns="http://www.w3.org/2000/svg" xmlns:xlink="http://www.w3.org/1999/xlink" x="0px" y="0px"
	 width="220px" height="227px" viewBox="0 0 220 227" enable-background="new 0 0 220 227" xml:space="preserve">
<g>
	<path fill="#434343" d="M102.395,113.118c0,0-1.886,2.952-3.744,3.893c-1.441,0.728,0.156,5.093,0.93,6.976
		c0.217,0.529,0.519,0.518,0.829,0.062c0.593-0.857,1.771-2.104,3.635-2.104"/>
	<path fill="#434343" d="M112.597,113.118c0,0,1.889,2.952,3.746,3.893c1.442,0.728-0.157,5.093-0.929,6.976
		c-0.218,0.529-0.521,0.518-0.83,0.062c-0.592-0.857-1.771-2.104-3.634-2.104"/>
	<path fill="#434343" d="M112.843,114.717c-0.524-4.877-2.312-12.604-4.526-14.152c-0.258-0.031-0.521-0.054-0.782-0.054
		c-0.267,0-0.525,0.021-0.782,0.054c-2.218,1.551-4.004,9.275-4.529,14.152c-0.102,0.952-0.155,1.799-0.155,2.467
		c0,2.4,0.71,4.164,1.827,5.286h7.277c1.12-1.122,1.83-2.886,1.83-5.286C113,116.516,112.945,115.669,112.843,114.717z
		 M107.504,106.417c1.429,0,2.588,1.165,2.588,2.604c0,1.438-1.159,2.604-2.588,2.604c-1.43,0-2.587-1.164-2.587-2.604
		C104.917,107.581,106.074,106.417,107.504,106.417z"/>
</g>
</svg>
