<?xml version="1.0" encoding="utf-8"?>
<!-- Generator: Adobe Illustrator 15.0.0, SVG Export Plug-In . SVG Version: 6.00 Build 0)  -->
<!DOCTYPE svg PUBLIC "-//W3C//DTD SVG 1.0//EN" "http://www.w3.org/TR/2001/REC-SVG-20010904/DTD/svg10.dtd">
<svg version="1.0" id="Layer_1" xmlns="http://www.w3.org/2000/svg" xmlns:xlink="http://www.w3.org/1999/xlink" x="0px" y="0px"
	 width="220px" height="227px" viewBox="0 0 220 227" enable-background="new 0 0 220 227" xml:space="preserve">
<g>
	<path fill="#434343" d="M102.885,116.607c0,0.955-0.668,1.728-1.49,1.728h-2.777c-0.822,0-1.49-0.772-1.49-1.728v-2.23
		c0-0.953,0.668-1.727,1.49-1.727h2.777c0.822,0,1.49,0.773,1.49,1.727V116.607z"/>
	<path fill="#434343" d="M102.885,124.611c0,0.974-0.675,1.764-1.508,1.764h-2.808c-0.831,0-1.507-0.79-1.507-1.764v-2.284
		c0-0.974,0.676-1.765,1.507-1.765h2.808c0.833,0,1.508,0.791,1.508,1.765V124.611z"/>
	<path fill="#434343" d="M110.9,116.607c0,0.955-0.67,1.728-1.496,1.728h-2.791c-0.826,0-1.496-0.772-1.496-1.728v-2.23
		c0-0.953,0.67-1.727,1.496-1.727h2.791c0.826,0,1.496,0.773,1.496,1.727V116.607z"/>
	<path fill="#434343" d="M110.9,124.609c0,0.977-0.679,1.766-1.515,1.766h-2.819c-0.835,0-1.514-0.789-1.514-1.766v-2.281
		c0-0.977,0.679-1.766,1.514-1.766h2.819c0.836,0,1.515,0.789,1.515,1.766V124.609z"/>
	<path fill="#434343" d="M110.9,132.695c0,0.996-0.679,1.805-1.515,1.805h-2.819c-0.835,0-1.514-0.809-1.514-1.805v-2.33
		c0-0.996,0.679-1.803,1.514-1.803h2.819c0.836,0,1.515,0.807,1.515,1.803V132.695z"/>
	<path fill="#434343" d="M102.9,132.695c0,0.996-0.679,1.805-1.515,1.805h-2.819c-0.835,0-1.514-0.809-1.514-1.805v-2.33
		c0-0.996,0.679-1.803,1.514-1.803h2.819c0.836,0,1.515,0.807,1.515,1.803V132.695z"/>
	<path fill="#434343" d="M120.896,115.639c0,0.981-0.678,1.776-1.516,1.776h-2.825c-0.839,0-1.516-0.795-1.516-1.776v-2.298
		c0-0.982,0.677-1.778,1.516-1.778h2.825c0.838,0,1.516,0.796,1.516,1.778V115.639z"/>
	<path fill="#434343" d="M118.999,124.654c0,0.984-0.693,1.783-1.549,1.783h-2.895c-0.854,0-1.55-0.799-1.55-1.783v-2.309
		c0-0.984,0.694-1.783,1.55-1.783h2.895c0.854,0,1.549,0.799,1.549,1.783V124.654z"/>
	<path fill="#434343" d="M118.874,132.695c0,0.996-0.679,1.805-1.517,1.805h-2.832c-0.838,0-1.52-0.809-1.52-1.805v-2.33
		c0-0.996,0.682-1.803,1.52-1.803h2.832c0.838,0,1.517,0.807,1.517,1.803V132.695z"/>
</g>
</svg>
