<?xml version="1.0" encoding="utf-8"?>
<!-- Generator: Adobe Illustrator 15.0.0, SVG Export Plug-In . SVG Version: 6.00 Build 0)  -->
<!DOCTYPE svg PUBLIC "-//W3C//DTD SVG 1.0//EN" "http://www.w3.org/TR/2001/REC-SVG-20010904/DTD/svg10.dtd">
<svg version="1.0" id="Layer_1" xmlns="http://www.w3.org/2000/svg" xmlns:xlink="http://www.w3.org/1999/xlink" x="0px" y="0px"
	 width="220px" height="227px" viewBox="0 0 220 227" enable-background="new 0 0 220 227" xml:space="preserve">
<g>
	<path fill="#434343" d="M131,141.482c0,1.695-1.377,3.072-3.074,3.072h-5.852c-1.697,0-3.074-1.377-3.074-3.072v-5.854
		c0-1.697,1.377-3.074,3.074-3.074h5.852c1.697,0,3.074,1.377,3.074,3.074V141.482z"/>
	<path fill="#434343" d="M133.971,127.904l-1.141-3.59c-0.471,0-0.852,0.381-0.852,0.85l-0.818,6.42
		c0,0.471,0.381,0.854,0.852,0.854l6.438-0.818c0.473,0,0.854-0.381,0.854-0.854l-3.605-1.145l5.898-5.883
		c0.238-0.236,0.357-0.547,0.357-0.857c0-0.31-0.119-0.619-0.357-0.854c-0.477-0.477-1.25-0.477-1.727,0L133.971,127.904z"/>
	<path fill="#434343" d="M141.078,126.583v15.827c0,1.193-0.964,2.165-2.152,2.165h-17.812c-1.188,0-2.151-0.972-2.151-2.165
		v-17.832c0-1.193,0.966-2.165,2.151-2.165h15.797v-0.862h-15.797c-1.693,0-3.073,1.385-3.073,3.084v17.781
		c0,1.7,1.38,3.084,3.073,3.084h17.812c1.695,0,3.074-1.384,3.074-3.084v-15.833H141.078L141.078,126.583z"/>
</g>
</svg>
