<?xml version="1.0" encoding="utf-8"?>
<!-- Generator: Adobe Illustrator 15.0.0, SVG Export Plug-In . SVG Version: 6.00 Build 0)  -->
<!DOCTYPE svg PUBLIC "-//W3C//DTD SVG 1.0//EN" "http://www.w3.org/TR/2001/REC-SVG-20010904/DTD/svg10.dtd">
<svg version="1.0" id="Layer_1" xmlns="http://www.w3.org/2000/svg" xmlns:xlink="http://www.w3.org/1999/xlink" x="0px" y="0px"
	 width="220px" height="227px" viewBox="0 0 220 227" enable-background="new 0 0 220 227" xml:space="preserve">
<g>
	<path fill="#434343" d="M125,115.416c0-4.926-4.027-8.916-8.996-8.916c-4.97,0-8.998,3.99-8.998,8.916
		c0,4.924,4.028,8.914,8.998,8.914C120.973,124.33,125,120.34,125,115.416z M109.279,115.416c0-3.682,3.01-6.663,6.725-6.663
		c3.713,0,6.723,2.981,6.723,6.663c0,3.68-3.01,6.662-6.723,6.662C112.289,122.078,109.279,119.096,109.279,115.416z"/>
	<path fill="#434343" d="M103.769,130.407l-2.729-2.729l6.046-6.047c0,0,0.145,1.146,0.868,1.868
		c0.724,0.725,1.861,0.861,1.861,0.861L103.769,130.407z"/>
	<path fill="#434343" d="M120.17,114.893c0,0.857,0.658,0.534,0.658-0.656c0-2.054-1.662-3.715-3.713-3.715
		c-1.194,0-1.518,0.657-0.659,0.657C118.508,111.179,120.17,112.842,120.17,114.893z"/>
</g>
</svg>
