<?xml version="1.0" encoding="utf-8"?>
<!-- Generator: Adobe Illustrator 15.0.0, SVG Export Plug-In . SVG Version: 6.00 Build 0)  -->
<!DOCTYPE svg PUBLIC "-//W3C//DTD SVG 1.0//EN" "http://www.w3.org/TR/2001/REC-SVG-20010904/DTD/svg10.dtd">
<svg version="1.0" id="Layer_1" xmlns="http://www.w3.org/2000/svg" xmlns:xlink="http://www.w3.org/1999/xlink" x="0px" y="0px"
	 width="220px" height="227px" viewBox="0 0 220 227" enable-background="new 0 0 220 227" xml:space="preserve">
<g>
	<path fill="#434343" d="M116.73,146.181l8.764-8.764c1.74,0.899,3.811,0.732,5.139-0.597c1.025-1.025,1.371-2.495,1.062-3.913
		l-2.262,2.254l-2.012,0.393l-2.435-2.41l0.419-2.071l2.236-2.21c-1.417-0.312-2.889,0.032-3.913,1.059
		c-1.327,1.329-1.494,3.397-0.597,5.141l-8.764,8.766c-1.741-0.899-3.812-0.731-5.143,0.597c-1.021,1.025-1.367,2.494-1.061,3.913
		l2.259-2.254l2.011-0.395l2.438,2.41l-0.421,2.073l-2.239,2.21c1.418,0.309,2.889-0.034,3.914-1.059
		C117.462,149.992,117.629,147.922,116.73,146.181z"/>
	<g>
		<polygon fill="#434343" points="129.157,146.98 126.415,146.086 122.918,142.589 122.049,143.456 125.547,146.952 126.5,149.755 
			131.095,152.5 131.961,151.634 		"/>
		<path fill="#434343" d="M118.928,136.159l-7.188-7.215c-0.604-0.605-1.662-0.529-2.363,0.177l-0.797,0.798
			c-0.7,0.705-0.779,1.767-0.173,2.373l7.185,7.215L118.928,136.159z"/>
	</g>
</g>
</svg>
