<?xml version="1.0" encoding="utf-8"?>
<!-- Generator: Adobe Illustrator 15.0.0, SVG Export Plug-In . SVG Version: 6.00 Build 0)  -->
<!DOCTYPE svg PUBLIC "-//W3C//DTD SVG 1.0//EN" "http://www.w3.org/TR/2001/REC-SVG-20010904/DTD/svg10.dtd">
<svg version="1.0" id="Layer_1" xmlns="http://www.w3.org/2000/svg" xmlns:xlink="http://www.w3.org/1999/xlink" x="0px" y="0px"
	 width="220px" height="227px" viewBox="0 0 220 227" enable-background="new 0 0 220 227" xml:space="preserve">
<g>
	<rect x="122.062" y="113.136" fill="#434343" width="1.875" height="3.834"/>
	<rect x="123.021" y="116.846" fill="#434343" width="0.916" height="2.124"/>
	<rect x="126.064" y="112.102" fill="#434343" width="1.873" height="0.868"/>
	<path fill="#434343" d="M140.896,112.115c0,0.518-0.431,0.938-0.957,0.938l0,0c-0.529,0-0.959-0.42-0.959-0.938v-4.125
		c0-0.52,0.43-0.938,0.959-0.938l0,0c0.526,0,0.957,0.42,0.957,0.938V112.115z"/>
	<rect x="133.98" y="103.095" fill="#434343" width="0.957" height="2.25"/>
	<path fill="#434343" d="M137.938,107.053c0-1.104-0.896-2-2-2h-15.916c-1.104,0-2,0.896-2,2l1,4.875c0,1.104,0.893,2,1.989,2h2.979
		c1.056,0,1.91-1.83,1.977-2.875h5.015l-1,9.042h-10.959c-1.104,0-2,0.896-2,2v2.916c0,1.104,0.896,2,2,2h17.916
		c1.104,0,2-0.896,2-2v-0.041L137.938,107.053z M134.938,123.261c-1.194,0-2.166-0.97-2.166-2.166s0.972-2.166,2.166-2.166
		c1.196,0,2.166,0.97,2.166,2.166S136.134,123.261,134.938,123.261z"/>
	<circle fill="#434343" cx="134.938" cy="121.095" r="1.124"/>
	<rect x="121.042" y="116.188" fill="#434343" width="2.458" height="0.812"/>
</g>
</svg>
