<?xml version="1.0" encoding="utf-8"?>
<!-- Generator: Adobe Illustrator 15.0.0, SVG Export Plug-In . SVG Version: 6.00 Build 0)  -->
<!DOCTYPE svg PUBLIC "-//W3C//DTD SVG 1.0//EN" "http://www.w3.org/TR/2001/REC-SVG-20010904/DTD/svg10.dtd">
<svg version="1.0" id="Layer_1" xmlns="http://www.w3.org/2000/svg" xmlns:xlink="http://www.w3.org/1999/xlink" x="0px" y="0px"
	 width="220px" height="227px" viewBox="0 0 220 227" enable-background="new 0 0 220 227" xml:space="preserve">
<g>
	<path fill="#434343" d="M105.084,95.531c-4.926,0-8.918,2.917-8.918,2.917l0.008,9.083c0,7.5,8.91,11.969,8.91,11.969
		s8.914-4.219,8.914-11.991c0-7.771,0.002-9.061,0.002-9.061S110.008,95.531,105.084,95.531z M112.244,107.652
		c0,5.688-6.688,9.635-7.145,9.855v0.021l-0.021-0.012l-0.021,0.012v-0.021c-0.454-0.223-7.143-4.168-7.143-9.855l-0.006-8.164
		c0,0,3.197-2.271,7.146-2.289v-0.002c0,0,0.016,0.002,0.021,0.002l0.021-0.002v0.002c3.951,0.018,7.148,2.289,7.148,2.289
		L112.244,107.652z M110.953,107.504c0,4.85-5.498,7.713-5.873,7.902v0.018c0,0-0.016-0.006-0.018-0.008l-0.02,0.008v-0.018
		c-0.375-0.189-5.873-3.053-5.873-7.902l-0.006-6.959c0,0,2.629-1.936,5.879-1.951v-0.001l0.02,0.001
		c0.006,0,0.012-0.001,0.018-0.001v0.001c3.25,0.018,5.877,1.951,5.877,1.951L110.953,107.504z"/>
</g>
</svg>
