<?xml version="1.0" encoding="utf-8"?>
<!-- Generator: Adobe Illustrator 15.0.0, SVG Export Plug-In . SVG Version: 6.00 Build 0)  -->
<!DOCTYPE svg PUBLIC "-//W3C//DTD SVG 1.0//EN" "http://www.w3.org/TR/2001/REC-SVG-20010904/DTD/svg10.dtd">
<svg version="1.0" id="Layer_1" xmlns="http://www.w3.org/2000/svg" xmlns:xlink="http://www.w3.org/1999/xlink" x="0px" y="0px"
	 width="220px" height="227px" viewBox="0 0 220 227" enable-background="new 0 0 220 227" xml:space="preserve">
<g>
	<polygon fill="#434343" points="125.125,137.541 125.125,143.666 110.875,143.666 110.875,137.541 109.062,137.541 
		109.062,148.416 126.938,148.416 126.938,137.541 	"/>
	<polygon fill="#434343" points="130,135.427 128.062,136.416 127.094,135.427 126.062,135.427 125.062,136.416 124.094,136.416 
		123.062,135.427 122.062,135.427 121.062,136.416 120.062,136.416 119.094,135.427 117.062,135.427 116.093,136.416 
		115.094,136.416 114.093,135.427 113.093,135.427 112.094,136.416 111.125,136.416 110.093,135.427 109.062,135.427 
		108.062,136.416 106.062,135.427 110.073,130.541 125.989,130.541 	"/>
	<rect x="109" y="128.613" fill="#434343" width="17.938" height="0.729"/>
	<rect x="109.062" y="126.5" fill="#434343" width="17.938" height="0.875"/>
</g>
</svg>
