<?xml version="1.0" encoding="utf-8"?>
<!-- Generator: Adobe Illustrator 15.0.0, SVG Export Plug-In . SVG Version: 6.00 Build 0)  -->
<!DOCTYPE svg PUBLIC "-//W3C//DTD SVG 1.0//EN" "http://www.w3.org/TR/2001/REC-SVG-20010904/DTD/svg10.dtd">
<svg version="1.0" id="Layer_1" xmlns="http://www.w3.org/2000/svg" xmlns:xlink="http://www.w3.org/1999/xlink" x="0px" y="0px"
	 width="220px" height="227px" viewBox="0 0 220 227" enable-background="new 0 0 220 227" xml:space="preserve">
<g>
	<g>
		<path fill="#434343" d="M115.463,114.499c-1.381,0-2.628-0.675-3.18-1.718c-0.188-0.357-0.018-0.782,0.385-0.949
			c0.398-0.167,0.877-0.015,1.065,0.343c0.286,0.546,0.965,0.898,1.729,0.898c1.03,0,1.865-0.645,1.865-1.432
			c0-0.786-0.835-1.431-1.865-1.431c-1.916,0-3.463-1.277-3.463-2.85c0-1.57,1.547-2.852,3.449-2.852
			c1.374,0,2.614,0.671,3.162,1.707c0.188,0.357,0.019,0.781-0.385,0.95c-0.396,0.169-0.874,0.016-1.062-0.341
			c-0.287-0.54-0.959-0.891-1.716-0.891c-1.021,0-1.852,0.641-1.852,1.424c0,0.785,0.828,1.424,1.852,1.424
			c1.924,0,3.479,1.281,3.479,2.854C118.928,113.218,117.373,114.499,115.463,114.499z"/>
	</g>
	<g>
		<path fill="#434343" d="M132.454,114.5c-1.377,0-2.62-0.675-3.171-1.719c-0.188-0.357-0.017-0.781,0.385-0.949
			c0.396-0.166,0.872-0.014,1.062,0.343c0.283,0.546,0.962,0.899,1.724,0.899c1.026,0,1.86-0.643,1.86-1.43
			c0-0.789-0.834-1.433-1.86-1.433c-1.912,0-3.453-1.276-3.453-2.851c0-1.57,1.541-2.852,3.439-2.852c1.367,0,2.605,0.67,3.15,1.707
			c0.189,0.357,0.021,0.782-0.38,0.95c-0.396,0.169-0.874,0.017-1.062-0.341c-0.284-0.54-0.954-0.891-1.712-0.891
			c-1.018,0-1.845,0.641-1.845,1.424c0,0.785,0.827,1.424,1.845,1.424c1.921,0,3.471,1.281,3.471,2.857
			C135.908,113.216,134.359,114.5,132.454,114.5z"/>
	</g>
	<g>
		<path fill="#434343" d="M121.011,114.482c-0.553,0-1-0.443-1-0.99v-7.926c0-0.43,0.276-0.809,0.688-0.941
			c0.408-0.132,0.858,0.006,1.114,0.35l2.185,2.905l2.155-2.983c0.253-0.35,0.706-0.494,1.117-0.365
			c0.414,0.133,0.694,0.514,0.694,0.941v7.988c0,0.547-0.447,0.99-1,0.99s-0.953-0.443-0.953-0.99v-4.902l-1.211,1.525
			c-0.187,0.258-0.483,0.412-0.805,0.414c-0.312-0.036-0.62-0.146-0.812-0.398l-1.22-1.588v4.938
			C121.965,113.994,121.562,114.482,121.011,114.482z"/>
	</g>
</g>
</svg>
