<?xml version="1.0" encoding="utf-8"?>
<!-- Generator: Adobe Illustrator 15.0.0, SVG Export Plug-In . SVG Version: 6.00 Build 0)  -->
<!DOCTYPE svg PUBLIC "-//W3C//DTD SVG 1.0//EN" "http://www.w3.org/TR/2001/REC-SVG-20010904/DTD/svg10.dtd">
<svg version="1.0" id="Layer_1" xmlns="http://www.w3.org/2000/svg" xmlns:xlink="http://www.w3.org/1999/xlink" x="0px" y="0px"
	 width="220px" height="227px" viewBox="0 0 220 227" enable-background="new 0 0 220 227" xml:space="preserve">
<g>
	<g>
		<path fill="#434343" d="M103.02,122.354c-4.383,0-7.945-3.545-7.945-7.904s3.562-7.906,7.945-7.906
			c4.384,0,7.948,3.547,7.948,7.906S107.401,122.354,103.02,122.354z M103.082,107.465c-3.839,0-6.965,3.137-6.965,6.992
			c0,3.857,3.126,6.994,6.965,6.994c3.84,0,6.965-3.137,6.965-6.994C110.047,110.602,106.922,107.465,103.082,107.465z"/>
	</g>
	<circle fill="#434343" cx="99.938" cy="114.428" r="1.052"/>
	<circle fill="#434343" cx="105.979" cy="114.385" r="1.031"/>
	<g>
		<path fill="#434343" d="M114.832,126.334H91V102.5h23.832V126.334L114.832,126.334z M92.928,124.5h20.164v-20.146H92.928V124.5z"
			/>
	</g>
</g>
</svg>
