<?xml version="1.0" encoding="utf-8"?>
<!-- Generator: Adobe Illustrator 15.0.0, SVG Export Plug-In . SVG Version: 6.00 Build 0)  -->
<!DOCTYPE svg PUBLIC "-//W3C//DTD SVG 1.0//EN" "http://www.w3.org/TR/2001/REC-SVG-20010904/DTD/svg10.dtd">
<svg version="1.0" id="Layer_1" xmlns="http://www.w3.org/2000/svg" xmlns:xlink="http://www.w3.org/1999/xlink" x="0px" y="0px"
	 width="220px" height="227px" viewBox="0 0 220 227" enable-background="new 0 0 220 227" xml:space="preserve">
<g>
	<path fill="#434343" d="M127.006,96.604c-1.102,0-2.119,0.364-2.943,0.973c-0.443,0.328-0.842,0.729-1.154,1.186
		c-0.545,0.792-0.867,1.75-0.867,2.781c0,2.723,2.229,4.938,4.967,4.938c1.049,0,2.023-0.327,2.822-0.884
		c0.459-0.314,0.857-0.708,1.188-1.155c0.6-0.814,0.953-1.814,0.953-2.898C131.969,98.818,129.742,96.604,127.006,96.604z
		 M127.006,105.013c-1.926,0-3.494-1.558-3.494-3.472c0-0.627,0.186-1.205,0.479-1.714l4.76,4.703
		C128.234,104.83,127.645,105.013,127.006,105.013z M125.127,98.625c0.543-0.349,1.186-0.556,1.879-0.556
		c1.926,0,3.488,1.558,3.488,3.472c0,0.68-0.203,1.312-0.545,1.847L125.127,98.625z"/>
	<path fill="#434343" d="M111,93.639v1.726c0,2.854,0.539,4.138,3.156,4.138h2.723v-10h-2.723C111.539,89.5,111,90.787,111,93.639z"
		/>
	<path fill="#434343" d="M121.906,98.015c0.395-0.571,0.889-1.071,1.449-1.483c1.031-0.762,2.311-1.216,3.689-1.216
		c1.045,0,2.027,0.259,2.895,0.712V83.918c0-0.78-0.744-1.416-1.66-1.416l-8.582,5.664c-0.918,0-1.662,0.635-1.662,1.416v9.854
		c0,0.781,0.744,1.416,1.662,1.416c0,0,1.121,0.683,1.121,0.65C120.818,100.208,121.221,99.008,121.906,98.015z"/>
</g>
</svg>
