<?xml version="1.0" encoding="utf-8"?>
<!-- Generator: Adobe Illustrator 15.0.0, SVG Export Plug-In . SVG Version: 6.00 Build 0)  -->
<!DOCTYPE svg PUBLIC "-//W3C//DTD SVG 1.0//EN" "http://www.w3.org/TR/2001/REC-SVG-20010904/DTD/svg10.dtd">
<svg version="1.0" id="Layer_1" xmlns="http://www.w3.org/2000/svg" xmlns:xlink="http://www.w3.org/1999/xlink" x="0px" y="0px"
	 width="220px" height="227px" viewBox="0 0 220 227" enable-background="new 0 0 220 227" xml:space="preserve">
<g>
	<path fill="#434343" d="M99.84,105.766c0.061-0.141,0.098-0.293,0.098-0.462V96.2c1.678-0.601,2.938-2.189,2.938-4.079
		c0-1.457-0.713-2.746-1.81-3.535l-0.005,3.209l-1.025,1.707l-3.066,0.021l-1.05-1.772l0.021-3.163
		c-1.099,0.789-1.938,2.078-1.938,3.535c0,1.89,1.334,3.48,3.01,4.079v9.104c0,0.157,0.033,0.304,0.084,0.438
		c-1.203,0.521-2.062,1.729-2.062,3.138c0,1.885,1.637,3.562,3.5,3.562c1.859,0,3.375-1.678,3.375-3.562
		C101.906,107.488,101.018,106.299,99.84,105.766z M98.404,110.677c-0.981,0-1.779-0.806-1.779-1.8s0.798-1.8,1.779-1.8
		c0.98,0,1.775,0.806,1.775,1.8S99.387,110.677,98.404,110.677z"/>
</g>
</svg>
