<?xml version="1.0" encoding="utf-8"?>
<!-- Generator: Adobe Illustrator 15.0.0, SVG Export Plug-In . SVG Version: 6.00 Build 0)  -->
<!DOCTYPE svg PUBLIC "-//W3C//DTD SVG 1.0//EN" "http://www.w3.org/TR/2001/REC-SVG-20010904/DTD/svg10.dtd">
<svg version="1.0" id="Layer_1" xmlns="http://www.w3.org/2000/svg" xmlns:xlink="http://www.w3.org/1999/xlink" x="0px" y="0px"
	 width="220px" height="227px" viewBox="0 0 220 227" enable-background="new 0 0 220 227" xml:space="preserve">
<g>
	<path fill="#434343" d="M134.665,100.133c-0.73,0.73-7.304,6.367-10.759,8.505l-1.256-1.344c2.162-3.471,7.744-9.979,8.472-10.705
		c0.95-0.95,3.13-1.53,4.208-0.665C136.749,97.062,135.616,99.182,134.665,100.133z"/>
	<path fill="#434343" d="M121.859,109.061c0,0-3.096-0.797-4.949,2.299c-1.856,3.094-3.624,2.031-4.42,1.768
		c-0.795-0.265,1.854,3.271,3.094,3.271c1.211,0,6.487,1.693,7.787-4.946C123.399,111.304,123.479,109.312,121.859,109.061z"/>
</g>
</svg>
