<?xml version="1.0" encoding="utf-8"?>
<!-- Generator: Adobe Illustrator 15.0.0, SVG Export Plug-In . SVG Version: 6.00 Build 0)  -->
<!DOCTYPE svg PUBLIC "-//W3C//DTD SVG 1.0//EN" "http://www.w3.org/TR/2001/REC-SVG-20010904/DTD/svg10.dtd">
<svg version="1.0" id="Layer_1" xmlns="http://www.w3.org/2000/svg" xmlns:xlink="http://www.w3.org/1999/xlink" x="0px" y="0px"
	 width="220px" height="227px" viewBox="0 0 220 227" enable-background="new 0 0 220 227" xml:space="preserve">
<path fill="#434343" d="M116.917,106.529c0-1.612-1.315-2.918-2.938-2.918c-1.62,0-2.938,1.306-2.938,2.918
	c0,1.238,0.779,2.289,1.875,2.713c-0.534,3.612-2.74,6.329-5.374,6.329c-2.797,0-5.108-2.062-5.451-6.009
	c2.611-0.198,5.909-1.871,5.909-5.325v-5.362c0-1.528-0.812-2.868-2.03-3.643c-0.145-0.963-0.967-1.703-1.97-1.703
	c-1.104,0-2,0.896-2,2c0,1.104,0.896,2,2,2c0.444,0,0.852-0.15,1.184-0.396c0.497,0.433,0.816,1.048,0.816,1.741v5.362
	c0,2.503-3.041,3.346-4.429,3.346h-1.145c-0.936,0-4.429-0.567-4.429-3.346v-5.362c0-0.693,0.319-1.312,0.814-1.741
	c0.332,0.245,0.739,0.396,1.186,0.396c1.104,0,2-0.896,2-2c0-1.104-0.896-2-2-2c-1.003,0-1.825,0.74-1.97,1.703
	c-1.221,0.772-2.03,2.112-2.03,3.643v5.362c0,3.53,3.444,5.196,6.081,5.333c0.383,5.048,3.653,7.931,7.531,7.931
	c3.692,0,6.692-3.519,7.311-8.222C116.079,108.887,116.917,107.811,116.917,106.529z"/>
</svg>
