<?xml version="1.0" encoding="utf-8"?>
<!-- Generator: Adobe Illustrator 15.0.0, SVG Export Plug-In . SVG Version: 6.00 Build 0)  -->
<!DOCTYPE svg PUBLIC "-//W3C//DTD SVG 1.0//EN" "http://www.w3.org/TR/2001/REC-SVG-20010904/DTD/svg10.dtd">
<svg version="1.0" id="Layer_1" xmlns="http://www.w3.org/2000/svg" xmlns:xlink="http://www.w3.org/1999/xlink" x="0px" y="0px"
	 width="220px" height="227px" viewBox="0 0 220 227" enable-background="new 0 0 220 227" xml:space="preserve">
<g>
	<rect x="129.083" y="97.584" fill="#434343" width="1.833" height="11.916"/>
	<path fill="#434343" d="M129.958,88.5c-3.289,0-5.958,2.668-5.958,5.959s2.669,5.957,5.958,5.957c3.29,0,5.958-2.666,5.958-5.957
		S133.249,88.5,129.958,88.5z M130.416,90.58c-2.404,0-4.35,1.998-4.35,4.459c0,0.986-0.937,0.516-0.937-0.959
		c0-2.461,1.945-4.459,4.351-4.459C130.917,89.621,131.376,90.58,130.416,90.58z"/>
	<g>
		<path fill="#434343" d="M127.915,106.43c-3.708,0.355-5.91,1.611-5.91,2.551c0,1.104,3.041,2.645,7.995,2.645
			c4.953,0,7.995-1.541,7.995-2.645c0-0.951-2.185-2.299-5.966-2.637l-0.032-0.838c3.696,0.305,7.003,1.557,7.003,3.494
			c0,2.273-4.639,3.5-9,3.5c-4.363,0-9-1.227-9-3.5c0-1.912,3.279-3.084,6.918-3.408L127.915,106.43z"/>
	</g>
</g>
</svg>
