<?xml version="1.0" encoding="utf-8"?>
<!-- Generator: Adobe Illustrator 15.0.0, SVG Export Plug-In . SVG Version: 6.00 Build 0)  -->
<!DOCTYPE svg PUBLIC "-//W3C//DTD SVG 1.0//EN" "http://www.w3.org/TR/2001/REC-SVG-20010904/DTD/svg10.dtd">
<svg version="1.0" id="Layer_1" xmlns="http://www.w3.org/2000/svg" xmlns:xlink="http://www.w3.org/1999/xlink" x="0px" y="0px"
	 width="220px" height="227px" viewBox="0 0 220 227" enable-background="new 0 0 220 227" xml:space="preserve">
<g>
	<path fill="#434343" d="M111.977,100.525h-0.969v1.181h-2.016v-1.181h-0.965c-3.861,0-7.002,3.141-7.002,7.001v0.966h1.131v2.016
		h-1.131v0.968c0,3.86,3.141,7,7.002,7h0.965v-1.125h2.016v1.125h0.969c3.859,0,7-3.141,7-7v-0.968h-1.133v-2.016h1.133v-0.966
		C118.977,103.666,115.836,100.525,111.977,100.525z M110,116.613c-3.922,0-7.111-3.191-7.111-7.113s3.189-7.111,7.111-7.111
		s7.113,3.189,7.113,7.111S113.922,116.613,110,116.613z"/>
	<path fill="#434343" d="M110,97.5c-6.615,0-12,5.385-12,12c0,6.617,5.385,12,12,12c6.617,0,12-5.383,12-12
		C122,102.885,116.617,97.5,110,97.5z M112.01,119.641h-0.982v0.971h-2.053v-0.971h-0.98c-4.484,0-8.133-3.647-8.133-8.131v-0.984
		h-0.971v-2.05h0.971v-0.982c0-4.484,3.646-8.133,8.133-8.133h0.98V98.3h2.053v1.061h0.982c4.482,0,8.131,3.648,8.131,8.133v0.982
		h1.068v2.05h-1.068v0.984C120.141,115.992,116.492,119.641,112.01,119.641z"/>
</g>
</svg>
