<?xml version="1.0" encoding="utf-8"?>
<!-- Generator: Adobe Illustrator 15.0.0, SVG Export Plug-In . SVG Version: 6.00 Build 0)  -->
<!DOCTYPE svg PUBLIC "-//W3C//DTD SVG 1.0//EN" "http://www.w3.org/TR/2001/REC-SVG-20010904/DTD/svg10.dtd">
<svg version="1.0" id="Layer_1" xmlns="http://www.w3.org/2000/svg" xmlns:xlink="http://www.w3.org/1999/xlink" x="0px" y="0px"
	 width="220px" height="227px" viewBox="0 0 220 227" enable-background="new 0 0 220 227" xml:space="preserve">
<path fill="#434343" d="M112.415,99.584c-2.205,0-4.121,1.153-5.121,2.854h10.24C116.536,100.737,114.618,99.584,112.415,99.584z"/>
<path fill="#434343" d="M112.069,112.604v11.854h0.876v-11.856c1.977-0.178,3.67-1.338,4.588-2.99h-10.24
	C108.211,111.264,110.091,112.424,112.069,112.604z"/>
<path fill="#434343" d="M118.582,103.623h-12.21c-0.197,0-0.358,0.167-0.358,0.369v4.097c0,0.204,0.161,0.369,0.358,0.369h12.21
	c0.199,0,0.357-0.165,0.357-0.369v-4.097C118.94,103.79,118.781,103.623,118.582,103.623z"/>
</svg>
