<?xml version="1.0" encoding="utf-8"?>
<!-- Generator: Adobe Illustrator 15.0.0, SVG Export Plug-In . SVG Version: 6.00 Build 0)  -->
<!DOCTYPE svg PUBLIC "-//W3C//DTD SVG 1.0//EN" "http://www.w3.org/TR/2001/REC-SVG-20010904/DTD/svg10.dtd">
<svg version="1.0" id="Layer_1" xmlns="http://www.w3.org/2000/svg" xmlns:xlink="http://www.w3.org/1999/xlink" x="0px" y="0px"
	 width="220px" height="227px" viewBox="0 0 220 227" enable-background="new 0 0 220 227" xml:space="preserve">
<g>
	<path fill="#434343" d="M88.893,92.146l-7.03,7.029c-0.195,0.195-0.229,0.479-0.032,0.674c0.197,0.197,0.515,0.199,0.71,0.006
		l1.061-1.062l9.665,9.663c0.196,0.197,0.514,0.199,0.71,0.003l1.075-1.074l0.671,0.672l2.056-2.055l-0.672-0.672l1.094-1.094
		c0.195-0.195,0.193-0.516-0.004-0.713l-9.664-9.662l1.035-1.035c0.195-0.195,0.18-0.527-0.018-0.727
		C89.354,91.907,89.089,91.956,88.893,92.146z M91.512,105.336l-2.15-2.15l0.765-0.766l2.15,2.15L91.512,105.336z M89.463,101.757
		l-0.766,0.765l-1.871-1.873l0.764-0.765L89.463,101.757z M85.057,97.351l1.871,1.87l-0.766,0.768l-1.87-1.87L85.057,97.351z
		 M97.225,103.89l-3.58,3.579l-0.748-0.749l3.578-3.579L97.225,103.89z M95.092,101.756l-0.781,0.781l-7.221-7.22l0.781-0.781
		L95.092,101.756z"/>
	<polygon fill="#434343" points="100.561,111.482 101.764,111.5 97.831,107.472 97.189,108.113 	"/>
	<polygon fill="#434343" points="83.611,95.934 85.674,93.871 82.139,90.336 83.567,88.907 82.919,88.259 78,93.179 78.648,93.827 
		80.076,92.399 	"/>
</g>
</svg>
