<?xml version="1.0" encoding="utf-8"?>
<!-- Generator: Adobe Illustrator 15.0.0, SVG Export Plug-In . SVG Version: 6.00 Build 0)  -->
<!DOCTYPE svg PUBLIC "-//W3C//DTD SVG 1.0//EN" "http://www.w3.org/TR/2001/REC-SVG-20010904/DTD/svg10.dtd">
<svg version="1.0" id="Layer_1" xmlns="http://www.w3.org/2000/svg" xmlns:xlink="http://www.w3.org/1999/xlink" x="0px" y="0px"
	 width="220px" height="227px" viewBox="0 0 220 227" enable-background="new 0 0 220 227" xml:space="preserve">
<g>
	<g>
		<path fill="#434343" d="M100.66,112l1.569-5.854h-2.17c-1.854,0-3.433-1.441-3.433-3.303v-9.325c0-1.859,1.51-3.371,3.359-3.371
			h17.156c1.852,0,3.357,1.512,3.357,3.371v9.325c0,1.859-1.437,3.303-3.286,3.303h-8.677L100.66,112z M99.995,91.096
			c-1.351,0-2.446,1.093-2.446,2.436v9.242c0,1.344,1.098,2.436,2.446,2.436h3.584l-1.2,4.164l5.439-4.164h9.337
			c1.353,0,2.448-1.092,2.448-2.436v-9.242c0-1.343-1.098-2.436-2.448-2.436H99.995z"/>
	</g>
	<path fill="#434343" d="M118.5,101.061c0,1.681-1.345,3.041-3.006,3.041h-13.777c-1.66,0-3.008-1.36-3.008-3.041v-5.827
		c0-1.68,1.348-3.041,3.008-3.041h13.777c1.661,0,3.006,1.361,3.006,3.041V101.061z"/>
</g>
</svg>
