<?xml version="1.0" encoding="utf-8"?>
<!-- Generator: Adobe Illustrator 15.0.0, SVG Export Plug-In . SVG Version: 6.00 Build 0)  -->
<!DOCTYPE svg PUBLIC "-//W3C//DTD SVG 1.0//EN" "http://www.w3.org/TR/2001/REC-SVG-20010904/DTD/svg10.dtd">
<svg version="1.0" id="Layer_1" xmlns="http://www.w3.org/2000/svg" xmlns:xlink="http://www.w3.org/1999/xlink" x="0px" y="0px"
	 width="220px" height="227px" viewBox="0 0 220 227" enable-background="new 0 0 220 227" xml:space="preserve">
<path fill="#434343" d="M107.408,83.072c3.494-3.494,4.121-8.553,1.396-11.275c-2.723-2.724-7.779-2.097-11.273,1.398
	c-2.125,2.125-3.185,4.825-3.079,7.229c-0.118,0.108-0.183,0.271-0.146,0.445c0.639,2.854-1.855,5.783-1.884,5.813
	c-0.034,0.04-0.056,0.086-0.072,0.132l-3.243,3.244c-0.393,0.391-0.404,1.01-0.029,1.385l0.029,0.028
	c0.374,0.375,0.993,0.362,1.385-0.029l3.346-3.346c0.228-0.169,3.441-2.531,5.761-1.865c0.155,0.045,0.306,0.004,0.417-0.084
	C102.459,86.307,105.235,85.245,107.408,83.072z M99.615,85.258c-0.145-0.03-0.287-0.061-0.435-0.076
	c-0.265-0.059-0.521-0.133-0.771-0.227l1.945-1.945l1.436,1.438l-0.854,0.853C100.486,85.33,100.043,85.316,99.615,85.258z
	 M98.111,73.807c0.26-0.261,0.529-0.494,0.806-0.721l0.753,0.752l-1.479,1.48l-0.76-0.76C97.645,74.305,97.868,74.051,98.111,73.807
	z M101.791,71.719l-1.48,1.48l-0.656-0.658c0.627-0.426,1.275-0.77,1.938-1.021L101.791,71.719z M109.064,78.992
	c-0.258,0.659-0.6,1.311-1.023,1.938l-0.682-0.682l1.479-1.479L109.064,78.992z M106.773,82.469
	c-0.243,0.244-0.496,0.469-0.757,0.684l-0.778-0.781l1.479-1.479l0.775,0.773C107.27,81.938,107.033,82.21,106.773,82.469z
	 M103.117,84.49l1.479-1.48l0.689,0.69c-0.623,0.429-1.271,0.774-1.926,1.035L103.117,84.49z M102.432,79.563l-1.436-1.438
	l1.479-1.479l1.438,1.437L102.432,79.563z M104.598,78.768l1.438,1.437l-1.48,1.48l-1.437-1.438L104.598,78.768z M100.311,77.441
	l-1.436-1.438l1.48-1.479l1.436,1.436L100.311,77.441z M99.67,78.083l-1.479,1.48l-1.438-1.438l1.48-1.479L99.67,78.083z
	 M100.355,78.768l1.436,1.437l-1.48,1.48l-1.436-1.438L100.355,78.768z M102.477,80.889l1.438,1.437l-1.48,1.479l-1.436-1.438
	L102.477,80.889z M106.675,79.563l-1.437-1.438l1.479-1.479l1.438,1.437L106.675,79.563z M104.554,77.441l-1.437-1.438l1.479-1.479
	l1.438,1.436L104.554,77.441z M102.432,75.32l-1.436-1.436l1.479-1.48l1.438,1.436L102.432,75.32z M97.549,75.961l-1.479,1.48
	l-0.225-0.223c0.262-0.655,0.607-1.305,1.036-1.926L97.549,75.961z M96.112,78.768l1.437,1.437l-1.934,1.936
	c-0.289-0.779-0.396-1.646-0.329-2.544L96.112,78.768z M98.233,80.889l1.437,1.437l-2.171,2.171c-0.28-0.181-0.548-0.383-0.79-0.624
	c-0.248-0.249-0.457-0.526-0.642-0.815L98.233,80.889z M109.604,76.633l-0.81,0.811l-1.437-1.438l1.898-1.898
	C109.553,74.879,109.666,75.738,109.604,76.633z M108.802,73.193l-2.127,2.127l-1.437-1.436l2.122-2.123
	c0.29,0.186,0.566,0.394,0.815,0.643C108.419,72.646,108.621,72.913,108.802,73.193z M106.442,71.311l-1.891,1.889l-1.437-1.438
	l0.781-0.78C104.799,70.914,105.664,71.021,106.442,71.311z M94.056,86.746c-0.028-0.044-0.048-0.096-0.087-0.135l-0.027-0.028
	c-0.039-0.039-0.092-0.057-0.136-0.087c0.493-0.736,1.134-1.89,1.426-3.223c0.243,0.434,0.542,0.838,0.9,1.198
	c0.339,0.34,0.715,0.627,1.12,0.862C95.987,85.644,94.814,86.272,94.056,86.746z"/>
<circle fill="#434343" cx="107.525" cy="91.047" r="1.953"/>
</svg>
