<?xml version="1.0" encoding="utf-8"?>
<!-- Generator: Adobe Illustrator 15.0.0, SVG Export Plug-In . SVG Version: 6.00 Build 0)  -->
<!DOCTYPE svg PUBLIC "-//W3C//DTD SVG 1.0//EN" "http://www.w3.org/TR/2001/REC-SVG-20010904/DTD/svg10.dtd">
<svg version="1.0" id="Layer_1" xmlns="http://www.w3.org/2000/svg" xmlns:xlink="http://www.w3.org/1999/xlink" x="0px" y="0px"
	 width="220px" height="227px" viewBox="0 0 220 227" enable-background="new 0 0 220 227" xml:space="preserve">
<g>
	<path fill="#434343" d="M152.031,133.5h-8.938c0,0,4.281-8.906-2.094-8.906c0-1.031,0-2.969,0-2.969h17c0,0,0.125,1.812-3,4
		C150.188,128.992,152.031,133.5,152.031,133.5z"/>
	<rect x="140" y="109.615" fill="#434343" width="5.969" height="0.822"/>
	<rect x="147.083" y="118.604" fill="#434343" width="11.792" height="1.771"/>
	<path fill="#434343" d="M145.449,111.625h-4.898c-0.27,0-0.488,0.361-0.488,0.807v7.241c0,0.446,0.221,0.809,0.488,0.809h4.898
		c0.27,0,0.486-0.36,0.486-0.809v-7.241C145.938,111.986,145.719,111.625,145.449,111.625z M145,114.542h-2.041v-1.084H145V114.542z
		"/>
</g>
</svg>
