<?xml version="1.0" encoding="utf-8"?>
<!-- Generator: Adobe Illustrator 15.0.0, SVG Export Plug-In . SVG Version: 6.00 Build 0)  -->
<!DOCTYPE svg PUBLIC "-//W3C//DTD SVG 1.0//EN" "http://www.w3.org/TR/2001/REC-SVG-20010904/DTD/svg10.dtd">
<svg version="1.0" id="Layer_1" xmlns="http://www.w3.org/2000/svg" xmlns:xlink="http://www.w3.org/1999/xlink" x="0px" y="0px"
	 width="220px" height="227px" viewBox="0 0 220 227" enable-background="new 0 0 220 227" xml:space="preserve">
<g>
	<path fill="#434343" d="M107.98,107.584c-1.071,0-1.938,0.896-1.938,2l-0.257,2.008H86.863c-0.479,0-0.863,0.443-0.863,0.992
		c0,0.207,1.973,8.209,1.973,8.209c0.061,0.257,0.251,0.446,0.495,0.552c0.12,0.073,0.251,0.124,0.396,0.124h15.643l-0.259,2.039
		H89.864c-0.479,0-0.863,0.443-0.863,0.992s0.387,0.992,0.863,0.992h1.18c0,0.003-0.001,0.005-0.001,0.005
		c0,1.062,0.867,2.003,1.938,2.003c1.069,0,1.937-0.941,1.937-2c0,0-0.001-0.005-0.001-0.008h5.127c0,0.003-0.001,0.005-0.001,0.005
		c0,1.062,0.867,2.003,1.938,2.003c1.068,0,1.937-0.941,1.937-2c0,0-0.001-0.005-0.001-0.008l2.021,0.008l1.789-13.942
		c0.084,0.013,0.167,0.026,0.254,0.026c1.068,0,1.937-0.896,1.937-2C109.917,108.479,109.051,107.584,107.98,107.584z
		 M91.027,119.592h-1.322l-0.471-2.141h1.793V119.592z M91.028,115.592h-2.255l-0.473-2.141h2.728V115.592z M94.033,119.592H91.92
		v-2.141h2.113V119.592z M94.034,115.592h-2.113v-2.141h2.113V115.592z M97.039,119.592h-2.113v-2.141h2.113V119.592z
		 M97.039,115.592h-2.113v-2.141h2.113V115.592z M100.045,119.592h-2.113v-2.141h2.113V119.592z M100.045,115.592h-2.113v-2.141
		h2.113V115.592z M103.051,119.592h-2.111v-2.141h2.111V119.592z M103.049,115.592h-2.111v-2.141h2.111V115.592z M104.791,119.592
		h-0.848v-2.141h1.104L104.791,119.592z M105.304,115.592h-1.359v-2.141h1.619L105.304,115.592z"/>
	<path fill="#434343" d="M95.512,110.309c0.271,0.271,0.712,0.271,0.985-0.004l2.278-2.673c0.271-0.272,0.273-0.714,0.006-0.983
		l-1.812,0.371l0.021-2.436c0.003-0.551-0.439-0.992-0.989-0.989c-0.551,0.003-0.999,0.451-1.001,1.002l0.031,2.396l-1.781-0.344
		c-0.273,0.271-0.274,0.715-0.003,0.984L95.512,110.309z"/>
</g>
</svg>
