<?xml version="1.0" encoding="utf-8"?>
<!-- Generator: Adobe Illustrator 15.0.0, SVG Export Plug-In . SVG Version: 6.00 Build 0)  -->
<!DOCTYPE svg PUBLIC "-//W3C//DTD SVG 1.0//EN" "http://www.w3.org/TR/2001/REC-SVG-20010904/DTD/svg10.dtd">
<svg version="1.0" id="Layer_1" xmlns="http://www.w3.org/2000/svg" xmlns:xlink="http://www.w3.org/1999/xlink" x="0px" y="0px"
	 width="220px" height="227px" viewBox="0 0 220 227" enable-background="new 0 0 220 227" xml:space="preserve">
<g>
	<path fill="#434343" d="M109,90.688v4.625h18.968v-4.625H109z M111.41,94.032c-0.59,0-1.069-0.456-1.069-1.017
		s0.479-1.018,1.069-1.018c0.592,0,1.07,0.457,1.07,1.018S112.002,94.032,111.41,94.032z M115.296,93.938
		c-0.529,0-0.961-0.413-0.961-0.923c0-0.51,0.432-0.924,0.961-0.924c0.531,0,0.961,0.414,0.961,0.924
		C116.257,93.525,115.827,93.938,115.296,93.938z"/>
	<path fill="#434343" d="M109,114.5h18.968V96.688H109V114.5z M118.533,100.406c3.073,0,5.563,2.512,5.563,5.608
		c0,3.099-2.49,5.61-5.563,5.61s-5.565-2.512-5.565-5.61C112.968,102.918,115.46,100.406,118.533,100.406z"/>
	<path fill="#434343" d="M118.52,110.511c2.464,0,4.459-2.006,4.459-4.479c0-2.474-1.995-4.479-4.459-4.479
		c-2.463,0-4.459,2.004-4.459,4.479C114.061,108.506,116.057,110.511,118.52,110.511z M118.52,102.464
		c1.798,0,3.276,1.342,3.516,3.08c-0.068-0.029-0.143-0.048-0.22-0.048c-0.293,0-0.533,0.239-0.533,0.534
		c0,0.296,0.24,0.536,0.533,0.536c0.077,0,0.149-0.02,0.22-0.048c-0.237,1.739-2.175-0.913-3.972-0.913
		c-1.962,0-3.096,2.396-3.096,0.425C114.968,104.062,116.558,102.464,118.52,102.464z"/>
</g>
</svg>
