<?xml version="1.0" encoding="utf-8"?>
<!-- Generator: Adobe Illustrator 15.0.0, SVG Export Plug-In . SVG Version: 6.00 Build 0)  -->
<!DOCTYPE svg PUBLIC "-//W3C//DTD SVG 1.0//EN" "http://www.w3.org/TR/2001/REC-SVG-20010904/DTD/svg10.dtd">
<svg version="1.0" id="Layer_1" xmlns="http://www.w3.org/2000/svg" xmlns:xlink="http://www.w3.org/1999/xlink" x="0px" y="0px"
	 width="220px" height="227px" viewBox="0 0 220 227" enable-background="new 0 0 220 227" xml:space="preserve">
<g>
	<path fill="#434343" d="M113.366,96.181c-1.54-2.834-4.049-4.681-6.883-4.681c-2.784,0-5.257,1.781-6.805,4.531
		c2.146,0.871,4.522,1.362,7.028,1.362C109.071,97.394,111.322,96.96,113.366,96.181z"/>
	<path fill="#434343" d="M98.207,107.798c0.846,5.123,4.228,7.702,8.276,7.702c3.979,0,7.31-2.494,8.226-7.441
		c-2.401,1.209-5.339,2.084-8.219,2.084C103.407,110.143,100.729,109.169,98.207,107.798z"/>
	<path fill="#434343" d="M100.981,103.188c1.024,0,2.015-0.397,2.709-1.09l0.212-0.212l0.215,0.212
		c0.691,0.693,1.68,1.09,2.707,1.09c1.002,0,1.938-0.362,2.636-1.018l0.208-0.194l0.207,0.194c0.698,0.655,1.636,1.018,2.637,1.018
		c0.87,0,1.7-0.289,2.364-0.8c-0.182-1.764-0.63-3.403-1.28-4.835c-2.113,0.868-4.441,1.35-6.887,1.35
		c-2.59,0-5.048-0.545-7.263-1.514c-0.642,1.356-1.086,2.909-1.3,4.58l0.102,0.105C98.944,102.781,99.94,103.188,100.981,103.188z
		 M112.448,98.723l1.489,1.34l-1.489,1.34l-1.49-1.34L112.448,98.723z M106.5,99.569l1.49,1.34l-1.49,1.341l-1.491-1.341
		L106.5,99.569z M100.531,98.719l1.49,1.34l-1.49,1.34l-1.49-1.34L100.531,98.719z"/>
	<path fill="#434343" d="M114.924,103.852c-0.709,0.371-1.542,0.711-2.412,0.711c-1.062,0-2.062-0.421-2.844-0.953
		c-0.781,0.532-1.78,0.953-2.844,0.953c-1.088,0-2.135-0.448-2.922-1.01c-0.786,0.562-1.835,1.01-2.921,1.01
		c-1.085,0-2.126-0.445-2.909-1.004c-0.045,0.417-0.072,0.839-0.072,1.269c0,0.552,0.047,1.067,0.118,1.564
		c2.521,1.185,5.238,2.05,8.372,2.05c2.936,0,5.918-0.781,8.328-1.829c0.095-0.562,0.147-1.152,0.147-1.785
		C114.968,104.497,114.95,104.174,114.924,103.852z M103.5,106.95c-0.715,0-1.295-0.443-1.295-0.991c0-0.546,0.58-0.99,1.295-0.99
		s1.293,0.444,1.293,0.99C104.793,106.507,104.215,106.95,103.5,106.95z M109.562,106.981c-0.717,0-1.297-0.443-1.297-0.991
		c0-0.546,0.58-0.99,1.297-0.99c0.715,0,1.293,0.444,1.293,0.99C110.855,106.538,110.277,106.981,109.562,106.981z"/>
</g>
</svg>
