<?xml version="1.0" encoding="utf-8"?>
<!-- Generator: Adobe Illustrator 15.0.0, SVG Export Plug-In . SVG Version: 6.00 Build 0)  -->
<!DOCTYPE svg PUBLIC "-//W3C//DTD SVG 1.0//EN" "http://www.w3.org/TR/2001/REC-SVG-20010904/DTD/svg10.dtd">
<svg version="1.0" id="Layer_1" xmlns="http://www.w3.org/2000/svg" xmlns:xlink="http://www.w3.org/1999/xlink" x="0px" y="0px"
	 width="220px" height="227px" viewBox="0 0 220 227" enable-background="new 0 0 220 227" xml:space="preserve">
<g>
	<polygon fill="#434343" points="105.06,118.5 105.65,120.316 107.562,120.316 106.016,121.441 106.606,123.261 105.06,122.137 
		103.513,123.261 104.104,121.441 102.557,120.316 104.469,120.316 	"/>
	<g>
		<path fill="#434343" d="M110.159,136.688l2.807,0.592l-4.773-6.618l3.053,0.594l-6.186-7.829l-6.186,7.829l3.053-0.594
			l-4.773,6.618l2.807-0.592l-4.529,5.717h19.258L110.159,136.688z M101.826,139.77c-0.685,0-1.238-0.557-1.238-1.234
			c0-0.684,0.554-1.238,1.238-1.238c0.682,0,1.234,0.557,1.234,1.238C103.061,139.213,102.508,139.77,101.826,139.77z
			 M105.06,134.361c-0.659,0-1.193-0.533-1.193-1.192c0-0.66,0.534-1.196,1.193-1.196c0.659,0,1.193,0.536,1.193,1.196
			C106.253,133.828,105.719,134.361,105.06,134.361z M105.06,128.577c-0.66,0-1.194-0.534-1.194-1.194s0.534-1.193,1.194-1.193
			s1.194,0.533,1.194,1.193S105.72,128.577,105.06,128.577z M108.295,139.895c-0.753,0-1.361-0.611-1.361-1.359
			c0-0.752,0.608-1.363,1.361-1.363c0.752,0,1.361,0.611,1.361,1.363C109.656,139.282,109.047,139.895,108.295,139.895z"/>
		<ellipse fill="#434343" cx="114.062" cy="138.372" rx="0.965" ry="0.901"/>
		<ellipse fill="#434343" cx="95.982" cy="138.429" rx="0.963" ry="0.89"/>
		<ellipse fill="#434343" cx="98.009" cy="132.36" rx="0.933" ry="0.9"/>
		<ellipse fill="#434343" cx="112.018" cy="132.373" rx="0.922" ry="0.969"/>
	</g>
</g>
</svg>
