<?xml version="1.0" encoding="utf-8"?>
<!-- Generator: Adobe Illustrator 15.0.0, SVG Export Plug-In . SVG Version: 6.00 Build 0)  -->
<!DOCTYPE svg PUBLIC "-//W3C//DTD SVG 1.0//EN" "http://www.w3.org/TR/2001/REC-SVG-20010904/DTD/svg10.dtd">
<svg version="1.0" id="Layer_1" xmlns="http://www.w3.org/2000/svg" xmlns:xlink="http://www.w3.org/1999/xlink" x="0px" y="0px"
	 width="109.753px" height="99.815px" viewBox="0 0 109.753 99.815" enable-background="new 0 0 109.753 99.815"
	 xml:space="preserve">
<path fill="none" stroke="#414042" stroke-width="2" stroke-miterlimit="10" d="M42.186,11.761c4.233-2.42,9.134-3.802,14.356-3.802
	c16.017,0,29,13.002,29,29.042s-12.983,29.042-29,29.042c-16.016,0-29-13.002-29-29.042c0-6.377,2.053-12.275,5.533-17.066"/>
<path fill="none" stroke="#414042" stroke-width="2" stroke-miterlimit="10" d="M53.573,24.875c0.004-0.391,0.008-0.674,0.008-0.825
	c0-1.684,1.325-3.05,2.96-3.05s2.96,1.366,2.96,3.05c0,1.687,0.479,19.867-2.96,19.867c-2.021,0-2.688-6.273-2.896-11.792"/>
<ellipse fill="none" stroke="#414042" stroke-width="2" stroke-miterlimit="10" cx="56.542" cy="52" rx="2.959" ry="3"/>
</svg>
