<?xml version="1.0" encoding="utf-8"?>
<!-- Generator: Adobe Illustrator 15.0.0, SVG Export Plug-In . SVG Version: 6.00 Build 0)  -->
<!DOCTYPE svg PUBLIC "-//W3C//DTD SVG 1.0//EN" "http://www.w3.org/TR/2001/REC-SVG-20010904/DTD/svg10.dtd">
<svg version="1.0" id="Layer_1" xmlns="http://www.w3.org/2000/svg" xmlns:xlink="http://www.w3.org/1999/xlink" x="0px" y="0px"
	 width="109.753px" height="99.815px" viewBox="0 0 109.753 99.815" enable-background="new 0 0 109.753 99.815"
	 xml:space="preserve">
<g>
	<path fill="none" stroke="#414042" stroke-width="2" stroke-miterlimit="10" d="M83.643,44.728c0,2.896-4.812,5.342-9.602,5.342
		c-2.193,0-4.209-0.702-5.84-1.875c-0.188,0.031-0.373,0.064-0.562,0.096c-2.298,1.815-5.541,2.954-9.146,2.954
		c-3.605,0-6.849-1.139-9.146-2.954c-0.15-0.023-0.298-0.051-0.448-0.076c-1.625,1.16-3.632,1.854-5.812,1.854
		c-4.748,0-10.581-0.444-10.581-3.225c-0.299-0.209-0.588-0.422-0.867-0.638c-2.844-1.511-3.811-3.999-4.021-7.293
		c-0.046-0.354-0.079-0.709-0.079-1.069c0-7.953,11.447-14.537,26.367-15.672c1.496-0.114,7.653-0.115,9.142-0.001
		c13.913,1.049,24.812,6.84,26.237,14.062c0.16,0.677,0.254,1.377,0.254,2.101l-9.267,37.552c0,0.651-0.517,1.179-1.151,1.179
		H37.864c-0.637,0-1.153-0.527-1.153-1.179l-5.574-22.409"/>
</g>
</svg>
