<?xml version="1.0" encoding="utf-8"?>
<!-- Generator: Adobe Illustrator 15.0.0, SVG Export Plug-In . SVG Version: 6.00 Build 0)  -->
<!DOCTYPE svg PUBLIC "-//W3C//DTD SVG 1.0//EN" "http://www.w3.org/TR/2001/REC-SVG-20010904/DTD/svg10.dtd">
<svg version="1.0" id="Layer_1" xmlns="http://www.w3.org/2000/svg" xmlns:xlink="http://www.w3.org/1999/xlink" x="0px" y="0px"
	 width="109.753px" height="99.815px" viewBox="0 0 109.753 99.815" enable-background="new 0 0 109.753 99.815"
	 xml:space="preserve">
<g>
	<line fill="none" stroke="#414042" stroke-width="2" stroke-miterlimit="10" x1="27.006" y1="75.395" x2="89.006" y2="75.395"/>
	<path fill="none" stroke="#414042" stroke-width="2" stroke-miterlimit="10" d="M54.069,71.417c-0.554,0-1-0.451-1-1.008V31.458
		c0-0.557,0.446-1.008,1-1.008h12c0.553,0,1,0.451,1,1.008"/>
	<path fill="none" stroke="#414042" stroke-width="2" stroke-miterlimit="10" d="M33.069,71.417c-0.554,0-1-0.451-1-1.008V41.395
		c0-0.556,0.446-1.007,1-1.007h12c0.553,0,1,0.451,1,1.007"/>
	<path fill="none" stroke="#414042" stroke-width="2" stroke-miterlimit="10" d="M73.069,71.417c-0.554,0-1-0.451-1-1.008V50.395
		c0-0.556,0.446-1.007,1-1.007h12c0.553,0,1,0.451,1,1.007"/>
	<polyline fill="none" stroke="#414042" stroke-width="2" stroke-miterlimit="10" points="38.006,33.395 59.006,15.395 
		80.006,35.395 	"/>
	<polyline fill="none" stroke="#414042" stroke-width="2" stroke-miterlimit="10" points="81.006,30.395 81.006,36.395 
		75.006,36.395 	"/>
</g>
</svg>
