<?xml version="1.0" encoding="utf-8"?>
<!-- Generator: Adobe Illustrator 15.0.0, SVG Export Plug-In . SVG Version: 6.00 Build 0)  -->
<!DOCTYPE svg PUBLIC "-//W3C//DTD SVG 1.0//EN" "http://www.w3.org/TR/2001/REC-SVG-20010904/DTD/svg10.dtd">
<svg version="1.0" id="Layer_1" xmlns="http://www.w3.org/2000/svg" xmlns:xlink="http://www.w3.org/1999/xlink" x="0px" y="0px"
	 width="109.753px" height="99.815px" viewBox="0 0 109.753 99.815" enable-background="new 0 0 109.753 99.815"
	 xml:space="preserve">
<path fill="none" stroke="#414042" stroke-width="2" stroke-miterlimit="10" d="M49.438,34.009l-5.922,0.002
	c0-9.042,17.235-10.073,17.235-10.073c11.396,0,15.663,0.948,15.663,1.886v31.437c0,4.614-1.684,7.698-5.623,7.698H43.522L43.54,58
	h16.94c3.998,0,3.998-4.458,3.998-5.024V46V35.024c0-0.566-0.444-1.024-0.998-1.024h-2.793"/>
<path fill="none" stroke="#414042" stroke-width="2" stroke-miterlimit="10" d="M57.604,50.058c0,0.52-0.454,0.942-1.017,0.942
	H47.56c-0.562,0-1.018-0.422-1.018-0.942v-3.179c0-0.52,0.455-0.941,1.018-0.941h9.027c0.562,0,1.017,0.421,1.017,0.941V50.058z"/>
<rect x="48.479" y="51.042" fill="none" stroke="#414042" stroke-width="2" stroke-miterlimit="10" width="7" height="3.021"/>
<rect x="48.479" y="66.042" fill="none" stroke="#414042" stroke-width="2" stroke-miterlimit="10" width="7" height="3.021"/>
<rect x="48.479" y="73.042" fill="none" stroke="#414042" stroke-width="2" stroke-miterlimit="10" width="7" height="3.021"/>
<rect x="44.479" y="80.042" fill="none" stroke="#414042" stroke-width="2" stroke-miterlimit="10" width="15" height="7.021"/>
<polyline fill="none" stroke="#414042" stroke-width="2" stroke-miterlimit="10" points="66.375,85 59.562,85 59.562,82 "/>
<line fill="none" stroke="#414042" stroke-width="2" stroke-miterlimit="10" x1="44.562" y1="85" x2="37.562" y2="85"/>
</svg>
