<?xml version="1.0" encoding="utf-8"?>
<!-- Generator: Adobe Illustrator 15.0.0, SVG Export Plug-In . SVG Version: 6.00 Build 0)  -->
<!DOCTYPE svg PUBLIC "-//W3C//DTD SVG 1.0//EN" "http://www.w3.org/TR/2001/REC-SVG-20010904/DTD/svg10.dtd">
<svg version="1.0" id="Layer_1" xmlns="http://www.w3.org/2000/svg" xmlns:xlink="http://www.w3.org/1999/xlink" x="0px" y="0px"
	 width="109.753px" height="99.815px" viewBox="0 0 109.753 99.815" enable-background="new 0 0 109.753 99.815"
	 xml:space="preserve">
<path fill="none" stroke="#414042" stroke-width="2" stroke-miterlimit="10" d="M109.753,26"/>
<path fill="none" stroke="#414042" stroke-width="2" stroke-miterlimit="10" d="M82.5,62.396C82.5,66.043,71.531,69,58,69
	s-24.5-2.956-24.5-6.604"/>
<path fill="none" stroke="#414042" stroke-width="2" stroke-miterlimit="10" d="M82.5,45.756C82.5,49.204,71.531,52,58,52
	s-24.5-2.795-24.5-6.244"/>
<path fill="none" stroke="#414042" stroke-width="2" stroke-miterlimit="10" d="M72.348,82.843C68.315,83.571,63.359,84,58,84
	c-3.369,0-6.579-0.169-9.5-0.477c-8.812-0.926-15-3.101-15-5.635c0-0.211,0-21.323,0-36.89"/>
<path fill="none" stroke="#414042" stroke-width="2" stroke-miterlimit="10" d="M82.5,30.218C82.5,33.412,71.531,36,58,36
	s-24.5-2.588-24.5-5.782v-2.106C33.5,24.736,44.469,22,58,22s24.5,2.736,24.5,6.111c0,0.117,0,49.459,0,49.777
	c0,1.212-1.414,2.342-3.854,3.291"/>
<line fill="none" stroke="#333333" stroke-width="2" stroke-miterlimit="10" x1="78.562" y1="76.938" x2="66.562" y2="76.938"/>
<polyline fill="none" stroke="#333333" stroke-width="2" stroke-miterlimit="10" points="74.562,72 78.5,76.938 74.562,82 "/>
</svg>
