<?xml version="1.0" encoding="utf-8"?>
<!-- Generator: Adobe Illustrator 15.0.0, SVG Export Plug-In . SVG Version: 6.00 Build 0)  -->
<!DOCTYPE svg PUBLIC "-//W3C//DTD SVG 1.0//EN" "http://www.w3.org/TR/2001/REC-SVG-20010904/DTD/svg10.dtd">
<svg version="1.0" id="Layer_1" xmlns="http://www.w3.org/2000/svg" xmlns:xlink="http://www.w3.org/1999/xlink" x="0px" y="0px"
	 width="109.753px" height="99.815px" viewBox="0 0 109.753 99.815" enable-background="new 0 0 109.753 99.815"
	 xml:space="preserve">
<path fill="none" stroke="#414042" stroke-width="2" stroke-miterlimit="10" d="M109.753,26"/>
<path fill="none" stroke="#414042" stroke-width="2" stroke-miterlimit="10" d="M79.5,61.396C79.5,65.043,68.531,68,55,68
	s-24.5-2.956-24.5-6.604"/>
<path fill="none" stroke="#414042" stroke-width="2" stroke-miterlimit="10" d="M79.5,44.756C79.5,48.204,68.531,51,55,51
	s-24.5-2.795-24.5-6.244"/>
<path fill="none" stroke="#414042" stroke-width="2" stroke-miterlimit="10" d="M66.412,82.298C63.004,82.746,59.121,83,55,83
	c-3.369,0-6.578-0.169-9.5-0.477c-8.812-0.926-15-3.101-15-5.635c0-0.211,0-21.323,0-36.89"/>
<path fill="none" stroke="#414042" stroke-width="2" stroke-miterlimit="10" d="M79.5,29.218C79.5,32.412,68.531,35,55,35
	s-24.5-2.588-24.5-5.782v-2.106C30.5,23.736,41.469,21,55,21s24.5,2.736,24.5,6.111c0,0.117,0,49.459,0,49.777
	c0,1.51-2.193,2.892-5.829,3.957"/>
<line fill="none" stroke="#333333" stroke-width="2" stroke-miterlimit="10" x1="63.5" y1="77" x2="75.5" y2="77"/>
<line fill="none" stroke="#333333" stroke-width="2" stroke-miterlimit="10" x1="69.5" y1="71" x2="69.5" y2="83"/>
</svg>
