<?xml version="1.0" encoding="utf-8"?>
<!-- Generator: Adobe Illustrator 15.0.0, SVG Export Plug-In . SVG Version: 6.00 Build 0)  -->
<!DOCTYPE svg PUBLIC "-//W3C//DTD SVG 1.0//EN" "http://www.w3.org/TR/2001/REC-SVG-20010904/DTD/svg10.dtd">
<svg version="1.0" id="Layer_1" xmlns="http://www.w3.org/2000/svg" xmlns:xlink="http://www.w3.org/1999/xlink" x="0px" y="0px"
	 width="109.753px" height="99.815px" viewBox="0 0 109.753 99.815" enable-background="new 0 0 109.753 99.815"
	 xml:space="preserve">
<path fill="none" stroke="#414042" stroke-width="2" stroke-miterlimit="10" d="M109.753,26"/>
<g>
	<path fill="none" stroke="#333333" stroke-width="2" stroke-miterlimit="10" d="M28.5,37.062v2.545c0,2.414,2.018,4.371,4.5,4.371
		h14.186c2.097,0,4.343-2.824,4.343-2.824s3.845,0.647,5.137,5.017c0,0,1.312,3.561,3.127,7.312
		c1.818,3.752,4.142,7.695,6.164,8.465c2.377,0,4.31,0.179,4.31-4.369l-2.154-5.906c0,0-1.273-7.786,7.74-7.786
		c3.711,0,7.229,0,7.229,0c2.486,0,4.504-2.076,4.504-4.506c0,0,0.168-2.432-2.166-2.432s-5.916,0-5.916,0v-4.016h5.666
		c0.066,0,0.121-0.035,0.186-0.041c1.186-0.104,2.123-1.117,2.123-2.389c0-0.989-0.566-1.928-1.375-2.306
		c-0.284-0.136-0.6-0.22-0.934-0.22H79.5v-3.052h3.75c0.062,0,0.116-0.033,0.18-0.038c1.188-0.102,2.129-1.118,2.129-2.39
		c0-0.988-0.568-1.927-1.375-2.306c-0.288-0.135-0.602-0.216-0.934-0.216H79.5v-3.03h3.09v-0.361c0-2.431-2.19-3.587-4.68-3.587
		c0,0-2.162,0-7.91,0c-5.75,0-9.421,2.2-11.689,3.709c-1.188,0.788-2.69,1.388-4.762,1.388l-1.862-0.063v-0.661
		c0-2.414-2.015-4.371-4.5-4.371H33c-2.482,0-4.5,1.957-4.5,4.371V28"/>
	<line fill="none" stroke="#333333" stroke-width="2" stroke-miterlimit="10" x1="48.582" y1="39.812" x2="48.582" y2="16.949"/>
	<path fill="none" stroke="#333333" stroke-width="2" stroke-miterlimit="10" d="M31.619,19.938c0-1.65,1.333-2.988,2.977-2.988
		c1.646,0,2.978,1.338,2.978,2.988c0,1.651-1.332,2.989-2.978,2.989"/>
</g>
</svg>
