<?xml version="1.0" encoding="utf-8"?>
<!-- Generator: Adobe Illustrator 15.0.0, SVG Export Plug-In . SVG Version: 6.00 Build 0)  -->
<!DOCTYPE svg PUBLIC "-//W3C//DTD SVG 1.0//EN" "http://www.w3.org/TR/2001/REC-SVG-20010904/DTD/svg10.dtd">
<svg version="1.0" id="Layer_1" xmlns="http://www.w3.org/2000/svg" xmlns:xlink="http://www.w3.org/1999/xlink" x="0px" y="0px"
	 width="109.753px" height="99.815px" viewBox="0 0 109.753 99.815" enable-background="new 0 0 109.753 99.815"
	 xml:space="preserve">
<path fill="none" stroke="#414042" stroke-width="2" stroke-miterlimit="10" d="M109.753,26"/>
<g>
	<path fill="none" stroke="#414042" stroke-width="2" stroke-miterlimit="10" d="M40.48,54.875v-24.5
		c0-0.737,0.596-1.333,1.331-1.333h53.375c0.736,0,1.334,0.596,1.334,1.333v31.292c0,0.736-0.598,1.333-1.334,1.333H35.833
		c-0.736,0-1.333-0.597-1.333-1.333V18.375c0-0.737,0.598-1.333,1.333-1.333h21.979c0.736,0,1.334,0.596,1.334,1.333l5.334,5.333"/>
	<g>
		<ellipse fill="none" stroke="#414042" stroke-width="2" stroke-miterlimit="10" cx="67.453" cy="41.021" rx="4.967" ry="4.98"/>
		<path fill="none" stroke="#414042" stroke-width="2" stroke-miterlimit="10" d="M55.438,58c0-4.418,5.388-8,12.031-8
			c6.646,0,12.031,3.582,12.031,8"/>
	</g>
</g>
</svg>
