<?xml version="1.0" encoding="utf-8"?>
<!-- Generator: Adobe Illustrator 15.0.0, SVG Export Plug-In . SVG Version: 6.00 Build 0)  -->
<!DOCTYPE svg PUBLIC "-//W3C//DTD SVG 1.0//EN" "http://www.w3.org/TR/2001/REC-SVG-20010904/DTD/svg10.dtd">
<svg version="1.0" id="Layer_1" xmlns="http://www.w3.org/2000/svg" xmlns:xlink="http://www.w3.org/1999/xlink" x="0px" y="0px"
	 width="109.753px" height="99.815px" viewBox="0 0 109.753 99.815" enable-background="new 0 0 109.753 99.815"
	 xml:space="preserve">
<path fill="none" stroke="#414042" stroke-width="2" stroke-miterlimit="10" d="M109.753,26"/>
<path fill="none" stroke="#333333" stroke-width="2" stroke-miterlimit="10" d="M84.48,19.535c-0.438,0.572-0.322,1.387,0.252,1.816
	c1.36,1.026,3.766,4.814,2.85,7.147s-2.584,3.915-5.396,4.659c-1.822,0.479-3.718,0.617-5.557,0.748
	c-3.402,0.243-6.923,0.496-10.247,2.868c-3.941,2.817-5.282,5.993-4.802,10.142h-8.242c0,0-1.288-4.917-7.763-4.917
	s-7.771,8.105-7.771,8.105l-5.181,23.148c0,4.29,3.238,7.771,7.771,7.771c4.026,0,7.207-6.643,8.929-11.246
	c0.89,0.552,1.927,0.886,3.05,0.886c2.995,0,5.436-1.839,5.762-4.748h10.654c0.326,2.909,2.767,4.748,5.762,4.748
	c1.223,0,2.355-0.379,3.291-1.021c1.692,4.604,4.833,11.382,8.688,11.382c5.828,0,7.771-3.48,7.771-7.771l-5.182-23.148
	c0,0-0.971-8.105-7.771-8.105c-6.799,0-7.286,4.917-7.286,4.917h-2.344"/>
<path fill="none" stroke="#333333" stroke-width="2" stroke-miterlimit="10" d="M47.292,62.041
	c-2.619-0.127-4.703-2.311-4.703-4.988c0-2.758,2.213-4.993,4.943-4.993c2.657,0,4.825,2.118,4.938,4.774"/>
<line fill="none" stroke="#333333" stroke-width="2" stroke-miterlimit="10" x1="77.708" y1="51" x2="80.5" y2="51"/>
<line fill="none" stroke="#333333" stroke-width="2" stroke-miterlimit="10" x1="77.708" y1="60.958" x2="80.5" y2="60.958"/>
<line fill="none" stroke="#333333" stroke-width="2" stroke-miterlimit="10" x1="72.708" y1="55.958" x2="75.5" y2="55.958"/>
<line fill="none" stroke="#333333" stroke-width="2" stroke-miterlimit="10" x1="82.707" y1="55.958" x2="85.5" y2="55.958"/>
</svg>
