<?xml version="1.0" encoding="utf-8"?>
<!-- Generator: Adobe Illustrator 15.0.0, SVG Export Plug-In . SVG Version: 6.00 Build 0)  -->
<!DOCTYPE svg PUBLIC "-//W3C//DTD SVG 1.0//EN" "http://www.w3.org/TR/2001/REC-SVG-20010904/DTD/svg10.dtd">
<svg version="1.0" id="Layer_1" xmlns="http://www.w3.org/2000/svg" xmlns:xlink="http://www.w3.org/1999/xlink" x="0px" y="0px"
	 width="109.753px" height="99.815px" viewBox="0 0 109.753 99.815" enable-background="new 0 0 109.753 99.815"
	 xml:space="preserve">
<path fill="none" stroke="#414042" stroke-width="2" stroke-miterlimit="10" d="M109.753,26"/>
<g>
	<path fill="none" stroke="#414042" stroke-width="2" stroke-miterlimit="10" d="M55.064,52.953l8.849-8.842l0.058-0.084
		c1.854-1.855,4.188-1.356,6.043,0.498c1.855,1.856,0.224,4.354,5.333,9.464l9.786-9.787c-5.391-5.39-7.579-3.567-9.435-5.421
		c-1.178-1.181-2.475-2.063-1.03-4.33l0.016-0.076c-11.55-16.784-32.281-8.436-32.281-8.436
		c25.922,1.095,16.644,13.113,16.644,13.113"/>
	<path fill="none" stroke="#414042" stroke-width="2" stroke-miterlimit="10" d="M48.653,48.07c0,0-7.097,5.746-11.123,9.77
		c-4.022,4.025-3.86,6.572-6.486,9.197c-2.627,2.627-6.621,3.912-6.621,3.912c-0.812,0.811-0.675,2.264,0.305,3.242l5.347,5.348
		c0.979,0.979,2.433,1.114,3.242,0.304c0,0,1.287-3.995,3.913-6.621c2.624-2.624,5.259-2.55,9.237-6.528
		c3.98-3.979,9.727-11.082,9.727-11.082c0.812-0.812,0.677-2.266-0.303-3.245"/>
</g>
</svg>
