<?xml version="1.0" encoding="utf-8"?>
<!-- Generator: Adobe Illustrator 15.0.0, SVG Export Plug-In . SVG Version: 6.00 Build 0)  -->
<!DOCTYPE svg PUBLIC "-//W3C//DTD SVG 1.0//EN" "http://www.w3.org/TR/2001/REC-SVG-20010904/DTD/svg10.dtd">
<svg version="1.0" id="Layer_1" xmlns="http://www.w3.org/2000/svg" xmlns:xlink="http://www.w3.org/1999/xlink" x="0px" y="0px"
	 width="109.753px" height="99.815px" viewBox="0 0 109.753 99.815" enable-background="new 0 0 109.753 99.815"
	 xml:space="preserve">
<path fill="none" stroke="#414042" stroke-width="2" stroke-miterlimit="10" d="M109.753,26"/>
<g>
	<path fill="none" stroke="#414042" stroke-width="2" stroke-miterlimit="10" d="M40.7,37.854c-6.096,1.479-9.947,3.65-9.947,6.076
		v4.207c0,4.46,13.014,4.944,29.065,4.944h3.874c16.048,0,29.061-0.484,29.061-4.944V43.93c0-3.812-9.515-6.999-22.295-7.846
		c-0.009-4.453-3.659-8.061-8.16-8.061h-1.087c-2.588,0-4.895,1.191-6.39,3.053c-1.073,1.334-1.729,3.013-1.77,4.842"/>
	<path fill="none" stroke="#414042" stroke-width="2" stroke-miterlimit="10" d="M66.781,18.958c0-2.738-2.25-4.958-5.028-4.958
		c-2.776,0-5.028,2.22-5.028,4.958c0,1.648,0.816,3.109,2.071,4.01c0.83,0.597,2.956,1.281,2.956,3.073s0,1.958,0,1.958"/>
</g>
</svg>
