<?xml version="1.0" encoding="utf-8"?>
<!-- Generator: Adobe Illustrator 15.0.0, SVG Export Plug-In . SVG Version: 6.00 Build 0)  -->
<!DOCTYPE svg PUBLIC "-//W3C//DTD SVG 1.0//EN" "http://www.w3.org/TR/2001/REC-SVG-20010904/DTD/svg10.dtd">
<svg version="1.0" id="Layer_1" xmlns="http://www.w3.org/2000/svg" xmlns:xlink="http://www.w3.org/1999/xlink" x="0px" y="0px"
	 width="109.753px" height="99.815px" viewBox="0 0 109.753 99.815" enable-background="new 0 0 109.753 99.815"
	 xml:space="preserve">
<path fill="none" stroke="#414042" stroke-width="2" stroke-miterlimit="10" d="M109.753,26"/>
<g>
	<path fill="none" stroke="#414042" stroke-width="2" stroke-miterlimit="10" d="M48.519,27.948l12.455-5.764
		c0.432-0.231,1.131-0.231,1.562,0l28.9,13.372c0.431,0.231,0.431,0.605,0,0.836L62.536,50.695
		c-0.433,0.231-1.132,0.231-1.562,0.001L32.075,36.392c-0.432-0.231-0.432-0.605,0-0.837l4.098-1.896"/>
	<path fill="none" stroke="#414042" stroke-width="2" stroke-miterlimit="10" d="M44.828,46.126v12.826
		c4.792,1.249,10.64,1.985,16.958,1.985s12.166-0.736,16.959-1.985V46.126"/>
	<line fill="none" stroke="#414042" stroke-width="2" stroke-miterlimit="10" x1="90.772" y1="37.004" x2="90.772" y2="50.685"/>
	<ellipse fill="none" stroke="#414042" stroke-width="2" stroke-miterlimit="10" cx="90.776" cy="53.969" rx="2.977" ry="2.969"/>
</g>
</svg>
