<?xml version="1.0" encoding="utf-8"?>
<!-- Generator: Adobe Illustrator 15.0.0, SVG Export Plug-In . SVG Version: 6.00 Build 0)  -->
<!DOCTYPE svg PUBLIC "-//W3C//DTD SVG 1.0//EN" "http://www.w3.org/TR/2001/REC-SVG-20010904/DTD/svg10.dtd">
<svg version="1.0" id="Layer_1" xmlns="http://www.w3.org/2000/svg" xmlns:xlink="http://www.w3.org/1999/xlink" x="0px" y="0px"
	 width="109.753px" height="99.815px" viewBox="0 0 109.753 99.815" enable-background="new 0 0 109.753 99.815"
	 xml:space="preserve">
<path fill="none" stroke="#414042" stroke-width="2" stroke-miterlimit="10" d="M109.753,26"/>
<path fill="none" stroke="#414042" stroke-width="2" stroke-miterlimit="10" d="M31.085,45.914c-0.77-0.78-0.77-2.047,0-2.828
	l28.562-27.5c0.769-0.781,2.017-0.781,2.787,0l28.563,27.5c0.769,0.781,0.769,2.048,0,2.828"/>
<path fill="none" stroke="#414042" stroke-width="2" stroke-miterlimit="10" d="M74.5,22.491v-4c0-0.552,0.448-1,1-1h8
	c0.552,0,1,0.448,1,1V31"/>
<path fill="none" stroke="#414042" stroke-width="2" stroke-miterlimit="10" d="M50.583,76.084H37.604
	c-1.123,0-2.033-0.898-2.033-2.006V60.006"/>
<path fill="none" stroke="#414042" stroke-width="2" stroke-miterlimit="10" d="M84.414,46c1.123,0,2.033,0.898,2.033,2.006v26.072
	c0,1.107-0.91,2.006-2.033,2.006H71.417"/>
<path fill="none" stroke="#414042" stroke-width="2" stroke-miterlimit="10" d="M54.506,76.209c-0.556,0-1.006-0.455-1.006-1.016
	V57.105c0-0.561,0.451-1.016,1.006-1.016h11.988c0.556,0,1.006,0.455,1.006,1.016v18.088c0,0.561-0.45,1.016-1.006,1.016"/>
</svg>
