<?xml version="1.0" encoding="utf-8"?>
<!-- Generator: Adobe Illustrator 15.0.0, SVG Export Plug-In . SVG Version: 6.00 Build 0)  -->
<!DOCTYPE svg PUBLIC "-//W3C//DTD SVG 1.0//EN" "http://www.w3.org/TR/2001/REC-SVG-20010904/DTD/svg10.dtd">
<svg version="1.0" id="Layer_1" xmlns="http://www.w3.org/2000/svg" xmlns:xlink="http://www.w3.org/1999/xlink" x="0px" y="0px"
	 width="109.753px" height="99.815px" viewBox="0 0 109.753 99.815" enable-background="new 0 0 109.753 99.815"
	 xml:space="preserve">
<path fill="none" stroke="#414042" stroke-width="2" stroke-miterlimit="10" d="M109.753,26"/>
<g>
	<path fill="none" stroke="#333333" stroke-width="2" stroke-miterlimit="10" d="M95.753,47v-9.659c0-2.414-2.016-4.372-4.498-4.372
		H77.067c-2.097,0-4.342,2.825-4.342,2.825s-3.845-0.647-5.137-5.017c0,0-1.312-3.561-3.128-7.312
		c-1.817-3.752-4.14-7.696-6.163-8.465c-2.376,0-4.311-0.179-4.311,4.369l2.154,5.906c0,0,1.274,7.785-7.738,7.785
		c-3.711,0-7.229,0-7.229,0c-2.488,0-4.506,2.076-4.506,4.507V40h7.911v4.015h-5.495c-0.064,0-0.121,0.036-0.185,0.041
		c-1.186,0.104-2.124,1.118-2.124,2.39c0,0.988,0.567,1.928,1.375,2.306c0.285,0.135,0.602,0.219,0.934,0.219h5.495v3.053h-3.579
		c-0.062,0-0.115,0.032-0.178,0.038c-1.188,0.102-2.129,1.117-2.129,2.39c0,0.988,0.565,1.927,1.373,2.306
		c0.287,0.135,0.602,0.215,0.934,0.215h3.579V60h-2.918v0.361c0,2.431,2.19,3.587,4.679,3.587h14.603c1.637,0,2.729-2.2,5-3.709
		c1.186-0.788,2.689-1.388,4.762-1.388l1.862,0.063v0.661c0,2.414,2.015,4.371,4.499,4.371h14.188c2.482,0,4.498-1.957,4.498-4.371"
		/>
	<line fill="none" stroke="#333333" stroke-width="2" stroke-miterlimit="10" x1="75.671" y1="37.25" x2="75.671" y2="59.583"/>
	<path fill="none" stroke="#333333" stroke-width="2" stroke-miterlimit="10" d="M92.634,57.01c0,1.651-1.332,2.989-2.977,2.989
		c-1.644,0-2.977-1.338-2.977-2.989c0-1.65,1.333-2.988,2.977-2.988"/>
</g>
</svg>
