<?xml version="1.0" encoding="utf-8"?>
<!-- Generator: Adobe Illustrator 15.0.0, SVG Export Plug-In . SVG Version: 6.00 Build 0)  -->
<!DOCTYPE svg PUBLIC "-//W3C//DTD SVG 1.0//EN" "http://www.w3.org/TR/2001/REC-SVG-20010904/DTD/svg10.dtd">
<svg version="1.0" id="Layer_1" xmlns="http://www.w3.org/2000/svg" xmlns:xlink="http://www.w3.org/1999/xlink" x="0px" y="0px"
	 width="109.753px" height="99.815px" viewBox="0 0 109.753 99.815" enable-background="new 0 0 109.753 99.815"
	 xml:space="preserve">
<path fill="none" stroke="#414042" stroke-width="2" stroke-miterlimit="10" d="M109.753,26"/>
<g>
	<polyline fill="none" stroke="#414042" stroke-width="2" stroke-miterlimit="10" points="66.562,62 66.562,87 56.531,74 46.5,87 
		46.5,70 	"/>
	<polygon fill="none" stroke="#414042" stroke-width="2" stroke-miterlimit="10" points="60.265,63.885 56.499,63.143 
		52.735,63.899 49.541,61.773 45.774,61.031 43.636,57.845 40.439,55.719 39.684,51.955 37.545,48.768 38.288,45.002 37.531,41.239 
		39.656,38.044 40.398,34.277 43.584,32.14 45.71,28.943 49.475,28.188 52.661,26.049 56.428,26.791 60.191,26.035 63.387,28.16 
		67.153,28.902 69.291,32.09 72.487,34.216 73.244,37.979 75.382,41.166 74.639,44.932 75.396,48.695 73.27,51.891 72.529,55.656 
		69.341,57.795 67.215,60.989 63.452,61.746 	"/>
	<path fill="none" stroke="#414042" stroke-width="2" stroke-miterlimit="10" d="M56.541,33C63.146,33,68.5,38.372,68.5,45
		c0,6.627-5.354,12-11.959,12c-6.604,0-11.957-5.373-11.957-12"/>
</g>
</svg>
