<?xml version="1.0" encoding="utf-8"?>
<!-- Generator: Adobe Illustrator 15.0.0, SVG Export Plug-In . SVG Version: 6.00 Build 0)  -->
<!DOCTYPE svg PUBLIC "-//W3C//DTD SVG 1.0//EN" "http://www.w3.org/TR/2001/REC-SVG-20010904/DTD/svg10.dtd">
<svg version="1.0" id="Layer_1" xmlns="http://www.w3.org/2000/svg" xmlns:xlink="http://www.w3.org/1999/xlink" x="0px" y="0px"
	 width="109.753px" height="99.815px" viewBox="0 0 109.753 99.815" enable-background="new 0 0 109.753 99.815"
	 xml:space="preserve">
<path fill="none" stroke="#414042" stroke-width="2" stroke-miterlimit="10" d="M109.753,26"/>
<g>
	<path fill="none" stroke="#414042" stroke-width="2" stroke-miterlimit="10" d="M36.41,52.331
		c-4.584-1.544-7.856-5.586-7.856-10.331V20c0-6.074,5.366-11,11.982-11l0,0c6.618,0,11.981,4.926,11.981,11v22
		c0,4.759-3.291,8.812-7.898,10.345"/>
	<path fill="none" stroke="#414042" stroke-width="2" stroke-miterlimit="10" d="M57.507,44.194C57.507,51.819,49.893,58,40.504,58
		C31.113,58,23.5,51.819,23.5,44.194"/>
	<line fill="none" stroke="#414042" stroke-width="2" stroke-miterlimit="10" x1="40.535" y1="62.062" x2="40.535" y2="66.407"/>
	<line fill="none" stroke="#414042" stroke-width="2" stroke-miterlimit="10" x1="28.623" y1="26.003" x2="36.41" y2="26.003"/>
	<line fill="none" stroke="#414042" stroke-width="2" stroke-miterlimit="10" x1="28.623" y1="20.013" x2="36.41" y2="20.013"/>
	<line fill="none" stroke="#414042" stroke-width="2" stroke-miterlimit="10" x1="28.623" y1="32.057" x2="36.41" y2="32.057"/>
	<line fill="none" stroke="#414042" stroke-width="2" stroke-miterlimit="10" x1="28.623" y1="38.048" x2="36.41" y2="38.048"/>
	<line fill="none" stroke="#414042" stroke-width="2" stroke-miterlimit="10" x1="44.623" y1="26.003" x2="52.41" y2="26.003"/>
	<line fill="none" stroke="#414042" stroke-width="2" stroke-miterlimit="10" x1="44.623" y1="20.013" x2="52.41" y2="20.013"/>
	<line fill="none" stroke="#414042" stroke-width="2" stroke-miterlimit="10" x1="44.623" y1="32.057" x2="52.41" y2="32.057"/>
	<line fill="none" stroke="#414042" stroke-width="2" stroke-miterlimit="10" x1="44.623" y1="38.048" x2="52.41" y2="38.048"/>
	<path fill="none" stroke="#414042" stroke-width="2" stroke-miterlimit="10" d="M29.491,71c0-3.631,2.595-3.944,5.796-3.944H45.72
		c3.202,0,5.796,0.313,5.796,3.944"/>
</g>
</svg>
