<?xml version="1.0" encoding="utf-8"?>
<!-- Generator: Adobe Illustrator 15.0.0, SVG Export Plug-In . SVG Version: 6.00 Build 0)  -->
<!DOCTYPE svg PUBLIC "-//W3C//DTD SVG 1.0//EN" "http://www.w3.org/TR/2001/REC-SVG-20010904/DTD/svg10.dtd">
<svg version="1.0" id="Layer_1" xmlns="http://www.w3.org/2000/svg" xmlns:xlink="http://www.w3.org/1999/xlink" x="0px" y="0px"
	 width="109.753px" height="99.815px" viewBox="0 0 109.753 99.815" enable-background="new 0 0 109.753 99.815"
	 xml:space="preserve">
<path fill="none" stroke="#414042" stroke-width="2" stroke-miterlimit="10" d="M109.753,26"/>
<g>
	<path fill="none" stroke="#414042" stroke-width="2" stroke-miterlimit="10" d="M46.496,65.799
		c-2.277,0.044-8.752,0.72-11.082,2.064c-5.697,3.29-7.365,7.334-4.958,11.503c2.408,4.168,8.976,4.881,14.673,1.591
		c4.537-2.619,6.418-6.958,6.418-10.876L51.5,69.759V22.26c0,0,24.766,9.201,24.073,27.74"/>
	<path fill="none" stroke="#414042" stroke-width="2" stroke-miterlimit="10" d="M62.5,73V56c0-0.552,0.448-1,1-1h19
		c0.552,0,1,0.448,1,1v26c0,0.552-0.448,1-1,1h-19c-0.552,0-1-0.448-1-1v-2"/>
	<line fill="none" stroke="#414042" stroke-width="2" stroke-miterlimit="10" x1="67.5" y1="62" x2="78.5" y2="62"/>
	<line fill="none" stroke="#414042" stroke-width="2" stroke-miterlimit="10" x1="67.5" y1="67" x2="78.5" y2="67"/>
	<line fill="none" stroke="#414042" stroke-width="2" stroke-miterlimit="10" x1="67.5" y1="72" x2="78.5" y2="72"/>
</g>
</svg>
