<?xml version="1.0" encoding="utf-8"?>
<!-- Generator: Adobe Illustrator 15.0.0, SVG Export Plug-In . SVG Version: 6.00 Build 0)  -->
<!DOCTYPE svg PUBLIC "-//W3C//DTD SVG 1.0//EN" "http://www.w3.org/TR/2001/REC-SVG-20010904/DTD/svg10.dtd">
<svg version="1.0" id="Layer_1" xmlns="http://www.w3.org/2000/svg" xmlns:xlink="http://www.w3.org/1999/xlink" x="0px" y="0px"
	 width="109.753px" height="99.815px" viewBox="0 0 109.753 99.815" enable-background="new 0 0 109.753 99.815"
	 xml:space="preserve">
<path fill="none" stroke="#414042" stroke-width="2" stroke-miterlimit="10" d="M109.753,26"/>
<path fill="none" stroke="#414042" stroke-width="2" stroke-miterlimit="10" d="M38.833,79H28.5c-1.104,0-2-0.896-2-2V25
	c0-1.104,0.896-2,2-2h58c1.104,0,2,0.896,2,2v52c0,1.104-0.896,2-2,2H65.833"/>
<path fill="none" stroke="#414042" stroke-width="2" stroke-miterlimit="10" d="M75.195,51.393
	c2.022,12.007-6.032,23.37-17.991,25.386c-11.958,2.016-23.293-6.081-25.315-18.086c-2.023-12.005,6.032-23.369,17.99-25.386
	c5.546-0.935,10.957,0.307,15.369,3.104"/>
<path fill="none" stroke="#414042" stroke-width="2" stroke-miterlimit="10" d="M78.5,31c0-1.656,1.343-3,3-3s3,1.344,3,3
	s-1.343,3-3,3"/>
<line fill="none" stroke="#414042" stroke-width="2" stroke-miterlimit="10" x1="79.5" y1="33" x2="65.5" y2="48"/>
<ellipse fill="none" stroke="#414042" stroke-width="2" stroke-miterlimit="10" cx="53.541" cy="54.92" rx="8.089" ry="7.997"/>
<polyline fill="none" stroke="#414042" stroke-width="2" stroke-miterlimit="10" points="84.5,74 78.5,74 78.5,72 "/>
<line fill="none" stroke="#414042" stroke-width="2" stroke-miterlimit="10" x1="82.5" y1="43" x2="82.5" y2="66"/>
<circle fill="none" stroke="#414042" stroke-width="2" stroke-miterlimit="10" cx="53.5" cy="55" r="1.875"/>
</svg>
