<?xml version="1.0" encoding="utf-8"?>
<!-- Generator: Adobe Illustrator 15.0.0, SVG Export Plug-In . SVG Version: 6.00 Build 0)  -->
<!DOCTYPE svg PUBLIC "-//W3C//DTD SVG 1.0//EN" "http://www.w3.org/TR/2001/REC-SVG-20010904/DTD/svg10.dtd">
<svg version="1.0" id="Layer_1" xmlns="http://www.w3.org/2000/svg" xmlns:xlink="http://www.w3.org/1999/xlink" x="0px" y="0px"
	 width="109.753px" height="99.815px" viewBox="0 0 109.753 99.815" enable-background="new 0 0 109.753 99.815"
	 xml:space="preserve">
<path fill="none" stroke="#414042" stroke-width="2" stroke-miterlimit="10" d="M109.753,26"/>
<path fill="none" stroke="#414042" stroke-width="2" stroke-miterlimit="10" d="M72.789,64.107h3.822c0.553,0,1-0.451,1-1.008
	V20.948c0-0.556-0.447-1.007-1-1.007h-60c-0.553,0-1,0.452-1,1.007V63.1c0,0.557,0.447,1.008,1,1.008h39"/>
<path fill="none" stroke="#414042" stroke-width="2" stroke-miterlimit="10" d="M72.439,64.006L53.632,43.2
	c-0.394-0.394-1.027-0.396-1.42-0.006l-8.426,7.427"/>
<path fill="none" stroke="#414042" stroke-width="2" stroke-miterlimit="10" d="M51.439,59.006L32.632,38.2
	c-0.394-0.394-1.027-0.396-1.42-0.006L19.787,48.622"/>
<path fill="none" stroke="#414042" stroke-width="2" stroke-miterlimit="10" d="M70.673,36.024c0,1.111-0.36,2.14-0.973,2.974
	c-0.927,1.266-2.427,2.088-4.122,2.088c-2.812,0-5.094-2.267-5.094-5.062s2.28-5.062,5.094-5.062S70.673,33.229,70.673,36.024z"/>
</svg>
