<?xml version="1.0" encoding="utf-8"?>
<!-- Generator: Adobe Illustrator 15.0.0, SVG Export Plug-In . SVG Version: 6.00 Build 0)  -->
<!DOCTYPE svg PUBLIC "-//W3C//DTD SVG 1.0//EN" "http://www.w3.org/TR/2001/REC-SVG-20010904/DTD/svg10.dtd">
<svg version="1.0" id="Layer_1" xmlns="http://www.w3.org/2000/svg" xmlns:xlink="http://www.w3.org/1999/xlink" x="0px" y="0px"
	 width="109.753px" height="99.815px" viewBox="0 0 109.753 99.815" enable-background="new 0 0 109.753 99.815"
	 xml:space="preserve">
<path fill="none" stroke="#414042" stroke-width="2" stroke-miterlimit="10" d="M109.753,26"/>
<path fill="none" stroke="#414042" stroke-width="2" stroke-miterlimit="10" d="M58.502,63.548l10.75,10.494L79.469,74v-9.094
	L61.17,45.647l3.743-4.678l-2.749-2.807l-4.688,4.495l-2.138-2.172c0.853-3.905-0.182-8.084-3.119-11.043
	c-4.676-4.711-12.405-4.567-17.256,0.321c-4.847,4.889-4.998,12.672-0.316,17.383c2.939,2.962,7.077,3.998,10.964,3.148l2.182,2.123
	l-4.398,4.497l2.808,2.768L58.251,48.25"/>
<path fill="none" stroke="#414042" stroke-width="2" stroke-miterlimit="10" d="M84.5,84.284c0,2.052-1.609,3.716-3.604,3.716
	c-1.988,0-3.603-1.664-3.603-3.716c0-2.054,3.603-5.891,3.603-5.891S84.5,82.23,84.5,84.284z"/>
</svg>
