<?xml version="1.0" encoding="utf-8"?>
<!-- Generator: Adobe Illustrator 15.0.0, SVG Export Plug-In . SVG Version: 6.00 Build 0)  -->
<!DOCTYPE svg PUBLIC "-//W3C//DTD SVG 1.0//EN" "http://www.w3.org/TR/2001/REC-SVG-20010904/DTD/svg10.dtd">
<svg version="1.0" id="Layer_1" xmlns="http://www.w3.org/2000/svg" xmlns:xlink="http://www.w3.org/1999/xlink" x="0px" y="0px"
	 width="109.753px" height="99.815px" viewBox="0 0 109.753 99.815" enable-background="new 0 0 109.753 99.815"
	 xml:space="preserve">
<path fill="none" stroke="#414042" stroke-width="2" stroke-miterlimit="10" d="M109.753,26"/>
<g>
	<path fill="none" stroke="#414042" stroke-width="2" stroke-miterlimit="10" d="M31.646,62.084c0,2.641,2.082,4.916,4.641,4.916
		h54.672c0.906,0,1.641-0.729,1.641-1.627L92.613,56c0,0-10.979,1-10.979-5s11.074-4.984,11.074-4.984l0.044-13.385
		c0-0.897-0.734-1.628-1.642-1.628H37.393c-1.516,0-2.747-1.128-2.747-4.003"/>
	<path fill="none" stroke="#414042" stroke-width="2" stroke-miterlimit="10" d="M87.62,26.938v-2.297
		c0-0.905-0.735-1.641-1.642-1.641H33.286c-0.906,0-1.642,0.734-1.642,1.641v26.193"/>
	<path fill="none" stroke="#414042" stroke-width="2" stroke-miterlimit="10" d="M86.728,49.042c1.082,0,1.959,0.886,1.959,1.979
		S87.81,53,86.728,53"/>
	<line fill="none" stroke="#414042" stroke-width="2" stroke-miterlimit="10" x1="38.729" y1="27.042" x2="83.479" y2="27.042"/>
</g>
</svg>
