<?xml version="1.0" encoding="utf-8"?>
<!-- Generator: Adobe Illustrator 15.0.0, SVG Export Plug-In . SVG Version: 6.00 Build 0)  -->
<!DOCTYPE svg PUBLIC "-//W3C//DTD SVG 1.0//EN" "http://www.w3.org/TR/2001/REC-SVG-20010904/DTD/svg10.dtd">
<svg version="1.0" id="Layer_1" xmlns="http://www.w3.org/2000/svg" xmlns:xlink="http://www.w3.org/1999/xlink" x="0px" y="0px"
	 width="109.753px" height="99.815px" viewBox="0 0 109.753 99.815" enable-background="new 0 0 109.753 99.815"
	 xml:space="preserve">
<path fill="none" stroke="#414042" stroke-width="2" stroke-miterlimit="10" d="M109.753,26"/>
<g>
	<path fill="none" stroke="#414042" stroke-width="2" stroke-miterlimit="10" d="M93.764,20.378v-1.031
		c0-0.522-0.419-0.947-0.937-0.947h-13.12c-0.517,0-0.937,0.425-0.937,0.947v13.03"/>
	<path fill="none" stroke="#414042" stroke-width="2" stroke-miterlimit="10" d="M55.702,58.378h-16
		c-0.517,0-0.934,0.431-0.934,0.962v12.075c0,0.532,0.417,0.963,0.934,0.963c0,0,52.812,0,53.125,0c0.312,0,0.937-0.571,0.937-0.947
		v-0.016v-26.85"/>
	<line fill="none" stroke="#414042" stroke-width="2" stroke-miterlimit="10" x1="78.771" y1="58.173" x2="85.663" y2="64.234"/>
	<g>
		<path fill="none" stroke="#414042" stroke-width="2" stroke-miterlimit="10" d="M60.209,55.61l32.59-32.591
			c0.537-0.538,3.542,0.623,4.311,1.394l3.554,3.553c0.767,0.766,1.928,3.771,1.392,4.311L69.464,64.867
			c-0.536,0.536-13.746,4.978-13.746,4.978s0.688-2.38,1.528-5.195"/>
		<line fill="none" stroke="#414042" stroke-width="2" stroke-miterlimit="10" x1="89.327" y1="26.371" x2="98.702" y2="35.748"/>
		<line fill="none" stroke="#414042" stroke-width="2" stroke-miterlimit="10" x1="92.311" y1="29.356" x2="65.398" y2="56.267"/>
		<line fill="none" stroke="#414042" stroke-width="2" stroke-miterlimit="10" x1="95.719" y1="32.764" x2="66.372" y2="62.112"/>
		<polyline fill="none" stroke="#414042" stroke-width="2" stroke-miterlimit="10" points="60.527,56.146 65.521,56.146 
			66.434,62.173 71.973,62.477 		"/>
	</g>
	<line fill="none" stroke="#414042" stroke-width="2" stroke-miterlimit="10" x1="42.785" y1="68.502" x2="42.785" y2="70.336"/>
	<line fill="none" stroke="#414042" stroke-width="2" stroke-miterlimit="10" x1="45.785" y1="68.502" x2="45.785" y2="70.336"/>
	<line fill="none" stroke="#414042" stroke-width="2" stroke-miterlimit="10" x1="51.785" y1="68.502" x2="51.785" y2="70.336"/>
	<line fill="none" stroke="#414042" stroke-width="2" stroke-miterlimit="10" x1="54.785" y1="68.502" x2="54.785" y2="70.336"/>
	<line fill="none" stroke="#414042" stroke-width="2" stroke-miterlimit="10" x1="65.785" y1="68.502" x2="65.785" y2="70.336"/>
	<line fill="none" stroke="#414042" stroke-width="2" stroke-miterlimit="10" x1="68.785" y1="68.502" x2="68.785" y2="70.336"/>
	<line fill="none" stroke="#414042" stroke-width="2" stroke-miterlimit="10" x1="74.785" y1="68.502" x2="74.785" y2="70.336"/>
	<line fill="none" stroke="#414042" stroke-width="2" stroke-miterlimit="10" x1="77.785" y1="68.502" x2="77.785" y2="70.336"/>
	<line fill="none" stroke="#414042" stroke-width="2" stroke-miterlimit="10" x1="83.785" y1="68.502" x2="83.785" y2="70.336"/>
	<line fill="none" stroke="#414042" stroke-width="2" stroke-miterlimit="10" x1="86.785" y1="68.502" x2="86.785" y2="70.336"/>
	<line fill="none" stroke="#414042" stroke-width="2" stroke-miterlimit="10" x1="89.785" y1="66.502" x2="89.785" y2="70.336"/>
	<line fill="none" stroke="#414042" stroke-width="2" stroke-miterlimit="10" x1="80.785" y1="66.461" x2="80.785" y2="70.336"/>
	<line fill="none" stroke="#414042" stroke-width="2" stroke-miterlimit="10" x1="71.785" y1="66.502" x2="71.785" y2="70.336"/>
	<line fill="none" stroke="#414042" stroke-width="2" stroke-miterlimit="10" x1="48.785" y1="66.378" x2="48.785" y2="70.336"/>
</g>
</svg>
