<?xml version="1.0" encoding="utf-8"?>
<!-- Generator: Adobe Illustrator 15.0.0, SVG Export Plug-In . SVG Version: 6.00 Build 0)  -->
<!DOCTYPE svg PUBLIC "-//W3C//DTD SVG 1.0//EN" "http://www.w3.org/TR/2001/REC-SVG-20010904/DTD/svg10.dtd">
<svg version="1.0" id="Layer_1" xmlns="http://www.w3.org/2000/svg" xmlns:xlink="http://www.w3.org/1999/xlink" x="0px" y="0px"
	 width="109.753px" height="99.815px" viewBox="0 0 109.753 99.815" enable-background="new 0 0 109.753 99.815"
	 xml:space="preserve">
<path fill="none" stroke="#414042" stroke-width="2" stroke-miterlimit="10" d="M34.183,20.447l-7.146,7.146
	c-0.392,0.392-0.392,1.024,0,1.415l14.159,14.16l-14.16,14.16c-0.391,0.391-0.391,1.024,0,1.416l14.161,14.161
	c0.392,0.391,1.024,0.391,1.416,0l14.16-14.16l14.159,14.16c0.393,0.392,1.025,0.392,1.416,0.001L86.51,58.744
	c0.392-0.392,0.392-1.024,0-1.416l-14.16-14.16l14.16-14.16c0.392-0.392,0.391-1.025,0-1.416L72.349,13.431
	c-0.392-0.391-1.024-0.392-1.416,0l-14.16,14.16l-14.159-14.16c-0.392-0.391-1.024-0.391-1.416,0l-0.635,0.636"/>
</svg>
