<?xml version="1.0" encoding="utf-8"?>
<!-- Generator: Adobe Illustrator 15.0.0, SVG Export Plug-In . SVG Version: 6.00 Build 0)  -->
<!DOCTYPE svg PUBLIC "-//W3C//DTD SVG 1.0//EN" "http://www.w3.org/TR/2001/REC-SVG-20010904/DTD/svg10.dtd">
<svg version="1.0" id="Layer_1" xmlns="http://www.w3.org/2000/svg" xmlns:xlink="http://www.w3.org/1999/xlink" x="0px" y="0px"
	 width="109.753px" height="99.815px" viewBox="0 0 109.753 99.815" enable-background="new 0 0 109.753 99.815"
	 xml:space="preserve">
<g>
	<path fill="none" stroke="#333333" stroke-width="2" stroke-miterlimit="10" d="M36.209,53.497l-1.564,2.362
		c0,0-9.489-1.958-10.874-2.142c-1.935-0.256-4.174,1.444-0.01,3.563c4.854,2.476,10.541,5.348,10.541,5.348
		s3.504,6.809,5.641,10.564c2.719,4.545,4.322,2.341,3.996,0.006c-0.32-2.333-1.409-10.206-1.409-10.206l11.697-7.954l0.929-0.925
		l15.583,20.075c0.574,0.509,1.302,0.795,2.067,0.806c0.832,0.011,1.606-0.302,2.149-0.836c1.666-2.478-0.596-18.083-6.29-34.56
		l12.333-16.458c2.026-2.015,3.579-4.799,1.218-7.173c-2.366-2.371-5.388-1.077-7.415,0.938L57.2,29.209
		c-9.888-3.146-26.731-6.089-33.483-6.086c-0.938-0.003-1.354,0.104-1.498,0.146c-1.061,1.155-1.083,2.931-0.054,4.106
		l20.593,16.229"/>
</g>
</svg>
