<?xml version="1.0" encoding="utf-8"?>
<!-- Generator: Adobe Illustrator 15.0.0, SVG Export Plug-In . SVG Version: 6.00 Build 0)  -->
<!DOCTYPE svg PUBLIC "-//W3C//DTD SVG 1.0//EN" "http://www.w3.org/TR/2001/REC-SVG-20010904/DTD/svg10.dtd">
<svg version="1.0" id="Layer_1" xmlns="http://www.w3.org/2000/svg" xmlns:xlink="http://www.w3.org/1999/xlink" x="0px" y="0px"
	 width="109.753px" height="99.815px" viewBox="0 0 109.753 99.815" enable-background="new 0 0 109.753 99.815"
	 xml:space="preserve">
<g>
	<path fill="none" stroke="#414042" stroke-width="2" stroke-miterlimit="10" d="M84.29,63.402c0.622,0,1.126,0.506,1.126,1.127
		v11.272c0,0.623-0.504,1.127-1.126,1.127H24.545c-0.623,0-1.129-0.504-1.129-1.127V64.529c0-0.621,0.506-1.127,1.129-1.127"/>
	<path fill="none" stroke="#414042" stroke-width="2" stroke-miterlimit="10" d="M61.146,41.974h-0.729v20.619
		c0,0.225-0.269,0.406-0.596,0.406H49.167c-0.33,0-0.596-0.183-0.596-0.406V41.974h-10.89c-0.164-0.116-0.235-0.419-0.069-0.536
		l16.604-17.351c0.164-0.117,0.435-0.117,0.601,0l16.602,17.351c0.166,0.117,0.008,0.42-0.158,0.536h-2.192"/>
</g>
</svg>
