<?xml version="1.0" encoding="utf-8"?>
<!-- Generator: Adobe Illustrator 15.0.0, SVG Export Plug-In . SVG Version: 6.00 Build 0)  -->
<!DOCTYPE svg PUBLIC "-//W3C//DTD SVG 1.0//EN" "http://www.w3.org/TR/2001/REC-SVG-20010904/DTD/svg10.dtd">
<svg version="1.0" id="Layer_1" xmlns="http://www.w3.org/2000/svg" xmlns:xlink="http://www.w3.org/1999/xlink" x="0px" y="0px"
	 width="109.753px" height="99.815px" viewBox="0 0 109.753 99.815" enable-background="new 0 0 109.753 99.815"
	 xml:space="preserve">
<path fill="none" stroke="#414042" stroke-width="2" stroke-miterlimit="10" d="M86.493,40.141v45.843
	c-0.288,0.276-1.03,0.012-1.319-0.267L52.805,56.391c-0.287-0.277-0.287-0.729,0-1.006l32.369-30.164
	c0.289-0.276,1.031-0.012,1.319,0.267V30"/>
<path fill="none" stroke="#414042" stroke-width="2" stroke-miterlimit="10" d="M44.5,30v-3.836C44.5,25.52,43.842,25,43.031,25
	H29.969c-0.812,0-1.47,0.521-1.47,1.164V85c0,0.645,0.658,1.164,1.47,1.164h13.062c0.811,0,1.469-0.521,1.469-1.164V42"/>
</svg>
