<?xml version="1.0" encoding="utf-8"?>
<!-- Generator: Adobe Illustrator 15.0.0, SVG Export Plug-In . SVG Version: 6.00 Build 0)  -->
<!DOCTYPE svg PUBLIC "-//W3C//DTD SVG 1.0//EN" "http://www.w3.org/TR/2001/REC-SVG-20010904/DTD/svg10.dtd">
<svg version="1.0" id="Layer_1" xmlns="http://www.w3.org/2000/svg" xmlns:xlink="http://www.w3.org/1999/xlink" x="0px" y="0px"
	 width="109.753px" height="99.815px" viewBox="0 0 109.753 99.815" enable-background="new 0 0 109.753 99.815"
	 xml:space="preserve">
<path fill="none" stroke="#333333" stroke-width="2" stroke-miterlimit="10" d="M54.052,32.536c-1.287-1.61-2.244-3.453-2.244-5.221
	c0-5.612,7.062-6.142,8.312-0.902c0.021,0.08,0.354,0.088,0.377,0c1.25-5.233,8.312-4.778,8.312,0.902
	c0,4.694-6.752,10.38-8.5,10.38c-0.446,0-1.219-0.341-2.123-0.927"/>
<g>
	<path fill="none" stroke="#414042" stroke-width="2" stroke-miterlimit="10" d="M29.808,41.754h-18c-0.553,0-1,0.448-1,1v3
		c0,0.552,1.447,1,2,1l1.034,6l3.966,23c0,0.552,0.447,1,1,1h46c0.553,0,1-0.448,1-1l5-29c1.553,0,2-0.448,2-1v-3
		c0-0.552-0.447-1-1-1h-30l-10-17"/>
	<line fill="none" stroke="#414042" stroke-width="2" stroke-miterlimit="10" x1="35.808" y1="54.754" x2="36.808" y2="71.754"/>
	<line fill="none" stroke="#414042" stroke-width="2" stroke-miterlimit="10" x1="22.808" y1="54.754" x2="24.808" y2="71.754"/>
	<line fill="none" stroke="#414042" stroke-width="2" stroke-miterlimit="10" x1="48.808" y1="54.754" x2="47.808" y2="71.754"/>
	<line fill="none" stroke="#414042" stroke-width="2" stroke-miterlimit="10" x1="60.808" y1="54.754" x2="58.808" y2="71.754"/>
</g>
</svg>
