<?xml version="1.0" encoding="utf-8"?>
<!-- Generator: Adobe Illustrator 15.0.0, SVG Export Plug-In . SVG Version: 6.00 Build 0)  -->
<!DOCTYPE svg PUBLIC "-//W3C//DTD SVG 1.0//EN" "http://www.w3.org/TR/2001/REC-SVG-20010904/DTD/svg10.dtd">
<svg version="1.0" id="Layer_1" xmlns="http://www.w3.org/2000/svg" xmlns:xlink="http://www.w3.org/1999/xlink" x="0px" y="0px"
	 width="109.753px" height="99.815px" viewBox="0 0 109.753 99.815" enable-background="new 0 0 109.753 99.815"
	 xml:space="preserve">
<path fill="none" stroke="#414042" stroke-width="2" stroke-miterlimit="10" d="M43.618,64.611c-0.9-2.128-1.398-4.469-1.398-6.926
	c0-9.828,7.966-17.794,17.794-17.794s17.794,7.966,17.794,17.794c0,9.827-7.966,17.794-17.794,17.794
	c-1.604,0-3.161-0.213-4.641-0.612"/>
<path fill="none" stroke="#414042" stroke-width="2" stroke-miterlimit="10" d="M59.258,70.106c-6.396,0-11.583-5.187-11.583-11.584
	"/>
<line fill="none" stroke="#414042" stroke-width="2" stroke-miterlimit="10" x1="42.191" y1="53.741" x2="47.523" y2="31.975"/>
<line fill="none" stroke="#414042" stroke-width="2" stroke-miterlimit="10" x1="77.726" y1="53.741" x2="72.532" y2="31.975"/>
<path fill="none" stroke="#414042" stroke-width="2" stroke-miterlimit="10" d="M47.523,31.975c2.426-5.165,7.179-6.54,12.477-6.54
	s10.2,1.319,12.477,6.54"/>
<line fill="none" stroke="#414042" stroke-width="2" stroke-miterlimit="10" x1="51.441" y1="26.533" x2="53.898" y2="16.145"/>
<line fill="none" stroke="#414042" stroke-width="2" stroke-miterlimit="10" x1="68.476" y1="26.451" x2="66.019" y2="16.228"/>
<path fill="none" stroke="#414042" stroke-width="2" stroke-miterlimit="10" d="M54.229,16.31c1.131-2.236,3.345-2.831,5.812-2.831
	s4.75,0.572,5.81,2.831"/>
</svg>
