<?xml version="1.0" encoding="utf-8"?>
<!-- Generator: Adobe Illustrator 15.0.0, SVG Export Plug-In . SVG Version: 6.00 Build 0)  -->
<!DOCTYPE svg PUBLIC "-//W3C//DTD SVG 1.0//EN" "http://www.w3.org/TR/2001/REC-SVG-20010904/DTD/svg10.dtd">
<svg version="1.0" id="Layer_1" xmlns="http://www.w3.org/2000/svg" xmlns:xlink="http://www.w3.org/1999/xlink" x="0px" y="0px"
	 width="109.753px" height="99.815px" viewBox="0 0 109.753 99.815" enable-background="new 0 0 109.753 99.815"
	 xml:space="preserve">
<g>
	<path fill="none" stroke="#414042" stroke-width="2" stroke-miterlimit="10" d="M45.639,26.478
		C35.182,29.353,27.5,38.928,27.5,50.298C27.5,63.944,38.559,75,52.202,75C65.842,75,76.9,63.944,76.9,50.298
		c0-4.904-1.441-9.461-3.905-13.304l4.913-6.11c0,0,0.39-2.847-3.969-6.268c1.562-0.83,3.414-1.422,5.328-2.017
		c4.702-1.455,9.632-3.445,10.231-9.512 M71.357,22.92c-3.685-1.958-6.261-1.506-6.261-1.506l-4.558,5.664
		c-0.165-0.059-0.325-0.132-0.492-0.188"/>
	<path fill="none" stroke="#414042" stroke-width="2" stroke-miterlimit="10" d="M40.293,64.928
		c-3.909-3.134-6.413-7.951-6.413-13.352"/>
</g>
</svg>
