<?xml version="1.0" encoding="utf-8"?>
<!-- Generator: Adobe Illustrator 15.0.0, SVG Export Plug-In . SVG Version: 6.00 Build 0)  -->
<!DOCTYPE svg PUBLIC "-//W3C//DTD SVG 1.0//EN" "http://www.w3.org/TR/2001/REC-SVG-20010904/DTD/svg10.dtd">
<svg version="1.0" id="Layer_1" xmlns="http://www.w3.org/2000/svg" xmlns:xlink="http://www.w3.org/1999/xlink" x="0px" y="0px"
	 width="109.753px" height="99.815px" viewBox="0 0 109.753 99.815" enable-background="new 0 0 109.753 99.815"
	 xml:space="preserve">
<path fill="none" stroke="#333333" stroke-width="2" stroke-miterlimit="10" d="M31.5,25.83v56.755c0,1.334,1.082,2.415,2.415,2.415
	H76.18c1.334,0,2.415-1.081,2.415-2.415V27.038h-44.68c-1.333,0-2.415-1.081-2.415-2.415v-1.209c0-1.332,1.082-2.414,2.415-2.414
	H81.01c1.334,0,2.416,1.082,2.416,2.414v1.209v54.34"/>
<ellipse fill="none" stroke="#333333" stroke-width="2" stroke-miterlimit="10" cx="56.493" cy="53.982" rx="4.967" ry="4.98"/>
<path fill="none" stroke="#333333" stroke-width="2" stroke-miterlimit="10" d="M44.477,69.971c0-3.849,5.388-6.971,12.031-6.971
	c6.646,0,12.031,3.122,12.031,6.971"/>
</svg>
