<?xml version="1.0" encoding="utf-8"?>
<!-- Generator: Adobe Illustrator 15.0.0, SVG Export Plug-In . SVG Version: 6.00 Build 0)  -->
<!DOCTYPE svg PUBLIC "-//W3C//DTD SVG 1.0//EN" "http://www.w3.org/TR/2001/REC-SVG-20010904/DTD/svg10.dtd">
<svg version="1.0" id="Layer_1" xmlns="http://www.w3.org/2000/svg" xmlns:xlink="http://www.w3.org/1999/xlink" x="0px" y="0px"
	 width="109.753px" height="99.814px" viewBox="0 0 109.753 99.814" enable-background="new 0 0 109.753 99.814"
	 xml:space="preserve">
<path fill="none" stroke="#414042" stroke-width="2" stroke-miterlimit="10" d="M19.664,17.9v-3.332c0-2.209,1.791-4,4-4h55
	c2.209,0,4,1.791,4,4v55c0,2.209-1.791,4-4,4h-55c-2.209,0-4-1.791-4-4V31.9"/>
<path fill="none" stroke="#414042" stroke-width="2" stroke-miterlimit="10" d="M75.664,61.652v0.916c0,2.209-1.791,4-4,4h-41
	c-2.209,0-4-1.791-4-4v-41c0-2.209,1.791-4,4-4h41c2.209,0,4,1.791,4,4v31"/>
<line fill="none" stroke="#414042" stroke-width="2" stroke-miterlimit="10" x1="29.816" y1="26.568" x2="72.594" y2="26.568"/>
<line fill="none" stroke="#414042" stroke-width="2" stroke-miterlimit="10" x1="29.816" y1="36.568" x2="72.594" y2="36.568"/>
<line fill="none" stroke="#414042" stroke-width="2" stroke-miterlimit="10" x1="29.816" y1="47.568" x2="72.594" y2="47.568"/>
<line fill="none" stroke="#414042" stroke-width="2" stroke-miterlimit="10" x1="29.816" y1="57.568" x2="72.594" y2="57.568"/>
<line fill="none" stroke="#414042" stroke-width="2" stroke-miterlimit="10" x1="74.664" y1="18.568" x2="81.164" y2="12.068"/>
<line fill="none" stroke="#414042" stroke-width="2" stroke-miterlimit="10" x1="74.664" y1="64.568" x2="81.664" y2="71.568"/>
<line fill="none" stroke="#414042" stroke-width="2" stroke-miterlimit="10" x1="21.876" y1="11.907" x2="28.376" y2="18.407"/>
<line fill="none" stroke="#414042" stroke-width="2" stroke-miterlimit="10" x1="28.876" y1="65.907" x2="21.876" y2="72.907"/>
</svg>
