<?xml version="1.0" encoding="utf-8"?>
<!-- Generator: Adobe Illustrator 15.0.0, SVG Export Plug-In . SVG Version: 6.00 Build 0)  -->
<!DOCTYPE svg PUBLIC "-//W3C//DTD SVG 1.0//EN" "http://www.w3.org/TR/2001/REC-SVG-20010904/DTD/svg10.dtd">
<svg version="1.0" id="Layer_1" xmlns="http://www.w3.org/2000/svg" xmlns:xlink="http://www.w3.org/1999/xlink" x="0px" y="0px"
	 width="109.753px" height="99.815px" viewBox="0 0 109.753 99.815" enable-background="new 0 0 109.753 99.815"
	 xml:space="preserve">
<g>
	<path fill="none" stroke="#414042" stroke-width="2" stroke-miterlimit="10" d="M73.438,42.916H30.167
		c-0.786,0-1.422,0.875-1.422,1.662v0.711c0,0.785,0.637,1.422,1.422,1.422l6.4,29.867c0,0.785,0.637,1.422,1.422,1.422H64.3
		c0.785,0,1.422-0.637,1.422-1.422L72.5,51.166c0,0-16.062-6.979-16.062-0.104c0,5.5,0.625,10.938-2.25,10.938
		C50.875,62,54.25,48.875,51,48.875c-4.275,0-3.044,7.125-5.5,7.125c-2.062,0-2.312-7.938-4.938-7.938"/>
	<path fill="none" stroke="#414042" stroke-width="2" stroke-miterlimit="10" d="M28.583,38.832c0-3.035,0.699-6.207,1.957-9.243
		C34.162,20.847,41.88,16,51.5,16c12.96,0,23,11.052,23,22.832"/>
</g>
</svg>
