<?xml version="1.0" encoding="utf-8"?>
<!-- Generator: Adobe Illustrator 15.0.0, SVG Export Plug-In . SVG Version: 6.00 Build 0)  -->
<!DOCTYPE svg PUBLIC "-//W3C//DTD SVG 1.0//EN" "http://www.w3.org/TR/2001/REC-SVG-20010904/DTD/svg10.dtd">
<svg version="1.0" id="Layer_1" xmlns="http://www.w3.org/2000/svg" xmlns:xlink="http://www.w3.org/1999/xlink" x="0px" y="0px"
	 width="109.753px" height="99.815px" viewBox="0 0 109.753 99.815" enable-background="new 0 0 109.753 99.815"
	 xml:space="preserve">
<g>
	<polyline fill="none" stroke="#414042" stroke-width="2" stroke-miterlimit="10" points="29.5,43.954 38.277,36.589 39.262,31 
		40.266,25 51.723,25 60.5,17.941 69.277,25 80.734,25 82.723,36.589 91.5,43.954 85.771,53.876 87.761,65.159 76.994,69.077 
		71.266,79 60.5,75.081 49.734,79 44.005,69.077 33.238,65.159 35.229,53.876 	"/>
	<line fill="none" stroke="#414042" stroke-width="2" stroke-miterlimit="10" x1="72.125" y1="37.375" x2="47.625" y2="61.875"/>
	<path fill="none" stroke="#414042" stroke-width="2" stroke-miterlimit="10" d="M53.46,45.978c-3.337-0.274-5.96-3.07-5.96-6.478
		c0-3.59,2.91-6.5,6.5-6.5c3.424,0,6.23,2.648,6.48,6.008"/>
	<path fill="none" stroke="#414042" stroke-width="2" stroke-miterlimit="10" d="M67.419,65.974
		c-3.317-0.293-5.919-3.08-5.919-6.474c0-3.59,2.91-6.5,6.5-6.5c3.365,0,6.134,2.558,6.467,5.835"/>
</g>
</svg>
