<?xml version="1.0" encoding="utf-8"?>
<!-- Generator: Adobe Illustrator 15.0.0, SVG Export Plug-In . SVG Version: 6.00 Build 0)  -->
<!DOCTYPE svg PUBLIC "-//W3C//DTD SVG 1.0//EN" "http://www.w3.org/TR/2001/REC-SVG-20010904/DTD/svg10.dtd">
<svg version="1.0" id="Layer_1" xmlns="http://www.w3.org/2000/svg" xmlns:xlink="http://www.w3.org/1999/xlink" x="0px" y="0px"
	 width="109.753px" height="99.815px" viewBox="0 0 109.753 99.815" enable-background="new 0 0 109.753 99.815"
	 xml:space="preserve">
<path fill="none" stroke="#333333" stroke-width="2" stroke-miterlimit="10" d="M56.5,45"/>
<path fill="none" stroke="#333333" stroke-width="2" stroke-miterlimit="10" d="M87.174,36c0.862,2.849,1.326,5.87,1.326,9
	c0,17.121-13.879,31-31,31s-31-13.879-31-31s13.879-31,31-31c3.498,0,6.862,0.58,10,1.648"/>
<path fill="none" stroke="#333333" stroke-width="2" stroke-miterlimit="10" d="M50.037,49.806
	c-1.697-2.124-2.961-4.555-2.961-6.886c0-7.404,9.316-8.102,10.964-1.191c0.025,0.105,0.468,0.116,0.496,0
	C60.186,34.827,69.5,35.426,69.5,42.92C69.5,49.112,60.594,56,58.289,56c-0.59,0-1.608-0.449-2.801-1.222"/>
</svg>
