<?xml version="1.0" encoding="utf-8"?>
<!-- Generator: Adobe Illustrator 15.0.0, SVG Export Plug-In . SVG Version: 6.00 Build 0)  -->
<!DOCTYPE svg PUBLIC "-//W3C//DTD SVG 1.0//EN" "http://www.w3.org/TR/2001/REC-SVG-20010904/DTD/svg10.dtd">
<svg version="1.0" id="Layer_1" xmlns="http://www.w3.org/2000/svg" xmlns:xlink="http://www.w3.org/1999/xlink" x="0px" y="0px"
	 width="109.753px" height="99.815px" viewBox="0 0 109.753 99.815" enable-background="new 0 0 109.753 99.815"
	 xml:space="preserve">
<g>
	<path fill="none" stroke="#414042" stroke-width="2" stroke-miterlimit="10" d="M75.5,79.167V84c0,0.552-0.447,1-1,1h-59
		c-0.553,0-1-0.448-1-1V44"/>
	<line fill="none" stroke="#414042" stroke-width="2" stroke-miterlimit="10" x1="36.541" y1="69" x2="54.459" y2="69"/>
	<path fill="none" stroke="#414042" stroke-width="2" stroke-miterlimit="10" d="M45.5,69.042V44.084c0,0,0.291,9.917-8,9.917"/>
	<line fill="none" stroke="#414042" stroke-width="2" stroke-miterlimit="10" x1="18.584" y1="33" x2="74.459" y2="33"/>
	<path fill="none" stroke="#414042" stroke-width="2" stroke-miterlimit="10" d="M14.5,34.917V25c0-0.552,0.447-1,1-1h11v-6h7v6h24
		v-0.042V18h7v6h10c0.553,0,1,0.448,1,1v42.75c0,0-2.334,14.25-14.834,14.25"/>
</g>
</svg>
