<?xml version="1.0" encoding="utf-8"?>
<!-- Generator: Adobe Illustrator 15.0.0, SVG Export Plug-In . SVG Version: 6.00 Build 0)  -->
<!DOCTYPE svg PUBLIC "-//W3C//DTD SVG 1.0//EN" "http://www.w3.org/TR/2001/REC-SVG-20010904/DTD/svg10.dtd">
<svg version="1.0" id="Layer_1" xmlns="http://www.w3.org/2000/svg" xmlns:xlink="http://www.w3.org/1999/xlink" x="0px" y="0px"
	 width="109.753px" height="99.815px" viewBox="0 0 109.753 99.815" enable-background="new 0 0 109.753 99.815"
	 xml:space="preserve">
<polyline fill="none" stroke="#414042" stroke-width="2" stroke-miterlimit="10" points="57.478,44.978 54.479,44.978 53.312,47 
	48.542,47 "/>
<polyline fill="none" stroke="#414042" stroke-width="2" stroke-miterlimit="10" points="79.667,44.978 81.646,44.978 
	84.448,42.111 84.448,25 70.604,25 65.437,37.042 "/>
<circle fill="none" stroke="#414042" stroke-width="2" stroke-miterlimit="10" cx="68.458" cy="50.021" r="9.022"/>
<circle fill="none" stroke="#414042" stroke-width="2" stroke-miterlimit="10" cx="37.458" cy="50.021" r="9.022"/>
<rect x="77.479" y="25" fill="none" stroke="#414042" stroke-width="2" stroke-miterlimit="10" width="7" height="9.958"/>
<path fill="none" stroke="#414042" stroke-width="2" stroke-miterlimit="10" d="M27.278,34.4c0,0.441,0.358,0.8,0.801,0.8l29.6,4.8
	c0.442,0,0.799-0.357,0.799-0.8l9.201-18.399c0-0.443-0.357-0.801-0.8-0.801l-43.601,3c-0.441,0-0.8,0.358-0.8,0.801L27.278,34.4z"
	/>
<line fill="none" stroke="#414042" stroke-width="2" stroke-miterlimit="10" x1="68.146" y1="20" x2="82.812" y2="20"/>
</svg>
