<?xml version="1.0" encoding="utf-8"?>
<!-- Generator: Adobe Illustrator 15.0.0, SVG Export Plug-In . SVG Version: 6.00 Build 0)  -->
<!DOCTYPE svg PUBLIC "-//W3C//DTD SVG 1.0//EN" "http://www.w3.org/TR/2001/REC-SVG-20010904/DTD/svg10.dtd">
<svg version="1.0" id="Layer_1" xmlns="http://www.w3.org/2000/svg" xmlns:xlink="http://www.w3.org/1999/xlink" x="0px" y="0px"
	 width="109.753px" height="99.815px" viewBox="0 0 109.753 99.815" enable-background="new 0 0 109.753 99.815"
	 xml:space="preserve">
<g>
	<g>
		<path fill="none" stroke="#414042" stroke-width="2" stroke-miterlimit="10" d="M12.5,17c-0.553,0-1-0.447-1-1v-1
			c0-0.553,0.447-1,1-1h60c0.553,0,1,0.447,1,1v1c0,0.553-0.447,1-1,1"/>
		<path fill="none" stroke="#414042" stroke-width="2" stroke-miterlimit="10" d="M31.5,55h-14c-0.553,0-1-0.447-1-1V20
			c0-0.553,0.447-1,1-1h50c0.553,0,1,0.447,1,1v34c0,0.553-0.447,1-1,1h-25v18"/>
		<line fill="none" stroke="#414042" stroke-width="2" stroke-miterlimit="10" x1="39.699" y1="61.738" x2="31.302" y2="70.136"/>
		<line fill="none" stroke="#414042" stroke-width="2" stroke-miterlimit="10" x1="53.698" y1="70.136" x2="45.301" y2="61.738"/>
	</g>
	<polyline fill="none" stroke="#414042" stroke-width="2" stroke-miterlimit="10" points="41.5,31 48.5,38 41.5,46 41.5,40 	"/>
</g>
</svg>
