<?xml version="1.0" encoding="utf-8"?>
<!-- Generator: Adobe Illustrator 15.0.0, SVG Export Plug-In . SVG Version: 6.00 Build 0)  -->
<!DOCTYPE svg PUBLIC "-//W3C//DTD SVG 1.0//EN" "http://www.w3.org/TR/2001/REC-SVG-20010904/DTD/svg10.dtd">
<svg version="1.0" id="Layer_1" xmlns="http://www.w3.org/2000/svg" xmlns:xlink="http://www.w3.org/1999/xlink" x="0px" y="0px"
	 width="109.753px" height="99.815px" viewBox="0 0 109.753 99.815" enable-background="new 0 0 109.753 99.815"
	 xml:space="preserve">
<g>
	<line fill="none" stroke="#414042" stroke-width="2" stroke-miterlimit="10" x1="23.5" y1="80" x2="85.5" y2="80"/>
	<path fill="none" stroke="#414042" stroke-width="2" stroke-miterlimit="10" d="M70.5,76.021c-0.553,0-1-0.451-1-1.008V36.062
		c0-0.557,0.447-1.008,1-1.008h12c0.553,0,1,0.451,1,1.008"/>
	<path fill="none" stroke="#414042" stroke-width="2" stroke-miterlimit="10" d="M28.5,76.021c-0.553,0-1-0.451-1-1.008V46
		c0-0.556,0.447-1.007,1-1.007h12c0.553,0,1,0.451,1,1.007"/>
	<path fill="none" stroke="#414042" stroke-width="2" stroke-miterlimit="10" d="M47.562,76.021c-0.554,0-1-0.451-1-1.008V55
		c0-0.556,0.446-1.007,1-1.007h12c0.553,0,1,0.451,1,1.007"/>
	<polyline fill="none" stroke="#414042" stroke-width="2" stroke-miterlimit="10" points="33.5,32 54.5,41 75.5,21 	"/>
	<polyline fill="none" stroke="#414042" stroke-width="2" stroke-miterlimit="10" points="76.5,26 76.5,20 70.5,20 	"/>
</g>
</svg>
