<?xml version="1.0" encoding="utf-8"?>
<!-- Generator: Adobe Illustrator 15.0.0, SVG Export Plug-In . SVG Version: 6.00 Build 0)  -->
<!DOCTYPE svg PUBLIC "-//W3C//DTD SVG 1.0//EN" "http://www.w3.org/TR/2001/REC-SVG-20010904/DTD/svg10.dtd">
<svg version="1.0" id="Layer_1" xmlns="http://www.w3.org/2000/svg" xmlns:xlink="http://www.w3.org/1999/xlink" x="0px" y="0px"
	 width="109.753px" height="99.815px" viewBox="0 0 109.753 99.815" enable-background="new 0 0 109.753 99.815"
	 xml:space="preserve">
<path fill="none" stroke="#414042" stroke-width="2" stroke-miterlimit="10" d="M28.5,26v-3c0-0.553,0.447-1,1-1h60
	c0.553,0,1,0.447,1,1v49c0,0.553-0.447,1-1,1h-60c-0.553,0-1-0.447-1-1V36"/>
<line fill="none" stroke="#414042" stroke-width="2" stroke-miterlimit="10" x1="36.5" y1="35" x2="36.5" y2="43"/>
<line fill="none" stroke="#414042" stroke-width="2" stroke-miterlimit="10" x1="36.5" y1="53" x2="36.5" y2="61"/>
<path fill="none" stroke="#414042" stroke-width="2" stroke-miterlimit="10" d="M83.5,59v-6h-3V42h3V31c0-0.553-0.447-1-1-1h-44
	c-0.553,0-1,0.447-1,1v34c0,0.553,0.447,1,1,1h44c0.553,0,1-0.447,1-1"/>
<path fill="none" stroke="#414042" stroke-width="2" stroke-miterlimit="10" d="M60.5,40c4.418,0,8,3.582,8,8s-3.582,8-8,8
	s-8-3.582-8-8"/>
</svg>
