<?xml version="1.0" encoding="utf-8"?>
<!-- Generator: Adobe Illustrator 15.0.0, SVG Export Plug-In . SVG Version: 6.00 Build 0)  -->
<!DOCTYPE svg PUBLIC "-//W3C//DTD SVG 1.0//EN" "http://www.w3.org/TR/2001/REC-SVG-20010904/DTD/svg10.dtd">
<svg version="1.0" id="Layer_1" xmlns="http://www.w3.org/2000/svg" xmlns:xlink="http://www.w3.org/1999/xlink" x="0px" y="0px"
	 width="109.753px" height="99.815px" viewBox="0 0 109.753 99.815" enable-background="new 0 0 109.753 99.815"
	 xml:space="preserve">
<path fill="none" stroke="#414042" stroke-width="2" stroke-miterlimit="10" d="M71.854,32.021c0.357,0,0.646,0.253,0.646,0.562
	v5.833c0,0.311-0.29,0.562-0.646,0.562h-6.708c-0.356,0-0.646-0.25-0.646-0.562v-5.833c0-0.311,0.289-0.562,0.646-0.562"/>
<polyline fill="none" stroke="#414042" stroke-width="2" stroke-miterlimit="10" points="20.5,33 20.5,57 23.5,57 23.5,60.667 
	20.531,64 17,60.5 "/>
<path fill="none" stroke="#414042" stroke-width="2" stroke-miterlimit="10" d="M53.5,24.021V13.167L15.594,24.021l-1,4.011
	l36.927,0.01L51.5,64.938L46.5,65v5.4c0-2.115,0.855,0.6,1.911,0.6H62.59c1.054,0,1.91-2.715,1.91-0.6V65l-5-0.062v-36.93L75.469,28
	l-0.01-3.938L57.584,13.041L57.5,24.333"/>
</svg>
