<?xml version="1.0" encoding="utf-8"?>
<!-- Generator: Adobe Illustrator 15.0.0, SVG Export Plug-In . SVG Version: 6.00 Build 0)  -->
<!DOCTYPE svg PUBLIC "-//W3C//DTD SVG 1.0//EN" "http://www.w3.org/TR/2001/REC-SVG-20010904/DTD/svg10.dtd">
<svg version="1.0" id="Layer_1" xmlns="http://www.w3.org/2000/svg" xmlns:xlink="http://www.w3.org/1999/xlink" x="0px" y="0px"
	 width="109.753px" height="99.815px" viewBox="0 0 109.753 99.815" enable-background="new 0 0 109.753 99.815"
	 xml:space="preserve">
<path fill="none" stroke="#414042" stroke-width="2" stroke-miterlimit="10" d="M34.309,68.22c-2.274,1.314-3.809,0.728-3.809,3.487
	v1.645c0,4.158,3.469,3.627,7.732,3.627h46.535c4.264,0,7.731,0.531,7.731-3.627v-1.645c0-2.755-1.527-2.162-3.793-3.479
	c0.76-1.216,1.205-2.659,1.202-4.235c-1.313-15.883-2.762-23.536-4.161-27.234c0.875-0.91,1.418-2.142,1.418-3.503
	c0-2.795-2.265-5.062-5.06-5.062c-2.799,0-5.065,2.268-5.065,5.062c0,1.473,0.641,2.787,1.646,3.712l-4.65,9.429L64.033,32.402
	c1.463-0.889,2.449-2.48,2.449-4.316c0-2.796-2.267-5.062-5.062-5.062c-2.799,0-5.065,2.268-5.065,5.062
	c0,1.882,1.041,3.506,2.566,4.378l-9.946,13.921l-4.673-9.539c0.923-0.917,1.495-2.186,1.495-3.589c0-2.795-2.269-5.062-5.063-5.062
	c-2.797,0-5.062,2.268-5.062,5.062c0,1.444,0.612,2.74,1.584,3.663c-1.084,2.953-2.196,8.318-3.251,18.081"/>
<line fill="none" stroke="#414042" stroke-width="2" stroke-miterlimit="10" x1="40.5" y1="68" x2="82.5" y2="68"/>
</svg>
