<?xml version="1.0" encoding="utf-8"?>
<!-- Generator: Adobe Illustrator 15.0.0, SVG Export Plug-In . SVG Version: 6.00 Build 0)  -->
<!DOCTYPE svg PUBLIC "-//W3C//DTD SVG 1.0//EN" "http://www.w3.org/TR/2001/REC-SVG-20010904/DTD/svg10.dtd">
<svg version="1.0" id="Layer_1" xmlns="http://www.w3.org/2000/svg" xmlns:xlink="http://www.w3.org/1999/xlink" x="0px" y="0px"
	 width="109.753px" height="99.815px" viewBox="0 0 109.753 99.815" enable-background="new 0 0 109.753 99.815"
	 xml:space="preserve">
<path fill="none" stroke="#414042" stroke-width="2" stroke-miterlimit="10" d="M109.753,26"/>
<g>
	<g>
		<path fill="none" stroke="#333333" stroke-width="2" stroke-miterlimit="10" d="M59.808,26.163
			c17.054-1.512,32.102,11.067,33.61,28.099c1.51,17.031-11.089,32.063-28.143,33.575c-17.055,1.512-32.104-11.068-33.612-28.1
			C30.52,46.841,37.467,35.091,48.311,29.49"/>
		<path fill="none" stroke="#333333" stroke-width="2" stroke-miterlimit="10" d="M62.417,68.021
			c-6.04-0.052-10.921-4.961-10.921-11.012c0-6.08,4.932-11.01,11.015-11.01c6.084,0,11.016,4.93,11.016,11.01
			c0,3.801-1.927,7.152-4.856,9.13"/>
		<ellipse fill="none" stroke="#333333" stroke-width="2" stroke-miterlimit="10" cx="62.511" cy="56.985" rx="5.02" ry="5.026"/>
		<line fill="none" stroke="#333333" stroke-width="2" stroke-miterlimit="10" x1="82.908" y1="36.529" x2="72.436" y2="47.003"/>
		<line fill="none" stroke="#333333" stroke-width="2" stroke-miterlimit="10" x1="52.503" y1="66.936" x2="42.029" y2="77.409"/>
	</g>
	<path fill="none" stroke="#333333" stroke-width="2" stroke-miterlimit="10" d="M73.25,70.318c0,0.057,5.625,4.307,5.625,4.307
		l7.625-9.5"/>
</g>
</svg>
