<?xml version="1.0" encoding="utf-8"?>
<!-- Generator: Adobe Illustrator 15.0.0, SVG Export Plug-In . SVG Version: 6.00 Build 0)  -->
<!DOCTYPE svg PUBLIC "-//W3C//DTD SVG 1.0//EN" "http://www.w3.org/TR/2001/REC-SVG-20010904/DTD/svg10.dtd">
<svg version="1.0" id="Layer_1" xmlns="http://www.w3.org/2000/svg" xmlns:xlink="http://www.w3.org/1999/xlink" x="0px" y="0px"
	 width="109.753px" height="99.815px" viewBox="0 0 109.753 99.815" enable-background="new 0 0 109.753 99.815"
	 xml:space="preserve">
<path fill="none" stroke="#414042" stroke-width="2" stroke-miterlimit="10" d="M109.753,26"/>
<g>
	<path fill="none" stroke="#414042" stroke-width="2" stroke-miterlimit="10" d="M46.537,37.146
		c-2.135-1.875-4.943-3.017-8.016-3.021h-0.017c-3.233,0-6.271,1.244-8.545,3.503c-2.271,2.248-3.521,5.241-3.517,8.429
		c0.011,6.582,5.438,11.946,12.107,11.956c3.234,0,6.271-1.245,8.551-3.507c2.275-2.252,3.521-5.246,3.517-8.432 M40.082,38.552
		c1.074,0.393,1.216,1.403-0.137,1.231c-2.251-0.29-4.559,0.394-6.248,2.085c-1.707,1.703-2.383,4.035-2.08,6.301
		c0.182,1.33-0.863,1.126-1.252,0.036"/>
	<path fill="none" stroke="#414042" stroke-width="2" stroke-miterlimit="10" d="M10.297,37.194c-0.287,0.62-0.636,1.179-0.979,1.73
		c-0.697,1.137-1.484,2.428-1.904,4.103c-1.76,7.004-0.963,13.028,2.298,17.426c2.388,3.229,6.552,5.439,10.866,5.767
		c1.878,0.144,3.771,1.244,5.779,2.415c1.115,0.649,2.271,1.323,3.468,1.849c3.235,1.422,6.233,2.368,9.454,2.979
		c1.67,0.314,3.26,0.474,4.739,0.474c5.042,0,9.015-1.812,11.8-5.392c1.822-2.334,2.631-4.972,3.348-7.295l0.246-0.813
		c0.777-2.479,2.344-4.813,4.079-6.092c2.802-2.055,4.497-5.053,4.901-8.671c0.367-3.301-0.188-6.245-1.707-8.995
		c-1.887-3.423-4.4-5.179-7.833-6.896l-1.105-0.554c-2.362-1.171-4.588-2.277-6.546-3.666c-1.344-0.967-1.615-1.661-2.267-3.348
		l-0.354-0.902c-2.447-6.091-11.871-8.935-17.601-9.356c-1.302-0.099-2.595-0.023-3.882,0.062c-0.731,0.049-1.463,0.101-2.371,0.101
		h-0.006c-6.903,0-11.239,2.582-12.896,7.683c-0.443,1.389-0.217,2.712-0.045,3.675"/>
</g>
</svg>
