<?xml version="1.0" encoding="utf-8"?>
<!-- Generator: Adobe Illustrator 15.0.0, SVG Export Plug-In . SVG Version: 6.00 Build 0)  -->
<!DOCTYPE svg PUBLIC "-//W3C//DTD SVG 1.0//EN" "http://www.w3.org/TR/2001/REC-SVG-20010904/DTD/svg10.dtd">
<svg version="1.0" id="Layer_1" xmlns="http://www.w3.org/2000/svg" xmlns:xlink="http://www.w3.org/1999/xlink" x="0px" y="0px"
	 width="109.753px" height="99.815px" viewBox="0 0 109.753 99.815" enable-background="new 0 0 109.753 99.815"
	 xml:space="preserve">
<path fill="none" stroke="#414042" stroke-width="2" stroke-miterlimit="10" d="M109.753,26"/>
<path fill="none" stroke="#414042" stroke-width="2" stroke-miterlimit="10" d="M51.358,42.061c1.567-1.535,2.542-3.884,2.542-6.25
	c0-4.67-3.784-8.453-8.453-8.453c-4.668,0-8.453,3.783-8.453,8.453c0,2.366,0.975,4.715,2.542,6.25h-4.958
	c-1.334,0-2.659,1.079-2.659,2.413v25.147c0,1.334,1.081,2.415,2.415,2.415h49.17c1.334,0,2.416-1.081,2.416-2.415V59.443
	l4.584,2.933c1.334,0,2.416-1.082,2.416-2.415V49.093c0-1.334-1.082-2.415-2.416-2.415l-4.584,2.934v-5.138
	c0-1.334-1.081-2.414-2.416-2.414h-7.272c2.94-2.202,4.852-5.916,4.852-9.872c0-6.67-5.406-12.075-12.076-12.075
	c-6.669,0-12.075,5.405-12.075,12.075c0,3.957,1.912,7.67,4.852,9.872"/>
</svg>
