<?xml version="1.0" encoding="utf-8"?>
<!-- Generator: Adobe Illustrator 15.0.0, SVG Export Plug-In . SVG Version: 6.00 Build 0)  -->
<!DOCTYPE svg PUBLIC "-//W3C//DTD SVG 1.0//EN" "http://www.w3.org/TR/2001/REC-SVG-20010904/DTD/svg10.dtd">
<svg version="1.0" id="Layer_1" xmlns="http://www.w3.org/2000/svg" xmlns:xlink="http://www.w3.org/1999/xlink" x="0px" y="0px"
	 width="109.753px" height="99.815px" viewBox="0 0 109.753 99.815" enable-background="new 0 0 109.753 99.815"
	 xml:space="preserve">
<path fill="none" stroke="#414042" stroke-width="2" stroke-miterlimit="10" d="M109.753,26"/>
<g>
	<g>
		<path fill="none" stroke="#333333" stroke-width="2" stroke-miterlimit="10" d="M82.712,60.875l-6.674-5.122
			c-2.381,2.696-6.475,2.969-9.143,0.612c-2.671-2.356-2.904-6.453-0.525-9.147c2.381-2.694,6.475-2.972,9.145-0.611
			c1,0.883,1.658,2.012,1.965,3.218"/>
	</g>
</g>
<path fill="none" stroke="#333333" stroke-width="2" stroke-miterlimit="10" d="M43.712,58.812l7-21.5
	c0-0.737,0.596-1.334,1.332-1.334h49.375c0.736,0,1.334,0.597,1.334,1.334l-7,28.291c0,0.736-0.598,1.334-1.334,1.334H39.065
	c-0.736,0-1.334-0.598-1.334-1.334V25.312c0-0.737,0.598-1.334,1.334-1.334h21.979c0.736,0,1.334,0.597,1.334,1.334l5.334,5.332"/>
</svg>
