<?xml version="1.0" encoding="utf-8"?>
<!-- Generator: Adobe Illustrator 15.0.0, SVG Export Plug-In . SVG Version: 6.00 Build 0)  -->
<!DOCTYPE svg PUBLIC "-//W3C//DTD SVG 1.0//EN" "http://www.w3.org/TR/2001/REC-SVG-20010904/DTD/svg10.dtd">
<svg version="1.0" id="Layer_1" xmlns="http://www.w3.org/2000/svg" xmlns:xlink="http://www.w3.org/1999/xlink" x="0px" y="0px"
	 width="109.753px" height="99.815px" viewBox="0 0 109.753 99.815" enable-background="new 0 0 109.753 99.815"
	 xml:space="preserve">
<path fill="none" stroke="#414042" stroke-width="2" stroke-miterlimit="10" d="M109.753,26"/>
<path fill="none" stroke="#414042" stroke-width="2" stroke-miterlimit="10" d="M43.5,60.812v-24.5c0-0.737,0.596-1.334,1.332-1.334
	h53.375c0.736,0,1.334,0.597,1.334,1.334v31.291c0,0.736-0.598,1.334-1.334,1.334H38.854c-0.736,0-1.333-0.598-1.333-1.334V24.312
	c0-0.737,0.598-1.334,1.333-1.334h21.979c0.736,0,1.334,0.597,1.334,1.334l5.334,5.332"/>
<line fill="none" stroke="#414042" stroke-width="2" stroke-miterlimit="10" x1="76.45" y1="57.932" x2="66.667" y2="48.15"/>
<line fill="none" stroke="#414042" stroke-width="2" stroke-miterlimit="10" x1="76.44" y1="48.066" x2="66.592" y2="57.914"/>
</svg>
