<?xml version="1.0" encoding="utf-8"?>
<!-- Generator: Adobe Illustrator 15.0.0, SVG Export Plug-In . SVG Version: 6.00 Build 0)  -->
<!DOCTYPE svg PUBLIC "-//W3C//DTD SVG 1.0//EN" "http://www.w3.org/TR/2001/REC-SVG-20010904/DTD/svg10.dtd">
<svg version="1.0" id="Layer_1" xmlns="http://www.w3.org/2000/svg" xmlns:xlink="http://www.w3.org/1999/xlink" x="0px" y="0px"
	 width="109.753px" height="99.815px" viewBox="0 0 109.753 99.815" enable-background="new 0 0 109.753 99.815"
	 xml:space="preserve">
<path fill="none" stroke="#414042" stroke-width="2" stroke-miterlimit="10" d="M109.753,26"/>
<path fill="none" stroke="#414042" stroke-width="2" stroke-miterlimit="10" d="M55.5,39c-6.075,0-11,4.925-11,11s4.925,11,11,11
	c2.322,0,4.473-0.724,6.249-1.952l6.136,6.136c-1.505,2.232-2.384,4.922-2.384,7.816c0,7.732,6.269,14,14,14c7.732,0,14-6.268,14-14
	c0-7.73-6.268-14-14-14c-3.393,0-6.503,1.208-8.926,3.216l-6.001-6.001c1.214-1.769,1.927-3.908,1.927-6.215
	c0-2.055-0.574-3.971-1.555-5.617l7.36-7.359c1.092,0.619,2.351,0.978,3.694,0.978c4.144,0,7.5-3.356,7.5-7.5
	c0-4.143-3.356-7.5-7.5-7.5c-1.264,0-2.455,0.312-3.5,0.865c-2.379,1.258-4,3.757-4,6.635c0,1.344,0.358,2.604,0.979,3.694
	l-7.174,7.173"/>
</svg>
