<?xml version="1.0" encoding="utf-8"?>
<!-- Generator: Adobe Illustrator 15.0.0, SVG Export Plug-In . SVG Version: 6.00 Build 0)  -->
<!DOCTYPE svg PUBLIC "-//W3C//DTD SVG 1.0//EN" "http://www.w3.org/TR/2001/REC-SVG-20010904/DTD/svg10.dtd">
<svg version="1.0" id="Layer_1" xmlns="http://www.w3.org/2000/svg" xmlns:xlink="http://www.w3.org/1999/xlink" x="0px" y="0px"
	 width="109.753px" height="99.815px" viewBox="0 0 109.753 99.815" enable-background="new 0 0 109.753 99.815"
	 xml:space="preserve">
<path fill="none" stroke="#414042" stroke-width="2" stroke-miterlimit="10" d="M109.753,26"/>
<path fill="none" stroke="#414042" stroke-width="2" stroke-miterlimit="10" d="M94.145,45.5c0,3.957-13.132,7.166-29.333,7.166
	c-16.199,0-29.333-3.209-29.333-7.166c0,0,2.75-3.75,12.5-3.75"/>
<path fill="none" stroke="#414042" stroke-width="2" stroke-miterlimit="10" d="M49.73,45.339
	c6.262-10.522-4.068-21.101-4.068-21.101c-0.049-2.896,8.426-4.978,18.924-5.153c10.496-0.177,19.037,1.619,19.086,4.513
	c0,0-9.123,9.905-3.443,21.146"/>
<path fill="none" stroke="#414042" stroke-width="2" stroke-miterlimit="10" d="M54.812,45c0,0,3.29,2,12.666,2c9.375,0,13-2,13-2"
	/>
</svg>
