<?xml version="1.0" encoding="utf-8"?>
<!-- Generator: Adobe Illustrator 15.0.0, SVG Export Plug-In . SVG Version: 6.00 Build 0)  -->
<!DOCTYPE svg PUBLIC "-//W3C//DTD SVG 1.0//EN" "http://www.w3.org/TR/2001/REC-SVG-20010904/DTD/svg10.dtd">
<svg version="1.0" id="Layer_1" xmlns="http://www.w3.org/2000/svg" xmlns:xlink="http://www.w3.org/1999/xlink" x="0px" y="0px"
	 width="109.753px" height="99.815px" viewBox="0 0 109.753 99.815" enable-background="new 0 0 109.753 99.815"
	 xml:space="preserve">
<path fill="none" stroke="#414042" stroke-width="2" stroke-miterlimit="10" d="M109.753,26"/>
<path fill="none" stroke="#414042" stroke-width="2" stroke-miterlimit="10" d="M30.5,23v-8.004c0-0.55,0.453-0.996,1.013-0.996
	h59.977c0.559,0,1.012,0.446,1.012,0.996v41.007c0,0.551-0.453,0.997-1.012,0.997H31.513c-0.56,0-1.013-0.446-1.013-0.997V39"/>
<line fill="none" stroke="#414042" stroke-width="2" stroke-miterlimit="10" x1="30.666" y1="33" x2="92.416" y2="33"/>
<line fill="none" stroke="#414042" stroke-width="2" stroke-miterlimit="10" x1="41.584" y1="45" x2="41.584" y2="54.916"/>
<line fill="none" stroke="#414042" stroke-width="2" stroke-miterlimit="10" x1="51.584" y1="32" x2="51.584" y2="54.916"/>
<line fill="none" stroke="#414042" stroke-width="2" stroke-miterlimit="10" x1="61.584" y1="45" x2="61.584" y2="54.916"/>
<line fill="none" stroke="#414042" stroke-width="2" stroke-miterlimit="10" x1="71.584" y1="32" x2="71.584" y2="54.916"/>
<line fill="none" stroke="#414042" stroke-width="2" stroke-miterlimit="10" x1="81.584" y1="45" x2="81.584" y2="54.916"/>
<polyline fill="none" stroke="#414042" stroke-width="2" stroke-miterlimit="10" points="44.584,34.084 44.584,45.084 
	38.584,45.084 38.584,34.084 "/>
<polyline fill="none" stroke="#414042" stroke-width="2" stroke-miterlimit="10" points="64.584,34.084 64.584,45.084 
	58.584,45.084 58.584,34.084 "/>
<polyline fill="none" stroke="#414042" stroke-width="2" stroke-miterlimit="10" points="84.584,34.084 84.584,45.084 
	78.584,45.084 78.584,34.084 "/>
</svg>
