<?xml version="1.0" encoding="utf-8"?>
<!-- Generator: Adobe Illustrator 15.0.0, SVG Export Plug-In . SVG Version: 6.00 Build 0)  -->
<!DOCTYPE svg PUBLIC "-//W3C//DTD SVG 1.0//EN" "http://www.w3.org/TR/2001/REC-SVG-20010904/DTD/svg10.dtd">
<svg version="1.0" id="Layer_1" xmlns="http://www.w3.org/2000/svg" xmlns:xlink="http://www.w3.org/1999/xlink" x="0px" y="0px"
	 width="109.753px" height="99.815px" viewBox="0 0 109.753 99.815" enable-background="new 0 0 109.753 99.815"
	 xml:space="preserve">
<path fill="none" stroke="#414042" stroke-width="2" stroke-miterlimit="10" d="M109.753,26"/>
<path fill="none" stroke="#414042" stroke-width="2" stroke-miterlimit="10" d="M31.874,57.178l15.507-36.563
	c6.993,2.263,13.954,6.462,19.96,12.469c6.005,6.004,10.203,12.963,12.466,19.953L23.5,76.922"/>
<path fill="none" stroke="#414042" stroke-width="2" stroke-miterlimit="10" d="M48.24,29.525c4.596,1.955,9.24,5.068,13.398,9.227
	c4.16,4.16,7.275,8.807,9.23,13.406"/>
<path fill="none" stroke="#414042" stroke-width="2" stroke-miterlimit="10" d="M53.177,41.553c0,1.921-1.566,3.479-3.5,3.479
	c-1.933,0-3.5-1.558-3.499-3.479c0-1.922,1.566-3.479,3.5-3.479"/>
<path fill="none" stroke="#414042" stroke-width="2" stroke-miterlimit="10" d="M54.591,55.694c0,1.922-1.567,3.479-3.5,3.479
	c-1.934,0-3.5-1.558-3.5-3.479s1.567-3.479,3.5-3.479"/>
<path fill="none" stroke="#414042" stroke-width="2" stroke-miterlimit="10" d="M35.57,62.059c0-1.922,1.566-3.479,3.5-3.479
	c1.932,0,3.5,1.558,3.499,3.479c0,1.922-1.567,3.479-3.5,3.479"/>
</svg>
