<?xml version="1.0" encoding="utf-8"?>
<!-- Generator: Adobe Illustrator 15.0.0, SVG Export Plug-In . SVG Version: 6.00 Build 0)  -->
<!DOCTYPE svg PUBLIC "-//W3C//DTD SVG 1.0//EN" "http://www.w3.org/TR/2001/REC-SVG-20010904/DTD/svg10.dtd">
<svg version="1.0" id="Layer_1" xmlns="http://www.w3.org/2000/svg" xmlns:xlink="http://www.w3.org/1999/xlink" x="0px" y="0px"
	 width="109.753px" height="99.815px" viewBox="0 0 109.753 99.815" enable-background="new 0 0 109.753 99.815"
	 xml:space="preserve">
<path fill="none" stroke="#414042" stroke-width="2" stroke-miterlimit="10" d="M109.753,26"/>
<g>
	<path fill="none" stroke="#414042" stroke-width="2" stroke-miterlimit="10" d="M70.032,34.859c0.78,0.779,0.789,2.035,0.021,2.804
		l-45.91,45.91c-0.769,0.769-2.022,0.758-2.803-0.021L7.927,70.139c-0.779-0.778-0.789-2.035-0.021-2.804l45.91-45.911
		c0.768-0.766,2.022-0.758,2.803,0.021l2.218,2.218"/>
	<line fill="none" stroke="#414042" stroke-width="2" stroke-miterlimit="10" x1="13.655" y1="61.914" x2="20.461" y2="68.719"/>
	<line fill="none" stroke="#414042" stroke-width="2" stroke-miterlimit="10" x1="18.604" y1="56.963" x2="23.29" y2="61.648"/>
	<line fill="none" stroke="#414042" stroke-width="2" stroke-miterlimit="10" x1="23.555" y1="52.014" x2="30.36" y2="58.819"/>
	<line fill="none" stroke="#414042" stroke-width="2" stroke-miterlimit="10" x1="28.504" y1="47.064" x2="33.188" y2="51.748"/>
	<line fill="none" stroke="#414042" stroke-width="2" stroke-miterlimit="10" x1="33.454" y1="42.115" x2="40.26" y2="48.92"/>
	<line fill="none" stroke="#414042" stroke-width="2" stroke-miterlimit="10" x1="38.404" y1="37.164" x2="43.088" y2="41.849"/>
	<line fill="none" stroke="#414042" stroke-width="2" stroke-miterlimit="10" x1="43.354" y1="32.215" x2="50.16" y2="39.021"/>
	<line fill="none" stroke="#414042" stroke-width="2" stroke-miterlimit="10" x1="48.303" y1="27.265" x2="52.988" y2="31.949"/>
</g>
</svg>
