<?xml version="1.0" encoding="utf-8"?>
<!-- Generator: Adobe Illustrator 15.0.0, SVG Export Plug-In . SVG Version: 6.00 Build 0)  -->
<!DOCTYPE svg PUBLIC "-//W3C//DTD SVG 1.0//EN" "http://www.w3.org/TR/2001/REC-SVG-20010904/DTD/svg10.dtd">
<svg version="1.0" id="Layer_1" xmlns="http://www.w3.org/2000/svg" xmlns:xlink="http://www.w3.org/1999/xlink" x="0px" y="0px"
	 width="109.753px" height="99.815px" viewBox="0 0 109.753 99.815" enable-background="new 0 0 109.753 99.815"
	 xml:space="preserve">
<path fill="none" stroke="#414042" stroke-width="2" stroke-miterlimit="10" d="M109.753,26"/>
<path fill="none" stroke="#414042" stroke-width="2" stroke-miterlimit="10" d="M28.5,29v-3c0-0.553,0.448-1,1-1h53l8,8v51
	c0,0.553-0.448,1-1,1h-60c-0.552,0-1-0.447-1-1V45"/>
<path fill="none" stroke="#414042" stroke-width="2" stroke-miterlimit="10" d="M76.64,25c0.476,0,0.86,0.447,0.86,1v16
	c0,0.553-0.385,1-0.86,1H41.361c-0.476,0-0.86-0.447-0.86-1V26c0-0.553,0.385-1,0.86-1"/>
<path fill="none" stroke="#414042" stroke-width="2" stroke-miterlimit="10" d="M40.394,82c-0.492,0-0.894-0.399-0.894-0.893V57.893
	c0-0.492,0.4-0.894,0.894-0.894h40.214c0.493,0,0.894,0.4,0.894,0.894v23.215c0,0.492-0.4,0.893-0.894,0.893"/>
<path fill="none" stroke="#414042" stroke-width="2" stroke-miterlimit="10" d="M46.5,39c-0.552,0-1-0.373-1-0.834v-8.332
	c0-0.461,0.448-0.834,1-0.834h3c0.552,0,1,0.373,1,0.834"/>
<line fill="none" stroke="#414042" stroke-width="2" stroke-miterlimit="10" x1="45.5" y1="64" x2="75.5" y2="64"/>
<line fill="none" stroke="#414042" stroke-width="2" stroke-miterlimit="10" x1="45.5" y1="71" x2="75.5" y2="71"/>
<line fill="none" stroke="#414042" stroke-width="2" stroke-miterlimit="10" x1="45.5" y1="78" x2="75.5" y2="78"/>
</svg>
