<?xml version="1.0" encoding="utf-8"?>
<!-- Generator: Adobe Illustrator 15.0.0, SVG Export Plug-In . SVG Version: 6.00 Build 0)  -->
<!DOCTYPE svg PUBLIC "-//W3C//DTD SVG 1.0//EN" "http://www.w3.org/TR/2001/REC-SVG-20010904/DTD/svg10.dtd">
<svg version="1.0" id="Layer_1" xmlns="http://www.w3.org/2000/svg" xmlns:xlink="http://www.w3.org/1999/xlink" x="0px" y="0px"
	 width="109.753px" height="99.814px" viewBox="0 0 109.753 99.814" enable-background="new 0 0 109.753 99.814"
	 xml:space="preserve">
<path fill="none" stroke="#414042" stroke-width="2" stroke-miterlimit="10" d="M109.753,26"/>
<path fill="none" stroke="#414042" stroke-width="2" stroke-miterlimit="10" d="M74.887,27.918c0.153-1.104,0.671-2.179,1.545-3.025
	c2.029-1.966,5.213-1.972,7.112-0.01c1.899,1.959,1.794,5.143-0.235,7.107c-0.826,0.802-1.846,1.275-2.892,1.426"/>
<line fill="none" stroke="#414042" stroke-width="2" stroke-miterlimit="10" x1="71.75" y1="35.527" x2="79.76" y2="28.609"/>
<path fill="none" stroke="#414042" stroke-width="2" stroke-miterlimit="10" d="M65.987,65.484
	c-2.871,4.184-7.674,6.925-13.111,6.925c-5.423,0-10.213-2.726-13.087-6.89"/>
<path fill="none" stroke="#414042" stroke-width="2" stroke-miterlimit="10" d="M37.071,58.312c-0.074-0.623-0.111-1.26-0.111-1.904
	c0-8.837,7.126-16,15.917-16s15.917,7.163,15.917,16c0,0.652-0.039,1.296-0.115,1.928"/>
<path fill="none" stroke="#414042" stroke-width="2" stroke-miterlimit="10" d="M48.989,59.552
	c-0.695-0.858-1.112-1.952-1.112-3.145c0-2.762,2.238-5,5-5s5,2.238,5,5c0,1.125-0.372,2.164-1,3"/>
<line fill="none" stroke="#414042" stroke-width="2" stroke-miterlimit="10" x1="23.876" y1="62.407" x2="84.876" y2="62.407"/>
<path fill="none" stroke="#414042" stroke-width="2" stroke-miterlimit="10" d="M30.49,45.354c-0.641,1.292-1.172,2.646-1.583,4.054
	h5.255c2.84-7.588,10.137-13,18.716-13s15.875,5.412,18.716,13h5.317C73.872,39.019,64.28,31.429,52.91,31.429
	c-5.213,0-10.052,1.595-14.058,4.322"/>
<path fill="none" stroke="#414042" stroke-width="2" stroke-miterlimit="10" d="M71.807,65.413
	c-3.39,7.098-10.593,11.994-18.931,11.994c-8.337,0-15.539-4.896-18.93-11.992"/>
<path fill="none" stroke="#414042" stroke-width="2" stroke-miterlimit="10" d="M73.722,53.662c0.103,0.845,0.154,1.706,0.154,2.578
	c0,0.677-0.031,1.347-0.093,2.008"/>
<ellipse fill="none" stroke="#414042" stroke-miterlimit="10" cx="74.376" cy="55.919" rx="1.5" ry="1.447"/>
<circle fill="none" stroke="#414042" stroke-miterlimit="10" cx="71.345" cy="67.939" r="1.469"/>
<circle fill="none" stroke="#414042" stroke-miterlimit="10" cx="67.345" cy="72.939" r="1.469"/>
<circle fill="none" stroke="#414042" stroke-miterlimit="10" cx="38.367" cy="72.918" r="1.448"/>
<circle fill="none" stroke="#414042" stroke-miterlimit="10" cx="44.325" cy="76.919" r="1.49"/>
<ellipse fill="none" stroke="#414042" stroke-miterlimit="10" cx="61.367" cy="76.918" rx="1.49" ry="1.448"/>
<ellipse fill="none" stroke="#414042" stroke-miterlimit="10" cx="53.366" cy="78.939" rx="1.489" ry="1.469"/>
<circle fill="none" stroke="#414042" stroke-miterlimit="10" cx="34.386" cy="67.897" r="1.427"/>
</svg>
