<?xml version="1.0" encoding="utf-8"?>
<!-- Generator: Adobe Illustrator 15.0.0, SVG Export Plug-In . SVG Version: 6.00 Build 0)  -->
<!DOCTYPE svg PUBLIC "-//W3C//DTD SVG 1.0//EN" "http://www.w3.org/TR/2001/REC-SVG-20010904/DTD/svg10.dtd">
<svg version="1.0" id="Layer_1" xmlns="http://www.w3.org/2000/svg" xmlns:xlink="http://www.w3.org/1999/xlink" x="0px" y="0px"
	 width="109.753px" height="99.815px" viewBox="0 0 109.753 99.815" enable-background="new 0 0 109.753 99.815"
	 xml:space="preserve">
<path fill="none" stroke="#414042" stroke-width="2" stroke-miterlimit="10" d="M109.753,26"/>
<path fill="none" stroke="#414042" stroke-width="2" stroke-miterlimit="10" d="M37.72,36.108c-0.657,0-1.19,0.545-1.19,1.216
	v15.521c0,0.672,0.532,1.218,1.19,1.218h12.575c4.776,3.832,14.418,16.007,20.988,16.007l0.673-0.001
	c1.404,0.001,2.542-0.629,2.544-1.402l-0.021-48.265c0-0.774-1.141-1.401-2.544-1.401h-0.674c-7.677,0-17.183,13.062-22.107,17.108"
	/>
<path fill="none" stroke="#414042" stroke-width="2" stroke-miterlimit="10" d="M80.5,39.062c2.35,1.174,3.93,3.363,3.93,5.875
	c0,2.51-1.58,4.702-3.93,5.875"/>
</svg>
