<?xml version="1.0" encoding="utf-8"?>
<!-- Generator: Adobe Illustrator 15.0.0, SVG Export Plug-In . SVG Version: 6.00 Build 0)  -->
<!DOCTYPE svg PUBLIC "-//W3C//DTD SVG 1.0//EN" "http://www.w3.org/TR/2001/REC-SVG-20010904/DTD/svg10.dtd">
<svg version="1.0" id="Layer_1" xmlns="http://www.w3.org/2000/svg" xmlns:xlink="http://www.w3.org/1999/xlink" x="0px" y="0px"
	 width="109.753px" height="99.815px" viewBox="0 0 109.753 99.815" enable-background="new 0 0 109.753 99.815"
	 xml:space="preserve">
<path fill="none" stroke="#414042" stroke-width="2" stroke-miterlimit="10" d="M109.753,26"/>
<path fill="none" stroke="#414042" stroke-width="2" stroke-miterlimit="10" d="M48.998,43.041
	c-6.602-3.034-11.966-4.885-17.356,0.506c-4.647,4.648-6.142,11.256-4.522,17.221l10.119-10.117
	c0.655-0.657,1.815-0.558,2.592,0.217l9.836,9.835c0.775,0.775,0.874,1.937,0.217,2.594l-10.15,10.15
	c5.989,1.655,12.636,0.168,17.307-4.503c5.392-5.391,3.553-10.743,0.518-17.346l27.017-22.773c0.694-0.695,2.513-4.247-1.877-8.636
	l-1.578-1.578c-3.695-3.696-7.941-2.574-8.638-1.878L57.953,33.01"/>
<path fill="none" stroke="#414042" stroke-width="2" stroke-miterlimit="10" d="M77.62,23.686c1.371,1.372,2.166,2.799,0.03,4.936
	c-2.138,2.136-4.272,2.047-5.645,0.677c-1.37-1.372-1.459-3.506,0.678-5.643C74.821,21.519,76.249,22.314,77.62,23.686z"/>
</svg>
