<?xml version="1.0" encoding="utf-8"?>
<!-- Generator: Adobe Illustrator 15.0.0, SVG Export Plug-In . SVG Version: 6.00 Build 0)  -->
<!DOCTYPE svg PUBLIC "-//W3C//DTD SVG 1.0//EN" "http://www.w3.org/TR/2001/REC-SVG-20010904/DTD/svg10.dtd">
<svg version="1.0" id="Layer_1" xmlns="http://www.w3.org/2000/svg" xmlns:xlink="http://www.w3.org/1999/xlink" x="0px" y="0px"
	 width="109.753px" height="99.815px" viewBox="0 0 109.753 99.815" enable-background="new 0 0 109.753 99.815"
	 xml:space="preserve">
<path fill="none" stroke="#414042" stroke-width="2" stroke-miterlimit="10" d="M109.753,26"/>
<g>
	<path fill="none" stroke="#333333" stroke-width="2" stroke-miterlimit="10" d="M28.5,20.333v-3.07
		c0-0.697,0.564-1.263,1.264-1.263h23.474c0.698,0,1.264,0.565,1.264,1.263v23.475c0,0.697-0.564,1.263-1.264,1.263H29.764
		c-0.697,0-1.264-0.565-1.264-1.263V33"/>
	<path fill="none" stroke="#333333" stroke-width="2" stroke-miterlimit="10" d="M89.5,40.737c0,0.697-0.564,1.263-1.264,1.263
		H64.763c-0.698,0-1.264-0.565-1.264-1.263V17.263c0-0.697,0.564-1.263,1.264-1.263h23.474c0.697,0,1.264,0.565,1.264,1.263V40.737z
		"/>
	<path fill="none" stroke="#333333" stroke-width="2" stroke-miterlimit="10" d="M54.5,75.737c0,0.697-0.564,1.263-1.264,1.263
		H29.763c-0.698,0-1.264-0.565-1.264-1.263V52.263c0-0.697,0.564-1.263,1.264-1.263h23.474c0.697,0,1.264,0.565,1.264,1.263V75.737z
		"/>
	<path fill="none" stroke="#333333" stroke-width="2" stroke-miterlimit="10" d="M89.5,75.737c0,0.697-0.564,1.263-1.264,1.263
		H64.763c-0.698,0-1.264-0.565-1.264-1.263V52.263c0-0.697,0.564-1.263,1.264-1.263h23.474c0.697,0,1.264,0.565,1.264,1.263V75.737z
		"/>
</g>
</svg>
