<?xml version="1.0" encoding="utf-8"?>
<!-- Generator: Adobe Illustrator 15.0.0, SVG Export Plug-In . SVG Version: 6.00 Build 0)  -->
<!DOCTYPE svg PUBLIC "-//W3C//DTD SVG 1.0//EN" "http://www.w3.org/TR/2001/REC-SVG-20010904/DTD/svg10.dtd">
<svg version="1.0" id="Layer_1" xmlns="http://www.w3.org/2000/svg" xmlns:xlink="http://www.w3.org/1999/xlink" x="0px" y="0px"
	 width="109.753px" height="99.815px" viewBox="0 0 109.753 99.815" enable-background="new 0 0 109.753 99.815"
	 xml:space="preserve">
<path fill="none" stroke="#414042" stroke-width="2" stroke-miterlimit="10" d="M109.753,26"/>
<path fill="none" stroke="#414042" stroke-width="2" stroke-miterlimit="10" d="M39.411,69.964c-2.763,0-4.911-2.192-4.911-5.011
	l0,0c0-2.818,2.24-4.953,5.001-4.953h5.913l37.29-17.992h7.73c2.763,0,5.003,2.284,5.003,5.103l0,0c0,2.817-2.24,4.922-5.003,4.922
	h-7.73L53.596,66.115"/>
<ellipse fill="none" stroke="#414042" stroke-width="2" stroke-miterlimit="10" cx="59.493" cy="34.982" rx="4.967" ry="4.98"/>
<path fill="none" stroke="#414042" stroke-width="2" stroke-miterlimit="10" d="M51.477,50.938c0-3.832,1.449-6.938,8.167-6.938
	c2.521,0,4.861,0.438,6.805,1.186l8.052-4.061"/>
</svg>
