<?xml version="1.0" encoding="utf-8"?>
<!-- Generator: Adobe Illustrator 15.0.0, SVG Export Plug-In . SVG Version: 6.00 Build 0)  -->
<!DOCTYPE svg PUBLIC "-//W3C//DTD SVG 1.0//EN" "http://www.w3.org/TR/2001/REC-SVG-20010904/DTD/svg10.dtd">
<svg version="1.0" id="Layer_1" xmlns="http://www.w3.org/2000/svg" xmlns:xlink="http://www.w3.org/1999/xlink" x="0px" y="0px"
	 width="109.753px" height="99.815px" viewBox="0 0 109.753 99.815" enable-background="new 0 0 109.753 99.815"
	 xml:space="preserve">
<path fill="none" stroke="#414042" stroke-width="2" stroke-miterlimit="10" d="M109.753,26"/>
<path fill="none" stroke="#414042" stroke-width="2" stroke-miterlimit="10" d="M56.638,79c0,0-30.521-43.07-19.7-53.893
	c10.821-10.822,28.383-10.81,39.224,0.032C87.001,35.98,56.638,79,56.638,79z"/>
<path fill="none" stroke="#414042" stroke-width="2" stroke-miterlimit="10" d="M67.71,25.805
	c6.285,6.281,6.355,16.402,0.156,22.603c-6.197,6.194-16.317,6.125-22.603-0.156c-6.282-6.288-6.354-16.406-0.155-22.602"/>
<path fill="none" stroke="#414042" stroke-width="2" stroke-miterlimit="10" d="M50.685,41.428c-1.253-1.567-2.185-3.36-2.185-5.083
	c0-5.466,6.876-5.979,8.093-0.88c0.02,0.079,0.347,0.086,0.366,0c1.217-5.095,8.093-4.652,8.093,0.88
	c0,4.569-6.575,9.655-8.275,9.655c-0.436,0-1.188-0.332-2.067-0.902"/>
</svg>
