<?xml version="1.0" encoding="utf-8"?>
<!-- Generator: Adobe Illustrator 15.0.0, SVG Export Plug-In . SVG Version: 6.00 Build 0)  -->
<!DOCTYPE svg PUBLIC "-//W3C//DTD SVG 1.0//EN" "http://www.w3.org/TR/2001/REC-SVG-20010904/DTD/svg10.dtd">
<svg version="1.0" id="Layer_1" xmlns="http://www.w3.org/2000/svg" xmlns:xlink="http://www.w3.org/1999/xlink" x="0px" y="0px"
	 width="3630px" height="2295px" viewBox="0 0 3630 2295" enable-background="new 0 0 3630 2295" xml:space="preserve">
<g>
	<path fill="none" stroke="#414042" stroke-width="2" stroke-miterlimit="10" d="M1796,2075.833v-45.848c0-0.554,0.447-1,1-1h50
		c0.553,0,1,0.446,1,1v59.999c0,0.553-0.447,1-1,1h-50c-0.553,0-1-0.447-1-1v-2.892"/>
	<line fill="none" stroke="#414042" stroke-width="2" stroke-miterlimit="10" x1="1800" y1="2042" x2="1844" y2="2042"/>
	<path fill="none" stroke="#414042" stroke-width="2" stroke-miterlimit="10" d="M1835.375,2056.459
		c2.316,2.902,3.701,6.581,3.701,10.583c0,9.377-7.603,16.979-16.979,16.979s-16.979-7.604-16.979-16.979
		s7.602-16.979,16.979-16.979c2.171,0,4.245,0.407,6.151,1.149"/>
	<line fill="none" stroke="#414042" stroke-width="2" stroke-miterlimit="10" x1="1800" y1="2036.083" x2="1803" y2="2036.083"/>
	<line fill="none" stroke="#414042" stroke-width="2" stroke-miterlimit="10" x1="1806" y1="2036.083" x2="1809" y2="2036.083"/>
	<path fill="none" stroke="#414042" stroke-width="2" stroke-miterlimit="10" d="M1835.948,2072.062
		c-2.772,0-5.021-2.248-5.021-5.021s2.249-5.021,5.021-5.021"/>
</g>
<g>
	<g>
		<path fill="none" stroke="#333333" stroke-width="2" stroke-miterlimit="10" d="M1565.308,1730.163
			c17.054-1.512,32.102,11.067,33.61,28.099c1.51,17.031-11.089,32.063-28.143,33.575c-17.055,1.512-32.104-11.068-33.612-28.1
			c-1.144-12.896,5.804-24.646,16.647-30.247"/>
		<path fill="none" stroke="#333333" stroke-width="2" stroke-miterlimit="10" d="M1567.917,1772.021
			c-6.04-0.052-10.921-4.961-10.921-11.012c0-6.08,4.932-11.01,11.015-11.01c6.084,0,11.016,4.93,11.016,11.01
			c0,3.801-1.927,7.152-4.856,9.13"/>
		
			<ellipse fill="none" stroke="#333333" stroke-width="2" stroke-miterlimit="10" cx="1568.011" cy="1760.985" rx="5.02" ry="5.026"/>
		
			<line fill="none" stroke="#333333" stroke-width="2" stroke-miterlimit="10" x1="1588.408" y1="1740.529" x2="1577.936" y2="1751.003"/>
		
			<line fill="none" stroke="#333333" stroke-width="2" stroke-miterlimit="10" x1="1558.003" y1="1770.936" x2="1547.529" y2="1781.409"/>
	</g>
	
		<line fill="none" stroke="#333333" stroke-width="2" stroke-miterlimit="10" x1="1586.021" y1="1767.037" x2="1586.021" y2="1780.994"/>
	
		<line fill="none" stroke="#333333" stroke-width="2" stroke-miterlimit="10" x1="1593" y1="1774.016" x2="1579.043" y2="1774.016"/>
</g>
<g>
	<path fill="none" stroke="#414042" stroke-width="2" stroke-miterlimit="10" d="M1566.015,881.996h12.062v30.063h4.043
		c1.589,0,1.879,3.68,1.879,1.88v28.182c0,1.039-0.841,1.879-1.879,1.879h-43.212c-1.038,0-1.879-0.84-1.879-1.879v-28.182
		c0-1.038,0.841-1.88,1.879-1.88h4.105v-30.063h17l0.062,8.062h-2v4.938h1.875v13.062"/>
	
		<line fill="none" stroke="#414042" stroke-width="2" stroke-miterlimit="10" x1="1546.203" y1="912.119" x2="1574.828" y2="912.119"/>
	<polyline fill="none" stroke="#414042" stroke-width="2" stroke-miterlimit="10" points="1548.015,896.059 1548.015,888.059 
		1554.015,888.059 	"/>
	<polyline fill="none" stroke="#414042" stroke-width="2" stroke-miterlimit="10" points="1568.015,896.059 1568.015,888.059 
		1574.015,888.059 	"/>
</g>
<path fill="none" stroke="#333333" stroke-width="2" stroke-miterlimit="10" d="M1554.75,927.693c0,0.057,5.625,4.307,5.625,4.307
	l7.625-9.5"/>
<g>
	<g>
		<path fill="none" stroke="#414042" stroke-width="2" stroke-miterlimit="10" d="M1696.985,881.996h12.062v30.063h4.043
			c1.589,0,1.879,3.68,1.879,1.88v28.182c0,1.039-0.841,1.879-1.879,1.879h-43.212c-1.038,0-1.879-0.84-1.879-1.879v-28.182
			c0-1.038,0.841-1.88,1.879-1.88h4.106v-30.063h17l0.062,8.062h-2v4.938h1.875v13.062"/>
		
			<line fill="none" stroke="#414042" stroke-width="2" stroke-miterlimit="10" x1="1677.172" y1="912.119" x2="1705.798" y2="912.119"/>
		<polyline fill="none" stroke="#414042" stroke-width="2" stroke-miterlimit="10" points="1678.985,896.059 1678.985,888.059 
			1684.985,888.059 		"/>
		<polyline fill="none" stroke="#414042" stroke-width="2" stroke-miterlimit="10" points="1698.985,896.059 1698.985,888.059 
			1704.985,888.059 		"/>
	</g>
	<line fill="none" stroke="#333333" stroke-width="2" stroke-miterlimit="10" x1="1686" y1="935" x2="1697.282" y2="923.717"/>
	<line fill="none" stroke="#333333" stroke-width="2" stroke-miterlimit="10" x1="1686" y1="923.717" x2="1697.282" y2="934.999"/>
</g>
<ellipse fill="none" stroke="#333333" stroke-width="2" stroke-miterlimit="10" cx="1810.999" cy="624.949" rx="13.999" ry="13.949"/>
<path fill="none" stroke="#333333" stroke-width="2" stroke-miterlimit="10" d="M1778.998,665.318
	c0-10.69,14.346-19.356,32.042-19.356c10.772,0,20.304,3.212,26.112,8.136"/>
<path fill="none" stroke="#333333" stroke-width="2" stroke-miterlimit="10" d="M1825.244,667.781
	c-1.287-1.61-2.244-3.453-2.244-5.221c0-5.612,7.062-6.142,8.312-0.902c0.021,0.08,0.354,0.088,0.377,0
	c1.25-5.233,8.312-4.778,8.312,0.902c0,4.694-6.752,10.38-8.5,10.38c-0.446,0-1.219-0.341-2.123-0.927"/>
<g>
	<path fill="none" stroke="#414042" stroke-width="2" stroke-miterlimit="10" d="M2056.139,238.478
		c-10.457,2.875-18.139,12.45-18.139,23.82c0,13.646,11.059,24.702,24.702,24.702c13.64,0,24.698-11.056,24.698-24.702
		c0-4.904-1.441-9.461-3.905-13.304l4.913-6.11c0,0,0.39-2.847-3.969-6.268c1.562-0.83,3.414-1.422,5.328-2.017
		c4.702-1.455,9.632-3.445,10.231-9.512 M2081.857,234.92c-3.685-1.958-6.261-1.506-6.261-1.506l-4.558,5.664
		c-0.165-0.059-0.325-0.132-0.492-0.188"/>
	<path fill="none" stroke="#414042" stroke-width="2" stroke-miterlimit="10" d="M2050.793,276.928
		c-3.909-3.134-6.413-7.951-6.413-13.352"/>
</g>
<g>
	<g>
		<path fill="none" stroke="#414042" stroke-width="2" stroke-miterlimit="10" d="M1920.355,117.774l-22.062,22.062
			c-0.391,0.39-0.391,1.024,0,1.414l25.455,25.456c0.392,0.391,1.022,0.39,1.415,0l31.819-31.82
			c0.291-0.291,1.788-16.659,2.9-25.384l-4.387-4.386c-8.728,1.11-25.094,2.609-25.384,2.9l-0.759,0.757"/>
		<path fill="none" stroke="#414042" stroke-width="2" stroke-miterlimit="10" d="M1954.154,116.502
			c-1.562,1.562-4.096,1.562-5.656,0c-1.562-1.562-1.562-4.095,0-5.657c1.562-1.562,4.095-1.562,5.656,0"/>
	</g>
	<g>
		
			<line fill="none" stroke="#414042" stroke-width="2" stroke-miterlimit="10" x1="1915.355" y1="132.188" x2="1923.841" y2="140.674"/>
		
			<line fill="none" stroke="#414042" stroke-width="2" stroke-miterlimit="10" x1="1923.841" y1="132.188" x2="1915.355" y2="140.674"/>
		<path fill="none" stroke="#414042" stroke-width="2" stroke-miterlimit="10" d="M1926.668,139.462c0,0,5.658,5.455,13.436-2.323
			l-16.971,16.97"/>
		
			<line fill="none" stroke="#414042" stroke-width="2" stroke-miterlimit="10" x1="1919.598" y1="150.573" x2="1926.669" y2="157.645"/>
	</g>
</g>
<g>
	<path fill="none" stroke="#414042" stroke-width="2" stroke-miterlimit="10" d="M2186.078,631.817
		c2.639-2.321,6.101-3.729,9.891-3.729c8.275,0,14.984,6.709,14.984,14.984c0,8.274-6.709,14.983-14.984,14.983
		c-8.274,0-14.983-6.709-14.983-14.983c0-0.658,0.043-1.308,0.125-1.943"/>
	<path fill="none" stroke="#414042" stroke-width="2" stroke-miterlimit="10" d="M2187.012,625.934l1-11.356
		c0-0.917,0.832-1.66,1.857-1.66h12.217c1.025,0,1.855,0.743,1.855,1.66l1,11.356"/>
	<path fill="none" stroke="#414042" stroke-width="2" stroke-miterlimit="10" d="M2205.004,660.008l-1,11.372
		c0,0.918-0.834,1.662-1.863,1.662h-12.266c-1.028,0-1.863-0.744-1.863-1.662l-1-11.372"/>
	<line fill="none" stroke="#414042" stroke-width="2" stroke-miterlimit="10" x1="2195.969" y1="643.927" x2="2195.969" y2="635"/>
	
		<line fill="none" stroke="#414042" stroke-width="2" stroke-miterlimit="10" x1="2195.969" y1="643.073" x2="2200.875" y2="643.073"/>
</g>
<g>
	<path fill="none" stroke="#414042" stroke-width="2" stroke-miterlimit="10" d="M2751,745c0-0.552,0.447-1,1-1h32
		c0.553,0,1,0.448,1,1l14,60c0,0.552-0.447,1-1,1h-60c-0.553,0-1-0.448-1-1l10.967-47"/>
	<line fill="none" stroke="#414042" stroke-width="2" stroke-miterlimit="10" x1="2768" y1="783" x2="2768" y2="800"/>
	<line fill="none" stroke="#414042" stroke-width="2" stroke-miterlimit="10" x1="2768" y1="762" x2="2768" y2="774"/>
	<line fill="none" stroke="#414042" stroke-width="2" stroke-miterlimit="10" x1="2768" y1="748" x2="2768" y2="754"/>
</g>
<path fill="none" stroke="#414042" stroke-width="2" stroke-miterlimit="10" d="M2596.52,920.618h-1.202
	c-0.332-0.333-0.416-0.787-0.188-1.017l36.473-36.473c0.229-0.229,0.685-0.146,1.017,0.188l24.065,24.064
	c0.332,0.333,0.416,0.787,0.188,1.016l-36.474,36.475c-0.229,0.229-0.684,0.145-1.017-0.188v-24.064h-10.829"/>
<g>
	<path fill="none" stroke="#414042" stroke-width="2" stroke-miterlimit="10" d="M2622.984,1293.996h12.062v30.063h4.044
		c1.589,0,1.879,3.68,1.879,1.88v28.182c0,1.039-0.841,1.879-1.879,1.879h-43.212c-1.037,0-1.879-0.84-1.879-1.879v-28.182
		c0-1.038,0.842-1.88,1.879-1.88h4.104v-30.063h17l0.062,8.062h-2v4.938h1.875v13.062"/>
	
		<line fill="none" stroke="#414042" stroke-width="2" stroke-miterlimit="10" x1="2603.172" y1="1324.119" x2="2631.798" y2="1324.119"/>
	<polyline fill="none" stroke="#414042" stroke-width="2" stroke-miterlimit="10" points="2604.984,1308.059 2604.984,1300.059 
		2610.984,1300.059 	"/>
	<polyline fill="none" stroke="#414042" stroke-width="2" stroke-miterlimit="10" points="2624.984,1308.059 2624.984,1300.059 
		2630.984,1300.059 	"/>
</g>
<ellipse fill="none" stroke="#333333" stroke-width="2" stroke-miterlimit="10" cx="2772.999" cy="1453.949" rx="13.999" ry="13.949"/>
<path fill="none" stroke="#333333" stroke-width="2" stroke-miterlimit="10" d="M2740.998,1494.318
	c0-10.69,14.346-19.356,32.042-19.356c10.772,0,20.304,3.212,26.112,8.136"/>
<path fill="none" stroke="#333333" stroke-width="2" stroke-miterlimit="10" d="M2789.75,1491.318c0,0.057,5.625,4.307,5.625,4.307
	l7.625-9.5"/>
<ellipse fill="none" stroke="#333333" stroke-width="2" stroke-miterlimit="10" cx="2773.999" cy="1595.006" rx="13.999" ry="13.949"/>
<path fill="none" stroke="#333333" stroke-width="2" stroke-miterlimit="10" d="M2741.998,1635
	c0-10.498,14.346-19.009,32.042-19.009c10.772,0,20.304,3.153,26.112,7.989"/>
<line fill="none" stroke="#333333" stroke-width="2" stroke-miterlimit="10" x1="2787" y1="1632.89" x2="2804" y2="1632.89"/>
<ellipse fill="none" stroke="#333333" stroke-width="2" stroke-miterlimit="10" cx="2629.38" cy="1594.985" rx="13.999" ry="13.949"/>
<path fill="none" stroke="#333333" stroke-width="2" stroke-miterlimit="10" d="M2597.379,1635
	c0-10.549,14.346-19.101,32.042-19.101c10.772,0,20.304,3.17,26.112,8.027"/>
<line fill="none" stroke="#333333" stroke-width="2" stroke-miterlimit="10" x1="2645.718" y1="1638.646" x2="2657" y2="1627.363"/>
<line fill="none" stroke="#333333" stroke-width="2" stroke-miterlimit="10" x1="2645.719" y1="1627.363" x2="2657" y2="1638.646"/>
<ellipse fill="none" stroke="#333333" stroke-width="2" stroke-miterlimit="10" cx="2478.043" cy="1594.631" rx="14" ry="13.949"/>
<path fill="none" stroke="#333333" stroke-width="2" stroke-miterlimit="10" d="M2446.041,1635
	c0-10.553,14.348-19.105,32.043-19.105c10.773,0,20.304,3.171,26.112,8.029"/>
<line fill="none" stroke="#333333" stroke-width="2" stroke-miterlimit="10" x1="2492.044" y1="1633.016" x2="2508" y2="1633.016"/>
<line fill="none" stroke="#333333" stroke-width="2" stroke-miterlimit="10" x1="2500.021" y1="1625.037" x2="2500.021" y2="1640.994"/>
<ellipse fill="none" stroke="#333333" stroke-width="2" stroke-miterlimit="10" cx="2350.999" cy="1594.006" rx="13.999" ry="13.949"/>
<path fill="none" stroke="#333333" stroke-width="2" stroke-miterlimit="10" d="M2318.998,1634
	c0-10.498,14.346-19.009,32.042-19.009c10.772,0,20.304,3.153,26.112,7.989"/>
<line fill="none" stroke="#333333" stroke-width="2" stroke-miterlimit="10" x1="2364" y1="1631.89" x2="2381" y2="1631.89"/>
<ellipse fill="none" stroke="#333333" stroke-width="2" stroke-miterlimit="10" cx="2203.001" cy="1594.006" rx="13.999" ry="13.949"/>
<path fill="none" stroke="#333333" stroke-width="2" stroke-miterlimit="10" d="M2171,1634c0-10.498,14.347-19.009,32.043-19.009
	c10.773,0,20.303,3.153,26.111,7.989"/>
<line fill="none" stroke="#333333" stroke-width="2" stroke-miterlimit="10" x1="2216.002" y1="1631.89" x2="2232" y2="1631.89"/>
<polyline fill="none" stroke="#333333" stroke-width="2" stroke-miterlimit="10" points="2227,1626 2233,1632 2227,1638 "/>
<polyline fill="none" stroke="#333333" stroke-width="2" stroke-miterlimit="10" points="2369,1638 2363,1632 2369,1626 "/>
<path fill="none" stroke="#414042" stroke-width="2" stroke-miterlimit="10" d="M1283.883,127.875v-2.11
	c0-0.417,0.333-0.754,0.745-0.754h35.683c0.41,0,0.743,0.337,0.743,0.754v32.419c0,0.416-0.333,0.754-0.743,0.754h-35.683
	c-0.411,0-0.745-0.338-0.745-0.754v-22.017"/>
<path fill="none" stroke="#414042" stroke-width="2" stroke-miterlimit="10" d="M1315.955,125.01v-11.932
	c0-8.362,6.95-15.141,15.523-15.141l0,0c8.574,0,15.525,6.778,15.525,15.141v11.932"/>
<path fill="none" stroke="#414042" stroke-width="2" stroke-miterlimit="10" d="M1305.996,148.964l-1.667-5.646
	c1.005-0.731,1.667-1.916,1.667-3.264c0-2.224-1.785-4.026-3.985-4.026s-3.984,1.803-3.984,4.026c0,1.367,0.676,2.57,1.704,3.296
	l-1.654,5.613"/>
<path fill="none" stroke="#414042" stroke-width="2" stroke-miterlimit="10" d="M861.859,146.904h-4.515
	c-0.276-0.288-0.543-1.03-0.265-1.319l29.243-32.369c0.277-0.288,0.728-0.288,1.006,0L917,145.585
	c0.277,0.289,0.542,1.031,0.265,1.319H872"/>
<path fill="none" stroke="#414042" stroke-width="2" stroke-miterlimit="10" d="M1158.736,410.473
	c-1.115-2.655-1.732-5.575-1.732-8.64c0-12.259,22.038-39.802,22.038-39.802s22.038,27.543,22.038,39.802
	c0,12.26-9.867,22.198-22.038,22.198c-2.531,0-4.962-0.43-7.226-1.222"/>
<path fill="none" stroke="#414042" stroke-width="2" stroke-miterlimit="10" d="M1178.958,418c-8.791,0-15.917-7.154-15.917-15.979"
	/>
<path fill="none" stroke="#414042" stroke-width="2" stroke-miterlimit="10" d="M909.062,637.094l-1.272,44.459
	c0,0.834-0.685,1.51-1.528,1.51H870.82c-0.844,0-1.526-0.676-1.526-1.51l-2.582-49.628c-0.118-1.956-5.522-1.581-4.68-1.581
	l0.031-4.339h19.919c0-2.338,1.822-2.005,6.039-2.005s6.021-0.292,6.021,2.005h19.941"/>
<line fill="none" stroke="#414042" stroke-width="2" stroke-miterlimit="10" x1="888.011" y1="643.046" x2="888.011" y2="673.969"/>
<line fill="none" stroke="#414042" stroke-width="2" stroke-miterlimit="10" x1="879.047" y1="643.046" x2="879.047" y2="673.969"/>
<line fill="none" stroke="#414042" stroke-width="2" stroke-miterlimit="10" x1="897.021" y1="643.046" x2="897.021" y2="673.969"/>
<line fill="none" stroke="#414042" stroke-width="2" stroke-miterlimit="10" x1="869.062" y1="631.005" x2="906.917" y2="631.005"/>
<path fill="none" stroke="#414042" stroke-width="2" stroke-miterlimit="10" d="M902.995,915l4.612,23.293
	c0.391,0.391,0.39,1.024,0,1.414l-9.9,9.9c-0.39,0.39-1.023,0.391-1.414,0l-9.899-9.899c-0.391-0.391-0.39-1.024,0-1.414
	l7.583-38.298C893.436,899.982,893,899.544,893,899l-2-10c0-0.552,0.448-1,1-1h10c0.552,0,1,0.448,1,1l-2,10
	c0,0.544-0.436,0.981-0.976,0.995l0.198,1.004H897"/>
<g>
	<line fill="none" stroke="#414042" stroke-width="2" stroke-miterlimit="10" x1="879" y1="1051" x2="913" y2="1051"/>
	<path fill="none" stroke="#414042" stroke-width="2" stroke-miterlimit="10" d="M859,1014c3.312,0,6,2.688,6,6h9l5.118,26"/>
	<circle fill="none" stroke="#414042" stroke-width="2" stroke-miterlimit="10" cx="884" cy="1060" r="5"/>
	<circle fill="none" stroke="#414042" stroke-width="2" stroke-miterlimit="10" cx="906" cy="1060" r="5"/>
	<path fill="none" stroke="#414042" stroke-width="2" stroke-miterlimit="10" d="M918,1027c0.552,0,1,0.447,1,1l-5,22
		c0,0.553-0.448,1-1,1"/>
	<line fill="none" stroke="#414042" stroke-width="2" stroke-miterlimit="10" x1="914" y1="1046" x2="878" y2="1046"/>
</g>
<g>
	<line fill="none" stroke="#414042" stroke-width="2" stroke-miterlimit="10" x1="879" y1="1202" x2="913" y2="1202"/>
	<path fill="none" stroke="#414042" stroke-width="2" stroke-miterlimit="10" d="M859,1165c3.312,0,6,2.688,6,6h9l5.118,26"/>
	<circle fill="none" stroke="#414042" stroke-width="2" stroke-miterlimit="10" cx="884" cy="1211" r="5"/>
	<circle fill="none" stroke="#414042" stroke-width="2" stroke-miterlimit="10" cx="906" cy="1211" r="5"/>
	<path fill="none" stroke="#414042" stroke-width="2" stroke-miterlimit="10" d="M918,1178c0.552,0,1,0.447,1,1l-5,22
		c0,0.553-0.448,1-1,1"/>
	<line fill="none" stroke="#414042" stroke-width="2" stroke-miterlimit="10" x1="914" y1="1197" x2="878" y2="1197"/>
</g>
<g>
	<line fill="none" stroke="#414042" stroke-width="2" stroke-miterlimit="10" x1="1020" y1="1202" x2="1054" y2="1202"/>
	<path fill="none" stroke="#414042" stroke-width="2" stroke-miterlimit="10" d="M1000,1165c3.312,0,6,2.688,6,6h9l5.118,26"/>
	<circle fill="none" stroke="#414042" stroke-width="2" stroke-miterlimit="10" cx="1025" cy="1211" r="5"/>
	<circle fill="none" stroke="#414042" stroke-width="2" stroke-miterlimit="10" cx="1047" cy="1211" r="5"/>
	<path fill="none" stroke="#414042" stroke-width="2" stroke-miterlimit="10" d="M1059,1178c0.552,0,1,0.447,1,1l-5,22
		c0,0.553-0.448,1-1,1"/>
	<line fill="none" stroke="#414042" stroke-width="2" stroke-miterlimit="10" x1="1055" y1="1197" x2="1019" y2="1197"/>
</g>
<g>
	<line fill="none" stroke="#414042" stroke-width="2" stroke-miterlimit="10" x1="1161" y1="1202" x2="1195" y2="1202"/>
	<path fill="none" stroke="#414042" stroke-width="2" stroke-miterlimit="10" d="M1141,1165c3.312,0,6,2.688,6,6h9l5.118,26"/>
	<circle fill="none" stroke="#414042" stroke-width="2" stroke-miterlimit="10" cx="1166" cy="1211" r="5"/>
	<circle fill="none" stroke="#414042" stroke-width="2" stroke-miterlimit="10" cx="1188" cy="1211" r="5"/>
	<path fill="none" stroke="#414042" stroke-width="2" stroke-miterlimit="10" d="M1200,1178c0.552,0,1,0.447,1,1l-5,22
		c0,0.553-0.448,1-1,1"/>
	<line fill="none" stroke="#414042" stroke-width="2" stroke-miterlimit="10" x1="1196" y1="1197" x2="1160" y2="1197"/>
</g>
<g>
	<line fill="none" stroke="#414042" stroke-width="2" stroke-miterlimit="10" x1="1299" y1="1202" x2="1333" y2="1202"/>
	<path fill="none" stroke="#414042" stroke-width="2" stroke-miterlimit="10" d="M1279,1165c3.312,0,6,2.688,6,6h9l5.118,26"/>
	<circle fill="none" stroke="#414042" stroke-width="2" stroke-miterlimit="10" cx="1304" cy="1211" r="5"/>
	<circle fill="none" stroke="#414042" stroke-width="2" stroke-miterlimit="10" cx="1326" cy="1211" r="5"/>
	<path fill="none" stroke="#414042" stroke-width="2" stroke-miterlimit="10" d="M1338,1178c0.552,0,1,0.447,1,1l-5,22
		c0,0.553-0.448,1-1,1"/>
	<line fill="none" stroke="#414042" stroke-width="2" stroke-miterlimit="10" x1="1334" y1="1197" x2="1298" y2="1197"/>
</g>
<line fill="none" stroke="#414042" stroke-width="2" stroke-miterlimit="10" x1="1317" y1="1179" x2="1317" y2="1189"/>
<line fill="none" stroke="#414042" stroke-width="2" stroke-miterlimit="10" x1="1322" y1="1184" x2="1312" y2="1184"/>
<g>
	<line fill="none" stroke="#414042" stroke-width="2" stroke-miterlimit="10" x1="1422" y1="1060" x2="1456" y2="1060"/>
	<path fill="none" stroke="#414042" stroke-width="2" stroke-miterlimit="10" d="M1402,1023c3.312,0,6,2.688,6,6h9l5.118,26"/>
	<circle fill="none" stroke="#414042" stroke-width="2" stroke-miterlimit="10" cx="1427" cy="1069" r="5"/>
	<circle fill="none" stroke="#414042" stroke-width="2" stroke-miterlimit="10" cx="1449" cy="1069" r="5"/>
	<path fill="none" stroke="#414042" stroke-width="2" stroke-miterlimit="10" d="M1461,1036c0.552,0,1,0.447,1,1l-5,22
		c0,0.553-0.448,1-1,1"/>
	<line fill="none" stroke="#414042" stroke-width="2" stroke-miterlimit="10" x1="1457" y1="1055" x2="1421" y2="1055"/>
</g>
<polyline fill="none" stroke="#414042" stroke-width="2" stroke-miterlimit="10" points="1447.303,1037.732 1440.232,1044.803 
	1436.697,1041.268 "/>
<line fill="none" stroke="#414042" stroke-width="2" stroke-miterlimit="10" x1="1184" y1="1184" x2="1174" y2="1184"/>
<line fill="none" stroke="#414042" stroke-width="2" stroke-miterlimit="10" x1="1044" y1="1184" x2="1034" y2="1184"/>
<line fill="none" stroke="#414042" stroke-width="2" stroke-miterlimit="10" x1="902" y1="1184" x2="892" y2="1184"/>
<polyline fill="none" stroke="#414042" stroke-width="2" stroke-miterlimit="10" points="1181,1179 1185,1184 1181,1189 "/>
<polyline fill="none" stroke="#414042" stroke-width="2" stroke-miterlimit="10" points="1037,1189 1033,1184 1037,1179 "/>
<g>
	<path fill="none" stroke="#414042" stroke-width="2" stroke-miterlimit="10" d="M1025,1741.13l-22.062,22.062
		c-0.391,0.39-0.39,1.023,0,1.413l25.457,25.457c0.391,0.391,1.022,0.391,1.413,0l31.82-31.82c0.29-0.291,1.789-16.658,2.901-25.383
		l-4.388-4.388c-8.726,1.11-25.094,2.609-25.384,2.9l-0.757,0.757"/>
	<path fill="none" stroke="#414042" stroke-width="2" stroke-miterlimit="10" d="M1058.799,1739.857
		c-1.562,1.562-4.095,1.562-5.657,0c-1.562-1.562-1.562-4.096,0-5.656c1.562-1.562,4.096-1.562,5.657,0"/>
</g>
<path fill="none" stroke="#414042" stroke-width="2" stroke-miterlimit="10" d="M888.876,2212.872
	c-6.17,6.483-12.876,12.942-12.876,12.942v3.146c0,1.146,0.926,2.072,2.066,2.072h54.866c1.143,0,2.066-0.929,2.066-2.072v-3.146
	c0,0-22.979-22.15-22.979-25.586v-27.188H899v26.875"/>
<g>
	<path fill="none" stroke="#414042" stroke-width="2" stroke-miterlimit="10" d="M914.863,750.28"/>
	<path fill="none" stroke="#414042" stroke-width="2" stroke-miterlimit="10" d="M886.719,751.556
		c-8.84,4.847-14.833,14.207-14.833,24.962c0,15.73,12.812,28.482,28.614,28.482s28.614-12.751,28.614-28.482
		c0-10.966-6.23-20.479-15.356-25.237c-3.215,5.378-8.114,8.815-13.604,8.815c-3.25,0-6.294-1.206-8.905-3.307"/>
	<path fill="none" stroke="#414042" stroke-width="2" stroke-miterlimit="10" d="M888.907,785.058
		c-1.206-2.072-1.896-4.483-1.896-7.058c0-7.754,6.273-14.039,14.011-14.039s14.011,6.285,14.011,14.039
		s-6.273,14.039-14.011,14.039"/>
	<path fill="none" stroke="#414042" stroke-width="2" stroke-miterlimit="10" d="M901.917,772c0-0.654,0.134-1.274,0.359-1.849
		c-0.41-0.065-0.827-0.109-1.255-0.109c-4.387,0-7.941,3.562-7.941,7.958c0,4.395,3.556,7.958,7.941,7.958
		c4.385,0,7.94-3.563,7.94-7.958c0-0.436-0.044-0.859-0.111-1.276c-0.574,0.227-1.195,0.36-1.851,0.36"/>
	<path fill="none" stroke="#414042" stroke-width="2" stroke-miterlimit="10" d="M920.913,804l5.087,7c0,0.552-0.448,1-1,1h-49
		c-0.552,0-1-0.448-1-1l5.087-7"/>
</g>
<g>
	<path fill="none" stroke="#414042" stroke-width="2" stroke-miterlimit="10" d="M2899.396,154.596
		c-5.838,2.552-13.118,5.925-14.586,5.607"/>
	<path fill="none" stroke="#414042" stroke-width="2" stroke-miterlimit="10" d="M2888.28,149.354
		c0.403-1.172,0.415-2.116-0.314-2.607c-6.685-4.503-10.966-11.421-10.966-19.179c0-13.57,13.095-24.568,29.243-24.568
		c13.35,0,24.61,7.515,28.112,17.785"/>
	<path fill="none" stroke="#414042" stroke-width="2" stroke-miterlimit="10" d="M2929.86,153.987
		c-0.293-0.842-0.302-1.521,0.227-1.873c4.823-3.236,7.913-8.209,7.913-13.785c0-9.753-9.449-17.659-21.104-17.659
		c-11.655,0-21.104,7.906-21.104,17.659c0,9.752,9.447,17.658,21.104,17.658c1.82,0,14.141,6.36,15.826,5.998"/>
</g>
<path fill="none" stroke="#414042" stroke-width="2" stroke-miterlimit="10" d="M3470.051,98.029
	c-12.676,0-22.951,10.228-22.951,22.846c0,4.571,1.361,8.819,3.686,12.39L3432.986,151c-0.451,0.45-0.484,1.147-0.072,1.557
	l3.318,3.303l3.204,3.19c0.411,0.41,1.112,0.377,1.562-0.073l18.088-18.026c3.259,1.766,6.992,2.77,10.963,2.77
	c12.677,0,22.951-10.229,22.951-22.846C3493.002,108.257,3482.727,98.029,3470.051,98.029z"/>
<path fill="none" stroke="#414042" stroke-width="2" stroke-miterlimit="10" d="M3486,120.976c0.002,8.841-7.162,16.01-16,16.01
	c-8.834-0.001-15.998-7.17-16-16.009c0.004-8.844,7.166-16.01,16-16.01"/>
<line fill="none" stroke="#414042" stroke-width="2" stroke-miterlimit="10" x1="3464" y1="121.021" x2="3476" y2="121.021"/>
<path fill="none" stroke="#414042" stroke-width="2" stroke-miterlimit="10" d="M2869,355v-4c0-0.552,0.447-1,1-1h60
	c0.553,0,1,0.448,1,1v60c0,0.552-0.447,1-1,1h-60c-0.553,0-1-0.448-1-1v-42"/>
<path fill="none" stroke="#414042" stroke-width="2" stroke-miterlimit="10" d="M2913,513.011c0,7.714-6.273,13.968-14.011,13.968
	c-7.738,0-14.009-6.254-14.009-13.968c0-7.715,6.271-13.968,14.009-13.968"/>
<path fill="none" stroke="#414042" stroke-width="2" stroke-miterlimit="10" d="M2877.787,501.701
	c-0.729,1.366-1.327,2.812-1.783,4.318h-6.974c-0.546,0-0.989,0.472-0.989,1.053v11.919c0,0.581,0.443,1.051,0.989,1.051h7.01
	c0.46,1.493,1.062,2.924,1.789,4.277l-4.97,4.969c-0.385,0.386-0.365,1.032,0.045,1.442l8.428,8.428
	c0.412,0.411,1.057,0.43,1.443,0.044l5.002-5.002c1.344,0.711,2.763,1.3,4.242,1.748v7.085c0,0.545,0.473,0.986,1.053,0.986h11.918
	c0.582,0,1.051-0.441,1.051-0.986v-7.108c1.472-0.451,2.881-1.042,4.217-1.753l5.031,5.03c0.385,0.386,1.031,0.366,1.441-0.044
	l8.428-8.428c0.41-0.411,0.43-1.058,0.045-1.442l-5.024-5.024c0.714-1.337,1.309-2.748,1.761-4.222h7.095
	c0.546,0,0.987-0.47,0.987-1.051v-11.919c0-0.581-0.441-1.053-0.987-1.053h-7.06c-0.449-1.486-1.039-2.913-1.754-4.265l4.982-4.981
	c0.387-0.387,0.367-1.03-0.045-1.441l-8.428-8.428c-0.41-0.41-1.058-0.432-1.441-0.045l-4.949,4.947
	c-1.358-0.729-2.797-1.334-4.299-1.795v-6.982c0-0.545-0.469-0.988-1.051-0.988h-11.918c-0.58,0-1.053,0.442-1.053,0.988v6.959
	c-1.511,0.458-2.957,1.06-4.324,1.791l-4.922-4.921c-0.386-0.386-1.03-0.366-1.441,0.045l-8.428,8.428
	c-0.41,0.41-0.43,1.056-0.045,1.442"/>
<g>
	<path fill="none" stroke="#414042" stroke-width="2" stroke-miterlimit="10" d="M2894.002,896.5v23.469
		c-3.711,2.295-6.002,6.371-6.002,11.031c0,7.18,5.83,13,13.062,13c7.229,0,12.938-5.82,12.938-13c0-4.6-2.412-8.632-6.043-10.942
		v-29.963c0-3.918-3.125-7.095-6.979-7.095c-3.854,0-6.978,3.177-6.978,7.095v1.072"/>
	<path fill="none" stroke="#414042" stroke-width="2" stroke-miterlimit="10" d="M2910,931c0-3.073-1.555-5.906-4.159-7.575
		l-1.841-1.181v-13.15c0-1.706-1.312-2.094-2.928-2.094s-3.036,0.497-3.036,2.203v13.096l-1.776,1.066
		c-2.668,1.661-4.26,4.515-4.26,7.635c0,4.962,4.037,9,9,9c1.742,0,3.371-0.498,4.75-1.359"/>
</g>
<rect x="2885" y="887.083" fill="#414042" width="5" height="1.917"/>
<rect x="2887" y="892.083" fill="#414042" width="3" height="1.917"/>
<rect x="2885" y="897.083" fill="#414042" width="5" height="1.917"/>
<rect x="2887" y="902.083" fill="#414042" width="3" height="1.917"/>
<rect x="2885" y="907.083" fill="#414042" width="5" height="1.917"/>
<rect x="2887" y="912.083" fill="#414042" width="3" height="1.917"/>
<rect x="2885" y="917.083" fill="#414042" width="5" height="1.917"/>
<rect x="2912" y="887.083" fill="#414042" width="5" height="1.917"/>
<rect x="2912" y="892.083" fill="#414042" width="3" height="1.917"/>
<rect x="2912" y="897.083" fill="#414042" width="5" height="1.917"/>
<rect x="2912" y="902.083" fill="#414042" width="3" height="1.917"/>
<rect x="2912" y="907.083" fill="#414042" width="5" height="1.917"/>
<rect x="2912" y="912.083" fill="#414042" width="3" height="1.917"/>
<rect x="2912" y="917.083" fill="#414042" width="5" height="1.917"/>
<path fill="none" stroke="#414042" stroke-width="2" stroke-miterlimit="10" d="M3323,1009c0.553,0,1,0.448,1,1v10
	c0,0.552-0.447,1-1,1"/>
<path fill="none" stroke="#414042" stroke-width="2" stroke-miterlimit="10" d="M3325,1073c-0.553,0-1-0.447-1-1v-10
	c0-0.552,0.447-1,1-1"/>
<path fill="none" stroke="#414042" stroke-width="2" stroke-miterlimit="10" d="M3356,1040c0,0.553-0.447,1-1,1h-10
	c-0.552,0-1-0.447-1-1"/>
<path fill="none" stroke="#414042" stroke-width="2" stroke-miterlimit="10" d="M3304,1040c0,0.553-0.447,1-1,1h-10
	c-0.552,0-1-0.447-1-1"/>
<path fill="none" stroke="#414042" stroke-width="2" stroke-miterlimit="10" d="M3345.92,1017.665c0.391,0.391,0.391,1.024,0,1.414
	l-7.07,7.071c-0.391,0.391-1.022,0.391-1.414,0"/>
<path fill="none" stroke="#414042" stroke-width="2" stroke-miterlimit="10" d="M3302.08,1064.334c-0.391-0.39-0.391-1.023,0-1.414
	l7.07-7.07c0.391-0.391,1.023-0.391,1.414,0"/>
<path fill="none" stroke="#414042" stroke-width="2" stroke-miterlimit="10" d="M3346.627,1063.627
	c-0.391,0.391-1.023,0.391-1.414,0l-7.07-7.071c-0.391-0.39-0.391-1.022,0-1.414"/>
<path fill="none" stroke="#414042" stroke-width="2" stroke-miterlimit="10" d="M3309.857,1026.857
	c-0.392,0.391-1.023,0.391-1.414,0l-7.07-7.071c-0.392-0.39-0.392-1.023,0-1.414"/>
<path fill="none" stroke="#414042" stroke-width="2" stroke-miterlimit="10" d="M3337.916,1041c0,7.688-6.23,13.916-13.916,13.916
	s-13.916-6.229-13.916-13.916s6.23-13.916,13.916-13.916"/>
<path fill="none" stroke="#414042" stroke-width="2" stroke-miterlimit="10" d="M3303.01,1296.743v-3.456
	c0-0.802,0.667-1.45,1.489-1.45h45.977c0.823,0,1.49,0.648,1.49,1.45v59.1c0,0.801-0.667,1.45-1.49,1.45h-45.977
	c-0.822,0-1.489-0.65-1.489-1.45v-43.519"/>
<path fill="none" stroke="#414042" stroke-width="2" stroke-miterlimit="10" d="M3345.938,1319.166v0.857
	c0,0.539-0.448,0.977-1.002,0.977h-34.932c-0.555,0-1.004-0.438-1.004-0.977v-20.984c0-0.539,0.449-0.977,1.004-0.977h34.932
	c0.554,0,1.002,0.438,1.002,0.977V1312"/>
<path fill="none" stroke="#414042" stroke-width="2" stroke-miterlimit="10" d="M3345.938,1347.167v0.856
	c0,0.538-0.448,0.977-1.002,0.977h-34.932c-0.555,0-1.004-0.438-1.004-0.977v-20.984c0-0.539,0.449-0.978,1.004-0.978h34.932
	c0.554,0,1.002,0.438,1.002,0.978V1341"/>
<polyline fill="none" stroke="#414042" stroke-width="2" stroke-miterlimit="10" points="3332.947,1303.938 3323,1303.938 
	3323,1301 "/>
<polyline fill="none" stroke="#414042" stroke-width="2" stroke-miterlimit="10" points="3332.947,1332.938 3323,1332.938 
	3323,1330 "/>
<path fill="none" stroke="#414042" stroke-width="2" stroke-miterlimit="10" d="M3464,1727.959V1723c0-0.552,0.504-1,1.125-1h20.812
	"/>
<path fill="none" stroke="#414042" stroke-width="2" stroke-miterlimit="10" d="M3489.125,1722h17.75c0.621,0,1.125,0.448,1.125,1
	v60c0,0.553-0.504,1-1.125,1h-41.75c-0.621,0-1.125-0.447-1.125-1v-40.916"/>
<line fill="none" stroke="#414042" stroke-width="2" stroke-miterlimit="10" x1="3482" y1="1722.062" x2="3485.938" y2="1722.062"/>
<path fill="none" stroke="#414042" stroke-width="2" stroke-miterlimit="10" d="M3490,1754.009c0,2.2-1.791,3.983-4,3.983
	s-4-1.783-4-3.983c0-1.474,0.804-2.761,1.998-3.448l0.027-0.122v-5.563c0-0.482,0.381-0.874,0.85-0.874h2.394
	c0.47,0,0.851,0.392,0.851,0.874v6.063"/>
<line fill="none" stroke="#414042" stroke-width="2" stroke-miterlimit="10" x1="3489" y1="1724" x2="3486.125" y2="1724"/>
<line fill="none" stroke="#414042" stroke-width="2" stroke-miterlimit="10" x1="3486" y1="1726" x2="3483.125" y2="1726"/>
<line fill="none" stroke="#414042" stroke-width="2" stroke-miterlimit="10" x1="3489" y1="1728" x2="3486.125" y2="1728"/>
<line fill="none" stroke="#414042" stroke-width="2" stroke-miterlimit="10" x1="3486" y1="1730" x2="3483.125" y2="1730"/>
<line fill="none" stroke="#414042" stroke-width="2" stroke-miterlimit="10" x1="3489" y1="1732" x2="3486.125" y2="1732"/>
<line fill="none" stroke="#414042" stroke-width="2" stroke-miterlimit="10" x1="3486" y1="1734" x2="3483.125" y2="1734"/>
<line fill="none" stroke="#414042" stroke-width="2" stroke-miterlimit="10" x1="3489" y1="1736" x2="3486.125" y2="1736"/>
<line fill="none" stroke="#414042" stroke-width="2" stroke-miterlimit="10" x1="3486" y1="1738" x2="3483.125" y2="1738"/>
<line fill="none" stroke="#414042" stroke-width="2" stroke-miterlimit="10" x1="3489" y1="1740" x2="3486.125" y2="1740"/>
<line fill="none" stroke="#414042" stroke-width="2" stroke-miterlimit="10" x1="3486" y1="1742" x2="3483.125" y2="1742"/>
<g>
	<path fill="none" stroke="#414042" stroke-width="2" stroke-miterlimit="10" d="M789.264,549.378v-1.031
		c0-0.522-0.419-0.947-0.937-0.947h-13.12c-0.517,0-0.937,0.425-0.937,0.947v13.03"/>
	<path fill="none" stroke="#414042" stroke-width="2" stroke-miterlimit="10" d="M751.202,587.378h-16
		c-0.517,0-0.934,0.431-0.934,0.962v12.075c0,0.532,0.417,0.963,0.934,0.963c0,0,52.812,0,53.125,0c0.312,0,0.937-0.571,0.937-0.947
		v-0.016v-26.85"/>
	
		<line fill="none" stroke="#414042" stroke-width="2" stroke-miterlimit="10" x1="774.271" y1="587.173" x2="781.163" y2="593.234"/>
	<g>
		<path fill="none" stroke="#414042" stroke-width="2" stroke-miterlimit="10" d="M755.709,584.61l32.59-32.591
			c0.537-0.538,3.542,0.623,4.311,1.394l3.554,3.553c0.767,0.766,1.928,3.771,1.392,4.311l-32.591,32.591
			c-0.536,0.536-13.746,4.978-13.746,4.978s0.688-2.38,1.528-5.195"/>
		
			<line fill="none" stroke="#414042" stroke-width="2" stroke-miterlimit="10" x1="784.827" y1="555.371" x2="794.202" y2="564.748"/>
		
			<line fill="none" stroke="#414042" stroke-width="2" stroke-miterlimit="10" x1="787.811" y1="558.356" x2="760.898" y2="585.267"/>
		
			<line fill="none" stroke="#414042" stroke-width="2" stroke-miterlimit="10" x1="791.219" y1="561.764" x2="761.872" y2="591.112"/>
		<polyline fill="none" stroke="#414042" stroke-width="2" stroke-miterlimit="10" points="756.027,585.146 761.021,585.146 
			761.934,591.173 767.473,591.477 		"/>
	</g>
	
		<line fill="none" stroke="#414042" stroke-width="2" stroke-miterlimit="10" x1="738.285" y1="597.502" x2="738.285" y2="599.336"/>
	
		<line fill="none" stroke="#414042" stroke-width="2" stroke-miterlimit="10" x1="741.285" y1="597.502" x2="741.285" y2="599.336"/>
	
		<line fill="none" stroke="#414042" stroke-width="2" stroke-miterlimit="10" x1="747.285" y1="597.502" x2="747.285" y2="599.336"/>
	
		<line fill="none" stroke="#414042" stroke-width="2" stroke-miterlimit="10" x1="750.285" y1="597.502" x2="750.285" y2="599.336"/>
	
		<line fill="none" stroke="#414042" stroke-width="2" stroke-miterlimit="10" x1="761.285" y1="597.502" x2="761.285" y2="599.336"/>
	
		<line fill="none" stroke="#414042" stroke-width="2" stroke-miterlimit="10" x1="764.285" y1="597.502" x2="764.285" y2="599.336"/>
	
		<line fill="none" stroke="#414042" stroke-width="2" stroke-miterlimit="10" x1="770.285" y1="597.502" x2="770.285" y2="599.336"/>
	
		<line fill="none" stroke="#414042" stroke-width="2" stroke-miterlimit="10" x1="773.285" y1="597.502" x2="773.285" y2="599.336"/>
	
		<line fill="none" stroke="#414042" stroke-width="2" stroke-miterlimit="10" x1="779.285" y1="597.502" x2="779.285" y2="599.336"/>
	
		<line fill="none" stroke="#414042" stroke-width="2" stroke-miterlimit="10" x1="782.285" y1="597.502" x2="782.285" y2="599.336"/>
	
		<line fill="none" stroke="#414042" stroke-width="2" stroke-miterlimit="10" x1="785.285" y1="595.502" x2="785.285" y2="599.336"/>
	
		<line fill="none" stroke="#414042" stroke-width="2" stroke-miterlimit="10" x1="776.285" y1="595.461" x2="776.285" y2="599.336"/>
	
		<line fill="none" stroke="#414042" stroke-width="2" stroke-miterlimit="10" x1="767.285" y1="595.502" x2="767.285" y2="599.336"/>
	
		<line fill="none" stroke="#414042" stroke-width="2" stroke-miterlimit="10" x1="744.285" y1="595.378" x2="744.285" y2="599.336"/>
</g>
<path fill="none" stroke="#414042" stroke-width="2" stroke-miterlimit="10" d="M604.724,776.847l-6.128,6.475
	c-0.391,0.391-1.095,0.319-1.571-0.158l-5.298-5.296c-0.478-0.479-0.549-1.183-0.156-1.573l17.627-18.627
	c0.391-0.39,1.095-0.319,1.572,0.159l5.297,5.296c0.478,0.478,0.549,1.181,0.157,1.573"/>
<path fill="none" stroke="#414042" stroke-width="2" stroke-miterlimit="10" d="M584.736,783.026
	c-4.68-3.459-9.719-4.235-16.429,2.476c-8.564,8.565-16.529,26.008-10.685,31.854c5.846,5.845,23.288-2.12,31.854-10.686
	c6.762-6.76,5.924-11.826,2.396-16.534"/>
<path fill="none" stroke="#414042" stroke-width="2" stroke-miterlimit="10" d="M595.855,781.907l-2.918-2.917l-11.234,11.234
	c-0.323-0.078-0.657-0.133-1.005-0.133c-2.349,0-4.25,1.902-4.25,4.25c0,2.349,1.901,4.25,4.25,4.25c2.348,0,4.25-1.901,4.25-4.25
	c0-0.458-0.091-0.891-0.226-1.303L595.855,781.907z"/>
<path fill="none" stroke="#414042" stroke-width="2" stroke-miterlimit="10" d="M420.875,917c0-6.896,4.878-12.642,11.343-13.933
	c-16.925,1.262-28.24,13.955-28.24,13.955s11.582,12.948,28.749,13.987C426.013,929.925,420.875,924.075,420.875,917z"/>
<path fill="none" stroke="#414042" stroke-width="2" stroke-miterlimit="10" d="M449.062,917c0,7.035-5.075,12.858-11.735,13.992
	c17.043-1.155,28.486-13.97,28.486-13.97s-11.185-12.574-27.993-13.938C444.238,904.414,449.062,910.139,449.062,917z"/>
<path fill="none" stroke="#414042" stroke-width="2" stroke-miterlimit="10" d="M438.729,915.25c-2.207,0-4-1.791-4-4
	c0-0.422,0.084-0.82,0.205-1.202c-3.812,0.019-6.896,3.123-6.896,6.952c0,3.841,3.104,6.954,6.933,6.954s6.935-3.113,6.935-6.954
	c0-0.974-0.201-1.9-0.562-2.742C440.638,914.868,439.732,915.25,438.729,915.25z"/>
<circle fill="none" stroke="#414042" stroke-width="2" stroke-miterlimit="10" cx="570.979" cy="927" r="6"/>
<path fill="none" stroke="#414042" stroke-width="2" stroke-miterlimit="10" d="M625.979,903.333l-19.988,3.712v0.125l-3.61,10.23
	c0,0.44-0.358,0.8-0.801,0.8l-21.601,4.8c-0.441,0-0.799-0.357-0.799-0.8l-11.201-18.399c0-0.442,0.358-0.801,0.801-0.801l38.601-3
	c0.441,0,0.599,0.558,0.599,1l-1,2.833"/>
<polyline fill="none" stroke="#414042" stroke-width="2" stroke-miterlimit="10" points="591.979,924 597.979,930 599.979,922 "/>
<path fill="none" stroke="#414042" stroke-width="2" stroke-miterlimit="10" d="M767.979,1188c0,4.92,0.029,16.689,0.048,23.938
	c0.009,3.584,0.016,6.062,0.016,6.062s-20.846,0-30.063,0c-16.567,0-30-13.432-30-30s13.433-30,30-30
	C754.547,1158,767.979,1171.432,767.979,1188z"/>
<path fill="none" stroke="#414042" stroke-width="2" stroke-miterlimit="10" d="M600.312,1047.084h15.666l4-0.084
	c0-10.493-11.192-24-25-24c-13.806,0-25,13.507-25,24H595v28.521c0,1.322-1.111,2.395-2.483,2.395h-1.241
	c-1.372,0-2.213-1.427-2.213-2.749"/>
<line fill="none" stroke="#414042" stroke-width="2" stroke-miterlimit="10" x1="594.979" y1="1019.332" x2="594.979" y2="1023.666"/>
<g>
	<line fill="none" stroke="#414042" stroke-width="2" stroke-miterlimit="10" x1="560.979" y1="1314" x2="607.979" y2="1314"/>
	<line fill="none" stroke="#414042" stroke-width="2" stroke-miterlimit="10" x1="560.979" y1="1326" x2="624.979" y2="1326"/>
	<line fill="none" stroke="#414042" stroke-width="2" stroke-miterlimit="10" x1="560.979" y1="1338" x2="624.979" y2="1338"/>
	<line fill="none" stroke="#414042" stroke-width="2" stroke-miterlimit="10" x1="560.979" y1="1350" x2="624.979" y2="1350"/>
	<line fill="none" stroke="#414042" stroke-width="2" stroke-miterlimit="10" x1="561.979" y1="1315" x2="561.979" y2="1325"/>
	<line fill="none" stroke="#414042" stroke-width="2" stroke-miterlimit="10" x1="584.979" y1="1315" x2="584.979" y2="1325"/>
	<line fill="none" stroke="#414042" stroke-width="2" stroke-miterlimit="10" x1="606.979" y1="1315" x2="606.979" y2="1325"/>
	<line fill="none" stroke="#414042" stroke-width="2" stroke-miterlimit="10" x1="573.979" y1="1327" x2="573.979" y2="1337"/>
	<line fill="none" stroke="#414042" stroke-width="2" stroke-miterlimit="10" x1="561.979" y1="1327" x2="561.979" y2="1337"/>
	<line fill="none" stroke="#414042" stroke-width="2" stroke-miterlimit="10" x1="583.979" y1="1339" x2="583.979" y2="1349"/>
	<line fill="none" stroke="#414042" stroke-width="2" stroke-miterlimit="10" x1="607.979" y1="1339" x2="607.979" y2="1349"/>
	<line fill="none" stroke="#414042" stroke-width="2" stroke-miterlimit="10" x1="561.979" y1="1339" x2="561.979" y2="1349"/>
	<line fill="none" stroke="#414042" stroke-width="2" stroke-miterlimit="10" x1="598.979" y1="1327" x2="598.979" y2="1337"/>
	<line fill="none" stroke="#414042" stroke-width="2" stroke-miterlimit="10" x1="620.979" y1="1327" x2="620.979" y2="1337"/>
</g>
<path fill="none" stroke="#414042" stroke-width="2" stroke-miterlimit="10" d="M737.979,1167c11.599,0,21,9.402,21,21
	s-9.401,21-21,21c-11.597,0-21-9.402-21-21"/>
<circle fill="none" stroke="#414042" stroke-width="2" stroke-miterlimit="10" cx="759.979" cy="1210" r="4"/>
<path fill="none" stroke="#414042" stroke-width="2" stroke-miterlimit="10" d="M619.917,1471c0,4.92,0.028,16.689,0.047,23.938
	c0.009,3.584,0.015,6.062,0.015,6.062s-20.845,0-30.062,0c-16.568,0-30-13.432-30-30s13.432-30,30-30S619.917,1454.432,619.917,1471
	z"/>
<path fill="none" stroke="#414042" stroke-width="2" stroke-miterlimit="10" d="M589.917,1450c11.598,0,21,9.402,21,21
	s-9.402,21-21,21s-21-9.402-21-21"/>
<circle fill="none" stroke="#414042" stroke-width="2" stroke-miterlimit="10" cx="611.917" cy="1493" r="4"/>
<line fill="none" stroke="#414042" stroke-width="2" stroke-miterlimit="10" x1="589.979" y1="1463" x2="589.979" y2="1481"/>
<line fill="none" stroke="#414042" stroke-width="2" stroke-miterlimit="10" x1="580.979" y1="1471.998" x2="598.979" y2="1471.998"/>
<path fill="none" stroke="#414042" stroke-width="2" stroke-miterlimit="10" d="M277.09,1507c0,0-30.521-43.039-19.699-53.861
	c10.821-10.821,28.383-10.809,39.223,0.033C307.454,1464.012,277.09,1507,277.09,1507z"/>
<path fill="none" stroke="#414042" stroke-width="2" stroke-miterlimit="10" d="M288.184,1453.837
	c6.285,6.282,6.355,16.403,0.156,22.603c-6.197,6.195-16.317,6.126-22.602-0.155c-6.283-6.289-6.354-16.406-0.156-22.603"/>
<line fill="none" stroke="#414042" stroke-width="2" stroke-miterlimit="10" x1="283.979" y1="1466.041" x2="270.145" y2="1466.042"/>
<line fill="none" stroke="#414042" stroke-width="2" stroke-miterlimit="10" x1="276.998" y1="1459.073" x2="276.997" y2="1473"/>
<path fill="none" stroke="#414042" stroke-width="2" stroke-miterlimit="10" d="M277.028,1653c0,0-30.521-43.039-19.699-53.861
	c10.821-10.821,28.383-10.809,39.223,0.033C307.391,1610.012,277.028,1653,277.028,1653z"/>
<path fill="none" stroke="#414042" stroke-width="2" stroke-miterlimit="10" d="M288.184,1599.837
	c6.285,6.282,6.355,16.403,0.156,22.603c-6.197,6.195-16.317,6.126-22.602-0.155c-6.283-6.289-6.354-16.406-0.156-22.603"/>
<line fill="none" stroke="#414042" stroke-width="2" stroke-miterlimit="10" x1="281.95" y1="1616.932" x2="272.167" y2="1607.15"/>
<line fill="none" stroke="#414042" stroke-width="2" stroke-miterlimit="10" x1="281.94" y1="1607.067" x2="272.092" y2="1616.914"/>
<path fill="none" stroke="#414042" stroke-width="2" stroke-miterlimit="10" d="M435.112,1653c0,0-30.521-43.038-19.699-53.86
	c10.82-10.82,28.382-10.808,39.223,0.033C465.475,1610.013,435.112,1653,435.112,1653z"/>
<path fill="none" stroke="#414042" stroke-width="2" stroke-miterlimit="10" d="M446.184,1599.837
	c6.285,6.282,6.355,16.403,0.156,22.603c-6.197,6.195-16.316,6.126-22.602-0.155c-6.283-6.289-6.354-16.406-0.156-22.603"/>
<path fill="none" stroke="#414042" stroke-width="2" stroke-miterlimit="10" d="M432.028,1508c0,0-30.521-42.977-19.699-53.799
	c10.821-10.822,28.383-10.809,39.223,0.033C462.391,1465.074,432.028,1508,432.028,1508z"/>
<path fill="none" stroke="#414042" stroke-width="2" stroke-miterlimit="10" d="M443.184,1454.837
	c6.285,6.282,6.355,16.403,0.156,22.603c-6.197,6.195-16.316,6.126-22.602-0.155c-6.283-6.289-6.354-16.406-0.156-22.603"/>
<line fill="none" stroke="#414042" stroke-width="2" stroke-miterlimit="10" x1="438.979" y1="1467.041" x2="425.145" y2="1467.042"/>
<g>
	<path fill="none" stroke="#414042" stroke-width="2" stroke-miterlimit="10" d="M287.495,512.712c0,0-4.32-4.352-5.889-5.921
		c-7.733-7.732-17.081-11.705-25.545-3.244l-15.18,15.184c-1.08,1.079-1.119,2.793-0.088,3.824l19.314,19.314
		c2.46,2.46,9.029,2.41,11.834-0.395l20.17-20.17c1.082-1.08,1.118-2.792,0.086-3.824"/>
	<polyline fill="none" stroke="#414042" stroke-width="2" stroke-miterlimit="10" points="289.892,516.427 301.56,504.757 
		305.3,508.498 	"/>
	<path fill="none" stroke="#414042" stroke-width="2" stroke-miterlimit="10" d="M257.718,511.838
		c4.875-4.876,12.785-4.87,17.666,0.01c4.881,4.881,4.885,12.79,0.01,17.666c-4.874,4.873-12.784,4.871-17.665-0.011"/>
	<path fill="none" stroke="#414042" stroke-width="2" stroke-miterlimit="10" d="M274.407,496.688c0,0,4.906,2.164,10.453,7.711"/>
	
		<ellipse transform="matrix(-0.7071 -0.7071 0.7071 -0.7071 86.8347 1077.3928)" fill="none" stroke="#414042" stroke-width="2" stroke-miterlimit="10" cx="266.553" cy="520.712" rx="6.431" ry="6.523"/>
</g>
<ellipse fill="none" stroke="#414042" stroke-width="2" stroke-miterlimit="10" cx="115.999" cy="1892.949" rx="13.999" ry="13.949"/>
<path fill="none" stroke="#414042" stroke-width="2" stroke-miterlimit="10" d="M85,1933.318c0-10.69,13.344-19.356,31.04-19.356
	c17.697,0,30.96,8.666,30.96,19.356"/>
<ellipse fill="none" stroke="#414042" stroke-width="2" stroke-miterlimit="10" cx="118.021" cy="2060.414" rx="5.923" ry="6"/>
<path fill="none" stroke="#414042" stroke-width="2" stroke-miterlimit="10" d="M103.04,2079c0-4.775,6.716-8.648,15-8.648
	s15,3.873,15,8.648"/>
<ellipse fill="none" stroke="#414042" stroke-width="2" stroke-miterlimit="10" cx="98.075" cy="2051.408" rx="4.987" ry="4.93"/>
<path fill="none" stroke="#414042" stroke-width="2" stroke-miterlimit="10" d="M87,2067.971c0-4.172,4.364-7.557,11.009-7.557
	c6.644,0,10.991,3.385,10.991,7.557"/>
<ellipse fill="none" stroke="#414042" stroke-width="2" stroke-miterlimit="10" cx="137.993" cy="2051.482" rx="4.967" ry="4.98"/>
<path fill="none" stroke="#414042" stroke-width="2" stroke-miterlimit="10" d="M127,2067.971c0-4.207,4.364-7.619,11.008-7.619
	c6.645,0,10.992,3.412,10.992,7.619"/>
<path fill="none" stroke="#414042" stroke-width="2" stroke-miterlimit="10" d="M432.083,670.914h16.465
	c0.597-0.781,0.597-2.047,0.001-2.828l-9.274-12.128h6.182c0.528-0.689,0.528-1.81,0.001-2.499l-9.8-12.428h5.156
	c0.435-0.57,0.435-1.493,0-2.061l-11.485-17.018c-0.436-0.569-1.14-0.569-1.575,0l-11.483,17.018c-0.436,0.567-0.436,1.49,0,2.059
	h5.154l-9.801,12.429c-0.527,0.689-0.527,1.81,0,2.499h6.184l-9.274,12.128c-0.597,0.781-0.597,2.047,0,2.828h18.386v11.836"/>
<path fill="none" stroke="#414042" stroke-width="2" stroke-miterlimit="10" d="M727.138,1655c0,0-30.521-43.07-19.7-53.893
	c10.821-10.822,28.383-10.81,39.224,0.032C757.501,1611.98,727.138,1655,727.138,1655z"/>
<path fill="none" stroke="#414042" stroke-width="2" stroke-miterlimit="10" d="M738.21,1601.805
	c6.285,6.281,6.355,16.402,0.156,22.603c-6.197,6.194-16.317,6.125-22.603-0.156c-6.282-6.288-6.354-16.406-0.155-22.602"/>
<path fill="none" stroke="#414042" stroke-width="2" stroke-miterlimit="10" d="M721.185,1617.428
	c-1.253-1.567-2.185-3.36-2.185-5.083c0-5.466,6.876-5.979,8.093-0.88c0.02,0.079,0.347,0.086,0.366,0
	c1.217-5.095,8.093-4.652,8.093,0.88c0,4.569-6.575,9.655-8.275,9.655c-0.436,0-1.188-0.332-2.067-0.902"/>
<path fill="none" stroke="#414042" stroke-width="2" stroke-miterlimit="10" d="M1434.329,2009.044"/>
<g>
	<path fill="none" stroke="#414042" stroke-width="2" stroke-miterlimit="10" d="M1954.979,2223.264
		c0,2.564-2.077,4.644-4.641,4.644h-29.695c-2.563,0-4.643-2.078-4.643-4.644v-25.527c0-2.563,2.078-4.642,4.643-4.642h29.695
		c2.562,0,4.641,2.077,4.641,4.642v18.107"/>
	<path fill="none" stroke="#414042" stroke-width="2" stroke-miterlimit="10" d="M1911,2190.938V2189c0-1.104,0.896-2,2-2h57.979
		c1.105,0,2,0.896,2,2v43c0,1.104-0.895,2-2,2H1913c-1.104,0-2-0.896-2-2v-25.918"/>
	<path fill="none" stroke="#414042" stroke-width="2" stroke-miterlimit="10" d="M1963.979,2201c-2.209,0-4-1.791-4-4s1.791-4,4-4
		s4,1.791,4,4"/>
	<path fill="none" stroke="#414042" stroke-width="2" stroke-miterlimit="10" d="M1963.979,2213c-2.209,0-4-1.791-4-4s1.791-4,4-4
		s4,1.791,4,4"/>
	<line fill="none" stroke="#414042" stroke-width="2" stroke-miterlimit="10" x1="1958.979" y1="2220" x2="1968.979" y2="2220"/>
	<line fill="none" stroke="#414042" stroke-width="2" stroke-miterlimit="10" x1="1958.979" y1="2224" x2="1968.979" y2="2224"/>
	<line fill="none" stroke="#414042" stroke-width="2" stroke-miterlimit="10" x1="1958.979" y1="2228" x2="1968.979" y2="2228"/>
	<line fill="none" stroke="#414042" stroke-width="2" stroke-miterlimit="10" x1="1942.979" y1="2187" x2="1948.979" y2="2171"/>
	<line fill="none" stroke="#414042" stroke-width="2" stroke-miterlimit="10" x1="1933.979" y1="2187" x2="1927.979" y2="2171"/>
	
		<line fill="none" stroke="#414042" stroke-width="2" stroke-miterlimit="10" x1="1962.041" y1="2198.938" x2="1965.916" y2="2195.062"/>
	
		<line fill="none" stroke="#414042" stroke-width="2" stroke-miterlimit="10" x1="1962.229" y1="2210.75" x2="1965.729" y2="2207.25"/>
	<path fill="none" stroke="#414042" stroke-width="2" stroke-miterlimit="10" d="M1916,2214.556c0,0,7.979,4,19.979,0s19,0,19,0"/>
	<path fill="none" stroke="#414042" stroke-width="2" stroke-miterlimit="10" d="M1916,2208.777c0,0,7.979,4,19.979,0s19,0,19,0"/>
</g>
<path fill="none" stroke="#414042" stroke-width="2" stroke-miterlimit="10" d="M1855.979,2214v9c0,1.656-1.342,3-3,3h-51
	c-1.655,0-3-1.344-3-3v-4"/>
<path fill="none" stroke="#414042" stroke-width="2" stroke-miterlimit="10" d="M1833.979,2197.959V2196c0-1.104-0.895-2-2-2h-8.957
	c-1.104,0-2,0.896-2,2v1.959"/>
<path fill="none" stroke="#414042" stroke-width="2" stroke-miterlimit="10" d="M1842.979,2214.932c0,1.144-1.006,2.068-2.25,2.068
	h-1.5c-1.241,0-2.25-0.926-2.25-2.068v-5.861c0-1.144,1.009-2.069,2.25-2.069h4.5c1.244,0,2.25,0.927,2.25,2.069v1.93h9
	c1.658,0,2-1.344,2-3v-4c0-1.656-0.342-3-2-3h-55c-1.655,0-2,1.344-2,3v4c0,1.656,0.345,3,2,3h9v-1.931
	c0-1.144,1.009-2.069,2.25-2.069h4.5c1.244,0,2.25,0.927,2.25,2.069v5.862c0,1.143-1.006,2.067-2.25,2.067h-1.5
	c-1.241,0-2.25-0.926-2.25-2.067"/>
<line fill="none" stroke="#414042" stroke-width="2" stroke-miterlimit="10" x1="1820.146" y1="2211.062" x2="1834.979" y2="2211.062"/>
<line fill="none" stroke="#414042" stroke-width="2" stroke-miterlimit="10" x1="1812.062" y1="2211.084" x2="1812.062" y2="2215.166"/>
<line fill="none" stroke="#414042" stroke-width="2" stroke-miterlimit="10" x1="1842.979" y1="2211.166" x2="1842.979" y2="2215.25"/>
<path fill="none" stroke="#414042" stroke-width="2" stroke-miterlimit="10" d="M2217.854,2222.078
	c0,2.305-7.012,2.922-15.791,2.922c-6.11,0-11.465-0.783-14.155-2.035c-2.24-1.152-1.558-2.977-1.558-2.977l7.976-29.982
	c0-1.062,0.752-1.922,1.682-1.922h13.029c0.93,0,1.682,0.859,1.682,1.922l6.64,24.961l0.205,0.033h8.498
	c0.555,0,1.002,0.471,1.002,1.053l3,14.896c0,0.581-0.447,1.052-1.002,1.052h-55.074c-0.557,0-1.006-0.471-1.006-1.052l4-14.896
	c0-0.582,0.448-1.053,1.006-1.053h1.348"/>
<path fill="none" stroke="#414042" stroke-width="2" stroke-miterlimit="10" d="M2213.535,2202.036
	c-2.152,1.768-6.289,2.964-11.039,2.964c-4.781,0-8.943-1.213-11.084-3.002"/>
<path fill="none" stroke="#414042" stroke-width="2" stroke-miterlimit="10" d="M2215.258,2209.036
	c-2.488,1.768-7.27,2.964-12.758,2.964c-5.527,0-10.336-1.213-12.809-3.002"/>
<path fill="none" stroke="#414042" stroke-width="2" stroke-miterlimit="10" d="M2364.896,2232c0,0.553-0.45,1-1.01,1h-50.815
	c-0.558,0-1.009-0.447-1.009-1v-4c0-0.552,0.451-1,1.009-1h50.815c0.56,0,1.01,0.448,1.01,1V2232z"/>
<path fill="none" stroke="#414042" stroke-width="2" stroke-miterlimit="10" d="M2348.59,2199l-2.486-11.035
	c0-0.533-0.436-0.965-0.973-0.965h-14.18c-0.537,0-0.973,0.432-0.973,0.965l-2.486,11.035H2348.59z"/>
<path fill="none" stroke="#414042" stroke-width="2" stroke-miterlimit="10" d="M2325.014,2208l-2.035,9.035
	c0,0.533,0.437,0.965,0.974,0.965h28.18c0.537,0,0.973-0.432,0.973-0.965l-2.034-9.035H2325.014z"/>
<path fill="none" stroke="#414042" stroke-width="2" stroke-miterlimit="10" d="M94.958,1067.406
	c0.428-1.226,0.441-2.212-0.333-2.727C87.538,1059.977,83,1052.748,83,1044.642c0-14.18,13.882-25.673,31-25.673
	c17.122,0,31,11.493,31,25.673c0,14.178-13.878,25.671-31,25.671c-2.675,0-20.773,9.247-23.25,8.72"/>
<path fill="none" stroke="#414042" stroke-width="2" stroke-miterlimit="10" d="M3363.916,2058c0,4.92,0.029,16.689,0.047,23.938
	c0.01,3.584,0.017,6.062,0.017,6.062s-20.847,0-30.062,0c-16.567,0-30-13.432-30-30s13.433-30,30-30
	C3350.485,2028,3363.916,2041.432,3363.916,2058z"/>
<path fill="none" stroke="#414042" stroke-width="2" stroke-miterlimit="10" d="M3333.916,2037c11.598,0,21,9.402,21,21
	s-9.402,21-21,21s-21-9.402-21-21"/>
<circle fill="none" stroke="#414042" stroke-width="2" stroke-miterlimit="10" cx="3355.916" cy="2080" r="4"/>
<line fill="none" stroke="#414042" stroke-width="2" stroke-miterlimit="10" x1="3324.979" y1="2059" x2="3342.979" y2="2059"/>
<line fill="none" stroke="#414042" stroke-width="2" stroke-miterlimit="10" x1="3463.166" y1="2090.042" x2="3466.832" y2="2090.042"/>
<line fill="none" stroke="#414042" stroke-width="2" stroke-miterlimit="10" x1="3501.166" y1="2090.042" x2="3504.832" y2="2090.042"/>
<path fill="none" stroke="#414042" stroke-width="2" stroke-miterlimit="10" d="M3487.975,2170.029
	c-12.718,0-23.026,10.281-23.026,22.965c0,4.596,1.366,8.864,3.696,12.453l-17.282,17.172c-0.452,0.452-0.484,1.153-0.072,1.564
	l6.545,6.526c0.412,0.412,1.115,0.38,1.568-0.073l17.573-17.464c3.27,1.772,7.017,2.785,10.998,2.785
	c12.72,0,23.027-10.282,23.027-22.966C3511.002,2180.311,3500.693,2170.029,3487.975,2170.029z"/>
<path fill="none" stroke="#414042" stroke-width="2" stroke-miterlimit="10" d="M3504,2193.018c0.002,8.863-7.162,16.052-16,16.052
	c-8.834-0.001-15.998-7.188-16-16.052c0.004-8.865,7.166-16.051,16-16.051"/>
<line fill="none" stroke="#414042" stroke-width="2" stroke-miterlimit="10" x1="3482" y1="2193.021" x2="3494" y2="2193.021"/>
<line fill="none" stroke="#414042" stroke-width="2" stroke-miterlimit="10" x1="3488" y1="2187.021" x2="3488" y2="2198.959"/>
<g>
	<rect x="1795" y="64" fill="#414042" width="28" height="2"/>
	<rect x="1787" y="60" fill="#414042" width="4" height="2"/>
	<rect x="1790" y="56" fill="#414042" width="4" height="2"/>
	<rect x="1796" y="56" fill="#414042" width="4" height="2"/>
	<rect x="1802" y="56" fill="#414042" width="4" height="2"/>
	<rect x="1808" y="56" fill="#414042" width="4" height="2"/>
	<rect x="1814" y="56" fill="#414042" width="4" height="2"/>
	<rect x="1820" y="56" fill="#414042" width="4" height="2"/>
	<rect x="1790" y="48" fill="#414042" width="4" height="2"/>
	<rect x="1796" y="48" fill="#414042" width="4" height="2"/>
	<rect x="1802" y="48" fill="#414042" width="4" height="2"/>
	<rect x="1808" y="48" fill="#414042" width="4" height="2"/>
	<rect x="1814" y="48" fill="#414042" width="4" height="2"/>
	<rect x="1820" y="48" fill="#414042" width="4" height="2"/>
	<rect x="1793" y="60" fill="#414042" width="4" height="2"/>
	<rect x="1799" y="60" fill="#414042" width="4" height="2"/>
	<rect x="1805" y="60" fill="#414042" width="4" height="2"/>
	<rect x="1811" y="60" fill="#414042" width="4" height="2"/>
	<rect x="1817" y="60" fill="#414042" width="4" height="2"/>
	<rect x="1823" y="60" fill="#414042" width="4" height="2"/>
	<rect x="1787" y="52" fill="#414042" width="4" height="2"/>
	<rect x="1793" y="52" fill="#414042" width="4" height="2"/>
	<rect x="1799" y="52" fill="#414042" width="4" height="2"/>
	<rect x="1805" y="52" fill="#414042" width="4" height="2"/>
	<rect x="1811" y="52" fill="#414042" width="4" height="2"/>
	<rect x="1817" y="52" fill="#414042" width="4" height="2"/>
	<rect x="1823" y="52" fill="#414042" width="4" height="2"/>
	<path fill="none" stroke="#414042" stroke-width="2" stroke-miterlimit="10" d="M1779.939,64.066L1779,68c0,0.552,0.447,1,1,1h54
		c0.553,0,1-0.448,1-1l-5-20.938V41c0-0.552-0.447-1-1-1h-12.387c-1.188,2.308-5.037,4-9.613,4s-8.426-1.692-9.613-4H1785
		c-0.553,0-1,0.448-1,1v3.334v2.729l-2.202,9.222"/>
	<path fill="none" stroke="#414042" stroke-width="2" stroke-miterlimit="10" d="M1829,32c0.553,0,1,0.448,1,1v1
		c0,0.552-0.447,1-1,1h-44c-0.553,0-1-0.448-1-1v-3c0-0.552-0.459-1-1-1h-2.959"/>
	
		<line fill="none" stroke="#414042" stroke-width="2" stroke-miterlimit="10" x1="1791.015" y1="33.958" x2="1791.079" y2="19.084"/>
	<path fill="none" stroke="#414042" stroke-width="2" stroke-miterlimit="10" d="M1791.079,12.868v-2.025
		c0-0.442,0.358-0.802,0.799-0.802h18.854l12.354,15.935l-0.062,7.983"/>
	<path fill="none" stroke="#414042" stroke-width="2" stroke-miterlimit="10" d="M1818.975,25.976h-9.19
		c-0.433,0-0.779-0.36-0.779-0.803V15.091"/>
</g>
</svg>
