<?xml version="1.0" encoding="utf-8"?>
<!-- Generator: Adobe Illustrator 15.0.0, SVG Export Plug-In . SVG Version: 6.00 Build 0)  -->
<!DOCTYPE svg PUBLIC "-//W3C//DTD SVG 1.0//EN" "http://www.w3.org/TR/2001/REC-SVG-20010904/DTD/svg10.dtd">
<svg version="1.0" id="Layer_1" xmlns="http://www.w3.org/2000/svg" xmlns:xlink="http://www.w3.org/1999/xlink" x="0px" y="0px"
	 width="109.753px" height="99.815px" viewBox="0 0 109.753 99.815" enable-background="new 0 0 109.753 99.815"
	 xml:space="preserve">
<path fill="none" stroke="#414042" stroke-width="2" stroke-miterlimit="10" d="M109.753,26"/>
<path fill="none" stroke="#414042" stroke-width="2" stroke-miterlimit="10" d="M77.5,56.011c0,7.714-6.273,13.968-14.011,13.968
	c-7.738,0-14.009-6.254-14.009-13.968c0-7.715,6.271-13.968,14.009-13.968"/>
<path fill="none" stroke="#414042" stroke-width="2" stroke-miterlimit="10" d="M42.287,44.701
	c-0.729,1.366-1.327,2.812-1.783,4.318H33.53c-0.546,0-0.989,0.472-0.989,1.053v11.919c0,0.581,0.443,1.051,0.989,1.051h7.01
	c0.46,1.493,1.062,2.924,1.789,4.277l-4.97,4.969c-0.385,0.386-0.365,1.032,0.045,1.442l8.428,8.428
	c0.412,0.411,1.057,0.43,1.443,0.044l5.002-5.002c1.344,0.711,2.763,1.3,4.242,1.748v7.085c0,0.545,0.473,0.986,1.053,0.986H69.49
	c0.582,0,1.051-0.441,1.051-0.986v-7.108c1.472-0.451,2.881-1.042,4.217-1.753l5.031,5.03c0.385,0.386,1.031,0.366,1.441-0.044
	l8.428-8.428c0.41-0.411,0.43-1.058,0.045-1.442l-5.024-5.024c0.714-1.337,1.309-2.748,1.761-4.222h7.095
	c0.546,0,0.987-0.47,0.987-1.051V50.072c0-0.581-0.441-1.053-0.987-1.053h-7.06c-0.449-1.486-1.039-2.913-1.754-4.265l4.982-4.981
	c0.387-0.387,0.367-1.03-0.045-1.441l-8.428-8.428c-0.41-0.41-1.058-0.432-1.441-0.045l-4.949,4.947
	c-1.358-0.729-2.797-1.334-4.299-1.795v-6.982c0-0.545-0.469-0.988-1.051-0.988H57.572c-0.58,0-1.053,0.442-1.053,0.988v6.959
	c-1.511,0.458-2.957,1.06-4.324,1.791l-4.922-4.921c-0.386-0.386-1.03-0.366-1.441,0.045l-8.428,8.428
	c-0.41,0.41-0.43,1.056-0.045,1.442"/>
</svg>
