<?xml version="1.0" encoding="utf-8"?>
<!-- Generator: Adobe Illustrator 15.0.0, SVG Export Plug-In . SVG Version: 6.00 Build 0)  -->
<!DOCTYPE svg PUBLIC "-//W3C//DTD SVG 1.0//EN" "http://www.w3.org/TR/2001/REC-SVG-20010904/DTD/svg10.dtd">
<svg version="1.0" id="Layer_1" xmlns="http://www.w3.org/2000/svg" xmlns:xlink="http://www.w3.org/1999/xlink" x="0px" y="0px"
	 width="109.753px" height="99.815px" viewBox="0 0 109.753 99.815" enable-background="new 0 0 109.753 99.815"
	 xml:space="preserve">
<path fill="none" stroke="#414042" stroke-width="2" stroke-miterlimit="10" d="M109.753,26"/>
<g>
	<path fill="none" stroke="#414042" stroke-width="2" stroke-miterlimit="10" d="M46.461,30.321V53.79
		c-3.711,2.295-6.002,6.371-6.002,11.031c0,7.18,5.83,13,13.062,13c7.229,0,12.938-5.82,12.938-13c0-4.6-2.412-8.632-6.043-10.942
		V23.916c0-3.918-3.125-7.095-6.979-7.095c-3.854,0-6.978,3.177-6.978,7.095v1.072"/>
	<path fill="none" stroke="#414042" stroke-width="2" stroke-miterlimit="10" d="M62.459,64.821c0-3.073-1.555-5.906-4.159-7.575
		l-1.841-1.181v-13.15c0-1.706-1.312-2.094-2.928-2.094s-3.036,0.497-3.036,2.203V56.12l-1.776,1.066
		c-2.668,1.661-4.26,4.515-4.26,7.635c0,4.962,4.037,9,9,9c1.742,0,3.371-0.498,4.75-1.359"/>
</g>
<rect x="37.459" y="20.904" fill="#414042" width="5" height="1.917"/>
<rect x="39.459" y="25.904" fill="#414042" width="3" height="1.917"/>
<rect x="37.459" y="30.904" fill="#414042" width="5" height="1.917"/>
<rect x="39.459" y="35.904" fill="#414042" width="3" height="1.917"/>
<rect x="37.459" y="40.904" fill="#414042" width="5" height="1.917"/>
<rect x="39.459" y="45.904" fill="#414042" width="3" height="1.917"/>
<rect x="37.459" y="50.904" fill="#414042" width="5" height="1.917"/>
<rect x="64.459" y="20.904" fill="#414042" width="5" height="1.917"/>
<rect x="64.459" y="25.904" fill="#414042" width="3" height="1.917"/>
<rect x="64.459" y="30.904" fill="#414042" width="5" height="1.917"/>
<rect x="64.459" y="35.904" fill="#414042" width="3" height="1.917"/>
<rect x="64.459" y="40.904" fill="#414042" width="5" height="1.917"/>
<rect x="64.459" y="45.904" fill="#414042" width="3" height="1.917"/>
<rect x="64.459" y="50.904" fill="#414042" width="5" height="1.917"/>
</svg>
