<?xml version="1.0" encoding="utf-8"?>
<!-- Generator: Adobe Illustrator 15.0.0, SVG Export Plug-In . SVG Version: 6.00 Build 0)  -->
<!DOCTYPE svg PUBLIC "-//W3C//DTD SVG 1.0//EN" "http://www.w3.org/TR/2001/REC-SVG-20010904/DTD/svg10.dtd">
<svg version="1.0" id="Layer_1" xmlns="http://www.w3.org/2000/svg" xmlns:xlink="http://www.w3.org/1999/xlink" x="0px" y="0px"
	 width="109.753px" height="99.815px" viewBox="0 0 109.753 99.815" enable-background="new 0 0 109.753 99.815"
	 xml:space="preserve">
<path fill="none" stroke="#414042" stroke-width="2" stroke-miterlimit="10" d="M109.753,26"/>
<path fill="none" stroke="#414042" stroke-width="2" stroke-miterlimit="10" d="M50.495,41l4.612,23.293
	c0.391,0.391,0.39,1.024,0,1.414l-9.9,9.9c-0.39,0.39-1.023,0.391-1.414,0l-9.899-9.899c-0.391-0.391-0.39-1.024,0-1.414
	l7.583-38.298C40.936,25.982,40.5,25.544,40.5,25l-2-10c0-0.552,0.448-1,1-1h10c0.552,0,1,0.448,1,1l-2,10
	c0,0.544-0.436,0.981-0.976,0.995l0.198,1.004H44.5"/>
</svg>
