<?xml version="1.0" encoding="utf-8"?>
<!-- Generator: Adobe Illustrator 15.0.0, SVG Export Plug-In . SVG Version: 6.00 Build 0)  -->
<!DOCTYPE svg PUBLIC "-//W3C//DTD SVG 1.0//EN" "http://www.w3.org/TR/2001/REC-SVG-20010904/DTD/svg10.dtd">
<svg version="1.0" id="Layer_1" xmlns="http://www.w3.org/2000/svg" xmlns:xlink="http://www.w3.org/1999/xlink" x="0px" y="0px"
	 width="109.753px" height="99.815px" viewBox="0 0 109.753 99.815" enable-background="new 0 0 109.753 99.815"
	 xml:space="preserve">
<path fill="none" stroke="#414042" stroke-width="2" stroke-miterlimit="10" d="M109.753,26"/>
<g>
	<g>
		<path fill="none" stroke="#414042" stroke-width="2" stroke-miterlimit="10" d="M49.485,16.996h12.062V47.06h4.043
			c1.589,0,1.879,3.68,1.879,1.88v28.182c0,1.039-0.841,1.879-1.879,1.879H22.378c-1.038,0-1.879-0.84-1.879-1.879V48.939
			c0-1.038,0.841-1.88,1.879-1.88h4.106V16.996h17l0.062,8.062h-2v4.938h1.875v13.062"/>
		<line fill="none" stroke="#414042" stroke-width="2" stroke-miterlimit="10" x1="29.672" y1="47.119" x2="58.298" y2="47.119"/>
		<polyline fill="none" stroke="#414042" stroke-width="2" stroke-miterlimit="10" points="31.485,31.059 31.485,23.059 
			37.485,23.059 		"/>
		<polyline fill="none" stroke="#414042" stroke-width="2" stroke-miterlimit="10" points="51.485,31.059 51.485,23.059 
			57.485,23.059 		"/>
	</g>
	<line fill="none" stroke="#333333" stroke-width="2" stroke-miterlimit="10" x1="38.5" y1="70" x2="49.782" y2="58.717"/>
	<line fill="none" stroke="#333333" stroke-width="2" stroke-miterlimit="10" x1="38.5" y1="58.717" x2="49.782" y2="69.999"/>
</g>
</svg>
