<?xml version="1.0" encoding="utf-8"?>
<!-- Generator: Adobe Illustrator 15.0.0, SVG Export Plug-In . SVG Version: 6.00 Build 0)  -->
<!DOCTYPE svg PUBLIC "-//W3C//DTD SVG 1.0//EN" "http://www.w3.org/TR/2001/REC-SVG-20010904/DTD/svg10.dtd">
<svg version="1.0" id="Layer_1" xmlns="http://www.w3.org/2000/svg" xmlns:xlink="http://www.w3.org/1999/xlink" x="0px" y="0px"
	 width="109.753px" height="99.815px" viewBox="0 0 109.753 99.815" enable-background="new 0 0 109.753 99.815"
	 xml:space="preserve">
<path fill="none" stroke="#414042" stroke-width="2" stroke-miterlimit="10" d="M109.753,26"/>
<g>
	<path fill="none" stroke="#414042" stroke-width="2" stroke-miterlimit="10" d="M23.5,73.833V27.985c0-0.554,0.447-1,1-1h50
		c0.553,0,1,0.446,1,1v59.999c0,0.553-0.447,1-1,1h-50c-0.553,0-1-0.447-1-1v-2.892"/>
	<line fill="none" stroke="#414042" stroke-width="2" stroke-miterlimit="10" x1="27.5" y1="40" x2="71.5" y2="40"/>
	<path fill="none" stroke="#414042" stroke-width="2" stroke-miterlimit="10" d="M62.875,54.459
		c2.316,2.902,3.701,6.581,3.701,10.583c0,9.377-7.603,16.979-16.979,16.979s-16.979-7.604-16.979-16.979
		s7.602-16.979,16.979-16.979c2.171,0,4.245,0.407,6.151,1.149"/>
	<line fill="none" stroke="#414042" stroke-width="2" stroke-miterlimit="10" x1="27.5" y1="34.083" x2="30.5" y2="34.083"/>
	<line fill="none" stroke="#414042" stroke-width="2" stroke-miterlimit="10" x1="33.5" y1="34.083" x2="36.5" y2="34.083"/>
	<path fill="none" stroke="#414042" stroke-width="2" stroke-miterlimit="10" d="M63.448,70.062c-2.772,0-5.021-2.248-5.021-5.021
		s2.249-5.021,5.021-5.021"/>
</g>
</svg>
