<?xml version="1.0" encoding="utf-8"?>
<!-- Generator: Adobe Illustrator 15.0.0, SVG Export Plug-In . SVG Version: 6.00 Build 0)  -->
<!DOCTYPE svg PUBLIC "-//W3C//DTD SVG 1.0//EN" "http://www.w3.org/TR/2001/REC-SVG-20010904/DTD/svg10.dtd">
<svg version="1.0" id="Layer_1" xmlns="http://www.w3.org/2000/svg" xmlns:xlink="http://www.w3.org/1999/xlink" x="0px" y="0px"
	 width="109.753px" height="99.815px" viewBox="0 0 109.753 99.815" enable-background="new 0 0 109.753 99.815"
	 xml:space="preserve">
<path fill="none" stroke="#414042" stroke-width="2" stroke-miterlimit="10" d="M109.753,26"/>
<g>
	<path fill="none" stroke="#414042" stroke-width="2" stroke-miterlimit="10" d="M75.363,25.28"/>
	<path fill="none" stroke="#414042" stroke-width="2" stroke-miterlimit="10" d="M47.219,26.556
		c-8.84,4.847-14.833,14.207-14.833,24.962C32.386,67.248,45.197,80,61,80s28.614-12.751,28.614-28.482
		c0-10.966-6.23-20.479-15.356-25.237c-3.215,5.378-8.114,8.815-13.604,8.815c-3.25,0-6.294-1.206-8.905-3.307"/>
	<path fill="none" stroke="#414042" stroke-width="2" stroke-miterlimit="10" d="M49.407,60.058
		c-1.206-2.072-1.896-4.483-1.896-7.058c0-7.754,6.273-14.039,14.011-14.039S75.532,45.246,75.532,53s-6.273,14.039-14.011,14.039"
		/>
	<path fill="none" stroke="#414042" stroke-width="2" stroke-miterlimit="10" d="M62.417,47c0-0.654,0.134-1.274,0.359-1.849
		c-0.41-0.065-0.827-0.109-1.255-0.109c-4.387,0-7.941,3.562-7.941,7.958c0,4.395,3.556,7.958,7.941,7.958
		c4.385,0,7.94-3.563,7.94-7.958c0-0.436-0.044-0.859-0.111-1.276c-0.574,0.227-1.195,0.36-1.851,0.36"/>
	<path fill="none" stroke="#414042" stroke-width="2" stroke-miterlimit="10" d="M81.413,79l5.087,7c0,0.552-0.448,1-1,1h-49
		c-0.552,0-1-0.448-1-1l5.087-7"/>
</g>
</svg>
