<?xml version="1.0" encoding="utf-8"?>
<!-- Generator: Adobe Illustrator 15.0.0, SVG Export Plug-In . SVG Version: 6.00 Build 0)  -->
<!DOCTYPE svg PUBLIC "-//W3C//DTD SVG 1.0//EN" "http://www.w3.org/TR/2001/REC-SVG-20010904/DTD/svg10.dtd">
<svg version="1.0" id="Layer_1" xmlns="http://www.w3.org/2000/svg" xmlns:xlink="http://www.w3.org/1999/xlink" x="0px" y="0px"
	 width="109.753px" height="99.815px" viewBox="0 0 109.753 99.815" enable-background="new 0 0 109.753 99.815"
	 xml:space="preserve">
<path fill="none" stroke="#414042" stroke-width="2" stroke-miterlimit="10" d="M109.753,26"/>
<line fill="none" stroke="#414042" stroke-width="2" stroke-miterlimit="10" x1="183.814" y1="76.203" x2="187.48" y2="76.203"/>
<path fill="none" stroke="#414042" stroke-width="2" stroke-miterlimit="10" d="M93.416,56.815c0,4.92,0.029,16.689,0.047,23.938
	c0.01,3.584,0.017,6.062,0.017,6.062s-20.847,0-30.062,0c-16.567,0-30-13.432-30-30s13.433-30,30-30
	C79.985,26.815,93.416,40.247,93.416,56.815z"/>
<path fill="none" stroke="#414042" stroke-width="2" stroke-miterlimit="10" d="M63.416,35.815c11.598,0,21,9.402,21,21
	s-9.402,21-21,21s-21-9.402-21-21"/>
<circle fill="none" stroke="#414042" stroke-width="2" stroke-miterlimit="10" cx="85.416" cy="78.815" r="4"/>
<line fill="none" stroke="#414042" stroke-width="2" stroke-miterlimit="10" x1="54.479" y1="57.815" x2="72.479" y2="57.815"/>
</svg>
