<?xml version="1.0" encoding="utf-8"?>
<!-- Generator: Adobe Illustrator 15.0.0, SVG Export Plug-In . SVG Version: 6.00 Build 0)  -->
<!DOCTYPE svg PUBLIC "-//W3C//DTD SVG 1.0//EN" "http://www.w3.org/TR/2001/REC-SVG-20010904/DTD/svg10.dtd">
<svg version="1.0" id="Layer_1" xmlns="http://www.w3.org/2000/svg" xmlns:xlink="http://www.w3.org/1999/xlink" x="0px" y="0px"
	 width="52px" height="53px" viewBox="0 0 52 53" enable-background="new 0 0 52 53" xml:space="preserve">
<g>
	<g>
		<g>
			<g>
				<g>
					<path fill="#231F20" d="M25.92,36.932c-6.598,0-11.966-5.369-11.966-11.97c0-6.6,5.368-11.969,11.966-11.969
						c6.598,0,11.966,5.369,11.966,11.969C37.886,31.562,32.518,36.932,25.92,36.932z M25.899,14.91
						c-5.555,0-10.075,4.516-10.075,10.062c0,5.549,4.52,10.062,10.075,10.062c5.555,0,10.074-4.514,10.074-10.062
						C35.973,19.426,31.453,14.91,25.899,14.91z"/>
				</g>
			</g>
		</g>
	</g>
	<g>
		<path fill="#231F20" d="M23.949,21.932c-0.122,0-0.246-0.021-0.366-0.07l-2.175-0.855l-2.175,0.855
			c-0.515,0.205-1.095-0.051-1.297-0.564C17.734,20.784,17.987,20.203,18.5,20l2.542-1c0.235-0.092,0.497-0.092,0.732,0l2.542,1
			c0.514,0.203,0.767,0.783,0.564,1.297C24.725,21.691,24.347,21.932,23.949,21.932z"/>
	</g>
	<g>
		<path fill="#231F20" d="M27.866,21.932c-0.401,0-0.779-0.242-0.933-0.64c-0.199-0.516,0.057-1.096,0.572-1.295l2.583-1
			c0.236-0.09,0.498-0.09,0.732,0.006l2.5,1c0.513,0.205,0.762,0.787,0.557,1.3c-0.205,0.512-0.786,0.762-1.3,0.557l-2.134-0.854
			l-2.217,0.857C28.108,21.91,27.986,21.932,27.866,21.932z"/>
	</g>
	<g>
		<path fill="#231F20" d="M25.908,31.035c-3.078,0-5.9-1.219-7.744-3.344c-0.362-0.418-0.317-1.049,0.1-1.412
			c0.418-0.361,1.049-0.316,1.411,0.102c1.442,1.662,3.772,2.654,6.233,2.654s4.791-0.992,6.233-2.654
			c0.362-0.418,0.992-0.463,1.411-0.102c0.417,0.363,0.462,0.994,0.1,1.412C31.808,29.816,28.986,31.035,25.908,31.035z"/>
	</g>
	<g>
		<path fill="#231F20" d="M31.538,30.557c0.348,1.002-0.212,2.104-1.252,2.467l0,0c-1.041,0.361-2.164-0.156-2.512-1.16
			l-0.642-1.848l3.764-1.31L31.538,30.557z"/>
	</g>
</g>
</svg>
