<?xml version="1.0" encoding="utf-8"?>
<!-- Generator: Adobe Illustrator 15.0.0, SVG Export Plug-In . SVG Version: 6.00 Build 0)  -->
<!DOCTYPE svg PUBLIC "-//W3C//DTD SVG 1.0//EN" "http://www.w3.org/TR/2001/REC-SVG-20010904/DTD/svg10.dtd">
<svg version="1.0" id="Layer_1" xmlns="http://www.w3.org/2000/svg" xmlns:xlink="http://www.w3.org/1999/xlink" x="0px" y="0px"
	 width="52px" height="53px" viewBox="0 0 52 53" enable-background="new 0 0 52 53" xml:space="preserve">
<g>
	<g>
		<g>
			<path fill="#231F20" d="M30.163,39.406c-6.565,0-11.907-5.341-11.907-11.906s5.342-11.906,11.907-11.906
				S42.068,20.935,42.068,27.5S36.729,39.406,30.163,39.406z M30.163,17.311c-5.618,0-10.19,4.57-10.19,10.189
				s4.572,10.189,10.19,10.189c5.616,0,10.188-4.57,10.188-10.189S35.779,17.311,30.163,17.311z"/>
		</g>
	</g>
	<g>
		<g>
			<ellipse fill="#231F20" cx="26.527" cy="23.864" rx="1.459" ry="2.417"/>
		</g>
	</g>
	<g>
		<g>
			<ellipse fill="#231F20" cx="35.611" cy="23.864" rx="1.457" ry="2.417"/>
		</g>
	</g>
	<g>
		<g>
			<rect x="22.943" y="17.656" fill="#231F20" width="13.25" height="1.75"/>
		</g>
	</g>
	<g>
		<g>
			<polygon fill="#231F20" points="19.938,23.276 19.757,21.286 39.014,19.286 39.193,21.276 			"/>
		</g>
	</g>
	<g>
		<g>
			<polygon fill="#231F20" points="41.46,27.343 19.021,26.218 19.115,24.22 41.557,25.345 			"/>
		</g>
	</g>
	<g>
		<g>
			<polygon fill="#231F20" points="19.479,31.593 19.402,29.595 41.223,28.595 41.299,30.593 			"/>
		</g>
	</g>
	<g>
		<g>
			<rect x="20.882" y="33.531" fill="#231F20" width="18.125" height="1.938"/>
		</g>
	</g>
</g>
</svg>
