<?xml version="1.0" encoding="utf-8"?>
<!-- Generator: Adobe Illustrator 15.0.0, SVG Export Plug-In . SVG Version: 6.00 Build 0)  -->
<!DOCTYPE svg PUBLIC "-//W3C//DTD SVG 1.0//EN" "http://www.w3.org/TR/2001/REC-SVG-20010904/DTD/svg10.dtd">
<svg version="1.0" id="Layer_1" xmlns="http://www.w3.org/2000/svg" xmlns:xlink="http://www.w3.org/1999/xlink" x="0px" y="0px"
	 width="52px" height="53px" viewBox="0 0 52 53" enable-background="new 0 0 52 53" xml:space="preserve">
<g>
	<g>
		<g>
			<path fill="#231F20" d="M26,37.236c-6.606,0-11.979-5.373-11.979-11.979c0-6.607,5.374-11.979,11.979-11.979
				c6.605,0,11.979,5.371,11.979,11.979C37.979,31.863,32.605,37.236,26,37.236z M26,15.172c-5.561,0-10.084,4.525-10.084,10.086
				c0,5.559,4.524,10.084,10.084,10.084c5.561,0,10.084-4.525,10.084-10.084C36.084,19.697,31.561,15.172,26,15.172z"/>
		</g>
	</g>
	<g>
		<g>
			<path fill="#231F20" d="M23.496,19.279c-0.716,0-1.314,0.479-1.463,1.117c-0.157-0.641-0.757-1.117-1.476-1.117
				c-0.837,0-1.516,0.646-1.516,1.447c0,2.312,2.995,3.498,2.995,3.498s2.959-1.158,2.959-3.514
				C24.996,19.92,24.324,19.279,23.496,19.279z"/>
		</g>
	</g>
	<g>
		<g>
			<path fill="#231F20" d="M31.496,19.279c-0.717,0-1.314,0.479-1.463,1.117c-0.157-0.641-0.758-1.117-1.477-1.117
				c-0.837,0-1.516,0.646-1.516,1.447c0,2.312,2.995,3.498,2.995,3.498s2.959-1.158,2.959-3.514
				C32.996,19.92,32.324,19.279,31.496,19.279z"/>
		</g>
	</g>
	<g>
		<g>
			<path fill="#231F20" d="M26.021,33.279c-2.496,0-4.884-1.291-6.726-3.635c-0.341-0.434-0.266-1.061,0.168-1.402
				s1.063-0.268,1.404,0.168c1.454,1.85,3.284,2.869,5.153,2.869c1.869,0,3.699-1.021,5.153-2.869
				c0.343-0.436,0.972-0.508,1.404-0.168c0.434,0.342,0.509,0.971,0.168,1.402C30.904,31.988,28.518,33.279,26.021,33.279z"/>
		</g>
	</g>
</g>
</svg>
