<?xml version="1.0" encoding="utf-8"?>
<!-- Generator: Adobe Illustrator 15.0.0, SVG Export Plug-In . SVG Version: 6.00 Build 0)  -->
<!DOCTYPE svg PUBLIC "-//W3C//DTD SVG 1.0//EN" "http://www.w3.org/TR/2001/REC-SVG-20010904/DTD/svg10.dtd">
<svg version="1.0" id="Layer_1" xmlns="http://www.w3.org/2000/svg" xmlns:xlink="http://www.w3.org/1999/xlink" x="0px" y="0px"
	 width="52px" height="53px" viewBox="0 0 52 53" enable-background="new 0 0 52 53" xml:space="preserve">
<g>
	<g>
		<g>
			<path fill="#231F20" d="M30.593,37.373c-6.604,0-11.979-5.368-11.979-11.968c0-6.601,5.375-11.97,11.979-11.97
				c6.605,0,11.979,5.369,11.979,11.97C42.572,32.005,37.198,37.373,30.593,37.373z M30.613,15.317
				c-5.57,0-10.104,4.521-10.104,10.077c0,5.558,4.533,10.077,10.104,10.077c5.572,0,10.104-4.521,10.104-10.077
				C40.719,19.838,36.186,15.317,30.613,15.317z"/>
		</g>
	</g>
	<g>
		<g>
			<circle fill="#231F20" cx="26.113" cy="21.896" r="2.458"/>
		</g>
	</g>
	<g>
		<g>
			<path fill="#231F20" d="M26.613,34.354c-0.551,0-1-0.447-1-1c0-2.972,7.469-3.537,11.279-2.411
				c0.528,0.156,0.832,0.713,0.676,1.242s-0.711,0.832-1.242,0.676c-1.012-0.301-2.34-0.63-3.732-0.63
				c-2.972,0-4.688,0.888-4.984,1.227C27.559,33.96,27.132,34.354,26.613,34.354z"/>
		</g>
	</g>
	<g>
		<g>
			<path fill="#231F20" d="M26.579,24.976c0,0.77-0.433,1.392-0.966,1.392c-0.531,0-0.963-0.622-0.963-1.392
				c0-0.768,0.432-3.543,0.963-3.543C26.146,21.433,26.579,24.208,26.579,24.976z"/>
		</g>
	</g>
	<g>
		<g>
			<circle fill="#231F20" cx="35.113" cy="21.896" r="2.458"/>
		</g>
	</g>
	<g>
		<g>
			<path fill="#231F20" d="M36.579,24.976c0,0.77-0.433,1.392-0.966,1.392c-0.531,0-0.963-0.622-0.963-1.392
				c0-0.768,0.432-3.543,0.963-3.543C36.146,21.433,36.579,24.208,36.579,24.976z"/>
		</g>
	</g>
</g>
</svg>
