<?xml version="1.0" encoding="utf-8"?>
<!-- Generator: Adobe Illustrator 15.0.0, SVG Export Plug-In . SVG Version: 6.00 Build 0)  -->
<!DOCTYPE svg PUBLIC "-//W3C//DTD SVG 1.0//EN" "http://www.w3.org/TR/2001/REC-SVG-20010904/DTD/svg10.dtd">
<svg version="1.0" id="Layer_1" xmlns="http://www.w3.org/2000/svg" xmlns:xlink="http://www.w3.org/1999/xlink" x="0px" y="0px"
	 width="52px" height="53px" viewBox="0 0 52 53" enable-background="new 0 0 52 53" xml:space="preserve">
<g>
	<g>
		<g>
			<path fill="#231F20" d="M26.323,39.121c-6.595,0-11.958-5.365-11.958-11.959c0-6.596,5.364-11.959,11.958-11.959
				c6.593,0,11.958,5.363,11.958,11.959C38.281,33.756,32.917,39.121,26.323,39.121z M26.323,17.021
				c-5.593,0-10.142,4.551-10.142,10.143s4.549,10.141,10.142,10.141c5.592,0,10.141-4.549,10.141-10.141
				S31.915,17.021,26.323,17.021z"/>
		</g>
	</g>
	<g>
		<g>
			<ellipse fill="#231F20" cx="22.865" cy="23.745" rx="1.458" ry="2.417"/>
		</g>
	</g>
	<g>
		<g>
			<ellipse fill="#231F20" cx="29.865" cy="23.745" rx="1.458" ry="2.417"/>
		</g>
	</g>
	<g>
		<g>
			<path fill="#231F20" d="M32.323,33.162h-12c-0.552,0-1-0.447-1-1c0-0.555,0.448-1,1-1h12c0.552,0,1,0.445,1,1
				C33.323,32.715,32.875,33.162,32.323,33.162z"/>
		</g>
	</g>
</g>
</svg>
