<?xml version="1.0" encoding="utf-8"?>
<!-- Generator: Adobe Illustrator 15.0.0, SVG Export Plug-In . SVG Version: 6.00 Build 0)  -->
<!DOCTYPE svg PUBLIC "-//W3C//DTD SVG 1.0//EN" "http://www.w3.org/TR/2001/REC-SVG-20010904/DTD/svg10.dtd">
<svg version="1.0" id="Layer_1" xmlns="http://www.w3.org/2000/svg" xmlns:xlink="http://www.w3.org/1999/xlink" x="0px" y="0px"
	 width="52px" height="53px" viewBox="0 0 52 53" enable-background="new 0 0 52 53" xml:space="preserve">
<g>
	<g>
		<g>
			<path fill="#231F20" d="M30.531,37.33c-6.6,0-11.969-5.35-11.969-11.926s5.369-11.927,11.969-11.927
				c6.6,0,11.969,5.351,11.969,11.927S37.131,37.33,30.531,37.33z M30.531,15.33c-5.576,0-10.113,4.521-10.113,10.076
				c0,5.555,4.537,10.076,10.113,10.076c5.576,0,10.113-4.521,10.113-10.076C40.644,19.851,36.107,15.33,30.531,15.33z"/>
		</g>
	</g>
	<g>
		<g>
			<ellipse fill="#231F20" cx="27.018" cy="21.953" rx="1.451" ry="2.441"/>
		</g>
	</g>
	<g>
		<g>
			<ellipse fill="#231F20" cx="33.984" cy="21.953" rx="1.451" ry="2.441"/>
		</g>
	</g>
	<g>
		<g>
			<path fill="#231F20" d="M36.419,32.396c-0.515,0-0.939-0.394-0.99-0.896c-0.295-0.337-2.008-1.201-4.965-1.201
				s-4.67,0.864-4.966,1.201c-0.05,0.504-0.475,0.896-0.99,0.896c-0.549,0-0.995-0.447-0.995-0.998c0-2.038,3.491-2.951,6.951-2.951
				s6.951,0.913,6.951,2.951C37.415,31.949,36.969,32.396,36.419,32.396z"/>
		</g>
	</g>
</g>
</svg>
