<?xml version="1.0" encoding="utf-8"?>
<!-- Generator: Adobe Illustrator 15.0.0, SVG Export Plug-In . SVG Version: 6.00 Build 0)  -->
<!DOCTYPE svg PUBLIC "-//W3C//DTD SVG 1.0//EN" "http://www.w3.org/TR/2001/REC-SVG-20010904/DTD/svg10.dtd">
<svg version="1.0" id="Layer_1" xmlns="http://www.w3.org/2000/svg" xmlns:xlink="http://www.w3.org/1999/xlink" x="0px" y="0px"
	 width="52px" height="53px" viewBox="0 0 52 53" enable-background="new 0 0 52 53" xml:space="preserve">
<g>
	<g>
		<path fill="#333333" d="M26.536,37.258c-3.116,0-10.464-8.084-10.464-13.662c0-5.62,4.693-10.192,10.464-10.192
			S37,17.976,37,23.596C37,29.174,29.65,37.258,26.536,37.258z M26.536,15.224c-4.726,0-8.571,3.744-8.571,8.348
			c0,4.77,6.866,11.865,8.571,11.865c1.704,0,8.569-7.098,8.569-11.865C35.105,18.968,31.262,15.224,26.536,15.224z M29.34,29.293
			c-0.449,0-0.738-0.191-0.898-0.353c-1.152-1.14,0.754-3.199,1.367-3.805c0.405-0.398,1.812-1.702,2.951-1.702
			c0.452,0,0.742,0.191,0.903,0.353c0.329,0.324,0.599,0.943,0.005,2.041c-0.3,0.555-0.788,1.181-1.376,1.761
			C31.887,27.987,30.479,29.293,29.34,29.293z M23.759,29.277c-1.137,0-2.544-1.307-2.948-1.707
			c-0.588-0.58-1.076-1.209-1.375-1.766c-0.59-1.1-0.322-1.719,0.008-2.045c0.16-0.16,0.447-0.352,0.9-0.352
			c1.137,0,2.543,1.305,2.947,1.705c0.404,0.401,1.725,1.797,1.725,2.922c-0.002,0.447-0.195,0.731-0.357,0.894
			C24.496,29.086,24.208,29.277,23.759,29.277z"/>
	</g>
</g>
</svg>
