<?xml version="1.0" encoding="utf-8"?>
<!-- Generator: Adobe Illustrator 15.0.0, SVG Export Plug-In . SVG Version: 6.00 Build 0)  -->
<!DOCTYPE svg PUBLIC "-//W3C//DTD SVG 1.0//EN" "http://www.w3.org/TR/2001/REC-SVG-20010904/DTD/svg10.dtd">
<svg version="1.0" id="Layer_1" xmlns="http://www.w3.org/2000/svg" xmlns:xlink="http://www.w3.org/1999/xlink" x="0px" y="0px"
	 width="52px" height="53px" viewBox="0 0 52 53" enable-background="new 0 0 52 53" xml:space="preserve">
<g>
	<path fill="none" stroke="#434343" stroke-width="2" stroke-miterlimit="10" d="M31.5,36.508c0,0.549-0.449,0.992-1.004,0.992
		H15.504c-0.554,0-1.004-0.443-1.004-0.992V16.492c0-0.549,0.45-0.992,1.004-0.992h14.992c0.555,0,1.004,0.443,1.004,0.992V36.508z"
		/>
	<path fill="none" stroke="#434343" stroke-width="2" stroke-miterlimit="10" d="M28.5,23.469c0,0.553-0.447,1-1,1h-9
		c-0.552,0-1-0.447-1-1v-4c0-0.553,0.448-1,1-1h9c0.553,0,1,0.447,1,1V23.469z"/>
	<path fill="none" stroke="#434343" stroke-width="2" stroke-miterlimit="10" d="M28.5,33.469c0,0.553-0.447,1-1,1h-9
		c-0.552,0-1-0.447-1-1v-4c0-0.553,0.448-1,1-1h9c0.553,0,1,0.447,1,1V33.469z"/>
	<rect x="21.5" y="20.562" fill="#434343" width="2.984" height="0.905"/>
	<rect x="21.5" y="30.541" fill="#434343" width="2.984" height="0.938"/>
</g>
</svg>
