<?xml version="1.0" encoding="utf-8"?>
<!-- Generator: Adobe Illustrator 15.0.0, SVG Export Plug-In . SVG Version: 6.00 Build 0)  -->
<!DOCTYPE svg PUBLIC "-//W3C//DTD SVG 1.0//EN" "http://www.w3.org/TR/2001/REC-SVG-20010904/DTD/svg10.dtd">
<svg version="1.0" id="Layer_1" xmlns="http://www.w3.org/2000/svg" xmlns:xlink="http://www.w3.org/1999/xlink" x="0px" y="0px"
	 width="52px" height="53px" viewBox="0 0 52 53" enable-background="new 0 0 52 53" xml:space="preserve">
<path fill="#414042" d="M39.152,22.303l-7.897-8.981c-1.055-1.185-3.028-1.287-4.196-0.215c-1.211,1.11-1.308,3.011-0.234,4.209
	c0.091,0.109,1.969,2.373,3.441,4.003H19.272c-1.734,0-3.144,0.786-3.176,2.938c0.032,2.151,1.441,2.938,3.176,2.938h11.119
	l-3.543,4.078c-1.097,1.227-1.003,3.127,0.211,4.236c0.547,0.502,1.254,0.779,1.991,0.779c0.841,0,1.646-0.363,2.209-0.998
	l7.892-8.971C40.17,25.174,40.17,23.445,39.152,22.303z M37.665,24.99l-7.892,8.971c-0.35,0.394-0.987,0.428-1.379,0.071
	c-0.405-0.373-0.438-1.01-0.062-1.433l4.024-4.631c0.209-0.24,0.388-0.502,0.547-0.773c0.34-0.578-0.004-1.875-1.353-1.875
	s-12.4,0-12.4,0c-0.893,0-1.245,0.084-1.245-1.041v0.017c0-1.125,0.353-1.039,1.245-1.039c0,0,10.827,0,12.377,0
	c1.55,0,1.678-1.389,1.33-1.937c-0.16-0.254-0.338-0.498-0.547-0.719c-1.455-1.543-3.938-4.536-3.987-4.593
	c-0.367-0.411-0.336-1.049,0.069-1.422c0.181-0.165,0.412-0.256,0.654-0.256c0.279,0,0.537,0.117,0.721,0.323l7.898,8.981
	C38.012,24.019,38.012,24.6,37.665,24.99z"/>
</svg>
