<?xml version="1.0" encoding="utf-8"?>
<!-- Generator: Adobe Illustrator 15.0.0, SVG Export Plug-In . SVG Version: 6.00 Build 0)  -->
<!DOCTYPE svg PUBLIC "-//W3C//DTD SVG 1.0//EN" "http://www.w3.org/TR/2001/REC-SVG-20010904/DTD/svg10.dtd">
<svg version="1.0" id="Layer_1" xmlns="http://www.w3.org/2000/svg" xmlns:xlink="http://www.w3.org/1999/xlink" x="0px" y="0px"
	 width="52px" height="53px" viewBox="0 0 52 53" enable-background="new 0 0 52 53" xml:space="preserve">
<g>
	<path fill="#414042" d="M12.021,15.607c0-2.008,1.192-3.305,3.043-3.305h17.856c1.854,0,3.056,1.291,3.056,3.289
		c0,1.297-0.529,2.66-1.349,3.477l-7.362,7.824c-0.892,0.889-2.046,1.365-3.271,1.365c-1.227,0-2.383-0.478-3.249-1.342
		l-7.409-7.873C12.546,18.258,12.021,16.902,12.021,15.607z M33.979,15.541c0-1.302-0.767-1.302-1.056-1.302H15.066
		c-0.284,0-1.045,0-1.045,1.315c0,0.771,0.311,1.617,0.752,2.062l7.41,7.901c0.467,0.468,1.119,0.738,1.812,0.738
		s1.345-0.271,1.835-0.762l7.364-7.855C33.665,17.168,33.979,16.316,33.979,15.541z"/>
</g>
</svg>
