<?xml version="1.0" encoding="utf-8"?>
<!-- Generator: Adobe Illustrator 15.0.0, SVG Export Plug-In . SVG Version: 6.00 Build 0)  -->
<!DOCTYPE svg PUBLIC "-//W3C//DTD SVG 1.0//EN" "http://www.w3.org/TR/2001/REC-SVG-20010904/DTD/svg10.dtd">
<svg version="1.0" id="Layer_1" xmlns="http://www.w3.org/2000/svg" xmlns:xlink="http://www.w3.org/1999/xlink" x="0px" y="0px"
	 width="52px" height="53px" viewBox="0 0 52 53" enable-background="new 0 0 52 53" xml:space="preserve">
<g>
	<path fill="#414042" d="M29.174,15.543c2.006,0,3.303,1.195,3.303,3.045v17.857c0,1.854-1.291,3.055-3.288,3.055
		c-1.297,0-2.66-0.529-3.476-1.348l-7.826-7.365c-0.888-0.89-1.364-2.043-1.364-3.271c0-1.227,0.477-2.381,1.342-3.248l7.872-7.409
		C26.522,16.068,27.879,15.543,29.174,15.543z M29.239,37.5c1.301,0,1.301-0.766,1.301-1.055V18.588c0-0.286,0-1.045-1.316-1.045
		c-0.771,0-1.617,0.309-2.06,0.752l-7.903,7.409c-0.467,0.468-0.737,1.119-0.737,1.812c0,0.693,0.271,1.347,0.761,1.836l7.856,7.364
		C27.612,37.188,28.465,37.5,29.239,37.5z"/>
</g>
</svg>
