<?xml version="1.0" encoding="utf-8"?>
<!-- Generator: Adobe Illustrator 15.0.0, SVG Export Plug-In . SVG Version: 6.00 Build 0)  -->
<!DOCTYPE svg PUBLIC "-//W3C//DTD SVG 1.0//EN" "http://www.w3.org/TR/2001/REC-SVG-20010904/DTD/svg10.dtd">
<svg version="1.0" id="Layer_1" xmlns="http://www.w3.org/2000/svg" xmlns:xlink="http://www.w3.org/1999/xlink" x="0px" y="0px"
	 width="52px" height="53px" viewBox="0 0 52 53" enable-background="new 0 0 52 53" xml:space="preserve">
<g>
	<g>
		<g>
			<path fill="#414042" d="M39.938,20.332c0,0.001,0,0.002,0,0.002l-0.023,8.008c-0.002,0.477-0.337,0.881-0.801,0.975l-8.19,1.621
				l0.019,4.043c0,0.002,0,0.004,0,0.006c0,0.275-0.115,0.539-0.318,0.729c-0.376,0.353-0.864,0.545-1.371,0.545
				c-0.578,0-1.131-0.252-1.516-0.688l-9.139-9.739c-0.72-0.817-0.695-2.035-0.019-2.81l9.171-9.929
				c0.334-0.385,0.85-0.634,1.396-0.662c0.545-0.028,1.084,0.165,1.479,0.532c0.202,0.188,0.316,0.449,0.318,0.724l0.015,4.109
				l8.174,1.56C39.598,19.445,39.938,19.855,39.938,20.332z M38.165,27.471l0.021-6.404l-8.27-1.568
				c-0.475-0.09-0.814-0.5-0.816-0.979l-0.015-3.889l-9.033,9.681l9.023,9.637l-0.019-3.854c0-0.002,0-0.004,0-0.006
				c0-0.478,0.34-0.89,0.811-0.98L38.165,27.471z"/>
		</g>
	</g>
</g>
</svg>
