<?xml version="1.0" encoding="utf-8"?>
<!-- Generator: Adobe Illustrator 15.0.0, SVG Export Plug-In . SVG Version: 6.00 Build 0)  -->
<!DOCTYPE svg PUBLIC "-//W3C//DTD SVG 1.0//EN" "http://www.w3.org/TR/2001/REC-SVG-20010904/DTD/svg10.dtd">
<svg version="1.0" id="Layer_1" xmlns="http://www.w3.org/2000/svg" xmlns:xlink="http://www.w3.org/1999/xlink" x="0px" y="0px"
	 width="52px" height="53px" viewBox="0 0 52 53" enable-background="new 0 0 52 53" xml:space="preserve">
<g>
	<g>
		<path fill="#414042" d="M33.023,32.217H15.061c-1.644,0-2.979-1.365-2.979-3.043V17.3c0-1.678,1.336-3.043,2.979-3.043h17.963
			c1.641,0,2.977,1.365,2.977,3.043v11.874C36,30.852,34.664,32.217,33.023,32.217z M14.986,16.132
			c-0.551,0-0.998,0.475-0.998,1.059v12.062c0,0.584,0.447,1.06,0.998,1.06h18.142c0.55,0,0.997-0.476,0.997-1.06V17.191
			c0-0.584-0.447-1.059-0.997-1.059H14.986z"/>
	</g>
	<g>
		<path fill="#414042" d="M28,13.195h-1.911c0-0.492-0.438-1.025-0.978-1.025h-2.163c-0.539,0-0.978,0.533-0.978,1.025h-1.89
			c0-1.619,1.321-2.938,2.944-2.938h2.025C26.678,10.257,28,11.575,28,13.195z"/>
	</g>
	<g>
		<rect x="17.073" y="15.882" fill="#414042" width="1.926" height="14.834"/>
	</g>
	<g>
		<rect x="29.001" y="15.882" fill="#414042" width="1.926" height="14.834"/>
	</g>
</g>
</svg>
