<?xml version="1.0" encoding="utf-8"?>
<!-- Generator: Adobe Illustrator 15.0.0, SVG Export Plug-In . SVG Version: 6.00 Build 0)  -->
<!DOCTYPE svg PUBLIC "-//W3C//DTD SVG 1.0//EN" "http://www.w3.org/TR/2001/REC-SVG-20010904/DTD/svg10.dtd">
<svg version="1.0" id="Layer_1" xmlns="http://www.w3.org/2000/svg" xmlns:xlink="http://www.w3.org/1999/xlink" x="0px" y="0px"
	 width="52px" height="53px" viewBox="0 0 52 53" enable-background="new 0 0 52 53" xml:space="preserve">
<g>
	<g>
		<path fill="#434343" d="M29.27,21.676c-2.08,0-3.767,1.656-3.767,3.699c0,1.211,0.753,1.564,0.753,0.73
			c0-2.043,1.687-3.689,3.768-3.689C30.871,22.416,30.503,21.676,29.27,21.676z"/>
	</g>
	<path fill="#434343" d="M29.965,18.582c-4.117,0-7.465,3.229-7.465,7.193c0,3.986,3.339,11.066,6.928,11.75l1.387-0.078
		c3.347-0.992,6.618-7.521,6.618-11.672C37.433,21.811,34.083,18.582,29.965,18.582z M30.625,35.918l-1.078,0.066
		c-2.786-0.572-5.379-6.502-5.379-9.838c0-3.32,2.6-6.023,5.797-6.023c3.197,0,5.799,2.703,5.799,6.023
		C35.764,29.621,33.224,35.088,30.625,35.918z"/>
	<g>
		<path fill="#434343" d="M31.517,42.5c-0.861,0-2.147-0.061-2.779-1.074c-0.162-0.262-0.174-0.465-0.173-0.689
			c0.003-0.525,0.227-0.961,0.423-1.346c0.049-0.096,0.098-0.189,0.142-0.285l0.076-0.16c0.233-0.494,0.719-1.523,0.498-1.957
			c-0.113-0.221,0.001-0.482,0.257-0.58c0.255-0.098,0.554,0.002,0.668,0.225c0.396,0.777-0.136,1.902-0.488,2.646l-0.073,0.158
			c-0.05,0.105-0.103,0.209-0.156,0.312c-0.17,0.334-0.333,0.65-0.335,0.992c-0.001,0.164,0.009,0.195,0.051,0.264
			c0.358,0.574,1.152,0.619,2.06,0.613l0.166-0.002c0.279,0,0.506,0.197,0.506,0.441c0,0.244-0.227,0.439-0.506,0.439L31.693,42.5
			C31.636,42.5,31.579,42.5,31.517,42.5z"/>
	</g>
</g>
</svg>
