<?xml version="1.0" encoding="utf-8"?>
<!-- Generator: Adobe Illustrator 15.0.0, SVG Export Plug-In . SVG Version: 6.00 Build 0)  -->
<!DOCTYPE svg PUBLIC "-//W3C//DTD SVG 1.0//EN" "http://www.w3.org/TR/2001/REC-SVG-20010904/DTD/svg10.dtd">
<svg version="1.0" id="Layer_1" xmlns="http://www.w3.org/2000/svg" xmlns:xlink="http://www.w3.org/1999/xlink" x="0px" y="0px"
	 width="52px" height="53px" viewBox="0 0 52 53" enable-background="new 0 0 52 53" xml:space="preserve">
<g>
	<path fill="none" stroke="#414042" stroke-width="2" stroke-miterlimit="10" d="M31.5,26.415c0,0.577-0.454,1.044-1.015,1.044
		H10.577c-0.561,0-1.015-0.467-1.015-1.044V12.503c0-0.577,0.454-1.044,1.015-1.044h19.908c0.561,0,1.015,0.467,1.015,1.044V26.415z
		"/>
	<rect x="12.5" y="11.521" fill="#414042" width="2" height="15.812"/>
	<rect x="16.5" y="11.521" fill="#414042" width="2" height="15.812"/>
	<polygon fill="#414042" points="24.531,15.499 25.767,18.113 28.527,18.533 26.529,20.566 27,23.439 24.531,22.084 22.062,23.439 
		22.534,20.566 20.537,18.533 23.297,18.113 	"/>
</g>
</svg>
