<?xml version="1.0" encoding="utf-8"?>
<!-- Generator: Adobe Illustrator 15.0.0, SVG Export Plug-In . SVG Version: 6.00 Build 0)  -->
<!DOCTYPE svg PUBLIC "-//W3C//DTD SVG 1.0//EN" "http://www.w3.org/TR/2001/REC-SVG-20010904/DTD/svg10.dtd">
<svg version="1.0" id="Layer_1" xmlns="http://www.w3.org/2000/svg" xmlns:xlink="http://www.w3.org/1999/xlink" x="0px" y="0px"
	 width="52px" height="53px" viewBox="0 0 52 53" enable-background="new 0 0 52 53" xml:space="preserve">
<g>
	<g>
		<g>
			<path fill="#414042" d="M24.008,38.258c-6.6,0-11.969-5.371-11.969-11.97s5.369-11.968,11.969-11.968s11.969,5.369,11.969,11.968
				S30.607,38.258,24.008,38.258z M24.008,16.127c-5.604,0-10.161,4.56-10.161,10.16c0,5.603,4.558,10.161,10.161,10.161
				c5.604,0,10.162-4.56,10.162-10.161C34.17,20.688,29.611,16.127,24.008,16.127z"/>
		</g>
	</g>
	<polygon fill="#414042" points="24.039,21.335 25.593,24.625 29.066,25.153 26.553,27.713 27.146,31.327 24.039,29.621 
		20.934,31.327 21.526,27.713 19.014,25.153 22.486,24.625 	"/>
</g>
</svg>
