<?xml version="1.0" encoding="utf-8"?>
<!-- Generator: Adobe Illustrator 15.0.0, SVG Export Plug-In . SVG Version: 6.00 Build 0)  -->
<!DOCTYPE svg PUBLIC "-//W3C//DTD SVG 1.0//EN" "http://www.w3.org/TR/2001/REC-SVG-20010904/DTD/svg10.dtd">
<svg version="1.0" id="Layer_1" xmlns="http://www.w3.org/2000/svg" xmlns:xlink="http://www.w3.org/1999/xlink" x="0px" y="0px"
	 width="52px" height="53px" viewBox="0 0 52 53" enable-background="new 0 0 52 53" xml:space="preserve">
<g>
	<g>
		<path fill="#414042" d="M12.531,26.531c0-6.6,5.369-11.969,11.969-11.969s11.969,5.369,11.969,11.969
			C36.469,33.13,31.1,38.5,24.5,38.5S12.531,33.13,12.531,26.531z M14.359,26.552c0,5.558,4.53,10.078,10.099,10.078
			s10.099-4.521,10.099-10.078c0-5.557-4.53-10.077-10.099-10.077S14.359,20.995,14.359,26.552z"/>
	</g>
	<path fill="#414042" d="M28.07,22.749c-0.237-0.135-0.525-0.12-0.75,0.039l-2.863,2.04v-1.389c0-0.291-0.148-0.556-0.386-0.69
		c-0.237-0.135-0.525-0.12-0.75,0.039l-4.388,3.126c-0.203,0.145-0.325,0.389-0.325,0.648c0,0.263,0.122,0.506,0.325,0.649
		l4.388,3.126c0.123,0.088,0.264,0.131,0.406,0.131c0.118,0,0.237-0.029,0.345-0.092c0.238-0.137,0.386-0.4,0.386-0.689v-1.39
		l2.863,2.04c0.123,0.088,0.264,0.131,0.406,0.131c0.118,0,0.237-0.029,0.345-0.092c0.238-0.137,0.386-0.4,0.386-0.689v-6.248
		C28.456,23.148,28.308,22.885,28.07,22.749z"/>
</g>
</svg>
