<?xml version="1.0" encoding="utf-8"?>
<!-- Generator: Adobe Illustrator 15.0.0, SVG Export Plug-In . SVG Version: 6.00 Build 0)  -->
<!DOCTYPE svg PUBLIC "-//W3C//DTD SVG 1.0//EN" "http://www.w3.org/TR/2001/REC-SVG-20010904/DTD/svg10.dtd">
<svg version="1.0" id="Layer_1" xmlns="http://www.w3.org/2000/svg" xmlns:xlink="http://www.w3.org/1999/xlink" x="0px" y="0px"
	 width="52px" height="53px" viewBox="0 0 52 53" enable-background="new 0 0 52 53" xml:space="preserve">
<g>
	<g>
		<path fill="#414042" d="M24.969,39.258c-6.6,0-11.969-5.371-11.969-11.971c0-6.599,5.369-11.967,11.969-11.967
			s11.969,5.368,11.969,11.967C36.938,33.887,31.568,39.258,24.969,39.258z M24.969,17.127c-5.604,0-10.162,4.559-10.162,10.16
			c0,5.604,4.561,10.162,10.162,10.162c5.604,0,10.162-4.559,10.162-10.162C35.131,21.687,30.572,17.127,24.969,17.127z"/>
	</g>
	<path fill="#414042" d="M28.656,31.008c-0.396,0.396-1.062,0.375-1.488-0.051l-5.836-5.837c-0.426-0.426-0.447-1.092-0.051-1.487
		l0,0c0.396-0.396,1.062-0.375,1.488,0.049l5.836,5.838C29.031,29.945,29.053,30.611,28.656,31.008L28.656,31.008z"/>
	<path fill="#414042" d="M21.281,31.008c-0.397-0.397-0.375-1.062,0.05-1.488l5.837-5.838c0.426-0.424,1.091-0.445,1.488-0.049l0,0
		c0.396,0.396,0.375,1.062-0.051,1.487l-5.836,5.837C22.344,31.383,21.678,31.403,21.281,31.008L21.281,31.008z"/>
</g>
</svg>
