<?xml version="1.0" encoding="utf-8"?>
<!-- Generator: Adobe Illustrator 15.0.0, SVG Export Plug-In . SVG Version: 6.00 Build 0)  -->
<!DOCTYPE svg PUBLIC "-//W3C//DTD SVG 1.0//EN" "http://www.w3.org/TR/2001/REC-SVG-20010904/DTD/svg10.dtd">
<svg version="1.0" id="Layer_1" xmlns="http://www.w3.org/2000/svg" xmlns:xlink="http://www.w3.org/1999/xlink" x="0px" y="0px"
	 width="52px" height="53px" viewBox="0 0 52 53" enable-background="new 0 0 52 53" xml:space="preserve">
<g>
	<g>
		<rect x="22.521" y="21.52" fill="#434343" width="1" height="2.979"/>
		<path fill="#434343" d="M25.563,23.426c0.154-3.906-1.391-5.051-2.273-5.051c-0.915,1.764-2.866,2.246-3.284,5.088
			c-1.853-3.645,2.336-4.408,2.547-8.953C22.909,14.51,28.763,19.846,25.563,23.426z"/>
		<g>
			<path fill="#434343" d="M25.489,38.5h-4.915c-1.994,0-3.011-1.032-3.011-3.016v-7.906c0-1.111,0.904-2.016,2.015-2.016
				c0.268,0,0.523,0.107,0.71,0.301l0,0c0.002,0,0.695,0.672,2.733,0.672c1.978,0,2.714-0.631,2.72-0.637
				c0.19-0.236,0.443-0.336,0.744-0.336c1.111,0,2.015,0.903,2.015,2.016v7.906C28.5,37.489,27.484,38.5,25.489,38.5z
				 M19.487,27.674c0,0-0.022,5.633-0.022,6.838c0,1.206,0.66,2.065,2.068,2.065c1.173,0,1.817,0.006,2.994,0.006
				c1.515,0,2.045-0.804,2.045-2.095s0-6.793,0-6.793c-0.641,0.371-1.729,0.76-3.47,0.76C21.31,28.455,20.154,28.037,19.487,27.674z
				"/>
		</g>
	</g>
	<rect x="23.537" y="29.541" fill="#434343" width="0.953" height="5.938"/>
</g>
</svg>
