<?xml version="1.0" encoding="utf-8"?>
<!-- Generator: Adobe Illustrator 15.0.0, SVG Export Plug-In . SVG Version: 6.00 Build 0)  -->
<!DOCTYPE svg PUBLIC "-//W3C//DTD SVG 1.0//EN" "http://www.w3.org/TR/2001/REC-SVG-20010904/DTD/svg10.dtd">
<svg version="1.0" id="Layer_1" xmlns="http://www.w3.org/2000/svg" xmlns:xlink="http://www.w3.org/1999/xlink" x="0px" y="0px"
	 width="52px" height="53px" viewBox="0 0 52 53" enable-background="new 0 0 52 53" xml:space="preserve">
<g>
	<g>
		<path fill="#414042" d="M16.961,33.258h-2.922c-1.125,0-2.039-0.898-2.039-2.004V14.26c0-1.104,0.914-2.003,2.039-2.003h2.922
			c1.124,0,2.039,0.898,2.039,2.003v16.994C19,32.359,18.085,33.258,16.961,33.258z M13.945,14.16l-0.039,17.188l3.055,0.004
			c0.031,0,0.042-0.016,0.042-0.016L17,14.164L13.945,14.16z"/>
	</g>
	<g>
		<path fill="#414042" d="M24.961,33.258h-2.922c-1.125,0-2.039-0.898-2.039-2.004V19.26c0-1.104,0.914-2.003,2.039-2.003h2.922
			c1.124,0,2.039,0.898,2.039,2.003v11.994C27,32.359,26.085,33.258,24.961,33.258z M21.914,19.192l-0.039,12.171l3.086,0.004
			c0.031,0,0.042-0.016,0.042-0.016L25,19.195L21.914,19.192z"/>
	</g>
	<g>
		<path fill="#414042" d="M32.961,33.258h-2.922c-1.124,0-2.039-0.898-2.039-2.004V24.26c0-1.104,0.915-2.003,2.039-2.003h2.922
			c1.124,0,2.039,0.898,2.039,2.003v6.994C35,32.359,34.085,33.258,32.961,33.258z M29.914,24.16l-0.039,7.188l3.086,0.004
			c0.031,0,0.042-0.016,0.042-0.016L33,24.164L29.914,24.16z"/>
	</g>
</g>
</svg>
