<?xml version="1.0" encoding="utf-8"?>
<!-- Generator: Adobe Illustrator 15.0.0, SVG Export Plug-In . SVG Version: 6.00 Build 0)  -->
<!DOCTYPE svg PUBLIC "-//W3C//DTD SVG 1.0//EN" "http://www.w3.org/TR/2001/REC-SVG-20010904/DTD/svg10.dtd">
<svg version="1.0" id="Layer_1" xmlns="http://www.w3.org/2000/svg" xmlns:xlink="http://www.w3.org/1999/xlink" x="0px" y="0px"
	 width="52px" height="53px" viewBox="0 0 52 53" enable-background="new 0 0 52 53" xml:space="preserve">
<g>
	<g>
		<g>
			<path fill="#434343" d="M23.187,33.5c-0.258,0-0.512-0.1-0.704-0.291c-0.327-0.324-0.389-0.832-0.151-1.227l2.047-3.393
				c-5.099-1.08-8.778-4.697-8.778-8.856c0-5.069,5.36-9.192,11.949-9.192c6.59,0,11.951,4.123,11.951,9.192
				c0,3.789-2.937,7.124-7.493,8.526l-8.3,5.094C23.546,33.451,23.365,33.5,23.187,33.5z M27.549,12.541
				c-5.488,0-9.953,3.227-9.953,7.192c0,3.536,3.658,6.591,8.51,7.106c0.339,0.037,0.637,0.244,0.788,0.551
				c0.152,0.307,0.138,0.668-0.04,0.961l-0.693,1.15l4.914-3.015c0.074-0.046,0.154-0.081,0.236-0.105
				c3.763-1.12,6.193-3.73,6.193-6.648C37.504,15.768,33.037,12.541,27.549,12.541z"/>
		</g>
	</g>
	<circle fill="#434343" cx="27.494" cy="24.551" r="0.978"/>
	<path fill="#434343" d="M28.5,21.117c0,0.752-0.448,1.361-1,1.361l0,0c-0.552,0-1-0.609-1-1.361v-5.215
		c0-0.752,0.448-1.361,1-1.361l0,0c0.552,0,1,0.609,1,1.361V21.117z"/>
</g>
</svg>
