<?xml version="1.0" encoding="utf-8"?>
<!-- Generator: Adobe Illustrator 15.0.0, SVG Export Plug-In . SVG Version: 6.00 Build 0)  -->
<!DOCTYPE svg PUBLIC "-//W3C//DTD SVG 1.0//EN" "http://www.w3.org/TR/2001/REC-SVG-20010904/DTD/svg10.dtd">
<svg version="1.0" id="Layer_1" xmlns="http://www.w3.org/2000/svg" xmlns:xlink="http://www.w3.org/1999/xlink" x="0px" y="0px"
	 width="52px" height="53px" viewBox="0 0 52 53" enable-background="new 0 0 52 53" xml:space="preserve">
<g>
	<path fill="#434343" d="M38,20.292c0-1.036-1.146-1.533-1.635-1.697l-8.586-2.948c-0.174-0.058-1.076-0.349-1.74-0.349
		c-0.671,0-1.582,0.309-1.746,0.365l-8.611,2.889C15.287,18.679,14,19.179,14,20.292c0,0.357,0,11.965,0,11.965
		c0,1.039,0.797,1.896,1.811,1.99l8.873,2.957c0.102,0.034,0.209,0.053,0.316,0.053c0.365,0,1.635,0,2,0
		c0.107,0,0.214-0.019,0.316-0.053l8.871-2.957C37.203,34.153,38,33.297,38,32.258C38,32.258,38,20.646,38,20.292z M24.92,17.327
		c0.336-0.117,0.939-0.279,1.2-0.279c0.274,0,0.886,0.159,1.202,0.264l8.72,2.967l-8.741,2.974
		c-0.277,0.099-0.852,0.255-1.211,0.255c-0.344,0-0.873-0.16-1.188-0.283l-8.861-2.945L24.92,17.327z M16,32.258v-9.945
		c0,0,8.893,2.945,9,2.945v9.945C25,35.202,16.107,32.258,16,32.258z M36,32.258c-0.107,0-9,2.945-9,2.945v-9.946
		c0.107,0,9-2.945,9-2.945V32.258z"/>
</g>
</svg>
