<?xml version="1.0" encoding="utf-8"?>
<!-- Generator: Adobe Illustrator 15.0.0, SVG Export Plug-In . SVG Version: 6.00 Build 0)  -->
<!DOCTYPE svg PUBLIC "-//W3C//DTD SVG 1.0//EN" "http://www.w3.org/TR/2001/REC-SVG-20010904/DTD/svg10.dtd">
<svg version="1.0" id="Layer_1" xmlns="http://www.w3.org/2000/svg" xmlns:xlink="http://www.w3.org/1999/xlink" x="0px" y="0px"
	 width="52px" height="53px" viewBox="0 0 52 53" enable-background="new 0 0 52 53" xml:space="preserve">
<g>
	<g>
		<path fill="#414042" d="M28.359,28.242h-9.461c-2.068,0-3.75-1.637-3.75-3.648v-9.18c0-0.732,0-2.094,8.481-2.094
			c8.48,0,8.48,1.359,8.48,2.094v9.18C32.111,26.605,30.43,28.242,28.359,28.242z M17.107,15.732v8.92
			c0,0.936,0.794,1.693,1.771,1.693h9.546c0.977,0,1.771-0.76,1.771-1.693v-8.92c-0.795-0.262-3.061-0.561-6.544-0.561
			S17.901,15.471,17.107,15.732z"/>
	</g>
	<g>
		<path fill="#414042" d="M33.085,31.258H14.199c-0.563,0-1.019-0.418-1.019-0.934s0.456-0.934,1.019-0.934h18.886
			c0.562,0,1.019,0.418,1.019,0.934S33.646,31.258,33.085,31.258z"/>
	</g>
	<g>
		<path fill="#414042" d="M34.133,23.248h-0.955c-1.643,0-2.979-1.156-2.979-2.58v-1.697c0-1.424,1.337-2.58,2.979-2.58h0.955
			c1.643,0,2.979,1.156,2.979,2.58v1.697C37.111,22.092,35.775,23.248,34.133,23.248z M33.16,18.355
			c-0.586,0-1.023,0.324-1.023,0.615v1.697c0,0.291,0.438,0.615,1.023,0.615h0.969c0.586,0,1.023-0.324,1.023-0.615v-1.697
			c0-0.291-0.438-0.615-1.023-0.615H33.16z"/>
	</g>
</g>
</svg>
