<?xml version="1.0" encoding="utf-8"?>
<!-- Generator: Adobe Illustrator 15.0.0, SVG Export Plug-In . SVG Version: 6.00 Build 0)  -->
<!DOCTYPE svg PUBLIC "-//W3C//DTD SVG 1.0//EN" "http://www.w3.org/TR/2001/REC-SVG-20010904/DTD/svg10.dtd">
<svg version="1.0" id="Layer_1" xmlns="http://www.w3.org/2000/svg" xmlns:xlink="http://www.w3.org/1999/xlink" x="0px" y="0px"
	 width="52px" height="53px" viewBox="0 0 52 53" enable-background="new 0 0 52 53" xml:space="preserve">
<path fill="#434343" d="M39.5,15.594c0-3.242-5.513-4.938-10.959-4.938c-5.445,0-10.958,1.695-10.958,4.938c0,0.342,0,0.969,0,0.969
	v13c0,3.242,5.481,4.938,10.896,4.938s10.896-1.694,10.896-4.938C39.375,29.562,39.5,15.936,39.5,15.594z M28.479,25.666
	c-5.506,0-9.021-1.826-9.021-3.083v-3.962c2.159,1.141,5.714,1.863,9.021,1.863s6.861-0.723,9.021-1.863v3.962
	C37.5,23.84,33.985,25.666,28.479,25.666z M28.541,12.365c5.596,0,9.167,1.875,9.167,3.166s-3.571,3.166-9.167,3.166
	c-5.595,0-9.166-1.875-9.166-3.166S22.946,12.365,28.541,12.365z M37.542,29.579c0,1.246-3.531,3.056-9.063,3.056
	s-9.062-1.81-9.062-3.056v-3.927c2.169,1.131,5.741,1.846,9.062,1.846c3.322,0,6.894-0.715,9.063-1.846V29.579z"/>
</svg>
