<?xml version="1.0" encoding="utf-8"?>
<!-- Generator: Adobe Illustrator 15.0.0, SVG Export Plug-In . SVG Version: 6.00 Build 0)  -->
<!DOCTYPE svg PUBLIC "-//W3C//DTD SVG 1.0//EN" "http://www.w3.org/TR/2001/REC-SVG-20010904/DTD/svg10.dtd">
<svg version="1.0" id="Layer_1" xmlns="http://www.w3.org/2000/svg" xmlns:xlink="http://www.w3.org/1999/xlink" x="0px" y="0px"
	 width="52px" height="53px" viewBox="0 0 52 53" enable-background="new 0 0 52 53" xml:space="preserve">
<g>
	<g>
		<path fill="#434343" d="M15.969,39.258c-0.535,0-0.969-0.457-0.969-1.021V16.379c0-0.563,0.434-1.019,0.969-1.019
			s0.969,0.455,0.969,1.019v21.858C16.938,38.801,16.504,39.258,15.969,39.258z"/>
	</g>
	<g>
		<path fill="#434343" d="M30.831,32.275c-1.304,0-3.745-0.254-5.454-1.947c-1.745-1.729-4.04-1.109-4.049-1.107
			c-0.084,0.021-0.18,0.037-0.266,0.037c-1.643,0-2.979-1.33-2.979-2.966v-7.884c0-1.603,1.282-2.91,2.877-2.963
			c0.193-0.033,0.635-0.097,1.214-0.097c1.289,0,3.127,0.302,4.574,1.734c1.22,1.209,3.496,1.34,4.417,1.34
			c0.398,0,0.656-0.022,0.68-0.024c0.002,0,0.006,0,0.008,0c1.733,0,3.064,1.327,3.064,2.961v7.881c0,1.608-1.295,2.927-2.9,2.966
			C31.844,32.229,31.415,32.275,30.831,32.275z M22.271,27.256c1.229,0,3.017,0.319,4.545,1.854
			c1.229,1.232,3.123,1.418,4.141,1.418c0.582,0,0.973-0.061,0.977-0.061c0.051-0.008,0.104-0.012,0.155-0.012
			c0.56,0,1.015-0.464,1.015-1.031v-8.146c0-0.563-0.446-1.022-0.998-1.031c-0.02,0.005-0.338,0.029-0.808,0.029
			c-1.483,0-4.229-0.258-5.948-1.979c-0.986-0.989-2.306-1.197-3.24-1.197c-0.551,0-0.928,0.075-0.933,0.076
			c-0.067,0.015-0.138,0.021-0.204,0.021c-0.56,0-1.016,0.463-1.016,1.031v8.146c0,0.535,0.402,0.974,0.914,1.025
			C21.127,27.344,21.629,27.256,22.271,27.256z"/>
	</g>
</g>
</svg>
