<?xml version="1.0" encoding="utf-8"?>
<!-- Generator: Adobe Illustrator 15.0.0, SVG Export Plug-In . SVG Version: 6.00 Build 0)  -->
<!DOCTYPE svg PUBLIC "-//W3C//DTD SVG 1.1//EN" "http://www.w3.org/Graphics/SVG/1.1/DTD/svg11.dtd">
<svg version="1.1" id="Layer_1" xmlns="http://www.w3.org/2000/svg" xmlns:xlink="http://www.w3.org/1999/xlink" x="0px" y="0px"
	 width="52px" height="53px" viewBox="0 0 52 53" enable-background="new 0 0 52 53" xml:space="preserve">
<g>
	<path fill="#424143" d="M38,15.279c0-1.092-0.895-1.98-1.991-1.98h-9.976c-1.098,0-1.991,0.889-1.991,1.98v6.998
		c0,0.365,0.106,0.705,0.283,1c-0.175,0.295-0.283,0.635-0.283,1.002v10.998c0,1.092,0.894,1.979,1.991,1.979h9.976
		C37.105,37.258,38,36.369,38,35.277V24.279c0-0.367-0.107-0.707-0.283-1C37.893,22.984,38,22.645,38,22.277V15.279z M36.117,15.111
		l0.008,7.197c-0.039-0.002-0.076-0.012-0.116-0.012h-9.976c-0.012,0-0.023,0.004-0.036,0.004L26,15.131L36.117,15.111z
		 M36.08,35.258l-10.113,0.02l0.004-11.107c0.021,0,0.041,0.006,0.062,0.006h9.976c0.025,0,0.05-0.006,0.074-0.008l0.008,11.09
		C36.09,35.256,36.088,35.258,36.08,35.258z"/>
	<rect x="34.084" y="19.299" fill="#424143" width="0.916" height="1.875"/>
	<rect x="34.084" y="25.299" fill="#424143" width="0.916" height="1.875"/>
</g>
</svg>
