<?xml version="1.0" encoding="utf-8"?>
<!-- Generator: Adobe Illustrator 15.0.0, SVG Export Plug-In . SVG Version: 6.00 Build 0)  -->
<!DOCTYPE svg PUBLIC "-//W3C//DTD SVG 1.1//EN" "http://www.w3.org/Graphics/SVG/1.1/DTD/svg11.dtd">
<svg version="1.1" id="Layer_1" xmlns="http://www.w3.org/2000/svg" xmlns:xlink="http://www.w3.org/1999/xlink" x="0px" y="0px"
	 width="52px" height="53px" viewBox="0 0 52 53" enable-background="new 0 0 52 53" xml:space="preserve">
<g>
	<path fill="#444444" d="M28.011,39.258c-0.005,0-0.012,0-0.02,0h-7.888c-0.403,0-0.767-0.244-0.921-0.617
		c-0.154-0.375-0.068-0.805,0.216-1.09c0.484-0.486,1.622-1.828,2.211-5.479c-1.318,0.438-2.795,0.812-4.028,0.812
		c-3.064,0-5.558-2.504-5.558-5.58c0-3.077,2.493-5.581,5.558-5.581c0.354,0,0.681,0.043,0.985,0.116
		c-0.074-0.306-0.117-0.634-0.117-0.987c0-3.076,2.494-5.58,5.559-5.58c3.064,0,5.559,2.504,5.559,5.58
		c0,0.356-0.045,0.688-0.123,0.998c0.309-0.08,0.639-0.127,0.99-0.127c3.065,0,5.56,2.504,5.56,5.581c0,3.076-2.493,5.58-5.56,5.58
		c-1.191,0-2.619-0.353-3.899-0.771c0.552,3.396,1.577,4.783,2.073,5.343c0.244,0.184,0.399,0.475,0.399,0.803
		C29.007,38.809,28.562,39.258,28.011,39.258z M22.214,37.383h3.716c-0.725-1.547-1.26-3.765-1.597-6.627
		c-0.042-0.354,0.104-0.703,0.384-0.922c0.281-0.22,0.653-0.271,0.985-0.142c1.987,0.785,3.694,1.22,4.807,1.22
		c1.989,0,3.608-1.63,3.608-3.634c0-2.002-1.619-3.633-3.608-3.633c-0.903,0-1.62,0.639-2.313,1.256
		c-0.285,0.256-0.559,0.496-0.821,0.686c-0.383,0.271-0.69,0.395-1,0.395c-0.377,0-0.787-0.246-0.961-0.584
		c-0.331-0.647,0.108-1.27,0.253-1.474c0.193-0.271,0.437-0.547,0.695-0.837c0.646-0.725,1.255-1.405,1.255-2.354
		c0-2.004-1.618-3.634-3.607-3.634c-1.988,0-3.607,1.63-3.607,3.634c0,0.963,0.604,1.635,1.244,2.347
		c0.264,0.293,0.509,0.569,0.704,0.845c0.147,0.207,0.601,0.846,0.268,1.498c-0.173,0.338-0.578,0.582-0.956,0.582
		c-0.306,0-0.603-0.116-0.965-0.379c-0.272-0.197-0.548-0.448-0.839-0.715c-0.705-0.649-1.373-1.264-2.351-1.264
		c-1.989,0-3.607,1.629-3.607,3.633c0,2.002,1.618,3.634,3.607,3.634c1.144,0,2.895-0.451,4.93-1.271
		c0.332-0.133,0.707-0.079,0.987,0.138c0.282,0.218,0.43,0.569,0.389,0.925C23.471,33.598,22.935,35.832,22.214,37.383z"/>
</g>
</svg>
