<?xml version="1.0" encoding="utf-8"?>
<!-- Generator: Adobe Illustrator 15.0.0, SVG Export Plug-In . SVG Version: 6.00 Build 0)  -->
<!DOCTYPE svg PUBLIC "-//W3C//DTD SVG 1.0//EN" "http://www.w3.org/TR/2001/REC-SVG-20010904/DTD/svg10.dtd">
<svg version="1.0" id="Layer_1" xmlns="http://www.w3.org/2000/svg" xmlns:xlink="http://www.w3.org/1999/xlink" x="0px" y="0px"
	 width="52px" height="53px" viewBox="0 0 52 53" enable-background="new 0 0 52 53" xml:space="preserve">
<g>
	<g>
		<path fill="#434343" d="M33.751,38.258H22.279c-3.428,0-6.217-2.793-6.217-6.225V20.541c0-3.431,2.789-6.222,6.217-6.222h11.472
			c3.429,0,6.218,2.791,6.218,6.222v11.492C39.969,35.465,37.18,38.258,33.751,38.258z M22.219,16.195
			c-2.361,0-4.281,1.918-4.281,4.273v11.638c0,2.356,1.92,4.276,4.281,4.276h11.655c2.36,0,4.282-1.92,4.282-4.276V20.469
			c0-2.355-1.922-4.273-4.282-4.273H22.219z"/>
	</g>
	<ellipse fill="#434343" cx="28.057" cy="26.335" rx="2.943" ry="2.964"/>
</g>
</svg>
