<?xml version="1.0" encoding="utf-8"?>
<!-- Generator: Adobe Illustrator 15.0.0, SVG Export Plug-In . SVG Version: 6.00 Build 0)  -->
<!DOCTYPE svg PUBLIC "-//W3C//DTD SVG 1.1//EN" "http://www.w3.org/Graphics/SVG/1.1/DTD/svg11.dtd">
<svg version="1.1" id="Layer_1" xmlns="http://www.w3.org/2000/svg" xmlns:xlink="http://www.w3.org/1999/xlink" x="0px" y="0px"
	 width="52px" height="53px" viewBox="0 0 52 53" enable-background="new 0 0 52 53" xml:space="preserve">
<g>
	<g>
		<path fill="#424143" d="M35.854,32.258h-5.832c-1.149,0-1.612-0.951-1.812-1.357l-0.158-0.377
			c-0.521-2.232-1.569-4.225-2.03-4.225c-0.467,0.006-1.5,1.957-1.994,4.145l-0.07,0.205c-0.247,0.523-0.762,1.609-2.009,1.609
			h-5.832c-1.161,0-2.105-0.912-2.105-2.033v-3.893c0-1.121,0.944-2.033,2.105-2.033h19.737c1.162,0,2.104,0.912,2.104,2.033v3.893
			C37.959,31.346,37.016,32.258,35.854,32.258z M30.107,30.299h5.74c0.068,0,0.106-0.035,0.111-0.049l-0.001-3.97
			c-0.004-0.008-0.042-0.045-0.11-0.045h-7.283c0.748,1.315,1.191,2.937,1.383,3.748l0.035,0.071
			C30.018,30.127,30.066,30.23,30.107,30.299z M16.059,26.236c-0.069,0-0.106,0.037-0.111,0.049l0.001,3.973
			c0.004,0.008,0.042,0.043,0.11,0.043h5.847c0.001-0.028,0.09-0.229,0.16-0.377c0.182-0.793,0.607-2.387,1.336-3.688H16.059z"/>
	</g>
	<g>
		<path fill="#424143" d="M14.958,27.27c-0.132,0-0.266-0.027-0.395-0.082c-0.507-0.219-0.741-0.809-0.523-1.312l3.021-7.014
			c0.096-0.221,0.268-0.398,0.483-0.504l4.021-1.947c0.496-0.238,1.096-0.031,1.336,0.467c0.24,0.496,0.033,1.096-0.465,1.336
			l-3.685,1.781l-2.874,6.672C15.714,27.043,15.346,27.27,14.958,27.27z"/>
	</g>
	<g>
		<path fill="#424143" d="M37,27.27c-0.389,0-0.757-0.229-0.919-0.607l-2.866-6.686l-3.673-1.789
			c-0.497-0.24-0.703-0.84-0.462-1.336c0.242-0.496,0.84-0.703,1.337-0.461l4.008,1.951c0.216,0.104,0.388,0.283,0.481,0.504
			l3.013,7.029c0.218,0.508-0.019,1.096-0.524,1.312C37.266,27.241,37.132,27.27,37,27.27z"/>
	</g>
</g>
</svg>
