<?xml version="1.0" encoding="utf-8"?>
<!-- Generator: Adobe Illustrator 15.0.0, SVG Export Plug-In . SVG Version: 6.00 Build 0)  -->
<!DOCTYPE svg PUBLIC "-//W3C//DTD SVG 1.1//EN" "http://www.w3.org/Graphics/SVG/1.1/DTD/svg11.dtd">
<svg version="1.1" id="Layer_1" xmlns="http://www.w3.org/2000/svg" xmlns:xlink="http://www.w3.org/1999/xlink" x="0px" y="0px"
	 width="52px" height="53px" viewBox="0 0 52 53" enable-background="new 0 0 52 53" xml:space="preserve">
<g>
	<g>
		<path fill="#424143" d="M27.469,27.907c-4.391,0-7.963-3.564-7.963-7.947c0-4.383,3.572-7.947,7.963-7.947
			c4.392,0,7.963,3.564,7.963,7.947C35.432,24.34,31.859,27.907,27.469,27.907z M27.5,14.01c-3.306,0-5.994,2.688-5.994,5.996
			c0,3.306,2.688,5.994,5.994,5.994c3.307,0,5.994-2.688,5.994-5.994C33.494,16.7,30.807,14.01,27.5,14.01z"/>
	</g>
	<path fill="#424143" d="M39.453,19.991c0-2.794-0.982-5.516-2.77-7.663c-0.353-0.425-0.98-0.484-1.407-0.13
		c-0.425,0.353-0.482,0.983-0.13,1.408c1.486,1.789,2.307,4.056,2.307,6.384c0,5.514-4.493,10-10.016,10
		c-2.32,0-4.584-0.812-6.371-2.283c-0.426-0.352-1.057-0.291-1.407,0.135c-0.352,0.43-0.29,1.059,0.136,1.408
		c1.903,1.568,4.256,2.506,6.705,2.699v2.057h-3.027c-0.545,0-0.988,0.436-0.988,0.971c0,0.533,0.443,0.967,0.988,0.967h7.931
		c0.547,0,0.987-0.434,0.987-0.969s-0.44-0.969-0.987-0.969h-2.966V31.94C34.596,31.43,39.453,26.271,39.453,19.991z"/>
	<g>
		<path fill="#424143" d="M33.459,16.839c-0.288,0-0.572-0.135-0.767-0.393c-0.343-0.452-0.275-1.113,0.149-1.479l2.953-2.543
			c0.424-0.366,1.045-0.293,1.385,0.158c0.342,0.453,0.274,1.115-0.148,1.479l-2.955,2.544
			C33.895,16.762,33.676,16.839,33.459,16.839z"/>
	</g>
	<g>
		<path fill="#424143" d="M19.538,29.21c-0.292,0-0.582-0.127-0.779-0.373c-0.347-0.43-0.279-1.059,0.151-1.406l3-2.416
			c0.43-0.346,1.061-0.277,1.406,0.15c0.346,0.432,0.277,1.062-0.151,1.406l-3,2.418C19.979,29.137,19.758,29.21,19.538,29.21z"/>
	</g>
</g>
</svg>
