<?xml version="1.0" encoding="utf-8"?>
<!-- Generator: Adobe Illustrator 15.0.0, SVG Export Plug-In . SVG Version: 6.00 Build 0)  -->
<!DOCTYPE svg PUBLIC "-//W3C//DTD SVG 1.1//EN" "http://www.w3.org/Graphics/SVG/1.1/DTD/svg11.dtd">
<svg version="1.1" id="Layer_1" xmlns="http://www.w3.org/2000/svg" xmlns:xlink="http://www.w3.org/1999/xlink" x="0px" y="0px"
	 width="52px" height="53px" viewBox="0 0 52 53" enable-background="new 0 0 52 53" xml:space="preserve">
<g>
	<g>
		<path fill="#424143" d="M28.5,30.848c-1.966,0-3.381-0.465-4.205-1.381c-0.812-0.902-0.828-1.979-0.786-2.568
			c-1.493-1.555-2.979-3.432-2.979-6.002c0-4.422,3.575-8.021,7.97-8.021c4.395,0,7.968,3.599,7.968,8.021
			c0,2.561-1.433,4.367-2.981,5.979c0.039,0.604,0.031,1.695-0.812,2.617C31.837,30.404,30.471,30.848,28.5,30.848z M28.5,14.721
			c-3.382,0-6.134,2.76-6.134,6.153c0,2.035,1.315,3.537,2.78,5.021c0.359,0.365,0.314,0.81,0.288,1.072
			c-0.047,0.455-0.064,0.932,0.267,1.297C26.131,28.741,27.126,29,28.5,29c1.359,0,2.348-0.258,2.777-0.727
			c0.334-0.363,0.324-0.854,0.285-1.322c-0.022-0.293-0.062-0.734,0.299-1.1c1.46-1.479,2.771-2.973,2.771-4.98
			C34.632,17.48,31.881,14.721,28.5,14.721z"/>
	</g>
	<path fill="#424143" d="M31.458,34.773c0,1.145-1.329,2.074-2.969,2.074s-2.969-0.931-2.969-2.074
		C25.52,33.631,31.458,33.631,31.458,34.773z"/>
	<rect x="25.489" y="31.909" fill="#424143" width="5.938" height="0.905"/>
</g>
</svg>
