<?xml version="1.0" encoding="utf-8"?>
<!-- Generator: Adobe Illustrator 15.0.0, SVG Export Plug-In . SVG Version: 6.00 Build 0)  -->
<!DOCTYPE svg PUBLIC "-//W3C//DTD SVG 1.1//EN" "http://www.w3.org/Graphics/SVG/1.1/DTD/svg11.dtd">
<svg version="1.1" id="Layer_1" xmlns="http://www.w3.org/2000/svg" xmlns:xlink="http://www.w3.org/1999/xlink" x="0px" y="0px"
	 width="52px" height="53px" viewBox="0 0 52 53" enable-background="new 0 0 52 53" xml:space="preserve">
<g>
	<g>
		<path fill="#424143" d="M14.617,34.951c-0.798-0.793-0.781-2.105,0.039-2.918l10.938-10.879c-0.578-2.15,0.027-4.463,1.629-6.059
			c2.459-2.445,6.461-2.445,8.92,0c2.457,2.447,2.457,6.428,0,8.873c-1.617,1.605-3.959,2.205-6.129,1.613l-0.584,0.582
			c-0.201,0.197-0.476,0.309-0.761,0.305c-0.142-0.002-0.28-0.031-0.407-0.09l-0.918,1.785c-0.049,0.098-0.113,0.188-0.191,0.264
			l-0.696,0.693c-0.116,0.113-0.257,0.199-0.412,0.252l-1.816,0.604l-1.292,2.566c-0.187,0.371-0.575,0.6-0.992,0.578l-0.732-0.037
			l-1.18,2.35c-0.051,0.098-0.117,0.191-0.197,0.271c-0.814,0.809-1.708,0.537-2.299,0.359l-0.187-0.059l-2.336-0.811
			C14.865,35.15,14.729,35.064,14.617,34.951z M34.656,16.576c-1.639-1.631-4.309-1.631-5.946,0
			c-1.179,1.174-1.546,2.932-0.937,4.48c0.15,0.389,0.059,0.828-0.236,1.119L16.245,33.408l1.906,0.656
			c0.06,0.018,0.128,0.035,0.193,0.057l1.297-2.578c0.186-0.373,0.575-0.6,0.991-0.58L21.364,31l1.18-2.348
			c0.125-0.248,0.343-0.438,0.608-0.523l1.994-0.662l0.404-0.398l1.481-2.883c0.156-0.303,0.449-0.512,0.789-0.559
			c0.328-0.047,0.658,0.062,0.891,0.295l0,0l0.277-0.273c0.297-0.299,0.744-0.391,1.134-0.232c1.565,0.621,3.346,0.26,4.534-0.926
			C36.295,20.861,36.295,18.207,34.656,16.576z"/>
	</g>
	<rect x="33.061" y="17.24" fill="#424143" width="1.004" height="0.936"/>
</g>
</svg>
