<?xml version="1.0" encoding="utf-8"?>
<!-- Generator: Adobe Illustrator 15.0.0, SVG Export Plug-In . SVG Version: 6.00 Build 0)  -->
<!DOCTYPE svg PUBLIC "-//W3C//DTD SVG 1.1//EN" "http://www.w3.org/Graphics/SVG/1.1/DTD/svg11.dtd">
<svg version="1.1" id="Layer_1" xmlns="http://www.w3.org/2000/svg" xmlns:xlink="http://www.w3.org/1999/xlink" x="0px" y="0px"
	 width="52px" height="53px" viewBox="0 0 52 53" enable-background="new 0 0 52 53" xml:space="preserve">
<g>
	<g>
		<g>
			<path fill="#424143" d="M23.005,37.924c-0.362,0-0.695-0.199-0.867-0.518c-0.727-1.342-7.091-11.205-7.091-15.189
				c0-4.389,3.57-7.959,7.958-7.959s7.958,3.57,7.958,7.959c0,3.984-6.364,13.85-7.09,15.189
				C23.702,37.725,23.369,37.924,23.005,37.924z M23.005,16.23c-3.3,0-5.983,2.688-5.983,5.986c0,2.572,3.757,8.33,5.983,12.611
				c2.228-4.281,5.983-10.039,5.983-12.611C28.989,18.916,26.305,16.23,23.005,16.23z"/>
		</g>
	</g>
	<path fill="#424143" d="M25.808,23.502l-1.363-1.363l1.349-1.348c0.391-0.393,0.394-1.021,0.008-1.408
		c-0.387-0.387-1.017-0.383-1.407,0.008l-1.349,1.35l-1.362-1.361c-0.391-0.393-1.021-0.396-1.407-0.008
		c-0.386,0.387-0.383,1.016,0.008,1.404l1.362,1.363l-1.377,1.377c-0.391,0.393-0.394,1.021-0.007,1.406
		c0.386,0.387,1.016,0.383,1.406-0.006l1.377-1.379l1.363,1.361c0.391,0.393,1.02,0.396,1.406,0.01
		C26.201,24.52,26.199,23.893,25.808,23.502z"/>
</g>
</svg>
