<?xml version="1.0" encoding="utf-8"?>
<!-- Generator: Adobe Illustrator 15.0.0, SVG Export Plug-In . SVG Version: 6.00 Build 0)  -->
<!DOCTYPE svg PUBLIC "-//W3C//DTD SVG 1.1//EN" "http://www.w3.org/Graphics/SVG/1.1/DTD/svg11.dtd">
<svg version="1.1" id="Layer_1" xmlns="http://www.w3.org/2000/svg" xmlns:xlink="http://www.w3.org/1999/xlink" x="0px" y="0px"
	 width="52px" height="53px" viewBox="0 0 52 53" enable-background="new 0 0 52 53" xml:space="preserve">
<g>
	<g>
		<g>
			<path fill="#424143" d="M29.958,40.924c-0.362,0-0.694-0.199-0.867-0.518C28.364,39.064,22,29.201,22,25.217
				c0-4.389,3.57-7.959,7.958-7.959c4.388,0,7.958,3.57,7.958,7.959c0,3.984-6.364,13.85-7.09,15.189
				C30.654,40.725,30.32,40.924,29.958,40.924z M29.958,19.23c-3.3,0-5.983,2.688-5.983,5.986c0,2.572,3.757,8.33,5.983,12.611
				c2.228-4.281,5.983-10.039,5.983-12.611C35.941,21.916,33.258,19.23,29.958,19.23z"/>
		</g>
	</g>
	<path fill="#424143" d="M32.9,24.143h-1.928v-1.906c0-0.553-0.443-1-0.988-1c-0.547,0-0.99,0.447-0.99,1v1.906h-1.928
		c-0.553,0-1,0.443-1,0.99s0.447,0.988,1,0.988h1.928v1.949c0,0.551,0.443,1,0.99,1c0.545,0,0.988-0.449,0.988-1v-1.949H32.9
		c0.553,0,1-0.441,1-0.988S33.453,24.143,32.9,24.143z"/>
</g>
</svg>
