<?xml version="1.0" encoding="utf-8"?>
<!-- Generator: Adobe Illustrator 15.0.0, SVG Export Plug-In . SVG Version: 6.00 Build 0)  -->
<!DOCTYPE svg PUBLIC "-//W3C//DTD SVG 1.0//EN" "http://www.w3.org/TR/2001/REC-SVG-20010904/DTD/svg10.dtd">
<svg version="1.0" id="Layer_1" xmlns="http://www.w3.org/2000/svg" xmlns:xlink="http://www.w3.org/1999/xlink" x="0px" y="0px"
	 width="52px" height="53px" viewBox="0 0 52 53" enable-background="new 0 0 52 53" xml:space="preserve">
<g>
	<path fill="#414042" d="M42,22.258l-9.412-6.796c-0.355-0.272-0.85-0.272-1.205,0L22,22.299c0,0-2,1.436-2,2.969v10.877
		c0,1.664,1.285,3.021,2.865,3.021h18.24c1.578,0,2.861-1.354,2.861-3.021V25.268C43.969,23.734,42,22.258,42,22.258z
		 M32.016,17.195l9.01,6.836l-5.381,6.227h-7.26l-5.396-6.226L32.016,17.195z M41.18,37.289H22.82c-0.486,0-0.883-0.47-0.883-1.046
		V25.737l5.367,6.229c0.188,0.187,1.438,0.289,1.701,0.289h5.984c0.266,0,1.521-0.104,1.707-0.293l5.361-6.25V36.24
		C42.062,36.819,41.666,37.289,41.18,37.289z"/>
</g>
</svg>
