<?xml version="1.0" encoding="utf-8"?>
<!-- Generator: Adobe Illustrator 15.0.0, SVG Export Plug-In . SVG Version: 6.00 Build 0)  -->
<!DOCTYPE svg PUBLIC "-//W3C//DTD SVG 1.1//EN" "http://www.w3.org/Graphics/SVG/1.1/DTD/svg11.dtd">
<svg version="1.1" id="Layer_1" xmlns="http://www.w3.org/2000/svg" xmlns:xlink="http://www.w3.org/1999/xlink" x="0px" y="0px"
	 width="52px" height="53px" viewBox="0 0 52 53" enable-background="new 0 0 52 53" xml:space="preserve">
<g>
	<g>
		<path fill="#424143" d="M21.936,34.258l-6.119-2.056c-1.018-0.098-1.814-0.952-1.814-1.991V16.298c0-1.102,0.896-2,2.004-2h0.164
			l5.852,1.965l8.107-2.006l6.057,2.055c1.018,0.098,1.812,0.953,1.812,1.992v13.913c0,1.102-0.898,2-2.004,2h-0.162l-5.852-1.965
			L21.936,34.258z M15.986,16.208l-0.008,14.125h0.164l0.162,0.059l5.707,1.949l8.061-2.043l5.947,2.031V18.2h-0.164l-0.164-0.06
			l-5.645-1.946l-8.121,2.043L15.986,16.208z"/>
	</g>
	<g>
		<rect x="22.012" y="19.278" fill="#424143" width="0.979" height="11.957"/>
	</g>
	<g>
		<rect x="30" y="17.298" fill="#424143" width="1" height="11.896"/>
	</g>
</g>
</svg>
