<?xml version="1.0" encoding="utf-8"?>
<!-- Generator: Adobe Illustrator 15.0.0, SVG Export Plug-In . SVG Version: 6.00 Build 0)  -->
<!DOCTYPE svg PUBLIC "-//W3C//DTD SVG 1.0//EN" "http://www.w3.org/TR/2001/REC-SVG-20010904/DTD/svg10.dtd">
<svg version="1.0" id="Layer_1" xmlns="http://www.w3.org/2000/svg" xmlns:xlink="http://www.w3.org/1999/xlink" x="0px" y="0px"
	 width="52px" height="53px" viewBox="0 0 52 53" enable-background="new 0 0 52 53" xml:space="preserve">
<g>
	<path fill="none" stroke="#434343" stroke-width="2" stroke-miterlimit="10" d="M35.002,33.258c0,0.553-0.447,1-1,1h-18
		c-0.552,0-1-0.447-1-1v-20c0-0.553,0.448-1,1-1h18c0.553,0,1,0.447,1,1V33.258z"/>
	<rect x="17.002" y="14.258" fill="#434343" width="1.938" height="2"/>
	<rect x="17.002" y="18.258" fill="#434343" width="1.938" height="2"/>
	<rect x="17.002" y="22.258" fill="#434343" width="1.938" height="2"/>
	<rect x="17.002" y="26.258" fill="#434343" width="1.938" height="2"/>
	<rect x="17.002" y="30.258" fill="#434343" width="1.938" height="2"/>
	<rect x="31.033" y="14.258" fill="#434343" width="1.969" height="2"/>
	<rect x="31.033" y="18.258" fill="#434343" width="1.969" height="2"/>
	<rect x="31.033" y="22.258" fill="#434343" width="1.969" height="2"/>
	<rect x="31.033" y="26.258" fill="#434343" width="1.969" height="2"/>
	<rect x="31.033" y="30.258" fill="#434343" width="1.969" height="2"/>
	<path fill="none" stroke="#434343" stroke-width="2" stroke-miterlimit="10" d="M28.992,20.248c0,0.549-0.455,0.994-1.016,0.994
		h-5.947c-0.562,0-1.016-0.445-1.016-0.994v-3.98c0-0.549,0.453-0.994,1.016-0.994h5.947c0.561,0,1.016,0.445,1.016,0.994V20.248z"
		/>
	<path fill="none" stroke="#434343" stroke-width="2" stroke-miterlimit="10" d="M28.918,30.404c0,0.477-0.449,0.861-1.004,0.861
		h-5.887c-0.553,0-1.002-0.387-1.002-0.861V26.08c0-0.477,0.449-0.865,1.002-0.865h5.887c0.555,0,1.004,0.389,1.004,0.865V30.404z"
		/>
</g>
</svg>
