<?xml version="1.0" encoding="utf-8"?>
<!-- Generator: Adobe Illustrator 15.0.0, SVG Export Plug-In . SVG Version: 6.00 Build 0)  -->
<!DOCTYPE svg PUBLIC "-//W3C//DTD SVG 1.0//EN" "http://www.w3.org/TR/2001/REC-SVG-20010904/DTD/svg10.dtd">
<svg version="1.0" id="Layer_1" xmlns="http://www.w3.org/2000/svg" xmlns:xlink="http://www.w3.org/1999/xlink" x="0px" y="0px"
	 width="52px" height="53px" viewBox="0 0 52 53" enable-background="new 0 0 52 53" xml:space="preserve">
<g>
	<path fill="#434343" d="M42.887,25.827c-0.039-0.325-0.084-0.651-0.148-0.971c-0.909-4.47-4.313-8.026-8.684-9.188
		c-0.324-0.086-0.652-0.16-0.986-0.22c-0.678-0.118-1.368-0.192-2.078-0.192c-3.039,0-5.811,1.146-7.926,3.021
		c-0.002,0.018-0.008,0.031-0.01,0.049c0.401,0.002,0.801,0.018,1.198,0.049c-0.412-0.031-0.826-0.049-1.243-0.049
		c-0.003,0.004-0.007,0.006-0.01,0.01c-0.359,0.322-0.702,0.668-1.021,1.031c-0.01,0.012-0.02,0.021-0.027,0.031
		c-0.002,0.021-0.004,0.045-0.006,0.064c0.002-0.021,0.002-0.041,0.003-0.062C20.117,21.51,19,24.252,19,27.258
		c0,1.031,0.145,2.026,0.391,2.981c0.086,0.332,0.183,0.658,0.295,0.978c1.317,3.76,4.449,6.66,8.344,7.656
		c0.324,0.081,0.65,0.151,0.984,0.206c0.645,0.107,1.301,0.179,1.977,0.179c2.519,0,4.855-0.785,6.787-2.119
		c0.382-0.264,0.742-0.553,1.092-0.857c0.005-0.004,0.01-0.01,0.016-0.016c0.022-0.02,0.045-0.039,0.066-0.061
		c0.015-0.123,0.035-0.244,0.047-0.367c0.02-0.195,0.029-0.379,0.041-0.562l0.013-0.002l-0.054,0.564l-0.034,0.354
		c0.359-0.319,0.699-0.662,1.019-1.022c1.859-2.115,2.998-4.881,2.998-7.912C42.979,26.773,42.941,26.299,42.887,25.827z
		 M40.746,25.129c-1.307,0.262-2.578,0.684-3.782,1.264l0.224,0.42c0.002,0.002,0.002,0.002,0.002,0.004l0.238,0.443l-0.014,0.008
		c-0.075-0.15-0.146-0.303-0.225-0.451l-0.002-0.004c-0.076-0.141-0.17-0.27-0.25-0.406c-0.141,0.066-0.283,0.131-0.422,0.203
		c-0.148,0.078-0.291,0.168-0.438,0.25l-0.01-0.018l0.447-0.232l0.414-0.217c-1.055-1.822-2.481-3.445-4.179-4.74l-0.163,0.354
		c-0.003,0.006-0.007,0.012-0.01,0.019l-0.246,0.532l-0.021-0.016c0.088-0.174,0.186-0.342,0.268-0.518l0.009-0.02
		c0.056-0.121,0.095-0.246,0.146-0.367c-0.104-0.08-0.198-0.172-0.307-0.248c-0.164-0.119-0.334-0.223-0.501-0.334l0.011-0.021
		l0.49,0.355l0.315,0.229c0.552-1.271,0.925-2.586,1.129-3.93C37.314,18.729,39.975,21.577,40.746,25.129z M38.073,34.321
		c0,0.278-0.013,0.571-0.032,0.875c-0.002,0.041-0.001,0.076-0.004,0.117v0.002c-0.002,0-0.003,0-0.005,0c-0.013,0-0.025,0-0.037,0
		c-0.322,0-0.646-0.013-0.966-0.031c-0.032-0.002-0.064-0.006-0.098-0.008c-0.076-0.006-0.154-0.019-0.23-0.022
		c-0.21-0.021-0.422-0.037-0.631-0.062c-0.131-0.018-0.26-0.041-0.389-0.062c-0.188-0.029-0.375-0.059-0.562-0.094
		c-0.137-0.027-0.271-0.062-0.409-0.092c-0.177-0.039-0.354-0.078-0.528-0.123c-0.142-0.037-0.279-0.08-0.42-0.121
		c-0.169-0.051-0.338-0.102-0.505-0.154c-0.141-0.047-0.28-0.1-0.42-0.147c-0.163-0.062-0.325-0.121-0.485-0.187
		c-0.14-0.057-0.275-0.115-0.414-0.176c-0.158-0.07-0.317-0.145-0.476-0.219c-0.134-0.062-0.267-0.133-0.397-0.199
		c-0.078-0.041-0.158-0.076-0.236-0.117c-0.003-0.002-0.008-0.004-0.01-0.006c0-0.002,0.002-0.006,0.004-0.008
		c0.062-0.111,0.135-0.221,0.199-0.33c0.076-0.127,0.15-0.256,0.229-0.381c0.121-0.189,0.249-0.377,0.378-0.562
		c0.081-0.115,0.158-0.23,0.242-0.347c0.146-0.196,0.3-0.389,0.456-0.577c0.073-0.093,0.146-0.187,0.223-0.275
		c0.235-0.273,0.479-0.541,0.734-0.797c0.024-0.023,0.053-0.049,0.077-0.073c0.232-0.229,0.472-0.452,0.718-0.669
		c0.094-0.08,0.192-0.154,0.288-0.234c0.185-0.152,0.369-0.305,0.562-0.447c0.112-0.086,0.229-0.164,0.346-0.246
		c0.185-0.131,0.369-0.26,0.56-0.381c0.123-0.078,0.249-0.152,0.375-0.229c0.108-0.064,0.213-0.137,0.322-0.199
		c0.002,0,0.004-0.002,0.006-0.002c0.002,0.002,0.003,0.006,0.004,0.01c0.015,0.029,0.024,0.061,0.038,0.09
		c0.217,0.447,0.411,0.906,0.581,1.373c0.026,0.074,0.052,0.146,0.077,0.221c0.164,0.474,0.307,0.951,0.423,1.438
		c0.016,0.065,0.028,0.134,0.044,0.201c0.111,0.498,0.202,1.002,0.263,1.51c0.005,0.046,0.009,0.093,0.013,0.138
		c0.059,0.526,0.092,1.057,0.093,1.586C38.072,34.307,38.073,34.314,38.073,34.321z M25.318,28.418
		c-0.002,0-0.006,0.002-0.008,0.004c-0.002-0.002-0.004-0.006-0.006-0.011c-0.068-0.104-0.128-0.213-0.193-0.319
		c-0.084-0.137-0.168-0.273-0.246-0.414c-0.104-0.182-0.199-0.363-0.295-0.549c-0.072-0.144-0.147-0.285-0.217-0.431
		c-0.088-0.188-0.17-0.377-0.25-0.567c-0.062-0.146-0.127-0.291-0.185-0.439c-0.075-0.193-0.142-0.393-0.209-0.59
		c-0.05-0.148-0.103-0.295-0.147-0.443c-0.062-0.205-0.114-0.41-0.168-0.617c-0.037-0.146-0.08-0.291-0.112-0.438
		c-0.05-0.218-0.087-0.438-0.125-0.656c-0.025-0.142-0.056-0.278-0.076-0.42c-0.036-0.242-0.06-0.487-0.083-0.731
		c-0.014-0.121-0.03-0.24-0.04-0.363c-0.002-0.027-0.003-0.057-0.005-0.086c-0.021-0.338-0.036-0.678-0.036-1.021
		c0,0.341,0.017,0.681,0.038,1.019c0.521-0.709,1.132-1.351,1.818-1.898c-0.076-0.008-0.153-0.02-0.23-0.025
		c0.078,0.008,0.155,0.019,0.232,0.025c0.179,0.021,0.356,0.037,0.533,0.062c0.15,0.022,0.299,0.059,0.448,0.086
		c0.228,0.043,0.455,0.082,0.681,0.135c0.16,0.037,0.315,0.086,0.476,0.129c0.211,0.059,0.424,0.111,0.632,0.178
		c0.161,0.053,0.319,0.111,0.479,0.168c0.203,0.072,0.404,0.143,0.604,0.225c0.158,0.062,0.313,0.136,0.472,0.205
		c0.194,0.088,0.391,0.174,0.582,0.269c0.153,0.077,0.305,0.162,0.457,0.243c0.188,0.104,0.377,0.203,0.562,0.314
		c0.148,0.088,0.293,0.182,0.439,0.275c0.116,0.074,0.237,0.145,0.354,0.223c0.003,0.004,0.007,0.004,0.01,0.008
		c-0.002,0.002-0.004,0.006-0.005,0.01c-0.069,0.138-0.149,0.271-0.224,0.406c-0.08,0.146-0.156,0.295-0.24,0.439
		c-0.121,0.207-0.252,0.408-0.383,0.609c-0.086,0.133-0.168,0.268-0.258,0.396c-0.151,0.218-0.313,0.429-0.478,0.638
		c-0.081,0.104-0.155,0.213-0.239,0.313c-0.25,0.306-0.512,0.603-0.785,0.888c-0.035,0.036-0.074,0.071-0.11,0.106
		c-0.241,0.247-0.489,0.487-0.747,0.719c-0.104,0.095-0.217,0.179-0.322,0.271c-0.197,0.164-0.395,0.33-0.599,0.485
		c-0.128,0.099-0.261,0.188-0.392,0.279c-0.193,0.14-0.389,0.274-0.589,0.401c-0.142,0.092-0.288,0.179-0.434,0.265
		C25.572,28.264,25.449,28.346,25.318,28.418z M26.253,29.021c0.147-0.088,0.296-0.176,0.44-0.27
		c0.217-0.14,0.428-0.287,0.637-0.438c0.133-0.095,0.268-0.187,0.396-0.285c0.226-0.17,0.44-0.353,0.655-0.533
		c0.104-0.088,0.214-0.172,0.316-0.264c0.31-0.277,0.61-0.563,0.897-0.863c0.043-0.045,0.082-0.094,0.125-0.142
		c0.243-0.258,0.48-0.522,0.706-0.799c0.097-0.117,0.187-0.239,0.278-0.358c0.163-0.211,0.324-0.422,0.479-0.642
		c0.1-0.143,0.19-0.287,0.284-0.43c0.136-0.207,0.269-0.416,0.394-0.631c0.092-0.152,0.179-0.312,0.265-0.469
		c0.062-0.115,0.132-0.229,0.192-0.346c1.513,1.188,2.795,2.658,3.746,4.297c-0.121,0.068-0.235,0.146-0.354,0.219
		c-0.138,0.082-0.274,0.164-0.41,0.25c-0.204,0.131-0.401,0.27-0.6,0.406c-0.121,0.086-0.244,0.168-0.361,0.256
		c-0.217,0.162-0.425,0.332-0.632,0.504c-0.092,0.076-0.186,0.146-0.275,0.227c-0.293,0.254-0.578,0.519-0.852,0.793
		c-0.012,0.01-0.021,0.021-0.031,0.032c-0.261,0.265-0.512,0.536-0.754,0.819c-0.082,0.094-0.158,0.195-0.236,0.293
		c-0.166,0.201-0.332,0.404-0.488,0.615c-0.088,0.119-0.17,0.244-0.256,0.365c-0.139,0.198-0.274,0.397-0.404,0.604
		c-0.084,0.133-0.164,0.27-0.244,0.402c-0.068,0.117-0.146,0.229-0.212,0.352c-1.575-0.991-2.968-2.271-4.069-3.742
		C26.012,29.176,26.13,29.096,26.253,29.021z M25.986,18.614c1.474-0.856,3.18-1.356,5.002-1.356c0.654,0,1.294,0.065,1.914,0.188
		c-0.18,1.227-0.494,2.43-0.979,3.592c-0.098-0.066-0.2-0.121-0.299-0.188c-0.157-0.1-0.313-0.195-0.474-0.291
		c-0.195-0.113-0.394-0.225-0.592-0.33c-0.16-0.086-0.32-0.172-0.483-0.252c-0.204-0.102-0.411-0.193-0.619-0.285
		c-0.163-0.072-0.326-0.146-0.491-0.211c-0.215-0.088-0.433-0.164-0.65-0.24c-0.164-0.059-0.324-0.117-0.489-0.17
		c-0.229-0.072-0.464-0.133-0.696-0.195c-0.156-0.041-0.312-0.088-0.472-0.125C26.436,18.696,26.209,18.657,25.986,18.614
		c-0.034-0.006-0.067-0.015-0.102-0.021C25.919,18.604,25.953,18.609,25.986,18.614z M22.954,19.325c0.001,0,0.002,0,0.004,0
		c0.013,0,0.024,0,0.037,0c-0.013,0-0.024,0.002-0.038,0.002c-0.002,0.033-0.005,0.068-0.007,0.103
		c0.002-0.035,0.001-0.066,0.004-0.103V19.325z M21,27.258c0-1.633,0.4-3.172,1.098-4.535c-0.002-0.021-0.004-0.045-0.008-0.064
		c0.003,0.02,0.008,0.039,0.012,0.061c0.021,0.133,0.047,0.267,0.07,0.396c0.041,0.229,0.08,0.459,0.131,0.688
		c0.036,0.16,0.081,0.32,0.122,0.479c0.056,0.215,0.109,0.432,0.175,0.643c0.049,0.164,0.105,0.326,0.16,0.486
		c0.069,0.205,0.139,0.408,0.217,0.611c0.062,0.162,0.131,0.322,0.199,0.482c0.083,0.196,0.167,0.393,0.258,0.586
		c0.076,0.16,0.156,0.317,0.237,0.477c0.099,0.188,0.196,0.377,0.302,0.562c0.088,0.153,0.18,0.311,0.271,0.461
		c0.059,0.097,0.111,0.194,0.172,0.291c-0.984,0.463-2.001,0.812-3.043,1.051C21.137,29.077,21,28.186,21,27.258z M21.689,30.883
		c1.125-0.267,2.219-0.67,3.281-1.183l-0.236-0.34l-0.322-0.47l0.02-0.01c0.103,0.16,0.195,0.321,0.305,0.479
		c0.078,0.113,0.175,0.218,0.257,0.33c0.127-0.062,0.258-0.105,0.384-0.17c0.168-0.086,0.327-0.188,0.491-0.281l0.014,0.021
		l-0.505,0.261l-0.368,0.19c1.203,1.639,2.737,3.058,4.486,4.146l0.207-0.398c0.001-0.002,0.002-0.004,0.003-0.006l0.238-0.463
		l0.018,0.012c-0.084,0.15-0.176,0.297-0.256,0.451l-0.003,0.006c-0.07,0.135-0.118,0.275-0.185,0.414
		c0.127,0.078,0.246,0.172,0.377,0.247c0.15,0.089,0.309,0.166,0.461,0.249l-0.008,0.016l-0.453-0.265l-0.388-0.226
		c-0.47,0.977-0.85,1.979-1.108,3.008C25.323,36.075,22.836,33.818,21.689,30.883z M35.587,36.127
		c-1.378,0.719-2.938,1.131-4.599,1.131c-0.547,0-1.078-0.058-1.602-0.142c0.236-0.935,0.551-1.849,0.973-2.733
		c0.08,0.043,0.166,0.082,0.248,0.123c0.143,0.073,0.285,0.146,0.431,0.217c0.165,0.078,0.331,0.154,0.499,0.229
		c0.146,0.062,0.293,0.127,0.441,0.188c0.172,0.068,0.346,0.134,0.52,0.197c0.146,0.053,0.292,0.107,0.439,0.156
		c0.183,0.061,0.365,0.113,0.549,0.168c0.145,0.041,0.287,0.086,0.432,0.123c0.193,0.053,0.391,0.096,0.587,0.141
		c0.136,0.029,0.271,0.062,0.408,0.09c0.219,0.043,0.438,0.078,0.66,0.111C35.578,36.125,35.582,36.125,35.587,36.127
		c0.111,0.016,0.224,0.039,0.334,0.053C35.811,36.164,35.698,36.143,35.587,36.127z M39.025,33.172
		c0.015,0.19,0.017,0.383,0.023,0.571c-0.013-0.182-0.027-0.364-0.042-0.547c-0.014-0.198-0.013-0.399-0.034-0.601
		c-0.006-0.047-0.008-0.094-0.014-0.143c-0.064-0.545-0.162-1.082-0.282-1.617c-0.017-0.072-0.03-0.145-0.047-0.217
		c-0.124-0.52-0.276-1.027-0.452-1.531c-0.027-0.08-0.056-0.162-0.086-0.242c-0.182-0.496-0.389-0.983-0.619-1.461
		c-0.019-0.037-0.031-0.078-0.05-0.114c1.12-0.543,2.285-0.927,3.481-1.177c0.045,0.383,0.074,0.769,0.074,1.162
		C40.979,29.471,40.248,31.514,39.025,33.172z"/>
	<ellipse fill="#434343" cx="29.948" cy="33.258" rx="1.905" ry="1.875"/>
	<ellipse fill="#434343" cx="24.948" cy="29.258" rx="1.905" ry="1.875"/>
	<ellipse fill="#434343" cx="31.948" cy="22.258" rx="1.905" ry="1.875"/>
	<ellipse fill="#434343" cx="36.948" cy="27.258" rx="1.905" ry="1.875"/>
</g>
</svg>
