<?xml version="1.0" encoding="utf-8"?>
<!-- Generator: Adobe Illustrator 15.0.0, SVG Export Plug-In . SVG Version: 6.00 Build 0)  -->
<!DOCTYPE svg PUBLIC "-//W3C//DTD SVG 1.0//EN" "http://www.w3.org/TR/2001/REC-SVG-20010904/DTD/svg10.dtd">
<svg version="1.0" id="Layer_1" xmlns="http://www.w3.org/2000/svg" xmlns:xlink="http://www.w3.org/1999/xlink" x="0px" y="0px"
	 width="52px" height="53px" viewBox="0 0 52 53" enable-background="new 0 0 52 53" xml:space="preserve">
<g>
	<g>
		<path fill="#414042" d="M30.396,17.258h-1.354h-4.12c-2.713,0-4.922,2.201-4.922,4.906v14.135c0,2.705,2.209,4.906,4.922,4.906
			h10.146c2.714,0,4.922-2.201,4.922-4.906v-8.092v-1.398L30.396,17.258z M36.711,26.342h-2.771c-1.672,0-3.03-1.363-3.03-3.041
			v-2.764L36.711,26.342z M38.012,36.359c0,1.613-1.312,2.928-2.922,2.928H24.9c-1.61,0-2.922-1.312-2.922-2.928V22.105
			c0-1.613,1.312-2.928,2.922-2.928h4.142v4.131c0,2.701,2.194,4.898,4.892,4.898h4.078V36.359L38.012,36.359z"/>
	</g>
	<polygon fill="#414042" points="30.031,29.297 31.268,31.912 34.027,32.332 32.029,34.365 32.501,37.238 30.031,35.883 
		27.562,37.238 28.034,34.365 26.037,32.332 28.798,31.912 	"/>
</g>
</svg>
