<?xml version="1.0" encoding="utf-8"?>
<!-- Generator: Adobe Illustrator 15.0.0, SVG Export Plug-In . SVG Version: 6.00 Build 0)  -->
<!DOCTYPE svg PUBLIC "-//W3C//DTD SVG 1.0//EN" "http://www.w3.org/TR/2001/REC-SVG-20010904/DTD/svg10.dtd">
<svg version="1.0" id="Layer_1" xmlns="http://www.w3.org/2000/svg" xmlns:xlink="http://www.w3.org/1999/xlink" x="0px" y="0px"
	 width="52px" height="53px" viewBox="0 0 52 53" enable-background="new 0 0 52 53" xml:space="preserve">
<g>
	<g>
		<g>
			<path fill="#434343" d="M18.802,42.258L18.802,42.258c-0.538,0-1.085-0.306-1.427-0.793c-0.334-0.48-0.418-1.045-0.232-1.549
				c0.242-0.666,3.176-6.589,3.762-7.769L20.979,32l12.84-12.886c1.104-1.104,3.104-1.062,4.262,0.097l2.011,1.989
				c1.188,1.188,1.193,2.908,0.019,4.089L27.23,38.234l-0.148,0.072c0,0-6.914,3.441-7.639,3.803
				C19.24,42.209,19.025,42.258,18.802,42.258z M22.395,33.448c-0.715,1.442-1.645,3.33-2.393,4.865
				c-0.385,0.791,0.277,1.368,1.045,0.987c1.928-0.961,4.217-2.102,4.818-2.397L38.77,23.924c0.396-0.398,0.392-0.857-0.013-1.26
				l-2.05-2.033c-0.411-0.412-1.094-0.457-1.443-0.104L22.395,33.448z"/>
		</g>
	</g>
	<g>
		<path fill="#434343" d="M36.066,28.314c-0.252,0-0.502-0.096-0.692-0.287l-4.041-4.041c-0.383-0.383-0.383-1.002,0-1.387
			c0.383-0.383,1.002-0.383,1.385,0l4.041,4.041c0.384,0.385,0.384,1.004,0,1.387C36.566,28.219,36.316,28.314,36.066,28.314z"/>
	</g>
</g>
</svg>
