<?xml version="1.0" encoding="utf-8"?>
<!-- Generator: Adobe Illustrator 15.0.0, SVG Export Plug-In . SVG Version: 6.00 Build 0)  -->
<!DOCTYPE svg PUBLIC "-//W3C//DTD SVG 1.0//EN" "http://www.w3.org/TR/2001/REC-SVG-20010904/DTD/svg10.dtd">
<svg version="1.0" id="Layer_1" xmlns="http://www.w3.org/2000/svg" xmlns:xlink="http://www.w3.org/1999/xlink" x="0px" y="0px"
	 width="52px" height="53px" viewBox="0 0 52 53" enable-background="new 0 0 52 53" xml:space="preserve">
<g>
	<g>
		<path fill="#414042" d="M31.287,34.258c-4,0-8.225-3.391-11.062-6.232c-5.904-5.918-7.687-11.186-5.014-14.832
			c0.204-0.277,0.438-0.553,0.693-0.811c0.725-0.723,1.543-1.09,2.431-1.09c1.746,0,3.188,1.445,3.961,2.223l0.953,0.953
			c0.925,0.926,0.981,2.609,0.457,3.602l-0.177,0.24l-1.229,1.23c-0.028,0.031-0.024,0.084,0.009,0.117l6.332,6.307l1.521-1.318
			c0.41-0.219,0.912-0.334,1.449-0.334c0.861,0,1.645,0.178,2.146,0.682l0.952,0.953c0.748,0.75,1.497,1.578,1.908,2.545
			c0.602,1.41,0.33,2.744-0.781,3.857c-0.256,0.256-0.527,0.49-0.811,0.697C33.936,33.85,32.677,34.258,31.287,34.258z
			 M18.336,13.307c-0.341,0-0.67,0.164-1.008,0.502c-0.186,0.186-0.352,0.379-0.496,0.576c-2.818,3.848,2.43,9.824,4.814,12.215
			c3.633,3.639,7.058,5.643,9.641,5.643c0.966,0,1.8-0.268,2.551-0.818c0.198-0.146,0.393-0.312,0.575-0.498
			c0.524-0.523,0.627-1,0.354-1.645c-0.316-0.74-2.435-2.861-2.435-2.861c-0.099-0.1-0.385-0.201-0.726-0.201
			c-0.166,0-0.303,0.021-0.4,0.059l-1.098,1.096c-0.787,0.791-2.168,0.787-2.961-0.01l-6.227-6.236
			c-0.855-0.857-0.861-2.189-0.047-3.004l1.096-1.1c0.12-0.365,0.029-0.949-0.146-1.127C21.828,15.893,19.248,13.307,18.336,13.307z
			"/>
	</g>
	<path fill="#414042" d="M32.363,15.072l-3.481-0.701c-0.54-0.109-1.069,0.24-1.178,0.781c-0.108,0.543,0.241,1.068,0.782,1.18
		l1.697,0.342c-0.033,0.025-0.07,0.037-0.102,0.066l-2.857,2.855c-0.391,0.393-0.392,1.021,0,1.414
		c0.393,0.393,1.023,0.348,1.416-0.045l2.855-2.855c0.025-0.027,0.038-0.062,0.062-0.094l0.349,1.738
		c0.11,0.541,0.64,0.891,1.181,0.775c0.198-0.041,0.371-0.139,0.505-0.271c0.23-0.229,0.345-0.566,0.273-0.91l-0.722-3.5
		C33.064,15.459,32.757,15.152,32.363,15.072z"/>
</g>
</svg>
