<?xml version="1.0" encoding="utf-8"?>
<!-- Generator: Adobe Illustrator 15.0.0, SVG Export Plug-In . SVG Version: 6.00 Build 0)  -->
<!DOCTYPE svg PUBLIC "-//W3C//DTD SVG 1.0//EN" "http://www.w3.org/TR/2001/REC-SVG-20010904/DTD/svg10.dtd">
<svg version="1.0" id="Layer_1" xmlns="http://www.w3.org/2000/svg" xmlns:xlink="http://www.w3.org/1999/xlink" x="0px" y="0px"
	 width="52px" height="53px" viewBox="0 0 52 53" enable-background="new 0 0 52 53" xml:space="preserve">
<g>
	<path fill="#414042" d="M22.057,40.258c-0.125,0-0.252-0.023-0.373-0.072c-0.379-0.152-0.627-0.52-0.627-0.928v-5.193
		c0-0.156-0.49-0.32-0.765-0.457l-5.739-2.871c-0.342-0.17-0.556-0.521-0.553-0.902c0.003-0.383,0.224-0.729,0.568-0.895l22-10.521
		c0.377-0.179,0.83-0.104,1.131,0.188c0.3,0.293,0.385,0.741,0.213,1.125l-7.521,18.965c-0.135,0.3-0.408,0.515-0.73,0.571
		c-0.326,0.062-0.655-0.043-0.889-0.274l-3.826-2.571l0.039,0.76c0.035,0.297-0.063,0.596-0.271,0.811l-1.935,1.959
		C22.586,40.15,22.324,40.258,22.057,40.258z M24.328,33.041l4.689,3.637L34.966,21.4l-17.857,8.438l4.453,1.701l4.572-3.08
		c0.437-0.267,1-0.17,1.319,0.225c0.318,0.395,0.291,0.961-0.064,1.322L24.328,33.041z"/>
</g>
</svg>
