<?xml version="1.0" encoding="utf-8"?>
<!-- Generator: Adobe Illustrator 15.0.0, SVG Export Plug-In . SVG Version: 6.00 Build 0)  -->
<!DOCTYPE svg PUBLIC "-//W3C//DTD SVG 1.0//EN" "http://www.w3.org/TR/2001/REC-SVG-20010904/DTD/svg10.dtd">
<svg version="1.0" id="Layer_1" xmlns="http://www.w3.org/2000/svg" xmlns:xlink="http://www.w3.org/1999/xlink" x="0px" y="0px"
	 width="52px" height="53px" viewBox="0 0 52 53" enable-background="new 0 0 52 53" xml:space="preserve">
<g>
	<path fill="#414042" d="M26.305,39.258c-2.008,0-3.305-1.195-3.305-3.045V18.355c0-1.854,1.291-3.055,3.289-3.055
		c1.297,0,2.66,0.529,3.477,1.348l7.825,7.365c0.888,0.891,1.364,2.043,1.364,3.271c0,1.227-0.477,2.381-1.342,3.248l-7.872,7.408
		C28.956,38.732,27.6,39.258,26.305,39.258z M26.238,17.301c-1.301,0-1.301,0.766-1.301,1.055v17.857c0,0.287,0,1.045,1.315,1.045
		c0.771,0,1.618-0.309,2.062-0.752l7.902-7.408c0.467-0.469,0.737-1.119,0.737-1.812s-0.271-1.348-0.761-1.836l-7.856-7.363
		C27.866,17.615,27.014,17.301,26.238,17.301z"/>
</g>
</svg>
