<?xml version="1.0" encoding="utf-8"?>
<!-- Generator: Adobe Illustrator 15.0.0, SVG Export Plug-In . SVG Version: 6.00 Build 0)  -->
<!DOCTYPE svg PUBLIC "-//W3C//DTD SVG 1.0//EN" "http://www.w3.org/TR/2001/REC-SVG-20010904/DTD/svg10.dtd">
<svg version="1.0" id="Layer_1" xmlns="http://www.w3.org/2000/svg" xmlns:xlink="http://www.w3.org/1999/xlink" x="0px" y="0px"
	 width="52px" height="53px" viewBox="0 0 52 53" enable-background="new 0 0 52 53" xml:space="preserve">
<g>
	<g>
		<path fill="#434343" d="M24.061,31.258c-4.444,0-8.061-3.637-8.061-8.105c0-0.357,0.031-7.863,0.031-7.863
			c0-1.67,1.351-3.03,3.012-3.03h4.882c1.661,0,3.013,1.36,3.013,3.035v5.93c0,1.675-1.352,3.035-3.013,3.035H22.04
			c0.388,0.726,1.146,1.211,2.019,1.211c1.588,0,2.879,1.299,2.879,2.896C26.938,29.961,25.646,31.258,24.061,31.258z
			 M19.012,14.257c-0.574,0-1.043,0.465-1.043,1.035c0,0.004-0.031,7.501-0.031,7.859c0,3.366,2.774,6.104,6.188,6.104
			c0.5,0,0.906-0.401,0.906-0.896s-0.407-0.895-0.906-0.895c-2.37,0-3.986-1.836-4.062-4.181l-0.033-1.027h3.959
			c0.574,0,1.043-0.465,1.043-1.035v-5.93c0-0.57-0.469-1.035-1.043-1.035H19.012z"/>
	</g>
	<g>
		<path fill="#434343" d="M29,33.362c0-1.597,1.299-2.896,2.895-2.896c0.879,0,1.642-0.485,2.03-1.211h-1.896
			C30.359,29.258,29,27.896,29,26.222v-5.93c0-1.674,1.359-3.035,3.029-3.035h4.91c1.67,0,3.028,1.361,3.028,3.03
			c0,0,0.031,7.505,0.031,7.864c0.001,4.469-3.636,8.106-8.104,8.106C30.299,36.258,29,34.959,29,33.362z M32.012,19.257
			c-0.574,0-1.043,0.465-1.043,1.035v5.93c0,0.57,0.469,1.036,1.043,1.036h3.959l-0.033,1.031c-0.076,2.344-1.691,4.18-4.062,4.18
			c-0.5,0-0.905,0.399-0.905,0.895s0.405,0.896,0.905,0.896c3.412,0,6.188-2.737,6.188-6.104c0-0.358-0.031-7.855-0.031-7.859
			c0-0.57-0.469-1.035-1.043-1.035h-4.979V19.257z"/>
	</g>
</g>
</svg>
