<?xml version="1.0" encoding="utf-8"?>
<!-- Generator: Adobe Illustrator 15.0.0, SVG Export Plug-In . SVG Version: 6.00 Build 0)  -->
<!DOCTYPE svg PUBLIC "-//W3C//DTD SVG 1.0//EN" "http://www.w3.org/TR/2001/REC-SVG-20010904/DTD/svg10.dtd">
<svg version="1.0" id="Layer_1" xmlns="http://www.w3.org/2000/svg" xmlns:xlink="http://www.w3.org/1999/xlink" x="0px" y="0px"
	 width="52px" height="53px" viewBox="0 0 52 53" enable-background="new 0 0 52 53" xml:space="preserve">
<g>
	<g>
		<path fill="#434343" d="M31.671,24.299h-7.38c-1.798,0-3.262-1.457-3.262-3.248v-4.545c0-1.791,1.463-3.248,3.262-3.248h7.38
			c1.798,0,3.261,1.457,3.261,3.248v4.545C34.932,22.842,33.469,24.299,31.671,24.299z M24.232,15.258
			c-0.709,0-1.285,0.561-1.285,1.248v4.545c0,0.688,0.576,1.248,1.285,1.248h7.498c0.709,0,1.285-0.561,1.285-1.248v-4.545
			c0-0.688-0.576-1.248-1.285-1.248H24.232z"/>
	</g>
	<g>
		<path fill="#434343" d="M33.975,26.242h-2c0-0.58-0.561-1.053-1.248-1.053h-5.545c-0.688,0-1.248,0.473-1.248,1.053h-2
			c0-1.686,1.457-3.053,3.248-3.053h5.545C32.518,23.189,33.975,24.559,33.975,26.242z"/>
	</g>
	<path fill="#434343" d="M39.947,30.258c0,0.529-0.399,0.959-0.893,0.959h-22.08c-0.492,0-0.893-0.43-0.893-0.959l0,0
		c0-0.529,0.398-0.959,0.893-0.959h22.08C39.547,29.299,39.947,29.729,39.947,30.258L39.947,30.258z"/>
	<rect x="26.029" y="28.258" fill="#434343" width="3.919" height="3.959"/>
	<rect x="27.02" y="24.873" fill="#434343" width="1.906" height="5.385"/>
</g>
</svg>
