<?xml version="1.0" encoding="utf-8"?>
<!-- Generator: Adobe Illustrator 15.0.0, SVG Export Plug-In . SVG Version: 6.00 Build 0)  -->
<!DOCTYPE svg PUBLIC "-//W3C//DTD SVG 1.0//EN" "http://www.w3.org/TR/2001/REC-SVG-20010904/DTD/svg10.dtd">
<svg version="1.0" id="Layer_1" xmlns="http://www.w3.org/2000/svg" xmlns:xlink="http://www.w3.org/1999/xlink" x="0px" y="0px"
	 width="52px" height="53px" viewBox="0 0 52 53" enable-background="new 0 0 52 53" xml:space="preserve">
<g>
	<g>
		<path fill="#434343" d="M24.002,32.258c-0.117,0-0.236-0.021-0.348-0.062c-0.395-0.146-9.627-3.67-9.627-11.771l-0.008-8.082
			c-0.002-0.318,0.15-0.621,0.412-0.812c0.176-0.127,4.344-3.106,9.568-3.106s9.396,2.979,9.568,3.106
			c0.262,0.188,0.414,0.492,0.412,0.812c0,0.013,0,0.408,0,8.06c0,8.39-9.264,11.666-9.654,11.801
			C24.223,32.239,24.111,32.258,24.002,32.258z M15.895,12.73l0.008,7.725c0,6.082,6.506,9.301,8.08,9.99
			c1.574-0.652,8.064-3.727,8.064-10.014c0-4.891,0-6.889,0-7.701c-1.117-0.707-4.344-2.514-8.076-2.514
			C20.24,10.217,17.014,12.023,15.895,12.73z"/>
	</g>
	<polygon fill="#434343" points="24.006,14.469 25.406,17.309 28.539,17.764 26.271,19.973 26.807,23.094 24.006,21.62 
		21.203,23.094 21.738,19.973 19.471,17.764 22.604,17.309 	"/>
</g>
</svg>
