<?xml version="1.0" encoding="utf-8"?>
<!-- Generator: Adobe Illustrator 15.0.0, SVG Export Plug-In . SVG Version: 6.00 Build 0)  -->
<!DOCTYPE svg PUBLIC "-//W3C//DTD SVG 1.0//EN" "http://www.w3.org/TR/2001/REC-SVG-20010904/DTD/svg10.dtd">
<svg version="1.0" id="Layer_1" xmlns="http://www.w3.org/2000/svg" xmlns:xlink="http://www.w3.org/1999/xlink" x="0px" y="0px"
	 width="52px" height="53px" viewBox="0 0 52 53" enable-background="new 0 0 52 53" xml:space="preserve">
<g>
	<path fill="#414042" d="M32.744,41.258H21.287c-3.424,0-6.209-2.777-6.209-6.191V23.635c0-3.414,2.785-6.189,6.209-6.189h11.457
		c3.424,0,6.209,2.775,6.209,6.189v11.432C38.953,38.48,36.168,41.258,32.744,41.258z M21.165,19.258
		c-2.356,0-4.274,1.912-4.274,4.262v11.602c0,2.35,1.918,4.264,4.274,4.264h11.638c2.358,0,4.275-1.914,4.275-4.264V23.52
		c0-2.35-1.917-4.262-4.275-4.262H21.165z"/>
</g>
</svg>
