<?xml version="1.0" encoding="utf-8"?>
<!-- Generator: Adobe Illustrator 15.0.0, SVG Export Plug-In . SVG Version: 6.00 Build 0)  -->
<!DOCTYPE svg PUBLIC "-//W3C//DTD SVG 1.0//EN" "http://www.w3.org/TR/2001/REC-SVG-20010904/DTD/svg10.dtd">
<svg version="1.0" id="Layer_1" xmlns="http://www.w3.org/2000/svg" xmlns:xlink="http://www.w3.org/1999/xlink" x="0px" y="0px"
	 width="52px" height="53px" viewBox="0 0 52 53" enable-background="new 0 0 52 53" xml:space="preserve">
<path fill="#414042" d="M36.869,16.258H19.193c-1.635,0-2.965,1.346-2.965,3v6.057c0,0.4,0.233,0.762,0.598,0.92
	c3.71,1.617,6.392,5.133,7,9.174c0.072,0.488,0.486,0.852,0.974,0.852h6.341c0.485,0,0.898-0.36,0.974-0.852
	c0.614-4.094,3.343-7.629,7.112-9.227c0.369-0.154,0.606-0.518,0.606-0.922v-6.002C39.833,17.604,38.504,16.258,36.869,16.258z
	 M19.164,18.133h18.13c0.562,0,1.019,0.455,1.019,1.014v1.133H18.146v-1.133C18.146,18.588,18.604,18.133,19.164,18.133z
	 M30.577,34.342h-4.822c-0.914-4.197-3.747-7.818-7.608-9.709v-2.396h20.166v2.334C34.383,26.445,31.501,30.09,30.577,34.342z"/>
</svg>
