<?xml version="1.0" encoding="utf-8"?>
<!-- Generator: Adobe Illustrator 15.0.0, SVG Export Plug-In . SVG Version: 6.00 Build 0)  -->
<!DOCTYPE svg PUBLIC "-//W3C//DTD SVG 1.0//EN" "http://www.w3.org/TR/2001/REC-SVG-20010904/DTD/svg10.dtd">
<svg version="1.0" id="Layer_1" xmlns="http://www.w3.org/2000/svg" xmlns:xlink="http://www.w3.org/1999/xlink" x="0px" y="0px"
	 width="52px" height="53px" viewBox="0 0 52 53" enable-background="new 0 0 52 53" xml:space="preserve">
<g>
	<path fill="#414042" d="M41,18.294c0-2.755-2.818-4.995-6.285-4.995h-0.377c-3.467,0-6.285,2.24-6.285,4.995v5.921h1.916v-5.883
		c0-1.646,1.998-3.033,4.361-3.033h0.393c2.363,0,4.361,1.39,4.361,3.033v5.883H41V18.294z"/>
	<g>
		<path fill="#414042" d="M30.123,37.258H19.825c-1.552,0-2.815-1.332-2.815-2.972v-8.975c0-1.639,1.264-2.972,2.815-2.972h10.298
			c1.553,0,2.814,1.333,2.814,2.972v8.975C32.938,35.926,31.676,37.258,30.123,37.258z M19.801,24.153
			c-0.459,0-0.832,0.451-0.832,1.006v9.134c0,0.555,0.373,1.006,0.832,1.006h10.367c0.459,0,0.832-0.451,0.832-1.006v-9.134
			c0-0.555-0.373-1.006-0.832-1.006H19.801z"/>
	</g>
	<path fill="#414042" d="M27,28.316c0-1.078-0.895-1.953-2-1.953s-2,0.875-2,1.953c0,0.688,0.369,1.293,0.922,1.641l-0.828,3.281
		h3.844l-0.83-3.297C26.646,29.592,27,28.993,27,28.316z"/>
</g>
</svg>
