<?xml version="1.0" encoding="utf-8"?>
<!-- Generator: Adobe Illustrator 15.0.0, SVG Export Plug-In . SVG Version: 6.00 Build 0)  -->
<!DOCTYPE svg PUBLIC "-//W3C//DTD SVG 1.0//EN" "http://www.w3.org/TR/2001/REC-SVG-20010904/DTD/svg10.dtd">
<svg version="1.0" id="Layer_1" xmlns="http://www.w3.org/2000/svg" xmlns:xlink="http://www.w3.org/1999/xlink" x="0px" y="0px"
	 width="220px" height="227px" viewBox="0 0 220 227" enable-background="new 0 0 220 227" xml:space="preserve">
<g>
	
		<rect x="93.095" y="95.384" transform="matrix(-0.7071 -0.7071 0.7071 -0.7071 91.7827 231.7232)" fill="#434343" width="1.576" height="2.938"/>
	<path fill="#434343" d="M93.863,100.385l5.029,5.031l3.694-3.693l-5.031-5.031L93.863,100.385z M97.645,97.905l3.685,3.685
		l-1.333,1.333l-3.684-3.686L97.645,97.905z"/>
	<path fill="#434343" d="M99.452,107.33l7.293,8.708l6.334-6.334l-8.707-7.293L99.452,107.33z M104.299,103.309l7.115,7.115
		l-1.245,1.246l-7.115-7.116L104.299,103.309z"/>
	
		<rect x="105.843" y="113.586" transform="matrix(-0.7071 0.7071 -0.7071 -0.7071 271.0058 116.8164)" fill="#434343" width="10.931" height="1.903"/>
</g>
</svg>
