<?xml version="1.0" encoding="utf-8"?>
<!-- Generator: Adobe Illustrator 15.0.0, SVG Export Plug-In . SVG Version: 6.00 Build 0)  -->
<!DOCTYPE svg PUBLIC "-//W3C//DTD SVG 1.0//EN" "http://www.w3.org/TR/2001/REC-SVG-20010904/DTD/svg10.dtd">
<svg version="1.0" id="Layer_1" xmlns="http://www.w3.org/2000/svg" xmlns:xlink="http://www.w3.org/1999/xlink" x="0px" y="0px"
	 width="134.013px" height="141.497px" viewBox="0 0 134.013 141.497" enable-background="new 0 0 134.013 141.497"
	 xml:space="preserve">
<path fill="#434343" d="M79.745,69.141H73.37v-6.562c0-0.828-0.671-1.5-1.5-1.5h-5c-0.829,0-1.5,0.672-1.5,1.5v6.562h-6.5
	c-0.829,0-1.5,0.671-1.5,1.5v4.812c0,0.828,0.671,1.5,1.5,1.5h6.5v5.438c0,0.829,0.671,1.5,1.5,1.5h5c0.829,0,1.5-0.671,1.5-1.5
	v-5.438h6.375c0.829,0,1.5-0.672,1.5-1.5v-4.812C81.245,69.812,80.574,69.141,79.745,69.141z"/>
</svg>
