<?xml version="1.0" encoding="utf-8"?>
<!-- Generator: Adobe Illustrator 15.0.0, SVG Export Plug-In . SVG Version: 6.00 Build 0)  -->
<!DOCTYPE svg PUBLIC "-//W3C//DTD SVG 1.0//EN" "http://www.w3.org/TR/2001/REC-SVG-20010904/DTD/svg10.dtd">
<svg version="1.0" id="Layer_1" xmlns="http://www.w3.org/2000/svg" xmlns:xlink="http://www.w3.org/1999/xlink" x="0px" y="0px"
	 width="134.013px" height="141.497px" viewBox="0 0 134.013 141.497" enable-background="new 0 0 134.013 141.497"
	 xml:space="preserve">
<path fill="#434343" d="M66.559,83.795c1.582-1.561,3.089-3.193,3.089-5.204c0-2.018-1.524-3.69-3.107-5.294
	c0.312-0.33,0.615-0.664,0.896-1.005c1.706-2.077,2.177-4.595,2.196-4.7c0.097-0.538-0.265-0.902-0.807-0.999
	c-0.542-0.106-1.062,0.11-1.163,0.647c-0.001,0.006-0.028,0.15-0.093,0.389h-4.846c-0.063-0.237-0.092-0.383-0.093-0.389
	c-0.1-0.537-0.611-0.743-1.161-0.649c-0.543,0.097-0.905,0.462-0.809,1.001c0.021,0.105,0.49,2.623,2.197,4.7
	c0.279,0.341,0.583,0.675,0.896,1.004c-1.583,1.604-3.107,3.278-3.107,5.295c0,2.011,1.507,3.645,3.089,5.204
	c-0.304,0.312-0.6,0.628-0.873,0.949c-1.712,2.023-2.181,4.493-2.2,4.6c-0.098,0.536,0.263,1.05,0.805,1.148
	c0.061,0.011,0.122,0.017,0.182,0.017c0.473,0,0.893-0.333,0.982-0.81c0,0,0.021-0.098,0.054-0.228h4.926
	c0.032,0.129,0.052,0.221,0.053,0.226c0.089,0.479,0.51,0.812,0.983,0.812c0.06,0,0.119-0.005,0.18-0.017
	c0.543-0.099,0.904-0.612,0.807-1.149c-0.021-0.104-0.488-2.575-2.2-4.599C67.158,84.423,66.862,84.107,66.559,83.795z
	 M65.147,85.202c0.265,0.271,0.522,0.545,0.751,0.815c0.168,0.198,0.321,0.404,0.461,0.611h-2.424
	c0.14-0.207,0.293-0.413,0.461-0.611C64.625,85.748,64.883,85.474,65.147,85.202z M62.647,78.591c0-0.365,0.112-0.739,0.295-1.118
	h4.41c0.183,0.379,0.295,0.753,0.295,1.118c0,0.341-0.094,0.688-0.256,1.038h-4.488C62.741,79.28,62.647,78.932,62.647,78.591z
	 M63.46,76.629c0.46-0.635,1.062-1.275,1.688-1.912c0.627,0.637,1.229,1.277,1.688,1.912H63.46z M64.412,71.043
	c-0.151-0.187-0.288-0.377-0.418-0.57h2.309c-0.13,0.193-0.267,0.385-0.418,0.57c-0.226,0.271-0.479,0.548-0.736,0.822
	C64.89,71.591,64.636,71.316,64.412,71.043z M67.304,68.473c-0.127,0.35-0.295,0.744-0.507,1.156h-3.3
	c-0.212-0.412-0.38-0.809-0.506-1.156H67.304z M63.419,80.473h3.456c-0.465,0.64-1.081,1.284-1.729,1.922
	C64.501,81.757,63.884,81.114,63.419,80.473z M62.943,88.629c0.122-0.344,0.287-0.737,0.502-1.156h3.404
	c0.215,0.419,0.38,0.812,0.502,1.156H62.943z"/>
</svg>
