<?xml version="1.0" encoding="utf-8"?>
<!-- Generator: Adobe Illustrator 15.0.0, SVG Export Plug-In . SVG Version: 6.00 Build 0)  -->
<!DOCTYPE svg PUBLIC "-//W3C//DTD SVG 1.0//EN" "http://www.w3.org/TR/2001/REC-SVG-20010904/DTD/svg10.dtd">
<svg version="1.0" id="Layer_1" xmlns="http://www.w3.org/2000/svg" xmlns:xlink="http://www.w3.org/1999/xlink" x="0px" y="0px"
	 width="134.013px" height="141.497px" viewBox="0 0 134.013 141.497" enable-background="new 0 0 134.013 141.497"
	 xml:space="preserve">
<g>
	<ellipse fill="#434343" cx="53.983" cy="77.255" rx="1.957" ry="1.906"/>
	<ellipse fill="#434343" cx="65.983" cy="77.255" rx="1.957" ry="1.906"/>
	<path fill="#434343" d="M69.996,72.177H51.949V59.939l-3.172-4.368c-0.324-0.444-0.945-0.542-1.389-0.219
		c-0.443,0.323-0.541,0.946-0.218,1.393l2.849,3.901v11.53h-0.055c-0.553,0-1,0.44-1,0.984c0,0.543,0.447,0.984,1,0.984h20.031
		c0.553,0,1-0.441,1-0.984C70.996,72.617,70.548,72.177,69.996,72.177z"/>
	<polygon fill="#434343" points="56.308,66.411 56.308,66.411 56.308,66.411 56.308,66.411 56.308,66.349 56.308,66.349 
		56.308,66.349 56.308,66.349 	"/>
	<path fill="#434343" d="M56.933,70.14c0,0.529-0.389,0.959-0.868,0.959h-2.201c-0.479,0-0.868-0.43-0.868-0.959v-9.956
		c0-0.529,0.389-0.959,0.868-0.959h2.201c0.479,0,0.868,0.43,0.868,0.959V70.14z"/>
	<path fill="#434343" d="M62.933,70.14c0,0.529-0.389,0.959-0.868,0.959h-2.201c-0.479,0-0.868-0.43-0.868-0.959v-7.956
		c0-0.529,0.389-0.959,0.868-0.959h2.201c0.479,0,0.868,0.43,0.868,0.959V70.14z"/>
	<path fill="#434343" d="M68.933,70.077c0,0.529-0.389,0.959-0.868,0.959h-2.201c-0.479,0-0.868-0.43-0.868-0.959V64.12
		c0-0.529,0.389-0.959,0.868-0.959h2.201c0.479,0,0.868,0.43,0.868,0.959V70.077z"/>
</g>
</svg>
