<?xml version="1.0" encoding="utf-8"?>
<!-- Generator: Adobe Illustrator 15.0.0, SVG Export Plug-In . SVG Version: 6.00 Build 0)  -->
<!DOCTYPE svg PUBLIC "-//W3C//DTD SVG 1.0//EN" "http://www.w3.org/TR/2001/REC-SVG-20010904/DTD/svg10.dtd">
<svg version="1.0" id="Layer_1" xmlns="http://www.w3.org/2000/svg" xmlns:xlink="http://www.w3.org/1999/xlink" x="0px" y="0px"
	 width="134.013px" height="141.497px" viewBox="0 0 134.013 141.497" enable-background="new 0 0 134.013 141.497"
	 xml:space="preserve">
<g>
	<path fill="#434343" d="M66.294,61.916c-6.582,0-11.917,5.335-11.917,11.916s5.335,11.916,11.917,11.916
		s11.917-5.335,11.917-11.916S72.876,61.916,66.294,61.916z M66.294,83.873c-5.547,0-10.042-4.495-10.042-10.041
		s4.495-10.041,10.042-10.041s10.042,4.495,10.042,10.041S71.841,83.873,66.294,83.873z"/>
	<path fill="#434343" d="M66.294,65.958c-4.35,0-7.875,3.525-7.875,7.874s3.525,7.874,7.875,7.874s7.875-3.525,7.875-7.874
		S70.644,65.958,66.294,65.958z M69.388,76.967h-2.156v-2.031h-1.844v2.031h-2.156v-6.219h2.156v2.031h1.844v-2.031h2.156V76.967z"
		/>
</g>
</svg>
