<?xml version="1.0" encoding="utf-8"?>
<!-- Generator: Adobe Illustrator 15.0.0, SVG Export Plug-In . SVG Version: 6.00 Build 0)  -->
<!DOCTYPE svg PUBLIC "-//W3C//DTD SVG 1.0//EN" "http://www.w3.org/TR/2001/REC-SVG-20010904/DTD/svg10.dtd">
<svg version="1.0" id="Layer_1" xmlns="http://www.w3.org/2000/svg" xmlns:xlink="http://www.w3.org/1999/xlink" x="0px" y="0px"
	 width="134.013px" height="141.497px" viewBox="0 0 134.013 141.497" enable-background="new 0 0 134.013 141.497"
	 xml:space="preserve">
<g>
	<g>
		<path fill="#434343" d="M65.298,73.837c-0.363,0-0.715-0.193-0.891-0.531c-0.252-0.479-0.058-1.063,0.436-1.309
			c3.922-1.943,6.357-5.828,6.357-10.136c0-4.313-2.439-8.199-6.367-10.143c-0.492-0.243-0.689-0.829-0.439-1.308
			c0.25-0.479,0.851-0.671,1.347-0.427c4.602,2.274,7.461,6.825,7.461,11.876c0,5.043-2.854,9.591-7.449,11.869
			C65.606,73.804,65.45,73.837,65.298,73.837z"/>
	</g>
	<g>
		<path fill="#434343" d="M62.345,69.825c-0.397,0-0.783-0.194-0.979-0.531c-0.275-0.479-0.062-1.063,0.479-1.31
			c2.601-1.175,4.218-3.521,4.218-6.122c0-2.604-1.619-4.952-4.226-6.126c-0.541-0.244-0.756-0.829-0.481-1.31
			c0.274-0.479,0.936-0.67,1.477-0.426c3.348,1.508,5.426,4.521,5.426,7.86c0,3.338-2.074,6.348-5.416,7.855
			C62.683,69.791,62.513,69.825,62.345,69.825z"/>
	</g>
	<g>
		<path fill="#434343" d="M60.397,65.841c-0.355,0-0.699-0.196-0.871-0.537c-0.246-0.481-0.056-1.074,0.428-1.32
			c0.785-0.402,1.271-1.199,1.271-2.079c0-0.882-0.485-1.681-1.272-2.081c-0.48-0.247-0.674-0.84-0.43-1.321
			c0.245-0.484,0.832-0.677,1.315-0.431c1.445,0.737,2.344,2.205,2.344,3.832c0,1.623-0.896,3.091-2.342,3.83
			C60.698,65.806,60.546,65.841,60.397,65.841z"/>
	</g>
</g>
</svg>
