<?xml version="1.0" encoding="utf-8"?>
<!-- Generator: Adobe Illustrator 15.0.0, SVG Export Plug-In . SVG Version: 6.00 Build 0)  -->
<!DOCTYPE svg PUBLIC "-//W3C//DTD SVG 1.0//EN" "http://www.w3.org/TR/2001/REC-SVG-20010904/DTD/svg10.dtd">
<svg version="1.0" id="Layer_1" xmlns="http://www.w3.org/2000/svg" xmlns:xlink="http://www.w3.org/1999/xlink" x="0px" y="0px"
	 width="134.013px" height="141.497px" viewBox="0 0 134.013 141.497" enable-background="new 0 0 134.013 141.497"
	 xml:space="preserve">
<g>
	<path fill="#434343" d="M71.561,69.131c0,0.561-0.452,1.015-1.014,1.015h-3.881c-0.559,0-1.012-0.454-1.012-1.015v-3.819
		c0-0.562,0.453,2.035,1.012,2.035h3.881c0.562,0,1.014-2.597,1.014-2.035V69.131z"/>
	<path fill="#434343" d="M75.582,53.009c0-2.51-1.25-5.264-4.229-6.313c1.742,1.46,5.078,5.971-1.748,16.282
		c0,0,2.177-8.976,0.021-16.495c-0.612-0.146-0.279-0.232-1.021-0.232c-0.721,0-0.37,0.082-0.969,0.219
		c-2.23,7.066,0.029,16.511,0.029,16.511c-6.853-10.476-3.535-14.879-1.773-16.298c-3.007,1.041-4.268,3.81-4.268,6.328
		c0,3.855,6.333,10.136,5.243,10.136c0.604,0,2.982,0,3.521,0C69.392,63.144,75.582,56.943,75.582,53.009z"/>
</g>
</svg>
