<?xml version="1.0" encoding="utf-8"?>
<!-- Generator: Adobe Illustrator 15.0.0, SVG Export Plug-In . SVG Version: 6.00 Build 0)  -->
<!DOCTYPE svg PUBLIC "-//W3C//DTD SVG 1.0//EN" "http://www.w3.org/TR/2001/REC-SVG-20010904/DTD/svg10.dtd">
<svg version="1.0" id="Layer_1" xmlns="http://www.w3.org/2000/svg" xmlns:xlink="http://www.w3.org/1999/xlink" x="0px" y="0px"
	 width="134.013px" height="141.497px" viewBox="0 0 134.013 141.497" enable-background="new 0 0 134.013 141.497"
	 xml:space="preserve">
<g>
	<path fill="#434343" d="M73.469,58.819c-3.831,0-6.938,3.134-6.938,7s3.105,7,6.938,7c3.834,0,6.938-3.134,6.938-7
		S77.301,58.819,73.469,58.819z M73.469,68.027c-1.209,0-2.188-0.988-2.188-2.208s0.979-2.208,2.188-2.208s2.188,0.988,2.188,2.208
		S74.678,68.027,73.469,68.027z"/>
	<path fill="#434343" d="M78.438,73.86h-9.854c-0.558,0-1.011,0.455-1.011,1.02v0.966c-2.021-1.521-3.449-3.795-3.864-6.409
		c0.496-0.363,0.822-0.95,0.822-1.616c0-1.104-0.887-1.999-1.979-1.999s-1.979,0.896-1.979,1.999c0,0.802,0.47,1.488,1.145,1.809
		c0.547,3.681,2.771,6.807,5.855,8.593v3.456c0,0.563,0.453,1.021,1.011,1.021h9.854c0.558,0,1.011-0.457,1.011-1.021v-6.796
		C79.449,74.315,78.996,73.86,78.438,73.86z M77.553,80.861h-8.062V79.8h8.062V80.861z M77.553,78.861h-8.062V77.8h8.062V78.861z
		 M77.553,76.861h-8.062V75.8h8.062V76.861z"/>
</g>
</svg>
