<?xml version="1.0" encoding="utf-8"?>
<!-- Generator: Adobe Illustrator 15.0.0, SVG Export Plug-In . SVG Version: 6.00 Build 0)  -->
<!DOCTYPE svg PUBLIC "-//W3C//DTD SVG 1.0//EN" "http://www.w3.org/TR/2001/REC-SVG-20010904/DTD/svg10.dtd">
<svg version="1.0" id="Layer_1" xmlns="http://www.w3.org/2000/svg" xmlns:xlink="http://www.w3.org/1999/xlink" x="0px" y="0px"
	 width="134.013px" height="141.497px" viewBox="0 0 134.013 141.497" enable-background="new 0 0 134.013 141.497"
	 xml:space="preserve">
<g>
	<path fill="#434343" d="M68.649,51.451c-5.561,0-10.067,4.51-10.067,10.068c0,5.561,7.463,13.934,10.067,13.934
		s10.068-8.373,10.068-13.934C78.718,55.96,74.21,51.451,68.649,51.451z M66.247,66.919c-0.396,0.395-1.763-0.334-3.056-1.627
		c-1.293-1.291-2.02-2.658-1.625-3.053c0.396-0.396,1.763,0.332,3.056,1.625S66.644,66.524,66.247,66.919z M71.05,66.919
		c-0.395-0.395,0.332-1.762,1.625-3.055s2.66-2.021,3.057-1.625c0.396,0.395-0.334,1.762-1.627,3.053
		C72.812,66.585,71.444,67.313,71.05,66.919z"/>
</g>
</svg>
