<?xml version="1.0" encoding="utf-8"?>
<!-- Generator: Adobe Illustrator 15.0.0, SVG Export Plug-In . SVG Version: 6.00 Build 0)  -->
<!DOCTYPE svg PUBLIC "-//W3C//DTD SVG 1.0//EN" "http://www.w3.org/TR/2001/REC-SVG-20010904/DTD/svg10.dtd">
<svg version="1.0" id="Layer_1" xmlns="http://www.w3.org/2000/svg" xmlns:xlink="http://www.w3.org/1999/xlink" x="0px" y="0px"
	 width="134.013px" height="141.497px" viewBox="0 0 134.013 141.497" enable-background="new 0 0 134.013 141.497"
	 xml:space="preserve">
<g>
	<path fill="#434343" d="M78.119,57.792c0,0.519-0.42,0.938-0.938,0.938H59.1c-0.519,0-0.938-0.42-0.938-0.938l0,0
		c0-0.518,0.42-0.938,0.938-0.938h18.082C77.699,56.854,78.119,57.274,78.119,57.792L78.119,57.792z"/>
	<path fill="#434343" d="M74.119,61.792c0,0.519-0.42,0.938-0.938,0.938H63.1c-0.519,0-0.938-0.42-0.938-0.938l0,0
		c0-0.518,0.42-0.938,0.938-0.938h10.081C73.699,60.854,74.119,61.274,74.119,61.792L74.119,61.792z"/>
	<path fill="#434343" d="M80.119,65.792c0,0.519-0.42,0.938-0.938,0.938H57.1c-0.519,0-0.938-0.42-0.938-0.938l0,0
		c0-0.518,0.42-0.938,0.938-0.938h22.082C79.699,64.854,80.119,65.274,80.119,65.792L80.119,65.792z"/>
	<path fill="#434343" d="M80.119,69.792c0,0.519-0.42,0.938-0.938,0.938H57.1c-0.519,0-0.938-0.42-0.938-0.938l0,0
		c0-0.518,0.42-0.938,0.938-0.938h22.082C79.699,68.854,80.119,69.274,80.119,69.792L80.119,69.792z"/>
	<path fill="#434343" d="M74.119,73.792c0,0.519-0.42,0.938-0.938,0.938H63.1c-0.519,0-0.938-0.42-0.938-0.938l0,0
		c0-0.518,0.42-0.938,0.938-0.938h10.081C73.699,72.854,74.119,73.274,74.119,73.792L74.119,73.792z"/>
	<path fill="#434343" d="M78.119,77.792c0,0.519-0.42,0.938-0.938,0.938H59.1c-0.519,0-0.938-0.42-0.938-0.938l0,0
		c0-0.518,0.42-0.938,0.938-0.938h18.082C77.699,76.854,78.119,77.274,78.119,77.792L78.119,77.792z"/>
</g>
</svg>
