<?xml version="1.0" encoding="utf-8"?>
<!-- Generator: Adobe Illustrator 15.0.0, SVG Export Plug-In . SVG Version: 6.00 Build 0)  -->
<!DOCTYPE svg PUBLIC "-//W3C//DTD SVG 1.0//EN" "http://www.w3.org/TR/2001/REC-SVG-20010904/DTD/svg10.dtd">
<svg version="1.0" id="Layer_1" xmlns="http://www.w3.org/2000/svg" xmlns:xlink="http://www.w3.org/1999/xlink" x="0px" y="0px"
	 width="134.013px" height="141.497px" viewBox="0 0 134.013 141.497" enable-background="new 0 0 134.013 141.497"
	 xml:space="preserve">
<g>
	<path fill="#434343" d="M64.842,74.399c0,0.518,0.42,0.938,0.938,0.938h22.081c0.519,0,0.938-0.42,0.938-0.938l0,0
		c0-0.519-0.42-0.938-0.938-0.938H65.78C65.262,73.462,64.842,73.882,64.842,74.399L64.842,74.399z"/>
	<path fill="#434343" d="M76.842,78.399c0,0.518,0.42,0.938,0.938,0.938h10.081c0.519,0,0.938-0.42,0.938-0.938l0,0
		c0-0.519-0.42-0.938-0.938-0.938H77.78C77.262,77.462,76.842,77.882,76.842,78.399L76.842,78.399z"/>
	<path fill="#434343" d="M73.842,82.399c0,0.518,0.42,0.938,0.938,0.938h13.081c0.519,0,0.938-0.42,0.938-0.938l0,0
		c0-0.519-0.42-0.938-0.938-0.938H74.78C74.262,81.462,73.842,81.882,73.842,82.399L73.842,82.399z"/>
	<path fill="#434343" d="M67.842,86.399c0,0.518,0.42,0.938,0.938,0.938h19.081c0.519,0,0.938-0.42,0.938-0.938l0,0
		c0-0.519-0.42-0.938-0.938-0.938H68.78C68.262,85.462,67.842,85.882,67.842,86.399L67.842,86.399z"/>
	<path fill="#434343" d="M71.842,90.399c0,0.518,0.42,0.938,0.938,0.938h15.081c0.519,0,0.938-0.42,0.938-0.938l0,0
		c0-0.519-0.42-0.938-0.938-0.938H72.78C72.262,89.462,71.842,89.882,71.842,90.399L71.842,90.399z"/>
	<path fill="#434343" d="M64.842,94.399c0,0.518,0.42,0.938,0.938,0.938h22.081c0.519,0,0.938-0.42,0.938-0.938l0,0
		c0-0.519-0.42-0.938-0.938-0.938H65.78C65.262,93.462,64.842,93.882,64.842,94.399L64.842,94.399z"/>
</g>
</svg>
