<?xml version="1.0" encoding="utf-8"?>
<!-- Generator: Adobe Illustrator 15.0.0, SVG Export Plug-In . SVG Version: 6.00 Build 0)  -->
<!DOCTYPE svg PUBLIC "-//W3C//DTD SVG 1.0//EN" "http://www.w3.org/TR/2001/REC-SVG-20010904/DTD/svg10.dtd">
<svg version="1.0" id="Layer_1" xmlns="http://www.w3.org/2000/svg" xmlns:xlink="http://www.w3.org/1999/xlink" x="0px" y="0px"
	 width="134.013px" height="141.497px" viewBox="0 0 134.013 141.497" enable-background="new 0 0 134.013 141.497"
	 xml:space="preserve">
<g>
	<path fill="#434343" d="M54.121,56.523c0,0.518,0.42,0.938,0.938,0.938h22.081c0.519,0,0.938-0.42,0.938-0.938l0,0
		c0-0.519-0.42-0.938-0.938-0.938H55.059C54.541,55.585,54.121,56.005,54.121,56.523L54.121,56.523z"/>
	<path fill="#434343" d="M54.121,60.523c0,0.518,0.42,0.938,0.938,0.938h22.081c0.519,0,0.938-0.42,0.938-0.938l0,0
		c0-0.519-0.42-0.938-0.938-0.938H55.059C54.541,59.585,54.121,60.005,54.121,60.523L54.121,60.523z"/>
	<path fill="#434343" d="M54.121,64.523c0,0.518,0.42,0.938,0.938,0.938h22.081c0.519,0,0.938-0.42,0.938-0.938l0,0
		c0-0.519-0.42-0.938-0.938-0.938H55.059C54.541,63.585,54.121,64.005,54.121,64.523L54.121,64.523z"/>
	<path fill="#434343" d="M54.121,68.523c0,0.518,0.42,0.938,0.938,0.938h22.081c0.519,0,0.938-0.42,0.938-0.938l0,0
		c0-0.519-0.42-0.938-0.938-0.938H55.059C54.541,67.585,54.121,68.005,54.121,68.523L54.121,68.523z"/>
	<path fill="#434343" d="M54.121,72.523c0,0.518,0.42,0.938,0.938,0.938h22.081c0.519,0,0.938-0.42,0.938-0.938l0,0
		c0-0.519-0.42-0.938-0.938-0.938H55.059C54.541,71.585,54.121,72.005,54.121,72.523L54.121,72.523z"/>
	<path fill="#434343" d="M54.121,76.523c0,0.518,0.42,0.938,0.938,0.938h15.081c0.519,0,0.938-0.42,0.938-0.938l0,0
		c0-0.519-0.42-0.938-0.938-0.938H55.059C54.541,75.585,54.121,76.005,54.121,76.523L54.121,76.523z"/>
</g>
</svg>
