<?xml version="1.0" encoding="utf-8"?>
<!-- Generator: Adobe Illustrator 15.0.0, SVG Export Plug-In . SVG Version: 6.00 Build 0)  -->
<!DOCTYPE svg PUBLIC "-//W3C//DTD SVG 1.0//EN" "http://www.w3.org/TR/2001/REC-SVG-20010904/DTD/svg10.dtd">
<svg version="1.0" id="Layer_1" xmlns="http://www.w3.org/2000/svg" xmlns:xlink="http://www.w3.org/1999/xlink" x="0px" y="0px"
	 width="134.013px" height="141.497px" viewBox="0 0 134.013 141.497" enable-background="new 0 0 134.013 141.497"
	 xml:space="preserve">
<g>
	<circle fill="#434343" cx="61.972" cy="68.022" r="1.458"/>
	<circle fill="#434343" cx="73.972" cy="68.022" r="1.458"/>
	<path fill="#434343" d="M79.504,62.116c0,0-3.929-5.594-5.032-5.594h-3.896v6.062h-1.188v-6.062H58.513c-1.104,0-2,0.896-2,2v7.959
		c0,1.104,0.896,2,2,2h0.754c-0.023-0.149-0.046-0.302-0.046-0.459c0-1.542,1.25-2.791,2.791-2.791c1.542,0,2.792,1.249,2.792,2.791
		c0,0.157-0.021,0.31-0.046,0.459h6.509c-0.023-0.149-0.046-0.302-0.046-0.459c0-1.542,1.25-2.791,2.791-2.791
		c1.542,0,2.792,1.249,2.792,2.791c0,0.157-0.021,0.31-0.046,0.459h1.713c1.104,0,2-0.896,2-2c0,0,0-0.271,0-1.99
		C80.472,63.241,79.504,62.116,79.504,62.116z M65.873,62.647h-0.214v0.214c0,0.977,0.058,1.767-1.104,1.767
		c-1.161,0-1.104-0.79-1.104-1.767v-0.214h-0.214c-0.976,0-1.766,0.058-1.766-1.104c0-1.162,0.79-1.104,1.766-1.104h0.214v-0.214
		c0-0.976-0.058-1.766,1.104-1.766s1.104,0.79,1.104,1.766v0.214h0.214c0.976,0,1.766-0.058,1.766,1.104
		C67.639,62.704,66.849,62.647,65.873,62.647z M71.46,61.585V57.46c0,0,1.084,0,2.018,0c0.937,0,2.026,1.354,2.026,1.354
		l2.157,2.771H71.46z"/>
	<path fill="#434343" d="M69.544,56.522c0-1.088-0.051-1.969,0.985-1.969c1.039,0,0.988,0.881,0.988,1.969H69.544z"/>
</g>
</svg>
