<?xml version="1.0" encoding="utf-8"?>
<!-- Generator: Adobe Illustrator 15.0.0, SVG Export Plug-In . SVG Version: 6.00 Build 0)  -->
<!DOCTYPE svg PUBLIC "-//W3C//DTD SVG 1.0//EN" "http://www.w3.org/TR/2001/REC-SVG-20010904/DTD/svg10.dtd">
<svg version="1.0" id="Layer_1" xmlns="http://www.w3.org/2000/svg" xmlns:xlink="http://www.w3.org/1999/xlink" x="0px" y="0px"
	 width="134.013px" height="141.497px" viewBox="0 0 134.013 141.497" enable-background="new 0 0 134.013 141.497"
	 xml:space="preserve">
<path fill="#434343" d="M76.984,66.091l-3.646,2.162l1.998,0.518c-0.014,3.552-3.166,6.572-7.107,7.003V64.896h1.958v-0.938h-1.958
	v-1.264c1.12-0.427,1.922-1.515,1.922-2.8c0-1.657-1.326-2.867-2.961-2.867s-2.907,1.265-2.907,2.921c0,1.324,0.8,2.383,1.976,2.78
	l-0.001,1.229h-1.966v0.938h1.965l-0.01,10.879c-3.957-0.424-6.943-3.456-6.949-7.021l1.952-0.499l-3.571-2.18l-2.338,3.688
	l2.007-0.513c0.256,4.123,3.586,7.505,7.964,8.31c1.289,0.371,1.4,1.263,1.4,1.263l0.606,1.983l0.619-1.971
	c0,0,0.256-0.967,1.396-1.275c4.366-0.806,7.688-4.177,7.954-8.287l1.951,0.507L76.984,66.091z M65.573,59.928
	c0-0.898,0.728-1.625,1.625-1.625c0.898,0,1.625,0.727,1.625,1.625c0,0.897-0.727,1.625-1.625,1.625
	C66.3,61.553,65.573,60.826,65.573,59.928z"/>
</svg>
