<?xml version="1.0" encoding="utf-8"?>
<!-- Generator: Adobe Illustrator 15.0.0, SVG Export Plug-In . SVG Version: 6.00 Build 0)  -->
<!DOCTYPE svg PUBLIC "-//W3C//DTD SVG 1.0//EN" "http://www.w3.org/TR/2001/REC-SVG-20010904/DTD/svg10.dtd">
<svg version="1.0" id="Layer_1" xmlns="http://www.w3.org/2000/svg" xmlns:xlink="http://www.w3.org/1999/xlink" x="0px" y="0px"
	 width="134.013px" height="141.497px" viewBox="0 0 134.013 141.497" enable-background="new 0 0 134.013 141.497"
	 xml:space="preserve">
<path fill="#434343" d="M72.001,58.249c-2.165-0.769-4.26,0.848-5.388,1.717l-0.102,0.08c-0.398,0.311-0.818,0.608-1.201,0.797
	c-0.016-0.271-0.028-0.541-0.028-0.803c0-4.824,2.266-7.283,0.021-7.283l-0.001-0.006l-0.162-0.656
	c-0.681-2.49-1.902-4.086-3.358-4.086c-1.442,0-2.535,1.568-3.22,4.021c0,0-0.137,0.53-0.167,0.661
	c-2.316-0.01,0.031,2.64,0.031,7.402c0,0.246-0.013,0.5-0.026,0.754c-0.385-0.188-0.806-0.488-1.207-0.801l-0.102-0.08
	c-1.127-0.869-3.222-2.484-5.387-1.717c-0.268,0.094-0.394,0.356-0.28,0.584c0.11,0.229,0.42,0.336,0.687,0.239
	c1.359-0.479,2.856,0.464,4.272,1.556l0.099,0.078c0.396,0.307,1.086,0.844,1.838,1.094c-0.525,4.752-2.935,10.168-2.935,10.168
	l13.041,0.037c0,0-2.474-5.467-3.03-10.209c0.747-0.252,1.433-0.783,1.826-1.09l0.1-0.078c1.416-1.092,2.912-2.035,4.271-1.556
	c0.267,0.097,0.576-0.012,0.688-0.239C72.394,58.606,72.268,58.342,72.001,58.249z M59.325,52.711v-0.064
	c0.564-2.254,1.546-3.639,2.458-3.639c0.972,0,2.018,1.574,2.561,4.09c-0.203,1.002-1.154,2.004-2.438,2.004
	C60.455,55.102,59.325,53.824,59.325,52.711z"/>
</svg>
