<?xml version="1.0" encoding="utf-8"?>
<!-- Generator: Adobe Illustrator 15.0.0, SVG Export Plug-In . SVG Version: 6.00 Build 0)  -->
<!DOCTYPE svg PUBLIC "-//W3C//DTD SVG 1.0//EN" "http://www.w3.org/TR/2001/REC-SVG-20010904/DTD/svg10.dtd">
<svg version="1.0" id="Layer_1" xmlns="http://www.w3.org/2000/svg" xmlns:xlink="http://www.w3.org/1999/xlink" x="0px" y="0px"
	 width="134.013px" height="141.497px" viewBox="0 0 134.013 141.497" enable-background="new 0 0 134.013 141.497"
	 xml:space="preserve">
<g>
	<path fill="#434343" d="M75.078,65.343h-7.17c-0.769,0-1.396,0.771-1.396,1.719v3.43c0,0.947,0.627,1.719,1.396,1.719h7.17
		c0.768,0,1.395-0.771,1.395-1.719v-3.43C76.472,66.115,75.845,65.343,75.078,65.343z M73.638,67.347h-4.25v-1.114h4.25V67.347z"/>
	<path fill="#434343" d="M75.033,54.406h-7.079c-0.759,0-1.378,0.764-1.378,1.703v3.398c0,0.938,0.619,1.703,1.378,1.703h7.079
		c0.759,0,1.378-0.765,1.378-1.703v-3.398C76.41,55.169,75.791,54.406,75.033,54.406z M73.638,56.39h-4.25v-1.228h4.25V56.39z"/>
	<path fill="#434343" d="M77.128,51.343H65.732c-1.225,0-2.219,0.974-2.219,2.176v19.578c0,1.201,0.994,2.176,2.219,2.176h11.396
		c1.225,0,2.219-0.975,2.219-2.176V53.519C79.347,52.317,78.353,51.343,77.128,51.343z M77.66,70.53
		c0,1.557-1.107,2.821-2.472,2.821h-7.393c-1.363,0-2.472-1.266-2.472-2.821v-3.567c0-1.557,1.107-2.821,2.472-2.821h7.393
		c1.363,0,2.472,1.266,2.472,2.821V70.53z M77.597,59.585c0,1.551-1.104,2.812-2.457,2.812h-7.357c-1.354,0-2.456-1.261-2.456-2.812
		V56.03c0-1.551,1.102-2.812,2.456-2.812h7.357c1.354,0,2.457,1.261,2.457,2.812V59.585z"/>
</g>
</svg>
