<?xml version="1.0" encoding="utf-8"?>
<!-- Generator: Adobe Illustrator 15.0.0, SVG Export Plug-In . SVG Version: 6.00 Build 0)  -->
<!DOCTYPE svg PUBLIC "-//W3C//DTD SVG 1.0//EN" "http://www.w3.org/TR/2001/REC-SVG-20010904/DTD/svg10.dtd">
<svg version="1.0" id="Layer_1" xmlns="http://www.w3.org/2000/svg" xmlns:xlink="http://www.w3.org/1999/xlink" x="0px" y="0px"
	 width="134.013px" height="141.497px" viewBox="0 0 134.013 141.497" enable-background="new 0 0 134.013 141.497"
	 xml:space="preserve">
<g>
	<path fill="#434343" d="M66.208,57.563l3.289,0.104l-0.058,1.823c0.313,0.333,0.837,0.35,1.169,0.037l1.882-1.767l0.152,0.005
		l0-0.146l0.619-0.582c0.333-0.312,0.349-0.836,0.037-1.169l-0.665-0.707l-0.002-0.288l-0.276-0.009l-1.55-1.648
		c-0.312-0.334-0.836-0.351-1.169-0.037l-0.051,1.599l-3.336-0.104c-0.292-0.021-2.908-0.141-4.925,1.682
		c-1.328,1.2-2.035,2.906-2.103,5.071c-0.042,1.313-0.412,2.297-1.099,2.921c-1.081,0.982-2.698,1.032-2.768,1.028l-5.997-0.188
		l-0.09,2.852c0,0,6.021,0.192,6.104,0.194c0.68,0.021,2.943-0.041,4.738-1.646c1.332-1.189,2.042-2.896,2.11-5.066
		c0.041-1.312,0.413-2.3,1.104-2.935C64.414,57.589,66.157,57.567,66.208,57.563z"/>
	<path fill="#434343" d="M73.014,66.865l-0.855-0.911l0-0.025l-0.026-0.001l-1.61-1.714c-0.313-0.333-0.836-0.35-1.169-0.037
		l-0.052,1.662l-3.714-0.117c0,0-0.981-0.019-1.911-0.485l-1.446,2.441c1.429,0.716,2.842,0.812,3.229,0.824
		c0.049,0.002,0.082,0.002,0.096,0.002l3.659,0.115l-0.059,1.868c0.313,0.335,0.836,0.351,1.169,0.037l2.653-2.49
		C73.309,67.722,73.326,67.198,73.014,66.865z"/>
	<path fill="#434343" d="M57.823,57.823l1.657-2.383c-1.755-1.058-3.646-1.067-3.788-1.067l-6.112-0.193l-0.09,2.842l6.181,0.193
		C55.688,57.222,56.839,57.23,57.823,57.823z"/>
</g>
</svg>
