<?xml version="1.0" encoding="utf-8"?>
<!-- Generator: Adobe Illustrator 15.0.0, SVG Export Plug-In . SVG Version: 6.00 Build 0)  -->
<!DOCTYPE svg PUBLIC "-//W3C//DTD SVG 1.0//EN" "http://www.w3.org/TR/2001/REC-SVG-20010904/DTD/svg10.dtd">
<svg version="1.0" id="Layer_1" xmlns="http://www.w3.org/2000/svg" xmlns:xlink="http://www.w3.org/1999/xlink" x="0px" y="0px"
	 width="134.013px" height="141.497px" viewBox="0 0 134.013 141.497" enable-background="new 0 0 134.013 141.497"
	 xml:space="preserve">
<g>
	<path fill="#434343" d="M68.958,69.253h5.863c0.576,0,1.042-0.469,1.042-1.047l-2.407-2.416l2.907-2.908
		c0.291-0.291,0.437-0.672,0.437-1.054s-0.146-0.763-0.437-1.056c-0.582-0.582-1.526-0.582-2.108,0l-2.903,2.903l-2.394-2.401
		c-0.576,0-1.042,0.468-1.042,1.046v5.886C67.916,68.784,68.381,69.253,68.958,69.253z"/>
	<path fill="#434343" d="M68.894,83.347l2.438-2.444l2.941,2.961c0.578,0.583,1.515,0.583,2.094,0c0.578-0.582,0.578-1.525,0-2.107
		l-2.938-2.958l2.348-2.354c0-0.576-0.465-1.042-1.039-1.042h-5.844c-0.574,0-1.04,0.466-1.04,1.042v5.862
		C67.854,82.881,68.319,83.347,68.894,83.347z"/>
	<path fill="#434343" d="M56.232,65.88l-2.386,2.395c0,0.575,0.465,1.041,1.039,1.041h5.844c0.574,0,1.04-0.466,1.04-1.041v-5.863
		c0-0.576-0.466-1.042-1.04-1.042l-2.399,2.407l-2.966-2.985c-0.289-0.292-0.667-0.438-1.047-0.438
		c-0.379,0-0.757,0.146-1.047,0.438c-0.578,0.582-0.578,1.524,0,2.106L56.232,65.88z"/>
	<path fill="#434343" d="M55.382,83.879l2.928-2.928l2.417,2.427c0.576,0,1.042-0.469,1.042-1.047v-5.886
		c0-0.578-0.466-1.046-1.042-1.046h-5.863c-0.576,0-1.042,0.468-1.042,1.046l2.384,2.393l-2.932,2.933
		c-0.583,0.582-0.583,1.525,0,2.108C53.856,84.461,54.8,84.461,55.382,83.879z"/>
</g>
</svg>
