<?xml version="1.0" encoding="utf-8"?>
<!-- Generator: Adobe Illustrator 15.0.0, SVG Export Plug-In . SVG Version: 6.00 Build 0)  -->
<!DOCTYPE svg PUBLIC "-//W3C//DTD SVG 1.0//EN" "http://www.w3.org/TR/2001/REC-SVG-20010904/DTD/svg10.dtd">
<svg version="1.0" id="Layer_1" xmlns="http://www.w3.org/2000/svg" xmlns:xlink="http://www.w3.org/1999/xlink" x="0px" y="0px"
	 width="134.013px" height="141.497px" viewBox="0 0 134.013 141.497" enable-background="new 0 0 134.013 141.497"
	 xml:space="preserve">
<g>
	<g>
		<path fill="#434343" d="M76.85,61.731c-0.3,0-0.605-0.066-0.893-0.211l-9.105-4.553l-9.105,4.553
			c-0.99,0.495-2.188,0.093-2.684-0.895c-0.494-0.988-0.094-2.189,0.896-2.685l10-5c0.562-0.281,1.227-0.281,1.788,0l10,5
			c0.988,0.494,1.39,1.695,0.896,2.685C78.291,61.327,77.584,61.731,76.85,61.731z"/>
	</g>
	<g>
		<path fill="#434343" d="M76.851,66.731c-0.15,0-0.303-0.034-0.446-0.105l-9.553-4.775l-9.553,4.775
			c-0.494,0.246-1.096,0.048-1.343-0.446c-0.246-0.494-0.047-1.095,0.447-1.343l10-5c0.281-0.141,0.613-0.141,0.896,0l10,5
			c0.494,0.248,0.693,0.849,0.446,1.343C77.571,66.529,77.218,66.731,76.851,66.731z"/>
	</g>
</g>
</svg>
