<?xml version="1.0" encoding="utf-8"?>
<!-- Generator: Adobe Illustrator 15.0.0, SVG Export Plug-In . SVG Version: 6.00 Build 0)  -->
<!DOCTYPE svg PUBLIC "-//W3C//DTD SVG 1.0//EN" "http://www.w3.org/TR/2001/REC-SVG-20010904/DTD/svg10.dtd">
<svg version="1.0" id="Layer_1" xmlns="http://www.w3.org/2000/svg" xmlns:xlink="http://www.w3.org/1999/xlink" x="0px" y="0px"
	 width="134.013px" height="141.497px" viewBox="0 0 134.013 141.497" enable-background="new 0 0 134.013 141.497"
	 xml:space="preserve">
<g>
	<path fill="#434343" d="M81.817,65.108l-2.573-2.572c-0.323-0.323-0.847-0.323-1.17,0v1.557h-5.058v-9.5
		c0-0.828-0.432-1.5-0.958-1.5c-0.529,0-0.958,0.672-0.958,1.5v21c0,0.828,0.429,1.5,0.958,1.5c0.526,0,0.958-0.672,0.958-1.5v-8.5
		h5.058v1.758c0.323,0.322,0.847,0.322,1.17,0l2.573-2.572C82.138,65.954,82.138,65.43,81.817,65.108z"/>
	<path fill="#434343" d="M68.058,53.092c-0.529,0-0.958,0.672-0.958,1.5v9.636l-5.059-0.009v-1.852c-0.323-0.322-0.847-0.322-1.17,0
		l-2.573,2.571c-0.321,0.324-0.321,0.849,0,1.17l2.573,2.574c0.323,0.322,0.847,0.322,1.17,0v-1.735l5.059-0.009v8.652
		c0,0.828,0.429,1.5,0.958,1.5c0.526,0,0.958-0.672,0.958-1.5v-21C69.016,53.764,68.585,53.092,68.058,53.092z"/>
</g>
</svg>
