<?xml version="1.0" encoding="utf-8"?>
<!-- Generator: Adobe Illustrator 15.0.0, SVG Export Plug-In . SVG Version: 6.00 Build 0)  -->
<!DOCTYPE svg PUBLIC "-//W3C//DTD SVG 1.0//EN" "http://www.w3.org/TR/2001/REC-SVG-20010904/DTD/svg10.dtd">
<svg version="1.0" id="Layer_1" xmlns="http://www.w3.org/2000/svg" xmlns:xlink="http://www.w3.org/1999/xlink" x="0px" y="0px"
	 width="134.013px" height="141.497px" viewBox="0 0 134.013 141.497" enable-background="new 0 0 134.013 141.497"
	 xml:space="preserve">
<path fill="#434343" d="M80.686,57.337l-4.133-4.133c-0.389-0.389-1.021-0.385-1.414,0.008l-0.016,2.941H62.07c-1.104,0-2,0.896-2,2
	V71.07l-2.863,0.018c-0.39,0.389-0.386,1.021,0.007,1.414l4.177,4.176c0.393,0.393,1.025,0.396,1.414,0.008l4.132-4.133
	c0.389-0.389,0.386-1.131-0.007-1.523l-2.983,0.018v-9.143c0-1.104,0.896-2,2-2h9.158l-0.016,3.031
	c0.389,0.389,1.021,0.385,1.414-0.008l4.176-4.176C81.071,58.359,81.075,57.727,80.686,57.337z"/>
</svg>
