<?xml version="1.0" encoding="utf-8"?>
<!-- Generator: Adobe Illustrator 15.0.0, SVG Export Plug-In . SVG Version: 6.00 Build 0)  -->
<!DOCTYPE svg PUBLIC "-//W3C//DTD SVG 1.0//EN" "http://www.w3.org/TR/2001/REC-SVG-20010904/DTD/svg10.dtd">
<svg version="1.0" id="Layer_1" xmlns="http://www.w3.org/2000/svg" xmlns:xlink="http://www.w3.org/1999/xlink" x="0px" y="0px"
	 width="134.013px" height="141.497px" viewBox="0 0 134.013 141.497" enable-background="new 0 0 134.013 141.497"
	 xml:space="preserve">
<g>
	<path fill="#434343" d="M58.338,71.338c0.828,0,1.378-0.551,1.378-1.379l-0.003-3.436c0,0-0.205-1.232,1.439-1.232l15.661,0.046
		v1.759c0.323,0.322,0.848,0.322,1.17,0l2.573-2.572c0.322-0.323,0.322-0.848,0-1.17l-2.573-2.725c-0.322-0.322-0.847-0.322-1.17,0
		v1.845c-0.161-0.047-15.452-0.074-15.452-0.074c-3.712,0-4.523,2.43-4.523,3.407v4.031C56.838,70.666,57.51,71.338,58.338,71.338z"
		/>
	<path fill="#434343" d="M79.299,69.291c-0.828,0-1.5,0.672-1.5,1.5l0.003,3.957c-0.046,0.356-0.646,0.59-1.526,0.59H60.737v-1.559
		c-0.323-0.322-0.848-0.322-1.171,0l-2.572,2.571c-0.322,0.324-0.322,0.849,0,1.17l2.572,2.572c0.323,0.324,0.848,0.324,1.171,0
		v-1.851h15.539c3.711,0,4.523-2.442,4.523-3.421V70.79C80.799,69.963,80.127,69.291,79.299,69.291z"/>
</g>
</svg>
