<?xml version="1.0" encoding="utf-8"?>
<!-- Generator: Adobe Illustrator 15.0.0, SVG Export Plug-In . SVG Version: 6.00 Build 0)  -->
<!DOCTYPE svg PUBLIC "-//W3C//DTD SVG 1.0//EN" "http://www.w3.org/TR/2001/REC-SVG-20010904/DTD/svg10.dtd">
<svg version="1.0" id="Layer_1" xmlns="http://www.w3.org/2000/svg" xmlns:xlink="http://www.w3.org/1999/xlink" x="0px" y="0px"
	 width="134.013px" height="141.497px" viewBox="0 0 134.013 141.497" enable-background="new 0 0 134.013 141.497"
	 xml:space="preserve">
<path fill="#434343" d="M81.985,64.779c-0.322-0.323-0.847-0.323-1.17,0v1.683h-5.046c-0.518-0.109-3.053-0.963-3.053-4.715
	c0-3.686,2.409-4.404,3.021-4.504h5.077v1.852c0.323,0.322,0.848,0.322,1.17,0l2.573-2.572c0.322-0.323,0.322-0.848,0-1.17
	l-2.573-2.572c-0.322-0.323-0.847-0.323-1.17,0v1.557h-5.18l-0.162,0.009c-1.798,0.195-5.037,1.722-5.632,5.991h-7.541
	c-0.828,0-1.5,0.672-1.5,1.5s0.672,1.5,1.5,1.5h7.566c0.653,4.124,3.795,5.722,5.548,5.983l5.4,0.015v1.76
	c0.323,0.322,0.848,0.322,1.17,0l2.573-2.572c0.322-0.323,0.322-0.848,0-1.17L81.985,64.779z"/>
</svg>
