<?xml version="1.0" encoding="utf-8"?>
<!-- Generator: Adobe Illustrator 15.0.0, SVG Export Plug-In . SVG Version: 6.00 Build 0)  -->
<!DOCTYPE svg PUBLIC "-//W3C//DTD SVG 1.0//EN" "http://www.w3.org/TR/2001/REC-SVG-20010904/DTD/svg10.dtd">
<svg version="1.0" id="Layer_1" xmlns="http://www.w3.org/2000/svg" xmlns:xlink="http://www.w3.org/1999/xlink" x="0px" y="0px"
	 width="134.013px" height="141.497px" viewBox="0 0 134.013 141.497" enable-background="new 0 0 134.013 141.497"
	 xml:space="preserve">
<path fill="#434343" d="M60.799,75.295c0,6.604,5.345,11.958,11.938,11.958c6.594,0,11.938-5.354,11.938-11.958
	S79.33,63.337,72.737,63.337C66.145,63.337,60.799,68.69,60.799,75.295z M66.672,79.414c0-3.793,2.713-6.397,6.639-6.397
	c0.037,0,0.309,0.001,0.382,0.001v-2.45c0.322-0.32,0.698-0.269,1.019,0.055l3.889,3.635c0.319,0.32,0.319,0.842,0,1.163
	l-3.889,3.636c-0.279,0.23-0.695,0.269-1.019-0.053v-2.398c-0.061,0-0.319-0.002-0.353-0.002c-2.727,0-4.619,1.017-5.809,3.191
	C67.28,80.254,66.672,80.733,66.672,79.414z"/>
</svg>
