<?xml version="1.0" encoding="utf-8"?>
<!-- Generator: Adobe Illustrator 15.0.0, SVG Export Plug-In . SVG Version: 6.00 Build 0)  -->
<!DOCTYPE svg PUBLIC "-//W3C//DTD SVG 1.0//EN" "http://www.w3.org/TR/2001/REC-SVG-20010904/DTD/svg10.dtd">
<svg version="1.0" id="Layer_1" xmlns="http://www.w3.org/2000/svg" xmlns:xlink="http://www.w3.org/1999/xlink" x="0px" y="0px"
	 width="134.013px" height="141.497px" viewBox="0 0 134.013 141.497" enable-background="new 0 0 134.013 141.497"
	 xml:space="preserve">
<g>
	<path fill="#434343" d="M69.741,67.399v-2.055h-3.896v2.055h-3.58c-0.549,0.539-0.549,1.334,0,1.872l4.56,4.568
		c0.549,0.538,1.441,0.538,1.99,0.001l4.559-4.569c0.549-0.538,0.549-1.333,0-1.872H69.741z"/>
	<path fill="#434343" d="M65.829,58.268v1.977h3.912v-1.977h3.595c0.545-0.538,0.545-1.411,0-1.95l-4.527-4.568
		c-0.544-0.538-1.433-0.538-1.979,0l-4.623,4.568c-0.545,0.539-0.545,1.412,0,1.95H65.829z"/>
	<rect x="55.862" y="61.364" fill="#434343" width="23.876" height="2.875"/>
</g>
</svg>
