<?xml version="1.0" encoding="utf-8"?>
<!-- Generator: Adobe Illustrator 15.0.0, SVG Export Plug-In . SVG Version: 6.00 Build 0)  -->
<!DOCTYPE svg PUBLIC "-//W3C//DTD SVG 1.0//EN" "http://www.w3.org/TR/2001/REC-SVG-20010904/DTD/svg10.dtd">
<svg version="1.0" id="Layer_1" xmlns="http://www.w3.org/2000/svg" xmlns:xlink="http://www.w3.org/1999/xlink" x="0px" y="0px"
	 width="134.013px" height="141.497px" viewBox="0 0 134.013 141.497" enable-background="new 0 0 134.013 141.497"
	 xml:space="preserve">
<g>
	<path fill="#434343" d="M55.562,56.611c0.323,0.315,0.848,0.315,1.171,0v-1.724h18.641c0.828,0,1.5-0.66,1.5-1.473
		c0-0.812-0.672-1.472-1.5-1.472H56.732v-1.799c-0.323-0.317-0.848-0.317-1.171,0l-2.479,2.708c-0.322,0.316-0.322,0.828,0,1.146
		L55.562,56.611z"/>
	<path fill="#434343" d="M76.632,61.725l-2.573-2.538c-0.322-0.32-0.847-0.32-1.17,0v1.731H54.457c-0.828,0-1.5,0.663-1.5,1.48
		s0.672,1.48,1.5,1.48h18.432v1.732c0.323,0.318,0.848,0.318,1.17,0l2.573-2.538C76.954,62.756,76.954,62.043,76.632,61.725z"/>
</g>
</svg>
