<?xml version="1.0" encoding="utf-8"?>
<!-- Generator: Adobe Illustrator 15.0.0, SVG Export Plug-In . SVG Version: 6.00 Build 0)  -->
<!DOCTYPE svg PUBLIC "-//W3C//DTD SVG 1.0//EN" "http://www.w3.org/TR/2001/REC-SVG-20010904/DTD/svg10.dtd">
<svg version="1.0" id="Layer_1" xmlns="http://www.w3.org/2000/svg" xmlns:xlink="http://www.w3.org/1999/xlink" x="0px" y="0px"
	 width="134.013px" height="141.497px" viewBox="0 0 134.013 141.497" enable-background="new 0 0 134.013 141.497"
	 xml:space="preserve">
<g>
	<g>
		<path fill="#434343" d="M56.853,54.942c0.3,0,0.605,0.066,0.893,0.211l9.105,4.553l9.105-4.553
			c0.99-0.495,2.188-0.093,2.684,0.895c0.494,0.988,0.094,2.189-0.896,2.685l-10,5c-0.562,0.281-1.227,0.281-1.788,0l-10-5
			c-0.988-0.494-1.39-1.695-0.896-2.685C55.413,55.347,56.119,54.942,56.853,54.942z"/>
	</g>
	<g>
		<path fill="#434343" d="M56.852,49.942c0.15,0,0.303,0.034,0.446,0.105l9.553,4.775l9.553-4.775
			c0.494-0.246,1.096-0.048,1.343,0.446c0.246,0.494,0.047,1.095-0.447,1.343l-10,5c-0.281,0.141-0.613,0.141-0.896,0l-10-5
			c-0.494-0.248-0.693-0.849-0.446-1.343C56.132,50.145,56.485,49.942,56.852,49.942z"/>
	</g>
</g>
</svg>
