<?xml version="1.0" encoding="utf-8"?>
<!-- Generator: Adobe Illustrator 15.0.0, SVG Export Plug-In . SVG Version: 6.00 Build 0)  -->
<!DOCTYPE svg PUBLIC "-//W3C//DTD SVG 1.0//EN" "http://www.w3.org/TR/2001/REC-SVG-20010904/DTD/svg10.dtd">
<svg version="1.0" id="Layer_1" xmlns="http://www.w3.org/2000/svg" xmlns:xlink="http://www.w3.org/1999/xlink" x="0px" y="0px"
	 width="134.013px" height="141.497px" viewBox="0 0 134.013 141.497" enable-background="new 0 0 134.013 141.497"
	 xml:space="preserve">
<g>
	<path fill="#434343" d="M57.784,57.804c-0.539-0.549-1.412-0.549-1.951,0l-4.568,4.562c-0.537,0.547-0.537,1.44,0,1.989
		l4.568,4.558c0.539,0.549,1.412,0.549,1.951,0v-3.633h1.977v-3.896h-1.977V57.804z"/>
	<path fill="#434343" d="M73.356,62.368l-4.567-4.525c-0.539-0.545-1.412-0.545-1.951,0v3.523H64.86v3.912h1.978v3.596
		c0.539,0.545,1.412,0.545,1.951,0l4.567-4.527C73.893,63.802,73.893,62.913,73.356,62.368z"/>
	<rect x="60.834" y="51.337" fill="#434343" width="2.906" height="23.875"/>
</g>
</svg>
