<?xml version="1.0" encoding="utf-8"?>
<!-- Generator: Adobe Illustrator 15.0.0, SVG Export Plug-In . SVG Version: 6.00 Build 0)  -->
<!DOCTYPE svg PUBLIC "-//W3C//DTD SVG 1.0//EN" "http://www.w3.org/TR/2001/REC-SVG-20010904/DTD/svg10.dtd">
<svg version="1.0" id="Layer_1" xmlns="http://www.w3.org/2000/svg" xmlns:xlink="http://www.w3.org/1999/xlink" x="0px" y="0px"
	 width="134.013px" height="141.497px" viewBox="0 0 134.013 141.497" enable-background="new 0 0 134.013 141.497"
	 xml:space="preserve">
<g>
	<path fill="#434343" d="M72.06,57.355c0.339-0.34,0.338-0.89,0-1.228l-3.574-4.504c-0.339-0.338-0.889-0.339-1.227,0l-3.574,4.504
		c-0.339,0.338-0.339,0.888,0,1.228H66.4v17.969h2.904V57.355H72.06z"/>
	<path fill="#434343" d="M77.593,59.455l-4.479,0.523c-0.376,0-0.682,0.311-0.682,0.692l1.212,1.232l-2.212,2.262v11.206h2.934
		v-9.963l1.356-1.387l1.355,1.38c0.375,0.001,0.68-0.312,0.681-0.692l0.515-4.562C78.273,59.764,77.968,59.453,77.593,59.455z"/>
	<path fill="#434343" d="M63.344,65.646c0-0.383-0.311-0.691-0.692-0.692l-4.561-0.523c-0.383,0-0.693,0.311-0.693,0.691
		l0.524,4.561c0,0.385,0.311,0.693,0.692,0.693l1.325-1.324l1.465,1.499v4.796h2.93v-6.038l-2.299-2.354L63.344,65.646z"/>
</g>
</svg>
