<?xml version="1.0" encoding="utf-8"?>
<!-- Generator: Adobe Illustrator 15.0.0, SVG Export Plug-In . SVG Version: 6.00 Build 0)  -->
<!DOCTYPE svg PUBLIC "-//W3C//DTD SVG 1.0//EN" "http://www.w3.org/TR/2001/REC-SVG-20010904/DTD/svg10.dtd">
<svg version="1.0" id="Layer_1" xmlns="http://www.w3.org/2000/svg" xmlns:xlink="http://www.w3.org/1999/xlink" x="0px" y="0px"
	 width="134.013px" height="141.497px" viewBox="0 0 134.013 141.497" enable-background="new 0 0 134.013 141.497"
	 xml:space="preserve">
<g>
	<rect x="54.234" y="65.893" fill="#434343" width="3.969" height="2.916"/>
	<path fill="#434343" d="M73.729,65.986H63.265v2.791h10.537c0.818,0,1.483,0.66,1.483,1.47v5.229c0,0.81-0.665,1.47-1.483,1.47
		H63.645c-0.818,0-1.483-0.66-1.483-1.47V61.821h3.582c0.589-0.589,0.589-0.957,0-1.546L61.769,56.3
		c-0.59-0.589-1.542-0.589-2.133,0l-3.975,3.975c-0.588,0.589-0.588,0.958,0,1.546h3.582v13.587c0,2.456,2.007,4.454,4.473,4.454
		H73.73c2.467,0,4.474-1.998,4.474-4.454V70.44C78.203,67.984,76.196,65.986,73.729,65.986z"/>
</g>
</svg>
