<?xml version="1.0" encoding="utf-8"?>
<!-- Generator: Adobe Illustrator 15.0.0, SVG Export Plug-In . SVG Version: 6.00 Build 0)  -->
<!DOCTYPE svg PUBLIC "-//W3C//DTD SVG 1.0//EN" "http://www.w3.org/TR/2001/REC-SVG-20010904/DTD/svg10.dtd">
<svg version="1.0" id="Layer_1" xmlns="http://www.w3.org/2000/svg" xmlns:xlink="http://www.w3.org/1999/xlink" x="0px" y="0px"
	 width="134.014px" height="141.497px" viewBox="0 0 134.014 141.497" enable-background="new 0 0 134.014 141.497"
	 xml:space="preserve">
<path fill="#434343" d="M61.397,67.803h2.139c-0.034-5.996,4.653-10.939,10.524-11.051c5.922-0.111,10.831,4.732,10.944,10.797
	c0.113,6.065-4.61,11.088-10.532,11.199l-0.038-2c4.848-0.092,8.711-4.201,8.617-9.162c-0.093-4.963-4.106-8.924-8.953-8.834
	c-4.809,0.09-8.518,4.139-8.48,9.051h2.132c0.324,0.324,0.324,0.854,0,1.178l-2.587,2.588c-0.325,0.322-0.854,0.322-1.176,0
	l-2.59-2.588C61.072,68.655,61.072,68.127,61.397,67.803z"/>
</svg>
