<?xml version="1.0" encoding="utf-8"?>
<!-- Generator: Adobe Illustrator 15.0.0, SVG Export Plug-In . SVG Version: 6.00 Build 0)  -->
<!DOCTYPE svg PUBLIC "-//W3C//DTD SVG 1.0//EN" "http://www.w3.org/TR/2001/REC-SVG-20010904/DTD/svg10.dtd">
<svg version="1.0" id="Layer_1" xmlns="http://www.w3.org/2000/svg" xmlns:xlink="http://www.w3.org/1999/xlink" x="0px" y="0px"
	 width="134.013px" height="141.497px" viewBox="0 0 134.013 141.497" enable-background="new 0 0 134.013 141.497"
	 xml:space="preserve">
<g>
	<ellipse fill="#434343" cx="67.279" cy="53.775" rx="3.354" ry="3.439"/>
	<path fill="#434343" d="M70.451,65.329c0.504,0.502,0.501,1.32-0.006,1.828l-1.726,1.715c-0.506,0.506-2.324,0.508-2.827,0.005
		l-1.682-1.688c-0.503-0.504-0.501-1.322,0.005-1.83L70.451,65.329z"/>
	<path fill="#434343" d="M73.689,62.231l-3.114-4.209c-0.063-0.098-0.147-0.161-0.239-0.209c-0.396-0.311-0.876-0.498-1.399-0.498
		H65.66c-0.531,0-1.022,0.197-1.42,0.52c-0.032,0.02-3.306,4.378-3.306,4.378c-0.191,0.299-0.128,0.714,0.143,0.928
		c0.136,0.105,0.299,0.142,0.448,0.113c0.153-0.029,0.293-0.121,0.389-0.271l1.95-1.646v1.545c0,1.486,0.088,1.361,1.429,1.361
		h4.582c1.155,0,0.885,0.125,0.885-1.361V61.38l1.949,1.623c0.097,0.15,0.239,0.243,0.391,0.271c0.15,0.026,0.312-0.007,0.447-0.113
		C73.818,62.946,73.88,62.531,73.689,62.231z"/>
	<g>
		<path fill="#434343" d="M64.933,75.263c-0.28,0-0.85-0.197-1.017-0.469l-2.052-3.605c-0.235-0.381,1.479-3.52,1.479-3.52l1.873,2
			c0,0-0.922,1.024-0.952,1.312c-0.03,0.287,1.388,2.799,1.388,2.799c0.271,0.434,0.166,1.024-0.232,1.317
			C65.271,75.21,65.1,75.263,64.933,75.263z"/>
	</g>
	<g>
		<path fill="#434343" d="M69.712,75.263c0.28,0,0.85-0.197,1.017-0.469l2.052-3.605c0.235-0.381-1.479-3.52-1.479-3.52l-1.873,2
			c0,0,0.922,1.024,0.952,1.312c0.03,0.287-1.388,2.799-1.388,2.799c-0.271,0.434-0.166,1.024,0.232,1.317
			C69.375,75.21,69.545,75.263,69.712,75.263z"/>
	</g>
</g>
</svg>
