<?xml version="1.0" encoding="utf-8"?>
<!-- Generator: Adobe Illustrator 15.0.0, SVG Export Plug-In . SVG Version: 6.00 Build 0)  -->
<!DOCTYPE svg PUBLIC "-//W3C//DTD SVG 1.0//EN" "http://www.w3.org/TR/2001/REC-SVG-20010904/DTD/svg10.dtd">
<svg version="1.0" id="Layer_1" xmlns="http://www.w3.org/2000/svg" xmlns:xlink="http://www.w3.org/1999/xlink" x="0px" y="0px"
	 width="134.013px" height="141.497px" viewBox="0 0 134.013 141.497" enable-background="new 0 0 134.013 141.497"
	 xml:space="preserve">
<g>
	<path fill="#434343" d="M57.261,53.838l7.469-6.984c0.616-0.617,1.338-0.719,1.956-0.103v4.709
		c0.145-0.001,0.271-0.002,0.344-0.002c7.543,0,13.654,5.905,13.654,13.192c0,2.538-1.165,1.614-1.649,0.728
		c-2.287-4.18-6.824-7.031-12.062-7.031c-0.062,0-0.168,0.001-0.286,0.002v4.608c-0.618,0.617-1.416,0.544-1.956,0.103l-7.469-6.986
		C56.645,55.456,56.645,54.456,57.261,53.838z"/>
</g>
</svg>
