<?xml version="1.0" encoding="utf-8"?>
<!-- Generator: Adobe Illustrator 15.0.0, SVG Export Plug-In . SVG Version: 6.00 Build 0)  -->
<!DOCTYPE svg PUBLIC "-//W3C//DTD SVG 1.0//EN" "http://www.w3.org/TR/2001/REC-SVG-20010904/DTD/svg10.dtd">
<svg version="1.0" id="Layer_1" xmlns="http://www.w3.org/2000/svg" xmlns:xlink="http://www.w3.org/1999/xlink" x="0px" y="0px"
	 width="220px" height="227px" viewBox="0 0 220 227" enable-background="new 0 0 220 227" xml:space="preserve">
<g>
	<path fill="#434343" d="M121.456,122.798h-18.104v-11.332h7.04c0.147-0.436,1.204-1.373,2.397-1.773h-11.333v14.917h21.916v-8.568
		l-1.916,1.734V122.798z"/>
	<path fill="#434343" d="M125.104,110.858l-5.383-4.864c-0.4-0.432-0.858-0.502-1.263-0.072c0,0,0.054,3.278,0.007,3.278
		c-0.983,0-1.852,0.17-2.744,0.472c-1.194,0.404-2.28,1.057-3.203,1.896c-1.851,1.682-3.034,4.111-3.034,6.821
		c0,1.77,0.76,1.125,1.077,0.508c1.5-2.912,4.519-4.896,7.939-4.896c0.043,0-0.003,3.211-0.003,3.211
		c0.404,0.43,0.911,0.379,1.261,0.07l5.346-4.865C125.508,111.984,125.508,111.288,125.104,110.858z"/>
</g>
</svg>
