<?xml version="1.0" encoding="utf-8"?>
<!-- Generator: Adobe Illustrator 15.0.0, SVG Export Plug-In . SVG Version: 6.00 Build 0)  -->
<!DOCTYPE svg PUBLIC "-//W3C//DTD SVG 1.0//EN" "http://www.w3.org/TR/2001/REC-SVG-20010904/DTD/svg10.dtd">
<svg version="1.0" id="Layer_1" xmlns="http://www.w3.org/2000/svg" xmlns:xlink="http://www.w3.org/1999/xlink" x="0px" y="0px"
	 width="220px" height="227px" viewBox="0 0 220 227" enable-background="new 0 0 220 227" xml:space="preserve">
<g>
	<polygon fill="#434343" points="128.673,121.943 126.695,121.943 126.695,119.966 124.812,119.966 124.812,121.943 
		122.833,121.943 122.833,123.871 124.812,123.871 124.812,125.85 126.695,125.85 126.695,123.871 128.673,123.871 	"/>
	<rect x="122.865" y="124.943" fill="#434343" width="0.895" height="0.905"/>
	<path fill="#434343" d="M123.759,118.846h2.879v-12.008c0-0.481-0.43-0.871-0.959-0.871h-2.875v14.883h0.955V118.846
		L123.759,118.846z"/>
	<path fill="#434343" d="M117.869,101.975c-0.531,0-1.426,0.23-1.68,0.351c0.854,0.338,1.467,1.184,1.467,1.184
		c0.104-0.018,0.104-0.01,0.213-0.01c1.34,0,2.426,1.119,2.426,2.5h-4.309c-0.062-0.826-0.326-1.588-0.756-2.224
		c-0.335-0.489-0.762-0.903-1.254-1.211c-0.6-0.373-1.294-0.59-2.035-0.59c-2.14,0-3.873,1.773-4.042,4.023h-2.147
		c-0.517,0-0.936,0.389-0.936,0.869v18.112c0,0.48,0.419,0.869,0.936,0.869h16.009v-19.764c0.002-0.031,0.008-0.06,0.008-0.088
		C121.769,103.776,120.023,101.975,117.869,101.975z M109.532,105.999c0.162-1.336,1.205-2.369,2.482-2.369
		c0.273,0,0.531,0.061,0.777,0.146c0.504,0.181,0.938,0.519,1.242,0.972c0.244,0.36,0.408,0.789,0.467,1.252L109.532,105.999
		L109.532,105.999z"/>
</g>
</svg>
