<?xml version="1.0" encoding="utf-8"?>
<!-- Generator: Adobe Illustrator 15.0.0, SVG Export Plug-In . SVG Version: 6.00 Build 0)  -->
<!DOCTYPE svg PUBLIC "-//W3C//DTD SVG 1.0//EN" "http://www.w3.org/TR/2001/REC-SVG-20010904/DTD/svg10.dtd">
<svg version="1.0" id="Layer_1" xmlns="http://www.w3.org/2000/svg" xmlns:xlink="http://www.w3.org/1999/xlink" x="0px" y="0px"
	 width="220px" height="227px" viewBox="0 0 220 227" enable-background="new 0 0 220 227" xml:space="preserve">
<path fill="#434343" d="M115.75,113.105h-1.284v-1.519c0-0.844-0.667-1.528-1.487-1.528H108c-0.82,0-1.487,0.686-1.487,1.528v1.519
	h-1.248c-5.507,0-6.724,17.319-6.724,17.319c0,0.869,0.77,1.576,1.717,1.576h20.5c0.946,0,1.717-0.707,1.717-1.576
	C122.473,130.424,121.154,113.105,115.75,113.105z M107.499,125.062v-3.062h6.062v3.062H107.499z M113.559,126v3.188h-6.061V126
	H113.559z M107.551,114.896c0.143,0.047,0.291,0.08,0.449,0.08h4.979c0.158,0,0.308-0.033,0.449-0.08h0.133v2.166h-6.062v-2.166
	H107.551z M113.559,118v3.062h-6.061V118H113.559z M119.023,121.062H114.5v-3.062h3.488
	C118.4,118.932,118.741,119.988,119.023,121.062z M106.559,121.062h-4.6c0.278-1.072,0.617-2.131,1.03-3.062h3.569L106.559,121.062
	L106.559,121.062z M106.559,122v3.062h-5.399c0.139-0.922,0.324-1.98,0.57-3.062H106.559z M114.499,122h4.756
	c0.249,1.082,0.44,2.141,0.584,3.062h-5.34V122L114.499,122z M117.52,117.062h-3.021v-2.166h0.257
	C115.885,114.896,116.792,115.771,117.52,117.062z M107.482,111.533c0-0.312,0.222-0.568,0.494-0.568h5.074
	c0.272,0,0.494,0.256,0.494,0.568v1.571h-6.062V111.533L107.482,111.533z M106.259,114.896h0.301v2.166h-3.1
	C104.192,115.771,105.109,114.896,106.259,114.896z M100.811,127.994c0,0,0.061-0.797,0.217-1.992h5.532v3.188h-4.358
	C101.433,129.188,100.811,128.65,100.811,127.994z M118.814,129.188H114.5V126h5.477c0.164,1.197,0.229,1.992,0.229,1.992
	C120.203,128.65,119.579,129.188,118.814,129.188z"/>
</svg>
