<?xml version="1.0" encoding="utf-8"?>
<!-- Generator: Adobe Illustrator 15.0.0, SVG Export Plug-In . SVG Version: 6.00 Build 0)  -->
<!DOCTYPE svg PUBLIC "-//W3C//DTD SVG 1.0//EN" "http://www.w3.org/TR/2001/REC-SVG-20010904/DTD/svg10.dtd">
<svg version="1.0" id="Layer_1" xmlns="http://www.w3.org/2000/svg" xmlns:xlink="http://www.w3.org/1999/xlink" x="0px" y="0px"
	 width="220px" height="227px" viewBox="0 0 220 227" enable-background="new 0 0 220 227" xml:space="preserve">
<g>
	<path fill="#434343" d="M111.042,99.683c0-0.601,0.481-1.09,1.069-1.09h3.834c0.588,0,1.18,0.489,1.18,1.09v0.944h1.917v-1.459
		c0-1.379-1.103-2.502-2.454-2.502h-5.119c-1.353,0-2.358,1.123-2.358,2.502v1.459h1.934L111.042,99.683L111.042,99.683z"/>
	<polygon fill="#434343" points="116.166,105.534 116.166,107.601 126.086,107.601 126.086,101.758 102.185,101.758 
		102.185,107.601 111.961,107.601 111.961,105.534 	"/>
	<polygon fill="#434343" points="111.961,110.758 111.961,108.727 102.185,108.727 102.185,119.666 126.086,119.666 
		126.086,108.727 116.166,108.727 116.166,110.758 	"/>
	<rect x="113.167" y="106.667" fill="#434343" width="1.875" height="2.938"/>
</g>
</svg>
