<?xml version="1.0" encoding="utf-8"?>
<!-- Generator: Adobe Illustrator 15.0.0, SVG Export Plug-In . SVG Version: 6.00 Build 0)  -->
<!DOCTYPE svg PUBLIC "-//W3C//DTD SVG 1.0//EN" "http://www.w3.org/TR/2001/REC-SVG-20010904/DTD/svg10.dtd">
<svg version="1.0" id="Layer_1" xmlns="http://www.w3.org/2000/svg" xmlns:xlink="http://www.w3.org/1999/xlink" x="0px" y="0px"
	 width="220px" height="227px" viewBox="0 0 220 227" enable-background="new 0 0 220 227" xml:space="preserve">
<g>
	<path fill="#434343" d="M125.331,98.863h-2.78v19.956h2.78c0.513,0,0.929-0.392,0.929-0.873V99.737
		C126.258,99.255,125.842,98.863,125.331,98.863z"/>
	<path fill="#434343" d="M117.459,94.82c-0.529,0-1.416,0.231-1.668,0.352c0.848,0.34,1.456,1.188,1.456,1.188
		c0.103-0.017,0.104-0.01,0.212-0.01c1.327,0,2.405,1.125,2.405,2.514h-3.274c-0.062-0.83-0.324-1.597-0.75-2.234
		c-0.332-0.493-0.756-0.908-1.244-1.217c-0.597-0.375-1.285-0.593-2.021-0.593c-2.123,0-3.845,1.783-4.013,4.044h-3.133
		c-0.512,0-0.928,0.391-0.928,0.874v18.209c0,0.48,0.416,0.873,0.928,0.873h15.893V98.952c0.001-0.03,0.008-0.058,0.008-0.088
		C121.328,96.631,119.596,94.82,117.459,94.82z M112.573,96.483c0.272,0,0.53,0.06,0.776,0.146c0.506,0.181,0.938,0.521,1.244,0.976
		c0.244,0.363,0.407,0.793,0.465,1.259h-4.968C110.253,97.522,111.296,96.483,112.573,96.483z"/>
</g>
</svg>
