<?xml version="1.0" encoding="utf-8"?>
<!-- Generator: Adobe Illustrator 15.0.0, SVG Export Plug-In . SVG Version: 6.00 Build 0)  -->
<!DOCTYPE svg PUBLIC "-//W3C//DTD SVG 1.0//EN" "http://www.w3.org/TR/2001/REC-SVG-20010904/DTD/svg10.dtd">
<svg version="1.0" id="Layer_1" xmlns="http://www.w3.org/2000/svg" xmlns:xlink="http://www.w3.org/1999/xlink" x="0px" y="0px"
	 width="220px" height="227px" viewBox="0 0 220 227" enable-background="new 0 0 220 227" xml:space="preserve">
<path fill="#434343" d="M116.602,115.895c-2.34,0-2.633-0.621-2.668-0.746c-0.146-0.525,0.734-1.653,1.426-2.267l-0.039-0.062
	c3.079-1.001,5.448-6.8,5.448-10.16c0-3.687-2.847-6.675-6.358-6.675c-3.511,0-6.358,2.988-6.358,6.675
	c0,3.523,2.603,9.729,5.899,10.272c-0.562,0.692-1.128,1.659-0.877,2.553c0.283,1.012,1.403,1.481,3.527,1.481
	c0.176,0,0.257,0.224,0.095,0.459c-0.473,0.687-1.737,1.485-3.749,1.485v1.074c3.109,0,4.829-1.752,4.829-2.963
	c0-0.35-0.129-0.654-0.364-0.859C117.207,115.986,116.934,115.895,116.602,115.895z M109.984,103.212
	c0,1.168-1.057,0.675-1.057-1.024c0-2.865,2.366-5.189,5.284-5.189c1.729,0,2.246,1.039,1.058,1.039
	C112.349,98.036,109.984,100.347,109.984,103.212z"/>
</svg>
