<?xml version="1.0" encoding="utf-8"?>
<!-- Generator: Adobe Illustrator 15.0.0, SVG Export Plug-In . SVG Version: 6.00 Build 0)  -->
<!DOCTYPE svg PUBLIC "-//W3C//DTD SVG 1.0//EN" "http://www.w3.org/TR/2001/REC-SVG-20010904/DTD/svg10.dtd">
<svg version="1.0" id="Layer_1" xmlns="http://www.w3.org/2000/svg" xmlns:xlink="http://www.w3.org/1999/xlink" x="0px" y="0px"
	 width="220px" height="227px" viewBox="0 0 220 227" enable-background="new 0 0 220 227" xml:space="preserve">
<g>
	<path fill="#434343" d="M125.473,95.043h-0.688h-21.195c-0.549,0-0.996,0.449-0.996,1.006v4.945c0,0.313,0.15,0.582,0.373,0.768
		c0.172,0.143,0.383,0.238,0.623,0.238h1.014c-0.002,0.016-0.01,0.027-0.01,0.043v15.959c0,0.529,0.43,0.957,0.959,0.957
		c0.529,0,0.957-0.428,0.957-0.957V113h16.083v5.002c0,0.529,0.43,0.957,0.959,0.957s0.957-0.428,0.957-0.957v-15.959
		c0-0.016-0.008-0.027-0.008-0.043h0.973c0.549,0,0.994-0.449,0.994-1.006v-4.945C126.467,95.492,126.021,95.043,125.473,95.043z
		 M118.367,95.877h2.529L118.342,101h-2.531L118.367,95.877z M111.367,95.877h2.529L111.342,101h-2.531L111.367,95.877z
		 M103.594,100.5c-0.098-0.16-0.168-0.338-0.168-0.539v-3.045c0-0.574,0.455-1.039,1.012-1.039h2.461L104.438,101
		C104.076,101,103.773,100.793,103.594,100.5z M106.508,112v-4h1.83l-1.787,4H106.508z M110.812,112l1.994-4h2.53l-1.994,4H110.812z
		 M117.812,112l1.994-4h2.53l-1.994,4H117.812z M122.592,102.043v5.125h-16.084v-5.125c0-0.014-0.008-0.027-0.008-0.043h16.102
		C122.6,102.015,122.592,102.029,122.592,102.043z M125.635,99.961c0,0.574-0.453,1.039-1.012,1.039h-1.812l2.438-4.883
		c0.229,0.19,0.387,0.471,0.387,0.799V99.961z"/>
</g>
</svg>
