<?xml version="1.0" encoding="utf-8"?>
<!-- Generator: Adobe Illustrator 15.0.0, SVG Export Plug-In . SVG Version: 6.00 Build 0)  -->
<!DOCTYPE svg PUBLIC "-//W3C//DTD SVG 1.0//EN" "http://www.w3.org/TR/2001/REC-SVG-20010904/DTD/svg10.dtd">
<svg version="1.0" id="Layer_1" xmlns="http://www.w3.org/2000/svg" xmlns:xlink="http://www.w3.org/1999/xlink" x="0px" y="0px"
	 width="220px" height="227px" viewBox="0 0 220 227" enable-background="new 0 0 220 227" xml:space="preserve">
<g>
	<path fill="#434343" d="M113.99,91.387c2.37,0.248,4.438,1.016,6.322,2.752l-5.663,5.774
		C112.878,97.916,112.889,94.951,113.99,91.387z M110.478,104.03l1.026-1.026l-7.774-7.784c-0.075,0.073-0.156,0.135-0.23,0.21
		c-2.313,2.317-2.875,4.744-2.896,7.781C104.68,101.884,108.163,101.903,110.478,104.03z M113.754,100.75
		c-2.043-2.231-2.119-5.521-0.964-9.418c-2.849-0.056-5.864,1.06-8.159,3.028l7.753,7.762L113.754,100.75z M115.578,100.542
		c2.028,1.757,5.161,1.78,8.77,0.584c-0.354-2.298-1.291-4.38-3.092-6.151L115.578,100.542z M110.887,115.141
		c1.424-3.874,1.467-7.273-0.431-9.435l-6.206,6.241C106.154,113.858,108.411,114.826,110.887,115.141z M109.623,104.868
		c-2.078-1.877-5.236-1.8-8.979-0.513c0.194,2.506,0.964,4.718,2.769,6.705L109.623,104.868z M114.57,101.561l-1.372,1.376
		l8.267,8.276c2.104-2.458,3.207-5.722,2.993-8.768C120.424,103.752,116.883,103.639,114.57,101.561z M111.291,104.846
		c2.156,2.408,2.203,6.156,0.723,10.38c3.235,0.146,5.914-0.403,8.385-2.876c0.076-0.074,0.139-0.155,0.21-0.233l-8.288-8.298
		L111.291,104.846z"/>
</g>
</svg>
