<?xml version="1.0" encoding="utf-8"?>
<!-- Generator: Adobe Illustrator 15.0.0, SVG Export Plug-In . SVG Version: 6.00 Build 0)  -->
<!DOCTYPE svg PUBLIC "-//W3C//DTD SVG 1.0//EN" "http://www.w3.org/TR/2001/REC-SVG-20010904/DTD/svg10.dtd">
<svg version="1.0" id="Layer_1" xmlns="http://www.w3.org/2000/svg" xmlns:xlink="http://www.w3.org/1999/xlink" x="0px" y="0px"
	 width="220px" height="227px" viewBox="0 0 220 227" enable-background="new 0 0 220 227" xml:space="preserve">
<g>
	<g>
		<path fill="#434343" d="M116.645,121.477c0.283,0,0.518-0.172,0.518-0.385v-2.447l-6.85,2.832H116.645z M117.553,101.741h-7.531
			c-0.937,0-1.691,0.763-1.691,1.703v18.497c0,0.939,0.756,1.703,1.691,1.703h7.531c0.938,0,1.691-0.764,1.691-1.703v-18.497
			C119.244,102.502,118.488,101.741,117.553,101.741z M118.32,121.82c0,0.523-0.418,0.949-0.934,0.949h-7.337
			c-0.514,0-0.932-0.426-0.932-0.949v-18.256c0-0.521,0.418-0.949,0.932-0.949h7.337c0.516,0,0.934,0.428,0.934,0.949V121.82z"/>
	</g>
	<rect x="112.307" y="99.677" fill="#434343" width="2.938" height="0.889"/>
</g>
</svg>
