<?xml version="1.0" encoding="utf-8"?>
<!-- Generator: Adobe Illustrator 15.0.0, SVG Export Plug-In . SVG Version: 6.00 Build 0)  -->
<!DOCTYPE svg PUBLIC "-//W3C//DTD SVG 1.0//EN" "http://www.w3.org/TR/2001/REC-SVG-20010904/DTD/svg10.dtd">
<svg version="1.0" id="Layer_1" xmlns="http://www.w3.org/2000/svg" xmlns:xlink="http://www.w3.org/1999/xlink" x="0px" y="0px"
	 width="220px" height="227px" viewBox="0 0 220 227" enable-background="new 0 0 220 227" xml:space="preserve">
<g>
	<path fill="#434343" d="M118.76,85.428h-7.535c-0.936,0-1.693,1.117-1.693,2.042v18.196c0,0.924,0.759,1.675,1.693,1.675h7.535
		c0.937,0,1.695-0.751,1.695-1.675V87.47C120.455,86.546,119.695,85.428,118.76,85.428z M119.664,105.544
		c0,0.516-0.418,0.937-0.935,0.937h-7.354c-0.516,0-0.935-0.421-0.935-0.937V87.593c0-0.514,0.419-1.302,0.935-1.302h7.354
		c0.517,0,0.935,0.787,0.935,1.302V105.544z M111.57,104.814c0,0.269,0.205,0.487,0.457,0.487h5.837c0.25,0,0.456-0.219,0.456-0.487
		v-9.996l-6.75,4.065V104.814z"/>
	<rect x="113.531" y="83.358" fill="#434343" width="2.922" height="0.984"/>
</g>
</svg>
