<?xml version="1.0" encoding="utf-8"?>
<!-- Generator: Adobe Illustrator 15.0.0, SVG Export Plug-In . SVG Version: 6.00 Build 0)  -->
<!DOCTYPE svg PUBLIC "-//W3C//DTD SVG 1.0//EN" "http://www.w3.org/TR/2001/REC-SVG-20010904/DTD/svg10.dtd">
<svg version="1.0" id="Layer_1" xmlns="http://www.w3.org/2000/svg" xmlns:xlink="http://www.w3.org/1999/xlink" x="0px" y="0px"
	 width="220px" height="227px" viewBox="0 0 220 227" enable-background="new 0 0 220 227" xml:space="preserve">
<g>
	<path fill="#434343" d="M114.318,102.024c0,0-0.635-2.025-1.711-2.025c-1.283,0-4.824,0-5.964,0c-1.139,0-1.743,2-1.743,2
		l-3.249,8.938h15.906L114.318,102.024z"/>
	<path fill="#434343" d="M101.623,112v0.938h7.036V122c-1.137,0-2.206,0-2.978,0c-1.983,0-1.983,1.814-1.983,1.814h11.769
		c0,0,0-1.814-1.984-1.814c-0.771,0-1.849,0-2.982,0v-9.062h2.136v3.91h0.955v-3.91h3.999V112H101.623z"/>
</g>
</svg>
