<?xml version="1.0" encoding="utf-8"?>
<!-- Generator: Adobe Illustrator 15.0.0, SVG Export Plug-In . SVG Version: 6.00 Build 0)  -->
<!DOCTYPE svg PUBLIC "-//W3C//DTD SVG 1.0//EN" "http://www.w3.org/TR/2001/REC-SVG-20010904/DTD/svg10.dtd">
<svg version="1.0" id="Layer_1" xmlns="http://www.w3.org/2000/svg" xmlns:xlink="http://www.w3.org/1999/xlink" x="0px" y="0px"
	 width="220px" height="227px" viewBox="0 0 220 227" enable-background="new 0 0 220 227" xml:space="preserve">
<g>
	<path fill="#434343" d="M119.297,103.126c0.021-0.108,0.034-0.221,0.034-0.335c0-1.007-0.823-1.821-1.841-1.821
		s-1.84,0.813-1.84,1.821c0,0.114,0.014,0.227,0.033,0.335c-3.937,1.472-6.888,4.378-6.888,11.78h17.39
		C126.188,107.502,123.232,104.598,119.297,103.126z"/>
	<polygon fill="#434343" points="127.506,120.781 107.478,120.781 108.801,117.029 126.182,117.029 	"/>
	<path fill="#434343" d="M117.444,124.938c1.627,0,2.944-1.314,2.944-2.938H114.5C114.501,123.623,115.818,124.938,117.444,124.938z
		"/>
</g>
</svg>
