<?xml version="1.0" encoding="utf-8"?>
<!-- Generator: Adobe Illustrator 15.0.0, SVG Export Plug-In . SVG Version: 6.00 Build 0)  -->
<!DOCTYPE svg PUBLIC "-//W3C//DTD SVG 1.0//EN" "http://www.w3.org/TR/2001/REC-SVG-20010904/DTD/svg10.dtd">
<svg version="1.0" id="Layer_1" xmlns="http://www.w3.org/2000/svg" xmlns:xlink="http://www.w3.org/1999/xlink" x="0px" y="0px"
	 width="220px" height="227px" viewBox="0 0 220 227" enable-background="new 0 0 220 227" xml:space="preserve">
<g>
	<path fill="#434343" d="M112.236,112.887c-1.098-1.752-4.018,0.307-6.858,0.3c-2.862-0.007-5.646-2.065-6.754-0.306
		c-0.262,0.418-0.045,0.568,0.162,0.611c2.54,0.536,4.678,2.852,5.771,6.04c0.229,0.668,1.501,0.719,1.724,0.062
		c1.084-3.211,3.024-5.324,5.767-6.099C112.344,113.414,112.498,113.305,112.236,112.887z"/>
	<path fill="#434343" d="M110.908,101.489c-0.738-2.198-2.349-5.386-5.498-5.386c-3.172,0-4.783,3.235-5.515,5.436
		c-0.827,0.867-1.402,3.131-1.402,4.532c0,2.767,4.162,2.271,5.44,0.847c0.496,0.121,1.014,0.187,1.538,0.187
		c0.488,0,0.964-0.058,1.425-0.158c1.307,1.402,5.414,1.874,5.414-0.874C112.312,104.639,111.751,102.315,110.908,101.489z
		 M104.306,105.973c-0.082-1.5-2.012-4.057-3.262-4.656c0.713-1.888,2.057-4.213,4.367-4.213c2.314,0,3.659,2.34,4.372,4.23
		c-1.271,0.633-3.226,3.186-3.283,4.666c-0.334,0.062-0.676,0.104-1.026,0.104C105.075,106.104,104.685,106.055,104.306,105.973z"/>
</g>
</svg>
