<?xml version="1.0" encoding="utf-8"?>
<!-- Generator: Adobe Illustrator 15.0.0, SVG Export Plug-In . SVG Version: 6.00 Build 0)  -->
<!DOCTYPE svg PUBLIC "-//W3C//DTD SVG 1.0//EN" "http://www.w3.org/TR/2001/REC-SVG-20010904/DTD/svg10.dtd">
<svg version="1.0" id="Layer_1" xmlns="http://www.w3.org/2000/svg" xmlns:xlink="http://www.w3.org/1999/xlink" x="0px" y="0px"
	 width="220px" height="227px" viewBox="0 0 220 227" enable-background="new 0 0 220 227" xml:space="preserve">
<g>
	<path fill="#434343" d="M125.5,118h-20c-1.104,0-2,0.896-2,2v14c0,1.104,0.896,2,2,2h20c1.104,0,2-0.896,2-2v-14
		C127.5,118.896,126.604,118,125.5,118z M126.5,133c0,1.104-0.896,2-2,2h-18c-1.104,0-2-0.896-2-2v-12c0-1.104,0.896-2,2-2h18
		c1.104,0,2,0.896,2,2V133z"/>
	<path fill="#434343" d="M123.5,120h-16c-1.104,0-2,0.896-2,2v10c0,1.104,0.896,2,2,2h16c1.104,0,2-0.896,2-2v-10
		C125.5,120.896,124.604,120,123.5,120z M110.5,130h-1v-5h-1v-1h1h1V130z M114.5,128h-1v1h-1v-1h-1v-1h1v-1h1v1h1V128z M117.5,130
		h-1v-5h-1v-1h1h1V130z M122.5,129h-3v-1h3V129z M122.5,127h-3v-1h3V127z"/>
</g>
</svg>
