<?xml version="1.0" encoding="utf-8"?>
<!-- Generator: Adobe Illustrator 15.0.0, SVG Export Plug-In . SVG Version: 6.00 Build 0)  -->
<!DOCTYPE svg PUBLIC "-//W3C//DTD SVG 1.0//EN" "http://www.w3.org/TR/2001/REC-SVG-20010904/DTD/svg10.dtd">
<svg version="1.0" id="Layer_1" xmlns="http://www.w3.org/2000/svg" xmlns:xlink="http://www.w3.org/1999/xlink" x="0px" y="0px"
	 width="220px" height="227px" viewBox="0 0 220 227" enable-background="new 0 0 220 227" xml:space="preserve">
<g>
	<path fill="#434343" d="M109.42,96.067h-4.812c-2.244,0-4.062,0.661-4.062,2.731v9.438c0,2.069,1.818,3.748,4.062,3.748h4.812
		c2.243,0,4.062-1.679,4.062-3.748v-9.438C113.48,96.728,111.663,96.067,109.42,96.067z M112.653,107.826
		c0,1.854-1.558,3.356-3.479,3.356h-4.262c-1.921,0-3.478-1.503-3.478-3.356v-8.448c0-1.854,1.557-2.445,3.478-2.445h4.262
		c1.921,0,3.479,0.593,3.479,2.445V107.826z"/>
	<rect x="105.565" y="111.016" fill="#434343" width="2.958" height="1.917"/>
	<rect x="106.566" y="112.933" fill="#434343" width="0.957" height="7"/>
	<rect x="105.565" y="116.016" fill="#434343" width="2.833" height="2"/>
	<rect x="101.356" y="99.067" fill="#434343" width="4.12" height="0.901"/>
	<rect x="101.356" y="102.067" fill="#434343" width="4.136" height="0.901"/>
	<path fill="#434343" d="M102.546,104.041v0.911h3.022v1.125h-3.022v1.074c0,1.549,1.211,2.807,2.702,2.807h3.541
		c1.492,0,2.704-1.258,2.704-2.807v-3.11H102.546L102.546,104.041z"/>
	<rect x="101.356" y="105.016" fill="#434343" width="1.144" height="0.984"/>
</g>
</svg>
