<?xml version="1.0" encoding="utf-8"?>
<!-- Generator: Adobe Illustrator 15.0.0, SVG Export Plug-In . SVG Version: 6.00 Build 0)  -->
<!DOCTYPE svg PUBLIC "-//W3C//DTD SVG 1.0//EN" "http://www.w3.org/TR/2001/REC-SVG-20010904/DTD/svg10.dtd">
<svg version="1.0" id="Layer_1" xmlns="http://www.w3.org/2000/svg" xmlns:xlink="http://www.w3.org/1999/xlink" x="0px" y="0px"
	 width="220px" height="227px" viewBox="0 0 220 227" enable-background="new 0 0 220 227" xml:space="preserve">
<g>
	<polygon fill="#434343" points="106.374,120.084 108.252,118.227 106.374,116.209 	"/>
	<polygon fill="#434343" points="106.414,108.171 106.374,112.188 108.292,110.191 	"/>
	<path fill="#434343" d="M105.751,102.063c-3.566,0-6.459,2.318-6.459,5.18v13.644c0,2.858,2.893,5.178,6.459,5.178
		c3.566,0,6.457-2.317,6.457-5.178v-13.644C112.208,104.381,109.316,102.063,105.751,102.063z M110.5,118.188l-5.208,4.75v-7.791
		l-3.084,3.104l-0.938-1.125l2.896-3.033l-2.958-3.029l1-1l3.084,2.874v-7.791L110.5,110l-4.249,4.137L110.5,118.188z"/>
</g>
</svg>
