<?xml version="1.0" encoding="utf-8"?>
<!-- Generator: Adobe Illustrator 15.0.0, SVG Export Plug-In . SVG Version: 6.00 Build 0)  -->
<!DOCTYPE svg PUBLIC "-//W3C//DTD SVG 1.0//EN" "http://www.w3.org/TR/2001/REC-SVG-20010904/DTD/svg10.dtd">
<svg version="1.0" id="Layer_1" xmlns="http://www.w3.org/2000/svg" xmlns:xlink="http://www.w3.org/1999/xlink" x="0px" y="0px"
	 width="220px" height="227px" viewBox="0 0 220 227" enable-background="new 0 0 220 227" xml:space="preserve">
<path fill="#434343" d="M112.907,124.758c0,0,0.093,1.885,0.97,2.763c1.021,1.021,2.659,1.036,3.659,0.036
	c1.423-1.424,1.617-3.393,1.447-5.024l8.604-8.604c1.621,0.163,3.588-0.04,5.035-1.487c0.988-0.988,0.969-2.615-0.051-3.634
	c-0.879-0.877-2.666-0.86-2.666-0.86s-0.057-1.859-0.939-2.743c-1.023-1.026-2.67-1.05-3.666-0.05
	c-1.447,1.446-1.619,3.465-1.432,5.117l-8.549,8.549c-1.627-0.164-3.604,0.039-5.063,1.498c-0.99,0.989-0.974,2.61,0.036,3.622
	C111.168,124.811,112.907,124.758,112.907,124.758z"/>
</svg>
