<?xml version="1.0" encoding="utf-8"?>
<!-- Generator: Adobe Illustrator 15.0.0, SVG Export Plug-In . SVG Version: 6.00 Build 0)  -->
<!DOCTYPE svg PUBLIC "-//W3C//DTD SVG 1.0//EN" "http://www.w3.org/TR/2001/REC-SVG-20010904/DTD/svg10.dtd">
<svg version="1.0" id="Layer_1" xmlns="http://www.w3.org/2000/svg" xmlns:xlink="http://www.w3.org/1999/xlink" x="0px" y="0px"
	 width="220px" height="227px" viewBox="0 0 220 227" enable-background="new 0 0 220 227" xml:space="preserve">
<g>
	<rect x="99.5" y="101" fill="#434343" width="1.917" height="24"/>
	<path fill="#434343" d="M117.246,101H103.67c-0.646,0-1.17,0.447-1.17,1v21.834c0,0.552,0.524,1,1.17,1h13.576
		c0.646,0,1.171-0.448,1.171-1V102C118.417,101.447,117.893,101,117.246,101z M110.495,107.791c1.175,0,2.13,0.914,2.13,2.041
		s-0.955,3.283-2.13,3.283s-2.128-2.156-2.128-3.283S109.319,107.791,110.495,107.791z M115.587,117.07h-10.17
		c0,0-0.173-4.104,2.436-4.104c0.545,0.792,1.296,1.555,2.674,1.555c1.379,0,2.037-0.77,2.578-1.57
		C116.041,112.951,115.587,117.07,115.587,117.07z"/>
	<rect x="112.415" y="109.958" fill="#434343" width="0.074" height="0.093"/>
</g>
</svg>
