<?xml version="1.0" encoding="utf-8"?>
<!-- Generator: Adobe Illustrator 15.0.0, SVG Export Plug-In . SVG Version: 6.00 Build 0)  -->
<!DOCTYPE svg PUBLIC "-//W3C//DTD SVG 1.0//EN" "http://www.w3.org/TR/2001/REC-SVG-20010904/DTD/svg10.dtd">
<svg version="1.0" id="Layer_1" xmlns="http://www.w3.org/2000/svg" xmlns:xlink="http://www.w3.org/1999/xlink" x="0px" y="0px"
	 width="220px" height="227px" viewBox="0 0 220 227" enable-background="new 0 0 220 227" xml:space="preserve">
<g>
	<rect x="100.583" y="109.125" fill="#434343" width="1.917" height="24"/>
	<rect x="113.5" y="119.198" fill="#434343" width="0.885" height="2.927"/>
	<rect x="113.54" y="118.083" fill="#434343" width="0.074" height="0.093"/>
	<path fill="#434343" d="M118.246,109.125H104.67c-0.646,0-1.17,0.447-1.17,1v21.834c0,0.552,0.524,1,1.17,1h13.576
		c0.646,0,1.171-0.448,1.171-1v-21.834C119.417,109.572,118.893,109.125,118.246,109.125z M115.551,122.177h-0.972l-0.019,1.011
		h-4.155l0.018-1.021h-0.967v-2.053h0.958v-1.041l3.042-0.012v-0.887h-3.931v0.997h-0.997v3.91h1.012v1.017h4.007v1.039h-4.087
		v-0.951h-1.003v-1.029h-1.005v-4.041h1.02v-1.02h0.965v-1.035h4.094v1.021h0.979v0.99h1.041V122.177L115.551,122.177
		L115.551,122.177z"/>
	<rect x="110.5" y="120.125" fill="#434343" width="1.896" height="1.875"/>
</g>
</svg>
