<?xml version="1.0" encoding="utf-8"?>
<!-- Generator: Adobe Illustrator 15.0.0, SVG Export Plug-In . SVG Version: 6.00 Build 0)  -->
<!DOCTYPE svg PUBLIC "-//W3C//DTD SVG 1.0//EN" "http://www.w3.org/TR/2001/REC-SVG-20010904/DTD/svg10.dtd">
<svg version="1.0" id="Layer_1" xmlns="http://www.w3.org/2000/svg" xmlns:xlink="http://www.w3.org/1999/xlink" x="0px" y="0px"
	 width="220px" height="227px" viewBox="0 0 220 227" enable-background="new 0 0 220 227" xml:space="preserve">
<g>
	<path fill="#434343" d="M125.92,108.229c-0.14,1.425-1.275,1.877-3.135,2.451c-0.873,0.271-1.803,0.566-2.561,1.076
		c-1.33-0.707-2.262-0.544-2.262-0.544l-1.945,2.419c1.914,0.615,3.543,1.82,4.646,3.398l1.928-2.396c0,0,0.142-1.027-1.435-2.264
		c0.564-0.3,1.233-0.514,1.925-0.729c1.698-0.524,3.479-1.243,3.695-3.436L125.92,108.229z"/>
	<path fill="#434343" d="M114.597,114.736c-0.894-0.299-1.843-0.468-2.834-0.468c-4.929,0-8.922,3.993-8.922,8.922
		s3.993,8.923,8.922,8.923c4.927,0,8.921-3.994,8.921-8.923c0-1.836-0.557-3.54-1.506-4.959
		C118.09,116.609,116.483,115.369,114.597,114.736z M112.642,117.537c-3.787,0-5.824,2.326-5.824,6.115c0,0,1.547-7.418,5.503-7.832
		C112.32,115.82,112.864,117.537,112.642,117.537z"/>
</g>
</svg>
