<?xml version="1.0" encoding="utf-8"?>
<!-- Generator: Adobe Illustrator 15.0.0, SVG Export Plug-In . SVG Version: 6.00 Build 0)  -->
<!DOCTYPE svg PUBLIC "-//W3C//DTD SVG 1.0//EN" "http://www.w3.org/TR/2001/REC-SVG-20010904/DTD/svg10.dtd">
<svg version="1.0" id="Layer_1" xmlns="http://www.w3.org/2000/svg" xmlns:xlink="http://www.w3.org/1999/xlink" x="0px" y="0px"
	 width="220px" height="227px" viewBox="0 0 220 227" enable-background="new 0 0 220 227" xml:space="preserve">
<g>
	<path fill="#434343" d="M116.32,105.819c0-0.553,0.447-1,1-1h1c0.553,0,1,0.447,1,1v3c0,0.553-0.447,1-1,1h-1c-0.553,0-1-0.447-1-1
		V105.819z"/>
	<path fill="#434343" d="M120.32,106.819c0-0.553,0.447-1,1-1h1c0.553,0,1,0.447,1,1v1c0,0.553-0.447,1-1,1h-1c-0.553,0-1-0.447-1-1
		V106.819z"/>
	<rect x="123.32" y="106.819" fill="#434343" width="4" height="1"/>
	<path fill="#434343" d="M103.32,119.819c0,0.553,0.447,1,1,1h4c0.553,0,1-0.447,1-1c0,0-4-1,0-6c1-1-0.447-1-1-1h-4
		c-0.553,0,1,0.447,1,1L103.32,119.819z"/>
	<path fill="#434343" d="M114.32,103.819c0,0-2,0-6,0c-4,0-5,2.447-5,3v3c0,2,1.447,2,2,2h6c0.553,0,4,0,4-2v-5
		C115.32,104.266,114.873,103.819,114.32,103.819z M105.32,109.819h-1v-3h1V109.819z M106.32,106.819h1v3h-1V106.819z
		 M109.32,109.819h-1v-3h1V109.819z"/>
</g>
</svg>
