<?xml version="1.0" encoding="utf-8"?>
<!-- Generator: Adobe Illustrator 15.0.0, SVG Export Plug-In . SVG Version: 6.00 Build 0)  -->
<!DOCTYPE svg PUBLIC "-//W3C//DTD SVG 1.0//EN" "http://www.w3.org/TR/2001/REC-SVG-20010904/DTD/svg10.dtd">
<svg version="1.0" id="Layer_1" xmlns="http://www.w3.org/2000/svg" xmlns:xlink="http://www.w3.org/1999/xlink" x="0px" y="0px"
	 width="220px" height="227px" viewBox="0 0 220 227" enable-background="new 0 0 220 227" xml:space="preserve">
<g>
	<g>
		<path fill="#434343" d="M105.736,130h-5.831c-1.414,0-2.564-1.121-2.564-2.5v-10.949c0-0.629,0.619-2.096,1.639-4.438
			c0.587-1.348,1.39-3.19,1.396-3.563c0-0.185-0.293-0.525-0.487-0.753c-0.332-0.387-0.676-0.787-0.462-1.243
			c0.208-0.441,0.775-0.503,1.359-0.503h4.064c0.739,0.006,1.269,0.101,1.467,0.531c0.209,0.458-0.147,0.867-0.463,1.229
			c-0.192,0.222-0.483,0.555-0.483,0.739c0.001,0.375,0.786,2.241,1.36,3.604c0.977,2.316,1.569,3.771,1.569,4.396V127.5
			C108.299,128.879,107.15,130,105.736,130z M100.589,107.087c0.332,0.379,0.683,0.913,0.683,1.466c0,0.54-0.484,1.734-1.451,3.907
			c-0.674,1.513-1.596,3.584-1.596,4.054v10.981c0,0.828,0.715,1.504,1.592,1.504h5.976c0.876,0,1.59-0.676,1.59-1.504v-10.981
			c0-0.47-0.883-2.522-1.53-4.022c-0.912-2.122-1.523-3.399-1.523-3.947c0-0.558,0.466-1.074,0.799-1.448
			c0.025-0.028-0.112-0.106-0.249-0.106h-4.16C100.637,106.988,100.564,107.059,100.589,107.087z"/>
	</g>
	<path fill="#434343" d="M106.319,125.955c0,1.084-0.896,1.961-2,1.961h-2.917c-1.104,0-2-0.877-2-1.961V115.82
		c0-1.084,1.084,2.371,3.417,0.734c2.333-1.635,3.5-1.818,3.5-0.734V125.955z"/>
</g>
</svg>
