<?xml version="1.0" encoding="utf-8"?>
<!-- Generator: Adobe Illustrator 15.0.0, SVG Export Plug-In . SVG Version: 6.00 Build 0)  -->
<!DOCTYPE svg PUBLIC "-//W3C//DTD SVG 1.0//EN" "http://www.w3.org/TR/2001/REC-SVG-20010904/DTD/svg10.dtd">
<svg version="1.0" id="Layer_1" xmlns="http://www.w3.org/2000/svg" xmlns:xlink="http://www.w3.org/1999/xlink" x="0px" y="0px"
	 width="220px" height="227px" viewBox="0 0 220 227" enable-background="new 0 0 220 227" xml:space="preserve">
<g>
	<path fill="#434343" d="M123.738,103.193c-0.424-0.36-1.064-0.312-1.433,0.113l-4.062,4.754
		c-0.104-0.016-12.145-0.017-12.227-0.007l-4.159-4.759c-0.368-0.42-1.006-0.461-1.422-0.092c-0.419,0.371-0.459,1.012-0.092,1.433
		l4.028,4.608c-0.123,0.268-0.196,0.561-0.196,0.873v7.745c0,1.152,0.937,2.089,2.089,2.089h11.661c1.153,0,2.089-0.937,2.089-2.089
		v-7.745c0-0.289-0.059-0.563-0.165-0.814l4-4.68C124.217,104.198,124.166,103.557,123.738,103.193z"/>
	<path fill="#434343" d="M109.32,100.818l1.814-0.366l-0.034,3.436c-0.004,0.552,0.438,0.994,0.986,0.993s1-0.447,1.004-0.998
		l-0.02-3.394l1.778,0.35c0.275-0.272,0.278-0.714,0.009-0.986l-2.257-2.684c-0.271-0.272-0.71-0.272-0.983,0l-2.289,2.665
		C109.056,100.107,109.053,100.547,109.32,100.818z"/>
</g>
</svg>
