<?xml version="1.0" encoding="utf-8"?>
<!-- Generator: Adobe Illustrator 15.0.0, SVG Export Plug-In . SVG Version: 6.00 Build 0)  -->
<!DOCTYPE svg PUBLIC "-//W3C//DTD SVG 1.0//EN" "http://www.w3.org/TR/2001/REC-SVG-20010904/DTD/svg10.dtd">
<svg version="1.0" id="Layer_1" xmlns="http://www.w3.org/2000/svg" xmlns:xlink="http://www.w3.org/1999/xlink" x="0px" y="0px"
	 width="220px" height="227px" viewBox="0 0 220 227" enable-background="new 0 0 220 227" xml:space="preserve">
<g>
	<path fill="#434343" d="M124.451,96.336c-0.425-0.361-1.064-0.312-1.434,0.112l-4.062,4.755
		c-0.104-0.017-12.144-0.017-12.226-0.007l-4.159-4.76c-0.368-0.42-1.006-0.461-1.422-0.092c-0.419,0.371-0.459,1.012-0.092,1.434
		l4.028,4.607c-0.123,0.268-0.196,0.561-0.196,0.873v7.746c0,1.151,0.937,2.088,2.089,2.088h11.661c1.153,0,2.09-0.937,2.09-2.088
		v-7.746c0-0.289-0.059-0.562-0.166-0.814l4-4.68C124.93,97.341,124.879,96.7,124.451,96.336z"/>
	<path fill="#434343" d="M115.59,94.157l-1.812,0.373l0.021-3.436c0.002-0.551-0.439-0.992-0.99-0.988
		c-0.551,0.002-0.998,0.451-1,1.002l0.031,3.393l-1.782-0.344c-0.273,0.273-0.274,0.715-0.003,0.986l2.265,2.676
		c0.271,0.271,0.712,0.271,0.984-0.004l2.279-2.672C115.856,94.868,115.858,94.429,115.59,94.157z"/>
</g>
</svg>
