<?xml version="1.0" encoding="utf-8"?>
<!-- Generator: Adobe Illustrator 15.0.0, SVG Export Plug-In . SVG Version: 6.00 Build 0)  -->
<!DOCTYPE svg PUBLIC "-//W3C//DTD SVG 1.0//EN" "http://www.w3.org/TR/2001/REC-SVG-20010904/DTD/svg10.dtd">
<svg version="1.0" id="Layer_1" xmlns="http://www.w3.org/2000/svg" xmlns:xlink="http://www.w3.org/1999/xlink" x="0px" y="0px"
	 width="220px" height="227px" viewBox="0 0 220 227" enable-background="new 0 0 220 227" xml:space="preserve">
<g>
	<path fill="#434343" d="M119.895,109.332c-1.768-1.227-4.119-1.925-6.623-1.969c-0.287-0.005-0.523,0.225-0.527,0.511
		c-0.005,0.287,0.225,0.524,0.512,0.528c2.301,0.04,4.448,0.674,6.047,1.782c1.535,1.065,2.287,2.391,2.266,3.824
		c-0.014,0.99-0.367,1.99-1.146,2.814c-2.696-2.695-10.554-10.429-10.554-10.429s-2.436-0.438-6.954,4.078
		c-4.52,4.521-4.343,7.095-4.343,7.095s10.335,10.334,11.369,11.365c1.034,1.033,4.316-0.301,7.704-3.688
		c3.39-3.39,4.467-6.732,3.593-7.607c-0.021-0.021-0.052-0.052-0.08-0.08c-0.039,0.041-0.063,0.084-0.104,0.125
		c-0.373,0.373-0.809,0.724-1.301,1.041c-1.8,1.164-4.169,1.785-6.67,1.748c-2.359-0.035-4.61-0.668-6.335-1.771
		c-0.241-0.152-0.311-0.475-0.156-0.716c0.151-0.236,0.477-0.312,0.717-0.157c1.563,1.003,3.624,1.573,5.792,1.607
		c2.299,0.035,4.461-0.525,6.092-1.582c0.48-0.312,0.889-0.656,1.234-1.024c0.331,0.33,0.581,0.58,0.731,0.729
		c0.972-1.02,1.362-2.283,1.383-3.553C122.566,112.217,121.723,110.604,119.895,109.332z M111.434,127.51l-0.64,0.64l-8.779-8.779
		l0.639-0.639L111.434,127.51z M106.5,114c-2.734,2.734-5.584,4.316-6.365,3.535c-0.781-0.781,0.803-3.629,3.536-6.363
		c2.733-2.733,5.583-4.315,6.364-3.535C110.816,108.418,109.234,111.266,106.5,114z"/>
</g>
</svg>
