<?xml version="1.0" encoding="utf-8"?>
<!-- Generator: Adobe Illustrator 15.0.0, SVG Export Plug-In . SVG Version: 6.00 Build 0)  -->
<!DOCTYPE svg PUBLIC "-//W3C//DTD SVG 1.0//EN" "http://www.w3.org/TR/2001/REC-SVG-20010904/DTD/svg10.dtd">
<svg version="1.0" id="Layer_1" xmlns="http://www.w3.org/2000/svg" xmlns:xlink="http://www.w3.org/1999/xlink" x="0px" y="0px"
	 width="220px" height="227px" viewBox="0 0 220 227" enable-background="new 0 0 220 227" xml:space="preserve">
<g>
	<polygon fill="#434343" points="110.5,113.5 109.5,113.5 109.5,115.5 111.5,115.5 111.5,113.5 111.5,110.5 110.5,110.5 	"/>
	<polygon fill="#434343" points="109.5,106.5 108.5,106.5 108.5,108.5 110.5,108.5 110.5,106.5 110.5,103.5 109.5,103.5 	"/>
	<path fill="#434343" d="M130.5,108.5h2v-2h-1v-3v-1h-1h-2.65c-0.473-1.166-1.217-2.186-2.146-3h2.798h1v-1v-2h1v-2h-2v1v1v2h-4.116
		c0.026-0.16,0.055-0.318,0.055-0.484c0-0.854-0.36-1.627-0.938-2.232v-2.282v-1v-1h-2v2h1v1.528c-0.588-0.312-1.266-0.497-2-0.497
		c-0.731,0-1.411,0.188-2,0.497v-1.528h1v-2h-2v1v1v2.281c-0.575,0.606-0.938,1.379-0.938,2.233c0,0.166,0.027,0.323,0.058,0.483
		h-4.119v-2v-1v-1h-2v2h1v2v1h1h2.802c-0.933,0.813-1.677,1.834-2.147,3h-2.653v1h2.322c-0.164,0.635-0.26,1.297-0.26,1.981
		c0,1.47,0.4,2.84,1.094,4.019h-2.156v1h2.854c1.262,1.545,3.082,2.608,5.156,2.869l0.99-12.868l0.99,12.869
		c2.076-0.26,3.896-1.324,5.156-2.869h2.854v3v2h2v-2h-1v-3v-1h-1h-2.156c0.693-1.178,1.094-2.549,1.094-4.018
		c0-0.688-0.096-1.35-0.258-1.982h2.32v3v2H130.5z M117,100.5c0.828,0,1.5,0.672,1.5,1.5s-0.672,1.5-1.5,1.5s-1.5-0.672-1.5-1.5
		S116.172,100.5,117,100.5z M114.5,106c0-0.828,0.672-1.5,1.5-1.5s1.5,0.672,1.5,1.5s-0.672,1.5-1.5,1.5S114.5,106.828,114.5,106z
		 M118,111.5c-0.828,0-1.5-0.672-1.5-1.5s0.672-1.5,1.5-1.5s1.5,0.672,1.5,1.5S118.828,111.5,118,111.5z M124,100.5
		c0.828,0,1.5,0.672,1.5,1.5s-0.672,1.5-1.5,1.5s-1.5-0.672-1.5-1.5S123.172,100.5,124,100.5z M123,111.5
		c-0.828,0-1.5-0.672-1.5-1.5s0.672-1.5,1.5-1.5s1.5,0.672,1.5,1.5S123.828,111.5,123,111.5z M125,107.5c-0.828,0-1.5-0.672-1.5-1.5
		s0.672-1.5,1.5-1.5s1.5,0.672,1.5,1.5S125.828,107.5,125,107.5z"/>
</g>
</svg>
