<?xml version="1.0" encoding="utf-8"?>
<!-- Generator: Adobe Illustrator 15.0.0, SVG Export Plug-In . SVG Version: 6.00 Build 0)  -->
<!DOCTYPE svg PUBLIC "-//W3C//DTD SVG 1.0//EN" "http://www.w3.org/TR/2001/REC-SVG-20010904/DTD/svg10.dtd">
<svg version="1.0" id="Layer_1" xmlns="http://www.w3.org/2000/svg" xmlns:xlink="http://www.w3.org/1999/xlink" x="0px" y="0px"
	 width="220px" height="227px" viewBox="0 0 220 227" enable-background="new 0 0 220 227" xml:space="preserve">
<g>
	<ellipse fill="#434343" cx="109.2" cy="118.763" rx="1.966" ry="1.868"/>
	<path fill="#434343" d="M120.043,110.479c-0.02-0.044-0.035-0.088-0.065-0.128c-0.005-0.007-0.013-0.01-0.019-0.017l-0.158-3.475
		l-1.567,1.198l0.131,2.913l-9.274,7.303c-0.186,0.142-0.199,0.436-0.032,0.655c0.168,0.224,0.452,0.287,0.637,0.146l9.218-7.256
		l2.7,0.901l1.568-1.198L120.043,110.479z"/>
	<path fill="#434343" d="M103.249,118.861c0,3.281,2.67,5.949,5.951,5.949c3.281,0,5.951-2.668,5.951-5.949
		c0-0.756-0.156-1.473-0.415-2.139l-0.728,0.517c0.177,0.512,0.279,1.054,0.279,1.622c0,2.807-2.281,5.089-5.09,5.089
		c-2.806,0-5.09-2.282-5.09-5.089s2.284-5.089,5.09-5.089c0.942,0,1.812,0.276,2.568,0.729l0.697-0.599
		c-0.938-0.622-2.06-0.99-3.268-0.99C105.918,112.91,103.249,115.579,103.249,118.861z"/>
	<path fill="#434343" d="M101.202,118.861c0,4.411,3.588,7.999,7.998,7.999c4.41,0,7.998-3.588,7.998-7.999
		c0-1.198-0.278-2.329-0.755-3.352l-0.758,0.539c0.377,0.863,0.602,1.811,0.602,2.812c0,3.907-3.18,7.087-7.087,7.087
		c-3.907,0-7.087-3.18-7.087-7.087c0-3.906,3.18-7.087,7.087-7.087c1.558,0,2.992,0.508,4.161,1.363l0.703-0.604
		c-1.35-1.043-3.031-1.673-4.864-1.673C104.79,110.862,101.202,114.449,101.202,118.861z"/>
	<path fill="#434343" d="M119.199,118.82c0-1.62-0.393-3.146-1.084-4.498l-0.729,0.518c0.596,1.203,0.934,2.553,0.934,3.98
		c0,5.009-4.092,9.082-9.12,9.082c-5.028,0-9.12-4.073-9.12-9.082c0-5.009,4.092-9.083,9.12-9.083c2.179,0,4.167,0.777,5.735,2.053
		l0.682-0.584c-1.729-1.452-3.945-2.344-6.375-2.344c-5.49,0-9.958,4.467-9.958,9.958c0,3.374,1.69,6.357,4.269,8.159
		c-0.022,0.024-0.958,3.028-0.958,3.028c-0.075,0.244,0.255,0.565,0.733,0.721c0.484,0.154,0.935,0.08,1.008-0.165l0.814-2.677
		c1.249,0.565,2.631,0.892,4.092,0.892c1.467,0,2.854-0.327,4.108-0.897l0.813,2.711c0.071,0.246,0.521,0.321,1.006,0.17
		c0.479-0.151,0.812-0.476,0.738-0.721c0,0-0.938-3.031-0.974-3.063C117.51,125.174,119.199,122.192,119.199,118.82z"/>
</g>
</svg>
