<?xml version="1.0" encoding="utf-8"?>
<!-- Generator: Adobe Illustrator 15.0.0, SVG Export Plug-In . SVG Version: 6.00 Build 0)  -->
<!DOCTYPE svg PUBLIC "-//W3C//DTD SVG 1.0//EN" "http://www.w3.org/TR/2001/REC-SVG-20010904/DTD/svg10.dtd">
<svg version="1.0" id="Layer_1" xmlns="http://www.w3.org/2000/svg" xmlns:xlink="http://www.w3.org/1999/xlink" x="0px" y="0px"
	 width="220px" height="227px" viewBox="0 0 220 227" enable-background="new 0 0 220 227" xml:space="preserve">
<g>
	<path fill="#434343" d="M104.031,121.969h-12.35c-3.14,0-4.682,1-4.682,5.094c0,0-0.708-0.01-1.75-0.01s-2.25,2.191-2.25,3.082
		c0,0.445,0,1.582,0,2.115c0,0.766,0.516,0.58,1.942,0.627c-0.024-0.17-0.052-0.34-0.052-0.52c0-1.982,1.608-3.594,3.594-3.594
		c1.986,0,3.672,1.609,3.672,3.594c0,0.182-0.027,0.354-0.053,0.525c0.606,0,6.229,0,6.854,0c-0.024-0.168-0.052-0.334-0.052-0.51
		c0-1.959,1.665-3.547,3.625-3.547s3.625,1.588,3.625,3.547c0,0.176-0.027,0.342-0.053,0.51c0.54,0,0.771,0,0.771,0v-6.01
		C106.875,123.812,105.875,121.969,104.031,121.969z M93.921,123.906h3.141v3.142h-3.141V123.906z M93.083,127.062h-4.166
		c0-3.469,1.42-3.197,1.938-3.197l2.238-0.02L93.083,127.062z M101.062,127.047H97.92v-3.141h3.142V127.047z M105.062,127.047
		h-3.142v-3.141c0,0,1.109,0,2.142,0C105.093,123.906,105.062,127.047,105.062,127.047z"/>
	<circle fill="#434343" cx="88.5" cy="132.438" r="2.438"/>
	<circle fill="#434343" cx="102.5" cy="132.438" r="2.438"/>
</g>
</svg>
