<?xml version="1.0" encoding="utf-8"?>
<!-- Generator: Adobe Illustrator 15.0.0, SVG Export Plug-In . SVG Version: 6.00 Build 0)  -->
<!DOCTYPE svg PUBLIC "-//W3C//DTD SVG 1.0//EN" "http://www.w3.org/TR/2001/REC-SVG-20010904/DTD/svg10.dtd">
<svg version="1.0" id="Layer_1" xmlns="http://www.w3.org/2000/svg" xmlns:xlink="http://www.w3.org/1999/xlink" x="0px" y="0px"
	 width="220px" height="227px" viewBox="0 0 220 227" enable-background="new 0 0 220 227" xml:space="preserve">
<g>
	<polygon fill="#434343" points="112.941,120.683 111.119,122.982 109.299,120.683 110.244,116.008 111.996,116.008 	"/>
	<path fill="#434343" d="M99.184,122.748h8.302c-2.552-3.363-1.732-8.412-1.986-8.748C99.37,114,99.184,122.748,99.184,122.748z"/>
	<path fill="#434343" d="M116.645,113.961c-0.244,0.328,0.582,5.396-1.974,8.787h8.384
		C123.055,122.748,123.537,113.961,116.645,113.961z"/>
	<path fill="#434343" d="M116.037,105.855c0,2.699-2.221,7.86-4.959,7.86c-2.737,0-4.958-5.161-4.958-7.86
		c0-2.701,2.221-4.89,4.958-4.89C113.816,100.965,116.037,103.154,116.037,105.855z"/>
</g>
</svg>
