<?xml version="1.0" encoding="utf-8"?>
<!-- Generator: Adobe Illustrator 15.0.0, SVG Export Plug-In . SVG Version: 6.00 Build 0)  -->
<!DOCTYPE svg PUBLIC "-//W3C//DTD SVG 1.0//EN" "http://www.w3.org/TR/2001/REC-SVG-20010904/DTD/svg10.dtd">
<svg version="1.0" id="Layer_1" xmlns="http://www.w3.org/2000/svg" xmlns:xlink="http://www.w3.org/1999/xlink" x="0px" y="0px"
	 width="220px" height="227px" viewBox="0 0 220 227" enable-background="new 0 0 220 227" xml:space="preserve">
<path fill="#434343" d="M125.258,115.788c0-3.262-2.446-5.906-5.469-5.906c-2.02,0-3.777,1.187-4.727,2.944
	c-0.152-1.1-0.379-1.815-0.652-2.265c0.551-1.207,1.354-2.305,1.838-2.912c0.168,0.068,0.352,0.107,0.541,0.107
	c0.795,0,1.438-0.646,1.438-1.438s-0.646-1.438-1.438-1.438s-1.438,0.646-1.438,1.438c0,0.233,0.062,0.451,0.16,0.646
	c-0.482,0.599-1.293,1.689-1.902,2.955c-0.1-0.022-0.201-0.039-0.305-0.039c-0.092,0-0.182,0.013-0.27,0.03
	c-0.623-1.284-1.461-2.37-1.963-2.961c0.094-0.19,0.152-0.403,0.152-0.632c0-0.793-0.646-1.438-1.438-1.438
	c-0.792,0-1.438,0.645-1.438,1.438s0.645,1.438,1.438,1.438c0.198,0,0.389-0.041,0.561-0.112c0.494,0.59,1.316,1.666,1.878,2.881
	c-0.291,0.452-0.528,1.194-0.688,2.358c-0.939-1.791-2.714-3.002-4.75-3.002c-3.021,0-5.469,2.658-5.469,5.938
	c0,2.693,1.652,4.965,3.916,5.689c-0.55,0.771-0.893,1.74-0.893,2.811c0,2.484,1.78,4.5,3.979,4.5c1.801,0,3.305-1.362,3.794-3.219
	c0.332,1.348,0.742,2.154,1.188,2.154c0.457,0,0.876-0.845,1.211-2.25c0.479,1.828,1.977,3.174,3.771,3.174
	c2.18,0,3.946-1.971,3.946-4.398c0-1.077-0.36-2.053-0.938-2.816C123.582,120.758,125.258,118.486,125.258,115.788z M105.321,115.82
	c-1.088,0-1.969-0.881-1.969-1.969c0-1.088,0.881-1.969,1.969-1.969s1.969,0.881,1.969,1.969
	C107.291,114.939,106.408,115.82,105.321,115.82z M108.321,127.82c-1.088,0-1.969-0.881-1.969-1.969s0.881-1.969,1.969-1.969
	s1.969,0.881,1.969,1.969S109.408,127.82,108.321,127.82z M118.321,127.82c-1.088,0-1.969-0.881-1.969-1.969
	s0.881-1.969,1.969-1.969s1.97,0.881,1.97,1.969S119.408,127.82,118.321,127.82z M121.321,115.82c-1.088,0-1.969-0.881-1.969-1.969
	c0-1.088,0.881-1.969,1.969-1.969s1.97,0.881,1.97,1.969C123.291,114.939,122.408,115.82,121.321,115.82z"/>
</svg>
