<?xml version="1.0" encoding="utf-8"?>
<!-- Generator: Adobe Illustrator 15.0.0, SVG Export Plug-In . SVG Version: 6.00 Build 0)  -->
<!DOCTYPE svg PUBLIC "-//W3C//DTD SVG 1.0//EN" "http://www.w3.org/TR/2001/REC-SVG-20010904/DTD/svg10.dtd">
<svg version="1.0" id="Layer_1" xmlns="http://www.w3.org/2000/svg" xmlns:xlink="http://www.w3.org/1999/xlink" x="0px" y="0px"
	 width="220px" height="227px" viewBox="0 0 220 227" enable-background="new 0 0 220 227" xml:space="preserve">
<g>
	<path fill="#434343" d="M120.747,105.804c-4.661-4.661-12.213-4.67-16.867-0.017c-4.654,4.655-4.646,12.206,0.014,16.868
		c4.662,4.662,12.215,4.668,16.868,0.014C125.414,118.018,125.409,110.465,120.747,105.804z M116.008,119.508l-3.688-3.688
		l-3.688,3.688c-0.689,0.689-1.207,1.289-2.029,0.469c-0.82-0.82-0.223-1.338,0.469-2.028l3.688-3.687l-3.688-3.688
		c-0.689-0.689-1.289-1.207-0.469-2.029c0.822-0.819,1.34-0.221,2.029,0.47l3.688,3.686l3.688-3.686
		c0.689-0.689,1.205-1.29,2.027-0.47c0.822,0.822,0.223,1.341-0.467,2.029l-3.688,3.687l3.688,3.688
		c0.689,0.69,1.289,1.209,0.467,2.03C117.215,120.797,116.698,120.198,116.008,119.508z"/>
</g>
</svg>
