<?xml version="1.0" encoding="utf-8"?>
<!-- Generator: Adobe Illustrator 15.0.0, SVG Export Plug-In . SVG Version: 6.00 Build 0)  -->
<!DOCTYPE svg PUBLIC "-//W3C//DTD SVG 1.0//EN" "http://www.w3.org/TR/2001/REC-SVG-20010904/DTD/svg10.dtd">
<svg version="1.0" id="Layer_1" xmlns="http://www.w3.org/2000/svg" xmlns:xlink="http://www.w3.org/1999/xlink" x="0px" y="0px"
	 width="220px" height="227px" viewBox="0 0 220 227" enable-background="new 0 0 220 227" xml:space="preserve">
<g>
	<path fill="#434343" d="M116.07,105.045c-6.57,0-11.917,5.346-11.917,11.917c0,6.57,5.347,11.916,11.917,11.916
		c6.57,0,11.917-5.346,11.917-11.916C127.987,110.391,122.641,105.045,116.07,105.045z M116.07,126.879
		c-5.477,0-9.931-4.449-9.931-9.916c0-5.469,4.455-9.917,9.931-9.917s9.932,4.449,9.932,9.917
		C126.002,122.43,121.547,126.879,116.07,126.879z"/>
	<path fill="#434343" d="M121.245,114.881h-3.317v-3.391c0-0.7-0.662-1.611-1.948-1.611s-1.99,0.986-1.99,1.688v3.315h-3.391
		c-0.7,0-1.611,0.664-1.611,1.949c0,1.286,0.986,1.99,1.687,1.99h3.317v3.391c0,0.7,0.663,1.611,1.949,1.611
		s1.989-0.986,1.989-1.688v-3.316h3.392c0.7,0,1.611-0.663,1.611-1.949S121.946,114.881,121.245,114.881z"/>
</g>
</svg>
