<?xml version="1.0" encoding="utf-8"?>
<!-- Generator: Adobe Illustrator 15.0.0, SVG Export Plug-In . SVG Version: 6.00 Build 0)  -->
<!DOCTYPE svg PUBLIC "-//W3C//DTD SVG 1.0//EN" "http://www.w3.org/TR/2001/REC-SVG-20010904/DTD/svg10.dtd">
<svg version="1.0" id="Layer_1" xmlns="http://www.w3.org/2000/svg" xmlns:xlink="http://www.w3.org/1999/xlink" x="0px" y="0px"
	 width="220px" height="227px" viewBox="0 0 220 227" enable-background="new 0 0 220 227" xml:space="preserve">
<path fill="#434343" d="M104.397,98.063c-6.593,0-11.938,5.335-11.938,11.916c0,6.582,5.345,11.917,11.938,11.917
	c6.593,0,11.938-5.336,11.938-11.917C116.334,103.397,110.988,98.063,104.397,98.063z M108.734,111.104h-3.214v3.214
	c0,0.977,0.058,1.767-1.104,1.767c-1.161,0-1.104-0.79-1.104-1.767v-3.214h-3.214c-0.976,0-1.766,0.057-1.766-1.104
	c0-1.162,0.79-1.104,1.766-1.104h3.214v-3.214c0-0.977-0.058-1.766,1.104-1.766c1.162,0,1.104,0.789,1.104,1.766v3.214h3.214
	c0.976,0,1.766-0.058,1.766,1.104C110.501,111.16,109.711,111.104,108.734,111.104z"/>
</svg>
