<?xml version="1.0" encoding="utf-8"?>
<!-- Generator: Adobe Illustrator 15.0.0, SVG Export Plug-In . SVG Version: 6.00 Build 0)  -->
<!DOCTYPE svg PUBLIC "-//W3C//DTD SVG 1.0//EN" "http://www.w3.org/TR/2001/REC-SVG-20010904/DTD/svg10.dtd">
<svg version="1.0" id="Layer_1" xmlns="http://www.w3.org/2000/svg" xmlns:xlink="http://www.w3.org/1999/xlink" x="0px" y="0px"
	 width="220px" height="227px" viewBox="0 0 220 227" enable-background="new 0 0 220 227" xml:space="preserve">
<g>
	<g>
		<path fill="#434343" d="M114.207,124.03c0-6.572,5.348-11.918,11.918-11.918c6.569,0,11.916,5.346,11.916,11.918
			c0,6.569-5.347,11.916-11.916,11.916C119.555,135.946,114.207,130.6,114.207,124.03z M136.057,124.03
			c0-5.47-4.455-9.919-9.932-9.919s-9.933,4.449-9.933,9.919c0,5.467,4.456,9.916,9.933,9.916S136.057,129.497,136.057,124.03z"/>
	</g>
	<path fill="#434343" d="M130.5,126c0.699,0,1.61-0.664,1.61-1.949c0-1.287-0.985-1.988-1.687-1.988l-8.647,0.002
		c-0.7,0-1.61,0.66-1.61,1.947c0,1.285,0.985,1.99,1.688,1.99L130.5,126z"/>
</g>
</svg>
