<?xml version="1.0" encoding="utf-8"?>
<!-- Generator: Adobe Illustrator 15.0.0, SVG Export Plug-In . SVG Version: 6.00 Build 0)  -->
<!DOCTYPE svg PUBLIC "-//W3C//DTD SVG 1.0//EN" "http://www.w3.org/TR/2001/REC-SVG-20010904/DTD/svg10.dtd">
<svg version="1.0" id="Layer_1" xmlns="http://www.w3.org/2000/svg" xmlns:xlink="http://www.w3.org/1999/xlink" x="0px" y="0px"
	 width="220px" height="227px" viewBox="0 0 220 227" enable-background="new 0 0 220 227" xml:space="preserve">
<g>
	<g>
		<path fill="#434343" d="M91.393,110.966c0-6.571,5.383-11.917,12-11.917c6.616,0,12,5.346,12,11.917
			c0,6.571-5.384,11.917-12,11.917C96.775,122.883,91.393,117.537,91.393,110.966z M113.393,110.966c0-5.468-4.486-9.917-10-9.917
			c-5.515,0-10,4.449-10,9.917c0,5.467,4.485,9.917,10,9.917C108.906,120.883,113.393,116.434,113.393,110.966z"/>
	</g>
	<g>
		<path fill="#434343" d="M103.318,105.969l-5.928,4.952l5.929,4.899v-2.994h4.405c0.701,0,1.611-0.652,1.611-1.918
			c0-1.268-0.985-1.959-1.687-1.959h-4.332L103.318,105.969L103.318,105.969z"/>
	</g>
</g>
</svg>
