<?xml version="1.0" encoding="utf-8"?>
<!-- Generator: Adobe Illustrator 15.0.0, SVG Export Plug-In . SVG Version: 6.00 Build 0)  -->
<!DOCTYPE svg PUBLIC "-//W3C//DTD SVG 1.0//EN" "http://www.w3.org/TR/2001/REC-SVG-20010904/DTD/svg10.dtd">
<svg version="1.0" id="Layer_1" xmlns="http://www.w3.org/2000/svg" xmlns:xlink="http://www.w3.org/1999/xlink" x="0px" y="0px"
	 width="220px" height="227px" viewBox="0 0 220 227" enable-background="new 0 0 220 227" xml:space="preserve">
<path fill="#434343" d="M118.319,101.846l-7.959,1l-8.123-1c-2.187,0-3.959,1.93-3.959,4.312v7.296c0,2.381,1.772,4.311,3.959,4.311
	l8.207-1l7.875,1c2.188,0,3.959-1.93,3.959-4.311v-7.296C122.278,103.776,120.506,101.846,118.319,101.846z M106.32,106.767h-3.021
	v1.97h1.994v1.01h1.026v2.097h-1v0.979h-3.062v-1.119h2.989v-1.907h-1.989v-1.009h-1v-2.065h1v-1.009h3.062L106.32,106.767
	L106.32,106.767z M110.32,106.793h-2.021v1.962h1.994v1.051h-1.974v1.873h2v1.141h-3.062v-7.077h3.062L110.32,106.793
	L110.32,106.793z M114.32,112.82h-3.059v-7.172h1.03v5.98h2.026L114.32,112.82L114.32,112.82z M118.32,112.82h-3.059v-7.108h1.03
	v5.928h2.026L118.32,112.82L118.32,112.82z"/>
</svg>
