<?xml version="1.0" encoding="utf-8"?>
<!-- Generator: Adobe Illustrator 15.0.0, SVG Export Plug-In . SVG Version: 6.00 Build 0)  -->
<!DOCTYPE svg PUBLIC "-//W3C//DTD SVG 1.0//EN" "http://www.w3.org/TR/2001/REC-SVG-20010904/DTD/svg10.dtd">
<svg version="1.0" id="Layer_1" xmlns="http://www.w3.org/2000/svg" xmlns:xlink="http://www.w3.org/1999/xlink" x="0px" y="0px"
	 width="220px" height="227px" viewBox="0 0 220 227" enable-background="new 0 0 220 227" xml:space="preserve">
<g>
	<g>
		<path fill="#434343" d="M115.514,98.158c6.57,0,11.918,5.354,11.918,11.938c0,6.583-5.347,11.938-11.918,11.938
			c-6.572,0-11.917-5.354-11.917-11.938C103.596,103.512,108.943,98.158,115.514,98.158z M115.514,120.043
			c5.469,0,9.918-4.463,9.918-9.947c0-5.485-4.449-9.948-9.918-9.948c-5.47,0-9.917,4.463-9.917,9.948
			C105.596,115.58,110.045,120.043,115.514,120.043z"/>
	</g>
	<g>
		<path fill="#434343" d="M120.51,110l-5.031-5.928L110.5,110h3.043v4.406c0,0.701,0.663,1.611,1.949,1.611
			c1.285,0,1.99-0.986,1.99-1.688v-4.332L120.51,110L120.51,110z"/>
	</g>
</g>
</svg>
