<?xml version="1.0" encoding="utf-8"?>
<!-- Generator: Adobe Illustrator 15.0.0, SVG Export Plug-In . SVG Version: 6.00 Build 0)  -->
<!DOCTYPE svg PUBLIC "-//W3C//DTD SVG 1.0//EN" "http://www.w3.org/TR/2001/REC-SVG-20010904/DTD/svg10.dtd">
<svg version="1.0" id="Layer_1" xmlns="http://www.w3.org/2000/svg" xmlns:xlink="http://www.w3.org/1999/xlink" x="0px" y="0px"
	 width="220px" height="227px" viewBox="0 0 220 227" enable-background="new 0 0 220 227" xml:space="preserve">
<path fill="#434343" d="M118.469,108.018H98.511c-1.104,0-2,0.896-2,2v19.958c0,1.104,0.896,2,2,2h19.958c1.104,0,2-0.896,2-2
	v-19.958C120.469,108.914,119.573,108.018,118.469,108.018z M114.567,122.102h-4.048v3.979c0,1.14-0.897,2.062-2.009,2.062
	c-1.112,0-2.01-0.924-2.01-2.062v-3.979h-4.047c-1.143,0-2.068-1.032-2.068-2.157c0-1.126,0.927-2.037,2.068-2.037h4.047V114
	c0-1.142,0.898-2.064,2.01-2.064c1.112,0,2.009,0.924,2.009,2.064v3.907h4.048c1.144,0,2.067,0.911,2.067,2.037
	C116.637,121.069,115.71,122.102,114.567,122.102z"/>
</svg>
