<?xml version="1.0" encoding="utf-8"?>
<!-- Generator: Adobe Illustrator 15.0.0, SVG Export Plug-In . SVG Version: 6.00 Build 0)  -->
<!DOCTYPE svg PUBLIC "-//W3C//DTD SVG 1.0//EN" "http://www.w3.org/TR/2001/REC-SVG-20010904/DTD/svg10.dtd">
<svg version="1.0" id="Layer_1" xmlns="http://www.w3.org/2000/svg" xmlns:xlink="http://www.w3.org/1999/xlink" x="0px" y="0px"
	 width="220px" height="227px" viewBox="0 0 220 227" enable-background="new 0 0 220 227" xml:space="preserve">
<g>
	<rect x="110.322" y="113.956" fill="#434343" width="1.916" height="2.875"/>
	<path fill="#434343" d="M121.321,108.936l-7.959,1l-8.123-1c-2.187,0-3.959,1.93-3.959,4.312v7.296
		c0,2.381,1.772,4.312,3.959,4.312l8.207-1l7.875,1c2.188,0,3.959-1.931,3.959-4.312v-7.296
		C125.28,110.865,123.508,108.936,121.321,108.936z M108.322,113.874h-2.021v1.965h0.994v1.006h1.026v2.091h-1v0.975h-2.062v-1.098
		h1.989v-1.92h-0.989v-1.006h-1v-2.061h1v-1.006h2.062L108.322,113.874L108.322,113.874z M113.322,119.955h-1.084v-2.012h-1.916
		v2.012h-1.084v-6.159h1.001v-0.965h2.104v0.965h0.979V119.955z M117.322,119.908h-3.059v-7.087h1.03v5.989h2.026L117.322,119.908
		L117.322,119.908z M121.322,113.868h-2.021v1.953h1.994v1.047h-1.974v1.97h2v1.03h-3.062v-7.047h3.062L121.322,113.868
		L121.322,113.868z"/>
</g>
</svg>
