<?xml version="1.0" encoding="utf-8"?>
<!-- Generator: Adobe Illustrator 15.0.0, SVG Export Plug-In . SVG Version: 6.00 Build 0)  -->
<!DOCTYPE svg PUBLIC "-//W3C//DTD SVG 1.0//EN" "http://www.w3.org/TR/2001/REC-SVG-20010904/DTD/svg10.dtd">
<svg version="1.0" id="Layer_1" xmlns="http://www.w3.org/2000/svg" xmlns:xlink="http://www.w3.org/1999/xlink" x="0px" y="0px"
	 width="220px" height="227px" viewBox="0 0 220 227" enable-background="new 0 0 220 227" xml:space="preserve">
<g>
	<path fill="#434343" d="M109.013,102.913h-3.917c-2.209,0-7,1.797-7,4.014v6.929c0,2.219,1.791,3.016,4,3.016h9.917
		c2.209,0,4-0.798,4-3.016v-6.929C116.013,104.71,111.221,102.913,109.013,102.913z M103.158,110c0,0.517-0.454,0.932-1.017,0.932
		h-2.125c-0.562,0-1.016-0.416-1.016-0.932v-1.354c0-0.517,0.905-1.933,3.016-1.933h0.125c0.562,0,1.017,0.416,1.017,0.933V110z
		 M110.158,113.938c0,0.549-0.44,0.994-0.985,0.994h-4.187c-0.545,0-0.984-0.445-0.984-0.994v-7.074
		c0-0.549,0.439-0.994,0.984-0.994h4.187c0.545,0,0.985,0.445,0.985,0.994V113.938z M115.158,110c0,0.517-0.454,0.932-1.018,0.932
		h-2.125c-0.562,0-1.016-0.416-1.016-0.932v-2.354c0-0.517,0.454-0.933,1.016-0.933h0.125c2.268,0,3.018,1.416,3.018,1.933V110z"/>
	<rect x="108.127" y="109.87" fill="#434343" width="0.906" height="0.938"/>
	<rect x="106.127" y="100.932" fill="#434343" width="1.906" height="1.905"/>
	<rect x="106.127" y="96.954" fill="#434343" width="1.906" height="0.885"/>
	<g>
		<path fill="#434343" d="M97.096,100.745c-0.553,0-1-0.412-1-0.921c0-0.509,0.447-0.921,1-0.921c8.374,0,16.639-1.48,21.566-3.865
			c0.489-0.236,1.093-0.062,1.351,0.389c0.258,0.448,0.068,1.007-0.421,1.241C114.395,99.182,105.774,100.745,97.096,100.745z"/>
	</g>
</g>
</svg>
