<?xml version="1.0" encoding="utf-8"?>
<!-- Generator: Adobe Illustrator 15.0.0, SVG Export Plug-In . SVG Version: 6.00 Build 0)  -->
<!DOCTYPE svg PUBLIC "-//W3C//DTD SVG 1.0//EN" "http://www.w3.org/TR/2001/REC-SVG-20010904/DTD/svg10.dtd">
<svg version="1.0" id="Layer_1" xmlns="http://www.w3.org/2000/svg" xmlns:xlink="http://www.w3.org/1999/xlink" x="0px" y="0px"
	 width="220px" height="227px" viewBox="0 0 220 227" enable-background="new 0 0 220 227" xml:space="preserve">
<g>
	<path fill="#434343" d="M102.961,121.989v1.86c0,2.19-0.154,2.981,2.109,2.981h12.688c2.264,0,2.109-0.791,2.109-2.981v-1.86
		H102.961z"/>
	<rect x="105.993" y="107.968" fill="#434343" width="1.875" height="3.896"/>
	<rect x="110.992" y="107.968" fill="#434343" width="1.875" height="3.896"/>
	<rect x="115.992" y="107.968" fill="#434343" width="1.875" height="3.896"/>
	<path fill="#434343" d="M107.832,104.978c0.202,0.863-0.119,1.858-0.896,1.947c-0.729,0.084-1.285-0.889-0.723-1.852
		c0.574-0.982,0.723-2.045,0.723-2.045S107.591,103.939,107.832,104.978z"/>
	<path fill="#434343" d="M112.832,104.978c0.201,0.863-0.119,1.858-0.896,1.947c-0.729,0.084-1.285-0.889-0.723-1.852
		c0.574-0.982,0.723-2.045,0.723-2.045S112.591,103.939,112.832,104.978z"/>
	<path fill="#434343" d="M117.832,104.978c0.201,0.863-0.119,1.858-0.896,1.947c-0.729,0.084-1.285-0.889-0.723-1.852
		c0.574-0.982,0.723-2.045,0.723-2.045S117.591,103.939,117.832,104.978z"/>
	<g>
		<path fill="#434343" d="M104.46,116.832c0.594,0,1.453-0.632,1.707-0.854c0.007-0.012,1.038-1.102,2.29-1.102
			c1.245,0,2.32,1.08,2.365,1.127c0.23,0.227,0.998,0.826,1.678,0.826c0.802,0,1.585-0.811,1.593-0.816
			c0.052-0.055,1.117-1.137,2.405-1.137c1.294,0,2.324,1.09,2.367,1.139c0.229,0.221,0.662,0.547,1.056,0.711
			c-0.046-2.09-0.899-3.762-3.112-3.762h-10.758c-1.986,0-2.883,1.346-3.078,3.133C103.293,116.366,103.957,116.832,104.46,116.832z
			"/>
		<path fill="#434343" d="M118.145,116.885c-0.025-0.024-0.798-0.834-1.646-0.834c-0.854,0-1.667,0.814-1.676,0.823
			c-0.037,0.039-1.073,1.126-2.322,1.126c-1.237,0-2.346-1.072-2.393-1.119c-0.233-0.232-0.974-0.83-1.65-0.83
			c-0.803,0-1.58,0.81-1.588,0.814c-0.166,0.146-1.332,1.135-2.409,1.135c-0.552,0-1.103-0.256-1.53-0.521v3.387h17v-2.915
			C119.059,117.745,118.247,116.982,118.145,116.885z"/>
	</g>
	<rect x="100.056" y="124.942" fill="#434343" width="22.875" height="1.969"/>
</g>
</svg>
