<?xml version="1.0" encoding="utf-8"?>
<!-- Generator: Adobe Illustrator 15.0.0, SVG Export Plug-In . SVG Version: 6.00 Build 0)  -->
<!DOCTYPE svg PUBLIC "-//W3C//DTD SVG 1.0//EN" "http://www.w3.org/TR/2001/REC-SVG-20010904/DTD/svg10.dtd">
<svg version="1.0" id="Layer_1" xmlns="http://www.w3.org/2000/svg" xmlns:xlink="http://www.w3.org/1999/xlink" x="0px" y="0px"
	 width="220px" height="227px" viewBox="0 0 220 227" enable-background="new 0 0 220 227" xml:space="preserve">
<g>
	<g>
		<path fill="#434343" d="M118.495,103.184v1.899h-2.119v-1.899h-1.927v1.899h-2.082v-1.899h-1.825v1.899h-2.125v-1.899h-1.958
			v1.899h-2.042v-1.899h-1.938v1.899h-2.188v-1.899h-2.874v20.858h24v-20.858H118.495z M118.48,122.171h-18.188v-14.312h18.188
			V122.171z"/>
		<rect x="100.48" y="101.129" fill="#434343" width="1.887" height="1.834"/>
		<rect x="104.459" y="101.129" fill="#434343" width="1.887" height="1.834"/>
		<rect x="108.459" y="101.129" fill="#434343" width="1.887" height="1.834"/>
		<rect x="112.459" y="101.129" fill="#434343" width="1.887" height="1.834"/>
		<rect x="116.459" y="101.129" fill="#434343" width="1.887" height="1.834"/>
	</g>
	<path fill="#434343" d="M106.48,112h-0.98v-1.882h2.824v9.835h-1.844V112z"/>
	<path fill="#434343" d="M111.48,112h-0.98v-1.882h2.824v9.835h-1.844V112z"/>
</g>
</svg>
