<?xml version="1.0" encoding="utf-8"?>
<!-- Generator: Adobe Illustrator 15.0.0, SVG Export Plug-In . SVG Version: 6.00 Build 0)  -->
<!DOCTYPE svg PUBLIC "-//W3C//DTD SVG 1.0//EN" "http://www.w3.org/TR/2001/REC-SVG-20010904/DTD/svg10.dtd">
<svg version="1.0" id="Layer_1" xmlns="http://www.w3.org/2000/svg" xmlns:xlink="http://www.w3.org/1999/xlink" x="0px" y="0px"
	 width="220px" height="227px" viewBox="0 0 220 227" enable-background="new 0 0 220 227" xml:space="preserve">
<g>
	<path fill="#434343" d="M101.779,107.102c-4.405,4.406,3.43,11.943,6.125,14.64c2.691,2.693,10.271,10.494,14.678,6.09
		l-5.145-5.143c-0.029,0.031-1.219,1.209-0.942,0.937c-0.507,0.506-2.117-0.36-2.577-0.82l-7.146-7.146
		c-0.457-0.457-1.272-2.016-0.767-2.521l0,0c0.177-0.179,0.897-0.919,0.931-0.952l-5.118-5.118
		C101.803,107.08,101.793,107.09,101.779,107.102z"/>
	<path fill="#434343" d="M107.911,111.246c1.726-1.85-0.092-3.41-0.092-3.41l-1.724-1.724c0,0-1.645-1.681-3.321-0.003
		L107.911,111.246z"/>
	<path fill="#434343" d="M118.139,110.447l-2.568,2.121c-0.322,0.305-0.322,0.801,0,1.107l2.568,2.12
		c0.348,0.328,1.217,0.447,1.217,0.048v-1.746h4.013c0.569,0,1.03-0.42,1.03-0.938s-0.461-0.938-1.03-0.938h-4.013v-1.727
		C119.355,110.22,118.52,110.19,118.139,110.447z"/>
</g>
<path fill="#434343" d="M123.645,123.828l-1.744-1.746c0,0-1.346-2.034-3.4-0.082l5.122,5.123
	C125.498,125.246,123.645,123.828,123.645,123.828z"/>
</svg>
