<?xml version="1.0" encoding="utf-8"?>
<!-- Generator: Adobe Illustrator 15.0.0, SVG Export Plug-In . SVG Version: 6.00 Build 0)  -->
<!DOCTYPE svg PUBLIC "-//W3C//DTD SVG 1.0//EN" "http://www.w3.org/TR/2001/REC-SVG-20010904/DTD/svg10.dtd">
<svg version="1.0" id="Layer_1" xmlns="http://www.w3.org/2000/svg" xmlns:xlink="http://www.w3.org/1999/xlink" x="0px" y="0px"
	 width="220px" height="227px" viewBox="0 0 220 227" enable-background="new 0 0 220 227" xml:space="preserve">
<path fill="#434343" d="M134.705,95.363c-0.512-0.225-1.033-0.393-1.562-0.507c-0.569-0.123-1.147-0.187-1.732-0.182
	c-0.421,0.003-0.831,0.051-1.234,0.12c-0.711,0.124-1.384,0.349-2.007,0.658c-1.265,0.631-2.296,1.619-2.944,2.861
	c-0.074,0.14-0.158,0.273-0.223,0.42l-0.715,1.663l-1.855,4.313l-0.91,2.119l-1.855,4.312l-0.911,2.117l-1.019,2.364
	c-0.465,1.08,0.021,2.341,1.08,2.81c0.271,0.119,0.558,0.179,0.853,0.177c0.834-0.007,1.59-0.515,1.924-1.291l0.074-0.176
	l0.911-2.117l1.855-4.312l0.912-2.117l1.854-4.314l0.912-2.117l0.746-1.736c0.326-0.754,1.058-1.27,1.971-1.428
	c0.186-0.032,0.373-0.055,0.57-0.057c0.539-0.004,1.098,0.113,1.613,0.342c0.387,0.17,0.723,0.394,1.016,0.648l0.93,1.238
	c0.285,0.648,0.337,1.349,0.066,1.977c-0.178,0.413-0.215,0.852-0.137,1.264c0.119,0.627,0.52,1.184,1.115,1.487
	c0.037,0.019,0.064,0.042,0.104,0.059c0.732,0.323,1.584,0.151,2.184-0.345c0.248-0.205,0.459-0.461,0.592-0.77
	c0.24-0.56,0.387-1.137,0.465-1.717C139.756,100.025,137.928,96.783,134.705,95.363z M121.006,116.264l-1.593-2.124l0.91-2.118
	l1.594,2.124L121.006,116.264z M123.771,109.834l-1.594-2.125l0.912-2.118l1.594,2.125L123.771,109.834z M126.54,103.403
	l-1.595-2.125l0.912-2.118l1.594,2.125L126.54,103.403z M131.389,97.985c-0.418,0.004-0.818,0.068-1.191,0.178l-1.459-1.945
	c0.641-0.293,1.348-0.473,2.094-0.541l1.889,2.516C132.279,98.067,131.833,97.983,131.389,97.985z M136.486,105.08
	c-0.582-0.258-0.848-0.952-0.588-1.55c0.113-0.264,0.179-0.537,0.219-0.812l1.602,2.136
	C137.389,105.153,136.904,105.263,136.486,105.08z M134.123,96.166c0.066,0.027,0.134,0.047,0.2,0.076
	c2.448,1.078,3.983,3.346,4.118,5.681L134.123,96.166z"/>
</svg>
