<?xml version="1.0" encoding="utf-8"?>
<!-- Generator: Adobe Illustrator 15.0.0, SVG Export Plug-In . SVG Version: 6.00 Build 0)  -->
<!DOCTYPE svg PUBLIC "-//W3C//DTD SVG 1.0//EN" "http://www.w3.org/TR/2001/REC-SVG-20010904/DTD/svg10.dtd">
<svg version="1.0" id="Layer_1" xmlns="http://www.w3.org/2000/svg" xmlns:xlink="http://www.w3.org/1999/xlink" x="0px" y="0px"
	 width="220px" height="227px" viewBox="0 0 220 227" enable-background="new 0 0 220 227" xml:space="preserve">
<g>
	<rect x="118.131" y="104.132" fill="#434343" width="1" height="2.916"/>
	<path fill="#434343" d="M121.173,106.039c0.154-3.906-1.391-5.051-2.272-5.051c-0.916,1.764-2.865,2.246-3.283,5.088
		c-1.854-3.646,2.336-4.408,2.547-8.953C118.518,97.123,124.372,102.458,121.173,106.039z"/>
	<path fill="#434343" d="M122.029,108.175c0,0-0.773,0.957-3.356,0.957s-3.524-0.957-3.524-0.957c-0.562,0-1.018,0.447-1.018,1
		v10.75c0,0.552,0.455,1,1.018,1h6.883c0.562,0,1.018-0.448,1.018-1v-10.75C123.047,108.623,122.591,108.175,122.029,108.175z
		 M121.173,119.175h-1.083v-9.084h1.083V119.175z"/>
</g>
</svg>
