<?xml version="1.0" encoding="utf-8"?>
<!-- Generator: Adobe Illustrator 15.0.0, SVG Export Plug-In . SVG Version: 6.00 Build 0)  -->
<!DOCTYPE svg PUBLIC "-//W3C//DTD SVG 1.0//EN" "http://www.w3.org/TR/2001/REC-SVG-20010904/DTD/svg10.dtd">
<svg version="1.0" id="Layer_1" xmlns="http://www.w3.org/2000/svg" xmlns:xlink="http://www.w3.org/1999/xlink" x="0px" y="0px"
	 width="220px" height="227px" viewBox="0 0 220 227" enable-background="new 0 0 220 227" xml:space="preserve">
<g>
	<path fill="#434343" d="M115.059,113.028c-1.348,0-2.438,1.091-2.438,2.438s1.091,2.438,2.438,2.438
		c1.346,0,2.438-1.092,2.438-2.438C117.495,114.119,116.404,113.028,115.059,113.028z M115.059,116.872
		c-0.777,0-1.406-0.63-1.406-1.406s0.629-1.405,1.406-1.405c0.775,0,1.405,0.629,1.405,1.405S115.834,116.872,115.059,116.872z"/>
	<rect x="115.652" y="103.122" fill="#434343" width="0.969" height="4.281"/>
	<rect x="114.62" y="105.091" fill="#434343" width="1.938" height="2.438"/>
	<g>
		<path fill="#434343" d="M101.589,108.091c-2.745,0-4.969,2.195-4.969,4.905c0,2.71,2.224,4.907,4.969,4.907
			c2.744,0,4.969-2.196,4.969-4.907C106.558,110.286,104.333,108.091,101.589,108.091z M101.589,115.125
			c-1.188,0-2.154-0.952-2.154-2.128c0-1.175,0.966-2.128,2.154-2.128c1.189,0,2.155,0.953,2.155,2.128
			C103.744,114.173,102.779,115.125,101.589,115.125z"/>
		<path fill="#434343" d="M119.559,108.493c0-0.74-0.597-1.34-1.332-1.34l-7.25-1c-0.898-2.496-3.034-7.094-3.871-7.094l-8.154,1
			c-1.486,0-1.299,6.98-1.299,6.98c1.006-0.581,2.785-0.919,4.031-0.919c3.779,0,6.844,3.063,6.844,6.845
			c0,0.719-0.112,1.41-0.317,2.062h3.145c0.219-1.863,1.783-3.312,3.705-3.312s3.485,1.448,3.705,3.312h0.463
			c0.735,0,1.332-0.6,1.332-1.339L119.559,108.493z M103.683,105.028h-2.095v-4h2.095V105.028z M106.683,105.028h-2.095v-4h2.095
			V105.028z M112.652,110.091h-1.062v-2.125h1.062V110.091z M114.652,110.091h-1.062v-2.125h1.062V110.091z M116.652,110.091h-1.062
			v-2.125h1.062V110.091z"/>
	</g>
</g>
</svg>
