<?xml version="1.0" encoding="utf-8"?>
<!-- Generator: Adobe Illustrator 15.0.0, SVG Export Plug-In . SVG Version: 6.00 Build 0)  -->
<!DOCTYPE svg PUBLIC "-//W3C//DTD SVG 1.0//EN" "http://www.w3.org/TR/2001/REC-SVG-20010904/DTD/svg10.dtd">
<svg version="1.0" id="Layer_1" xmlns="http://www.w3.org/2000/svg" xmlns:xlink="http://www.w3.org/1999/xlink" x="0px" y="0px"
	 width="220px" height="227px" viewBox="0 0 220 227" enable-background="new 0 0 220 227" xml:space="preserve">
<g>
	<circle fill="#434343" cx="96.61" cy="116.143" r="2.427"/>
	<circle fill="#434343" cx="109.548" cy="116.091" r="2.438"/>
	<path fill="#434343" d="M113.923,111.539l-0.875-2.949c0-0.584-1.366-2-3.055-2h-7.892c-1.688,0-3.056,1.625-3.056,2l-1.291,2.888
		l-1.168,0.16c-3.014,0-4.457,1.432-4.457,3.196l-1,2.631h1.896c-0.175-0.412-0.271-0.865-0.271-1.344
		c0-1.916,1.971-3.74,3.887-3.74s3.781,1.824,3.781,3.74c0,0.479-0.098,0.932-0.271,1.344h5.938
		c-0.174-0.412-0.271-0.865-0.271-1.344c0-1.916,1.209-3.74,3.761-3.74c2.553,0,3.696,1.824,3.696,3.74
		c0,0.479-0.097,0.932-0.271,1.344h2.043v-3.646C115.048,112.926,114.931,112.119,113.923,111.539z M105.091,111.59h-6
		c0,0,0.75-1.717,1.125-2.782c0.363-1.037,1.459-1.302,2-1.302s2.875,0,2.875,0V111.59z M105.966,111.59v-4.041c0,0,3.166,0,4.041,0
		c1.166,0,1.834,1.166,1.834,1.166l0.791,2.875H105.966z"/>
</g>
</svg>
