<?xml version="1.0" encoding="utf-8"?>
<!-- Generator: Adobe Illustrator 15.0.0, SVG Export Plug-In . SVG Version: 6.00 Build 0)  -->
<!DOCTYPE svg PUBLIC "-//W3C//DTD SVG 1.0//EN" "http://www.w3.org/TR/2001/REC-SVG-20010904/DTD/svg10.dtd">
<svg version="1.0" id="Layer_1" xmlns="http://www.w3.org/2000/svg" xmlns:xlink="http://www.w3.org/1999/xlink" x="0px" y="0px"
	 width="220px" height="227px" viewBox="0 0 220 227" enable-background="new 0 0 220 227" xml:space="preserve">
<g>
	<g>
		<path fill="#434343" d="M124.641,108.979c-1.062,0-1.922-0.896-1.922-2.002v-2.901c0-1.105,0.859-2.002,1.922-2.002
			c1.062,0,1.922,0.896,1.922,2.002v2.901C126.562,108.083,125.702,108.979,124.641,108.979z"/>
	</g>
	<path fill="#434343" d="M133.5,107.042h-5.837v0.809c0,1.738-1.377,2.441-3.08,2.441c-1.702,0-3.09-0.703-3.09-2.441v-0.809h-5.826
		c-1.655,0-3,1.344-3,3v10c0,1.656,1.345,3,3,3H133.5c1.656,0,3-1.344,3-3v-10C136.5,108.385,135.156,107.042,133.5,107.042z
		 M119.578,110.833c1.175,0,2.13,0.914,2.13,2.041s-0.955,3.283-2.13,3.283s-2.128-2.156-2.128-3.283
		S118.403,110.833,119.578,110.833z M124.67,120.111H114.5c0,0-0.173-4.103,2.436-4.103c0.547,0.792,1.298,1.554,2.676,1.554
		c1.379,0,2.037-0.769,2.578-1.569C125.124,115.993,124.67,120.111,124.67,120.111z M134.666,119.126H126.5v-1.125h8.166V119.126
		L134.666,119.126z M134.666,117.126H126.5V116h8.166V117.126L134.666,117.126z M134.666,115.125H126.5V114h8.166V115.125
		L134.666,115.125z"/>
</g>
</svg>
