<?xml version="1.0" encoding="utf-8"?>
<!-- Generator: Adobe Illustrator 15.0.0, SVG Export Plug-In . SVG Version: 6.00 Build 0)  -->
<!DOCTYPE svg PUBLIC "-//W3C//DTD SVG 1.0//EN" "http://www.w3.org/TR/2001/REC-SVG-20010904/DTD/svg10.dtd">
<svg version="1.0" id="Layer_1" xmlns="http://www.w3.org/2000/svg" xmlns:xlink="http://www.w3.org/1999/xlink" x="0px" y="0px"
	 width="220px" height="227px" viewBox="0 0 220 227" enable-background="new 0 0 220 227" xml:space="preserve">
<path fill="none" d="M89.021,115.541h-0.043c-0.564,0-1.021,0.422-1.021,0.941v7.116c0,0.521,0.456,0.941,1.021,0.941h0.043
	c0.562,0,1.021-0.423,1.021-0.941v-7.116C90.042,115.963,89.584,115.541,89.021,115.541z"/>
<rect x="85.959" y="113.541" fill="none" width="1.041" height="1.082"/>
<rect x="100.959" y="113.541" fill="none" width="1.041" height="1.082"/>
<path fill="none" d="M94.021,115.541h-0.044c-0.563,0-1.021,0.422-1.021,0.941v7.116c0,0.521,0.456,0.941,1.021,0.941h0.044
	c0.562,0,1.021-0.423,1.021-0.941v-7.116C95.042,115.963,94.584,115.541,94.021,115.541z"/>
<path fill="#434343" d="M104.854,112.541h-2.885l-2.602-5.441c-0.228-0.475-0.788-0.666-1.254-0.428l-0.105,0.055
	c-0.466,0.238-0.659,0.816-0.433,1.291l2.162,4.523H88.285l2.207-4.516c0.23-0.472,0.042-1.052-0.422-1.295l-0.105-0.056
	c-0.464-0.241-1.026-0.057-1.258,0.416l-2.664,5.449h-2.959c-0.6,0-1.084,0.451-1.084,1.006v0.818c0,0.555,0.484,1.006,1.084,1.006
	h1.083l0.672,9.17c0,0,0.078,1.959,3.161,1.959c2.413,0,5.786,0,8.958,0l2.021-1.959h-0.001c-0.563,0-1.021-0.422-1.021-0.94v-7.117
	c0-0.52,0.456-0.941,1.021-0.941h0.043c0.562,0,1.021,0.423,1.021,0.941v7.029l2.979-2.887l0.354,0.416l0.333-5.67h1.146
	c0.601,0,1.084-0.451,1.084-1.007v-0.817C105.938,112.992,105.453,112.541,104.854,112.541z M87,114.623h-1.041v-1.082H87V114.623z
	 M90.042,123.6c0,0.521-0.458,0.941-1.021,0.941h-0.043c-0.564,0-1.021-0.422-1.021-0.941v-7.116c0-0.521,0.456-0.941,1.021-0.941
	h0.043c0.562,0,1.021,0.423,1.021,0.941V123.6z M95.042,123.6c0,0.521-0.458,0.941-1.021,0.941h-0.044
	c-0.563,0-1.021-0.422-1.021-0.941v-7.116c0-0.521,0.456-0.941,1.021-0.941h0.044c0.562,0,1.021,0.423,1.021,0.941V123.6z
	 M102,114.623h-1.041v-1.082H102V114.623z"/>
<polygon fill="#434343" points="102.977,122.525 100.055,125.475 102.023,125.469 102.023,128.494 103.943,128.494 103.93,125.463 
	105.914,125.479 "/>
</svg>
