<?xml version="1.0" encoding="utf-8"?>
<!-- Generator: Adobe Illustrator 15.0.0, SVG Export Plug-In . SVG Version: 6.00 Build 0)  -->
<!DOCTYPE svg PUBLIC "-//W3C//DTD SVG 1.0//EN" "http://www.w3.org/TR/2001/REC-SVG-20010904/DTD/svg10.dtd">
<svg version="1.0" id="Layer_1" xmlns="http://www.w3.org/2000/svg" xmlns:xlink="http://www.w3.org/1999/xlink" x="0px" y="0px"
	 width="220px" height="227px" viewBox="0 0 220 227" enable-background="new 0 0 220 227" xml:space="preserve">
<g>
	<path fill="#434343" d="M119.833,117.541c0,0.482-0.396,0.874-0.886,0.874h-17.729c-0.489,0-0.886-0.392-0.886-0.874l0,0
		c0-0.482,0.396-0.874,0.886-0.874h17.729C119.438,116.667,119.833,117.059,119.833,117.541L119.833,117.541z"/>
	<path fill="#434343" d="M118,97.479c0,0.563-0.447,1.021-1,1.021h-5.917c-0.553,0-1-0.458-1-1.021v-1.873
		c0-0.563,0.447-1.021,1-1.021H117c0.553,0,1,0.457,1,1.021V97.479z"/>
	<rect x="113.042" y="96.417" fill="#434343" width="1.875" height="5.166"/>
	<path fill="#434343" d="M117.917,101.572c0-0.546-0.447-0.989-1-0.989h-13.833c-0.553,0-1,0.443-1,0.989l-1,12.772
		c0,0.546,0.447,0.988,1,0.988h15.833c0.553,0,1-0.442,1-0.988L117.917,101.572z M105.083,112.542h-1.125v-1.125h1.125V112.542z
		 M105.083,110.542h-1.125v-1.125h1.125V110.542z M105.042,108.542h-1.084v-1.062h1.084V108.542z M107.083,112.542h-1.125v-1.125
		h1.125V112.542z M107.083,110.542h-1.125v-1.125h1.125V110.542z M107.042,108.542h-1.084v-1.062h1.084V108.542z M109.083,112.542
		h-1.125v-1.125h1.125V112.542z M109.083,110.542h-1.125v-1.125h1.125V110.542z M109.083,108.542h-1.125v-1.125h1.125V108.542z
		 M111.083,112.542h-1.125v-1.125h1.125V112.542z M111.083,110.542h-1.125v-1.125h1.125V110.542z M111.083,108.542h-1.125v-1.125
		h1.125V108.542z M111.042,105.562H104v-2.146h7.042V105.562z M116.021,107.562h-3.062v-1.104h3.062V107.562z"/>
</g>
</svg>
