<?xml version="1.0" encoding="utf-8"?>
<!-- Generator: Adobe Illustrator 15.0.0, SVG Export Plug-In . SVG Version: 6.00 Build 0)  -->
<!DOCTYPE svg PUBLIC "-//W3C//DTD SVG 1.0//EN" "http://www.w3.org/TR/2001/REC-SVG-20010904/DTD/svg10.dtd">
<svg version="1.0" id="Layer_1" xmlns="http://www.w3.org/2000/svg" xmlns:xlink="http://www.w3.org/1999/xlink" x="0px" y="0px"
	 width="220px" height="227px" viewBox="0 0 220 227" enable-background="new 0 0 220 227" xml:space="preserve">
<g>
	<g>
		<ellipse fill="#434343" cx="97.003" cy="121.463" rx="1.957" ry="1.906"/>
		<ellipse fill="#434343" cx="109.003" cy="121.463" rx="1.957" ry="1.906"/>
		<path fill="#434343" d="M113.016,116.516H94.969v-10.237l-3.172-4.368c-0.324-0.444-0.945-0.542-1.389-0.219
			s-0.541,0.946-0.218,1.393l2.849,3.901v9.53h-0.055c-0.554,0-1,0.44-1,0.984c0,0.543,0.446,0.984,1,0.984h20.03
			c0.554,0,1-0.441,1-0.984C114.016,116.956,113.568,116.516,113.016,116.516z"/>
	</g>
	<path fill="#434343" d="M106.736,109.528h-1.799v-3.917c0-0.548-0.435-0.992-0.97-0.992S103,105.062,103,105.611v3.917h-1.785
		c-0.314,0.314-0.364,0.875-0.049,1.189l2.189,2.514c0.314,0.314,0.825,0.314,1.143,0l2.189-2.514
		C107.002,110.403,107.051,109.844,106.736,109.528z"/>
</g>
</svg>
