<?xml version="1.0" encoding="utf-8"?>
<!-- Generator: Adobe Illustrator 15.0.0, SVG Export Plug-In . SVG Version: 6.00 Build 0)  -->
<!DOCTYPE svg PUBLIC "-//W3C//DTD SVG 1.0//EN" "http://www.w3.org/TR/2001/REC-SVG-20010904/DTD/svg10.dtd">
<svg version="1.0" id="Layer_1" xmlns="http://www.w3.org/2000/svg" xmlns:xlink="http://www.w3.org/1999/xlink" x="0px" y="0px"
	 width="220px" height="227px" viewBox="0 0 220 227" enable-background="new 0 0 220 227" xml:space="preserve">
<g>
	<polygon fill="#434343" points="129,128.043 126.446,125.539 128.904,123.035 127.417,121.578 124.962,124.08 122.412,121.576 
		120.98,123.033 123.53,125.539 121.075,128.041 122.562,129.5 125.018,126.996 127.566,129.5 	"/>
	<path fill="#434343" d="M127.864,114.535h-2.886l-2.602-5.441c-0.229-0.475-0.788-0.666-1.254-0.426l-0.106,0.053
		c-0.465,0.238-0.657,0.816-0.432,1.291l2.162,4.523h-11.452l2.207-4.514c0.23-0.474,0.042-1.054-0.422-1.296l-0.105-0.055
		c-0.464-0.244-1.025-0.059-1.259,0.414l-2.663,5.449h-2.959c-0.6,0-1.084,0.451-1.084,1.006v0.953c0,0.555,0.484,1.006,1.084,1.006
		h1.083l0.672,9.035c0,0,0.078,1.959,3.161,1.959c2.314,0,7.542,0,7.542,0l2.416-2.625l0.042-0.554l-2.25-2.25l2.208-2.28v-2.31
		c0-0.52,0.456-0.94,1.021-0.94h0.042c0.562,0,1.021,0.422,1.021,0.94v1.644l2,1.916l1.416-1.375l0.25-3.16h1.146
		c0.6,0,1.083-0.451,1.083-1.006v-0.953C128.947,114.986,128.464,114.535,127.864,114.535z M110.011,116.619h-1.041v-1.084h1.041
		V116.619z M113.053,125.594c0,0.521-0.458,0.941-1.021,0.941h-0.042c-0.564,0-1.021-0.422-1.021-0.941v-7.117
		c0-0.52,0.456-0.94,1.021-0.94h0.042c0.562,0,1.021,0.422,1.021,0.94V125.594z M118.068,125.672c0,0.521-0.458,0.941-1.021,0.941
		h-0.043c-0.563,0-1.021-0.422-1.021-0.941v-0.006c-0.002-0.025-0.017-0.047-0.017-0.072v-7.117c0-0.52,0.456-0.94,1.021-0.94h0.042
		c0.562,0,1.021,0.422,1.021,0.94v0.009c0.002,0.022,0.017,0.045,0.017,0.069L118.068,125.672L118.068,125.672z M125.011,116.619
		h-1.041v-1.084h1.041V116.619z"/>
</g>
</svg>
