<?xml version="1.0" encoding="utf-8"?>
<!-- Generator: Adobe Illustrator 15.0.0, SVG Export Plug-In . SVG Version: 6.00 Build 0)  -->
<!DOCTYPE svg PUBLIC "-//W3C//DTD SVG 1.0//EN" "http://www.w3.org/TR/2001/REC-SVG-20010904/DTD/svg10.dtd">
<svg version="1.0" id="Layer_1" xmlns="http://www.w3.org/2000/svg" xmlns:xlink="http://www.w3.org/1999/xlink" x="0px" y="0px"
	 width="220px" height="227px" viewBox="0 0 220 227" enable-background="new 0 0 220 227" xml:space="preserve">
<g>
	<g>
		<ellipse fill="#434343" cx="119.003" cy="134.463" rx="1.957" ry="1.906"/>
		<ellipse fill="#434343" cx="131.003" cy="134.463" rx="1.957" ry="1.906"/>
		<path fill="#434343" d="M135.016,129.516h-18.047v-10.237l-3.172-4.368c-0.324-0.444-0.945-0.542-1.389-0.219
			s-0.541,0.946-0.218,1.393l2.849,3.901v9.53h-0.055c-0.554,0-1,0.44-1,0.984c0,0.543,0.446,0.984,1,0.984h20.03
			c0.554,0,1-0.441,1-0.984C136.016,129.956,135.568,129.516,135.016,129.516z"/>
	</g>
	<path fill="#434343" d="M128.768,120.257l-2.188-2.513c-0.315-0.314-0.826-0.314-1.144,0l-2.188,2.513
		c-0.314,0.315-0.363,0.876-0.049,1.19H125v3.922c0,0.559,0.434,1.01,0.969,1.01s0.969-0.451,0.969-1.01v-3.922h1.781
		C129.034,121.132,129.083,120.572,128.768,120.257z"/>
</g>
</svg>
