<?xml version="1.0" encoding="utf-8"?>
<!-- Generator: Adobe Illustrator 15.0.0, SVG Export Plug-In . SVG Version: 6.00 Build 0)  -->
<!DOCTYPE svg PUBLIC "-//W3C//DTD SVG 1.0//EN" "http://www.w3.org/TR/2001/REC-SVG-20010904/DTD/svg10.dtd">
<svg version="1.0" id="Layer_1" xmlns="http://www.w3.org/2000/svg" xmlns:xlink="http://www.w3.org/1999/xlink" x="0px" y="0px"
	 width="220px" height="227px" viewBox="0 0 220 227" enable-background="new 0 0 220 227" xml:space="preserve">
<g>
	<path fill="#434343" d="M111.766,107.469c-1.334,0-2.416,1.082-2.416,2.417s1.082,2.417,2.416,2.417s2.416-1.082,2.416-2.417
		S113.1,107.469,111.766,107.469z M111.85,111.43c-0.863,0-1.562-0.682-1.562-1.522s0.699-1.523,1.562-1.523
		s1.562,0.683,1.562,1.523S112.713,111.43,111.85,111.43z"/>
	<path fill="#434343" d="M122.787,107.469c-1.348,0-2.438,1.092-2.438,2.438c0,1.346,1.09,2.438,2.438,2.438
		c1.347,0,2.438-1.092,2.438-2.438C125.226,108.561,124.133,107.469,122.787,107.469z M122.787,111.49
		c-0.875,0-1.584-0.709-1.584-1.584s0.709-1.584,1.584-1.584s1.584,0.709,1.584,1.584S123.662,111.49,122.787,111.49z"/>
	<path fill="#434343" d="M127.281,100.463H126.4l-0.988,4.125h-16.174l-0.92-4.125h-0.891c-1.111,0-2.012,0.896-2.012,2
		l-0.066,11.818c0,1.104,0.9,2,2.01,2h0.928v-1.938h1.125v1.938h15.875v-1.938h1.125v1.938h0.802c1.11,0,2.012-0.896,2.012-2
		l0.066-11.818C129.291,101.359,128.391,100.463,127.281,100.463z M111.799,113.656c-2.043,0-3.699-1.638-3.699-3.656
		c0-2.02,1.656-3.656,3.699-3.656c2.045,0,3.701,1.637,3.701,3.656C115.5,112.019,113.844,113.656,111.799,113.656z
		 M122.799,113.656c-2.043,0-3.699-1.638-3.699-3.656c0-2.02,1.656-3.656,3.699-3.656c2.045,0,3.701,1.637,3.701,3.656
		C126.5,112.019,124.844,113.656,122.799,113.656z"/>
	<path fill="#434343" d="M109.541,100.463l0.789,2.943h13.842l1.096-2.943H109.541z M113.381,102.521h-1.189v-1.229h1.189V102.521z
		 M122.408,102.632h-1.285v-1.451h1.285V102.632z"/>
</g>
</svg>
