<?xml version="1.0" encoding="utf-8"?>
<!-- Generator: Adobe Illustrator 15.0.0, SVG Export Plug-In . SVG Version: 6.00 Build 0)  -->
<!DOCTYPE svg PUBLIC "-//W3C//DTD SVG 1.0//EN" "http://www.w3.org/TR/2001/REC-SVG-20010904/DTD/svg10.dtd">
<svg version="1.0" id="Layer_1" xmlns="http://www.w3.org/2000/svg" xmlns:xlink="http://www.w3.org/1999/xlink" x="0px" y="0px"
	 width="220px" height="227px" viewBox="0 0 220 227" enable-background="new 0 0 220 227" xml:space="preserve">
<g>
	<path fill="#434343" d="M106.181,111.632c0.866,0.762,1.992,1.224,3.227,1.224c2.729,0,4.936-2.236,4.936-4.994
		c0-0.857-0.213-1.661-0.588-2.366c-0.834-1.563-2.469-2.63-4.348-2.63c-2.726,0-4.934,2.236-4.934,4.996
		C104.474,109.368,105.137,110.718,106.181,111.632z M111.876,111.011l-2.167-2.179c0.334-0.116,0.571-0.412,0.633-0.777l2.22,2.23
		C112.366,110.554,112.137,110.797,111.876,111.011z M109.811,103.959c0.33,0.033,0.648,0.122,0.958,0.237l-0.649,3.033
		c-0.18-0.209-0.433-0.344-0.723-0.344c-0.08,0-0.15,0.026-0.225,0.047L109.811,103.959z M105.633,108.697l2.87-1.008
		c-0.012,0.059-0.034,0.11-0.034,0.172c0,0.313,0.152,0.584,0.377,0.768l-2.889,1.015c-0.085-0.168-0.172-0.339-0.231-0.523
		C105.68,108.98,105.663,108.837,105.633,108.697z"/>
	<path fill="#434343" d="M123.395,112.839c1.216,0,2.328-0.428,3.197-1.137c1.102-0.902,1.803-2.26,1.803-3.779
		c0-2.715-2.236-4.918-5-4.918c-1.904,0-3.56,1.049-4.403,2.59c-0.379,0.693-0.597,1.484-0.597,2.328
		C118.395,110.638,120.633,112.839,123.395,112.839z M125.971,111.023l-2.194-2.164c0.338-0.117,0.579-0.41,0.642-0.773l2.247,2.218
		C126.467,110.57,126.232,110.81,125.971,111.023z M123.877,104.015c0.336,0.032,0.657,0.121,0.973,0.235l-0.658,3.015
		c-0.182-0.207-0.438-0.343-0.73-0.343c-0.082,0-0.152,0.027-0.229,0.048L123.877,104.015z M119.727,109.181
		c-0.047-0.14-0.062-0.281-0.094-0.422l2.871-1.009c-0.013,0.06-0.035,0.111-0.035,0.172c0,0.314,0.152,0.584,0.377,0.769
		l-2.889,1.014C119.873,109.536,119.786,109.366,119.727,109.181z"/>
	<path fill="#434343" d="M119.477,112.509c-1.416-1.224-2.315-3.026-2.315-5.043c0-0.878,0.175-1.713,0.481-2.479h-2.494
		c0.31,0.768,0.479,1.603,0.479,2.479c0,3.687-2.994,6.676-6.69,6.676c-1.276,0-2.465-0.359-3.479-0.979v5.394
		c0,1.237,0.891,2.244,1.988,2.244h17.897c1.1,0,1.987-1.007,1.987-2.244v-5.396c-1.016,0.618-2.202,0.981-3.481,0.981
		C122.176,114.143,120.648,113.524,119.477,112.509z M108.496,116.924h-1.091v-1.108h1.091V116.924z M110.49,116.924h-1.09v-1.108
		h1.09V116.924z M117.508,113.945h-2.162v-1.168h2.162V113.945z M123.489,116.945h-1.162v-1.125h1.162V116.945z M124.321,115.82
		h1.163v1.125h-1.163V115.82z"/>
</g>
</svg>
