<?xml version="1.0" encoding="utf-8"?>
<!-- Generator: Adobe Illustrator 15.0.0, SVG Export Plug-In . SVG Version: 6.00 Build 0)  -->
<!DOCTYPE svg PUBLIC "-//W3C//DTD SVG 1.0//EN" "http://www.w3.org/TR/2001/REC-SVG-20010904/DTD/svg10.dtd">
<svg version="1.0" id="Layer_1" xmlns="http://www.w3.org/2000/svg" xmlns:xlink="http://www.w3.org/1999/xlink" x="0px" y="0px"
	 width="220px" height="227px" viewBox="0 0 220 227" enable-background="new 0 0 220 227" xml:space="preserve">
<g>
	<path fill="#434343" d="M116.008,117.5h-8l-1-11c0,0-0.582-2,5-2c5.584,0,5,2,5,2L116.008,117.5z"/>
	<polygon fill="#434343" points="117.926,128.5 117.092,128.5 116.092,123.666 117.926,123.666 	"/>
	<polygon fill="#434343" points="106.926,128.5 106.092,128.5 106.092,123.666 107.926,123.666 	"/>
	<path fill="#434343" d="M118.967,121.447c0,0.559-0.44,1.011-0.986,1.011h-11.944c-0.543,0-0.984-0.452-0.984-1.011
		c0,0,0.75-2.947,1.984-2.947h9.944C118.383,118.5,118.967,121.447,118.967,121.447z"/>
	<path fill="#434343" d="M119.926,116.471c0,0.522-0.412,0.946-0.918,0.946l0,0c-0.506,0-0.916-0.424-0.916-0.946v-4.022
		c0-0.523,0.41-0.947,0.916-0.947l0,0c0.506,0,0.918,0.424,0.918,0.947V116.471z"/>
	<path fill="#434343" d="M105.926,116.471c0,0.522-0.412,0.946-0.918,0.946l0,0c-0.506,0-0.916-0.424-0.916-0.946v-4.022
		c0-0.523,0.41-0.947,0.916-0.947l0,0c0.506,0,0.918,0.424,0.918,0.947V116.471z"/>
</g>
</svg>
