<?xml version="1.0" encoding="utf-8"?>
<!-- Generator: Adobe Illustrator 15.0.0, SVG Export Plug-In . SVG Version: 6.00 Build 0)  -->
<!DOCTYPE svg PUBLIC "-//W3C//DTD SVG 1.0//EN" "http://www.w3.org/TR/2001/REC-SVG-20010904/DTD/svg10.dtd">
<svg version="1.0" id="Layer_1" xmlns="http://www.w3.org/2000/svg" xmlns:xlink="http://www.w3.org/1999/xlink" x="0px" y="0px"
	 width="220px" height="227px" viewBox="0 0 220 227" enable-background="new 0 0 220 227" xml:space="preserve">
<g>
	<path fill="#444444" d="M117.417,114.053h-8l-1-11c0,0-0.583-2,5-2s5,2,5,2L117.417,114.053z"/>
	<path fill="#444444" d="M120.375,118c0,0.561-0.441,1.012-0.985,1.012h-11.944c-0.543,0-0.984-0.451-0.984-1.012
		c0,0,0.75-2.946,1.984-2.946h9.944C119.792,115.053,120.375,118,120.375,118z"/>
	<path fill="#444444" d="M121.334,113.023c0,0.521-0.411,0.945-0.917,0.945l0,0c-0.506,0-0.917-0.425-0.917-0.945V109
		c0-0.521,0.411-0.946,0.917-0.946l0,0c0.506,0,0.917,0.425,0.917,0.946V113.023z"/>
	<path fill="#444444" d="M107.334,113.023c0,0.521-0.411,0.945-0.917,0.945l0,0c-0.506,0-0.917-0.425-0.917-0.945V109
		c0-0.521,0.411-0.946,0.917-0.946l0,0c0.506,0,0.917,0.425,0.917,0.946V113.023z"/>
	<rect x="112.459" y="120.053" fill="#444444" width="1.958" height="5"/>
	<path fill="#444444" d="M118.375,125.012h-10c0-1.082,2.238-1.959,5.001-1.959C116.137,123.053,118.375,123.93,118.375,125.012z"/>
</g>
</svg>
