<?xml version="1.0" encoding="utf-8"?>
<!-- Generator: Adobe Illustrator 15.0.0, SVG Export Plug-In . SVG Version: 6.00 Build 0)  -->
<!DOCTYPE svg PUBLIC "-//W3C//DTD SVG 1.0//EN" "http://www.w3.org/TR/2001/REC-SVG-20010904/DTD/svg10.dtd">
<svg version="1.0" id="Layer_1" xmlns="http://www.w3.org/2000/svg" xmlns:xlink="http://www.w3.org/1999/xlink" x="0px" y="0px"
	 width="220px" height="227px" viewBox="0 0 220 227" enable-background="new 0 0 220 227" xml:space="preserve">
<path fill="#434343" d="M126.917,118.584c0,0.506-0.41,0.916-0.917,0.916h-22c-0.507,0-0.917-0.41-0.917-0.916l0,0
	c0-0.507,0.41-0.917,0.917-0.917h22C126.507,117.667,126.917,118.077,126.917,118.584L126.917,118.584z"/>
<path fill="#434343" d="M108.916,115.384c0,0.569-0.49,1.033-1.095,1.033h-1.645c-0.604,0-1.095-0.464-1.095-1.033V108.7
	c0-0.57,0.49-1.033,1.095-1.033h1.645c0.604,0,1.095,0.463,1.095,1.033V115.384z"/>
<path fill="#434343" d="M116.916,115.395c0,0.563-0.49,1.022-1.095,1.022h-1.645c-0.604,0-1.095-0.459-1.095-1.022v-8.702
	c0-0.565,0.49-1.024,1.095-1.024h1.645c0.604,0,1.095,0.459,1.095,1.024V115.395z"/>
<path fill="#434343" d="M124.916,115.396c0,0.562-0.49,1.021-1.095,1.021h-1.645c-0.604,0-1.095-0.458-1.095-1.021v-12.791
	c0-0.562,0.49-1.021,1.095-1.021h1.645c0.604,0,1.095,0.458,1.095,1.021V115.396z"/>
<g>
	<path fill="#434343" d="M104.086,106.487c-0.535,0-0.979-0.425-0.998-0.963c-0.021-0.552,0.409-1.017,0.962-1.036
		c7.079-0.266,13.816-3.048,18.484-7.633c0.395-0.387,1.025-0.383,1.415,0.013c0.387,0.396,0.381,1.027-0.014,1.415
		c-5.094,5.002-12.13,7.915-19.812,8.203C104.111,106.487,104.099,106.487,104.086,106.487z"/>
</g>
</svg>
