<?xml version="1.0" encoding="utf-8"?>
<!-- Generator: Adobe Illustrator 15.0.0, SVG Export Plug-In . SVG Version: 6.00 Build 0)  -->
<!DOCTYPE svg PUBLIC "-//W3C//DTD SVG 1.0//EN" "http://www.w3.org/TR/2001/REC-SVG-20010904/DTD/svg10.dtd">
<svg version="1.0" id="Layer_1" xmlns="http://www.w3.org/2000/svg" xmlns:xlink="http://www.w3.org/1999/xlink" x="0px" y="0px"
	 width="220px" height="227px" viewBox="0 0 220 227" enable-background="new 0 0 220 227" xml:space="preserve">
<g>
	<path fill="#434343" d="M112.877,93.159H98.711c-1.584,0-2.869,1.662-2.869,3.711v8.331c0,2.049,1.285,3.71,2.869,3.71h8.779
		l-3.254,8.248l7.723-8.248h0.918c1.584,0,2.869-1.661,2.869-3.71V96.87C115.746,94.821,114.461,93.159,112.877,93.159z
		 M100.088,103c-1.067,0-1.936-0.879-1.936-1.965c0-1.085,0.867-1.964,1.936-1.964c1.072,0,1.938,0.879,1.938,1.964
		C102.025,102.121,101.16,103,100.088,103z M105.793,103c-1.068,0-1.936-0.879-1.936-1.965c0-1.085,0.867-1.964,1.936-1.964
		c1.07,0,1.938,0.879,1.938,1.964C107.73,102.121,106.863,103,105.793,103z M111.5,103c-1.07,0-1.938-0.879-1.938-1.965
		c0-1.085,0.868-1.964,1.938-1.964c1.068,0,1.938,0.879,1.938,1.964C113.438,102.121,112.568,103,111.5,103z"/>
</g>
</svg>
