<?xml version="1.0" encoding="utf-8"?>
<!-- Generator: Adobe Illustrator 15.0.0, SVG Export Plug-In . SVG Version: 6.00 Build 0)  -->
<!DOCTYPE svg PUBLIC "-//W3C//DTD SVG 1.0//EN" "http://www.w3.org/TR/2001/REC-SVG-20010904/DTD/svg10.dtd">
<svg version="1.0" id="Layer_1" xmlns="http://www.w3.org/2000/svg" xmlns:xlink="http://www.w3.org/1999/xlink" x="0px" y="0px"
	 width="220px" height="227px" viewBox="0 0 220 227" enable-background="new 0 0 220 227" xml:space="preserve">
<g>
	<path fill="#434343" d="M91.458,99.958v11.958h7V99.958H91.458z M94.479,109.958h-2.041v-2h2.041V109.958z M94.458,106.979h-2.021
		v-2.021h2.021V106.979z M94.479,104.021h-2.041v-2.104h2.041V104.021z M97.479,110h-2.041v-2.062h2.041V110z M97.458,106.958
		h-2.021v-2.021h2.021V106.958z M97.479,103.958h-2.041v-2.021h2.041V103.958z"/>
	<path fill="#434343" d="M104.396,92.958v-2h-1v-2.875h-0.875v2.875h-1.062v2h-2v18.875h8V92.958H104.396z M101.5,111h-1.084v-2.104
		h1.084V111z M101.5,108h-1.084v-2.104h1.084V108z M101.5,104h-1.084v-2.104h1.084V104z M101.5,101h-1.084v-2.104h1.084V101z
		 M101.5,97h-1.084v-2.104h1.084V97z M104.5,111h-1.084v-2.104h1.084V111z M104.5,108h-1.084v-2.104h1.084V108z M104.5,104h-1.084
		v-2.104h1.084V104z M104.5,101h-1.084v-2.104h1.084V101z M104.5,97h-1.084v-2.104h1.084V97z M106.5,111h-1.084v-2.104h1.084V111z
		 M106.5,108h-1.084v-2.104h1.084V108z M106.5,104h-1.084v-2.104h1.084V104z M106.5,101h-1.084v-2.104h1.084V101z M106.5,97h-1.084
		v-2.104h1.084V97z"/>
	<path fill="#434343" d="M108.521,95.958v15.875h6.938V99.958L108.521,95.958z M111.489,111.021h-2.094v-1.095h2.094V111.021z
		 M111.489,109.021h-2.094v-1.095h2.094V109.021z M111.489,107.021h-2.094v-1.095h2.094V107.021z M111.489,104.021h-2.094v-1.095
		h2.094V104.021z M111.489,102.021h-2.094v-1.095h2.094V102.021z M111.489,100.021h-2.094v-1.095h2.094V100.021z M114.489,111.021
		h-2.094v-1.095h2.094V111.021z M114.489,109.021h-2.094v-1.095h2.094V109.021z M114.489,107.021h-2.094v-1.095h2.094V107.021z
		 M114.489,104.021h-2.094v-1.095h2.094V104.021z M114.489,102.021h-2.094v-1.095h2.094V102.021z"/>
</g>
</svg>
