<?xml version="1.0" encoding="utf-8"?>
<!-- Generator: Adobe Illustrator 15.0.0, SVG Export Plug-In . SVG Version: 6.00 Build 0)  -->
<!DOCTYPE svg PUBLIC "-//W3C//DTD SVG 1.0//EN" "http://www.w3.org/TR/2001/REC-SVG-20010904/DTD/svg10.dtd">
<svg version="1.0" id="Layer_1" xmlns="http://www.w3.org/2000/svg" xmlns:xlink="http://www.w3.org/1999/xlink" x="0px" y="0px"
	 width="220px" height="227px" viewBox="0 0 220 227" enable-background="new 0 0 220 227" xml:space="preserve">
<g>
	<path fill="#434343" d="M106.376,97h-2.625c-1.463,0-3.25,2.132-3.25,3.519v17.97c0,1.386,1.191,2.513,2.654,2.513h1.69
		c1.465,0,2.654-1.127,2.654-2.513V113v-6.952v-2.513c0-1.335-1.109-2.421-2.5-2.499c-1.391,0.078-2.5,1.164-2.5,2.499V113h1v-9.465
		c0-0.783,0.662-1.422,1.5-1.494c0.84,0.072,1.5,0.711,1.5,1.494v2.513V113v5.488c0,0.831-0.662,1.587-1.574,1.587h-1.69
		c-0.912,0-1.734-0.756-1.734-1.587v-17.97c0-0.831,1.402-2.578,2.314-2.578h2.625c0.911,0,2.061,1.747,2.061,2.578v13.57h1v-13.57
		C109.501,99.132,107.841,97,106.376,97z"/>
	<path fill="#434343" d="M104.847,101.021c0.054,0,0.104,0.013,0.154,0.015c0.053-0.002,0.102-0.015,0.154-0.015H104.847z"/>
</g>
</svg>
