<?xml version="1.0" encoding="utf-8"?>
<!-- Generator: Adobe Illustrator 15.0.0, SVG Export Plug-In . SVG Version: 6.00 Build 0)  -->
<!DOCTYPE svg PUBLIC "-//W3C//DTD SVG 1.0//EN" "http://www.w3.org/TR/2001/REC-SVG-20010904/DTD/svg10.dtd">
<svg version="1.0" id="Layer_1" xmlns="http://www.w3.org/2000/svg" xmlns:xlink="http://www.w3.org/1999/xlink" x="0px" y="0px"
	 width="220px" height="227px" viewBox="0 0 220 227" enable-background="new 0 0 220 227" xml:space="preserve">
<g>
	<polygon fill="#434343" points="119.001,88.583 119.001,89.334 124.189,89.334 124.189,110.542 108.895,110.542 108.895,89.334 
		113.876,89.334 113.876,88.583 108.084,88.583 108.084,111.5 125,111.5 125,88.583 	"/>
	<polygon fill="#434343" points="120.001,90.5 120.001,92.5 112.959,92.5 112.959,90.5 110.061,90.5 110.061,109.5 122.918,109.5 
		122.918,90.5 	"/>
	<path fill="#434343" d="M117.909,89.5c0.056-0.157,0.092-0.324,0.092-0.5c0-0.828-0.671-1.5-1.5-1.5s-1.5,0.672-1.5,1.5
		c0,0.176,0.036,0.343,0.092,0.5h-1.07v1v1h4.979v-1v-1H117.909z M117.042,90.541h-1.062v-1.082h1.062V90.541z"/>
</g>
</svg>
