<?xml version="1.0" encoding="utf-8"?>
<!-- Generator: Adobe Illustrator 15.0.0, SVG Export Plug-In . SVG Version: 6.00 Build 0)  -->
<!DOCTYPE svg PUBLIC "-//W3C//DTD SVG 1.0//EN" "http://www.w3.org/TR/2001/REC-SVG-20010904/DTD/svg10.dtd">
<svg version="1.0" id="Layer_1" xmlns="http://www.w3.org/2000/svg" xmlns:xlink="http://www.w3.org/1999/xlink" x="0px" y="0px"
	 width="220px" height="227px" viewBox="0 0 220 227" enable-background="new 0 0 220 227" xml:space="preserve">
<g>
	<path fill="#434343" d="M103.908,98.5C103.964,98.343,104,98.176,104,98c0-0.828-0.671-1.5-1.5-1.5c-0.828,0-1.499,0.672-1.499,1.5
		c0,0.176,0.036,0.343,0.092,0.5h-1.071v2H105v-2H103.908z M103.042,99.541h-1.062v-1.082h1.062V99.541z"/>
	<g>
		<polygon fill="#434343" points="105.001,97.583 105.001,98.334 110.189,98.334 110.189,119.562 94.895,119.562 94.895,98.146 
			99.876,98.334 99.876,97.583 94.084,97.583 94.084,120.5 111,120.5 111,97.583 		"/>
		<path fill="#434343" d="M96.061,99.5v19h12.857v-19h-2.917v2h-7.042v-2H96.061z M99.667,108.308l2.121,2.122l3.506-3.506
			l1.385,1.384l-4.891,4.893l-3.506-3.506L99.667,108.308z"/>
	</g>
</g>
</svg>
