<?xml version="1.0" encoding="utf-8"?>
<!-- Generator: Adobe Illustrator 15.0.0, SVG Export Plug-In . SVG Version: 6.00 Build 0)  -->
<!DOCTYPE svg PUBLIC "-//W3C//DTD SVG 1.0//EN" "http://www.w3.org/TR/2001/REC-SVG-20010904/DTD/svg10.dtd">
<svg version="1.0" id="Layer_1" xmlns="http://www.w3.org/2000/svg" xmlns:xlink="http://www.w3.org/1999/xlink" x="0px" y="0px"
	 width="220px" height="227px" viewBox="0 0 220 227" enable-background="new 0 0 220 227" xml:space="preserve">
<g>
	<path fill="#434343" d="M107.409,115.019c-6.049,0-10.968-4.935-10.968-10.998c0-6.066,4.919-11,10.968-11
		c6.047,0,10.966,4.934,10.966,11C118.375,110.084,113.456,115.019,107.409,115.019L107.409,115.019z M107.409,95.871
		c-4.479,0-8.125,3.655-8.125,8.149c0,4.492,3.646,8.148,8.125,8.148c4.479,0,8.123-3.656,8.123-8.148
		C115.532,99.526,111.888,95.871,107.409,95.871L107.409,95.871z"/>
	<path fill="#434343" d="M108.403,104.066c-0.131-0.584-0.436-0.956-1.036-1.039v-4.936H106.5V103
		c-0.658,0.146-1.069,0.585-1.069,1.566c0,0.887,0.641,1.419,1.433,1.419c0.021,0,1.396,0.004,1.541-1.052h3.979v-0.868
		L108.403,104.066L108.403,104.066z"/>
	<polygon fill="#434343" points="116.877,93.384 113.28,91.043 112.568,92.145 113.816,92.956 112.648,94.761 113.748,95.476 
		114.915,93.672 116.164,94.485 	"/>
</g>
</svg>
