<?xml version="1.0" encoding="utf-8"?>
<!-- Generator: Adobe Illustrator 15.0.0, SVG Export Plug-In . SVG Version: 6.00 Build 0)  -->
<!DOCTYPE svg PUBLIC "-//W3C//DTD SVG 1.0//EN" "http://www.w3.org/TR/2001/REC-SVG-20010904/DTD/svg10.dtd">
<svg version="1.0" id="Layer_1" xmlns="http://www.w3.org/2000/svg" xmlns:xlink="http://www.w3.org/1999/xlink" x="0px" y="0px"
	 width="220px" height="227px" viewBox="0 0 220 227" enable-background="new 0 0 220 227" xml:space="preserve">
<g>
	<path fill="#434343" d="M98,95.526c0-1.118-0.861-2.026-1.926-2.026h-5.096c-1.064,0-1.926,0.908-1.926,2.026v6.911
		c0,0,0.848,0.862,2.033,2.047c1.184,1.184,1.172,0.899,0.016,2.056c-1.154,1.156-2.049,2.022-2.049,2.022v6.891
		c0,1.117,0.861,2.025,1.926,2.025h5.096c1.064,0,1.926-0.908,1.926-2.025V108.5c0,0-0.803-0.797-2.021-2.014
		c-1.217-1.217-1.201-0.771,0.018-1.99C97.216,103.277,98,102.5,98,102.5V95.526z M97,101.625l-1.99,2.072
		c0,0-1.01,0.709-1.01,1.771c0,1.062,1.008,1.831,1.008,1.831L97,109.5v6c0,0.553-0.447,1-1,1h-5c-0.553,0-1-0.447-1-1v-6
		l1.994-2.16c0,0,1.006-0.871,1.006-1.902s-1.008-1.801-1.008-1.801L90,101.5v-6c0-0.553,0.447-1,1-1h5c0.553,0,1,0.447,1,1V101.625
		z"/>
	<path fill="#434343" d="M96,114.5c0,0.553-0.447,1-1,1h-3c-0.553,0-1-0.447-1-1v-4h5V114.5z"/>
	<polygon fill="#434343" points="96,100.5 93.584,103.5 91,100.5 91,99.5 96,99.5 	"/>
</g>
</svg>
