<?xml version="1.0" encoding="utf-8"?>
<!-- Generator: Adobe Illustrator 15.0.0, SVG Export Plug-In . SVG Version: 6.00 Build 0)  -->
<!DOCTYPE svg PUBLIC "-//W3C//DTD SVG 1.0//EN" "http://www.w3.org/TR/2001/REC-SVG-20010904/DTD/svg10.dtd">
<svg version="1.0" id="Layer_1" xmlns="http://www.w3.org/2000/svg" xmlns:xlink="http://www.w3.org/1999/xlink" x="0px" y="0px"
	 width="220px" height="227px" viewBox="0 0 220 227" enable-background="new 0 0 220 227" xml:space="preserve">
<g>
	<path fill="#434343" d="M113.243,91.428l-1.913,3.059h10.646c-0.207-2.142-1.587-3.802-3.272-3.802
		c-0.374,0-0.729,0.102-1.065,0.251c-1.038-1.557-2.736-2.572-4.661-2.572c-0.311,0-0.609,0.031-0.906,0.083
		c-1.02-1.697-2.795-2.824-4.819-2.824c-2.856,0-5.22,2.241-5.65,5.166c-0.024,0-0.052-0.008-0.075-0.008
		c-1.915,0-3.466,1.659-3.466,3.706h7.518l1.412-3.075L113.243,91.428z"/>
	<polygon fill="#434343" points="111.04,95.539 109.379,95.539 110.895,92.531 108.12,92.531 106.031,97.452 108.028,97.433 
		107.029,101.5 	"/>
</g>
</svg>
