<?xml version="1.0" encoding="utf-8"?>
<!-- Generator: Adobe Illustrator 15.0.0, SVG Export Plug-In . SVG Version: 6.00 Build 0)  -->
<!DOCTYPE svg PUBLIC "-//W3C//DTD SVG 1.0//EN" "http://www.w3.org/TR/2001/REC-SVG-20010904/DTD/svg10.dtd">
<svg version="1.0" id="Layer_1" xmlns="http://www.w3.org/2000/svg" xmlns:xlink="http://www.w3.org/1999/xlink" x="0px" y="0px"
	 width="220px" height="227px" viewBox="0 0 220 227" enable-background="new 0 0 220 227" xml:space="preserve">
<g>
	<path fill="#434343" d="M112.521,109.901v-1.984h2v-2h3.041v2h1.995v1.979l9.966,0.021c-0.208-2.166-1.59-3.846-3.281-3.846
		c-0.376,0-0.73,0.102-1.068,0.254c-1.041-1.575-2.744-2.604-4.674-2.604c-0.311,0-0.611,0.033-0.909,0.085
		c-1.021-1.718-2.802-2.857-4.832-2.857c-2.863,0-5.23,2.267-5.664,5.228c-0.026,0-0.051-0.009-0.076-0.009
		c-1.921,0-3.477,1.679-3.477,3.75L112.521,109.901z"/>
	<polygon fill="#434343" points="118.5,108.966 116.5,108.966 116.5,107 115.584,107 115.584,108.966 113.584,108.966 
		113.584,109.929 115.584,109.929 115.584,111.833 116.5,111.833 116.5,109.929 118.5,109.929 	"/>
</g>
</svg>
