<?xml version="1.0" encoding="utf-8"?>
<!-- Generator: Adobe Illustrator 15.0.0, SVG Export Plug-In . SVG Version: 6.00 Build 0)  -->
<!DOCTYPE svg PUBLIC "-//W3C//DTD SVG 1.0//EN" "http://www.w3.org/TR/2001/REC-SVG-20010904/DTD/svg10.dtd">
<svg version="1.0" id="Layer_1" xmlns="http://www.w3.org/2000/svg" xmlns:xlink="http://www.w3.org/1999/xlink" x="0px" y="0px"
	 width="220px" height="227px" viewBox="0 0 220 227" enable-background="new 0 0 220 227" xml:space="preserve">
<path fill="#434343" d="M109,94.014c0,0.787-0.201,1.533-0.629,2.123c-0.262,0.363-0.633,0.363-0.633,0.363H86.267
	c0,0-0.387,0-0.682-0.432c-0.367-0.6-0.586-1.299-0.586-2.055c0-2.209,1.791-4,4-4c0.102,0,0.197,0.023,0.295,0.029
	c0.303-1.475,1.611-2.588,3.178-2.588c0.443,0,0.863,0.09,1.248,0.252C94.729,85.809,96.703,84.5,99,84.5
	c3.148,0,5.703,2.434,5.951,5.518c0.018,0,0.033-0.004,0.049-0.004C107.209,90.014,109,91.805,109,94.014z"/>
</svg>
