<?xml version="1.0" encoding="utf-8"?>
<!-- Generator: Adobe Illustrator 15.0.0, SVG Export Plug-In . SVG Version: 6.00 Build 0)  -->
<!DOCTYPE svg PUBLIC "-//W3C//DTD SVG 1.0//EN" "http://www.w3.org/TR/2001/REC-SVG-20010904/DTD/svg10.dtd">
<svg version="1.0" id="Layer_1" xmlns="http://www.w3.org/2000/svg" xmlns:xlink="http://www.w3.org/1999/xlink" x="0px" y="0px"
	 width="220px" height="227px" viewBox="0 0 220 227" enable-background="new 0 0 220 227" xml:space="preserve">
<g>
	<path fill="#434343" d="M119.511,86.607c-0.375,0-0.729,0.102-1.067,0.254c-1.041-1.575-2.744-2.604-4.675-2.604
		c-0.311,0-0.61,0.033-0.907,0.085c-1.021-1.718-2.804-2.857-4.832-2.857c-2.865,0-5.232,2.267-5.666,5.228
		c-0.025,0-0.052-0.009-0.076-0.009c-1.92,0-3.476,1.679-3.476,3.75h23.98C122.585,88.287,121.202,86.607,119.511,86.607z"/>
	<path fill="#434343" d="M101.8,94.35c-0.186,0.385-0.646,0.547-1.031,0.36c-0.385-0.186-0.547-0.646-0.36-1.03
		c0.186-0.386,1.664-1.672,1.664-1.672S101.985,93.965,101.8,94.35z"/>
	<path fill="#434343" d="M103.706,98.068c-0.187,0.385-0.646,0.547-1.031,0.361c-0.385-0.187-0.547-0.646-0.361-1.031
		c0.187-0.385,1.664-1.672,1.664-1.672S103.892,97.684,103.706,98.068z"/>
	<path fill="#434343" d="M107.831,92.405c-0.187,0.384-0.646,0.546-1.031,0.36c-0.385-0.187-0.547-0.646-0.361-1.031
		c0.187-0.385,1.664-1.671,1.664-1.671S108.017,92.021,107.831,92.405z"/>
	<path fill="#434343" d="M109.571,96.249c-0.187,0.385-0.646,0.546-1.031,0.36s-0.547-0.646-0.361-1.031
		c0.187-0.385,1.664-1.671,1.664-1.671S109.757,95.864,109.571,96.249z"/>
	<path fill="#434343" d="M114.228,93.343c-0.186,0.384-0.646,0.546-1.03,0.359c-0.386-0.186-0.547-0.646-0.361-1.03
		C113.022,92.286,114.5,91,114.5,91S114.413,92.958,114.228,93.343z"/>
	<path fill="#434343" d="M112.696,99.78c-0.187,0.384-0.646,0.546-1.031,0.36c-0.385-0.187-0.547-0.646-0.361-1.031
		c0.187-0.385,1.664-1.671,1.664-1.671S112.882,99.396,112.696,99.78z"/>
	<path fill="#434343" d="M117.337,97.437c-0.184,0.384-0.646,0.546-1.029,0.36c-0.385-0.187-0.547-0.646-0.36-1.031
		c0.186-0.385,1.662-1.671,1.662-1.671S117.522,97.052,117.337,97.437z"/>
	<path fill="#434343" d="M120.649,92.187c-0.185,0.384-0.646,0.546-1.029,0.36c-0.385-0.187-0.547-0.646-0.361-1.031
		c0.187-0.385,1.662-1.671,1.662-1.671S120.835,91.802,120.649,92.187z"/>
</g>
</svg>
