<?xml version="1.0" encoding="utf-8"?>
<!-- Generator: Adobe Illustrator 15.0.0, SVG Export Plug-In . SVG Version: 6.00 Build 0)  -->
<!DOCTYPE svg PUBLIC "-//W3C//DTD SVG 1.0//EN" "http://www.w3.org/TR/2001/REC-SVG-20010904/DTD/svg10.dtd">
<svg version="1.0" id="Layer_1" xmlns="http://www.w3.org/2000/svg" xmlns:xlink="http://www.w3.org/1999/xlink" x="0px" y="0px"
	 width="220px" height="227px" viewBox="0 0 220 227" enable-background="new 0 0 220 227" xml:space="preserve">
<g>
	<path fill="#434343" d="M117.868,96.592l5.021,5h6.961c-0.208-2.166-1.591-3.846-3.281-3.846c-0.376,0-0.731,0.102-1.069,0.254
		c-1.041-1.576-2.744-2.604-4.673-2.604c-0.311,0-0.612,0.034-0.909,0.086c-1.021-1.718-2.802-2.857-4.832-2.857
		c-2.864,0-5.23,2.267-5.665,5.228c-0.025,0-0.051-0.009-0.076-0.009c-1.921,0-3.476,1.679-3.476,3.75l7-0.016L117.868,96.592z"/>
	<polygon fill="#434343" points="117.899,98.592 114.886,101.555 116.876,101.555 116.876,103.547 118.837,103.547 118.837,101.555 
		120.865,101.555 	"/>
</g>
</svg>
