<?xml version="1.0" encoding="utf-8"?>
<!-- Generator: Adobe Illustrator 15.0.0, SVG Export Plug-In . SVG Version: 6.00 Build 0)  -->
<!DOCTYPE svg PUBLIC "-//W3C//DTD SVG 1.0//EN" "http://www.w3.org/TR/2001/REC-SVG-20010904/DTD/svg10.dtd">
<svg version="1.0" id="Layer_1" xmlns="http://www.w3.org/2000/svg" xmlns:xlink="http://www.w3.org/1999/xlink" x="0px" y="0px"
	 width="220px" height="227px" viewBox="0 0 220 227" enable-background="new 0 0 220 227" xml:space="preserve">
<g>
	<path fill="#434343" d="M92.998,112.484V110.5h7.036v1.979L110,112.5c-0.208-2.166-1.59-3.846-3.281-3.846
		c-0.376,0-0.73,0.102-1.068,0.254c-1.041-1.575-2.744-2.604-4.674-2.604c-0.311,0-0.611,0.034-0.909,0.085
		c-1.021-1.717-2.802-2.856-4.832-2.856c-2.863,0-5.23,2.267-5.664,5.227c-0.026,0-0.051-0.008-0.076-0.008
		c-1.921,0-3.477,1.679-3.477,3.75L92.998,112.484z"/>
	<rect x="94.061" y="111.5" fill="#434343" width="4.916" height="0.979"/>
</g>
</svg>
