<?xml version="1.0" encoding="utf-8"?>
<!-- Generator: Adobe Illustrator 15.0.0, SVG Export Plug-In . SVG Version: 6.00 Build 0)  -->
<!DOCTYPE svg PUBLIC "-//W3C//DTD SVG 1.0//EN" "http://www.w3.org/TR/2001/REC-SVG-20010904/DTD/svg10.dtd">
<svg version="1.0" id="Layer_1" xmlns="http://www.w3.org/2000/svg" xmlns:xlink="http://www.w3.org/1999/xlink" x="0px" y="0px"
	 width="220px" height="227px" viewBox="0 0 220 227" enable-background="new 0 0 220 227" xml:space="preserve">
<g>
	<path fill="#434343" d="M133.437,96c0,3.037-2.457,5.5-5.488,5.5c-1.517,0-5.471-0.041-5.471-0.041s-0.02-3.94-0.02-5.459
		c0-3.037,2.458-5.5,5.49-5.5C130.979,90.5,133.437,92.963,133.437,96z"/>
	<path fill="#434343" d="M120.437,96c0,1.463,0,5.459,0,5.459s-3.916,0.041-5.488,0.041c-3.032,0-5.49-2.463-5.49-5.5
		s2.458-5.5,5.49-5.5C117.979,90.5,120.437,92.963,120.437,96z"/>
	<path fill="#434343" d="M120.333,109c0,3.037-2.426,5.5-5.417,5.5c-2.99,0-5.416-2.463-5.416-5.5s2.426-5.5,5.416-5.5
		c1.53,0,5.459,0.041,5.459,0.041S120.333,107.517,120.333,109z"/>
	<path fill="#434343" d="M133.411,109c0,3.037-2.449,5.5-5.469,5.5c-3.021,0-5.47-2.463-5.47-5.5c0-1.51,0.031-5.484,0.031-5.484
		s3.918-0.016,5.438-0.016C130.962,103.5,133.411,105.963,133.411,109z"/>
</g>
</svg>
