<?xml version="1.0" encoding="utf-8"?>
<!-- Generator: Adobe Illustrator 15.0.0, SVG Export Plug-In . SVG Version: 6.00 Build 0)  -->
<!DOCTYPE svg PUBLIC "-//W3C//DTD SVG 1.0//EN" "http://www.w3.org/TR/2001/REC-SVG-20010904/DTD/svg10.dtd">
<svg version="1.0" id="Layer_1" xmlns="http://www.w3.org/2000/svg" xmlns:xlink="http://www.w3.org/1999/xlink" x="0px" y="0px"
	 width="220px" height="227px" viewBox="0 0 220 227" enable-background="new 0 0 220 227" xml:space="preserve">
<g>
	<path fill="#434343" d="M116.235,87.687c-0.249-1.668-1.683-2.953-3.429-2.953c-1.924,0-3.482,1.553-3.482,3.465
		c0,1.916,1.561,3.467,3.482,3.467c0.53,0,1.029-0.123,1.478-0.338l-3.601-3.654L116.235,87.687z"/>
	<path fill="#434343" d="M124.202,97.671l9.061-8.889h-19.912l9.06,8.887v7.095l-3.05,1.939h7.813l-2.972-1.892V97.671z
		 M116.289,89.714h14.125l-2.24,2.253c0,0-1.885,0.622-5.135-0.878C120.789,90.214,119.5,93,119.5,93L116.289,89.714z"/>
</g>
</svg>
