<?xml version="1.0" encoding="utf-8"?>
<!-- Generator: Adobe Illustrator 15.0.0, SVG Export Plug-In . SVG Version: 6.00 Build 0)  -->
<!DOCTYPE svg PUBLIC "-//W3C//DTD SVG 1.0//EN" "http://www.w3.org/TR/2001/REC-SVG-20010904/DTD/svg10.dtd">
<svg version="1.0" id="Layer_1" xmlns="http://www.w3.org/2000/svg" xmlns:xlink="http://www.w3.org/1999/xlink" x="0px" y="0px"
	 width="220px" height="227px" viewBox="0 0 220 227" enable-background="new 0 0 220 227" xml:space="preserve">
<g>
	<g>
		<path fill="#434343" d="M104.308,118.838c0.291,0,0.583-0.104,0.807-0.315l5.707-5.385c0.445-0.421,0.445-1.104,0-1.522
			l-5.707-5.387c-0.446-0.42-1.167-0.42-1.614,0c-0.446,0.421-0.446,1.104,0,1.523l4.9,4.624L103.5,117
			c-0.446,0.42-0.446,1.103,0,1.521C103.724,118.733,104.016,118.838,104.308,118.838z"/>
	</g>
	<g>
		<path fill="#434343" d="M93.97,118.812c-0.289,0-0.58-0.104-0.803-0.315l-5.678-5.396c-0.441-0.421-0.441-1.104,0-1.526
			l5.678-5.396c0.444-0.422,1.162-0.422,1.606,0c0.441,0.421,0.441,1.104,0,1.525l-4.874,4.635l4.874,4.633
			c0.441,0.422,0.441,1.105,0,1.527C94.552,118.707,94.26,118.812,93.97,118.812z"/>
	</g>
	<g>
		<path fill="#434343" d="M97.269,121.826c0.361-0.078,0.666-0.356,0.748-0.733l3.987-18.124c0.112-0.514-0.219-1.014-0.739-1.118
			c-0.523-0.106-1.035,0.225-1.147,0.735l-3.987,18.123c-0.112,0.513,0.219,1.014,0.738,1.117
			C97.006,121.854,97.142,121.854,97.269,121.826z"/>
	</g>
</g>
</svg>
