<?xml version="1.0" encoding="utf-8"?>
<!-- Generator: Adobe Illustrator 15.0.0, SVG Export Plug-In . SVG Version: 6.00 Build 0)  -->
<!DOCTYPE svg PUBLIC "-//W3C//DTD SVG 1.0//EN" "http://www.w3.org/TR/2001/REC-SVG-20010904/DTD/svg10.dtd">
<svg version="1.0" id="Layer_1" xmlns="http://www.w3.org/2000/svg" xmlns:xlink="http://www.w3.org/1999/xlink" x="0px" y="0px"
	 width="220px" height="227px" viewBox="0 0 220 227" enable-background="new 0 0 220 227" xml:space="preserve">
<g>
	<path fill="#434343" d="M126.938,97.531H113c-1.656,0-3,1.34-3,2.992v16.952c0,1.652,1.344,2.992,3,2.992h0.016v1.032h2.953v-1.031
		h8.047v1.017h2.938v-1.019c1.647-0.008,2.983-1.344,2.983-2.99v-16.952C129.938,98.871,128.594,97.531,126.938,97.531z
		 M128,118.558h-16v-3.054h-1.042v-3.055H112v-6.877h-1.042v-3.139H112v-2.991h16V118.558z"/>
	<path fill="#434343" d="M127,100.572h-14v1.876h1.042v3.146H113v6.896h1.042v3.062H113v1.938h14V100.572z M119.51,112.719
		c-2.029,0-3.677-1.646-3.677-3.678c0-2.029,1.646-3.676,3.677-3.676s3.678,1.646,3.678,3.676
		C123.188,111.072,121.54,112.719,119.51,112.719z M126.031,110.531h-1.094v-3.062h1.094V110.531z"/>
	<path fill="#434343" d="M121.932,108.51c-0.24-1.094-1.223-1.916-2.399-1.916c-1.357,0-2.458,1.091-2.458,2.437
		c0,1.344,1.101,2.435,2.458,2.435c1.168,0,2.141-0.81,2.393-1.892h-2.94v-1.062L121.932,108.51L121.932,108.51z"/>
</g>
</svg>
