<?xml version="1.0" encoding="utf-8"?>
<!-- Generator: Adobe Illustrator 15.0.0, SVG Export Plug-In . SVG Version: 6.00 Build 0)  -->
<!DOCTYPE svg PUBLIC "-//W3C//DTD SVG 1.0//EN" "http://www.w3.org/TR/2001/REC-SVG-20010904/DTD/svg10.dtd">
<svg version="1.0" id="Layer_1" xmlns="http://www.w3.org/2000/svg" xmlns:xlink="http://www.w3.org/1999/xlink" x="0px" y="0px"
	 width="220px" height="227px" viewBox="0 0 220 227" enable-background="new 0 0 220 227" xml:space="preserve">
<g>
	<ellipse fill="#434343" cx="108.525" cy="112.577" rx="4.973" ry="1.973"/>
	<path fill="#434343" d="M108.525,115.644c-3.557,0-4.973-1.041-4.973-1.644v2.582c0,1.091,2.227,1.973,4.973,1.973
		c2.749,0,4.975-0.882,4.975-1.973v-2.521C113.5,114.666,112.082,115.644,108.525,115.644z"/>
	<path fill="#434343" d="M108.525,119.635c-3.182,0-4.973-1.001-4.973-1.604v2.56c0,1.09,2.227,1.973,4.973,1.973
		c2.749,0,4.975-0.883,4.975-1.973V118C113.5,118.603,111.707,119.635,108.525,119.635z"/>
	<path fill="#434343" d="M108.525,123.635c-3.182,0-4.973-1.001-4.973-1.604v2.56c0,1.09,2.227,1.973,4.973,1.973
		c2.749,0,4.975-0.883,4.975-1.973V122C113.5,122.603,111.707,123.635,108.525,123.635z"/>
	<ellipse fill="#434343" cx="97.525" cy="104.577" rx="4.973" ry="1.973"/>
	<path fill="#434343" d="M97.525,107.644c-3.557,0-4.973-1.041-4.973-1.644v2.582c0,1.091,2.227,1.973,4.973,1.973
		c2.748,0,4.975-0.882,4.975-1.973v-2.521C102.5,106.666,101.082,107.644,97.525,107.644z"/>
	<path fill="#434343" d="M97.525,111.635c-3.182,0-4.973-1.001-4.973-1.604v2.56c0,1.09,2.227,1.973,4.973,1.973
		c2.748,0,4.975-0.883,4.975-1.973V110C102.5,110.603,100.707,111.635,97.525,111.635z"/>
	<path fill="#434343" d="M97.525,115.635c-3.182,0-4.973-1.001-4.973-1.604v2.56c0,1.09,2.227,1.973,4.973,1.973
		c2.748,0,4.975-0.883,4.975-1.973V114C102.5,114.603,100.707,115.635,97.525,115.635z"/>
	<path fill="#434343" d="M97.525,119.635c-3.182,0-4.973-1.001-4.973-1.604v2.56c0,1.09,2.227,1.973,4.973,1.973
		c2.748,0,4.975-0.883,4.975-1.973V118C102.5,118.603,100.707,119.635,97.525,119.635z"/>
	<path fill="#434343" d="M97.525,123.635c-3.182,0-4.973-1.001-4.973-1.604v2.56c0,1.09,2.227,1.973,4.973,1.973
		c2.748,0,4.975-0.883,4.975-1.973V122C102.5,122.603,100.707,123.635,97.525,123.635z"/>
</g>
</svg>
