<?xml version="1.0" encoding="utf-8"?>
<!-- Generator: Adobe Illustrator 15.0.0, SVG Export Plug-In . SVG Version: 6.00 Build 0)  -->
<!DOCTYPE svg PUBLIC "-//W3C//DTD SVG 1.0//EN" "http://www.w3.org/TR/2001/REC-SVG-20010904/DTD/svg10.dtd">
<svg version="1.0" id="Layer_1" xmlns="http://www.w3.org/2000/svg" xmlns:xlink="http://www.w3.org/1999/xlink" x="0px" y="0px"
	 width="220px" height="227px" viewBox="0 0 220 227" enable-background="new 0 0 220 227" xml:space="preserve">
<g>
	<path fill="#434343" d="M111.987,84.5c-2.152,0-10.904,0-12.875,0c-2.127,0-0.267,1.982-0.267,1.982l5.234,6.08v15.854h2.875
		V92.577l5.232-6.064C112.188,86.513,114.142,84.5,111.987,84.5z M103.64,90.082l-3.436-4.062c0,0-0.678-0.55,0.146-0.55
		c0.825,0,3.668,0.015,3.668,0.015s0,3.859,0,4.53C104.018,90.688,103.64,90.082,103.64,90.082z M106.942,90.016
		c0-0.671,0-4.53,0-4.53s2.909-0.015,3.752-0.015c0.844,0,0.149,0.551,0.149,0.551l-3.514,4.062
		C107.331,90.082,106.942,90.688,106.942,90.016z"/>
</g>
</svg>
