<?xml version="1.0" encoding="utf-8"?>
<!-- Generator: Adobe Illustrator 15.0.0, SVG Export Plug-In . SVG Version: 6.00 Build 0)  -->
<!DOCTYPE svg PUBLIC "-//W3C//DTD SVG 1.0//EN" "http://www.w3.org/TR/2001/REC-SVG-20010904/DTD/svg10.dtd">
<svg version="1.0" id="Layer_1" xmlns="http://www.w3.org/2000/svg" xmlns:xlink="http://www.w3.org/1999/xlink" x="0px" y="0px"
	 width="220px" height="227px" viewBox="0 0 220 227" enable-background="new 0 0 220 227" xml:space="preserve">
<g>
	<path fill="#434343" d="M106.521,107.917c-6.605,0-11.979-5.364-11.979-11.958c0-6.595,5.374-11.959,11.979-11.959
		c6.604,0,11.979,5.364,11.979,11.959C118.5,102.553,113.127,107.917,106.521,107.917L106.521,107.917z M106.604,86.678
		c-5.082,0-9.219,4.141-9.219,9.228s4.137,9.226,9.219,9.226c5.085,0,9.22-4.139,9.22-9.226S111.688,86.678,106.604,86.678
		L106.604,86.678z"/>
	<polygon fill="#434343" points="113.07,101.017 107.572,95 106.997,95.759 108.912,98.008 106.12,96.914 105.556,97.66 	"/>
	<polygon fill="#434343" points="100.5,92 105.619,97.744 107.556,95.153 	"/>
</g>
</svg>
