<?xml version="1.0" encoding="utf-8"?>
<!-- Generator: Adobe Illustrator 15.0.0, SVG Export Plug-In . SVG Version: 6.00 Build 0)  -->
<!DOCTYPE svg PUBLIC "-//W3C//DTD SVG 1.0//EN" "http://www.w3.org/TR/2001/REC-SVG-20010904/DTD/svg10.dtd">
<svg version="1.0" id="Layer_1" xmlns="http://www.w3.org/2000/svg" xmlns:xlink="http://www.w3.org/1999/xlink" x="0px" y="0px"
	 width="220px" height="227px" viewBox="0 0 220 227" enable-background="new 0 0 220 227" xml:space="preserve">
<g>
	<path fill="#434343" d="M130.534,101.656c-0.367-1.374-0.974-2.681-1.718-3.969c-0.601,0.174-1.112,0.231-1.646-0.184
		c-0.032-0.023-0.056-0.055-0.085-0.081c-2.631,1.632-5.947,2.736-8.977,3.152c-0.044,0.345-0.328,0.521-0.558,0.813
		c-0.137,0.179-0.304,0.316-0.48,0.435c0.769,1.697,1.907,3.231,3.28,4.623c3.771,0.181,7.565-1.406,10.059-4.613
		C130.454,101.777,130.491,101.715,130.534,101.656z"/>
	<path fill="#434343" d="M126.634,94.67c-1.158-1.425-2.547-2.85-4.047-3.939c-1.194-0.868-2.459-1.663-3.746-2.295
		c-0.021,0.032-0.039,0.068-0.062,0.102c-0.438,0.562-1.12,0.821-1.786,0.753c-0.878,2.88-1.379,6.104-0.982,8.989
		c0.412,0.013,0.826,0.146,1.178,0.421c0.298,0.229,0.339,0.487,0.468,0.812c2.89-0.397,6.034-1.444,8.534-2.987
		C125.96,95.903,126.207,95.23,126.634,94.67z"/>
	<path fill="#434343" d="M115.105,98.398c-0.448-3.059,0.086-6.497,1.023-9.562c-0.031-0.021-0.064-0.036-0.096-0.061
		c-0.541-0.42-0.81-1.061-0.779-1.691c-1.102-0.226-2.205-0.344-3.311-0.426c-0.137,0.156-0.277,0.306-0.405,0.471
		c-2.595,3.338-3.143,7.611-1.845,11.326c1.412,0.604,2.875,0.973,4.432,1.103c0.068-0.218,0.169-0.428,0.317-0.617
		C114.627,98.705,114.856,98.526,115.105,98.398z"/>
	<path fill="#434343" d="M129.907,97.03c-0.043,0.056-0.097,0.101-0.144,0.148c0.648,1.105,1.199,2.226,1.577,3.403
		c1.677-2.837,2.061-6.151,1.25-9.188c-0.134,0.198-0.265,0.398-0.407,0.595c-0.688,0.948-1.377,1.93-2.143,2.796
		C130.448,95.476,130.424,96.365,129.907,97.03z"/>
	<path fill="#434343" d="M119.261,87.391c1.373,0.664,2.72,1.506,3.992,2.433c1.576,1.146,3.035,2.643,4.248,4.138
		c0.582-0.253,1.265-0.221,1.837,0.125c0.729-0.83,1.38-1.776,2.039-2.683c0.292-0.402,0.56-0.814,0.815-1.231
		c-0.759-1.966-2.03-3.761-3.814-5.147c-2.318-1.804-5.093-2.617-7.815-2.515c-0.173,0.219-0.345,0.436-0.509,0.66
		c-0.603,0.827-1.108,1.62-1.56,2.456C119.054,86.062,119.317,86.734,119.261,87.391z"/>
	<path fill="#434343" d="M114.073,100.559c-1.336-0.116-2.615-0.397-3.855-0.846c0.779,1.613,1.919,3.082,3.431,4.257
		c1.6,1.244,3.418,2.016,5.283,2.343c-1.119-1.27-2.033-2.651-2.703-4.139c-0.49,0.043-0.998-0.088-1.42-0.415
		C114.408,101.447,114.165,101.017,114.073,100.559z"/>
	<path fill="#434343" d="M117.577,85.229c0.469-0.879,0.998-1.715,1.624-2.584c-2.338,0.357-4.567,1.404-6.374,3.096
		c0.917,0.104,1.826,0.214,2.733,0.392c0.036-0.057,0.065-0.116,0.107-0.17C116.134,85.361,116.874,85.111,117.577,85.229z"/>
</g>
</svg>
