<?xml version="1.0" encoding="utf-8"?>
<!-- Generator: Adobe Illustrator 15.0.0, SVG Export Plug-In . SVG Version: 6.00 Build 0)  -->
<!DOCTYPE svg PUBLIC "-//W3C//DTD SVG 1.0//EN" "http://www.w3.org/TR/2001/REC-SVG-20010904/DTD/svg10.dtd">
<svg version="1.0" id="Layer_1" xmlns="http://www.w3.org/2000/svg" xmlns:xlink="http://www.w3.org/1999/xlink" x="0px" y="0px"
	 width="220px" height="227px" viewBox="0 0 220 227" enable-background="new 0 0 220 227" xml:space="preserve">
<g>
	<path fill="#434343" d="M111.5,97h4c0.553,0,1-0.447,1-1v-4c0-0.553-0.447-1-1-1h-4c-0.553,0-1,0.447-1,1v4
		C110.5,96.553,110.947,97,111.5,97z"/>
	<path fill="#434343" d="M106.5,106h-4c-0.553,0-1,0.447-1,1v4c0,0.553,0.447,1,1,1h4c0.553,0,1-0.447,1-1v-4
		C107.5,106.447,107.053,106,106.5,106z"/>
	<path fill="#434343" d="M115.5,106h-4c-0.553,0-1,0.447-1,1v4c0,0.553,0.447,1,1,1h4c0.553,0,1-0.447,1-1v-4
		C116.5,106.447,116.053,106,115.5,106z"/>
	<path fill="#434343" d="M124.5,106h-4c-0.553,0-1,0.447-1,1v4c0,0.553,0.447,1,1,1h4c0.553,0,1-0.447,1-1v-4
		C125.5,106.447,125.053,106,124.5,106z"/>
	<polygon fill="#434343" points="105.5,103 112.5,103 112.5,105 114.5,105 114.5,103 121.5,103 121.5,105 123.5,105 123.5,101 
		114.5,101 114.5,98 112.5,98 112.5,101 103.5,101 103.5,105 105.5,105 	"/>
</g>
</svg>
