<?xml version="1.0" encoding="utf-8"?>
<!-- Generator: Adobe Illustrator 15.0.0, SVG Export Plug-In . SVG Version: 6.00 Build 0)  -->
<!DOCTYPE svg PUBLIC "-//W3C//DTD SVG 1.0//EN" "http://www.w3.org/TR/2001/REC-SVG-20010904/DTD/svg10.dtd">
<svg version="1.0" id="Layer_1" xmlns="http://www.w3.org/2000/svg" xmlns:xlink="http://www.w3.org/1999/xlink" x="0px" y="0px"
	 width="220px" height="227px" viewBox="0 0 220 227" enable-background="new 0 0 220 227" xml:space="preserve">
<g>
	<path fill="#434343" d="M116.229,97.253l-5.905,5.908c-0.439,0.438-1.367,1.139-2.713-0.207c-1.346-1.349-0.666-2.293-0.227-2.732
		l0.957-0.957l-2.006-2.008l-1.254,1.253c-1.045,1.045-1.326,2.589-0.887,4.073c-0.422,0.142-0.822,0.369-1.158,0.705
		c-1.16,1.16-1.166,3.035-0.012,4.188c1.152,1.154,3.027,1.148,4.188-0.011c0.334-0.335,0.561-0.73,0.703-1.15
		c1.504,0.46,3.074,0.201,4.123-0.848l6.203-6.202L116.229,97.253z"/>
	<path fill="#434343" d="M111.921,95.597l5.584-5.584c0.443-0.442,2.002-0.93,3,0.069c1,0.999,0.44,2.485-0.002,2.929l-0.635,0.634
		l2.041,2.041l1.221-1.223c1.07-1.07,1.324-2.678,0.843-4.21c0.422-0.142,0.819-0.369,1.155-0.704
		c1.158-1.159,1.164-3.034,0.011-4.188c-1.152-1.153-3.027-1.147-4.187,0.011c-0.341,0.34-0.568,0.742-0.709,1.168
		c-1.522-0.471-3.119-0.212-4.185,0.853l-6.171,6.172L111.921,95.597z"/>
	<path fill="#434343" d="M104.147,90.283c-0.408,1.462-0.113,2.975,0.918,4.006l6.225,6.225l1.937-1.935l-5.784-5.781
		c-0.439-0.438-1.242-1.558,0.072-2.871c1.312-1.312,2.484-0.563,2.924-0.125l0.898,0.898l1.998-1.998l-1.34-1.343
		c-1.037-1.035-2.58-1.306-4.064-0.873c-0.141-0.395-0.361-0.768-0.678-1.084c-1.154-1.153-3.029-1.147-4.188,0.012
		c-1.16,1.158-1.166,3.033-0.012,4.187C103.372,89.92,103.749,90.142,104.147,90.283z"/>
	<path fill="#434343" d="M123.911,102.554c0.44-1.496,0.168-3.062-0.886-4.116l-6.11-6.111l-1.994,1.995l5.591,5.591
		c0.442,0.441,0.678,2.114-0.121,2.913c-0.8,0.8-2.398,0.491-2.843,0.05l-0.661-0.664l-1.931,1.932l1.183,1.183
		c1.055,1.055,2.592,1.356,4.065,0.938c0.137,0.441,0.366,0.858,0.715,1.207c1.154,1.153,3.029,1.148,4.188-0.012
		c1.16-1.158,1.166-3.033,0.012-4.187C124.77,102.921,124.354,102.691,123.911,102.554z"/>
</g>
</svg>
