<?xml version="1.0" encoding="utf-8"?>
<!-- Generator: Adobe Illustrator 15.0.0, SVG Export Plug-In . SVG Version: 6.00 Build 0)  -->
<!DOCTYPE svg PUBLIC "-//W3C//DTD SVG 1.0//EN" "http://www.w3.org/TR/2001/REC-SVG-20010904/DTD/svg10.dtd">
<svg version="1.0" id="Layer_1" xmlns="http://www.w3.org/2000/svg" xmlns:xlink="http://www.w3.org/1999/xlink" x="0px" y="0px"
	 width="220px" height="227px" viewBox="0 0 220 227" enable-background="new 0 0 220 227" xml:space="preserve">
<g>
	<path fill="#434343" d="M131.495,89.938h-21.99c-0.556,0-1.005,0.447-1.005,1v12.875c0,0.553,0.449,1,1.005,1h21.99
		c0.556,0,1.005-0.447,1.005-1V90.938C132.5,90.385,132.051,89.938,131.495,89.938z M110.969,103.344
		c-0.481,0-0.875-0.392-0.875-0.875c0-0.483,0.394-0.875,0.875-0.875c0.482,0,0.875,0.392,0.875,0.875
		C111.844,102.952,111.451,103.344,110.969,103.344z M110.969,93.407c-0.588,0-1.062-0.434-1.062-0.969s0.475-0.969,1.062-0.969
		c0.586,0,1.062,0.434,1.062,0.969S111.555,93.407,110.969,93.407z M127.5,100h-14.062v-5.125H127.5V100z M130,103.407
		c-0.535,0-0.969-0.447-0.969-1c0-0.553,0.434-1,0.969-1c0.534,0,0.969,0.447,0.969,1C130.969,102.96,130.534,103.407,130,103.407z
		 M130.031,93.594c-0.587,0-1.062-0.504-1.062-1.125c0-0.621,0.477-1.125,1.062-1.125s1.062,0.504,1.062,1.125
		C131.093,93.09,130.618,93.594,130.031,93.594z"/>
	<rect x="114.562" y="95.938" fill="#434343" width="5.938" height="2.938"/>
</g>
</svg>
