<?xml version="1.0" encoding="utf-8"?>
<!-- Generator: Adobe Illustrator 15.0.0, SVG Export Plug-In . SVG Version: 6.00 Build 0)  -->
<!DOCTYPE svg PUBLIC "-//W3C//DTD SVG 1.0//EN" "http://www.w3.org/TR/2001/REC-SVG-20010904/DTD/svg10.dtd">
<svg version="1.0" id="Layer_1" xmlns="http://www.w3.org/2000/svg" xmlns:xlink="http://www.w3.org/1999/xlink" x="0px" y="0px"
	 width="220px" height="227px" viewBox="0 0 220 227" enable-background="new 0 0 220 227" xml:space="preserve">
<path fill="#434343" d="M114.296,114.511c0,0.354-0.299,0.642-0.669,0.642c-0.271,0-0.502-0.155-0.607-0.377
	c-0.038-0.082-0.062-0.17-0.062-0.265c0-0.354,0.3-0.641,0.669-0.641c0.319,0,0.585,0.215,0.652,0.501
	C114.29,114.416,114.296,114.463,114.296,114.511z M112.079,116.162c-0.034-0.143-0.134-0.262-0.268-0.326
	c-0.068-0.033-0.146-0.054-0.229-0.054c-0.281,0-0.509,0.219-0.509,0.487c0,0.071,0.017,0.14,0.046,0.199
	c0.08,0.17,0.256,0.287,0.463,0.287c0.013,0,0.023-0.003,0.035-0.003c0.266-0.019,0.474-0.228,0.474-0.483
	C112.092,116.232,112.087,116.197,112.079,116.162z M113.627,113.015c0.746,0,1.366,0.5,1.522,1.168
	c2.327-0.448,4.851,0.327,4.851,0.327c-0.841-2.229-3.847-2.229-3.847-2.229c-0.183-1.512,3.847-3.78,3.847-3.78
	c-3.127-1.117-5.891,1.377-5.891,1.377c-0.481-1.986,2.403-5.378,2.403-5.378c-4.209,0.293-5.29,4.941-5.29,4.941
	c-1.924-1.903-7.095-1.742-7.095-1.742c2.164,0.202,4.089,3.761,4.089,3.761c-5.171,1.842-3.968,5.757-3.968,5.757
	c1.251-0.991,2.216-1.54,2.958-1.835c0.173-0.504,0.664-0.871,1.249-0.871c0.631,0,1.155,0.424,1.288,0.989
	c0.021,0.089,0.034,0.183,0.034,0.276c0,0.525-0.334,0.977-0.812,1.168c-1.237,7.932,2.017,11.556,2.017,11.556h5.17
	c-3.589-3.67-4.354-8.344-4.478-10.974c-0.032,0.002-0.062,0.01-0.094,0.01c-0.536,0-0.995-0.309-1.202-0.746
	c-0.075-0.159-0.12-0.334-0.12-0.521c0-0.699,0.592-1.266,1.322-1.266c0.216,0,0.417,0.053,0.595,0.141
	c0.012-0.006,0.02-0.013,0.028-0.018c-0.089-0.188-0.144-0.396-0.144-0.616C112.062,113.685,112.764,113.015,113.627,113.015z
	 M109.016,115.657c-0.058-0.244-0.284-0.429-0.559-0.429c-0.254,0-0.466,0.158-0.542,0.377c-0.019,0.055-0.031,0.111-0.031,0.172
	c0,0.08,0.021,0.156,0.053,0.226c0.091,0.188,0.287,0.323,0.521,0.323c0.078,0,0.153-0.016,0.222-0.043
	c0.206-0.083,0.353-0.278,0.353-0.506C109.03,115.736,109.024,115.695,109.016,115.657z"/>
</svg>
