<?xml version="1.0" encoding="utf-8"?>
<!-- Generator: Adobe Illustrator 15.0.0, SVG Export Plug-In . SVG Version: 6.00 Build 0)  -->
<!DOCTYPE svg PUBLIC "-//W3C//DTD SVG 1.0//EN" "http://www.w3.org/TR/2001/REC-SVG-20010904/DTD/svg10.dtd">
<svg version="1.0" id="Layer_1" xmlns="http://www.w3.org/2000/svg" xmlns:xlink="http://www.w3.org/1999/xlink" x="0px" y="0px"
	 width="220px" height="227px" viewBox="0 0 220 227" enable-background="new 0 0 220 227" xml:space="preserve">
<g>
	<path fill="#434343" d="M124.852,106.64c-0.082-0.179-0.186-0.341-0.323-0.458l-0.037-0.013c-0.178-0.159-0.388-0.284-0.625-0.358
		l-6.892-2.493c0.604-0.618,0.984-1.446,0.984-2.373c0-0.026-0.01-0.053-0.01-0.078c0.012-0.129,0.039-0.253,0.039-0.385
		c0-2.197-1.773-3.98-3.961-3.98c-2.191,0-3.963,1.783-3.963,3.98c0,0.03,0.008,0.061,0.008,0.092
		c-0.019,0.123-0.051,0.244-0.051,0.371c0,0.821,0.309,1.563,0.795,2.155l-6.576,2.711c-0.959,0.304-1.472,1.398-1.14,2.447
		l0.037,0.119c0.332,1.049,1.379,1.652,2.341,1.349l2.963-1.253c0.733-0.066,1.344-0.049,1.518,0.117
		c0.465,0.441-2.561,6.532-3.465,8.312c-0.654,1.285-0.353,2.75,0.676,3.271l0.113,0.06c1.026,0.521,2.33-0.131,3.043-1.384
		c0.514-0.899,2.109-5.354,3.69-5.354c1.582,0,3.152,4.45,3.611,5.354c0.654,1.285,2.017,1.904,3.043,1.384l0.113-0.06
		c1.029-0.521,1.332-1.985,0.676-3.271c-0.576-1.138-3.688-7.562-3.377-8.312c0.103-0.244,0.861-0.188,1.854-0.031l2.69,1.167
		c0.959,0.305,2.006-0.3,2.338-1.349l0.037-0.119C125.186,107.686,125.109,107.104,124.852,106.64z M114.98,98.443h1.084v1.084
		h-1.084V98.443z M111.98,98.424h1.084v1.083h-1.084V98.424z M115,111.5h-2v-2h2V111.5z M115,107.5h-2v-2h2V107.5z M116.105,101.527
		h-1v1.021h-2.125v-1.021h-1v-1.104h1.125v1h1.875v-1h1.125V101.527z"/>
</g>
</svg>
