<?xml version="1.0" encoding="utf-8"?>
<!-- Generator: Adobe Illustrator 15.0.0, SVG Export Plug-In . SVG Version: 6.00 Build 0)  -->
<!DOCTYPE svg PUBLIC "-//W3C//DTD SVG 1.0//EN" "http://www.w3.org/TR/2001/REC-SVG-20010904/DTD/svg10.dtd">
<svg version="1.0" id="Layer_1" xmlns="http://www.w3.org/2000/svg" xmlns:xlink="http://www.w3.org/1999/xlink" x="0px" y="0px"
	 width="220px" height="227px" viewBox="0 0 220 227" enable-background="new 0 0 220 227" xml:space="preserve">
<g>
	<path fill="#434343" d="M132.107,110.538h-13.248c-0.474,0-0.859,0.41-0.859,0.915v2.085c0,0.504,0.387,0.915,0.859,0.915h13.248
		c0.476,0,0.858-0.411,0.858-0.915v-2.085C132.967,110.948,132.583,110.538,132.107,110.538z"/>
	<path fill="#434343" d="M127.802,125.484c0.114-0.086,0.187-0.221,0.198-0.367s-0.041-0.29-0.145-0.395l-1.881-1.914l-0.024-5.354
		h2.019V115.5h-4.926v1.955h2.02v1.527l-1.859,1.664c-0.102,0.093-0.157,0.223-0.159,0.36c-0.004,0.138,0.049,0.271,0.144,0.366
		l1.886,1.917v3.006l-1.8,1.349c-0.125,0.092-0.197,0.241-0.199,0.4c0,0.159,0.072,0.311,0.195,0.404l1.764,1.456l0.013,4.094
		c0,0.276,0.216,0.5,0.481,0.5c0.27,0,0.412-0.133,0.412-0.41v-1.215l1.775-1.455c0.123-0.094,0.196-0.242,0.196-0.399
		c0-0.16-0.071-0.31-0.194-0.403l-1.74-1.335v-2.428L127.802,125.484z"/>
</g>
</svg>
