<?xml version="1.0" encoding="utf-8"?>
<!-- Generator: Adobe Illustrator 15.0.0, SVG Export Plug-In . SVG Version: 6.00 Build 0)  -->
<!DOCTYPE svg PUBLIC "-//W3C//DTD SVG 1.0//EN" "http://www.w3.org/TR/2001/REC-SVG-20010904/DTD/svg10.dtd">
<svg version="1.0" id="Layer_1" xmlns="http://www.w3.org/2000/svg" xmlns:xlink="http://www.w3.org/1999/xlink" x="0px" y="0px"
	 width="220px" height="227px" viewBox="0 0 220 227" enable-background="new 0 0 220 227" xml:space="preserve">
<g>
	<path fill="#434343" d="M120,110.583h-14V97.667c0-0.553-0.429-1-0.958-1c-0.53,0-0.959,0.447-0.959,1v13.253l-6.748,6.748
		c-0.391,0.391-0.391,1.023,0,1.414c0.195,0.195,0.451,0.293,0.707,0.293s0.512-0.098,0.707-0.293l2.644-2.645
		c0.033,0.043,0.054,0.092,0.094,0.129c1.287,1.192,2.962,1.851,4.717,1.851c3.502,0,6.399-2.614,6.886-6H120
		c0.553,0,1-0.41,1-0.917S120.553,110.583,120,110.583z M106.202,116.417c-1.249,0-2.441-0.468-3.357-1.317
		c-0.021-0.02-0.048-0.024-0.069-0.043l2.64-2.64h5.652C110.605,114.696,108.6,116.417,106.202,116.417z"/>
	<path fill="#434343" d="M114.083,103.373c0,0.576-0.451,1.044-1.009,1.044c0,0-1.396-2.008-4.034,0
		c-2.957,2.25-4.874-0.468-4.874-1.044v-5.744c0-0.576,0.451-1.045,1.009-1.045c0,0,1.306,1.93,3.865,0
		c2.876-2.167,5.043,0.469,5.043,1.045V103.373z"/>
</g>
</svg>
