<?xml version="1.0" encoding="utf-8"?>
<!-- Generator: Adobe Illustrator 15.0.0, SVG Export Plug-In . SVG Version: 6.00 Build 0)  -->
<!DOCTYPE svg PUBLIC "-//W3C//DTD SVG 1.0//EN" "http://www.w3.org/TR/2001/REC-SVG-20010904/DTD/svg10.dtd">
<svg version="1.0" id="Layer_1" xmlns="http://www.w3.org/2000/svg" xmlns:xlink="http://www.w3.org/1999/xlink" x="0px" y="0px"
	 width="220px" height="227px" viewBox="0 0 220 227" enable-background="new 0 0 220 227" xml:space="preserve">
<g>
	<path fill="#434343" d="M93.042,97.5c0,0.529,0.435,0.958,0.973,0.958h0.966v-1.916h-0.966
		C93.477,96.542,93.042,96.971,93.042,97.5z"/>
	<path fill="#434343" d="M100.979,99.458v-2.979c0-0.541-0.447-0.979-1-0.979H97.02c-0.552,0-1,0.438-1,0.979v2.979
		c0,0.54,0.448,0.979,1,0.979h2.959C100.531,100.438,100.979,99.998,100.979,99.458z"/>
	<polygon fill="#434343" points="114.958,99.5 114,99.5 114,102.516 113.016,102.516 113.016,105.469 116,105.469 116,102.516 
		114.958,102.516 	"/>
	<path fill="#434343" d="M116.426,96.534l-11.479-4.768v-0.223c0-0.549-0.429-0.992-0.957-0.992c-0.529,0-0.959,0.443-0.959,0.992
		v4.997h-1.012v1.916h1.012v12.104h-0.992c-0.55,0-0.997,0.509-0.997,1.137v0.863h-0.003c-0.55,0-0.997,0.459-0.997,1.023v0.873
		h7.917v-0.873c0-0.564-0.447-1.023-0.997-1.023h-0.003v-0.863c0-0.628-0.447-1.137-0.997-1.137h-1.015V98.457h11.114
		c0.016,0,0.026-0.009,0.041-0.009c0.103-0.007,0.199-0.029,0.294-0.064c0.005-0.002,0.009-0.004,0.009-0.004
		c0.245-0.099,0.451-0.28,0.561-0.539C117.178,97.331,116.936,96.746,116.426,96.534z M104.947,93.936l6.278,2.606h-6.278V93.936z"
		/>
</g>
</svg>
