<?xml version="1.0" encoding="utf-8"?>
<!-- Generator: Adobe Illustrator 15.0.0, SVG Export Plug-In . SVG Version: 6.00 Build 0)  -->
<!DOCTYPE svg PUBLIC "-//W3C//DTD SVG 1.0//EN" "http://www.w3.org/TR/2001/REC-SVG-20010904/DTD/svg10.dtd">
<svg version="1.0" id="Layer_1" xmlns="http://www.w3.org/2000/svg" xmlns:xlink="http://www.w3.org/1999/xlink" x="0px" y="0px"
	 width="220px" height="227px" viewBox="0 0 220 227" enable-background="new 0 0 220 227" xml:space="preserve">
<g>
	<path fill="#434343" d="M131.104,118.898c0,0.791-0.672,1.433-1.497,1.433h-13c-0.827,0-1.498-0.642-1.498-1.433v-0.842
		c0-0.791,0.671-1.433,1.498-1.433h13c0.825,0,1.497,0.642,1.497,1.433V118.898z"/>
	<polygon fill="#434343" points="129.756,115.393 116.453,115.393 113.283,104.471 114.985,103.414 119.479,109.755 
		122.119,100.771 124.233,100.771 126.611,110.283 131.367,103.414 132.927,104.471 	"/>
	<circle fill="#434343" cx="133.415" cy="101.961" r="1.585"/>
	<circle fill="#434343" cx="123.105" cy="98.217" r="1.717"/>
	<circle fill="#434343" cx="112.784" cy="101.938" r="1.607"/>
</g>
</svg>
