<?xml version="1.0" encoding="utf-8"?>
<!-- Generator: Adobe Illustrator 15.0.0, SVG Export Plug-In . SVG Version: 6.00 Build 0)  -->
<!DOCTYPE svg PUBLIC "-//W3C//DTD SVG 1.0//EN" "http://www.w3.org/TR/2001/REC-SVG-20010904/DTD/svg10.dtd">
<svg version="1.0" id="Layer_1" xmlns="http://www.w3.org/2000/svg" xmlns:xlink="http://www.w3.org/1999/xlink" x="0px" y="0px"
	 width="220px" height="227px" viewBox="0 0 220 227" enable-background="new 0 0 220 227" xml:space="preserve">
<g>
	<path fill="#434343" d="M115,131.275c0,0.553-0.447,1-1,1l-10,3c-0.553,0-1-0.447-1-1v-10c0-0.554,0.447-1,1-1l10-3
		c0.553,0,1,0.446,1,1V131.275z"/>
	<path fill="#434343" d="M102,134.275c0,0.553-0.447,1-1,1l-9-3c-0.553,0-1-0.447-1-1v-10c0-0.554,0.447-1,1-1l9,3
		c0.553,0,1,0.446,1,1V134.275z"/>
	<path fill="#434343" d="M115,117.791c0,0.484-0.999,0.818-0.999,0.818L104,121.941c0,0-0.848,0.334-1.51,0.334
		s-1.465-0.354-1.465-0.354l-8.994-3.271c0,0-1.031-0.328-1.031-0.859s1.031-0.891,1.031-0.891l8.998-3.271
		c0,0,0.932-0.354,1.489-0.354c0.559,0,1.486,0.336,1.486,0.336l9.992,3.33C113.998,116.941,115,117.307,115,117.791z"/>
</g>
</svg>
