<?xml version="1.0" encoding="utf-8"?>
<!-- Generator: Adobe Illustrator 15.0.0, SVG Export Plug-In . SVG Version: 6.00 Build 0)  -->
<!DOCTYPE svg PUBLIC "-//W3C//DTD SVG 1.0//EN" "http://www.w3.org/TR/2001/REC-SVG-20010904/DTD/svg10.dtd">
<svg version="1.0" id="Layer_1" xmlns="http://www.w3.org/2000/svg" xmlns:xlink="http://www.w3.org/1999/xlink" x="0px" y="0px"
	 width="220px" height="227px" viewBox="0 0 220 227" enable-background="new 0 0 220 227" xml:space="preserve">
<g>
	<rect x="109" y="111.5" fill="#434343" width="18.999" height="2.959"/>
	<path fill="#434343" d="M124,129.334c-3.938,0-7.064,0-11.001,0c-3.937,0-3.999-5.812-3.999-5.812V115.5h18.999v10.021
		C127.999,125.521,127.938,129.334,124,129.334z"/>
	<path fill="#434343" d="M129.096,114.637H128v2.023c1.693,0.191,3.083,0.977,3.083,2.772v1.218c0,1.797-1.39,2.58-3.083,2.772
		v2.022h1.096c2.133,0,3.861-1.705,3.861-3.812v-3.188C132.957,116.343,131.229,114.637,129.096,114.637z"/>
</g>
</svg>
