<?xml version="1.0" encoding="utf-8"?>
<!-- Generator: Adobe Illustrator 15.0.0, SVG Export Plug-In . SVG Version: 6.00 Build 0)  -->
<!DOCTYPE svg PUBLIC "-//W3C//DTD SVG 1.0//EN" "http://www.w3.org/TR/2001/REC-SVG-20010904/DTD/svg10.dtd">
<svg version="1.0" id="Layer_1" xmlns="http://www.w3.org/2000/svg" xmlns:xlink="http://www.w3.org/1999/xlink" x="0px" y="0px"
	 width="220px" height="227px" viewBox="0 0 220 227" enable-background="new 0 0 220 227" xml:space="preserve">
<g>
	<g>
		<path fill="#434343" d="M118.982,100.486c0,0.518-0.41,0.938-0.918,0.938h-14c-0.507,0-0.917-0.42-0.917-0.938l0,0
			c0-0.52,0.41-0.938,0.917-0.938h14C118.572,99.548,118.982,99.968,118.982,100.486L118.982,100.486z"/>
		<path fill="#434343" d="M118.982,122.486c0,0.518-0.41,0.938-0.918,0.938h-14c-0.507,0-0.917-0.42-0.917-0.938l0,0
			c0-0.52,0.41-0.938,0.917-0.938h14C118.572,121.548,118.982,121.968,118.982,122.486L118.982,122.486z"/>
		<rect x="105.065" y="102.506" fill="#434343" width="11.917" height="0.959"/>
		<rect x="105.065" y="104.506" fill="#434343" width="11.917" height="0.959"/>
		<rect x="105.065" y="106.506" fill="#434343" width="11.917" height="0.959"/>
		<rect x="105.065" y="108.506" fill="#434343" width="11.917" height="0.959"/>
		<rect x="105.065" y="110.506" fill="#434343" width="11.917" height="0.959"/>
		<rect x="105.065" y="112.506" fill="#434343" width="11.917" height="0.959"/>
		<rect x="105.065" y="114.506" fill="#434343" width="11.917" height="0.959"/>
		<rect x="105.065" y="116.506" fill="#434343" width="11.917" height="0.959"/>
		<rect x="105.065" y="118.506" fill="#434343" width="11.917" height="0.959"/>
		<rect x="105.065" y="120.506" fill="#434343" width="11.917" height="0.959"/>
	</g>
	<g>
		<path fill="#434343" d="M124.836,123.5c-1.304-0.208-1.679-2.154-1.779-2.98c-0.089-0.716-0.037-1.43,0.012-2.12
			c0.017-0.248,0.035-0.496,0.045-0.742c0.041-0.955-0.01-2.021-0.157-3.258l-0.038-0.334c-0.1-0.869-0.201-1.767-0.421-2.593
			c-0.474-1.783-1.425-2.961-2.823-3.498c-0.626-0.239-1.293-0.401-1.878-0.459c-0.513-0.052-0.685-0.039-0.629-0.098l-0.747-0.682
			c0.293-0.308,0.837-0.28,1.417-0.22c0.733,0.07,1.499,0.257,2.21,0.529c1.698,0.65,2.889,2.095,3.439,4.176
			c0.238,0.896,0.345,1.828,0.447,2.73l0.039,0.332c0.15,1.287,0.204,2.404,0.161,3.413c-0.012,0.255-0.028,0.512-0.047,0.769
			c-0.047,0.675-0.092,1.312-0.017,1.935c0.14,1.144,0.539,2.053,0.93,2.113L124.836,123.5z"/>
	</g>
</g>
</svg>
