<?xml version="1.0" encoding="utf-8"?>
<!-- Generator: Adobe Illustrator 15.0.0, SVG Export Plug-In . SVG Version: 6.00 Build 0)  -->
<!DOCTYPE svg PUBLIC "-//W3C//DTD SVG 1.0//EN" "http://www.w3.org/TR/2001/REC-SVG-20010904/DTD/svg10.dtd">
<svg version="1.0" id="Layer_1" xmlns="http://www.w3.org/2000/svg" xmlns:xlink="http://www.w3.org/1999/xlink" x="0px" y="0px"
	 width="220px" height="227px" viewBox="0 0 220 227" enable-background="new 0 0 220 227" xml:space="preserve">
<g>
	<path fill="#434343" d="M120,127.5c-6.616,0-12-5.383-12-11.999c0-6.618,5.384-12.001,12-12.001c6.617,0,12,5.383,12,12.001
		C132,122.117,126.617,127.5,120,127.5L120,127.5z M120,106.2c-5.128,0-9.3,4.172-9.3,9.301c0,5.127,4.172,9.299,9.3,9.299
		s9.3-4.172,9.3-9.299C129.3,110.372,125.128,106.2,120,106.2L120,106.2z"/>
	<path fill="#434343" d="M120.787,119.857v-6.268c0-0.534-0.353-0.966-0.786-0.966c-0.436,0-0.788,0.432-0.788,0.966v6.268
		c-0.639,0.3-1.083,0.938-1.083,1.687c0,1.028,0.837,1.862,1.871,1.862c1.033,0,1.87-0.834,1.87-1.862
		C121.871,120.796,121.426,120.157,120.787,119.857z"/>
	<rect x="119.156" y="107.567" fill="#434343" width="1.75" height="2.87"/>
	
		<rect x="115.078" y="109.546" transform="matrix(-0.7116 0.7026 -0.7026 -0.7116 275.654 108.8808)" fill="#434343" width="0.807" height="2.934"/>
	<polygon fill="#434343" points="123.145,111.687 123.771,112.318 125.864,110.259 125.236,109.627 	"/>
	
		<rect x="122.58" y="108.241" transform="matrix(-0.8912 -0.4537 0.4537 -0.8912 183.013 262.2992)" fill="#434343" width="0.781" height="1.912"/>
	
		<rect x="116.858" y="108.219" transform="matrix(-0.9267 0.3759 -0.3759 -0.9267 266.9476 166.32)" fill="#434343" width="0.782" height="1.966"/>
</g>
</svg>
