<?xml version="1.0" encoding="utf-8"?>
<!-- Generator: Adobe Illustrator 15.0.0, SVG Export Plug-In . SVG Version: 6.00 Build 0)  -->
<!DOCTYPE svg PUBLIC "-//W3C//DTD SVG 1.0//EN" "http://www.w3.org/TR/2001/REC-SVG-20010904/DTD/svg10.dtd">
<svg version="1.0" id="Layer_1" xmlns="http://www.w3.org/2000/svg" xmlns:xlink="http://www.w3.org/1999/xlink" x="0px" y="0px"
	 width="220px" height="227px" viewBox="0 0 220 227" enable-background="new 0 0 220 227" xml:space="preserve">
<g>
	<polygon fill="#434343" points="118,111.469 115.031,108.5 112.062,111.469 114.047,111.469 114.047,114.406 115.984,114.406 
		115.984,111.469 	"/>
	<g>
		<ellipse fill="#434343" cx="106.041" cy="94.531" rx="9.927" ry="3.938"/>
		<g>
			<path fill="#434343" d="M109.594,112.562l5.438-5.625l0.938,1.03v-3.438c0,1.203-4.494,3.094-9.929,3.094
				c-5.434,0-9.927-1.891-9.927-3.094v6c0,2.176,4.444,3.938,9.927,3.938c2.734,0,5.164-0.438,6.959-1.147v-0.758H109.594z"/>
			<path fill="#434343" d="M106.041,99.625c-5.434,0-9.927-1.891-9.927-3.094v6c0,2.176,4.444,3.938,9.927,3.938
				c5.482,0,9.928-1.762,9.928-3.938v-6C115.969,97.734,111.475,99.625,106.041,99.625z"/>
		</g>
	</g>
</g>
</svg>
