<?xml version="1.0" encoding="utf-8"?>
<!-- Generator: Adobe Illustrator 15.0.0, SVG Export Plug-In . SVG Version: 6.00 Build 0)  -->
<!DOCTYPE svg PUBLIC "-//W3C//DTD SVG 1.0//EN" "http://www.w3.org/TR/2001/REC-SVG-20010904/DTD/svg10.dtd">
<svg version="1.0" id="Layer_1" xmlns="http://www.w3.org/2000/svg" xmlns:xlink="http://www.w3.org/1999/xlink" x="0px" y="0px"
	 width="220px" height="227px" viewBox="0 0 220 227" enable-background="new 0 0 220 227" xml:space="preserve">
<g>
	<ellipse fill="#434343" cx="104.041" cy="69.562" rx="9.958" ry="3.938"/>
	<path fill="#434343" d="M103.979,82.531c-5.396,0-9.896-1.797-9.896-3v6c0,2.176,4.431,3.938,9.896,3.938
		c5.467,0,9.896-1.762,9.896-3.938v-6C113.875,80.734,109.374,82.531,103.979,82.531z"/>
	<path fill="#434343" d="M103.979,74.531c-5.396,0-9.896-1.797-9.896-3v6c0,2.176,4.431,3.938,9.896,3.938
		c5.467,0,9.896-1.762,9.896-3.938v-6C113.875,72.734,109.374,74.531,103.979,74.531z"/>
</g>
</svg>
