<?xml version="1.0" encoding="utf-8"?>
<!-- Generator: Adobe Illustrator 15.0.0, SVG Export Plug-In . SVG Version: 6.00 Build 0)  -->
<!DOCTYPE svg PUBLIC "-//W3C//DTD SVG 1.0//EN" "http://www.w3.org/TR/2001/REC-SVG-20010904/DTD/svg10.dtd">
<svg version="1.0" id="Layer_1" xmlns="http://www.w3.org/2000/svg" xmlns:xlink="http://www.w3.org/1999/xlink" x="0px" y="0px"
	 width="220px" height="227px" viewBox="0 0 220 227" enable-background="new 0 0 220 227" xml:space="preserve">
<g>
	<ellipse fill="#434343" cx="101.001" cy="97.438" rx="9.896" ry="3.938"/>
	<path fill="#434343" d="M108.611,113.938l-2.121-2.12l2.911-2.911l1.496,1.496v-2.965c0,1.203-4.479,3.095-9.896,3.095
		s-9.896-1.892-9.896-3.095v6c0,2.177,4.431,3.938,9.896,3.938c2.257,0,4.331-0.304,5.996-0.811l-0.507-0.507L108.611,113.938z"/>
	<path fill="#434343" d="M101.001,109.375c5.466,0,9.896-1.762,9.896-3.938v-6c0,1.202-4.479,3.094-9.896,3.094
		s-9.896-1.892-9.896-3.094v6C91.105,107.613,95.536,109.375,101.001,109.375z"/>
	<polygon fill="#434343" points="113.645,110.461 111.521,112.582 109.401,110.461 108.046,111.816 110.167,113.938 
		108.046,116.059 109.401,117.414 111.523,115.293 113.645,117.414 115,116.059 112.879,113.938 115,111.816 	"/>
</g>
</svg>
