<?xml version="1.0" encoding="utf-8"?>
<!-- Generator: Adobe Illustrator 15.0.0, SVG Export Plug-In . SVG Version: 6.00 Build 0)  -->
<!DOCTYPE svg PUBLIC "-//W3C//DTD SVG 1.0//EN" "http://www.w3.org/TR/2001/REC-SVG-20010904/DTD/svg10.dtd">
<svg version="1.0" id="Layer_1" xmlns="http://www.w3.org/2000/svg" xmlns:xlink="http://www.w3.org/1999/xlink" x="0px" y="0px"
	 width="220px" height="227px" viewBox="0 0 220 227" enable-background="new 0 0 220 227" xml:space="preserve">
<g>
	<polygon fill="#434343" points="122,133.521 119.979,133.521 119.979,131.5 118.062,131.5 118.062,133.521 116.041,133.521 
		116.041,135.438 118.062,135.438 118.062,137.459 119.979,137.459 119.979,135.438 122,135.438 	"/>
	<ellipse fill="#434343" cx="107.896" cy="117.5" rx="9.896" ry="3.938"/>
	<path fill="#434343" d="M116.875,132.459v-2h0.917V127.5c0,1.203-4.479,3.094-9.896,3.094c-5.416,0-9.896-1.891-9.896-3.094v6
		c0,2.176,4.431,3.938,9.896,3.938c2.704,0,5.152-0.432,6.938-1.131v-3.848H116.875z"/>
	<path fill="#434343" d="M107.896,129.438c5.465,0,9.896-1.762,9.896-3.938v-6c0,1.203-4.479,3.094-9.896,3.094
		c-5.416,0-9.896-1.891-9.896-3.094v6C98,127.676,102.431,129.438,107.896,129.438z"/>
</g>
</svg>
