<?xml version="1.0" encoding="utf-8"?>
<!-- Generator: Adobe Illustrator 15.0.0, SVG Export Plug-In . SVG Version: 6.00 Build 0)  -->
<!DOCTYPE svg PUBLIC "-//W3C//DTD SVG 1.0//EN" "http://www.w3.org/TR/2001/REC-SVG-20010904/DTD/svg10.dtd">
<svg version="1.0" id="Layer_1" xmlns="http://www.w3.org/2000/svg" xmlns:xlink="http://www.w3.org/1999/xlink" x="0px" y="0px"
	 width="220px" height="227px" viewBox="0 0 220 227" enable-background="new 0 0 220 227" xml:space="preserve">
<g>
	<path fill="#434343" d="M110.979,118.537c-3.277,0-5.945,2.67-5.945,5.951c0,3.283,2.668,5.953,5.945,5.953
		c3.278,0,5.946-2.67,5.946-5.953C116.925,121.207,114.257,118.537,110.979,118.537z"/>
	<path fill="#434343" d="M110.979,112.5c-6.614,0-11.979,5.367-11.979,11.988c0,6.623,5.363,11.99,11.979,11.99
		c6.616,0,11.979-5.367,11.979-11.99C122.957,117.867,117.594,112.5,110.979,112.5z M110.979,131.641
		c-3.939,0-7.146-3.209-7.146-7.151c0-3.943,3.205-7.15,7.146-7.15c3.941,0,7.146,3.207,7.146,7.15
		C118.125,128.432,114.919,131.641,110.979,131.641z"/>
</g>
</svg>
