<?xml version="1.0" encoding="utf-8"?>
<!-- Generator: Adobe Illustrator 15.0.0, SVG Export Plug-In . SVG Version: 6.00 Build 0)  -->
<!DOCTYPE svg PUBLIC "-//W3C//DTD SVG 1.0//EN" "http://www.w3.org/TR/2001/REC-SVG-20010904/DTD/svg10.dtd">
<svg version="1.0" id="Layer_1" xmlns="http://www.w3.org/2000/svg" xmlns:xlink="http://www.w3.org/1999/xlink" x="0px" y="0px"
	 width="220px" height="227px" viewBox="0 0 220 227" enable-background="new 0 0 220 227" xml:space="preserve">
<g>
	<path fill="#434343" d="M126.498,121.688l-0.01-3.38l2.398,2.354c1.03-1.763,1.633-3.806,1.633-5.993
		c0-6.594-5.373-11.938-12-11.938s-12,5.346-12,11.938c0,6.595,5.374,11.939,12,11.939c1.787,0,3.477-0.399,5-1.096v-3.824H126.498z
		 M125.155,106.784l1.268,1.27l-2.682,2.682l-1.267-1.268L125.155,106.784z M111.841,122.633l-1.268-1.27l2.682-2.682l1.269,1.268
		L111.841,122.633z M118.52,119.771c-2.808,0-5.084-2.276-5.084-5.083c0-2.809,2.276-5.085,5.084-5.085
		c2.807,0,5.082,2.276,5.082,5.085C123.602,117.495,121.326,119.771,118.52,119.771z"/>
	<path fill="#434343" d="M118.5,110.703c-2.18,0-3.945,1.781-3.945,3.979c0,2.194,1.766,3.975,3.945,3.975
		c2.178,0,3.943-1.777,3.943-3.975C122.443,112.484,120.678,110.703,118.5,110.703z M118.5,117c-1.245,0-2.253-1.017-2.253-2.268
		c0-1.252,1.008-2.268,2.253-2.268c1.241,0,2.249,1.016,2.249,2.268S119.742,117,118.5,117z"/>
	<polygon fill="#434343" points="130.52,123.761 127.559,120.937 127.564,122.804 124.537,122.804 124.537,124.711 127.57,124.711 
		127.577,126.604 	"/>
</g>
</svg>
