<?xml version="1.0" encoding="utf-8"?>
<!-- Generator: Adobe Illustrator 15.0.0, SVG Export Plug-In . SVG Version: 6.00 Build 0)  -->
<!DOCTYPE svg PUBLIC "-//W3C//DTD SVG 1.0//EN" "http://www.w3.org/TR/2001/REC-SVG-20010904/DTD/svg10.dtd">
<svg version="1.0" id="Layer_1" xmlns="http://www.w3.org/2000/svg" xmlns:xlink="http://www.w3.org/1999/xlink" x="0px" y="0px"
	 width="220px" height="227px" viewBox="0 0 220 227" enable-background="new 0 0 220 227" xml:space="preserve">
<g>
	<path fill="#434343" d="M100.972,109.658c-2.133,0-3.861,1.723-3.861,3.848c0,2.123,1.729,3.844,3.861,3.844
		c2.13,0,3.859-1.721,3.859-3.844C104.831,111.381,103.102,109.658,100.972,109.658z M100.972,115.699
		c-1.218,0-2.204-0.982-2.204-2.193c0-1.213,0.986-2.195,2.204-2.195c1.216,0,2.202,0.982,2.202,2.195
		C103.174,114.717,102.188,115.699,100.972,115.699z"/>
	<path fill="#434343" d="M107.969,118.428l2.953,1.783c1.367-1.947,2.036-4.174,2.036-6.734c0-6.613-5.356-11.977-11.964-11.977
		c-6.605,0-11.963,5.361-11.963,11.977c0,6.616,5.357,11.979,11.963,11.979c2.637,0,4.997-0.865,6.975-2.312
		C107.969,123.145,107.969,118.428,107.969,118.428z M107.667,105.593l1.268,1.27l-2.682,2.682l-1.267-1.268L107.667,105.593z
		 M94.354,121.441l-1.268-1.27l2.682-2.682l1.268,1.268L94.354,121.441z M101.031,118.663c-2.867,0-5.191-2.299-5.191-5.132
		c0-2.834,2.324-5.133,5.191-5.133c2.867,0,5.191,2.299,5.191,5.133C106.223,116.364,103.898,118.663,101.031,118.663z"/>
	<polygon fill="#434343" points="109.062,125.465 109.062,120.527 113,122.996 	"/>
</g>
</svg>
