<?xml version="1.0" encoding="utf-8"?>
<!-- Generator: Adobe Illustrator 15.0.0, SVG Export Plug-In . SVG Version: 6.00 Build 0)  -->
<!DOCTYPE svg PUBLIC "-//W3C//DTD SVG 1.0//EN" "http://www.w3.org/TR/2001/REC-SVG-20010904/DTD/svg10.dtd">
<svg version="1.0" id="Layer_1" xmlns="http://www.w3.org/2000/svg" xmlns:xlink="http://www.w3.org/1999/xlink" x="0px" y="0px"
	 width="220px" height="227px" viewBox="0 0 220 227" enable-background="new 0 0 220 227" xml:space="preserve">
<g>
	<rect x="113.559" y="111.828" fill="#434343" width="4.969" height="4.938"/>
	<path fill="#434343" d="M116.842,110.766c1.02-1.763,1.611-3.805,1.611-5.988c0-6.615-5.35-11.977-11.947-11.977
		c-6.599,0-11.947,5.359-11.947,11.977s5.35,11.979,11.947,11.979c2.198,0,4.252-0.605,6.021-1.646v-4.345H116.842z M99.881,112.742
		l-1.268-1.268l2.682-2.682l1.269,1.268L99.881,112.742z M106.559,109.964c-2.867,0-5.191-2.299-5.191-5.132
		c0-2.834,2.324-5.135,5.191-5.135s5.191,2.301,5.191,5.135C111.75,107.665,109.426,109.964,106.559,109.964z M110.514,99.576
		l2.681-2.683l1.269,1.27l-2.683,2.682L110.514,99.576z"/>
	<path fill="#434343" d="M106.5,100.959c-2.134,0-3.861,1.723-3.861,3.848c0,2.123,1.729,3.844,3.861,3.844
		c2.129,0,3.858-1.721,3.858-3.844C110.358,102.682,108.629,100.959,106.5,100.959z M106.5,107c-1.219,0-2.205-0.982-2.205-2.193
		c0-1.213,0.986-2.195,2.205-2.195c1.215,0,2.201,0.982,2.201,2.195C108.701,106.018,107.715,107,106.5,107z"/>
</g>
</svg>
