<?xml version="1.0" encoding="utf-8"?>
<!-- Generator: Adobe Illustrator 15.0.0, SVG Export Plug-In . SVG Version: 6.00 Build 0)  -->
<!DOCTYPE svg PUBLIC "-//W3C//DTD SVG 1.0//EN" "http://www.w3.org/TR/2001/REC-SVG-20010904/DTD/svg10.dtd">
<svg version="1.0" id="Layer_1" xmlns="http://www.w3.org/2000/svg" xmlns:xlink="http://www.w3.org/1999/xlink" x="0px" y="0px"
	 width="220px" height="227px" viewBox="0 0 220 227" enable-background="new 0 0 220 227" xml:space="preserve">
<g>
	<polygon fill="#434343" points="135.938,124.562 133.938,124.562 133.938,122.562 132,122.562 132,124.562 130,124.562 130,126.5 
		132,126.5 132,128.5 133.938,128.5 133.938,126.5 135.938,126.5 	"/>
	<path fill="#434343" d="M130.969,123.428v-1.982h3.916c0.709-1.523,1.115-3.217,1.115-5.006c0-6.594-5.373-11.938-12-11.938
		s-12,5.346-12,11.938c0,6.595,5.373,11.939,12,11.939c1.787,0,3.477-0.4,5-1.096v-3.855H130.969z M130.637,108.555l1.268,1.27
		l-2.682,2.682l-1.268-1.268L130.637,108.555z M117.322,124.404l-1.268-1.27l2.682-2.682l1.268,1.268L117.322,124.404z M124,121.543
		c-2.807,0-5.083-2.277-5.083-5.084c0-2.809,2.276-5.084,5.083-5.084s5.083,2.275,5.083,5.084
		C129.083,119.266,126.807,121.543,124,121.543z"/>
	<path fill="#434343" d="M123.945,112.557c-2.18,0-3.945,1.779-3.945,3.975c0,2.192,1.766,3.971,3.945,3.971
		c2.177,0,3.943-1.777,3.943-3.971C127.889,114.336,126.122,112.557,123.945,112.557z M123.945,118.795
		c-1.245,0-2.254-1.016-2.254-2.266c0-1.252,1.009-2.27,2.254-2.27c1.24,0,2.248,1.018,2.248,2.27
		C126.193,117.779,125.188,118.795,123.945,118.795z"/>
</g>
</svg>
