<?xml version="1.0" encoding="utf-8"?>
<!-- Generator: Adobe Illustrator 15.0.0, SVG Export Plug-In . SVG Version: 6.00 Build 0)  -->
<!DOCTYPE svg PUBLIC "-//W3C//DTD SVG 1.0//EN" "http://www.w3.org/TR/2001/REC-SVG-20010904/DTD/svg10.dtd">
<svg version="1.0" id="Layer_1" xmlns="http://www.w3.org/2000/svg" xmlns:xlink="http://www.w3.org/1999/xlink" x="0px" y="0px"
	 width="220px" height="227px" viewBox="0 0 220 227" enable-background="new 0 0 220 227" xml:space="preserve">
<g>
	<path fill="#434343" d="M108.916,106.5c-6.58,0-11.916,5.334-11.916,11.914s5.336,11.916,11.916,11.916
		c6.581,0,11.917-5.336,11.917-11.916S115.497,106.5,108.916,106.5z M102.322,126.441l-1.268-1.27l2.682-2.682l1.268,1.268
		L102.322,126.441z M109,123.663c-2.867,0-5.191-2.299-5.191-5.132c0-2.834,2.324-5.133,5.191-5.133s5.191,2.299,5.191,5.133
		C114.191,121.364,111.867,123.663,109,123.663z M114.223,114.542l-1.268-1.268l2.682-2.684l1.268,1.27L114.223,114.542z"/>
	<path fill="#434343" d="M108.94,114.658c-2.133,0-3.861,1.723-3.861,3.848c0,2.123,1.729,3.844,3.861,3.844
		c2.13,0,3.859-1.721,3.859-3.844C112.8,116.381,111.07,114.658,108.94,114.658z M108.94,120.699c-1.218,0-2.204-0.982-2.204-2.193
		c0-1.213,0.986-2.195,2.204-2.195c1.216,0,2.203,0.982,2.203,2.195C111.143,119.717,110.156,120.699,108.94,120.699z"/>
</g>
</svg>
