<?xml version="1.0" encoding="utf-8"?>
<!-- Generator: Adobe Illustrator 15.0.0, SVG Export Plug-In . SVG Version: 6.00 Build 0)  -->
<!DOCTYPE svg PUBLIC "-//W3C//DTD SVG 1.0//EN" "http://www.w3.org/TR/2001/REC-SVG-20010904/DTD/svg10.dtd">
<svg version="1.0" id="Layer_1" xmlns="http://www.w3.org/2000/svg" xmlns:xlink="http://www.w3.org/1999/xlink" x="0px" y="0px"
	 width="220px" height="227px" viewBox="0 0 220 227" enable-background="new 0 0 220 227" xml:space="preserve">
<g>
	<path fill="#434343" d="M114.479,121.541c-1.916,0-3.478,1.561-3.478,3.479s1.562,3.479,3.478,3.479c1.92,0,3.48-1.562,3.48-3.479
		C117.959,123.104,116.396,121.541,114.479,121.541z M114.479,122.479c0.543,0,1.043,0.176,1.455,0.466l-3.531,3.53
		c-0.291-0.412-0.463-0.912-0.463-1.453C111.938,123.619,113.079,122.479,114.479,122.479z M114.479,127.562
		c-0.498,0-0.959-0.15-1.352-0.398l3.496-3.496c0.249,0.393,0.398,0.854,0.398,1.354
		C117.021,126.422,115.881,127.562,114.479,127.562z"/>
	<path fill="#434343" d="M114.438,120.29c0.98,0,1.889,0.309,2.639,0.83c0.595-1.416,0.925-2.969,0.925-4.599
		c0-6.596-5.373-11.939-12-11.939s-12,5.346-12,11.939c0,6.593,5.373,11.938,12,11.938c1.623,0,3.168-0.324,4.579-0.905
		c-0.496-0.743-0.787-1.636-0.787-2.598C109.792,122.38,111.873,120.29,114.438,120.29z M112.637,108.638l1.268,1.27l-2.682,2.682
		l-1.268-1.268L112.637,108.638z M99.322,124.486l-1.268-1.27l2.682-2.682l1.268,1.268L99.322,124.486z M106,121.625
		c-2.807,0-5.083-2.276-5.083-5.083c0-2.809,2.276-5.085,5.083-5.085s5.083,2.276,5.083,5.085
		C111.083,119.349,108.807,121.625,106,121.625z"/>
	<path fill="#434343" d="M105.981,112.615c-2.18,0-3.945,1.779-3.945,3.973c0,2.194,1.766,3.971,3.945,3.971
		c2.177,0,3.943-1.774,3.943-3.971C109.925,114.395,108.158,112.615,105.981,112.615z M105.981,118.854
		c-1.245,0-2.253-1.015-2.253-2.266c0-1.252,1.008-2.268,2.253-2.268c1.241,0,2.249,1.016,2.249,2.268
		C108.23,117.839,107.223,118.854,105.981,118.854z"/>
</g>
</svg>
