<?xml version="1.0" encoding="utf-8"?>
<!-- Generator: Adobe Illustrator 15.0.0, SVG Export Plug-In . SVG Version: 6.00 Build 0)  -->
<!DOCTYPE svg PUBLIC "-//W3C//DTD SVG 1.0//EN" "http://www.w3.org/TR/2001/REC-SVG-20010904/DTD/svg10.dtd">
<svg version="1.0" id="Layer_1" xmlns="http://www.w3.org/2000/svg" xmlns:xlink="http://www.w3.org/1999/xlink" x="0px" y="0px"
	 width="220px" height="227px" viewBox="0 0 220 227" enable-background="new 0 0 220 227" xml:space="preserve">
<g>
	<rect x="118.031" y="125.531" fill="#434343" width="5.938" height="1.938"/>
	<path fill="#434343" d="M121.691,124.459c1.445-1.972,2.309-4.393,2.309-7.02c0-6.596-5.373-11.939-12-11.939s-12,5.346-12,11.939
		c0,6.593,5.373,11.938,12,11.938c1.787,0,3.477-0.399,5-1.096v-3.824L121.691,124.459L121.691,124.459z M118.637,109.556
		l1.268,1.27l-2.682,2.682l-1.268-1.268L118.637,109.556z M105.322,125.404l-1.268-1.27l2.682-2.682l1.268,1.268L105.322,125.404z
		 M112,122.543c-2.807,0-5.083-2.276-5.083-5.083c0-2.809,2.276-5.085,5.083-5.085c2.807,0,5.083,2.276,5.083,5.085
		C117.083,120.267,114.807,122.543,112,122.543z"/>
	<path fill="#434343" d="M111.98,113.533c-2.18,0-3.944,1.779-3.944,3.973c0,2.194,1.766,3.971,3.944,3.971
		c2.178,0,3.943-1.774,3.943-3.971C115.925,115.312,114.158,113.533,111.98,113.533z M111.98,119.771
		c-1.244,0-2.252-1.017-2.252-2.268c0-1.252,1.008-2.268,2.252-2.268c1.242,0,2.25,1.016,2.25,2.268S113.223,119.771,111.98,119.771
		z"/>
</g>
</svg>
