<?xml version="1.0" encoding="utf-8"?>
<!-- Generator: Adobe Illustrator 15.0.0, SVG Export Plug-In . SVG Version: 6.00 Build 0)  -->
<!DOCTYPE svg PUBLIC "-//W3C//DTD SVG 1.0//EN" "http://www.w3.org/TR/2001/REC-SVG-20010904/DTD/svg10.dtd">
<svg version="1.0" id="Layer_1" xmlns="http://www.w3.org/2000/svg" xmlns:xlink="http://www.w3.org/1999/xlink" x="0px" y="0px"
	 width="220px" height="227px" viewBox="0 0 220 227" enable-background="new 0 0 220 227" xml:space="preserve">
<g>
	<path fill="#434343" d="M113.172,101c-6.57,0-11.896,5.373-11.896,12s5.326,12,11.896,12c6.568,0,11.896-5.373,11.896-12
		S119.742,101,113.172,101z M113.297,123.003c-5.578,0-10.104-4.491-10.104-10.034c0-5.541,4.521-10.033,10.104-10.033
		c5.577,0,10.102,4.492,10.102,10.033C123.398,118.512,118.875,123.003,113.297,123.003z"/>
	<path fill="#434343" d="M107.139,105.025c-0.404,2.016,1.104,5.1,4.309,5.85c3.203,0.75,1.828,0.125,1.328-0.875
		s-0.051-1.75,0.725-2c0.776-0.25,0.58,0.439,1.732-1c0.293-3-2.207-0.041-2.457-1.291c2.477-2.875-1.148-3.959-2.199-3.584
		S107.545,103.008,107.139,105.025z"/>
	<path fill="#434343" d="M113.01,112.541c-0.188,0.082-1.055,0.625-1.354,1s-0.428,1.167,0,1.5c0.432,0.334-0.021,1.918,1.133,2.209
		c1.156,0.291,2.314,0.459,2.357,1.375c0.041,0.916-0.107,3.041-0.664,3.25c0.75,0.416,2.574-1.792,3.217-2.959
		c0.645-1.166,0.857-2.833,0.814-3.25c-0.043-0.416,0.256-1.291,0.385-2.416s-0.854-1.199-0.98-1.699
		C117.789,111.051,117.615,110.5,113.01,112.541z"/>
	<path fill="#434343" d="M121.9,107c0,0-2.084,1.292-0.666,3.209c1.416,1.916,2.135,3.736,2.066,4.152
		c-0.066,0.414-1.432,2.559-0.646,2.391c0.787-0.168,1.369-2.418,1.494-3.752s-0.957-3.958-1-4.166
		C123.109,108.625,122.4,107.021,121.9,107z"/>
</g>
</svg>
