<?xml version="1.0" encoding="utf-8"?>
<!-- Generator: Adobe Illustrator 15.0.0, SVG Export Plug-In . SVG Version: 6.00 Build 0)  -->
<!DOCTYPE svg PUBLIC "-//W3C//DTD SVG 1.0//EN" "http://www.w3.org/TR/2001/REC-SVG-20010904/DTD/svg10.dtd">
<svg version="1.0" id="Layer_1" xmlns="http://www.w3.org/2000/svg" xmlns:xlink="http://www.w3.org/1999/xlink" x="0px" y="0px"
	 width="220px" height="227px" viewBox="0 0 220 227" enable-background="new 0 0 220 227" xml:space="preserve">
<g>
	<path fill="#434343" d="M112.846,113.765l-10.903-8.244l-10.966,8.244c-0.537,0-0.972,0.428-0.972,0.958v12.715
		c0,0.528,0.435,0.957,0.972,0.957h21.869c0.537,0,0.973-0.429,0.973-0.957v-12.715
		C113.816,114.193,113.383,113.765,112.846,113.765z M111.982,127.548l-5.041-5.973l-5,3.968l-4.959-3.945l-5.02,5.95h-0.98
		l4.98-6.964l-5.021-4.96l0.021-1.013l10.979-7.913l11,7.965v0.961l-5,4.96l5,6.941L111.982,127.548z"/>
</g>
</svg>
