<?xml version="1.0" encoding="utf-8"?>
<!-- Generator: Adobe Illustrator 15.0.0, SVG Export Plug-In . SVG Version: 6.00 Build 0)  -->
<!DOCTYPE svg PUBLIC "-//W3C//DTD SVG 1.0//EN" "http://www.w3.org/TR/2001/REC-SVG-20010904/DTD/svg10.dtd">
<svg version="1.0" id="Layer_1" xmlns="http://www.w3.org/2000/svg" xmlns:xlink="http://www.w3.org/1999/xlink" x="0px" y="0px"
	 width="220px" height="227px" viewBox="0 0 220 227" enable-background="new 0 0 220 227" xml:space="preserve">
<g>
	<g>
		<path fill="#434343" d="M108.812,97.562h-8.802v10.844l7.927,8l7.917-8v-5.896h-7.042V97.562L108.812,97.562z M112.984,110.538
			H102.89v-1.163h10.094V110.538z M113.078,108.516h-10.203v-1.109h10.203V108.516z M108.979,105.427v1.115h-6.125v-1.115H108.979z"
			/>
		<polygon fill="#434343" points="110.083,97.531 110.083,101.5 116,101.5 		"/>
	</g>
	<path fill="#434343" d="M118.841,105.594L115,102.666v0.959l3.938,2.875v0.969l-5,5l5,7l-0.959,0.021l-5.041-6.021l-4.938,4.25
		l-5.021-4.229l-5.02,6h-0.98l4.98-7.021l-5.021-5l0.021-1.021l6.916-5.025v-1.061l-6.903,5.232c-0.537,0-0.972,0.432-0.972,0.965
		v12.82c0,0.533,0.435,0.965,0.972,0.965h21.869c0.537,0,0.972-0.432,0.972-0.965v-12.82
		C119.812,106.025,119.378,105.594,118.841,105.594z"/>
</g>
</svg>
