<?xml version="1.0" encoding="utf-8"?>
<!-- Generator: Adobe Illustrator 15.0.0, SVG Export Plug-In . SVG Version: 6.00 Build 0)  -->
<!DOCTYPE svg PUBLIC "-//W3C//DTD SVG 1.0//EN" "http://www.w3.org/TR/2001/REC-SVG-20010904/DTD/svg10.dtd">
<svg version="1.0" id="Layer_1" xmlns="http://www.w3.org/2000/svg" xmlns:xlink="http://www.w3.org/1999/xlink" x="0px" y="0px"
	 width="220px" height="227px" viewBox="0 0 220 227" enable-background="new 0 0 220 227" xml:space="preserve">
<g>
	<path fill="#434343" d="M113.844,95.587h-7.841v4.086h-6.109v-4.086h-7.86c-0.535,0-0.971,0.438-0.971,0.976v12.964
		c0,0.538,0.436,0.976,0.971,0.976h21.812c0.535,0,0.97-0.438,0.97-0.976V96.562C114.812,96.023,114.379,95.587,113.844,95.587z
		 M113.939,97.482l-4.926,5.056l4.926,7.077l-0.956,0.021l-4.968-6.088l-5.109,4.066l-4.884-4.045l-5.008,6.064h-0.979l4.968-7.099
		l-5.008-5.057l0.021-1.031l10.89,9.121l11.033-9.067V97.482L113.939,97.482z"/>
	<polygon fill="#434343" points="103.031,89.562 98.03,94.412 101.002,94.412 101.002,98.448 104.867,98.448 104.867,94.412 
		107.953,94.412 	"/>
</g>
</svg>
