<?xml version="1.0" encoding="utf-8"?>
<!-- Generator: Adobe Illustrator 15.0.0, SVG Export Plug-In . SVG Version: 6.00 Build 0)  -->
<!DOCTYPE svg PUBLIC "-//W3C//DTD SVG 1.0//EN" "http://www.w3.org/TR/2001/REC-SVG-20010904/DTD/svg10.dtd">
<svg version="1.0" id="Layer_1" xmlns="http://www.w3.org/2000/svg" xmlns:xlink="http://www.w3.org/1999/xlink" x="0px" y="0px"
	 width="220px" height="227px" viewBox="0 0 220 227" enable-background="new 0 0 220 227" xml:space="preserve">
<g>
	<polygon fill="#434343" points="114.923,111.578 114.923,108.531 113.077,108.531 113.077,111.578 110.078,111.578 
		110.078,113.453 113.077,113.453 113.077,116.5 114.923,116.5 114.923,113.453 117.922,113.453 117.922,111.578 	"/>
	<path fill="#434343" d="M112.969,97.688c-2.877,0-5.277,2.018-5.882,4.714c-0.627-2.698-3.04-4.714-5.931-4.714
		c-3.366,0-6.096,2.729-6.096,6.096c0,9.719,12.04,14.719,12.04,14.719s2.177-0.957,4.772-2.881v-1.059H109v-4.125h3v-3h4.125v3.062
		h0.825c1.218-1.914,2.05-4.17,2.05-6.781C119,100.387,116.3,97.688,112.969,97.688z"/>
</g>
</svg>
