<?xml version="1.0" encoding="utf-8"?>
<!-- Generator: Adobe Illustrator 15.0.0, SVG Export Plug-In . SVG Version: 6.00 Build 0)  -->
<!DOCTYPE svg PUBLIC "-//W3C//DTD SVG 1.0//EN" "http://www.w3.org/TR/2001/REC-SVG-20010904/DTD/svg10.dtd">
<svg version="1.0" id="Layer_1" xmlns="http://www.w3.org/2000/svg" xmlns:xlink="http://www.w3.org/1999/xlink" x="0px" y="0px"
	 width="220px" height="227px" viewBox="0 0 220 227" enable-background="new 0 0 220 227" xml:space="preserve">
<g>
	<path fill="#434343" d="M113.471,113.023l-2.121-2.121l3.053-3.055l2.121,2.121l1.125-1.125c1.358-2.004,2.312-4.398,2.312-7.205
		c0-3.344-2.7-6.055-6.03-6.055c-2.878,0-5.28,2.023-5.883,4.73c-0.627-2.709-3.04-4.73-5.931-4.73
		c-3.366,0-6.094,2.738-6.094,6.117c0,9.758,12.04,14.779,12.04,14.779s2.142-0.887,4.607-2.658L113.471,113.023z"/>
	<polygon fill="#434343" points="118.645,109.547 116.521,111.668 114.4,109.547 113.046,110.902 115.167,113.023 113.046,115.145 
		114.4,116.5 116.523,114.379 118.645,116.5 120,115.145 117.879,113.023 120,110.902 	"/>
</g>
</svg>
