<?xml version="1.0" encoding="utf-8"?>
<!-- Generator: Adobe Illustrator 15.0.0, SVG Export Plug-In . SVG Version: 6.00 Build 0)  -->
<!DOCTYPE svg PUBLIC "-//W3C//DTD SVG 1.0//EN" "http://www.w3.org/TR/2001/REC-SVG-20010904/DTD/svg10.dtd">
<svg version="1.0" id="Layer_1" xmlns="http://www.w3.org/2000/svg" xmlns:xlink="http://www.w3.org/1999/xlink" x="0px" y="0px"
	 width="220px" height="227px" viewBox="0 0 220 227" enable-background="new 0 0 220 227" xml:space="preserve">
<g>
	<path fill="#434343" d="M93,94.583c-0.553,0-1,0.448-1,1V96.5c0,0.553,0.447,1,1,1h1v-2.917H93z"/>
	<path fill="#434343" d="M114.863,97.5c0.582,0,1.054-0.447,1.054-1v-0.917c0-0.552-0.472-1-1.054-1h-0.79V97.5H114.863z"/>
	<rect x="99.053" y="94.583" fill="#434343" width="9.905" height="2.917"/>
	<rect x="99.053" y="98.583" fill="#434343" width="9.905" height="2.917"/>
	<path fill="#434343" d="M93,98.583c-0.553,0-1,0.448-1,1v0.917c0,0.553,0.447,1,1,1h1v-2.917H93z"/>
	<path fill="#434343" d="M114.863,101.5c0.582,0,1.054-0.447,1.054-1v-0.917c0-0.552-0.472-1-1.054-1h-0.79v2.917H114.863z"/>
	<path fill="#434343" d="M114.863,105.5c0.582,0,1.054-0.447,1.054-1v-0.917c0-0.552-0.472-1-1.054-1h-0.79v2.917H114.863z"/>
	<path fill="#434343" d="M93,102.583c-0.553,0-1,0.448-1,1v0.917c0,0.553,0.447,1,1,1h1v-2.917H93z"/>
	<rect x="99.053" y="102.583" fill="#434343" width="9.905" height="2.917"/>
	<g>
		<path fill="#434343" d="M96.917,93.583H96c-0.553,0-1,0.447-1,1V105.5c0,0.553,0.447,1,1,1h0.917c0.552,0,1-0.447,1-1V94.583
			C97.917,94.03,97.469,93.583,96.917,93.583z"/>
		<path fill="#434343" d="M111.917,93.583H111c-0.553,0-1,0.447-1,1V105.5c0,0.553,0.447,1,1,1h0.917c0.552,0,1-0.447,1-1V94.583
			C112.917,94.03,112.469,93.583,111.917,93.583z"/>
	</g>
</g>
</svg>
