<?xml version="1.0" encoding="utf-8"?>
<!-- Generator: Adobe Illustrator 15.0.0, SVG Export Plug-In . SVG Version: 6.00 Build 0)  -->
<!DOCTYPE svg PUBLIC "-//W3C//DTD SVG 1.0//EN" "http://www.w3.org/TR/2001/REC-SVG-20010904/DTD/svg10.dtd">
<svg version="1.0" id="Layer_1" xmlns="http://www.w3.org/2000/svg" xmlns:xlink="http://www.w3.org/1999/xlink" x="0px" y="0px"
	 width="220px" height="227px" viewBox="0 0 220 227" enable-background="new 0 0 220 227" xml:space="preserve">
<g>
	<polygon fill="#434343" points="100.008,94.994 100.008,99.648 98.041,99.648 98.041,101.375 100.008,101.375 100.043,106.551 
		98,106.551 98,108.438 100.043,108.438 100.031,113.415 104.969,113.415 104.942,94.994 102.525,91.5 	"/>
	<polygon fill="#434343" points="92.008,94.994 92.008,99.648 90.041,99.648 90.041,101.375 92.008,101.375 92.046,106.551 
		90.071,106.551 90.071,108.438 92.046,108.438 92.034,113.415 96.969,113.415 96.942,94.994 94.525,91.5 	"/>
	<polygon fill="#434343" points="114.989,101.428 114.989,99.541 112.926,99.541 112.926,94.994 110.547,91.5 108.069,94.994 
		108.069,99.541 106.041,99.541 106.041,101.428 108.069,101.428 108.069,106.5 106.041,106.5 106.041,108.387 108.069,108.387 
		108.078,113.359 112.944,113.351 112.926,108.387 114.989,108.387 114.989,106.5 112.926,106.5 112.926,101.428 	"/>
</g>
</svg>
