<?xml version="1.0" encoding="utf-8"?>
<!-- Generator: Adobe Illustrator 15.0.0, SVG Export Plug-In . SVG Version: 6.00 Build 0)  -->
<!DOCTYPE svg PUBLIC "-//W3C//DTD SVG 1.0//EN" "http://www.w3.org/TR/2001/REC-SVG-20010904/DTD/svg10.dtd">
<svg version="1.0" id="Layer_1" xmlns="http://www.w3.org/2000/svg" xmlns:xlink="http://www.w3.org/1999/xlink" x="0px" y="0px"
	 width="220px" height="227px" viewBox="0 0 220 227" enable-background="new 0 0 220 227" xml:space="preserve">
<path fill="#434343" d="M112.917,89.5h-0.854v1h-2.132v-1H98.083v1h-2.187v-1H95v24h0.896v-1h2.187v1h11.848v-1h2.132v1h0.854V89.5z
	 M98.083,110.5h-2.187v-2h2.187V110.5z M98.083,106.5h-2.187v-2h2.187V106.5z M98.083,102.5h-2.187v-2h2.187V102.5z M98.083,98.5
	h-2.187v-2h2.187V98.5z M98.083,94.5h-2.187v-2h2.187V94.5z M109.019,111.5H98.94v-9h10.077L109.019,111.5L109.019,111.5z
	 M109.019,100.5H98.94v-9h10.077L109.019,100.5L109.019,100.5z M112.062,110.5h-2.134v-2h2.134V110.5z M112.062,106.5h-2.134v-2
	h2.134V106.5z M112.062,102.5h-2.134v-2h2.134V102.5z M112.062,98.5h-2.134v-2h2.134V98.5z M112.062,94.5h-2.134v-2h2.134V94.5z"/>
</svg>
