<?xml version="1.0" encoding="utf-8"?>
<!-- Generator: Adobe Illustrator 15.0.0, SVG Export Plug-In . SVG Version: 6.00 Build 0)  -->
<!DOCTYPE svg PUBLIC "-//W3C//DTD SVG 1.0//EN" "http://www.w3.org/TR/2001/REC-SVG-20010904/DTD/svg10.dtd">
<svg version="1.0" id="Layer_1" xmlns="http://www.w3.org/2000/svg" xmlns:xlink="http://www.w3.org/1999/xlink" x="0px" y="0px"
	 width="220px" height="227px" viewBox="0 0 220 227" enable-background="new 0 0 220 227" xml:space="preserve">
<g>
	<path fill="#434343" d="M108.969,102.367v1.023h4.906v-1.023c0-0.479-0.292-0.867-0.653-0.867h-3.599
		C109.262,101.5,108.969,101.889,108.969,102.367z"/>
	<polygon fill="#434343" points="109.176,107.596 109.176,121.43 117.938,121.41 117.938,107.658 	"/>
	<path fill="#434343" d="M104.083,123.542c0,1.012,0.882,1.833,1.973,1.833h10.849c1.09,0,1.973-0.821,1.973-1.833V122.5h-14.792
		L104.083,123.542L104.083,123.542z"/>
	<path fill="#434343" d="M104.083,105.333v1.104h14.792v-1.104c0-1.012-0.883-1.833-1.973-1.833h-10.849
		C104.965,103.5,104.083,104.321,104.083,105.333z"/>
	<path fill="#434343" d="M101.938,107.5c0,0.312-0.007,0.612-0.02,0.901H103v1.213h-1.167c-0.083,3.575-4.833,5.276-4.833,6.812
		c0,1.681,0,5.011,0,5.011h8.834V107.5C105.834,107.5,102.312,107.5,101.938,107.5z M103.812,108.401H105v1.213h-1.188V108.401z
		 M99,120.567h-1.188v-1.214H99V120.567z M101,120.567h-1.188v-1.214H101V120.567z M103,120.567h-1.188v-1.214H103V120.567z
		 M105,120.567h-1.188v-1.214H105V120.567z M105.104,118.666h-7.25c0,0,0.666-2.811,3.166-4.5c1.543-1.041,2.043-3.791,2.043-3.791
		l2.041-0.041V118.666z"/>
</g>
</svg>
