<?xml version="1.0" encoding="utf-8"?>
<!-- Generator: Adobe Illustrator 15.0.0, SVG Export Plug-In . SVG Version: 6.00 Build 0)  -->
<!DOCTYPE svg PUBLIC "-//W3C//DTD SVG 1.0//EN" "http://www.w3.org/TR/2001/REC-SVG-20010904/DTD/svg10.dtd">
<svg version="1.0" id="Layer_1" xmlns="http://www.w3.org/2000/svg" xmlns:xlink="http://www.w3.org/1999/xlink" x="0px" y="0px"
	 width="220px" height="227px" viewBox="0 0 220 227" enable-background="new 0 0 220 227" xml:space="preserve">
<g>
	<path fill="#434343" d="M108.453,103.166c-5.764,0-10.438,4.646-10.438,10.376s4.674,10.375,10.438,10.375
		s10.438-4.646,10.438-10.375S114.217,103.166,108.453,103.166z M108.5,105c1.391,0,2.516,1.119,2.516,2.5s-1.125,2.5-2.516,2.5
		s-2.516-1.119-2.516-2.5S107.109,105,108.5,105z M99.984,111.5c0-1.381,1.125-2.5,2.516-2.5s2.516,1.119,2.516,2.5
		s-1.125,2.5-2.516,2.5S99.984,112.881,99.984,111.5z M104.5,121c-1.391,0-2.516-1.119-2.516-2.5s1.125-2.5,2.516-2.5
		s2.516,1.119,2.516,2.5S105.891,121,104.5,121z M108.535,115.16c-0.941,0-1.707-0.744-1.707-1.66c0-0.917,0.766-1.66,1.707-1.66
		c0.943,0,1.709,0.743,1.709,1.66C110.244,114.416,109.479,115.16,108.535,115.16z M112.5,121c-1.391,0-2.516-1.119-2.516-2.5
		s1.125-2.5,2.516-2.5s2.516,1.119,2.516,2.5S113.891,121,112.5,121z M114.5,114c-1.391,0-2.516-1.119-2.516-2.5
		s1.125-2.5,2.516-2.5s2.516,1.119,2.516,2.5S115.891,114,114.5,114z"/>
	<g>
		<path fill="#434343" d="M109.994,123.965v-1.172c1.234-0.266,2.178-0.446,3.414-0.68c1.336-0.252,3.131,0.131,4.271,1.344
			c1.144,1.213,2.746,1.071,4.271,1.377V126c-1.281-0.258-3.773-0.557-4.646-1.482c-0.869-0.924-2.309-1.458-3.656-1.201
			C112.422,123.546,111.221,123.701,109.994,123.965z"/>
	</g>
</g>
</svg>
