<?xml version="1.0" encoding="utf-8"?>
<!-- Generator: Adobe Illustrator 15.0.0, SVG Export Plug-In . SVG Version: 6.00 Build 0)  -->
<!DOCTYPE svg PUBLIC "-//W3C//DTD SVG 1.0//EN" "http://www.w3.org/TR/2001/REC-SVG-20010904/DTD/svg10.dtd">
<svg version="1.0" id="Layer_1" xmlns="http://www.w3.org/2000/svg" xmlns:xlink="http://www.w3.org/1999/xlink" x="0px" y="0px"
	 width="220px" height="227px" viewBox="0 0 220 227" enable-background="new 0 0 220 227" xml:space="preserve">
<g>
	<g>
		<path fill="#434343" d="M106.198,105.5l-0.126,0.312c-1.319,3.25-1.766,6.495-1.912,8.143l-0.049,0.545h2.986
			c0.145,0,0.278,0.068,0.366,0.182c0.087,0.113,0.116,0.265,0.078,0.401c-0.256,0.949-0.652,2.614-0.758,4.286
			c-0.023,0.382-0.031,0.762-0.021,1.136c0.032,1.021,0.214,1.983,0.657,2.714l0.146,0.24H117V105.5H106.198z M116.125,122.57
			h-7.974c-0.27-0.576-0.379-1.357-0.388-2.233c1.973-0.428,3.629-1.334,4.274-2.044c0.208-0.227,0.193-0.58-0.032-0.79
			c-0.222-0.21-0.572-0.195-0.778,0.03c-0.44,0.483-1.771,1.229-3.417,1.638c0.105-1.262,0.37-2.618,0.696-3.825
			c0.119-0.438,0.026-0.913-0.249-1.271c-0.272-0.359-0.708-0.574-1.16-0.574h-1.889c0.18-1.635,0.615-4.3,1.664-7h9.25
			L116.125,122.57L116.125,122.57z"/>
		<path fill="#434343" d="M104.321,119.528c-0.008,0.306,0.001,0.611,0.021,0.921c0.354,0.021,0.709,0.041,1.075,0.041
			c0.453,0,0.902-0.025,1.344-0.064c-0.013-0.307-0.004-0.618,0.022-0.932c-0.447,0.045-0.901,0.077-1.366,0.077
			C105.045,119.571,104.679,119.556,104.321,119.528z"/>
	</g>
	<rect x="109" y="108.5" fill="#434343" width="0.988" height="1.938"/>
	<path fill="#434343" d="M104.634,120.535c-2.438-0.229-4.431-1.279-5.467-2.199c-0.229-0.204-0.254-0.558-0.052-0.791
		c0.201-0.234,0.551-0.255,0.777-0.053c0.895,0.792,2.604,1.697,4.721,1.919c0.021-1.45,0.215-2.831,0.428-3.827h-1.958
		c-0.553,0-1-0.448-1-1c0-0.183,0.027-4.203,1.864-9.084H93.083v17.916h11.938C104.724,122.527,104.685,121.533,104.634,120.535z
		 M98.875,108.438h1.226v2.125h-1.226V108.438z"/>
</g>
</svg>
