<?xml version="1.0" encoding="utf-8"?>
<!-- Generator: Adobe Illustrator 15.0.0, SVG Export Plug-In . SVG Version: 6.00 Build 0)  -->
<!DOCTYPE svg PUBLIC "-//W3C//DTD SVG 1.0//EN" "http://www.w3.org/TR/2001/REC-SVG-20010904/DTD/svg10.dtd">
<svg version="1.0" id="Layer_1" xmlns="http://www.w3.org/2000/svg" xmlns:xlink="http://www.w3.org/1999/xlink" x="0px" y="0px"
	 width="220px" height="227px" viewBox="0 0 220 227" enable-background="new 0 0 220 227" xml:space="preserve">
<path fill="#434343" d="M115.201,125.418c0,0,10.781-3.75,5.149-10.097c-0.607-0.778-3.506-3.716-2.256-6.903
	c0,0-2.958,2.312-1.848,5.662c-0.513-0.745-6.048-3.287-5.644-12.662c0,0-5.131,5.711-5.131,11.421c0,0,0.771,6.206,3.335,7.2
	c0,0-5.13-1.242-6.154-7.449c-0.256,0.745-6.954,7.953,2.546,12.703c0,0-3.75-3.438-2.188-7.312c2.312,4.25,7.062,2.688,7.062,2.688
	s-4.375-4.938-0.812-13.125c0.812,4.25,5.221,7.385,7.721,7.76c-0.531-1.5-0.281-2.654,0.219-3.375
	c-0.062,1.471,0.739,2.793,1.719,4.375C121.701,121.387,115.201,125.418,115.201,125.418z"/>
</svg>
