<?xml version="1.0" encoding="utf-8"?>
<!-- Generator: Adobe Illustrator 15.0.0, SVG Export Plug-In . SVG Version: 6.00 Build 0)  -->
<!DOCTYPE svg PUBLIC "-//W3C//DTD SVG 1.0//EN" "http://www.w3.org/TR/2001/REC-SVG-20010904/DTD/svg10.dtd">
<svg version="1.0" id="Layer_1" xmlns="http://www.w3.org/2000/svg" xmlns:xlink="http://www.w3.org/1999/xlink" x="0px" y="0px"
	 width="220px" height="227px" viewBox="0 0 220 227" enable-background="new 0 0 220 227" xml:space="preserve">
<path fill="#434343" d="M107.995,114.414c0,0,0-11.457,0-13.83c0-2.375-3.029-2.959-3.029-2.959v-1.156h3.031v-0.939h-3.031v-0.966
	h-0.906c-0.005-0.026-0.021-0.052-0.023-0.077c0.06-0.584,0.616-1.043,1.291-1.043h2.672V92.5h-2.672
	c-1.188,0-2.168,0.826-2.285,1.879l-0.007,0.121h-1.609c-1.51,0.064-4.354,1.002-4.385,4.078l-1.011,9.828h2.938l-0.927-9.824
	c0.033-2.887,3.289-3.076,3.406-3.082h1.583v2.125c0,0-2.934,0.541-2.934,2.959c0,2.416,0,13.809,0,13.809s-0.467,1.951,2.66,1.951
	c0,0-0.054,0,2.605,0C108.242,116.344,107.995,114.414,107.995,114.414z"/>
</svg>
