<?xml version="1.0" encoding="utf-8"?>
<!-- Generator: Adobe Illustrator 15.0.0, SVG Export Plug-In . SVG Version: 6.00 Build 0)  -->
<!DOCTYPE svg PUBLIC "-//W3C//DTD SVG 1.0//EN" "http://www.w3.org/TR/2001/REC-SVG-20010904/DTD/svg10.dtd">
<svg version="1.0" id="Layer_1" xmlns="http://www.w3.org/2000/svg" xmlns:xlink="http://www.w3.org/1999/xlink" x="0px" y="0px"
	 width="220px" height="227px" viewBox="0 0 220 227" enable-background="new 0 0 220 227" xml:space="preserve">
<path fill="#434343" d="M123.43,124.124c0.299,0.774,0.045,1.592-0.567,1.828l-15.511,5.981c-0.612,0.236-1.349-0.197-1.647-0.972
	l0,0c-0.299-0.772-0.044-1.592,0.568-1.827l15.511-5.981C122.395,122.917,123.131,123.352,123.43,124.124L123.43,124.124z"/>
<path fill="#434343" d="M121.782,131.936c0.612,0.236,1.349-0.196,1.647-0.972c0.297-0.772,0.043-1.592-0.568-1.827l-2.045-0.787
	l-4.166,1.606L121.782,131.936z"/>
<path fill="#434343" d="M107.35,123.153c-0.612-0.236-1.349,0.196-1.647,0.971c-0.299,0.774-0.044,1.592,0.568,1.828l2.044,0.788
	l4.167-1.607L107.35,123.153z"/>
<path fill="#434343" d="M117.221,124.084c0,0,6.879-2.5,3.287-6.73c-1.055-1.354-1.769-3.146-0.972-5.271
	c0,0-2.356,2.21-1.647,4.442c-0.326-0.496-3.86-2.191-3.602-8.441c0,0-3.662,3.532-3.662,7.338c0,0,0.37,4.391,2.518,5.076
	c0,0-3.272-0.828-3.928-4.967c-0.163,0.498-4.214,5,1.333,8.422c0,0-2.045-1.369-1.047-3.953c2.016,3.406,6.047,0.984,6.047,0.984
	s-4.179-0.967-1.906-6.424c0.521,2.832,3.037,4.334,4.633,4.584c-0.84-1.688,0.609-0.388,1.234,0.667
	C120.328,121.854,117.221,124.084,117.221,124.084z"/>
</svg>
