<?xml version="1.0" encoding="utf-8"?>
<!-- Generator: Adobe Illustrator 15.0.0, SVG Export Plug-In . SVG Version: 6.00 Build 0)  -->
<!DOCTYPE svg PUBLIC "-//W3C//DTD SVG 1.0//EN" "http://www.w3.org/TR/2001/REC-SVG-20010904/DTD/svg10.dtd">
<svg version="1.0" id="Layer_1" xmlns="http://www.w3.org/2000/svg" xmlns:xlink="http://www.w3.org/1999/xlink" x="0px" y="0px"
	 width="220px" height="227px" viewBox="0 0 220 227" enable-background="new 0 0 220 227" xml:space="preserve">
<g>
	<path fill="none" stroke="#434343" stroke-miterlimit="10" d="M117.414,127.916c-4.1,4.1-10.764,4.079-14.885-0.043
		c-4.123-4.123-4.143-10.787-0.044-14.887c4.101-4.101,10.765-4.08,14.888,0.043c1.951,1.953,2.984,4.476,3.094,7.023"/>
	
		<ellipse transform="matrix(-0.7071 0.7071 -0.7071 -0.7071 272.8579 128.0889)" fill="none" stroke="#434343" stroke-miterlimit="10" cx="109.901" cy="120.555" rx="7.54" ry="7.504"/>
	
		<ellipse transform="matrix(-0.7072 0.707 -0.707 -0.7072 272.5976 127.8539)" fill="none" stroke="#434343" stroke-miterlimit="10" cx="109.823" cy="120.375" rx="4.713" ry="4.707"/>
	<polygon fill="#434343" points="119.721,127.821 117.297,130.245 109.955,121.262 109.089,120.396 100.168,113.117 
		102.591,110.693 109.92,119.664 110.789,120.534 	"/>
	<polygon fill="#434343" points="102.539,130.223 100.193,127.876 109.192,120.52 110.013,119.697 117.354,110.715 119.7,113.062 
		110.723,120.398 109.91,121.21 	"/>
	<path fill="none" stroke="#434343" stroke-miterlimit="10" d="M117.637,127.001"/>
	<path fill="none" stroke="#434343" stroke-miterlimit="10" d="M117.543,118"/>
	<polygon fill="#434343" points="122,121.516 119,121.516 119.578,125.5 121.375,125.5 	"/>
	<rect x="119.016" y="119.609" fill="#434343" width="2.953" height="0.875"/>
</g>
</svg>
