<?xml version="1.0" encoding="utf-8"?>
<!-- Generator: Adobe Illustrator 15.0.0, SVG Export Plug-In . SVG Version: 6.00 Build 0)  -->
<!DOCTYPE svg PUBLIC "-//W3C//DTD SVG 1.0//EN" "http://www.w3.org/TR/2001/REC-SVG-20010904/DTD/svg10.dtd">
<svg version="1.0" id="Layer_1" xmlns="http://www.w3.org/2000/svg" xmlns:xlink="http://www.w3.org/1999/xlink" x="0px" y="0px"
	 width="220px" height="227px" viewBox="0 0 220 227" enable-background="new 0 0 220 227" xml:space="preserve">
<g>
	<path fill="#434343" d="M109.062,108.5c-6.582,0-11.938,5.355-11.938,11.938c0,6.584,5.354,11.938,11.938,11.938
		S121,127.021,121,120.438C121,113.855,115.646,108.5,109.062,108.5z M109.98,130.355v-3.754h-1.834v3.754
		c-4.742-0.438-8.535-4.203-8.998-8.938h3.811v-1.834h-3.818c0.41-4.793,4.223-8.625,9.006-9.063v3.879h1.834v-3.879
		c4.783,0.438,8.596,4.271,9.006,9.063h-3.818v1.834h3.812C118.514,126.152,114.723,129.92,109.98,130.355z"/>
	<polygon fill="#434343" points="109.928,117.521 108.043,117.521 108.043,119.542 106.031,119.542 106.031,121.438 
		108.043,121.438 108.043,123.459 109.928,123.459 109.928,121.438 111.938,121.438 111.938,119.542 109.928,119.542 	"/>
</g>
</svg>
