<?xml version="1.0" encoding="utf-8"?>
<!-- Generator: Adobe Illustrator 15.0.0, SVG Export Plug-In . SVG Version: 6.00 Build 0)  -->
<!DOCTYPE svg PUBLIC "-//W3C//DTD SVG 1.0//EN" "http://www.w3.org/TR/2001/REC-SVG-20010904/DTD/svg10.dtd">
<svg version="1.0" id="Layer_1" xmlns="http://www.w3.org/2000/svg" xmlns:xlink="http://www.w3.org/1999/xlink" x="0px" y="0px"
	 width="220px" height="227px" viewBox="0 0 220 227" enable-background="new 0 0 220 227" xml:space="preserve">
<g>
	<rect x="91" y="91.5" fill="#434343" width="5.766" height="1.875"/>
	<rect x="91" y="113.625" fill="#434343" width="5.766" height="1.875"/>
	<path fill="#434343" d="M91,112.321h5.766V94.736H91V112.321z M93.923,111.522c-1.081,0-1.954-0.896-1.954-2.006
		c0-1.108,0.873-2.009,1.954-2.009c1.078,0,1.954,0.9,1.954,2.009C95.877,110.626,95.001,111.522,93.923,111.522z M91.875,96.406H96
		v1.188h-4.125V96.406z M91.859,99.422H96v1.172h-4.141V99.422z"/>
	<rect x="98" y="91.5" fill="#434343" width="5.766" height="1.875"/>
	<rect x="98" y="113.625" fill="#434343" width="5.766" height="1.875"/>
	<path fill="#434343" d="M98,112.321h5.766V94.736H98V112.321z M100.923,111.522c-1.081,0-1.954-0.896-1.954-2.006
		c0-1.108,0.873-2.009,1.954-2.009c1.078,0,1.954,0.9,1.954,2.009C102.877,110.626,102.001,111.522,100.923,111.522z M98.875,96.406
		H103v1.188h-4.125V96.406z M98.859,99.422H103v1.172h-4.141V99.422z"/>
	<rect x="105" y="91.5" fill="#434343" width="5.766" height="1.875"/>
	<rect x="105" y="113.625" fill="#434343" width="5.766" height="1.875"/>
	<path fill="#434343" d="M105,112.321h5.766V94.736H105V112.321z M107.923,111.522c-1.081,0-1.954-0.896-1.954-2.006
		c0-1.108,0.873-2.009,1.954-2.009c1.078,0,1.954,0.9,1.954,2.009C109.877,110.626,109.001,111.522,107.923,111.522z
		 M105.875,96.406H110v1.188h-4.125V96.406z M105.859,99.422H110v1.172h-4.141V99.422z"/>
</g>
</svg>
