<?xml version="1.0" encoding="utf-8"?>
<!-- Generator: Adobe Illustrator 15.0.0, SVG Export Plug-In . SVG Version: 6.00 Build 0)  -->
<!DOCTYPE svg PUBLIC "-//W3C//DTD SVG 1.0//EN" "http://www.w3.org/TR/2001/REC-SVG-20010904/DTD/svg10.dtd">
<svg version="1.0" id="Layer_1" xmlns="http://www.w3.org/2000/svg" xmlns:xlink="http://www.w3.org/1999/xlink" x="0px" y="0px"
	 width="220px" height="227px" viewBox="0 0 220 227" enable-background="new 0 0 220 227" xml:space="preserve">
<g>
	<path fill="#434343" d="M107.998,100.533l-2.348-4h-6.652v2h-2v15h1.016l0.002,1h15.52l-1.3-1.279
		c-0.547,0.229-1.146,0.355-1.772,0.355c-2.553,0-4.627-2.072-4.627-4.618c0-2.546,2.074-4.616,4.627-4.616
		c2.552,0,4.629,2.07,4.629,4.616c0,0.591-0.122,1.151-0.325,1.672l3.719,3.87h2.422l0.031-14H107.998L107.998,100.533z"/>
	<polygon fill="#434343" points="117.02,114.562 116.082,115.541 113.5,113 114.52,111.959 	"/>
</g>
<path fill="#434343" d="M107.032,108.424c0,1.922,1.562,3.479,3.489,3.479c1.926,0,3.487-1.559,3.487-3.479
	s-1.562-3.479-3.487-3.479C108.594,104.945,107.032,106.502,107.032,108.424z M113.038,108.438c0,1.414-1.138,2.562-2.538,2.562
	c-1.399,0-2.539-1.147-2.539-2.562c0-1.416,1.14-2.564,2.539-2.564C111.9,105.873,113.038,107.021,113.038,108.438z"/>
<polygon fill="#434343" points="116.959,99.5 116.959,97.543 108.042,97.543 109.042,99.5 "/>
</svg>
