<?xml version="1.0" encoding="utf-8"?>
<!-- Generator: Adobe Illustrator 15.0.0, SVG Export Plug-In . SVG Version: 6.00 Build 0)  -->
<!DOCTYPE svg PUBLIC "-//W3C//DTD SVG 1.0//EN" "http://www.w3.org/TR/2001/REC-SVG-20010904/DTD/svg10.dtd">
<svg version="1.0" id="Layer_1" xmlns="http://www.w3.org/2000/svg" xmlns:xlink="http://www.w3.org/1999/xlink" x="0px" y="0px"
	 width="220px" height="227px" viewBox="0 0 220 227" enable-background="new 0 0 220 227" xml:space="preserve">
<g>
	<path fill="#434343" d="M114,86.5h-9c-0.553,0-1,0.456-1,1.02v4.839c0,0.562,0.447,1.019,1,1.019h9c0.553,0,1-0.456,1-1.019V87.52
		C115,86.956,114.553,86.5,114,86.5z M114.042,90.541h-1.084v-1.166h1.084V90.541z"/>
	<path fill="#434343" d="M114,94.541h-9c-0.553,0-1,0.451-1,1.01v12.861c0,0.558,0.447,1.01,1,1.01h0.021v0.848h1.959v-0.848h5.041
		v0.848h1.959v-0.848H114c0.553,0,1-0.452,1-1.01V95.551C115,94.992,114.553,94.541,114,94.541z M114.042,98.541h-1.084v-2.166
		h1.084V98.541z"/>
</g>
</svg>
