<?xml version="1.0" encoding="utf-8"?>
<!-- Generator: Adobe Illustrator 15.0.0, SVG Export Plug-In . SVG Version: 6.00 Build 0)  -->
<!DOCTYPE svg PUBLIC "-//W3C//DTD SVG 1.0//EN" "http://www.w3.org/TR/2001/REC-SVG-20010904/DTD/svg10.dtd">
<svg version="1.0" id="Layer_1" xmlns="http://www.w3.org/2000/svg" xmlns:xlink="http://www.w3.org/1999/xlink" x="0px" y="0px"
	 width="220px" height="227px" viewBox="0 0 220 227" enable-background="new 0 0 220 227" xml:space="preserve">
<g>
	<rect x="96" y="102.5" fill="#434343" width="15.87" height="8.886"/>
	<g>
		<path fill="#434343" d="M113.843,113.458H94V100.5h19.843V113.458z M94.912,112.542h18.171V101.4H94.912V112.542z"/>
	</g>
	<polygon fill="#434343" points="93,114.584 93,111.609 92,111.609 92,115.5 95.958,115.5 95.958,114.584 	"/>
	<polygon fill="#434343" points="93,99.416 95.958,99.416 95.958,98.5 92,98.5 92,102.391 93,102.391 	"/>
	<polygon fill="#434343" points="115.125,99.416 115.125,102.391 115.959,102.391 115.959,98.5 112.083,98.5 112.083,99.416 	"/>
	<polygon fill="#434343" points="115.042,114.584 112,114.584 112,115.5 115.876,115.5 115.876,111.609 115.042,111.609 	"/>
</g>
</svg>
