<?xml version="1.0" encoding="utf-8"?>
<!-- Generator: Adobe Illustrator 15.0.0, SVG Export Plug-In . SVG Version: 6.00 Build 0)  -->
<!DOCTYPE svg PUBLIC "-//W3C//DTD SVG 1.0//EN" "http://www.w3.org/TR/2001/REC-SVG-20010904/DTD/svg10.dtd">
<svg version="1.0" id="Layer_1" xmlns="http://www.w3.org/2000/svg" xmlns:xlink="http://www.w3.org/1999/xlink" x="0px" y="0px"
	 width="220px" height="227px" viewBox="0 0 220 227" enable-background="new 0 0 220 227" xml:space="preserve">
<g>
	<path fill="#434343" d="M111.916,90.583c-5.477,0-9.916,5.274-9.916,9.358c0,4.082,4.439,4.392,9.916,4.392
		c5.478,0,9.917-0.31,9.917-4.392C121.833,95.857,117.394,90.583,111.916,90.583z M105.51,101.562c-0.869,0-1.572-0.699-1.572-1.562
		c0-0.862,0.703-1.562,1.572-1.562c0.87,0,1.573,0.7,1.573,1.562C107.083,100.863,106.38,101.562,105.51,101.562z M109.49,98.542
		c-0.869,0-1.573-0.705-1.573-1.573c0-0.867,0.704-1.572,1.573-1.572c0.868,0,1.57,0.705,1.57,1.572
		C111.062,97.837,110.358,98.542,109.49,98.542z M112.479,102.584c-0.861,0-1.562-0.713-1.562-1.594s0.699-1.594,1.562-1.594
		c0.863,0,1.562,0.713,1.562,1.594S113.343,102.584,112.479,102.584z M113.499,95.667c-0.873,0-1.582-0.728-1.582-1.625
		s0.709-1.625,1.582-1.625c0.875,0,1.584,0.728,1.584,1.625S114.374,95.667,113.499,95.667z M117.521,100.584
		c-0.863,0-1.562-0.704-1.562-1.574c0-0.867,0.699-1.572,1.562-1.572c0.861,0,1.562,0.705,1.562,1.572
		C119.083,99.88,118.384,100.584,117.521,100.584z"/>
	<path fill="#434343" d="M116.38,105.539c-1.313,0.16-2.834,0.191-4.456,0.191c-1.56,0-3.024-0.027-4.307-0.173
		c-0.002,0.129-0.008,0.257-0.008,0.388c0,4.68-5.333,8.472,4.389,8.472c9.72,0,4.39-3.792,4.39-8.472
		C116.388,105.809,116.382,105.675,116.38,105.539z"/>
</g>
</svg>
