<?xml version="1.0" encoding="utf-8"?>
<!-- Generator: Adobe Illustrator 15.0.0, SVG Export Plug-In . SVG Version: 6.00 Build 0)  -->
<!DOCTYPE svg PUBLIC "-//W3C//DTD SVG 1.0//EN" "http://www.w3.org/TR/2001/REC-SVG-20010904/DTD/svg10.dtd">
<svg version="1.0" id="Layer_1" xmlns="http://www.w3.org/2000/svg" xmlns:xlink="http://www.w3.org/1999/xlink" x="0px" y="0px"
	 width="220px" height="227px" viewBox="0 0 220 227" enable-background="new 0 0 220 227" xml:space="preserve">
<path fill="#434343" d="M117.719,108.209h-7.894c0.08-0.195,0.198-0.405,0.378-0.621c0.412-0.493,1.098-0.743,2.035-0.743
	c2.317,0,3.755-1.808,3.755-3.481c0-0.848-0.355-1.612-1-2.152c-0.685-0.574-1.638-0.865-2.831-0.865v1.5
	c1.481,0,2.366,0.566,2.366,1.518c0,0.952-0.876,1.981-2.29,1.981c-1.386,0-2.444,0.427-3.147,1.268
	c-0.493,0.592-0.703,1.151-0.793,1.598h-1.788c-3.513,0-6.357,2.828-6.357,6.315v0.241c0,3.488,2.847,6.316,6.357,6.316h11.209
	c3.514,0,6.358-2.828,6.358-6.316v-0.241C124.077,111.037,121.23,108.209,117.719,108.209z M109.135,115.219h-2v2h-1.078v-2h-1.982
	v-1.078h1.982v-1.996h1.078v1.996h2V115.219z M116.451,114.398c-0.887,0-1.606-0.718-1.606-1.602c0-0.887,0.722-1.604,1.606-1.604
	s1.605,0.717,1.605,1.604C118.057,113.681,117.338,114.398,116.451,114.398z M119.5,118.205c-0.887,0-1.604-0.719-1.604-1.604
	S118.615,115,119.5,115s1.605,0.717,1.605,1.602S120.387,118.205,119.5,118.205z"/>
</svg>
