<?xml version="1.0" encoding="utf-8"?>
<!-- Generator: Adobe Illustrator 15.0.0, SVG Export Plug-In . SVG Version: 6.00 Build 0)  -->
<!DOCTYPE svg PUBLIC "-//W3C//DTD SVG 1.0//EN" "http://www.w3.org/TR/2001/REC-SVG-20010904/DTD/svg10.dtd">
<svg version="1.0" id="Layer_1" xmlns="http://www.w3.org/2000/svg" xmlns:xlink="http://www.w3.org/1999/xlink" x="0px" y="0px"
	 width="220px" height="227px" viewBox="0 0 220 227" enable-background="new 0 0 220 227" xml:space="preserve">
<path fill="#434343" d="M112.385,92.959H94.531c-1.675,0-3.031,1.363-3.031,3.043v17.915c0,1.681,1.356,3.042,3.031,3.042h17.854
	c1.675,0,3.031-1.361,3.031-3.042V96.002C115.416,94.322,114.06,92.959,112.385,92.959z M96.5,103.918
	c-1.635,0-2.959-1.325-2.959-2.959S94.865,98,96.5,98c1.633,0,2.958,1.325,2.958,2.959S98.133,103.918,96.5,103.918z M103.5,103.918
	c-1.635,0-2.959-1.325-2.959-2.959S101.865,98,103.5,98c1.633,0,2.958,1.325,2.958,2.959S105.133,103.918,103.5,103.918z
	 M96.5,111.918c-1.635,0-2.959-1.325-2.959-2.959S94.865,106,96.5,106c1.633,0,2.958,1.325,2.958,2.959S98.133,111.918,96.5,111.918
	z M110.5,111.918c-1.635,0-2.959-1.325-2.959-2.959S108.865,106,110.5,106c1.633,0,2.958,1.325,2.958,2.959
	S112.133,111.918,110.5,111.918z M103.5,111.918c-1.635,0-2.959-1.325-2.959-2.959S101.865,106,103.5,106
	c1.633,0,2.958,1.325,2.958,2.959S105.133,111.918,103.5,111.918z M110.5,103.918c-1.635,0-2.959-1.325-2.959-2.959
	S108.865,98,110.5,98c1.633,0,2.958,1.325,2.958,2.959S112.133,103.918,110.5,103.918z"/>
</svg>
