<?xml version="1.0" encoding="utf-8"?>
<!-- Generator: Adobe Illustrator 15.0.0, SVG Export Plug-In . SVG Version: 6.00 Build 0)  -->
<!DOCTYPE svg PUBLIC "-//W3C//DTD SVG 1.0//EN" "http://www.w3.org/TR/2001/REC-SVG-20010904/DTD/svg10.dtd">
<svg version="1.0" id="Layer_1" xmlns="http://www.w3.org/2000/svg" xmlns:xlink="http://www.w3.org/1999/xlink" x="0px" y="0px"
	 width="220px" height="227px" viewBox="0 0 220 227" enable-background="new 0 0 220 227" xml:space="preserve">
<g>
	<polygon fill="#434343" points="94.084,94.674 94.084,112.467 97,112.467 97,97.467 115.084,97.467 115.084,112.467 118,112.467 
		118,94.674 	"/>
	<rect x="98.043" y="98.508" fill="#434343" width="15.938" height="0.938"/>
	<rect x="98.043" y="100.508" fill="#434343" width="15.938" height="0.938"/>
	<rect x="98.043" y="102.508" fill="#434343" width="15.938" height="0.938"/>
	<path fill="#434343" d="M110.965,105.967l0.012-2.428h-0.937v2.278c-0.154-0.021-2.775-0.284-4.033-0.284
		c-1.256,0-4.09,0.225-4.09,0.225v-2.248h-0.88v2.355c-1.698,0.391-1.979,2.143-1.979,3.174c0,0-0.206,1.406,1.959,1.406
		c0.568,0,9.438,0,10.008,0c1.883,0,1.93-1.406,1.93-1.406C112.955,107.547,112.492,106.076,110.965,105.967z M101.526,109.535
		c-0.822,0-1.486-0.673-1.486-1.502c0-0.832,0.664-1.504,1.486-1.504c0.813,0,1.479,0.672,1.479,1.504
		C103.006,108.862,102.342,109.535,101.526,109.535z M108.048,109.539h-4.051v-1.062h4.051V109.539z M110.484,109.502
		c-0.807,0-1.453-0.654-1.453-1.463s0.646-1.461,1.453-1.461c0.804,0,1.458,0.652,1.458,1.461S111.288,109.502,110.484,109.502z"/>
	<path fill="#434343" d="M109.057,111.562c0,0.518,0.438,0.938,0.977,0.938c0.539,0,0.977-0.42,0.977-0.938v-1.061h-1.951
		L109.057,111.562L109.057,111.562z"/>
	<path fill="#434343" d="M101.043,111.547c0,0.525,0.445,0.953,0.994,0.953s0.996-0.428,0.996-0.953v-1.081h-1.99V111.547z"/>
</g>
</svg>
