<?xml version="1.0" encoding="utf-8"?>
<!-- Generator: Adobe Illustrator 15.0.0, SVG Export Plug-In . SVG Version: 6.00 Build 0)  -->
<!DOCTYPE svg PUBLIC "-//W3C//DTD SVG 1.0//EN" "http://www.w3.org/TR/2001/REC-SVG-20010904/DTD/svg10.dtd">
<svg version="1.0" id="Layer_1" xmlns="http://www.w3.org/2000/svg" xmlns:xlink="http://www.w3.org/1999/xlink" x="0px" y="0px"
	 width="220px" height="227px" viewBox="0 0 220 227" enable-background="new 0 0 220 227" xml:space="preserve">
<g>
	<path fill="#434343" d="M95.934,92.5c-0.414,0-0.777-0.232-0.777-0.5v-2c0-0.268,0.363-0.5,0.777-0.5h18.132
		c0.414,0,0.777,0.232,0.777,0.5v2c0,0.268-0.363,0.5-0.777,0.5H95.934z"/>
	<path fill="#434343" d="M93.696,99.5c-0.338,0-0.612-0.225-0.612-0.5v-2c0-0.275,0.274-0.5,0.612-0.5h22.607
		c0.338,0,0.612,0.225,0.612,0.5v2c0,0.275-0.274,0.5-0.612,0.5H93.696z"/>
	<path fill="#434343" d="M96.585,106.434c-0.04,0-0.082-0.006-0.122-0.016l-1.938-0.482c-0.268-0.065-0.432-0.338-0.365-0.604
		l4.822-15.101c0.064-0.256,0.265-0.411,0.494-0.411c0.041,0,0.082,0.005,0.122,0.015l1.938,0.484
		c0.131,0.031,0.24,0.111,0.309,0.227c0.069,0.115,0.089,0.249,0.057,0.379l-4.822,15.102
		C97.016,106.275,96.815,106.434,96.585,106.434z"/>
	<path fill="#434343" d="M113.541,106.225c-0.23,0-0.432-0.155-0.486-0.381l-4.84-15.162c-0.023-0.099-0.003-0.231,0.065-0.348
		c0.068-0.115,0.178-0.193,0.308-0.227l1.939-0.484c0.039-0.01,0.08-0.015,0.121-0.015c0.229,0,0.431,0.155,0.485,0.38l4.841,15.164
		c0.058,0.234-0.106,0.507-0.375,0.572l-1.938,0.482C113.623,106.219,113.581,106.225,113.541,106.225z"/>
</g>
</svg>
