<?xml version="1.0" encoding="utf-8"?>
<!-- Generator: Adobe Illustrator 15.0.0, SVG Export Plug-In . SVG Version: 6.00 Build 0)  -->
<!DOCTYPE svg PUBLIC "-//W3C//DTD SVG 1.0//EN" "http://www.w3.org/TR/2001/REC-SVG-20010904/DTD/svg10.dtd">
<svg version="1.0" id="Layer_1" xmlns="http://www.w3.org/2000/svg" xmlns:xlink="http://www.w3.org/1999/xlink" x="0px" y="0px"
	 width="220px" height="227px" viewBox="0 0 220 227" enable-background="new 0 0 220 227" xml:space="preserve">
<g>
	<path fill="#434343" d="M95.67,125.156l4.927,4.927c0.714,0.714,1.858,0.723,2.562,0.021l15.322-11.52
		c0.7-0.699,0.692-1.845-0.021-2.557l-8.734-8.734c-0.712-0.712-1.856-0.722-2.558-0.021l-11.519,15.325
		C94.948,123.299,94.958,124.444,95.67,125.156z M104.295,121.808c-2.492,0.015-5.256-1.985-5.256-1.985l4.195-5.462l4.169-5.431
		c0.7-0.699,1.846-0.688,2.558,0.021l6.885,6.885c0.713,0.713,0.723,1.857,0.021,2.557l-7.158,5.461
		C109.709,123.854,107.202,121.793,104.295,121.808z"/>
</g>
</svg>
