<?xml version="1.0" encoding="utf-8"?>
<!-- Generator: Adobe Illustrator 15.0.0, SVG Export Plug-In . SVG Version: 6.00 Build 0)  -->
<!DOCTYPE svg PUBLIC "-//W3C//DTD SVG 1.0//EN" "http://www.w3.org/TR/2001/REC-SVG-20010904/DTD/svg10.dtd">
<svg version="1.0" id="Layer_1" xmlns="http://www.w3.org/2000/svg" xmlns:xlink="http://www.w3.org/1999/xlink" x="0px" y="0px"
	 width="220px" height="227px" viewBox="0 0 220 227" enable-background="new 0 0 220 227" xml:space="preserve">
<g>
	<path fill="#555555" d="M110,119.665l-5.812-3.688v4.73c0,0,0,0.822,0.534,0.949c1.671,0.396,3.419,0.773,5.278,0.773
		c1.905,0,3.729-0.287,5.406-0.813c0.406-0.087,0.406-0.827,0.406-0.827v-4.812L110,119.665z"/>
	<path fill="#555555" d="M110,102.5l-12,7.084l2.258,1.694l8.553-2.003c0.139-0.532,0.615-0.926,1.189-0.926
		c0.681,0,1.232,0.553,1.232,1.234s-0.554,1.232-1.232,1.232c-0.332,0-0.761-0.043-1.051-0.459
		c-0.068-0.096-7.609,1.755-7.609,1.755l8.66,5.959l12-8.487L110,102.5z"/>
	<path fill="#555555" d="M100.863,112.617h-0.65c-0.556,2.215-0.966,9.256-0.966,9.693c0,0.041,0.009,0.08,0.017,0.119h2.549
		c0.009-0.039,0.018-0.078,0.018-0.119C101.828,121.873,101.418,114.832,100.863,112.617z"/>
</g>
</svg>
