<?xml version="1.0" encoding="utf-8"?>
<!-- Generator: Adobe Illustrator 15.0.0, SVG Export Plug-In . SVG Version: 6.00 Build 0)  -->
<!DOCTYPE svg PUBLIC "-//W3C//DTD SVG 1.0//EN" "http://www.w3.org/TR/2001/REC-SVG-20010904/DTD/svg10.dtd">
<svg version="1.0" id="Layer_1" xmlns="http://www.w3.org/2000/svg" xmlns:xlink="http://www.w3.org/1999/xlink" x="0px" y="0px"
	 width="220px" height="227px" viewBox="0 0 220 227" enable-background="new 0 0 220 227" xml:space="preserve">
<path fill="#434343" d="M126,97.5v-3.959h-3.959v1.021H116v-1.021h-3.959v1.021H106v-1.021h-3.959v1.021v1.916V97.5h1.011v6.041
	h-1.011v3.959h1.011v6.041h-1.011v1.021v1.916v1.021h1.011h1.917H106v-1.021h6.041v1.021H116v-1.021h6.041v1.021h1.011h1.917H126
	v-3.959h-1.031V107.5H126v-3.959h-1.031V97.5H126z M115.062,94.438v2.125h-2.084v-2.125H115.062z M125.062,94.438v2.125h-2.084
	v-2.125H125.062z M102.979,94.438h2.084v2.125h-2.084V94.438z M102.969,104.438h2.125v2.125h-2.125V104.438z M105.062,116.584
	h-2.084v-2.125h2.084V116.584z M112.979,116.562v-2.125h2.084v2.125H112.979z M122.968,116.562v-2.114h2.126v2.114H122.968z
	 M125.094,106.604h-2.125v-2.166h2.125V106.604z M122.041,103.541v3.959h1.011v6.041h-1.011v1.021H116v-1.021h-3.959v1.021H106
	v-1.021h-1.031V107.5H106v-3.959h-1.031V97.5H106v-1.021h6.041V97.5H116v-1.021h6.041V97.5h1.011v6.041H122.041z"/>
</svg>
