<?xml version="1.0" encoding="utf-8"?>
<!-- Generator: Adobe Illustrator 15.0.0, SVG Export Plug-In . SVG Version: 6.00 Build 0)  -->
<!DOCTYPE svg PUBLIC "-//W3C//DTD SVG 1.0//EN" "http://www.w3.org/TR/2001/REC-SVG-20010904/DTD/svg10.dtd">
<svg version="1.0" id="Layer_1" xmlns="http://www.w3.org/2000/svg" xmlns:xlink="http://www.w3.org/1999/xlink" x="0px" y="0px"
	 width="220px" height="227px" viewBox="0 0 220 227" enable-background="new 0 0 220 227" xml:space="preserve">
<g>
	<path fill="#434343" d="M118.91,110.677v-8.39c1.717-0.424,2.996-1.972,2.996-3.831c0-2.185-1.76-3.956-3.932-3.956
		s-3.931,1.771-3.931,3.956c0,1.812,1.337,3.202,2.988,3.671v8.493c-0.3,0.09-0.705,0.331-0.972,0.487l-10.746-10.721
		c0.34-0.58,0.549-1.246,0.549-1.967c0-2.166-1.762-3.922-3.934-3.922c-2.172,0-3.93,1.757-3.93,3.923
		c0,1.82,1.342,3.336,3.027,3.779v8.429c-1.686,0.446-3.027,1.979-3.027,3.815c0,2.188,1.76,3.961,3.932,3.961
		c2.172,0,3.934-1.773,3.934-3.961c0-1.838-1.25-3.369-2.934-3.815V102.2c0.346-0.092,0.67-0.229,0.973-0.404l10.754,10.729
		c-0.333,0.578-0.537,1.24-0.537,1.96c0,2.166,1.739,3.922,3.892,3.922c2.149,0,3.895-1.756,3.895-3.922
		C121.906,112.631,120.625,111.087,118.91,110.677z"/>
</g>
</svg>
