<?xml version="1.0" encoding="utf-8"?>
<!-- Generator: Adobe Illustrator 15.0.0, SVG Export Plug-In . SVG Version: 6.00 Build 0)  -->
<!DOCTYPE svg PUBLIC "-//W3C//DTD SVG 1.0//EN" "http://www.w3.org/TR/2001/REC-SVG-20010904/DTD/svg10.dtd">
<svg version="1.0" id="Layer_1" xmlns="http://www.w3.org/2000/svg" xmlns:xlink="http://www.w3.org/1999/xlink" x="0px" y="0px"
	 width="220px" height="227px" viewBox="0 0 220 227" enable-background="new 0 0 220 227" xml:space="preserve">
<path fill="#434343" d="M124.68,103.972l-1.102-1.101c-0.469-0.47-1.014-0.346-1.428,0.068l-3.434,3.432
	c-0.367,0.366-0.521,0.791-0.191,1.25l-5.783,5.785c-1.688-1.179-3.797-1.221-5.035,0.02c-0.365,0.365-0.617,0.809-0.766,1.289
	c-0.109,0.363-1.088,0.969-1.551,0.961c-1.182-0.01-2.293,0.381-3.113,1.201c-1.869,1.873-1.521,5.262,0.783,7.568
	c2.307,2.303,5.691,2.652,7.562,0.78c0.822-0.821,1.213-1.935,1.201-3.117c-0.004-0.458,0.621-1.441,0.996-1.562
	c0.473-0.146,0.896-0.396,1.254-0.752c1.229-1.229,1.195-3.309,0.051-4.984l5.793-5.792c0.463,0.337,0.936,0.118,1.303-0.25
	l3.434-3.433C125.068,104.924,125.15,104.443,124.68,103.972z M110.568,118.873c-1.045,0-1.896-0.828-1.896-1.852
	c0-1.022,0.852-1.854,1.896-1.854c1.047,0,1.895,0.829,1.895,1.854C112.463,118.045,111.615,118.873,110.568,118.873z"/>
</svg>
