<?xml version="1.0" encoding="utf-8"?>
<!-- Generator: Adobe Illustrator 15.0.0, SVG Export Plug-In . SVG Version: 6.00 Build 0)  -->
<!DOCTYPE svg PUBLIC "-//W3C//DTD SVG 1.0//EN" "http://www.w3.org/TR/2001/REC-SVG-20010904/DTD/svg10.dtd">
<svg version="1.0" id="Layer_1" xmlns="http://www.w3.org/2000/svg" xmlns:xlink="http://www.w3.org/1999/xlink" x="0px" y="0px"
	 width="220px" height="227px" viewBox="0 0 220 227" enable-background="new 0 0 220 227" xml:space="preserve">
<g>
	<path fill="#434343" d="M107.052,128.284v1.434c0,0.934,0.752,1.688,1.681,1.688h8.532c0.929,0,1.68-0.757,1.68-1.688v-1.434
		c0-0.933-0.751-1.688-1.68-1.688h-8.532C107.804,126.597,107.052,127.354,107.052,128.284z"/>
	<path fill="#434343" d="M111.088,112.32c-0.002,0.022-0.016,0.046-0.016,0.069v2.121h-1.162c0,0,0-4.113,0-5.049
		s-0.417-1.933-1.376-1.933c-0.958,0-1.482,0.966-1.482,1.933c0,0,0,5.092,0,6.524c0,3.479-2.042,2.986-2.042,2.986l-3.271-1.828
		c-1.751,0-1.684,0.746-1.684,1.664c0.594,1.562,6.073,4.584,6.073,4.584c1.685,0.498,1.934,1.982,1.934,1.982h8.902l-0.025-0.78
		c0-2.331,1.962-2.807,1.962-3.769v-5.639c0-0.959-0.761-1.738-1.694-1.738h-0.14v1.06h-1.138v-1.124
		c0-0.129-0.029-0.249-0.082-0.358c-0.146-0.312-0.472-0.53-0.853-0.53c-0.489,0-0.881,0.363-0.919,0.822
		c-0.002,0.021-0.018,0.044-0.018,0.066v1.124h-1.118v-2.12c0-0.13-0.032-0.252-0.083-0.359c-0.146-0.312-0.474-0.531-0.854-0.531
		C111.518,111.5,111.127,111.862,111.088,112.32z"/>
</g>
</svg>
