<?xml version="1.0" encoding="utf-8"?>
<!-- Generator: Adobe Illustrator 15.0.0, SVG Export Plug-In . SVG Version: 6.00 Build 0)  -->
<!DOCTYPE svg PUBLIC "-//W3C//DTD SVG 1.0//EN" "http://www.w3.org/TR/2001/REC-SVG-20010904/DTD/svg10.dtd">
<svg version="1.0" id="Layer_1" xmlns="http://www.w3.org/2000/svg" xmlns:xlink="http://www.w3.org/1999/xlink" x="0px" y="0px"
	 width="220px" height="227px" viewBox="0 0 220 227" enable-background="new 0 0 220 227" xml:space="preserve">
<path fill="#434343" d="M112.831,116.044c-0.552-0.289-1.201-0.133-1.451,0.347c0,0-1.574,3.675-2.463,3.438
	c-1.25-0.333-1.667-1.333-1.417-3.829v-8.273c0-0.541-0.447-0.979-1-0.979c-0.553,0-1,0.438-1,0.979v8.084h-1v-9.084
	c0-0.541-0.447-0.979-1-0.979c-0.553,0-1,0.438-1,0.979v9.084h-1v-8.084c0-0.541-0.447-0.979-1-0.979c-0.553,0-1,0.438-1,0.979
	v8.084h-1v-5.084c0-0.541-0.447-0.979-1-0.979c-0.553,0-1,0.438-1,0.979v7.041c0,0.062,0.062,2.809,0.062,4.854
	c0,3.865,2.396,7.062,8,7.062c6.938,0,8.812-12.25,8.812-12.25C113.625,116.952,113.383,116.33,112.831,116.044z"/>
</svg>
