<?xml version="1.0" encoding="utf-8"?>
<!-- Generator: Adobe Illustrator 15.0.0, SVG Export Plug-In . SVG Version: 6.00 Build 0)  -->
<!DOCTYPE svg PUBLIC "-//W3C//DTD SVG 1.0//EN" "http://www.w3.org/TR/2001/REC-SVG-20010904/DTD/svg10.dtd">
<svg version="1.0" id="Layer_1" xmlns="http://www.w3.org/2000/svg" xmlns:xlink="http://www.w3.org/1999/xlink" x="0px" y="0px"
	 width="220px" height="227px" viewBox="0 0 220 227" enable-background="new 0 0 220 227" xml:space="preserve">
<path fill="#434343" d="M118.286,111.967l-9.21-5.578c-0.425-0.262-0.794-0.5-1.188-0.66v-1.334
	c1.245-0.352,2.162-1.512,2.162-2.883c0-1.648-1.329-2.994-2.961-2.994s-2.961,1.346-2.961,2.994c0,0.441,0.358,0.799,0.799,0.799
	c0.441,0,0.799-0.355,0.799-0.799c0-0.77,0.612-1.396,1.363-1.396s1.363,0.627,1.363,1.396c0,0.771-0.612,1.396-1.363,1.396
	c-0.439,0-0.799,0.355-0.799,0.799v1.99c-0.299,0.107-0.595,0.271-0.926,0.486c-0.12,0.07-0.237,0.146-0.346,0.225l-9.146,5.543
	c-0.757,0.771-1.008,1.992-0.61,2.971c0.377,0.932,1.271,1.51,2.327,1.51h18.91c1.052,0,1.946-0.596,2.334-1.557
	C119.237,113.877,119.011,112.701,118.286,111.967z M116.5,114.553c-0.888,0-17.941,0-18.909,0c-0.969,0-0.94-1.01-0.501-1.451
	l9.164-5.373c0.493-0.24,1.118-0.271,1.606-0.004l9.194,5.379C117.497,113.541,117.388,114.553,116.5,114.553z"/>
</svg>
