<?xml version="1.0" encoding="utf-8"?>
<!-- Generator: Adobe Illustrator 15.0.0, SVG Export Plug-In . SVG Version: 6.00 Build 0)  -->
<!DOCTYPE svg PUBLIC "-//W3C//DTD SVG 1.0//EN" "http://www.w3.org/TR/2001/REC-SVG-20010904/DTD/svg10.dtd">
<svg version="1.0" id="Layer_1" xmlns="http://www.w3.org/2000/svg" xmlns:xlink="http://www.w3.org/1999/xlink" x="0px" y="0px"
	 width="220px" height="227px" viewBox="0 0 220 227" enable-background="new 0 0 220 227" xml:space="preserve">
<g>
	<path fill="#434343" d="M119.005,102.541H97.12c-0.55,0-0.995,0.814-0.995,1.82v1.215c0,1.004,0.445,1.818,0.995,1.818h9.047v5.105
		h2.75v-5.104h10.088c0.55,0,0.995-0.816,0.995-1.82v-1.215C120,103.355,119.555,102.541,119.005,102.541z M115.573,106.613
		c-0.915,0-1.657-0.736-1.657-1.646s0.742-1.645,1.657-1.645s1.657,0.734,1.657,1.645S116.488,106.613,115.573,106.613z"/>
	<path fill="#434343" d="M119.005,94.604H97.12c-0.55,0-0.995,0.807-0.995,1.799V97.6c0,0.992,0.445,1.797,0.995,1.797h21.885
		c0.55,0,0.995-0.805,0.995-1.797v-1.197C120,95.408,119.555,94.604,119.005,94.604z M115.573,98.625
		c-0.949,0-1.721-0.729-1.721-1.625c0-0.898,0.771-1.625,1.721-1.625s1.719,0.727,1.719,1.625
		C117.292,97.896,116.522,98.625,115.573,98.625z"/>
	<rect x="106.104" y="113.625" fill="#434343" width="2.875" height="0.875"/>
	<polygon fill="#434343" points="101.104,113.625 99.104,113.625 99.104,114.5 101.104,114.5 101.979,114.5 103.979,114.5 
		103.979,113.625 101.979,113.625 	"/>
	<rect x="111.104" y="113.625" fill="#434343" width="2.875" height="0.875"/>
	<rect x="116.104" y="113.625" fill="#434343" width="2.875" height="0.875"/>
</g>
</svg>
