<?xml version="1.0" encoding="utf-8"?>
<!-- Generator: Adobe Illustrator 15.0.0, SVG Export Plug-In . SVG Version: 6.00 Build 0)  -->
<!DOCTYPE svg PUBLIC "-//W3C//DTD SVG 1.0//EN" "http://www.w3.org/TR/2001/REC-SVG-20010904/DTD/svg10.dtd">
<svg version="1.0" id="Layer_1" xmlns="http://www.w3.org/2000/svg" xmlns:xlink="http://www.w3.org/1999/xlink" x="0px" y="0px"
	 width="220px" height="227px" viewBox="0 0 220 227" enable-background="new 0 0 220 227" xml:space="preserve">
<g>
	<path fill="#434343" d="M122.008,115.707H100.18c-0.548,0-0.992,0.805-0.992,1.797v1.199c0,0.992,0.444,1.797,0.992,1.797h21.828
		c0.548,0,0.992-0.805,0.992-1.797v-1.199C123,116.512,122.556,115.707,122.008,115.707z M118.604,119.604
		c-0.826,0-1.5-0.656-1.5-1.469c0-0.811,0.674-1.469,1.5-1.469c0.828,0,1.5,0.658,1.5,1.469
		C120.104,118.946,119.433,119.604,118.604,119.604z"/>
	<path fill="#434343" d="M113.767,109.664h-1.889v-4.479c0-0.557-0.421-0.633-0.938-0.633c-0.521,0-0.938,0.076-0.938,0.633v4.479
		h-1.788c-0.283,0.286-0.283,0.748,0,1.033l2.267,2.566c0.28,0.284,0.742,0.284,1.025,0l2.262-2.566
		C114.051,110.412,114.051,109.95,113.767,109.664z"/>
</g>
</svg>
