<?xml version="1.0" encoding="utf-8"?>
<!-- Generator: Adobe Illustrator 15.0.0, SVG Export Plug-In . SVG Version: 6.00 Build 0)  -->
<!DOCTYPE svg PUBLIC "-//W3C//DTD SVG 1.0//EN" "http://www.w3.org/TR/2001/REC-SVG-20010904/DTD/svg10.dtd">
<svg version="1.0" id="Layer_1" xmlns="http://www.w3.org/2000/svg" xmlns:xlink="http://www.w3.org/1999/xlink" x="0px" y="0px"
	 width="220px" height="227px" viewBox="0 0 220 227" enable-background="new 0 0 220 227" xml:space="preserve">
<g>
	<rect x="102.052" y="122.521" fill="#434343" width="13.834" height="1.875"/>
	<path fill="#434343" d="M115.658,105.369c-0.678-2.793-3.188-4.869-6.189-4.869c-3.09,0-5.665,2.199-6.25,5.117
		c-0.399-0.105-0.813-0.182-1.25-0.182c-2.744,0-4.969,2.238-4.969,5c0,2.764,2.225,5,4.969,5c0.028,0,0.057-0.008,0.083-0.008
		v5.883h13.834v-4.979c2.824-0.213,5.052-2.58,5.052-5.479C120.938,107.883,118.589,105.469,115.658,105.369z M108.834,103.078
		c-1.262,0.822-2.074,2.117-2.074,3.576h-1.947c0-2.111,1.696-3.883,3.992-4.379C109.221,102.188,109.481,102.654,108.834,103.078z"
		/>
</g>
</svg>
