<?xml version="1.0" encoding="utf-8"?>
<!-- Generator: Adobe Illustrator 15.0.0, SVG Export Plug-In . SVG Version: 6.00 Build 0)  -->
<!DOCTYPE svg PUBLIC "-//W3C//DTD SVG 1.0//EN" "http://www.w3.org/TR/2001/REC-SVG-20010904/DTD/svg10.dtd">
<svg version="1.0" id="Layer_1" xmlns="http://www.w3.org/2000/svg" xmlns:xlink="http://www.w3.org/1999/xlink" x="0px" y="0px"
	 width="220px" height="227px" viewBox="0 0 220 227" enable-background="new 0 0 220 227" xml:space="preserve">
<g>
	<path fill="#434343" d="M120.062,109.521c-0.646,1.375-3.241,3.041-7.062,3.041c-3.799,0-6.5-1.646-7.068-3.021
		c-2.867,0.129-4.932,1.846-4.932,2.866c0,1.689,5.372,4.091,12,4.091s12-2.399,12-4.091
		C125,111.375,122.938,110.058,120.062,109.521z"/>
	<path fill="#434343" d="M116.115,102.562c-0.773,0-2.372,0.562-3.1,0.562c-0.726,0-2.321-0.562-3.096-0.562
		c-1.672,0-2.716,2.174-2.861,3.006l-0.027,3.845c0.844,0.801,2.416,1.808,4.141,1.962c0.604,0.052,1.233,0.083,1.891,0.083
		c0.655,0,1.288-0.031,1.893-0.083c1.724-0.154,3.107-1.037,4-1.933l-0.008-3.824C118.818,104.752,117.771,102.562,116.115,102.562z
		"/>
</g>
</svg>
