<?xml version="1.0" encoding="utf-8"?>
<!-- Generator: Adobe Illustrator 15.0.0, SVG Export Plug-In . SVG Version: 6.00 Build 0)  -->
<!DOCTYPE svg PUBLIC "-//W3C//DTD SVG 1.0//EN" "http://www.w3.org/TR/2001/REC-SVG-20010904/DTD/svg10.dtd">
<svg version="1.0" id="Layer_1" xmlns="http://www.w3.org/2000/svg" xmlns:xlink="http://www.w3.org/1999/xlink" x="0px" y="0px"
	 width="220px" height="227px" viewBox="0 0 220 227" enable-background="new 0 0 220 227" xml:space="preserve">
<g>
	<polygon fill="#434343" points="109.093,115.552 109.372,116.588 112.535,129.489 115.73,116.453 115.977,115.552 	"/>
	<path fill="#434343" d="M116.298,108.112c-0.522-1.521-1.926-2.612-3.59-2.612c-1.813,0-3.321,1.292-3.716,3.02
		c-0.036,0-0.069-0.012-0.106-0.012c-2.109,0-3.822,1.748-3.822,3.904c0,1.9,1.156,3.48,2.919,3.828l-0.4-1.896h10.078l-0.479,2.081
		c1.567-0.563,2.819-2.437,2.819-4.229C120,110.037,118.369,108.286,116.298,108.112z"/>
</g>
</svg>
