<?xml version="1.0" encoding="utf-8"?>
<!-- Generator: Adobe Illustrator 15.0.0, SVG Export Plug-In . SVG Version: 6.00 Build 0)  -->
<!DOCTYPE svg PUBLIC "-//W3C//DTD SVG 1.0//EN" "http://www.w3.org/TR/2001/REC-SVG-20010904/DTD/svg10.dtd">
<svg version="1.0" id="Layer_1" xmlns="http://www.w3.org/2000/svg" xmlns:xlink="http://www.w3.org/1999/xlink" x="0px" y="0px"
	 width="220px" height="227px" viewBox="0 0 220 227" enable-background="new 0 0 220 227" xml:space="preserve">
<g>
	<path fill="#434343" d="M114.875,107.562c0-3.799-3.105-5.875-6.938-5.875c-3.832,0-6.937,2.078-6.937,5.875
		c0,4.875,2.705,6.791,4.425,9.865c0.371,0.664-0.688,0.336-0.331,1.01h5.843c0.354-0.668-0.834-0.34-0.466-0.998
		C112.184,114.359,114.875,112.562,114.875,107.562z"/>
	<rect x="105.125" y="119.688" fill="#434343" width="5.875" height="0.75"/>
	<rect x="105.125" y="121.688" fill="#434343" width="5.875" height="0.75"/>
	<path fill="#434343" d="M110,124.541c0,0.529-0.442,0.959-0.989,0.959h-2.021c-0.547,0-0.989-0.43-0.989-0.959v-0.895h4
		L110,124.541L110,124.541z"/>
</g>
</svg>
