<?xml version="1.0" encoding="utf-8"?>
<!-- Generator: Adobe Illustrator 15.0.0, SVG Export Plug-In . SVG Version: 6.00 Build 0)  -->
<!DOCTYPE svg PUBLIC "-//W3C//DTD SVG 1.0//EN" "http://www.w3.org/TR/2001/REC-SVG-20010904/DTD/svg10.dtd">
<svg version="1.0" id="Layer_1" xmlns="http://www.w3.org/2000/svg" xmlns:xlink="http://www.w3.org/1999/xlink" x="0px" y="0px"
	 width="220px" height="227px" viewBox="0 0 220 227" enable-background="new 0 0 220 227" xml:space="preserve">
<g>
	<g>
		<path fill="#434343" d="M119.548,117.998h-16.256c-2.082,0-3.777-1.752-3.777-3.903v-10.178c0-2.152,1.695-3.904,3.777-3.904
			h16.256c2.082,0,3.777,1.752,3.777,3.904v10.178C123.325,116.246,121.63,117.998,119.548,117.998z M103.081,101.844
			c-1.004,0-1.824,0.875-1.824,1.951v10.418c0,1.076,0.82,1.951,1.824,1.951h16.51c1.008,0,1.826-0.875,1.826-1.951v-10.418
			c0-1.076-0.818-1.951-1.826-1.951H103.081z"/>
	</g>
	<ellipse fill="#434343" cx="107.5" cy="105" rx="1.944" ry="2"/>
	<polygon fill="#434343" points="116.229,104.999 120.368,114.832 102.411,114.832 107.624,109.164 112.3,110.498 	"/>
</g>
</svg>
