<?xml version="1.0" encoding="utf-8"?>
<!-- Generator: Adobe Illustrator 15.0.0, SVG Export Plug-In . SVG Version: 6.00 Build 0)  -->
<!DOCTYPE svg PUBLIC "-//W3C//DTD SVG 1.0//EN" "http://www.w3.org/TR/2001/REC-SVG-20010904/DTD/svg10.dtd">
<svg version="1.0" id="Layer_1" xmlns="http://www.w3.org/2000/svg" xmlns:xlink="http://www.w3.org/1999/xlink" x="0px" y="0px"
	 width="220px" height="227px" viewBox="0 0 220 227" enable-background="new 0 0 220 227" xml:space="preserve">
<g>
	<path fill="#434343" d="M119.129,104.524h-17.906l-3.094,13.125c0,0,0,5.749,0,7.75c0,2,0.709,3.041,2.709,3.041s16.573,0,18.446,0
		s2.831-0.791,2.831-3.166s0-7.625,0-7.625L119.129,104.524z M114.15,120.608h-8.188v-2.25h8.188V120.608z M101.191,116.524
		l1.938-10h14.125l1.875,10H101.191z"/>
	<rect x="106.15" y="108.524" fill="#434343" width="7.938" height="0.938"/>
	<rect x="105.14" y="110.524" fill="#434343" width="9.948" height="0.938"/>
	<rect x="104.149" y="112.524" fill="#434343" width="11.938" height="0.938"/>
	<rect x="103.161" y="114.524" fill="#434343" width="13.947" height="0.938"/>
</g>
</svg>
