<?xml version="1.0" encoding="utf-8"?>
<!-- Generator: Adobe Illustrator 15.0.0, SVG Export Plug-In . SVG Version: 6.00 Build 0)  -->
<!DOCTYPE svg PUBLIC "-//W3C//DTD SVG 1.0//EN" "http://www.w3.org/TR/2001/REC-SVG-20010904/DTD/svg10.dtd">
<svg version="1.0" id="Layer_1" xmlns="http://www.w3.org/2000/svg" xmlns:xlink="http://www.w3.org/1999/xlink" x="0px" y="0px"
	 width="220px" height="227px" viewBox="0 0 220 227" enable-background="new 0 0 220 227" xml:space="preserve">
<g>
	<ellipse fill="#434343" cx="110.469" cy="117" rx="2.448" ry="2.438"/>
	<path fill="#434343" d="M115.818,99.625h-10.765c-0.584,0-1.056,0.455-1.056,1.016v21.846c0,0.561,0.472,1.016,1.056,1.016h10.765
		c0.585,0,1.057-0.455,1.057-1.016v-21.846C116.875,100.08,116.403,99.625,115.818,99.625z M110.5,121.688
		c-2.602,0-4.709-2.064-4.709-4.613c0-2.548,2.107-4.613,4.709-4.613c2.6,0,4.708,2.064,4.708,4.613
		C115.208,119.622,113.1,121.688,110.5,121.688z M115.15,108.604h-9.221v-7.145h9.221V108.604z"/>
</g>
</svg>
