<?xml version="1.0" encoding="utf-8"?>
<!-- Generator: Adobe Illustrator 15.0.0, SVG Export Plug-In . SVG Version: 6.00 Build 0)  -->
<!DOCTYPE svg PUBLIC "-//W3C//DTD SVG 1.0//EN" "http://www.w3.org/TR/2001/REC-SVG-20010904/DTD/svg10.dtd">
<svg version="1.0" id="Layer_1" xmlns="http://www.w3.org/2000/svg" xmlns:xlink="http://www.w3.org/1999/xlink" x="0px" y="0px"
	 width="220px" height="227px" viewBox="0 0 220 227" enable-background="new 0 0 220 227" xml:space="preserve">
<g>
	<g>
		<path fill="#434343" d="M122.001,104.605l-10.002,1c-1.082,0-1.999,0.991-1.999,0.991l-7,6.974c0,0.549,0.083,0.992,0.999,0.992
			h16.956c0,0-0.002-0.015-0.002-0.021c0-5.558-0.208-4.995,2.047-4.995v-3.949C123,105.051,122.553,104.605,122.001,104.605z
			 M121.049,108.635c-1.611,0-12.111,0.978-12.111,0.978l2.111-2.156c0,0,0.656-0.728,1.429-0.728l7.857-0.73
			c0.396,0,0.714,0.325,0.714,0.727V108.635z"/>
		<rect x="102" y="115.605" fill="#434343" width="19" height="1.875"/>
	</g>
	<path fill="#434343" d="M117.969,108.874c0,0.376-0.447,0.68-1,0.68h-0.953c-0.553,0-1-0.304-1-0.68v-0.584
		c0-0.376,0.447-0.68,1-0.68h0.953c0.553,0,1,0.304,1,0.68V108.874z"/>
	<g>
		<path fill="#434343" d="M124.945,119.501c-0.182,0-0.353-0.1-0.44-0.274c-2.451-4.841-1.366-7.058-0.408-9.015
			c0.438-0.897,0.817-1.673,0.817-2.643c0-0.827-0.197-1.395-0.586-1.686c-0.65-0.483-1.696-0.136-1.706-0.134
			c-0.255,0.085-0.539-0.055-0.627-0.323c-0.087-0.268,0.052-0.557,0.311-0.646c0.063-0.021,1.532-0.519,2.6,0.271
			c0.666,0.493,1.003,1.341,1.003,2.519c0,1.214-0.47,2.175-0.924,3.103c-0.893,1.822-1.814,3.706,0.4,8.08
			c0.127,0.251,0.033,0.561-0.21,0.688C125.102,119.48,125.021,119.501,124.945,119.501z"/>
	</g>
</g>
</svg>
