<?xml version="1.0" encoding="utf-8"?>
<!-- Generator: Adobe Illustrator 15.0.0, SVG Export Plug-In . SVG Version: 6.00 Build 0)  -->
<!DOCTYPE svg PUBLIC "-//W3C//DTD SVG 1.0//EN" "http://www.w3.org/TR/2001/REC-SVG-20010904/DTD/svg10.dtd">
<svg version="1.0" id="Layer_1" xmlns="http://www.w3.org/2000/svg" xmlns:xlink="http://www.w3.org/1999/xlink" x="0px" y="0px"
	 width="220px" height="227px" viewBox="0 0 220 227" enable-background="new 0 0 220 227" xml:space="preserve">
<g>
	<path fill="#434343" d="M115.876,102.52c0-1.396-0.133-1.895-1.528-1.895h-9.818c-1.396,0-1.529,0.498-1.529,1.895h2v4.066
		l-5,15.383c0,1.398,1.133,2.531,2.529,2.531h13.818c1.396,0,2.528-1.133,2.528-2.531l-4.979-15.428l-0.021-4.021H115.876z
		 M116.896,120.568c0.396,1.283-0.293,2.084-2.084,2.084h-10.667c-2.042,0-2.542-0.861-2.084-2.084l4.917-14.023l-0.016-4.066h5.031
		v4.031L116.896,120.568z"/>
	<path fill="#434343" d="M111.926,110.59h-4.928l-3,8.551c-0.581,1.715-0.394,2.359,2.297,2.359h6.334
		c2.663,0,2.727-0.771,2.297-2.359L111.926,110.59z"/>
</g>
</svg>
