<?xml version="1.0" encoding="utf-8"?>
<!-- Generator: Adobe Illustrator 15.0.0, SVG Export Plug-In . SVG Version: 6.00 Build 0)  -->
<!DOCTYPE svg PUBLIC "-//W3C//DTD SVG 1.0//EN" "http://www.w3.org/TR/2001/REC-SVG-20010904/DTD/svg10.dtd">
<svg version="1.0" id="Layer_1" xmlns="http://www.w3.org/2000/svg" xmlns:xlink="http://www.w3.org/1999/xlink" x="0px" y="0px"
	 width="220px" height="227px" viewBox="0 0 220 227" enable-background="new 0 0 220 227" xml:space="preserve">
<path fill="#434343" d="M112.639,96.285c-1.664,1.662-1.963,4.211-1.217,6.287l-12.234,12.235c0,0-0.801,3.426,2.74,2.51
	c0.086-0.113,1.875-0.875,1.875-0.875l0.041-2.959l2.98,0.053l1.031-0.969l-0.287-3.131l3.318,0.047l-0.044-3.125l2.125,1.168
	l1.705-1.523c2.136,0.887,4.681,0.469,6.416-1.266c2.295-2.295,2.293-6.016-0.002-8.311C118.792,94.13,114.934,93.99,112.639,96.285
	z M119.445,101.191c0.559,0.557,0.586,1.434,0.059,1.959c-0.523,0.525-1.402,0.5-1.957-0.059l-3.23-3.229
	c-0.557-0.557-0.584-1.434-0.059-1.959c0.525-0.525,1.402-0.498,1.961,0.059L119.445,101.191z"/>
</svg>
