<?xml version="1.0" encoding="utf-8"?>
<!-- Generator: Adobe Illustrator 15.0.0, SVG Export Plug-In . SVG Version: 6.00 Build 0)  -->
<!DOCTYPE svg PUBLIC "-//W3C//DTD SVG 1.0//EN" "http://www.w3.org/TR/2001/REC-SVG-20010904/DTD/svg10.dtd">
<svg version="1.0" id="Layer_1" xmlns="http://www.w3.org/2000/svg" xmlns:xlink="http://www.w3.org/1999/xlink" x="0px" y="0px"
	 width="220px" height="227px" viewBox="0 0 220 227" enable-background="new 0 0 220 227" xml:space="preserve">
<g>
	<path fill="#434343" d="M98.039,101.5v12.957h23.916V101.5H98.039z M114.958,103.312H117v2.193h-2.042V103.312z M116,107.406v2.111
		h-2.029v-2.111H116z M111.917,103.312H114v2.193h-2.083V103.312z M113.083,107.406v2.152H111v-2.152H113.083z M108.97,103.312H111
		v2.193h-2.03V103.312z M109,107.363v2.154h-2.042v-2.154H109z M105.917,103.312h2.166v2.193h-2.166V103.312z M106.083,107.406
		v2.111h-2.166v-2.111H106.083z M102.958,103.312h2.125v2.193h-2.125V103.312z M99.958,103.312h2.125v2.193h-2.125V103.312z
		 M103,109.559h-2.083v-2.193H103V109.559z M117.048,112.587h-14.115v-2.135h14.115V112.587z M119.042,109.518H117v-2.152h2.042
		V109.518z M120.083,105.507h-2.125v-2.194h2.125V105.507z"/>
</g>
</svg>
