<?xml version="1.0" encoding="utf-8"?>
<!-- Generator: Adobe Illustrator 15.0.0, SVG Export Plug-In . SVG Version: 6.00 Build 0)  -->
<!DOCTYPE svg PUBLIC "-//W3C//DTD SVG 1.0//EN" "http://www.w3.org/TR/2001/REC-SVG-20010904/DTD/svg10.dtd">
<svg version="1.0" id="Layer_1" xmlns="http://www.w3.org/2000/svg" xmlns:xlink="http://www.w3.org/1999/xlink" x="0px" y="0px"
	 width="220px" height="227px" viewBox="0 0 220 227" enable-background="new 0 0 220 227" xml:space="preserve">
<g>
	<path fill="#434343" d="M116.923,120.837c0,1.514-0.791,1.476-1.767,1.476v-6.75C116.988,115.562,116.923,119.321,116.923,120.837z
		"/>
	<path fill="#434343" d="M93.155,120.837c0,1.514,0.791,1.476,1.767,1.476v-6.75C93.09,115.562,93.155,119.321,93.155,120.837z"/>
	<g>
		<path fill="#434343" d="M107.492,106.616c-0.272,0-0.492-0.22-0.492-0.492v-3.171c0-0.288-0.342-0.531-0.747-0.531h-2.514
			c-0.405,0-0.747,0.243-0.747,0.531v3.171c0,0.272-0.221,0.492-0.492,0.492s-0.492-0.22-0.492-0.492v-3.09
			c0-0.837,0.777-1.519,1.731-1.519h2.514c0.954,0,1.731,0.682,1.731,1.519v3.09C107.984,106.396,107.764,106.616,107.492,106.616z"
			/>
	</g>
	<g>
		<path fill="#434343" d="M105,108.479c-1.596,0-2.879,0.482-3.814,1.435c-2.153,2.188-2.146,6.419-2.141,8.688l0.001,0.313
			c0,1.172,0.418,1.824,1.398,2.185c0.96,0.354,2.342,0.379,4.049,0.379H105h0.507c3.787,0,5.446-0.24,5.446-2.562l0.001-0.312
			c0.005-2.271,0.015-6.5-2.143-8.69C107.878,108.962,106.595,108.479,105,108.479z M109.012,117.586l-1-0.006l0.001-0.197
			c0.003-1.346,0.009-3.854-1.124-5.072c-0.453-0.488-1.089-0.736-1.889-0.736c-0.801,0-1.436,0.248-1.889,0.736
			c-1.133,1.219-1.128,3.729-1.125,5.074v0.198h-1v-0.196c-0.003-1.493-0.011-4.271,1.401-5.789c0.647-0.701,1.526-1.056,2.61-1.056
			c1.083,0,1.962,0.354,2.611,1.056c1.408,1.518,1.402,4.296,1.399,5.789L109.012,117.586z"/>
		<path fill="#434343" d="M104.938,104.625c-9.25,0-8.922,10.964-8.922,15.381s3.994,4.307,8.922,4.307
			c4.929,0,8.924,0.11,8.924-4.307S114.188,104.625,104.938,104.625z M112.126,118.648l-0.001,0.314
			c0,3.607-3.357,3.607-6.605,3.607h-1.037c-1.854,0-3.361-0.031-4.501-0.444c-1.416-0.513-2.104-1.546-2.104-3.163l-0.001-0.315
			c-0.005-2.444-0.016-7,2.493-9.516c1.158-1.159,2.717-1.748,4.633-1.748s3.475,0.589,4.633,1.748
			C112.142,111.648,112.131,116.203,112.126,118.648z"/>
	</g>
	<path fill="#434343" d="M99.916,107.584c0,0.506-0.633,0.916-1.417,0.916l0,0c-0.78,0-1.415-0.41-1.415-0.916v-1.125
		c0-0.507,0.635-0.917,1.415-0.917l0,0c0.784,0,1.417,0.41,1.417,0.917V107.584z"/>
	<path fill="#434343" d="M112.958,107.584c0,0.506-0.651,0.916-1.459,0.916l0,0c-0.804,0-1.457-0.41-1.457-0.916v-1.125
		c0-0.507,0.653-0.917,1.457-0.917l0,0c0.808,0,1.459,0.41,1.459,0.917V107.584z"/>
</g>
</svg>
