<?xml version="1.0" encoding="utf-8"?>
<!-- Generator: Adobe Illustrator 15.0.0, SVG Export Plug-In . SVG Version: 6.00 Build 0)  -->
<!DOCTYPE svg PUBLIC "-//W3C//DTD SVG 1.0//EN" "http://www.w3.org/TR/2001/REC-SVG-20010904/DTD/svg10.dtd">
<svg version="1.0" id="Layer_1" xmlns="http://www.w3.org/2000/svg" xmlns:xlink="http://www.w3.org/1999/xlink" x="0px" y="0px"
	 width="220px" height="227px" viewBox="0 0 220 227" enable-background="new 0 0 220 227" xml:space="preserve">
<g>
	<path fill="#434343" d="M100,96.5c0.021,0,0.041,0.006,0.062,0.006s0.041-0.006,0.062-0.006H100z"/>
	<path fill="#434343" d="M100.125,120.375c-0.021,0-0.041-0.006-0.062-0.006s-0.041,0.006-0.062,0.006H100.125z"/>
	<path fill="#434343" d="M116.521,99.531c-1.369,0-2.48,1.107-2.48,2.479c0,0.032,0.01,0.062,0.01,0.094l-6.979,3.134
		c-1.057-1.682-2.918-2.8-5.041-2.8c-0.012,0-0.021,0.003-0.031,0.003V98.5c0-1.083-0.863-1.96-1.938-1.994
		c-1.076,0.034-1.938,0.911-1.938,1.994v19.875c0,1.083,0.861,1.96,1.938,1.994c1.074-0.034,1.938-0.911,1.938-1.994v-3.939
		c0.01,0,0.02,0.002,0.031,0.002c3.295,0,5.969-2.687,5.969-6c0-0.467-0.059-0.918-0.158-1.354l7.092-3.185
		c0.43,0.36,0.98,0.59,1.588,0.59c1.369,0,2.479-1.109,2.479-2.479C119,100.641,117.891,99.531,116.521,99.531z"/>
</g>
</svg>
