<?xml version="1.0" encoding="utf-8"?>
<!-- Generator: Adobe Illustrator 15.0.0, SVG Export Plug-In . SVG Version: 6.00 Build 0)  -->
<!DOCTYPE svg PUBLIC "-//W3C//DTD SVG 1.0//EN" "http://www.w3.org/TR/2001/REC-SVG-20010904/DTD/svg10.dtd">
<svg version="1.0" id="Layer_1" xmlns="http://www.w3.org/2000/svg" xmlns:xlink="http://www.w3.org/1999/xlink" x="0px" y="0px"
	 width="220px" height="227px" viewBox="0 0 220 227" enable-background="new 0 0 220 227" xml:space="preserve">
<g>
	<path fill="#434343" d="M121.938,112.688l1.973-0.418l-1.969-1.308v-3.235c0-3.478-2.731-7.227-6.188-7.227h-1.443
		c-3.457,0-6.269,3.828-6.269,7.306v3.185L106,112.331l2.041,0.244l-0.008,6.985l-1.003,2.406l3.016,0.447l2.963,0.658l2.011,1.297
		l2.017-1.291l2.993-0.604l2.919-0.386l-1.003-2.528L121.938,112.688z M114.021,121.432l-4.1-0.85v-8.053l4.1,0.547V121.432z
		 M120.021,120.701l-4.146,0.691v-8.314l4.146-0.53V120.701z M116.576,107.499c0.201-0.306,0.318-0.669,0.318-1.062
		c0-1.068-0.867-1.938-1.938-1.938s-1.938,0.867-1.938,1.938c0,0.396,0.119,0.762,0.32,1.066l-4.404,2.896v-2.596
		c0-2.926,2.464-6.431,5.371-6.431h1.444c2.907,0,5.272,3.505,5.272,6.431v2.589L116.576,107.499z"/>
</g>
</svg>
