<?xml version="1.0" encoding="utf-8"?>
<!-- Generator: Adobe Illustrator 15.0.0, SVG Export Plug-In . SVG Version: 6.00 Build 0)  -->
<!DOCTYPE svg PUBLIC "-//W3C//DTD SVG 1.0//EN" "http://www.w3.org/TR/2001/REC-SVG-20010904/DTD/svg10.dtd">
<svg version="1.0" id="Layer_1" xmlns="http://www.w3.org/2000/svg" xmlns:xlink="http://www.w3.org/1999/xlink" x="0px" y="0px"
	 width="220px" height="227px" viewBox="0 0 220 227" enable-background="new 0 0 220 227" xml:space="preserve">
<g>
	<g>
		<path fill="#434343" d="M102.724,119.5H98c-1.104,0-2-0.896-2-2c0-1.105,0.896-2,2-2h3.276l12-10H118c1.104,0,2,0.895,2,2
			c0,1.104-0.896,2-2,2h-3.275L102.724,119.5z"/>
	</g>
	<g>
		<circle fill="#434343" cx="105" cy="102.5" r="2"/>
		<path fill="#434343" d="M108.884,105.945c-0.178-0.213-0.493-0.24-0.704-0.064l-1.334,1.113c-0.303-0.723-1.015-1.229-1.846-1.229
			c-1.104,0-2,0.896-2,2v3.735l5.82-4.85C109.032,106.473,109.061,106.158,108.884,105.945z"/>
	</g>
</g>
</svg>
