<?xml version="1.0" encoding="utf-8"?>
<!-- Generator: Adobe Illustrator 15.0.0, SVG Export Plug-In . SVG Version: 6.00 Build 0)  -->
<!DOCTYPE svg PUBLIC "-//W3C//DTD SVG 1.0//EN" "http://www.w3.org/TR/2001/REC-SVG-20010904/DTD/svg10.dtd">
<svg version="1.0" id="Layer_1" xmlns="http://www.w3.org/2000/svg" xmlns:xlink="http://www.w3.org/1999/xlink" x="0px" y="0px"
	 width="220px" height="227px" viewBox="0 0 220 227" enable-background="new 0 0 220 227" xml:space="preserve">
<g>
	<path fill="#434343" d="M106,98.604c0,0-3.969,1.773-3.969,2.846h7.938C109.969,100.377,106,98.604,106,98.604z"/>
	<polygon fill="#434343" points="110.167,103.699 110.167,105.383 117.958,106.5 117.958,102.582 	"/>
	<polygon fill="#434343" points="101.916,103.699 94.083,102.582 94.083,106.5 101.916,105.383 	"/>
	<polygon fill="#434343" points="103.052,110.469 108.943,110.469 108.644,108.4 109.969,108.4 109.969,107.582 102,107.582 
		102,108.4 103.347,108.4 	"/>
	<polygon fill="#434343" points="101.443,119.666 101,122.5 111,122.5 110.549,119.666 	"/>
	<polygon fill="#434343" points="102.02,116.447 109.962,116.447 109.536,113.541 102.438,113.541 	"/>
	<rect x="103.012" y="102.625" fill="#434343" width="0.914" height="3.875"/>
	<rect x="108.012" y="102.625" fill="#434343" width="0.914" height="3.875"/>
	<rect x="105.058" y="102.625" fill="#434343" width="1.885" height="3.875"/>
</g>
</svg>
