<?xml version="1.0" encoding="utf-8"?>
<!-- Generator: Adobe Illustrator 15.0.0, SVG Export Plug-In . SVG Version: 6.00 Build 0)  -->
<!DOCTYPE svg PUBLIC "-//W3C//DTD SVG 1.0//EN" "http://www.w3.org/TR/2001/REC-SVG-20010904/DTD/svg10.dtd">
<svg version="1.0" id="Layer_1" xmlns="http://www.w3.org/2000/svg" xmlns:xlink="http://www.w3.org/1999/xlink" x="0px" y="0px"
	 width="220px" height="227px" viewBox="0 0 220 227" enable-background="new 0 0 220 227" xml:space="preserve">
<g>
	<path fill="#434343" d="M101.211,110.544h-5.475c-0.958,0-1.736,0.754-1.736,1.684v8.562c0,0.93,0.778,1.684,1.736,1.684h5.475
		c0.959,0,1.736-0.754,1.736-1.684v-8.562C102.947,111.298,102.17,110.544,101.211,110.544z"/>
	<path fill="#434343" d="M117.135,114.593c-0.021-0.002-0.045-0.016-0.068-0.016h-2.127v-1.166H118v-1.168
		c0-0.938-0.781-1.699-1.744-1.699c0,0-1.361,0-2.798,0c-3.489,0-2.996-2.049-2.996-2.049l1.834-3.281
		c0-1.757-0.748-1.688-1.668-1.688c-1.563,0.594-4.597,6.094-4.597,6.094c-0.5,1.688-1.988,1.938-1.988,1.938v8.934l0.782-0.027
		c2.337,0,2.812,1.969,3.776,1.969h5.652c0.963,0,1.744-0.762,1.744-1.698v-0.142h-1.062v-1.14h1.127
		c0.131,0,0.25-0.031,0.361-0.083c0.312-0.146,0.532-0.473,0.532-0.854c0-0.491-0.364-0.886-0.825-0.925
		c-0.021-0.002-0.044-0.015-0.068-0.015h-1.127v-1.124h2.127c0.131,0,0.25-0.032,0.361-0.084c0.312-0.146,0.532-0.473,0.532-0.854
		C117.958,115.024,117.595,114.633,117.135,114.593z"/>
</g>
</svg>
