<?xml version="1.0" encoding="utf-8"?>
<!-- Generator: Adobe Illustrator 15.0.0, SVG Export Plug-In . SVG Version: 6.00 Build 0)  -->
<!DOCTYPE svg PUBLIC "-//W3C//DTD SVG 1.0//EN" "http://www.w3.org/TR/2001/REC-SVG-20010904/DTD/svg10.dtd">
<svg version="1.0" id="Layer_1" xmlns="http://www.w3.org/2000/svg" xmlns:xlink="http://www.w3.org/1999/xlink" x="0px" y="0px"
	 width="220px" height="227px" viewBox="0 0 220 227" enable-background="new 0 0 220 227" xml:space="preserve">
<g>
	<polygon fill="#434343" points="120,113.625 97.959,113.625 97.959,91.584 96.125,91.584 96.084,115.459 96.125,115.459 
		96.125,115.5 120,115.459 	"/>
	<path fill="#434343" d="M119.816,95.5h-3.729c-0.071,0-0.129,0.059-0.129,0.129l1.527,1.533l-6.478,7.463l-5.012-4.125
		l-6.972,9.188l0.062,1.75l6.972-8.938l4.949,4l7.36-8.449l1.442,1.449c0.07,0,0.13-0.059,0.13-0.129v-3.742
		C119.945,95.559,119.888,95.5,119.816,95.5z"/>
</g>
</svg>
