<?xml version="1.0" encoding="utf-8"?>
<!-- Generator: Adobe Illustrator 15.0.0, SVG Export Plug-In . SVG Version: 6.00 Build 0)  -->
<!DOCTYPE svg PUBLIC "-//W3C//DTD SVG 1.0//EN" "http://www.w3.org/TR/2001/REC-SVG-20010904/DTD/svg10.dtd">
<svg version="1.0" id="Layer_1" xmlns="http://www.w3.org/2000/svg" xmlns:xlink="http://www.w3.org/1999/xlink" x="0px" y="0px"
	 width="220px" height="227px" viewBox="0 0 220 227" enable-background="new 0 0 220 227" xml:space="preserve">
<g>
	<rect x="102.081" y="108.504" fill="#434343" width="9.835" height="1.916"/>
	<path fill="#434343" d="M102.998,111.646c-0.559,0-4.333,0-5.021,0c-0.688,0-1.111-0.414-1.111-1.104s0-1.33,0-2.066
		c0-0.732,0.428-1.145,1.111-1.145c0.687,0,4.423,0,5.021,0c0.214,0,0.398,0.062,0.563,0.15h2.372v-0.295
		c0-0.932-0.768-1.689-1.711-1.689h-7.514c-0.944,0-1.711,0.76-1.711,1.689v4.557c0,0.934,0.767,1.689,1.711,1.689h7.514
		c0.943,0,1.711-0.758,1.711-1.689v-0.213h-2.339C103.422,111.617,103.214,111.646,102.998,111.646z"/>
	<path fill="#434343" d="M117.272,105.504h-7.549c-0.945,0-1.719,0.758-1.719,1.688v0.295h2.4c0.167-0.09,0.354-0.152,0.588-0.152
		c0.688,0,4.445,0,5.049,0c0.604,0,1.079,0.455,1.079,1.099c0,0.646,0,1.239,0,2.065s-0.518,1.147-1.079,1.147
		c-0.561,0-4.358,0-5.049,0c-0.203,0-0.374-0.046-0.528-0.112h-2.46v0.213c0,0.932,0.771,1.688,1.719,1.688h7.549
		c0.945,0,1.719-0.757,1.719-1.688v-4.556C118.991,106.262,118.22,105.504,117.272,105.504z"/>
</g>
</svg>
