<?xml version="1.0" encoding="utf-8"?>
<!-- Generator: Adobe Illustrator 15.0.0, SVG Export Plug-In . SVG Version: 6.00 Build 0)  -->
<!DOCTYPE svg PUBLIC "-//W3C//DTD SVG 1.0//EN" "http://www.w3.org/TR/2001/REC-SVG-20010904/DTD/svg10.dtd">
<svg version="1.0" id="Layer_1" xmlns="http://www.w3.org/2000/svg" xmlns:xlink="http://www.w3.org/1999/xlink" x="0px" y="0px"
	 width="220px" height="227px" viewBox="0 0 220 227" enable-background="new 0 0 220 227" xml:space="preserve">
<path fill="#434343" d="M110.865,105.203v-3.971c0-3.16-2.402-5.732-5.488-5.732h-0.769c-2.944,0-5.598,2.572-5.598,5.732v4.016
	c-1.234,1.408-1.989,3.25-1.989,5.271c0,4.408,3.553,7.98,7.938,7.98c4.384,0,7.938-3.572,7.938-7.98
	C112.896,108.475,112.124,106.615,110.865,105.203z M104.593,97.5h0.801c2.071,0,3.757,1.674,3.757,3.732v2.42
	c-1.229-0.701-2.66-1.111-4.192-1.111c-1.503,0-2.909,0.393-4.124,1.07v-2.379C100.834,99.174,102.521,97.5,104.593,97.5z
	 M104.959,115.693c-2.842,0-5.146-2.316-5.146-5.176c0-2.854,2.304-5.172,5.146-5.172c2.748,0,4.973,2.172,5.118,4.896l-3.74-1.145
	c-0.356-0.35-0.841-0.564-1.378-0.564c-1.091,0-1.974,0.891-1.974,1.982c0,1.098,0.883,1.986,1.974,1.986
	c0.529,0,1.009-0.213,1.363-0.555l3.749-1.1C109.896,113.553,107.688,115.693,104.959,115.693z"/>
</svg>
