<?xml version="1.0" encoding="utf-8"?>
<!-- Generator: Adobe Illustrator 15.0.0, SVG Export Plug-In . SVG Version: 6.00 Build 0)  -->
<!DOCTYPE svg PUBLIC "-//W3C//DTD SVG 1.0//EN" "http://www.w3.org/TR/2001/REC-SVG-20010904/DTD/svg10.dtd">
<svg version="1.0" id="Layer_1" xmlns="http://www.w3.org/2000/svg" xmlns:xlink="http://www.w3.org/1999/xlink" x="0px" y="0px"
	 width="220px" height="227px" viewBox="0 0 220 227" enable-background="new 0 0 220 227" xml:space="preserve">
<path fill="#434343" d="M113.51,96.553c-0.811-0.016-1.48,0.63-1.498,1.442c-0.002,0.116,0.014,0.228,0.035,0.336l-2.057,2.062
	c-0.049-1.905-1.469-2.866-3.021-2.866c-1.283,0-2.926,1.128-2.926,3.133c0,0.812,0.041,3.78,0.041,3.78h0.988v3.565l-3.494-3.565
	h1.379l-0.039-3.864c0-1.921,0.916-3.049,2.082-3.049c-1.352,0-3.062,0-4,0c-1.906,0-3,1.034-3,3.038s0,3.875,0,3.875h2.41
	l4.662,4.73v11.33h1.846v-16.062H110c0,0,0-1.209,0-2.754l2.535-2.541c0.248,0.211,0.562,0.35,0.914,0.354
	c0.812,0.018,1.48-0.629,1.498-1.441C114.963,97.244,114.32,96.569,113.51,96.553z M108.043,100.667h-2.125v-1.166h2.125V100.667z"
	/>
</svg>
