<?xml version="1.0" encoding="utf-8"?>
<!-- Generator: Adobe Illustrator 15.0.0, SVG Export Plug-In . SVG Version: 6.00 Build 0)  -->
<!DOCTYPE svg PUBLIC "-//W3C//DTD SVG 1.0//EN" "http://www.w3.org/TR/2001/REC-SVG-20010904/DTD/svg10.dtd">
<svg version="1.0" id="Layer_1" xmlns="http://www.w3.org/2000/svg" xmlns:xlink="http://www.w3.org/1999/xlink" x="0px" y="0px"
	 width="220px" height="227px" viewBox="0 0 220 227" enable-background="new 0 0 220 227" xml:space="preserve">
<path fill="#434343" d="M122,100.416V91.5h-8.955l3.453,3.438l-5.168,5.164c-1.377-0.974-3.055-1.552-4.867-1.552
	c-4.666,0-8.463,3.797-8.463,8.465c0,4.666,3.797,8.464,8.463,8.464c4.668,0,8.463-3.798,8.463-8.464
	c0-1.822-0.586-3.512-1.57-4.896l5.17-5.165L122,100.416z M106.643,112.088c-2.896,0-5.252-2.322-5.252-5.181
	c0-2.857,2.355-5.183,5.252-5.183s5.252,2.323,5.252,5.183C111.895,109.766,109.537,112.088,106.643,112.088z"/>
</svg>
