<?xml version="1.0" encoding="utf-8"?>
<!-- Generator: Adobe Illustrator 15.0.0, SVG Export Plug-In . SVG Version: 6.00 Build 0)  -->
<!DOCTYPE svg PUBLIC "-//W3C//DTD SVG 1.0//EN" "http://www.w3.org/TR/2001/REC-SVG-20010904/DTD/svg10.dtd">
<svg version="1.0" id="Layer_1" xmlns="http://www.w3.org/2000/svg" xmlns:xlink="http://www.w3.org/1999/xlink" x="0px" y="0px"
	 width="220px" height="227px" viewBox="0 0 220 227" enable-background="new 0 0 220 227" xml:space="preserve">
<g>
	<path fill="#434343" d="M118.321,120.5c0.927,0,1.679-0.754,1.679-1.684v-8.021l-9.67,9.703L118.321,120.5L118.321,120.5z"/>
	<polygon fill="#434343" points="120,105.324 120,100.727 117.709,103.025 	"/>
	<path fill="#434343" d="M111.805,97.102l5.162,5.181L120,99.239V98.2c0-0.932-0.752-1.684-1.679-1.684H107.81l2.282,2.288
		L111.805,97.102z"/>
	<path fill="#434343" d="M102.644,114.886l0.742-0.744l5.062,5.076l3.507-3.52l-7.667-7.692l-8.204,8.23v2.58
		c0,0.93,0.752,1.684,1.679,1.684h9.407l0.535-0.537L102.644,114.886z"/>
	<polygon fill="#434343" points="111.899,100.368 105.867,106.419 109.354,109.919 115.386,103.865 	"/>
	<polygon fill="#434343" points="116.129,104.61 110.097,110.663 113.535,114.112 119.566,108.061 	"/>
	<polygon fill="#434343" points="99.505,103.209 96.082,106.643 96.082,113.093 102.72,106.434 	"/>
	<path fill="#434343" d="M104.691,96.516h-6.933c-0.483,0-0.92,0.21-1.227,0.541l3.81,3.82L104.691,96.516z"/>
	<polygon fill="#434343" points="96.082,99.775 96.082,105.152 98.762,102.464 	"/>
	<polygon fill="#434343" points="101.086,101.622 104.301,104.848 109.465,99.666 106.324,96.516 106.178,96.516 	"/>
</g>
</svg>
