<?xml version="1.0" encoding="utf-8"?>
<!-- Generator: Adobe Illustrator 15.0.0, SVG Export Plug-In . SVG Version: 6.00 Build 0)  -->
<!DOCTYPE svg PUBLIC "-//W3C//DTD SVG 1.0//EN" "http://www.w3.org/TR/2001/REC-SVG-20010904/DTD/svg10.dtd">
<svg version="1.0" id="Layer_1" xmlns="http://www.w3.org/2000/svg" xmlns:xlink="http://www.w3.org/1999/xlink" x="0px" y="0px"
	 width="220px" height="227px" viewBox="0 0 220 227" enable-background="new 0 0 220 227" xml:space="preserve">
<path fill="#434343" d="M115.163,107.602c-2.001-0.6-5.487,1.646-8.182,1.646c-2.71,0-6.209-2.242-8.216-1.637
	c-2.893,0.875-3.763-0.865-3.763,0.694c0,0-0.292,8.75,5.032,9.96c3.009,0.416,5.183,2.164,6.946,2.164
	c1.793,0,3.292-1.562,7.021-2.179c4.834-0.635,4.959-9.946,4.959-9.946C118.961,106.74,118.076,108.475,115.163,107.602z
	 M104.755,114.456c-0.251-0.103-0.595-0.351-1.057-0.204c-0.749,0.237-1.841,0.178-2.961-0.225
	c-1.814-0.649-2.776-3.563-2.776-3.563s2.626-0.202,4.441,0.447c0.842,0.302,1.057,0.442,1.567,0.883
	C105.002,112.684,105.004,114.559,104.755,114.456z M112.747,114.002c-1.284,0.426-2.534,0.489-3.394,0.238
	c-0.531-0.156-0.925,0.105-1.211,0.215c-0.285,0.109-0.284-1.881,0.9-2.825c0.585-0.468,0.832-0.616,1.796-0.937
	c2.082-0.69,5.094,0.368,5.094,0.368S114.828,113.312,112.747,114.002z"/>
</svg>
