<?xml version="1.0" encoding="utf-8"?>
<!-- Generator: Adobe Illustrator 15.0.0, SVG Export Plug-In . SVG Version: 6.00 Build 0)  -->
<!DOCTYPE svg PUBLIC "-//W3C//DTD SVG 1.0//EN" "http://www.w3.org/TR/2001/REC-SVG-20010904/DTD/svg10.dtd">
<svg version="1.0" id="Layer_1" xmlns="http://www.w3.org/2000/svg" xmlns:xlink="http://www.w3.org/1999/xlink" x="0px" y="0px"
	 width="220px" height="227px" viewBox="0 0 220 227" enable-background="new 0 0 220 227" xml:space="preserve">
<g>
	<polygon fill="#434343" points="107.174,94.5 109.11,95.929 111.505,95.929 112.243,98.24 114.181,99.67 113.441,101.98 
		114.181,104.292 112.243,105.721 111.505,108.033 109.11,108.033 107.174,109.461 105.234,108.033 102.844,108.033 
		102.104,105.721 100.167,104.292 100.907,101.98 100.167,99.67 102.104,98.24 102.844,95.929 105.234,95.929 	"/>
	<polygon fill="#434343" points="101.838,118.385 100.609,114.748 97.325,116.77 100.615,107.512 101.623,109.865 105.082,109.887 	
		"/>
	<polygon fill="#434343" points="112.487,118.385 113.716,114.748 117,116.77 113.709,107.512 112.701,109.865 109.243,109.887 	"/>
</g>
</svg>
