<?xml version="1.0" encoding="utf-8"?>
<!-- Generator: Adobe Illustrator 15.0.0, SVG Export Plug-In . SVG Version: 6.00 Build 0)  -->
<!DOCTYPE svg PUBLIC "-//W3C//DTD SVG 1.0//EN" "http://www.w3.org/TR/2001/REC-SVG-20010904/DTD/svg10.dtd">
<svg version="1.0" id="Layer_1" xmlns="http://www.w3.org/2000/svg" xmlns:xlink="http://www.w3.org/1999/xlink" x="0px" y="0px"
	 width="220px" height="227px" viewBox="0 0 220 227" enable-background="new 0 0 220 227" xml:space="preserve">
<path fill="#434343" d="M125.41,101.073l-0.985-0.986c-2.036-2.036-5.253-2.126-7.183-0.196l-12.775,12.775
	c-1.93,1.93-1.839,5.146,0.199,7.184l0.982,0.982c2.039,2.041,5.257,2.131,7.186,0.202l12.776-12.777
	C127.539,106.329,127.449,103.113,125.41,101.073z M118.542,114.133l-7.13-7.131l6.5-6.5c1.557-1.556,4.195-1.45,5.882,0.235
	l1.011,1.012c0.825,0.825,1.303,1.897,1.338,3.021c0.037,1.102-0.354,2.116-1.1,2.862L118.542,114.133z"/>
</svg>
