<?xml version="1.0" encoding="utf-8"?>
<!-- Generator: Adobe Illustrator 15.0.0, SVG Export Plug-In . SVG Version: 6.00 Build 0)  -->
<!DOCTYPE svg PUBLIC "-//W3C//DTD SVG 1.0//EN" "http://www.w3.org/TR/2001/REC-SVG-20010904/DTD/svg10.dtd">
<svg version="1.0" id="Layer_1" xmlns="http://www.w3.org/2000/svg" xmlns:xlink="http://www.w3.org/1999/xlink" x="0px" y="0px"
	 width="220px" height="227px" viewBox="0 0 220 227" enable-background="new 0 0 220 227" xml:space="preserve">
<g>
	<path fill="#434343" d="M112,95.539c-6.627,0-12,5.365-12,11.979c0,6.615,5.373,11.98,12,11.98c6.628,0,12-5.365,12-11.98
		C124,100.904,118.628,95.539,112,95.539z M107.066,110.547c-0.351,0.309-0.913,0.309-1.266,0l-2.777-2.467
		c-0.35-0.312-0.35-0.812,0-1.121l2.777-2.469c0.353-0.312,0.915-0.312,1.266,0V110.547z M108.968,101.311l2.511-2.932
		c0.315-0.367,0.825-0.367,1.142,0l2.508,2.932c0.318,0.367,0.318,0.967,0,1.332h-6.158
		C108.653,102.275,108.653,101.678,108.968,101.311z M115.128,113.773l-2.508,2.852c-0.317,0.357-0.828,0.357-1.145,0l-2.508-2.852
		c-0.314-0.357-0.314-0.938,0-1.297h6.158C115.444,112.836,115.444,113.416,115.128,113.773z M118.239,110.555
		c-0.353,0.312-0.924,0.312-1.276,0v-6.08c0.354-0.312,0.926-0.312,1.276,0l2.811,2.479c0.354,0.312,0.354,0.816,0,1.127
		L118.239,110.555z"/>
</g>
</svg>
