<?xml version="1.0" encoding="utf-8"?>
<!-- Generator: Adobe Illustrator 15.0.0, SVG Export Plug-In . SVG Version: 6.00 Build 0)  -->
<!DOCTYPE svg PUBLIC "-//W3C//DTD SVG 1.0//EN" "http://www.w3.org/TR/2001/REC-SVG-20010904/DTD/svg10.dtd">
<svg version="1.0" id="Layer_1" xmlns="http://www.w3.org/2000/svg" xmlns:xlink="http://www.w3.org/1999/xlink" x="0px" y="0px"
	 width="220px" height="227px" viewBox="0 0 220 227" enable-background="new 0 0 220 227" xml:space="preserve">
<g>
	<path fill="#434343" d="M115.984,125.043c0,0.736-0.599,1.332-1.332,1.332h-13.32c-0.736,0-1.332-0.596-1.332-1.332l1.332-4.078
		c0-0.736,0.596-1.332,1.332-1.332h11.988c0.733,0,1.332,0.596,1.332,1.332V125.043z"/>
	<rect x="103" y="117.689" fill="#434343" width="11.902" height="0.713"/>
	<g>
		<path fill="#434343" d="M110.485,124.632c-0.524,0.13-1.058-0.198-1.189-0.732c-0.133-0.536,0.182-1.075,0.705-1.206
			c4.728-1.18,7.774-5.35,6.792-9.291c-0.564-2.264-2.33-4.034-4.845-4.862c-0.517-0.171-0.805-0.729-0.646-1.257
			s0.705-0.813,1.227-0.646c3.132,1.032,5.433,3.384,6.155,6.289C119.938,117.941,116.258,123.193,110.485,124.632z"/>
	</g>
	
		<rect x="109.251" y="106.046" transform="matrix(0.9258 0.378 -0.378 0.9258 49.5802 -33.6955)" fill="#434343" width="2.749" height="6.812"/>
	
		<rect x="107.47" y="113.585" transform="matrix(0.9262 0.3771 -0.3771 0.9262 51.0525 -32.639)" fill="#434343" width="2.812" height="0.937"/>
	
		<rect x="111.243" y="104.325" transform="matrix(0.926 0.3774 -0.3774 0.926 47.8838 -34.7663)" fill="#434343" width="2.813" height="0.936"/>
	
		<rect x="112.684" y="102.638" transform="matrix(0.9259 0.3777 -0.3777 0.9259 47.5028 -35.0557)" fill="#434343" width="0.876" height="1.874"/>
</g>
</svg>
