<?xml version="1.0" encoding="utf-8"?>
<!-- Generator: Adobe Illustrator 15.0.0, SVG Export Plug-In . SVG Version: 6.00 Build 0)  -->
<!DOCTYPE svg PUBLIC "-//W3C//DTD SVG 1.0//EN" "http://www.w3.org/TR/2001/REC-SVG-20010904/DTD/svg10.dtd">
<svg version="1.0" id="Layer_1" xmlns="http://www.w3.org/2000/svg" xmlns:xlink="http://www.w3.org/1999/xlink" x="0px" y="0px"
	 width="220px" height="227px" viewBox="0 0 220 227" enable-background="new 0 0 220 227" xml:space="preserve">
<g>
	<polygon fill="#434343" points="109.945,115.594 108.031,115.594 108.031,124.562 102,124.562 102,126.438 116,126.438 
		116,124.562 109.945,124.562 	"/>
	<path fill="#434343" d="M115.18,103.396l-0.11-0.113c-1.116-1.115-3.015-1.029-4.236,0.191l-4.675,4.678
		c-0.725,0.723-1.038,1.68-0.952,2.57l-4.031,4.031l0.938,0.938c-0.566,0.467-1.64,1.637-2.184,4.133
		c-0.633,2.902-3.106,4.404-3.563,4.424l-0.291,0.957c0.072,0.018,0.15,0.027,0.235,0.027c0.313,0,0.704-0.135,1.167-0.396
		c1.285-0.732,2.971-2.432,3.488-4.812c0.51-2.339,1.489-3.307,1.871-3.605l0.946,0.945l4.098-4.1
		c0.854,0.041,1.747-0.271,2.435-0.959l4.676-4.676C116.209,106.408,116.296,104.512,115.18,103.396z M111.969,103.463h1.047v1.068
		h-1.047V103.463z M111.969,105.469h1.047v1.047h-1.047V105.469z M109.953,105.484H111v1.047h-1.047V105.484z M109.031,108.516
		h-1.062v-1.047h1.062V108.516z M111.047,110.547h-1.094v-1.094h1.094V110.547z M111.031,108.516h-1.078v-1.047h1.078V108.516z
		 M113.031,108.531h-1.078v-1.062h1.078V108.531z M115.016,106.531h-1.047v-1.047h1.047V106.531z"/>
</g>
</svg>
