<?xml version="1.0" encoding="utf-8"?>
<!-- Generator: Adobe Illustrator 15.0.0, SVG Export Plug-In . SVG Version: 6.00 Build 0)  -->
<!DOCTYPE svg PUBLIC "-//W3C//DTD SVG 1.0//EN" "http://www.w3.org/TR/2001/REC-SVG-20010904/DTD/svg10.dtd">
<svg version="1.0" id="Layer_1" xmlns="http://www.w3.org/2000/svg" xmlns:xlink="http://www.w3.org/1999/xlink" x="0px" y="0px"
	 width="220px" height="227px" viewBox="0 0 220 227" enable-background="new 0 0 220 227" xml:space="preserve">
<g>
	<rect x="112.969" y="108.438" fill="none" width="4.094" height="4.125"/>
	<path fill="none" d="M123.062,110.527c0-1.047-4.109-2.074-4.109-2.074v4.078h4.109
		C123.062,112.531,123.062,111.574,123.062,110.527z"/>
	<path fill="#434343" d="M111.062,108.375v7.062h13.875v-4.94c0-4.497-6.703-4.997-11.817-4.997h-4.9
		c-3.22,0-3.178,2.447-3.178,2.997v6.94h1.896v-7.062H111.062z M118.953,108.453c0,0,4.109,0.391,4.109,2.074
		c0,1.047,0,2.004,0,2.004h-4.109V108.453z M112.969,108.438h4.094v4.125h-4.094V108.438z"/>
	<path fill="#434343" d="M106.938,118.646v-2.084h-1.896v3.021h-3.153c-0.488,0-0.888,0.42-0.888,0.938s0.397,0.938,0.888,0.938
		h9.032c0.022-2.268,1.837-4.1,4.079-4.1c2.24,0,4.057,1.832,4.079,4.1h3.681c1.282,0,2.178-1.446,2.178-1.997v-2.897h-13.875v2.084
		h-4.125V118.646L106.938,118.646z"/>
</g>
</svg>
