<?xml version="1.0" encoding="utf-8"?>
<!-- Generator: Adobe Illustrator 15.0.0, SVG Export Plug-In . SVG Version: 6.00 Build 0)  -->
<!DOCTYPE svg PUBLIC "-//W3C//DTD SVG 1.0//EN" "http://www.w3.org/TR/2001/REC-SVG-20010904/DTD/svg10.dtd">
<svg version="1.0" id="Layer_1" xmlns="http://www.w3.org/2000/svg" xmlns:xlink="http://www.w3.org/1999/xlink" x="0px" y="0px"
	 width="220px" height="227px" viewBox="0 0 220 227" enable-background="new 0 0 220 227" xml:space="preserve">
<g>
	<ellipse fill="#434343" cx="98.458" cy="95.021" rx="2.458" ry="2.438"/>
	<ellipse fill="#434343" cx="98.458" cy="109.021" rx="2.458" ry="2.438"/>
	<ellipse fill="#434343" cx="112.458" cy="95.021" rx="2.458" ry="2.438"/>
	<ellipse fill="#434343" cx="112.458" cy="109.021" rx="2.458" ry="2.438"/>
	<ellipse fill="#434343" cx="105.458" cy="102.021" rx="2.458" ry="2.438"/>
	<g>
		<path fill="#434343" d="M102.938,99.979c-0.128,0-0.256-0.049-0.354-0.146l-1.854-1.854c-0.195-0.193-0.195-0.512,0-0.707
			c0.195-0.193,0.512-0.193,0.707,0l1.854,1.854c0.195,0.195,0.195,0.512,0,0.707C103.193,99.931,103.065,99.979,102.938,99.979z"/>
	</g>
	<g>
		<path fill="#434343" d="M101,107.042c-0.132,0-0.263-0.052-0.36-0.154c-0.191-0.198-0.186-0.516,0.015-0.706l2.042-1.959
			c0.198-0.19,0.516-0.186,0.706,0.017c0.191,0.198,0.186,0.516-0.015,0.705l-2.042,1.959
			C101.249,106.996,101.125,107.042,101,107.042z"/>
	</g>
	<g>
		<path fill="#434343" d="M116.938,99.979c-0.127,0-0.256-0.049-0.354-0.146l-1.854-1.854c-0.195-0.193-0.195-0.512,0-0.707
			c0.194-0.193,0.512-0.193,0.707,0l1.854,1.854c0.195,0.195,0.195,0.512,0,0.707C117.193,99.931,117.064,99.979,116.938,99.979z"/>
	</g>
	<g>
		<path fill="#434343" d="M115,107.042c-0.132,0-0.264-0.052-0.359-0.154c-0.191-0.198-0.187-0.516,0.014-0.706l2.043-1.959
			c0.197-0.19,0.516-0.186,0.705,0.017c0.191,0.198,0.187,0.516-0.014,0.705l-2.043,1.959
			C115.249,106.996,115.125,107.042,115,107.042z"/>
	</g>
	<g>
		
			<rect x="107.535" y="105.021" transform="matrix(0.7072 0.707 -0.707 0.7072 106.5156 -46.1529)" fill="#434343" width="2.888" height="1"/>
	</g>
	<g>
		
			<rect x="108.501" y="97.062" transform="matrix(0.6696 0.7428 -0.7428 0.6696 109.1964 -48.4061)" fill="#434343" width="1.001" height="2.92"/>
	</g>
	<path fill="#434343" d="M119.459,99.583c-1.357,0-2.459,1.091-2.459,2.438c0,1.347,1.102,2.438,2.459,2.438
		c0.171,0,0.338-0.018,0.499-0.051v-4.773C119.797,99.602,119.63,99.583,119.459,99.583z"/>
</g>
</svg>
