<?xml version="1.0" encoding="utf-8"?>
<!-- Generator: Adobe Illustrator 15.0.0, SVG Export Plug-In . SVG Version: 6.00 Build 0)  -->
<!DOCTYPE svg PUBLIC "-//W3C//DTD SVG 1.0//EN" "http://www.w3.org/TR/2001/REC-SVG-20010904/DTD/svg10.dtd">
<svg version="1.0" id="Layer_1" xmlns="http://www.w3.org/2000/svg" xmlns:xlink="http://www.w3.org/1999/xlink" x="0px" y="0px"
	 width="220px" height="227px" viewBox="0 0 220 227" enable-background="new 0 0 220 227" xml:space="preserve">
<path fill="#434343" d="M110.969,111.342c0-2.529-2.156-4.631-4.994-5.045v-5.053c0.869,0.23,1.588,0.754,1.949,1.463
	c0.326,0.639,1.15,0.912,1.838,0.611c0.691-0.303,0.986-1.064,0.66-1.703c-0.811-1.592-2.496-2.693-4.447-2.982v-2.008
	c0-0.553-0.43-1-0.959-1c-0.527,0-0.959,0.447-0.959,1v1.99C101.201,98.99,99,101.107,99,103.664c0,2.551,2.189,4.666,5.057,5.047
	v5.088c-0.922-0.221-1.688-0.762-2.062-1.504c-0.324-0.641-1.148-0.914-1.838-0.615c-0.689,0.303-0.986,1.062-0.662,1.703
	c0.823,1.627,2.561,2.752,4.562,3.021v2.096c0,0.551,0.432,1,0.959,1c0.529,0,0.959-0.449,0.959-1v-2.109
	C108.803,115.984,110.969,113.877,110.969,111.342z M101.764,103.664c0-1.156,0.975-2.125,2.293-2.438v4.878
	C102.736,105.789,101.764,104.82,101.764,103.664z M105.975,113.77v-4.854c1.291,0.336,2.232,1.291,2.232,2.428
	S107.266,113.436,105.975,113.77z"/>
</svg>
