<?xml version="1.0" encoding="utf-8"?>
<!-- Generator: Adobe Illustrator 15.0.0, SVG Export Plug-In . SVG Version: 6.00 Build 0)  -->
<!DOCTYPE svg PUBLIC "-//W3C//DTD SVG 1.0//EN" "http://www.w3.org/TR/2001/REC-SVG-20010904/DTD/svg10.dtd">
<svg version="1.0" id="Layer_1" xmlns="http://www.w3.org/2000/svg" xmlns:xlink="http://www.w3.org/1999/xlink" x="0px" y="0px"
	 width="220px" height="227px" viewBox="0 0 220 227" enable-background="new 0 0 220 227" xml:space="preserve">
<g>
	<path fill="#434343" d="M117.023,117.89c-5.695,0-10.312-4.618-10.312-10.312c0-3.21,1.467-6.077,3.768-7.969
		c-5.369,1.237-9.378,6.04-9.378,11.785c0,6.687,5.422,12.104,12.105,12.104c5.746,0,10.547-4.007,11.785-9.377
		C123.101,116.423,120.234,117.89,117.023,117.89z"/>
	<polygon fill="#434343" points="120.038,99.542 121.574,102.84 125.008,103.368 122.523,105.936 123.109,109.561 120.038,107.849 
		116.966,109.561 117.553,105.936 115.068,103.368 118.502,102.84 	"/>
</g>
</svg>
