<?xml version="1.0" encoding="utf-8"?>
<!-- Generator: Adobe Illustrator 15.0.0, SVG Export Plug-In . SVG Version: 6.00 Build 0)  -->
<!DOCTYPE svg PUBLIC "-//W3C//DTD SVG 1.0//EN" "http://www.w3.org/TR/2001/REC-SVG-20010904/DTD/svg10.dtd">
<svg version="1.0" id="Layer_1" xmlns="http://www.w3.org/2000/svg" xmlns:xlink="http://www.w3.org/1999/xlink" x="0px" y="0px"
	 width="220px" height="227px" viewBox="0 0 220 227" enable-background="new 0 0 220 227" xml:space="preserve">
<g>
	<path fill="#434343" d="M116.969,107.422v-1.875h-3.242c-0.503-1.122-1.754-2.047-3.227-2.047c-1.474,0-2.724,0.925-3.226,2.047
		H104v1.88h3.146c-1.287,0.849-2.116,2.085-2.095,3.558c0.019,0.938,0.373,1.807,0.973,2.521v8.609c0,1.294,0.913,2.351,2.082,2.489
		v0.639c0,0.643,1.074,2.26,2.408,2.26c1.328,0,2.407-1.617,2.407-2.26V124.6c1.155-0.151,2.056-1.203,2.056-2.485v-8.747
		c0.577-0.736,0.912-1.619,0.896-2.563c-0.024-1.417-0.837-2.581-2.069-3.386C113.81,107.404,116.969,107.422,116.969,107.422z
		 M110.5,105.438c1.425,0,2.578,1.162,2.578,2.596c0,1.432-1.153,2.594-2.578,2.594c-1.424,0-2.578-1.162-2.578-2.594
		C107.922,106.6,109.076,105.438,110.5,105.438z M114.044,114.355v7.775c0,0.721-0.468,1.324-1.088,1.469v-4.031h-4.884v4.039
		c-0.636-0.135-1.116-0.743-1.116-1.477v-7.691c0.971,0.66,2.221,1.052,3.582,1.027
		C111.881,115.447,113.102,115.029,114.044,114.355z"/>
	<path fill="#434343" d="M107,118.469h6.938c0-1.588-1.554-2.875-3.47-2.875S107,116.881,107,118.469z"/>
</g>
</svg>
