<?xml version="1.0" encoding="utf-8"?>
<!-- Generator: Adobe Illustrator 15.0.0, SVG Export Plug-In . SVG Version: 6.00 Build 0)  -->
<!DOCTYPE svg PUBLIC "-//W3C//DTD SVG 1.0//EN" "http://www.w3.org/TR/2001/REC-SVG-20010904/DTD/svg10.dtd">
<svg version="1.0" id="Layer_1" xmlns="http://www.w3.org/2000/svg" xmlns:xlink="http://www.w3.org/1999/xlink" x="0px" y="0px"
	 width="220px" height="227px" viewBox="0 0 220 227" enable-background="new 0 0 220 227" xml:space="preserve">
<path fill="#434343" d="M123.881,112.979l-2.573-2.571c-0.321-0.323-0.847-0.323-1.17,0v1.558h-6.034v-7.041h1.741
	c0.319-0.322,0.319-0.846,0-1.17l-2.549-2.572c-0.32-0.32-0.84-0.32-1.16,0l-2.764,2.572c-0.32,0.324-0.32,0.848,0,1.17h1.759v7.041
	h-7.01v-1.559c-0.323-0.322-0.847-0.322-1.17,0c0,0-2.829,2.315-2.829,3.059c0,0.644,2.829,3.257,2.829,3.257
	c0.323,0.323,0.847,0.323,1.17,0v-1.946h7.01v6.253h-1.759c-0.312,0.313-0.312,0.823,0,1.14c0,0,2.501,2.773,3.245,2.773
	c0.646,0,3.147-2.773,3.147-2.773c0.312-0.314,0.312-0.824,0-1.14h-1.661v-6.253h6.032v1.947c0.323,0.322,0.849,0.322,1.17,0
	l2.573-2.57C124.203,113.825,124.203,113.302,123.881,112.979z"/>
</svg>
