<?xml version="1.0" encoding="utf-8"?>
<!-- Generator: Adobe Illustrator 15.0.0, SVG Export Plug-In . SVG Version: 6.00 Build 0)  -->
<!DOCTYPE svg PUBLIC "-//W3C//DTD SVG 1.0//EN" "http://www.w3.org/TR/2001/REC-SVG-20010904/DTD/svg10.dtd">
<svg version="1.0" id="Layer_1" xmlns="http://www.w3.org/2000/svg" xmlns:xlink="http://www.w3.org/1999/xlink" x="0px" y="0px"
	 width="220px" height="227px" viewBox="0 0 220 227" enable-background="new 0 0 220 227" xml:space="preserve">
<path fill="#434343" d="M123,99.553l-15,3v14.246c-1.052-0.326-2.388-0.27-3.703,0.273c-2.357,0.974-3.721,3.094-3.045,4.734
	c0.68,1.643,3.141,2.184,5.498,1.209c1.812-0.748,3.07-2.172,3.234-3.535l-0.014-13.363L121,103.912v9.887
	c-1.052-0.327-2.389-0.27-3.703,0.273c-2.357,0.974-3.721,3.094-3.045,4.734c0.68,1.643,3.141,2.184,5.498,1.209
	c1.812-0.748,3.07-2.172,3.234-3.535L123,99.553z"/>
</svg>
