<?xml version="1.0" encoding="utf-8"?>
<!-- Generator: Adobe Illustrator 15.0.0, SVG Export Plug-In . SVG Version: 6.00 Build 0)  -->
<!DOCTYPE svg PUBLIC "-//W3C//DTD SVG 1.0//EN" "http://www.w3.org/TR/2001/REC-SVG-20010904/DTD/svg10.dtd">
<svg version="1.0" id="Layer_1" xmlns="http://www.w3.org/2000/svg" xmlns:xlink="http://www.w3.org/1999/xlink" x="0px" y="0px"
	 width="220px" height="227px" viewBox="0 0 220 227" enable-background="new 0 0 220 227" xml:space="preserve">
<path fill="#434343" d="M119.041,107.5c-0.984,0-1.873,0.368-2.565,0.956l-9.505-4.753c0.008-0.096,0.029-0.188,0.029-0.287
	s-0.021-0.191-0.029-0.287l9.505-4.753c0.692,0.589,1.581,0.957,2.565,0.957c2.188,0,3.959-1.754,3.959-3.917
	c0-2.162-1.771-3.916-3.959-3.916s-3.958,1.754-3.958,3.916c0,0.099,0.022,0.19,0.029,0.287l-9.506,4.753
	c-0.692-0.588-1.581-0.956-2.565-0.956c-2.188,0-3.958,1.754-3.958,3.916c0,2.163,1.771,3.917,3.958,3.917
	c0.984,0,1.874-0.368,2.566-0.957l9.505,4.753c-0.007,0.097-0.029,0.188-0.029,0.287c0,2.163,1.771,3.917,3.958,3.917
	s3.959-1.754,3.959-3.917C123,109.254,121.229,107.5,119.041,107.5z M119,93.374c1.128,0,2.042,0.914,2.042,2.042
	s-0.914,2.042-2.042,2.042s-2.042-0.914-2.042-2.042S117.872,93.374,119,93.374z M103.021,105.457c-1.116,0-2.021-0.904-2.021-2.02
	c0-1.116,0.904-2.021,2.021-2.021c1.115,0,2.021,0.904,2.021,2.021C105.042,104.553,104.138,105.457,103.021,105.457z M119,113.458
	c-1.128,0-2.042-0.914-2.042-2.042s0.914-2.042,2.042-2.042s2.042,0.914,2.042,2.042S120.128,113.458,119,113.458z"/>
</svg>
