<?xml version="1.0" encoding="utf-8"?>
<!-- Generator: Adobe Illustrator 15.0.0, SVG Export Plug-In . SVG Version: 6.00 Build 0)  -->
<!DOCTYPE svg PUBLIC "-//W3C//DTD SVG 1.0//EN" "http://www.w3.org/TR/2001/REC-SVG-20010904/DTD/svg10.dtd">
<svg version="1.0" id="Layer_1" xmlns="http://www.w3.org/2000/svg" xmlns:xlink="http://www.w3.org/1999/xlink" x="0px" y="0px"
	 width="220px" height="227px" viewBox="0 0 220 227" enable-background="new 0 0 220 227" xml:space="preserve">
<g>
	<path fill="#434343" d="M101.009,98.6c0,0,0,11.396,0,12.854s-2.18,1.667-2.18,0.021v-7.896c0-0.553-0.408-1-0.914-1
		s-0.914,0.447-0.914,1v8.09c-0.006,0.15,0.004,0.94,0.643,1.666c0.656,0.742,1.709,1.166,3.131,1.166
		c0.064,0,12.533-0.013,17.791-0.018c1.4-0.001,2.291-0.969,2.291-2.303c0-1.332,0-13.582,0-13.582L101.009,98.6L101.009,98.6z
		 M107.001,107.637h-4.104v-3.184h4.104V107.637z M119.001,105.6h-11.062v-1.146h11.062V105.6z M119.001,107.6h-11.062v-1.146
		h11.062V107.6z M119.001,109.6h-16.062v-1.167l16.062,0.021V109.6z M119.001,111.6h-16.146v-1.146h16.146V111.6z M119.021,103.578
		h-16.146v-3.125h16.146V103.578z"/>
</g>
</svg>
