<?xml version="1.0" encoding="utf-8"?>
<!-- Generator: Adobe Illustrator 15.0.0, SVG Export Plug-In . SVG Version: 6.00 Build 0)  -->
<!DOCTYPE svg PUBLIC "-//W3C//DTD SVG 1.0//EN" "http://www.w3.org/TR/2001/REC-SVG-20010904/DTD/svg10.dtd">
<svg version="1.0" id="Layer_1" xmlns="http://www.w3.org/2000/svg" xmlns:xlink="http://www.w3.org/1999/xlink" x="0px" y="0px"
	 width="220px" height="227px" viewBox="0 0 220 227" enable-background="new 0 0 220 227" xml:space="preserve">
<g>
	<path fill="#434343" d="M103.109,103.002c-0.562-0.561-1.4-0.561-1.96,0l-0.001,23.037c0.561,0.561,1.398,0.561,1.961,0
		l13.483-10.502c0.562-0.562,0.562-1.471,0-2.033L103.109,103.002z"/>
	<path fill="#434343" d="M123,125.006c0,0.791-0.876,1.432-1.959,1.432l0,0c-1.082,0-1.958-0.641-1.958-1.432v-21.074
		c0-0.791,0.876-1.432,1.958-1.432l0,0c1.083,0,1.959,0.641,1.959,1.432V125.006z"/>
</g>
</svg>
