<?xml version="1.0" encoding="utf-8"?>
<!-- Generator: Adobe Illustrator 15.0.0, SVG Export Plug-In . SVG Version: 6.00 Build 0)  -->
<!DOCTYPE svg PUBLIC "-//W3C//DTD SVG 1.0//EN" "http://www.w3.org/TR/2001/REC-SVG-20010904/DTD/svg10.dtd">
<svg version="1.0" id="Layer_1" xmlns="http://www.w3.org/2000/svg" xmlns:xlink="http://www.w3.org/1999/xlink" x="0px" y="0px"
	 width="220px" height="227px" viewBox="0 0 220 227" enable-background="new 0 0 220 227" xml:space="preserve">
<g>
	<path fill="#434343" d="M125.538,115.038l-7.469-6.983c-0.616-0.617-1.339-0.72-1.956-0.104v4.709
		c-0.145-0.001-0.271-0.002-0.346-0.002c-7.541,0-13.653,5.904-13.653,13.191c0,2.539,1.166,1.614,1.649,0.729
		c2.288-4.18,6.825-7.031,12.062-7.031c0.062,0,0.168,0.001,0.286,0.002v4.608c0.617,0.616,1.416,0.544,1.956,0.103l7.469-6.986
		C126.154,116.656,126.154,115.656,125.538,115.038z"/>
</g>
</svg>
