<?xml version="1.0" encoding="utf-8"?>
<!-- Generator: Adobe Illustrator 15.0.0, SVG Export Plug-In . SVG Version: 6.00 Build 0)  -->
<!DOCTYPE svg PUBLIC "-//W3C//DTD SVG 1.0//EN" "http://www.w3.org/TR/2001/REC-SVG-20010904/DTD/svg10.dtd">
<svg version="1.0" id="Layer_1" xmlns="http://www.w3.org/2000/svg" xmlns:xlink="http://www.w3.org/1999/xlink" x="0px" y="0px"
	 width="220px" height="227px" viewBox="0 0 220 227" enable-background="new 0 0 220 227" xml:space="preserve">
<path fill="#434343" d="M123,117.688c-0.168,0-0.327,0.027-0.482,0.066l-5.394-5.394c0.392-0.566,0.661-1.222,0.787-1.923h2.394
	c0.318,0.589,0.932,0.991,1.641,0.991c1.036,0,1.875-0.851,1.875-1.897c0-1.051-0.839-1.9-1.875-1.9
	c-0.687,0-1.277,0.376-1.605,0.932H117.9c-0.137-0.647-0.397-1.25-0.762-1.779l5.405-5.405c0.149,0.036,0.302,0.062,0.463,0.062
	c1.067,0,1.933-0.854,1.933-1.905c0-1.054-0.863-1.906-1.933-1.906c-1.068,0-1.931,0.854-1.931,1.906
	c0,0.196,0.039,0.385,0.096,0.562l-5.364,5.365c-0.554-0.372-1.188-0.628-1.868-0.754v-1.474c0.588-0.334,0.985-0.953,0.985-1.673
	c0-1.068-0.878-1.938-1.962-1.938c-1.085,0-1.963,0.867-1.963,1.938c0,0.748,0.434,1.391,1.062,1.714v1.438
	c-0.666,0.131-1.283,0.393-1.825,0.759l-5.324-5.323c0.052-0.177,0.088-0.356,0.088-0.55c0-1.09-0.895-1.975-2-1.975
	c-1.104,0-2,0.885-2,1.975c0,1.093,0.896,1.977,2,1.977c0.207,0,0.401-0.039,0.589-0.099l5.32,5.319
	c-0.356,0.525-0.614,1.123-0.747,1.766h-2.479c-0.339-0.592-0.959-0.993-1.677-0.993c-1.076,0-1.948,0.896-1.948,2s0.872,2,1.948,2
	c0.771,0,1.434-0.464,1.748-1.132h2.396c0.125,0.697,0.389,1.347,0.772,1.908l-5.32,5.32c-0.191-0.062-0.396-0.104-0.607-0.104
	c-1.102,0-1.994,0.881-1.994,1.971c0,1.088,0.894,1.969,1.994,1.969s1.994-0.881,1.994-1.969c0-0.184-0.033-0.354-0.079-0.521
	l5.346-5.346c0.537,0.357,1.149,0.613,1.81,0.745v2.51c-0.596,0.322-1,0.933-1,1.642c0,1.042,0.866,1.889,1.938,1.889
	c1.072,0,1.938-0.847,1.938-1.889c0-0.709-0.406-1.317-1-1.642v-2.503c0.674-0.125,1.301-0.377,1.85-0.742l5.367,5.367
	c-0.055,0.175-0.092,0.355-0.092,0.551c0,1.053,0.866,1.906,1.938,1.906c1.072,0,1.938-0.854,1.938-1.906
	S124.07,117.688,123,117.688z"/>
</svg>
