<?xml version="1.0" encoding="utf-8"?>
<!-- Generator: Adobe Illustrator 15.0.0, SVG Export Plug-In . SVG Version: 6.00 Build 0)  -->
<!DOCTYPE svg PUBLIC "-//W3C//DTD SVG 1.0//EN" "http://www.w3.org/TR/2001/REC-SVG-20010904/DTD/svg10.dtd">
<svg version="1.0" id="Layer_1" xmlns="http://www.w3.org/2000/svg" xmlns:xlink="http://www.w3.org/1999/xlink" x="0px" y="0px"
	 width="220px" height="227px" viewBox="0 0 220 227" enable-background="new 0 0 220 227" xml:space="preserve">
<g>
	<path fill="#434343" d="M112.93,113.018l4.102-7.775c-1.764-1.096-3.805-1.732-5.989-1.732s-4.227,0.641-5.99,1.732l4.089,7.752
		c0.561-0.305,1.19-0.488,1.871-0.488C111.71,112.504,112.357,112.699,112.93,113.018z"/>
	<path fill="#434343" d="M114.966,116.598c-0.046,1.457-0.878,2.703-2.086,3.355l4.136,7.547c3.574-2.225,5.984-6.143,5.984-10.902
		H114.966z"/>
	<path fill="#434343" d="M107.054,116.598h-8.003c0,4.762,2.416,8.68,6,10.902l4.135-7.523
		C107.952,119.332,107.101,118.074,107.054,116.598z"/>
	<path fill="#434343" d="M112,114.779c-0.292-0.172-0.628-0.275-0.99-0.275c-0.343,0-0.66,0.096-0.941,0.248
		c-0.608,0.336-1.026,0.975-1.026,1.721c0,0.043,0.01,0.082,0.013,0.125c0.047,0.723,0.475,1.33,1.09,1.637
		c0.263,0.129,0.555,0.209,0.867,0.209c0.33,0,0.639-0.092,0.912-0.234c0.59-0.312,0.998-0.908,1.043-1.609
		c0.004-0.043,0.014-0.082,0.014-0.125C112.979,115.746,112.583,115.121,112,114.779z"/>
</g>
</svg>
