<?xml version="1.0" encoding="utf-8"?>
<!-- Generator: Adobe Illustrator 15.0.0, SVG Export Plug-In . SVG Version: 6.00 Build 0)  -->
<!DOCTYPE svg PUBLIC "-//W3C//DTD SVG 1.0//EN" "http://www.w3.org/TR/2001/REC-SVG-20010904/DTD/svg10.dtd">
<svg version="1.0" id="Layer_1" xmlns="http://www.w3.org/2000/svg" xmlns:xlink="http://www.w3.org/1999/xlink" x="0px" y="0px"
	 width="220px" height="227px" viewBox="0 0 220 227" enable-background="new 0 0 220 227" xml:space="preserve">
<path fill="#434343" d="M112.917,113.5l7.232-9.53c-2.009-1.543-4.511-2.47-7.232-2.47c-6.582,0-11.917,5.354-11.917,11.957
	c0,6.603,5.335,11.959,11.917,11.959c5.285,0,9.759-3.456,11.319-8.236L112.917,113.5z M109.958,109.416
	c-1.126,0-2.041-0.914-2.041-2.041c0-1.128,0.915-2.042,2.041-2.042c1.128,0,2.043,0.914,2.043,2.042
	C112.001,108.502,111.086,109.416,109.958,109.416z"/>
</svg>
