<?xml version="1.0" encoding="utf-8"?>
<!-- Generator: Adobe Illustrator 15.0.0, SVG Export Plug-In . SVG Version: 6.00 Build 0)  -->
<!DOCTYPE svg PUBLIC "-//W3C//DTD SVG 1.0//EN" "http://www.w3.org/TR/2001/REC-SVG-20010904/DTD/svg10.dtd">
<svg version="1.0" id="Layer_1" xmlns="http://www.w3.org/2000/svg" xmlns:xlink="http://www.w3.org/1999/xlink" x="0px" y="0px"
	 width="220px" height="227px" viewBox="0 0 220 227" enable-background="new 0 0 220 227" xml:space="preserve">
<g>
	<path fill="#434343" d="M110.802,95.562H101v23.844h17.844V102.51h-8.042V95.562z M104.927,115.469v-3.137
		c1.756,0,3.179,1.404,3.179,3.137H104.927z M109.909,115.469c0-2.814-2.166-4.98-4.982-4.98v-2.145c3.746,0,7.136,3.38,7.136,7.125
		H109.909z M116.094,115.438h-2.156c0-5.021-3.907-8.969-8.969-8.969v-2.125C110.988,104.344,116.094,109.465,116.094,115.438z"/>
	<polygon fill="#434343" points="112.062,95.5 112.062,101.281 118.875,101.281 	"/>
</g>
</svg>
