<?xml version="1.0" encoding="utf-8"?>
<!-- Generator: Adobe Illustrator 15.0.0, SVG Export Plug-In . SVG Version: 6.00 Build 0)  -->
<!DOCTYPE svg PUBLIC "-//W3C//DTD SVG 1.0//EN" "http://www.w3.org/TR/2001/REC-SVG-20010904/DTD/svg10.dtd">
<svg version="1.0" id="Layer_1" xmlns="http://www.w3.org/2000/svg" xmlns:xlink="http://www.w3.org/1999/xlink" x="0px" y="0px"
	 width="220px" height="227px" viewBox="0 0 220 227" enable-background="new 0 0 220 227" xml:space="preserve">
<g>
	<g>
		<path fill="#434343" d="M107.927,99.562h-9.802v23.844h17.844V106.51h-8.042V99.562z M111.021,109.521l-0.009,7.029
			c-0.065,0.566-0.846,1.396-1.6,1.707c-0.979,0.405-2.001,0.183-2.283-0.502c-0.281-0.682,0.285-1.562,1.267-1.967
			c0.546-0.225,1.168-0.32,1.604-0.186V111.5l-3.958,0.646l0.005,5.301c-0.065,0.564-0.921,1.521-1.674,1.834
			c-0.979,0.404-2.001,0.18-2.284-0.502c-0.28-0.684,0.286-1.562,1.268-1.967c0.546-0.228,1.16-0.285,1.599-0.149v-5.917
			L111.021,109.521z"/>
	</g>
	<polygon fill="#434343" points="109.083,105.469 116,105.469 109.083,99.5 	"/>
</g>
</svg>
