<?xml version="1.0" encoding="utf-8"?>
<!-- Generator: Adobe Illustrator 15.0.0, SVG Export Plug-In . SVG Version: 6.00 Build 0)  -->
<!DOCTYPE svg PUBLIC "-//W3C//DTD SVG 1.0//EN" "http://www.w3.org/TR/2001/REC-SVG-20010904/DTD/svg10.dtd">
<svg version="1.0" id="Layer_1" xmlns="http://www.w3.org/2000/svg" xmlns:xlink="http://www.w3.org/1999/xlink" x="0px" y="0px"
	 width="220px" height="227px" viewBox="0 0 220 227" enable-background="new 0 0 220 227" xml:space="preserve">
<g>
	<path fill="#434343" d="M106.926,100.562h-9.801v23.844h17.844V107.51h-8.043V100.562L106.926,100.562z M106.898,112.471v-1.863
		l0.057-0.061c0.139-0.141,0.344-0.219,0.578-0.219c0.26,0,0.51,0.098,0.668,0.259l2.809,2.856c0.307,0.312,0.307,0.82,0,1.133
		l-2.82,2.93c-0.137,0.111-0.355,0.179-0.592,0.179c-0.264,0-0.498-0.085-0.643-0.229l-0.057-0.061v-1.886
		c-1.975,0.038-4.264,1.264-5.037,2.707c-0.041,0.077-0.262,0.46-0.566,0.459c-0.285,0-0.432-0.28-0.432-0.831
		C100.863,114.844,104.092,112.511,106.898,112.471z"/>
	<polygon fill="#434343" points="108.082,100.5 108.082,106.469 115,106.469 	"/>
</g>
</svg>
