<?xml version="1.0" encoding="utf-8"?>
<!-- Generator: Adobe Illustrator 15.0.0, SVG Export Plug-In . SVG Version: 6.00 Build 0)  -->
<!DOCTYPE svg PUBLIC "-//W3C//DTD SVG 1.0//EN" "http://www.w3.org/TR/2001/REC-SVG-20010904/DTD/svg10.dtd">
<svg version="1.0" id="Layer_1" xmlns="http://www.w3.org/2000/svg" xmlns:xlink="http://www.w3.org/1999/xlink" x="0px" y="0px"
	 width="220px" height="227px" viewBox="0 0 220 227" enable-background="new 0 0 220 227" xml:space="preserve">
<path fill="#434343" d="M112.332,112.146c-2.18-3.021,8.543-11.524,0.311-11.524c-6.981,0-12.643,5.455-12.643,12.186
	c0,12.627,12.857,15.007,16.25,10.752C121.119,117.452,114.377,114.979,112.332,112.146z M110.053,106.686
	c-1.134,0-2.053-0.938-2.053-2.095c0-1.155,0.919-2.094,2.053-2.094c1.132,0,2.052,0.938,2.052,2.094
	C112.105,105.747,111.186,106.686,110.053,106.686z M106.031,110.747c-1.226,0-2.219-0.979-2.219-2.188s0.993-2.188,2.219-2.188
	c1.226,0,2.219,0.979,2.219,2.188S107.257,110.747,106.031,110.747z M104.031,116.747c-1.226,0-2.219-0.979-2.219-2.188
	s0.993-2.188,2.219-2.188c1.226,0,2.219,0.979,2.219,2.188S105.257,116.747,104.031,116.747z M108.031,122.747
	c-1.226,0-2.219-0.979-2.219-2.188s0.993-2.188,2.219-2.188c1.226,0,2.219,0.979,2.219,2.188S109.257,122.747,108.031,122.747z
	 M113.5,119.686c-0.896,0-1.625-0.729-1.625-1.625s0.729-1.625,1.625-1.625s1.625,0.729,1.625,1.625S114.396,119.686,113.5,119.686z
	"/>
</svg>
