<?xml version="1.0" encoding="utf-8"?>
<!-- Generator: Adobe Illustrator 15.0.0, SVG Export Plug-In . SVG Version: 6.00 Build 0)  -->
<!DOCTYPE svg PUBLIC "-//W3C//DTD SVG 1.0//EN" "http://www.w3.org/TR/2001/REC-SVG-20010904/DTD/svg10.dtd">
<svg version="1.0" id="Layer_1" xmlns="http://www.w3.org/2000/svg" xmlns:xlink="http://www.w3.org/1999/xlink" x="0px" y="0px"
	 width="220px" height="227px" viewBox="0 0 220 227" enable-background="new 0 0 220 227" xml:space="preserve">
<g>
	<path fill="#434343" d="M101.619,101.605c-1.829,0-3.259,0.778-4.026,2.192c-0.547,1.007-0.562,2.002-0.562,2.111v12.539
		c0,0,1.835-2,5.062,0c4.146,2.375,5.54-1.146,7.332,0c2.854,2.125,4.513,0,4.513,0s-0.02-10.186,0-10.452
		c0.109-1.698,0.351-3.216,1.021-4.349c0.752-1.264,1.777-2.045,2.911-2.045L101.619,101.605L101.619,101.605z"/>
	<path fill="#434343" d="M119.535,104.528c-0.443-0.598-0.961-0.945-1.521-0.945c-0.793,0-1.512,0.699-2.037,1.83
		c-0.473,1.011-0.786,2.367-0.865,3.886v1.458c0.166,3.216,1.399,5.716,2.904,5.716c1.614,0,2.926-2.886,2.926-6.442
		C120.941,107.696,120.378,105.659,119.535,104.528z M117.934,112.919c-0.628,0-1.145-1.079-1.215-2.467v-0.629
		c0.034-0.654,0.164-1.24,0.36-1.679c0.222-0.487,0.521-0.79,0.854-0.79c0.232,0,0.447,0.15,0.637,0.408
		c0.354,0.488,0.588,1.367,0.588,2.373C119.156,111.674,118.607,112.919,117.934,112.919z"/>
</g>
</svg>
