<?xml version="1.0" encoding="utf-8"?>
<!-- Generator: Adobe Illustrator 15.0.0, SVG Export Plug-In . SVG Version: 6.00 Build 0)  -->
<!DOCTYPE svg PUBLIC "-//W3C//DTD SVG 1.0//EN" "http://www.w3.org/TR/2001/REC-SVG-20010904/DTD/svg10.dtd">
<svg version="1.0" id="Layer_1" xmlns="http://www.w3.org/2000/svg" xmlns:xlink="http://www.w3.org/1999/xlink" x="0px" y="0px"
	 width="220px" height="227px" viewBox="0 0 220 227" enable-background="new 0 0 220 227" xml:space="preserve">
<g>
	<path fill="#434343" d="M118.742,97.561l-0.807,0.001l0.01-0.062l-4.937,0.008l-0.013,0.062l-3,0.005l-3.955,19.881l4.937-0.008
		l1.398-5.065l6.39-0.011c3.394-0.005,6.139-3.025,6.133-6.744l-0.003-1.346C124.889,100.567,122.134,97.556,118.742,97.561z
		 M119.896,105.239c0.002,1.262-1.34,2.286-2.109,2.288l-4.512,0.022l1.272-5.043l3.229-0.005c0.771-0.001,2.115,1.02,2.117,2.282
		L119.896,105.239L119.896,105.239z"/>
	<path fill="#434343" d="M127.13,103.334c0.002,1.148-0.074,2.195-0.072,3.149c0.008,4.792-1.936,8.065-6.287,8.072l-6.39,0.011
		l-2.333,6.879l3.937-0.007l1.4-4.062l6.39-0.011c3.394-0.006,6.139-3.025,6.133-6.744l-0.002-1.346
		C129.898,106.699,129.073,104.463,127.13,103.334z"/>
</g>
</svg>
