<?xml version="1.0" encoding="utf-8"?>
<!-- Generator: Adobe Illustrator 15.0.0, SVG Export Plug-In . SVG Version: 6.00 Build 0)  -->
<!DOCTYPE svg PUBLIC "-//W3C//DTD SVG 1.0//EN" "http://www.w3.org/TR/2001/REC-SVG-20010904/DTD/svg10.dtd">
<svg version="1.0" id="Layer_1" xmlns="http://www.w3.org/2000/svg" xmlns:xlink="http://www.w3.org/1999/xlink" x="0px" y="0px"
	 width="220px" height="227px" viewBox="0 0 220 227" enable-background="new 0 0 220 227" xml:space="preserve">
<g>
	<polygon fill="#434343" points="123.258,106.688 116.895,100.322 118.068,97.562 126,105.531 	"/>
	<path fill="#434343" d="M121.003,107.436l-4.935-4.936l-9.031,4.188c0,0,1.342,6.379-5,12.721c0.213,0.213,0.438,0.438,0.66,0.661
		l10.5-10.499c-0.344-0.681-0.238-1.526,0.33-2.096c0.707-0.709,1.854-0.709,2.561-0.004c0.705,0.707,0.705,1.854-0.003,2.562
		c-0.601,0.602-1.448,0.754-2.144,0.336L103.47,120.84c0.246,0.246,0.403,0.402,0.661,0.66c6.363-6.363,12.742-5,12.742-5
		L121.003,107.436z"/>
</g>
</svg>
