<?xml version="1.0" encoding="utf-8"?>
<!-- Generator: Adobe Illustrator 15.0.0, SVG Export Plug-In . SVG Version: 6.00 Build 0)  -->
<!DOCTYPE svg PUBLIC "-//W3C//DTD SVG 1.0//EN" "http://www.w3.org/TR/2001/REC-SVG-20010904/DTD/svg10.dtd">
<svg version="1.0" id="Layer_1" xmlns="http://www.w3.org/2000/svg" xmlns:xlink="http://www.w3.org/1999/xlink" x="0px" y="0px"
	 width="220px" height="227px" viewBox="0 0 220 227" enable-background="new 0 0 220 227" xml:space="preserve">
<g>
	<polygon fill="#434343" points="120.045,97.186 120.045,101.564 105.785,101.675 105.785,87.494 116.207,87.494 119,84.667 
		103,84.667 103,104.5 122.959,104.5 122.959,94.812 	"/>
	<g>
		<path fill="#434343" d="M126.527,86.294l-2.225-2.205c-0.596-0.595-1.765-0.843-2.33-0.277l-8.768,8.783
			c0,0-1.914,5.699-2.095,6.18c-0.146,0.382,0.334,0.859,0.667,0.691c0.541-0.27,5.943-2.374,5.943-2.374l8.792-8.827
			C127.083,87.698,127.122,86.888,126.527,86.294z M112.434,97.058l1.516-4.057l8.477-8.668c0.143-0.205,0.812,0.221,1.116,0.525
			l-8.504,8.475l0.007,1.203l0.993,0.006l8.624-8.52l0.84,0.826l-8.826,8.859l-0.012,0.287l0.539,0.54l-3.652,1.54L112.434,97.058z"
			/>
	</g>
</g>
</svg>
