<?xml version="1.0" encoding="utf-8"?>
<!-- Generator: Adobe Illustrator 15.0.0, SVG Export Plug-In . SVG Version: 6.00 Build 0)  -->
<!DOCTYPE svg PUBLIC "-//W3C//DTD SVG 1.0//EN" "http://www.w3.org/TR/2001/REC-SVG-20010904/DTD/svg10.dtd">
<svg version="1.0" id="Layer_1" xmlns="http://www.w3.org/2000/svg" xmlns:xlink="http://www.w3.org/1999/xlink" x="0px" y="0px"
	 width="220px" height="227px" viewBox="0 0 220 227" enable-background="new 0 0 220 227" xml:space="preserve">
<g>
	<path fill="#434343" d="M108.129,111.556c-0.959,1.345-2.695,2.166-4.109,2.166c-1.412,0-3.309-0.81-4.27-2.136
		c-4.609,0-4.75,6.861-4.75,6.861h17.951C112.951,118.447,113.312,111.556,108.129,111.556z"/>
	<path fill="#434343" d="M107.953,105.328c0,2.091-1.766,6.088-3.945,6.088c-2.179,0-3.945-3.997-3.945-6.088
		c0-2.09,1.768-3.786,3.945-3.786C106.188,101.542,107.953,103.238,107.953,105.328z"/>
	<g>
		<path fill="#434343" d="M113.447,95.5c-3.006,0-5.445,1.824-5.445,4.076c0,2.055,2.035,3.749,4.676,4.029l-1.553,2.854
			l4.336-3.099c2.01-0.601,3.436-2.066,3.436-3.784C118.895,97.324,116.457,95.5,113.447,95.5z"/>
	</g>
</g>
</svg>
