<?xml version="1.0" encoding="utf-8"?>
<!-- Generator: Adobe Illustrator 15.0.0, SVG Export Plug-In . SVG Version: 6.00 Build 0)  -->
<!DOCTYPE svg PUBLIC "-//W3C//DTD SVG 1.0//EN" "http://www.w3.org/TR/2001/REC-SVG-20010904/DTD/svg10.dtd">
<svg version="1.0" id="Layer_1" xmlns="http://www.w3.org/2000/svg" xmlns:xlink="http://www.w3.org/1999/xlink" x="0px" y="0px"
	 width="220px" height="227px" viewBox="0 0 220 227" enable-background="new 0 0 220 227" xml:space="preserve">
<g>
	<path fill="#434343" d="M96.037,101.61c-2.742,0-4.965,2.661-4.965,5.943c0,3.283,2.223,5.944,4.965,5.944s4.963-2.661,4.963-5.944
		C101,104.271,98.779,101.61,96.037,101.61z M96.037,111.417c-1.781,0-3.225-1.729-3.225-3.861c0-2.134,1.441-3.86,3.225-3.86
		s3.225,1.729,3.225,3.86S97.818,111.417,96.037,111.417z"/>
	<path fill="#434343" d="M110.037,113.61c-2.742,0-4.965,2.661-4.965,5.943c0,3.283,2.223,5.944,4.965,5.944
		s4.963-2.661,4.963-5.944C115,116.271,112.779,113.61,110.037,113.61z M110.037,123.417c-1.781,0-3.225-1.729-3.225-3.861
		c0-2.134,1.441-3.86,3.225-3.86s3.225,1.729,3.225,3.86S111.818,123.417,110.037,123.417z"/>
	<path fill="#434343" d="M96.008,125.485c-0.178,0-0.348-0.046-0.504-0.139c-0.475-0.277-0.635-0.893-0.357-1.369l13.934-21.801
		c0.188-0.319,0.512-0.507,0.871-0.507c0.178,0,0.348,0.047,0.504,0.138c0.477,0.279,0.637,0.895,0.355,1.369l-13.93,21.801
		C96.691,125.3,96.369,125.485,96.008,125.485z"/>
</g>
</svg>
