<?xml version="1.0" encoding="utf-8"?>
<!-- Generator: Adobe Illustrator 15.0.0, SVG Export Plug-In . SVG Version: 6.00 Build 0)  -->
<!DOCTYPE svg PUBLIC "-//W3C//DTD SVG 1.0//EN" "http://www.w3.org/TR/2001/REC-SVG-20010904/DTD/svg10.dtd">
<svg version="1.0" id="Layer_1" xmlns="http://www.w3.org/2000/svg" xmlns:xlink="http://www.w3.org/1999/xlink" x="0px" y="0px"
	 width="220px" height="227px" viewBox="0 0 220 227" enable-background="new 0 0 220 227" xml:space="preserve">
<g>
	<path fill="#434343" d="M123.475,102.57h-1.484l-2.988,3.335v13.927c0,1.125-1,1.043-1,0.043l-0.001-8.227
		c0.005-0.094,0.027-0.934-0.582-1.574c-0.368-0.385-0.876-0.593-1.5-0.639V101.5H103v22.018h-0.001
		c-1.876,0-1.999,1.838-1.999,1.838h16.958c0,0,0.042-1.838-2.037-1.838h-0.004v-13.065c0.323,0.039,0.597,0.127,0.771,0.307
		c0.325,0.336,0.313,0.842,0.312,0.867v8.25c0,1.082,0.792,1.5,1.625,1.5c0.875,0,1.375-0.5,1.375-1.543v-13.374h1.984v-1.984h-0.5
		l0.873-1.023h1.037c0.268,0,0.562-0.134,0.562-0.399C123.957,102.788,123.742,102.57,123.475,102.57z M109.083,112.5h-4.125v-1.084
		h4.125V112.5z M114.083,112.5h-4.125v-1.084h4.125V112.5z M114.102,109.644h-9.144v-6.329h9.144V109.644z"/>
</g>
</svg>
