<?xml version="1.0" encoding="utf-8"?>
<!-- Generator: Adobe Illustrator 15.0.0, SVG Export Plug-In . SVG Version: 6.00 Build 0)  -->
<!DOCTYPE svg PUBLIC "-//W3C//DTD SVG 1.0//EN" "http://www.w3.org/TR/2001/REC-SVG-20010904/DTD/svg10.dtd">
<svg version="1.0" id="Layer_1" xmlns="http://www.w3.org/2000/svg" xmlns:xlink="http://www.w3.org/1999/xlink" x="0px" y="0px"
	 width="220px" height="227px" viewBox="0 0 220 227" enable-background="new 0 0 220 227" xml:space="preserve">
<g>
	<path fill="#434343" d="M114.938,134.625v-17.062h-0.96v-2.146h0.96c0-1.611-2.959-2.813-5.979-2.813s-5.958,1.202-5.958,2.813
		h1.023v2.146h-0.962v17.062H102v1.875h13.938v-1.875H114.938z M104.914,115.335h8.171v2.228h-8.171V115.335z M110.021,119.439
		v2.143h-3.062v-2.143H110.021z M106.062,133.542h-1.125v-2.125h1.125V133.542z M106.062,130.583h-1.125v-2.167h1.125V130.583z
		 M106.062,127.542h-1.125v-2.167h1.125V127.542z M106.062,124.583h-1.125v-2.167h1.125V124.583z M106.062,121.625h-1.125v-2.208
		h1.125V121.625z M110.041,133.521h-3.083v-2.041h3.083V133.521z M110.041,130.562h-3.083v-2.104h3.083V130.562z M106.979,127.521
		v-2.104h3.045v2.104H106.979z M110.042,124.561h-3.083v-2.103h3.083V124.561z M110.958,122.479H112v2.041h-1.042V122.479z
		 M112,125.439v2.12h-1v-2.12H112z M112.021,133.521H111v-2.062h1.021V133.521z M112.021,130.52H111v-2.038h1.021V130.52z
		 M112.021,121.561h-1.041v-2.076h1.041V121.561z M114.083,126.646h-1.166v-2.209h1.166V126.646z"/>
</g>
</svg>
