<?xml version="1.0" encoding="utf-8"?>
<!-- Generator: Adobe Illustrator 15.0.0, SVG Export Plug-In . SVG Version: 6.00 Build 0)  -->
<!DOCTYPE svg PUBLIC "-//W3C//DTD SVG 1.0//EN" "http://www.w3.org/TR/2001/REC-SVG-20010904/DTD/svg10.dtd">
<svg version="1.0" id="Layer_1" xmlns="http://www.w3.org/2000/svg" xmlns:xlink="http://www.w3.org/1999/xlink" x="0px" y="0px"
	 width="220px" height="227px" viewBox="0 0 220 227" enable-background="new 0 0 220 227" xml:space="preserve">
<path fill="#434343" d="M117.5,102.5c-3.033,0-5.5,2.467-5.5,5.5c0,1.328,0.473,2.549,1.26,3.5h-4.521
	c0.787-0.951,1.262-2.172,1.262-3.5c0-3.033-2.469-5.5-5.5-5.5c-3.033,0-5.5,2.467-5.5,5.5s2.467,5.5,5.5,5.5c0.168,0,12.812,0,13,0
	c3.031,0,5.5-2.467,5.5-5.5S120.531,102.5,117.5,102.5z M101,108c0-1.93,1.57-3.5,3.5-3.5s3.5,1.57,3.5,3.5s-1.57,3.5-3.5,3.5
	S101,109.93,101,108z M117.5,111.5c-1.93,0-3.5-1.57-3.5-3.5s1.57-3.5,3.5-3.5s3.5,1.57,3.5,3.5S119.43,111.5,117.5,111.5z"/>
</svg>
