<?xml version="1.0" encoding="utf-8"?>
<!-- Generator: Adobe Illustrator 15.0.0, SVG Export Plug-In . SVG Version: 6.00 Build 0)  -->
<!DOCTYPE svg PUBLIC "-//W3C//DTD SVG 1.0//EN" "http://www.w3.org/TR/2001/REC-SVG-20010904/DTD/svg10.dtd">
<svg version="1.0" id="Layer_1" xmlns="http://www.w3.org/2000/svg" xmlns:xlink="http://www.w3.org/1999/xlink" x="0px" y="0px"
	 width="220px" height="227px" viewBox="0 0 220 227" enable-background="new 0 0 220 227" xml:space="preserve">
<g>
	<ellipse fill="#434343" cx="122.411" cy="108.951" rx="1.431" ry="1.443"/>
	<rect x="122.005" y="105.537" fill="#434343" width="0.862" height="0.9"/>
	<rect x="124.042" y="106.5" fill="#434343" width="0.9" height="0.963"/>
	<rect x="119.083" y="108.5" fill="#434343" width="0.836" height="0.938"/>
	<rect x="120.01" y="106.531" fill="#434343" width="0.894" height="0.906"/>
	<rect x="120.083" y="110.542" fill="#434343" width="0.818" height="0.907"/>
	<rect x="122.006" y="111.52" fill="#434343" width="0.986" height="0.955"/>
	<path fill="#434343" d="M126.997,102.53c-0.452,0-1.667,0.001-3.074,0.003v-2.096l2.017,0.02v-2.875h-0.854v1.959h-5.146v-1.959
		h-0.854v2.875l1.917-0.02v2.099c-1.532,0.001-2.848,0.003-3.215,0.003c0,0-4.451,1.16-4.451,4.467c0,3.309-1.323,8.521-1.323,8.521
		s1.034,0.07,1.034,1.93c0.82,0,17.917,0,18.68,0c0-1.781,1.202-1.938,1.202-1.938s-1.466-5.295-1.466-8.502
		C131.461,103.812,126.997,102.53,126.997,102.53z M122.481,104.438c2.366,0,4.291,1.824,4.515,4.151h-1.956v0.919h1.953
		c-0.239,2.312-2.155,4.117-4.512,4.117c-2.52,0-4.56-2.057-4.56-4.593C117.924,106.494,119.964,104.438,122.481,104.438z
		 M128.083,115.562h-11.208v-1.084h11.208V115.562z"/>
	<path fill="#434343" d="M112.887,101.438h2.004c0,0,1.94,0.397,2-1.918h-5.883C111.008,101.688,112.887,101.438,112.887,101.438z"
		/>
	<path fill="#434343" d="M121.936,93.645c-3.103,0-10.959-0.125-10.959,4.834h5.923c0.001-0.034,0.006-1.365,0.006-1.059
		c0-0.57,1.427-0.988,1.955-0.988h7.229c0.525,0,1.895,0.418,1.895,0.988c0,0.199,0.012,1.021,0.013,1.059h5.894
		c0-0.016,0.002-0.025,0.002-0.041C133.89,93.479,125.038,93.645,121.936,93.645z"/>
	<path fill="#434343" d="M130.021,101.438h1.969c0,0,1.875,0.449,1.896-1.918h-5.866
		C128.091,101.584,130.021,101.438,130.021,101.438z"/>
</g>
</svg>
