<?xml version="1.0" encoding="utf-8"?>
<!-- Generator: Adobe Illustrator 15.0.0, SVG Export Plug-In . SVG Version: 6.00 Build 0)  -->
<!DOCTYPE svg PUBLIC "-//W3C//DTD SVG 1.0//EN" "http://www.w3.org/TR/2001/REC-SVG-20010904/DTD/svg10.dtd">
<svg version="1.0" id="Layer_1" xmlns="http://www.w3.org/2000/svg" xmlns:xlink="http://www.w3.org/1999/xlink" x="0px" y="0px"
	 width="220px" height="227px" viewBox="0 0 220 227" enable-background="new 0 0 220 227" xml:space="preserve">
<path fill="#555555" d="M103,99.5v9.916h23.986V99.5H103z M105.888,100.438h2.209v1.125h-2.209V100.438z M126.083,108.559h-22.091
	v-1.121h0.883v-4.029h1.208v4.029h0.909v-4.029h2.091v4.029h0.909v-4.029h1.091v4.029h0.909v-4.029h2.091v4.029h0.909v-4.029h1.091
	v4.029h0.909v-4.029h2.091v4.029h0.909v-4.029h1.091v4.029h0.909v-4.029h2.091v4.029h0.909v-4.029h1.091V108.559z M126.097,101.584
	h-9.209v-1.168h9.209V101.584z"/>
</svg>
