<?xml version="1.0" encoding="utf-8"?>
<!-- Generator: Adobe Illustrator 15.0.0, SVG Export Plug-In . SVG Version: 6.00 Build 0)  -->
<!DOCTYPE svg PUBLIC "-//W3C//DTD SVG 1.0//EN" "http://www.w3.org/TR/2001/REC-SVG-20010904/DTD/svg10.dtd">
<svg version="1.0" id="Layer_1" xmlns="http://www.w3.org/2000/svg" xmlns:xlink="http://www.w3.org/1999/xlink" x="0px" y="0px"
	 width="220px" height="227px" viewBox="0 0 220 227" enable-background="new 0 0 220 227" xml:space="preserve">
<path fill="#434343" d="M110.788,104.972l-3.978-5.014c0,0,2.694,0.948,2.955,0.948c0.698,0,0.295-0.774,0-1.07l-3.867-4.837
	c0,0,2.284,1,2.909,1s0.295-0.772,0-1.07l-5.584-7.615c-0.295-0.296-0.773-0.296-1.068,0l-5.617,7.616
	c-0.296,0.297-0.729,1.07,0,1.07c0.729,0,2.962-1,2.962-1l-3.878,4.888c-0.296,0.296-0.833,1.07,0,1.07c0.479,0,2.923-1,2.923-1
	l-3.923,5.014c-0.296,0.296-0.833,1.07,0,1.07s6.521-1,6.521-1v4.562c0,0.807,0.653,1.459,1.458,1.459
	c0.808,0,1.521-0.652,1.521-1.459v-4.562c0,0,6.06,1,6.666,1C111.394,106.042,111.083,105.268,110.788,104.972z"/>
</svg>
