<?xml version="1.0" encoding="utf-8"?>
<!-- Generator: Adobe Illustrator 15.0.0, SVG Export Plug-In . SVG Version: 6.00 Build 0)  -->
<!DOCTYPE svg PUBLIC "-//W3C//DTD SVG 1.0//EN" "http://www.w3.org/TR/2001/REC-SVG-20010904/DTD/svg10.dtd">
<svg version="1.0" id="Layer_1" xmlns="http://www.w3.org/2000/svg" xmlns:xlink="http://www.w3.org/1999/xlink" x="0px" y="0px"
	 width="220px" height="227px" viewBox="0 0 220 227" enable-background="new 0 0 220 227" xml:space="preserve">
<g>
	<path fill="#434343" d="M102.373,101.678c-0.668-0.668-0.66-1.33-0.551-1.689c0.296-0.99,0.702-2.094,0.935-3.307l-7.436,7.438
		c1.172-0.238,2.243-0.632,3.207-0.918c0.366-0.107,1.065-0.078,1.77,0.622c0.701,0.702,4.299,5.388,4.299,5.388l3.201-3.199
		C107.798,106.009,103.042,102.347,102.373,101.678z"/>
	<path fill="#434343" d="M102.59,94.821c-0.016-1.941-0.744-4.127-3.161-6.548c-3.5-3.498-9.174-3.498-12.674,0
		c-3.498,3.5-3.498,9.175,0,12.675c2.241,2.239,4.276,3.008,6.108,3.112l9.481-9.482L102.59,94.821z M92,99.667
		c-1.197,0-2.167-0.97-2.167-2.167s0.97-2.167,2.167-2.167s2.167,0.97,2.167,2.167S93.197,99.667,92,99.667z"/>
</g>
</svg>
