<?xml version="1.0" encoding="utf-8"?>
<!-- Generator: Adobe Illustrator 15.0.0, SVG Export Plug-In . SVG Version: 6.00 Build 0)  -->
<!DOCTYPE svg PUBLIC "-//W3C//DTD SVG 1.0//EN" "http://www.w3.org/TR/2001/REC-SVG-20010904/DTD/svg10.dtd">
<svg version="1.0" id="Layer_1" xmlns="http://www.w3.org/2000/svg" xmlns:xlink="http://www.w3.org/1999/xlink" x="0px" y="0px"
	 width="220px" height="227px" viewBox="0 0 220 227" enable-background="new 0 0 220 227" xml:space="preserve">
<g>
	<path fill="#434343" d="M118.031,111.5c-1.844,0-2.979,1.545-4.006,2.274c-0.533,0.378-0.697,0.257-0.326-0.266
		c0.742-1.036,2.301-2.136,2.301-4.042c0-2.744-2.225-4.969-4.969-4.969s-4.969,2.225-4.969,4.969c0,1.938,1.559,3.005,2.299,4.042
		c0.373,0.521,0.248,0.677-0.262,0.311c-1.045-0.751-2.1-2.319-4.068-2.319c-2.744,0-4.969,2.225-4.969,4.969s2.225,4.97,4.969,4.97
		c2.744,0,6.969-1.97,6.969-1.97h0.062c0,0,4.225,1.97,6.969,1.97s4.969-2.226,4.969-4.97S120.775,111.5,118.031,111.5z"/>
	<path fill="#434343" d="M115.104,128.354c-0.959,0-7.041,0-8,0c2.854-2.854,3-13.457,3-13.457h2
		C112.104,114.896,112.209,125.458,115.104,128.354z"/>
</g>
</svg>
