<?xml version="1.0" encoding="utf-8"?>
<!-- Generator: Adobe Illustrator 15.0.0, SVG Export Plug-In . SVG Version: 6.00 Build 0)  -->
<!DOCTYPE svg PUBLIC "-//W3C//DTD SVG 1.0//EN" "http://www.w3.org/TR/2001/REC-SVG-20010904/DTD/svg10.dtd">
<svg version="1.0" id="Layer_1" xmlns="http://www.w3.org/2000/svg" xmlns:xlink="http://www.w3.org/1999/xlink" x="0px" y="0px"
	 width="220px" height="227px" viewBox="0 0 220 227" enable-background="new 0 0 220 227" xml:space="preserve">
<path fill="#434343" d="M114,95.5c0,0-10,5.814-10,13.926c0,2.729,2.379,4.939,5.107,4.939c1.254,0,2.305-0.313,3.174-1.084
	c-0.436,2.518-1.014,4.898-2.188,6.072c0.959,0,6.927,0,7.886,0c-1.154-1.154-1.802-3.596-2.238-6.032
	c0.842,0.649,1.893,1.044,3.041,1.044c2.756,0,5.197-2.025,5.197-4.781C123.979,101.625,114,95.5,114,95.5z"/>
</svg>
