<?xml version="1.0" encoding="utf-8"?>
<!-- Generator: Adobe Illustrator 15.0.0, SVG Export Plug-In . SVG Version: 6.00 Build 0)  -->
<!DOCTYPE svg PUBLIC "-//W3C//DTD SVG 1.0//EN" "http://www.w3.org/TR/2001/REC-SVG-20010904/DTD/svg10.dtd">
<svg version="1.0" id="Layer_1" xmlns="http://www.w3.org/2000/svg" xmlns:xlink="http://www.w3.org/1999/xlink" x="0px" y="0px"
	 width="220px" height="227px" viewBox="0 0 220 227" enable-background="new 0 0 220 227" xml:space="preserve">
<g>
	<rect x="91" y="112.5" fill="#434343" width="0.953" height="0.969"/>
	<rect x="83.047" y="95.531" fill="#434343" width="0.953" height="0.969"/>
	<path fill="#434343" d="M92.494,92.51H82.412c-1.33,0-2.412,1.099-2.412,2.444v19.101c0,1.35,1.082,2.445,2.412,2.445h10.082
		c1.33,0,2.412-1.098,2.412-2.445V94.954C94.906,93.605,93.824,92.51,92.494,92.51z M85.005,98.51h-1.047v-1h-0.953v1h-1.062v-3.047
		h1.027v-0.984h1.045v0.984h0.99V98.51z M87.489,108.635l-2.741-4.094l2.824-4.115l2.742,4.094L87.489,108.635z M93.01,113.51
		h-0.994v1.031h-1.047v-1.031h-1.021v-3.047h1.058v0.975h0.953v-0.975h1.052v3.047H93.01z"/>
</g>
</svg>
