<?xml version="1.0" encoding="utf-8"?>
<!-- Generator: Adobe Illustrator 15.0.0, SVG Export Plug-In . SVG Version: 6.00 Build 0)  -->
<!DOCTYPE svg PUBLIC "-//W3C//DTD SVG 1.0//EN" "http://www.w3.org/TR/2001/REC-SVG-20010904/DTD/svg10.dtd">
<svg version="1.0" id="Layer_1" xmlns="http://www.w3.org/2000/svg" xmlns:xlink="http://www.w3.org/1999/xlink" x="0px" y="0px"
	 width="220px" height="227px" viewBox="0 0 220 227" enable-background="new 0 0 220 227" xml:space="preserve">
<g>
	<rect x="120.005" y="141.5" fill="#434343" width="0.953" height="0.969"/>
	<rect x="112.005" y="124.531" fill="#434343" width="0.953" height="0.969"/>
	<path fill="#434343" d="M121.494,121.5h-10.082c-1.33,0-2.412,1.098-2.412,2.445v19.1c0,1.348,1.082,2.445,2.412,2.445h10.082
		c1.33,0,2.412-1.1,2.412-2.445v-19.1C123.906,122.598,122.824,121.5,121.494,121.5z M112.005,126.5v1h-1.062v-3.047h1.027v-0.984
		h1.045v0.984h0.989v3.047h-1.047v-1H112.005z M117.005,135.064v2.457h-1.047v-2.426c-0.487,0.27-1.19,0.337-1.631,0.337
		c-0.728,0-1.317-0.784-1.317-1.755c0-0.967,0.59-1.75,1.317-1.75c0.243,0,0.573,0.094,0.901,0.246
		c-0.133-0.393-0.215-0.787-0.215-1.078c0-0.857,0.666-1.557,1.485-1.557c0.817,0,1.483,0.697,1.483,1.557
		c0,0.298-0.084,0.701-0.224,1.104c0.341-0.168,0.687-0.271,0.938-0.271c0.713,0,1.291,0.783,1.291,1.75
		c0,0.971-0.578,1.755-1.291,1.755C118.25,135.434,117.5,135.359,117.005,135.064z M122.01,142.5h-0.994v1.031h-1.047V142.5h-1.021
		v-3.047h1.058v1.047h0.953v-1.047h1.053v3.047H122.01z"/>
</g>
</svg>
