<?xml version="1.0" encoding="utf-8"?>
<!-- Generator: Adobe Illustrator 15.0.0, SVG Export Plug-In . SVG Version: 6.00 Build 0)  -->
<!DOCTYPE svg PUBLIC "-//W3C//DTD SVG 1.0//EN" "http://www.w3.org/TR/2001/REC-SVG-20010904/DTD/svg10.dtd">
<svg version="1.0" id="Layer_1" xmlns="http://www.w3.org/2000/svg" xmlns:xlink="http://www.w3.org/1999/xlink" x="0px" y="0px"
	 width="220px" height="227px" viewBox="0 0 220 227" enable-background="new 0 0 220 227" xml:space="preserve">
<g>
	<rect x="121.005" y="112.5" fill="#434343" width="0.953" height="0.969"/>
	<rect x="113.005" y="95.531" fill="#434343" width="0.964" height="0.896"/>
	<path fill="#434343" d="M122.494,92.5h-10.082c-1.33,0-2.412,1.097-2.412,2.444v19.101c0,1.348,1.082,2.445,2.412,2.445h10.082
		c1.33,0,2.412-1.1,2.412-2.445V94.944C124.906,93.597,123.824,92.5,122.494,92.5z M115.005,98.5h-1.047v-1h-0.953v1h-1.062v-3.047
		h1.027v-0.984h1.045v0.984h0.989V98.5z M119.062,108.531h-2.103v-2.033c-1.246,0.125-2.147,0.299-2.147-1.015
		c0-1.647,3.155-4.952,3.155-4.952s3.156,3.305,3.156,4.952c0,1.312-0.815,1.14-2.062,1.015V108.531z M123.01,113.5h-0.994v1.031
		h-1.047V113.5h-1.021v-3.047h1.058v0.975h0.953v-0.975h1.053v3.047H123.01z"/>
</g>
</svg>
