<?xml version="1.0" encoding="utf-8"?>
<!-- Generator: Adobe Illustrator 15.0.0, SVG Export Plug-In . SVG Version: 6.00 Build 0)  -->
<!DOCTYPE svg PUBLIC "-//W3C//DTD SVG 1.0//EN" "http://www.w3.org/TR/2001/REC-SVG-20010904/DTD/svg10.dtd">
<svg version="1.0" id="Layer_1" xmlns="http://www.w3.org/2000/svg" xmlns:xlink="http://www.w3.org/1999/xlink" x="0px" y="0px"
	 width="220px" height="227px" viewBox="0 0 220 227" enable-background="new 0 0 220 227" xml:space="preserve">
<g>
	<path fill="#434343" d="M135.385,130.441h-8.737c-1.896,0-2.614-7.856-2.614-7.856H138
		C138,122.585,137.625,130.441,135.385,130.441z"/>
	<path fill="#434343" d="M148.125,123.562c0,0.518-0.42,0.938-0.938,0.938h-10c-0.52,0-0.938-0.42-0.938-0.938l0,0
		c0-0.52,0.42-0.938,0.938-0.938h10C147.705,122.625,148.125,123.045,148.125,123.562L148.125,123.562z"/>
	<path fill="#434343" d="M138,121.389c0-0.639-3.276-1.826-7.125-1.826c-3.848,0-6.812,1.281-6.812,1.826H138z"/>
	<rect x="130.062" y="118.531" fill="#434343" width="1.844" height="1.938"/>
</g>
</svg>
