<?xml version="1.0" encoding="utf-8"?>
<!-- Generator: Adobe Illustrator 15.0.0, SVG Export Plug-In . SVG Version: 6.00 Build 0)  -->
<!DOCTYPE svg PUBLIC "-//W3C//DTD SVG 1.0//EN" "http://www.w3.org/TR/2001/REC-SVG-20010904/DTD/svg10.dtd">
<svg version="1.0" id="Layer_1" xmlns="http://www.w3.org/2000/svg" xmlns:xlink="http://www.w3.org/1999/xlink" x="0px" y="0px"
	 width="220px" height="227px" viewBox="0 0 220 227" enable-background="new 0 0 220 227" xml:space="preserve">
<g>
	<g>
		<path fill="#434343" d="M125,124.5h-13.938c-2.759,0-5-2.25-5-5.016v-13.93c0-2.765,2.241-5.015,5-5.015H125
			c2.757,0,5,2.25,5,5.015v13.93C130,122.25,127.757,124.5,125,124.5z M110.956,102.417c-1.664,0-3.019,1.36-3.019,3.033v14.015
			c0,1.674,1.354,3.035,3.019,3.035h14.025c1.663,0,3.019-1.361,3.019-3.035V105.45c0-1.673-1.354-3.033-3.019-3.033H110.956z"/>
	</g>
	<rect x="110.062" y="102" fill="#434343" width="0.875" height="20.5"/>
	<rect x="113.062" y="102" fill="#434343" width="0.875" height="20.5"/>
	<rect x="116.062" y="102" fill="#434343" width="0.875" height="20.5"/>
	<rect x="119.062" y="102" fill="#434343" width="0.875" height="20.5"/>
	<rect x="122.062" y="102" fill="#434343" width="0.875" height="20.5"/>
	<rect x="125.062" y="102" fill="#434343" width="0.875" height="20.5"/>
	<g>
		<path fill="#434343" d="M123.34,117.542c-0.599,0.807-1.341,2.009-2.202,3.44c-0.946,1.576-2.036-0.354-3.227-0.354
			c-1.225,0-2.365,1.861-3.354,0.242c-0.851-1.395-1.588-2.519-2.169-3.29c-3.011,0-4.562,1.789-5.357,3.955
			c-0.8,2.166,22.728,2.156,22-0.021C128.301,119.34,126.726,117.542,123.34,117.542z"/>
		<path fill="#434343" d="M122.953,109.607c0,2.698-2.21,7.86-4.938,7.86c-2.728,0-4.938-5.162-4.938-7.86
			c0-2.7,2.211-4.89,4.938-4.89C120.743,104.72,122.953,106.907,122.953,109.607z"/>
	</g>
</g>
</svg>
