<?xml version="1.0" encoding="utf-8"?>
<!-- Generator: Adobe Illustrator 15.0.0, SVG Export Plug-In . SVG Version: 6.00 Build 0)  -->
<!DOCTYPE svg PUBLIC "-//W3C//DTD SVG 1.0//EN" "http://www.w3.org/TR/2001/REC-SVG-20010904/DTD/svg10.dtd">
<svg version="1.0" id="Layer_1" xmlns="http://www.w3.org/2000/svg" xmlns:xlink="http://www.w3.org/1999/xlink" x="0px" y="0px"
	 width="220px" height="227px" viewBox="0 0 220 227" enable-background="new 0 0 220 227" xml:space="preserve">
<g>
	<path fill="#434343" d="M115.258,107.525c-0.741,0.969-3.207,1.217-3.207,1.217s-2.52-0.238-3.262-1.195
		c-3.558,0-3.665,4.953-3.665,4.953h13.854C118.979,112.5,119.259,107.525,115.258,107.525z"/>
	<path fill="#434343" d="M115.03,102.585c0,1.646-1.336,4.79-2.98,4.79c-1.646,0-2.981-3.145-2.981-4.79s1.335-2.979,2.981-2.979
		C113.694,99.605,115.03,100.939,115.03,102.585z"/>
	<path fill="#434343" d="M121.06,104.555c-0.585,0.77-2.396,1.178-2.396,1.178s-2.125-0.4-2.71-1.158c0,0-0.021,0.887-0.905,1.914
		c2.823-0.311,4.042,2.004,4.042,2.004l4.906,0.008C123.997,108.498,124.218,104.555,121.06,104.555z"/>
	<path fill="#434343" d="M121.01,100.844c0,1.266-1.101,3.678-2.457,3.678c-1.36,0-2.461-2.412-2.461-3.678
		c0-1.264,1.103-2.289,2.461-2.289C119.91,98.555,121.01,99.58,121.01,100.844z"/>
	<path fill="#434343" d="M103.031,104.555c0.581,0.77,2.379,1.178,2.379,1.178s2.109-0.4,2.688-1.158c0,0,0.021,0.887,0.899,1.914
		c-2.804-0.311-4.014,2.004-4.014,2.004l-4.872,0.008C100.114,108.498,99.896,104.555,103.031,104.555z"/>
	<path fill="#434343" d="M103.143,100.844c0,1.266,1.095,3.678,2.44,3.678c1.353,0,2.443-2.412,2.443-3.678
		c0-1.264-1.095-2.289-2.443-2.289S103.143,99.58,103.143,100.844z"/>
</g>
</svg>
