<?xml version="1.0" encoding="utf-8"?>
<!-- Generator: Adobe Illustrator 15.0.0, SVG Export Plug-In . SVG Version: 6.00 Build 0)  -->
<!DOCTYPE svg PUBLIC "-//W3C//DTD SVG 1.0//EN" "http://www.w3.org/TR/2001/REC-SVG-20010904/DTD/svg10.dtd">
<svg version="1.0" id="Layer_1" xmlns="http://www.w3.org/2000/svg" xmlns:xlink="http://www.w3.org/1999/xlink" x="0px" y="0px"
	 width="220px" height="227px" viewBox="0 0 220 227" enable-background="new 0 0 220 227" xml:space="preserve">
<g>
	<path fill="#434343" d="M120.873,123.446v-1.992c0-1.116,0.854-2.022,1.904-2.022h8.109v-1.653c0-1.239-0.895-2.245-2-2.245
		h-17.812c-1.104,0-2,1.006-2,2.245v9.26c0,1.239,0.896,2.245,2,2.245h17.812c1.105,0,2-1.006,2-2.245v-1.511h-8.109
		C121.727,125.525,120.873,124.562,120.873,123.446z"/>
	<path fill="#434343" d="M131.527,120.562h-0.07h-7.082c-0.756,0-1.367,0.629-1.367,1.402v1.1c0,0.773,0.611,1.402,1.367,1.402
		h7.082h0.07c0.756,0,1.369-0.629,1.369-1.402v-1.1C132.896,121.191,132.283,120.562,131.527,120.562z M125.934,123.971
		c-0.781,0-1.42-0.635-1.42-1.418s0.637-1.418,1.42-1.418s1.42,0.635,1.42,1.418S126.717,123.971,125.934,123.971z"/>
	<polygon fill="#434343" points="126.035,110.947 127.307,114.458 129.928,114.479 127.723,108.5 110.938,113.558 111.131,114.271 
		115.285,114.273 	"/>
</g>
</svg>
