<?xml version="1.0" encoding="utf-8"?>
<!-- Generator: Adobe Illustrator 15.0.0, SVG Export Plug-In . SVG Version: 6.00 Build 0)  -->
<!DOCTYPE svg PUBLIC "-//W3C//DTD SVG 1.0//EN" "http://www.w3.org/TR/2001/REC-SVG-20010904/DTD/svg10.dtd">
<svg version="1.0" id="Layer_1" xmlns="http://www.w3.org/2000/svg" xmlns:xlink="http://www.w3.org/1999/xlink" x="0px" y="0px"
	 width="220px" height="227px" viewBox="0 0 220 227" enable-background="new 0 0 220 227" xml:space="preserve">
<g>
	<path fill="#434343" d="M114.578,120.03c-3.838,3.838-9.449,4.452-12.53,1.37l13.9-13.9
		C119.029,110.582,118.416,116.191,114.578,120.03z"/>
	<path fill="#434343" d="M105.807,115.5c-1.06-1.06-0.982-2.854,0.171-4.005c1.152-1.154,2.945-1.23,4.005-0.171L105.807,115.5z"/>
	<g>
		<path fill="#434343" d="M119.5,131.494h-9.964c-0.178,0-0.342-0.094-0.432-0.246s-0.092-0.342-0.005-0.496l5.062-9.027
			c0.089-0.156,0.256-0.256,0.437-0.256h0.004c0.183,0.002,0.35,0.104,0.437,0.264l4.901,9.025c0.084,0.154,0.08,0.342-0.01,0.493
			S119.676,131.494,119.5,131.494z"/>
	</g>
</g>
</svg>
