<?xml version="1.0" encoding="utf-8"?>
<!-- Generator: Adobe Illustrator 15.0.0, SVG Export Plug-In . SVG Version: 6.00 Build 0)  -->
<!DOCTYPE svg PUBLIC "-//W3C//DTD SVG 1.0//EN" "http://www.w3.org/TR/2001/REC-SVG-20010904/DTD/svg10.dtd">
<svg version="1.0" id="Layer_1" xmlns="http://www.w3.org/2000/svg" xmlns:xlink="http://www.w3.org/1999/xlink" x="0px" y="0px"
	 width="220px" height="227px" viewBox="0 0 220 227" enable-background="new 0 0 220 227" xml:space="preserve">
<g>
	<rect x="104.042" y="102.708" fill="#434343" width="1.958" height="6.834"/>
	<path fill="#434343" d="M107.987,109.542H96.039c-1.104,0-2.997,1.853-2.997,7.999s1.894,7.876,2.997,7.876v1h1.874v-1h8.118v1
		h1.873v-1h0.083c1.104,0,2.997-1.667,2.997-7.917S109.091,109.542,107.987,109.542z M109.062,118.583h-1v2.536
		c0,1.389-1.143,2.517-2.545,2.517h-7.039c-1.402,0-2.543-1.128-2.543-2.517v-6.165c0-1.388,1.141-2.519,2.543-2.519h7.039
		c1.402,0,2.545,1.129,2.545,2.519v2.481h1V118.583z"/>
	<path fill="#434343" d="M106.94,117.438v-2.396c0-0.8-0.668-1.451-1.49-1.451h-6.879c-0.822,0-1.492,0.651-1.492,1.451v5.928
		c0,0.8,0.67,1.452,1.492,1.452h6.879c0.822,0,1.49-0.652,1.49-1.452v-2.386h-1.023v-1.146H106.94z M100.021,119.989
		c0,0.314-0.238,0.573-0.534,0.573c-0.294,0-0.531-0.259-0.531-0.573v-3.979c0-0.314,0.237-0.572,0.531-0.572
		c0.294,0,0.534,0.258,0.534,0.572V119.989z M102.041,119.989c0,0.314-0.242,0.573-0.542,0.573c-0.299,0-0.541-0.259-0.541-0.573
		v-3.979c0-0.314,0.242-0.572,0.541-0.572c0.3,0,0.542,0.258,0.542,0.572V119.989z M104.021,119.989
		c0,0.314-0.238,0.573-0.532,0.573c-0.293,0-0.531-0.259-0.531-0.573v-3.979c0-0.314,0.238-0.572,0.531-0.572
		c0.294,0,0.532,0.258,0.532,0.572V119.989z"/>
</g>
</svg>
