<?xml version="1.0" encoding="utf-8"?>
<!-- Generator: Adobe Illustrator 15.0.0, SVG Export Plug-In . SVG Version: 6.00 Build 0)  -->
<!DOCTYPE svg PUBLIC "-//W3C//DTD SVG 1.0//EN" "http://www.w3.org/TR/2001/REC-SVG-20010904/DTD/svg10.dtd">
<svg version="1.0" id="Layer_1" xmlns="http://www.w3.org/2000/svg" xmlns:xlink="http://www.w3.org/1999/xlink" x="0px" y="0px"
	 width="220px" height="227px" viewBox="0 0 220 227" enable-background="new 0 0 220 227" xml:space="preserve">
<path fill="#434343" d="M123.938,124.541h-2.369l-0.387-3.062h1.756v-1.938h-1.997l-0.387-3.062h1.259v-1.938h-1.502l-0.385-3.062
	h0.949v-1.938h-1.192l-0.384-3.062h0.514v-1.938h-0.758l-0.117-0.938h-1.896l0.118,0.938h-5.34l0.115-0.938h-1.896l-0.118,0.938
	h-0.986v1.938h0.743l-0.384,3.062h-1.359v1.938h1.116l-0.385,3.062h-1.731v1.938h1.488l-0.385,3.062h-2.104v1.938h1.86l-0.385,3.062
	H105v1.938h2.17l-0.128,1.021h1.896l0.13-1.021h10.849l0.128,1.021h1.896l-0.13-1.021h2.13v-1.938H123.938z M111.576,106.479h5.827
	l0.384,3.062h-6.595L111.576,106.479z M110.949,111.479h7.081l0.385,3.062h-7.851L110.949,111.479z M110.321,116.479h8.337
	l0.385,3.062h-9.106L110.321,116.479z M109.309,124.541l0.387-3.062h9.593l0.385,3.062H109.309z"/>
</svg>
