<?xml version="1.0" encoding="utf-8"?>
<!-- Generator: Adobe Illustrator 15.0.0, SVG Export Plug-In . SVG Version: 6.00 Build 0)  -->
<!DOCTYPE svg PUBLIC "-//W3C//DTD SVG 1.0//EN" "http://www.w3.org/TR/2001/REC-SVG-20010904/DTD/svg10.dtd">
<svg version="1.0" id="Layer_1" xmlns="http://www.w3.org/2000/svg" xmlns:xlink="http://www.w3.org/1999/xlink" x="0px" y="0px"
	 width="220px" height="227px" viewBox="0 0 220 227" enable-background="new 0 0 220 227" xml:space="preserve">
<g>
	<path fill="#434343" d="M117.375,116c0,0.553-0.447,1-1,1H103.5c-0.553,0-1-0.447-1-1v-9c0-0.553,0.447-1,1-1h12.875
		c0.553,0,1,0.447,1,1V116z"/>
	<path fill="#434343" d="M126.375,129c0,0.553-0.447,1-1,1H112.5c-0.553,0-1-0.447-1-1v-9c0-0.553,0.447-1,1-1h12.875
		c0.553,0,1,0.447,1,1V129z"/>
	<path fill="#434343" d="M109.375,129c0,0.553-0.447,1-1,1H103.5c-0.553,0-1-0.447-1-1v-9c0-0.553,0.447-1,1-1h4.875
		c0.553,0,1,0.447,1,1V129z"/>
	<path fill="#434343" d="M126.375,116c0,0.553-0.447,1-1,1H120.5c-0.553,0-1-0.447-1-1v-9c0-0.553,0.447-1,1-1h4.875
		c0.553,0,1,0.447,1,1V116z"/>
</g>
</svg>
