<?xml version="1.0" encoding="utf-8"?>
<!-- Generator: Adobe Illustrator 15.0.0, SVG Export Plug-In . SVG Version: 6.00 Build 0)  -->
<!DOCTYPE svg PUBLIC "-//W3C//DTD SVG 1.0//EN" "http://www.w3.org/TR/2001/REC-SVG-20010904/DTD/svg10.dtd">
<svg version="1.0" id="Layer_1" xmlns="http://www.w3.org/2000/svg" xmlns:xlink="http://www.w3.org/1999/xlink" x="0px" y="0px"
	 width="220px" height="227px" viewBox="0 0 220 227" enable-background="new 0 0 220 227" xml:space="preserve">
<g>
	<polygon fill="#434343" points="115.048,105.476 117.076,105.476 117.076,107.464 118.86,107.464 118.86,103.643 115.048,103.643 	
		"/>
	<polygon fill="#434343" points="96.923,107.495 96.923,105.476 98.951,105.476 98.951,103.643 95.027,103.643 95.027,107.495 	"/>
	<polygon fill="#434343" points="98.951,125.64 96.964,125.64 96.964,123.567 95.027,123.567 95.027,127.495 98.951,127.495 	"/>
	<rect x="117.064" y="109.567" fill="#434343" width="1.814" height="4.876"/>
	<rect x="117.064" y="116.567" fill="#434343" width="1.814" height="4.876"/>
	<rect x="108.027" y="103.594" fill="#434343" width="4.898" height="1.906"/>
	<rect x="101.012" y="103.594" fill="#434343" width="4.941" height="1.906"/>
	<rect x="108.069" y="125.594" fill="#434343" width="4.901" height="1.906"/>
	<rect x="101.012" y="125.594" fill="#434343" width="4.941" height="1.906"/>
	<rect x="95.059" y="109.567" fill="#434343" width="1.899" height="4.876"/>
	<rect x="95.059" y="116.567" fill="#434343" width="1.899" height="4.876"/>
	<polygon fill="#434343" points="117.095,123.567 117.095,125.64 115.089,125.64 115.089,127.392 118.86,127.392 118.86,123.567 	
		"/>
</g>
</svg>
