<?xml version="1.0" encoding="utf-8"?>
<!-- Generator: Adobe Illustrator 15.0.0, SVG Export Plug-In . SVG Version: 6.00 Build 0)  -->
<!DOCTYPE svg PUBLIC "-//W3C//DTD SVG 1.0//EN" "http://www.w3.org/TR/2001/REC-SVG-20010904/DTD/svg10.dtd">
<svg version="1.0" id="Layer_1" xmlns="http://www.w3.org/2000/svg" xmlns:xlink="http://www.w3.org/1999/xlink" x="0px" y="0px"
	 width="220px" height="227px" viewBox="0 0 220 227" enable-background="new 0 0 220 227" xml:space="preserve">
<path fill="#434343" d="M129.242,116.749c-2.076,0-3.759,1.683-3.759,3.759c0,0.533,0.112,1.039,0.313,1.499l-4.941,4.089
	l-4.731-4.147c0.243-0.498,0.393-1.05,0.393-1.642c0-2.076-1.683-3.759-3.759-3.759c-2.075,0-3.758,1.683-3.758,3.759
	c0,2.074,1.683,3.758,3.758,3.758c0.748,0,1.441-0.225,2.026-0.602l-0.104,0.116l5.4,4.496v5.087
	c-1.541,0.469-2.939,1.885-2.939,3.58c0,2.074,1.684,3.758,3.759,3.758s3.758-1.684,3.758-3.758c0-1.694-1.128-3.11-2.669-3.58
	v-5.18l5.206-4.307l-0.034-0.041c0.597,0.397,1.312,0.631,2.081,0.631c2.075,0,3.758-1.684,3.758-3.759
	S131.317,116.749,129.242,116.749z M112.758,122.26c-1.078,0-1.954-0.875-1.954-1.953s0.876-1.955,1.954-1.955
	c1.08,0,1.954,0.877,1.954,1.955S113.838,122.26,112.758,122.26z M122.979,136.736c0,1.146-0.93,2.078-2.076,2.078
	c-1.148,0-2.078-0.932-2.078-2.078c0-0.965,0.66-1.769,1.55-2.004h1.057C122.318,134.969,122.979,135.771,122.979,136.736z
	 M129.242,122.587c-1.148,0-2.079-0.931-2.079-2.079c0-1.146,0.931-2.078,2.079-2.078c1.146,0,2.079,0.932,2.079,2.078
	C131.321,121.656,130.39,122.587,129.242,122.587z"/>
</svg>
