<?xml version="1.0" encoding="utf-8"?>
<!-- Generator: Adobe Illustrator 15.0.0, SVG Export Plug-In . SVG Version: 6.00 Build 0)  -->
<!DOCTYPE svg PUBLIC "-//W3C//DTD SVG 1.0//EN" "http://www.w3.org/TR/2001/REC-SVG-20010904/DTD/svg10.dtd">
<svg version="1.0" id="Layer_1" xmlns="http://www.w3.org/2000/svg" xmlns:xlink="http://www.w3.org/1999/xlink" x="0px" y="0px"
	 width="220px" height="227px" viewBox="0 0 220 227" enable-background="new 0 0 220 227" xml:space="preserve">
<g>
	<path fill="#434343" d="M118.93,105.286c0,1.135-0.804,2.058-1.793,2.058h-3.346c-0.989,0-1.791-0.923-1.791-2.058v-2.66
		c0-1.135,0.802-2.058,1.791-2.058h3.346c0.989,0,1.793,0.923,1.793,2.058V105.286z"/>
	<path fill="#434343" d="M118.93,113.369c0,1.15-0.804,2.084-1.793,2.084h-3.346c-0.989,0-1.791-0.934-1.791-2.084v-2.692
		c0-1.15,0.802-2.084,1.791-2.084h3.346c0.989,0,1.793,0.934,1.793,2.084V113.369z"/>
	<path fill="#434343" d="M118.93,121.312c0,1.148-0.804,2.082-1.793,2.082h-3.346c-0.989,0-1.791-0.934-1.791-2.082v-2.693
		c0-1.148,0.802-2.083,1.791-2.083h3.346c0.989,0,1.793,0.935,1.793,2.083V121.312z"/>
	<path fill="#434343" d="M126.93,105.286c0,1.135-0.804,2.058-1.793,2.058h-3.346c-0.989,0-1.791-0.923-1.791-2.058v-2.66
		c0-1.135,0.802-2.058,1.791-2.058h3.346c0.989,0,1.793,0.923,1.793,2.058V105.286z"/>
	<path fill="#434343" d="M126.93,113.369c0,1.15-0.804,2.084-1.793,2.084h-3.346c-0.989,0-1.791-0.934-1.791-2.084v-2.692
		c0-1.15,0.802-2.084,1.791-2.084h3.346c0.989,0,1.793,0.934,1.793,2.084V113.369z"/>
	<path fill="#434343" d="M126.93,121.312c0,1.148-0.804,2.082-1.793,2.082h-3.346c-0.989,0-1.791-0.934-1.791-2.082v-2.693
		c0-1.148,0.802-2.083,1.791-2.083h3.346c0.989,0,1.793,0.935,1.793,2.083V121.312z"/>
	<path fill="#434343" d="M134.929,105.286c0,1.135-0.803,2.058-1.792,2.058h-3.346c-0.989,0-1.791-0.923-1.791-2.058v-2.66
		c0-1.135,0.802-2.058,1.791-2.058h3.346c0.989,0,1.792,0.923,1.792,2.058V105.286z"/>
	<path fill="#434343" d="M134.929,113.369c0,1.15-0.803,2.084-1.792,2.084h-3.346c-0.989,0-1.791-0.934-1.791-2.084v-2.692
		c0-1.15,0.802-2.084,1.791-2.084h3.346c0.989,0,1.792,0.934,1.792,2.084V113.369z"/>
	<path fill="#434343" d="M134.929,121.312c0,1.148-0.803,2.082-1.792,2.082h-3.346c-0.989,0-1.791-0.934-1.791-2.082v-2.693
		c0-1.148,0.802-2.083,1.791-2.083h3.346c0.989,0,1.792,0.935,1.792,2.083V121.312z"/>
</g>
</svg>
