<?xml version="1.0" encoding="utf-8"?>
<!-- Generator: Adobe Illustrator 15.0.0, SVG Export Plug-In . SVG Version: 6.00 Build 0)  -->
<!DOCTYPE svg PUBLIC "-//W3C//DTD SVG 1.0//EN" "http://www.w3.org/TR/2001/REC-SVG-20010904/DTD/svg10.dtd">
<svg version="1.0" id="Layer_1" xmlns="http://www.w3.org/2000/svg" xmlns:xlink="http://www.w3.org/1999/xlink" x="0px" y="0px"
	 width="220px" height="227px" viewBox="0 0 220 227" enable-background="new 0 0 220 227" xml:space="preserve">
<g>
	<path fill="#434343" d="M121.213,99.996c0.121,0,0.239,0.016,0.354,0.042c0.301-0.372,0.611-0.735,0.925-1.098
		c-0.07-0.186-0.113-0.385-0.113-0.595c0-0.911,0.729-1.65,1.627-1.65c0.166,0,0.322,0.032,0.473,0.079
		c0.407-0.414,0.818-0.824,1.241-1.223c-0.051-0.161-0.087-0.328-0.087-0.506c0-0.911,0.729-1.65,1.629-1.65
		c0.261,0,0.502,0.068,0.723,0.179c2.806-2.306,5.899-4.283,9.249-5.849c-2.777-0.735-10.95,0.123-16.361,5.608
		c-5.652,5.731-6.546,14.293-5.479,16.874c1.202-2.746,2.685-5.351,4.396-7.786c-0.124-0.232-0.201-0.494-0.201-0.775
		C119.584,100.735,120.312,99.996,121.213,99.996z"/>
	<path fill="#434343" d="M127.543,96.697c-0.312,0-0.599-0.092-0.846-0.245c-0.354,0.332-0.696,0.673-1.036,1.018
		c0.157,0.255,0.253,0.555,0.253,0.878c0,0.912-0.729,1.649-1.627,1.649c-0.276,0-0.534-0.076-0.763-0.2
		c-0.244,0.287-0.494,0.572-0.731,0.866c0.204,0.274,0.329,0.613,0.329,0.985c0,0.91-0.729,1.649-1.627,1.649
		c-0.207,0-0.405-0.043-0.588-0.115c-1.726,2.468-3.204,5.112-4.395,7.903c2.496,1.112,10.998,0.227,16.685-5.536
		c5.754-5.834,6.346-14.838,5.373-17.056c-3.458,1.552-6.649,3.554-9.529,5.908c0.081,0.198,0.129,0.417,0.129,0.646
		C129.17,95.96,128.44,96.697,127.543,96.697z"/>
</g>
</svg>
