<?xml version="1.0" encoding="utf-8"?>
<!-- Generator: Adobe Illustrator 15.0.0, SVG Export Plug-In . SVG Version: 6.00 Build 0)  -->
<!DOCTYPE svg PUBLIC "-//W3C//DTD SVG 1.0//EN" "http://www.w3.org/TR/2001/REC-SVG-20010904/DTD/svg10.dtd">
<svg version="1.0" id="Layer_1" xmlns="http://www.w3.org/2000/svg" xmlns:xlink="http://www.w3.org/1999/xlink" x="0px" y="0px"
	 width="220px" height="227px" viewBox="0 0 220 227" enable-background="new 0 0 220 227" xml:space="preserve">
<g>
	<path fill="#434343" d="M127,101.5h-1c-0.553,0-1,0.447-1,1s0.447,1,1,1v4l-12.152,1.869c-0.488,0.076-0.848,0.495-0.848,0.988
		v3.143c-0.553,0-1,0.447-1,1v6c0,0.553,0.447,1,1,1h2c0.553,0,1-0.447,1-1v-6c0-0.553-0.447-1-1-1v-2.284l12.152-1.87
		c0.488-0.075,0.848-0.494,0.848-0.989V102.5C128,101.947,127.553,101.5,127,101.5z"/>
	<path fill="#434343" d="M124,104.5v-4c0-1.104-0.896-2-2-2h-16c-1.104,0-2,0.896-2,2v4c0,1.104,0.896,2,2,2h16
		C123.104,106.5,124,105.604,124,104.5z"/>
</g>
</svg>
