<?xml version="1.0" encoding="utf-8"?>
<!-- Generator: Adobe Illustrator 15.0.0, SVG Export Plug-In . SVG Version: 6.00 Build 0)  -->
<!DOCTYPE svg PUBLIC "-//W3C//DTD SVG 1.0//EN" "http://www.w3.org/TR/2001/REC-SVG-20010904/DTD/svg10.dtd">
<svg version="1.0" id="Layer_1" xmlns="http://www.w3.org/2000/svg" xmlns:xlink="http://www.w3.org/1999/xlink" x="0px" y="0px"
	 width="220px" height="227px" viewBox="0 0 220 227" enable-background="new 0 0 220 227" xml:space="preserve">
<g>
	<path fill="#434343" d="M102.466,119.571c-0.739,0.024-1.56,0.612-2.237,0.236c-3.256-1.81-9.24-1.728-11.537,1.438
		c-1.243,1.712-0.889,3.976-2.051,5.672c-1.584,2.312-3.645,3.024-3.55,6.409c0.046,1.643,2.289,1.077,3.452,1.069
		c1.816-0.011,3.632-0.016,5.448-0.019c1.702-0.004,3.405-0.006,5.105-0.006c4.357,0,2.248-1.982,1.729-4.582
		c-0.249-1.25-0.451-2.464-0.897-3.611c-0.546-1.4-2.461-4.539-0.265-4.966c3.044-0.591,0.304,2.159,4.805,3.25
		c1.313,0.318,2.446-1.103,2.446-2.459c0-1.028-0.66-1.971-1.625-2.313C103.014,119.59,102.738,119.562,102.466,119.571z"/>
	<path fill="#434343" d="M101.86,139.555c0,1.074-0.936,1.945-2.083,1.945H83.109c-1.149,0-2.083-0.871-2.083-1.945v-1.942
		c0-1.073,0.934-1.944,2.083-1.944h16.668c1.147,0,2.083,0.871,2.083,1.944V139.555z"/>
</g>
</svg>
