<?xml version="1.0" encoding="utf-8"?>
<!-- Generator: Adobe Illustrator 15.0.0, SVG Export Plug-In . SVG Version: 6.00 Build 0)  -->
<!DOCTYPE svg PUBLIC "-//W3C//DTD SVG 1.0//EN" "http://www.w3.org/TR/2001/REC-SVG-20010904/DTD/svg10.dtd">
<svg version="1.0" id="Layer_1" xmlns="http://www.w3.org/2000/svg" xmlns:xlink="http://www.w3.org/1999/xlink" x="0px" y="0px"
	 width="220px" height="227px" viewBox="0 0 220 227" enable-background="new 0 0 220 227" xml:space="preserve">
<g>
	<path fill="#434343" d="M114.287,127.255c-0.384,0.385-1.014,0.38-1.406-0.011l-3.535-3.535c-0.391-0.391-0.393-1.02-0.009-1.403
		l5.553-5.554c0.387-0.385,1.015-0.381,1.403,0.01l3.536,3.535c0.392,0.391,0.396,1.021,0.011,1.405L114.287,127.255z"/>
	<path fill="#434343" d="M121.004,119.438l-3.849-3.848c-0.438-0.436,1.566-2.438,2.004-2.003l3.848,3.85
		C123.442,117.869,121.438,119.873,121.004,119.438z"/>
	<path fill="#434343" d="M109.926,130.081c-0.471,0.473-1.148,0.56-1.518,0.192l-2.15-2.15c-0.366-0.367-0.28-1.046,0.191-1.52l0,0
		c0.471-0.472,1.15-0.559,1.518-0.189l2.15,2.15C110.484,128.93,110.398,129.611,109.926,130.081L109.926,130.081z"/>
	
		<rect x="108.358" y="121.968" transform="matrix(0.7071 0.7071 -0.7071 0.7071 120.1148 -45.0754)" fill="#434343" width="12.22" height="0.971"/>
	
		<rect x="108.752" y="115.265" transform="matrix(0.7069 0.7074 -0.7074 0.7069 115.3956 -43.1063)" fill="#434343" width="1.907" height="4.812"/>
	
		<rect x="106.631" y="113.142" transform="matrix(0.7071 0.7071 -0.7071 0.7071 113.2153 -42.2302)" fill="#434343" width="1.906" height="4.812"/>
	
		<rect x="104.608" y="110.888" transform="matrix(0.7074 0.7069 -0.7069 0.7074 110.9737 -41.4624)" fill="#434343" width="1.908" height="4.812"/>
	
		<rect x="117.944" y="124.456" transform="matrix(0.7071 0.7071 -0.7071 0.7071 124.5295 -46.9161)" fill="#434343" width="1.907" height="4.813"/>
	
		<rect x="120.068" y="126.579" transform="matrix(0.7071 0.7071 -0.7071 0.7071 126.6518 -47.7958)" fill="#434343" width="1.906" height="4.812"/>
	
		<rect x="122.252" y="128.544" transform="matrix(0.7066 0.7076 -0.7076 0.7066 128.8118 -48.7615)" fill="#434343" width="1.907" height="4.812"/>
</g>
</svg>
