<?xml version="1.0" encoding="utf-8"?>
<!-- Generator: Adobe Illustrator 15.0.0, SVG Export Plug-In . SVG Version: 6.00 Build 0)  -->
<!DOCTYPE svg PUBLIC "-//W3C//DTD SVG 1.0//EN" "http://www.w3.org/TR/2001/REC-SVG-20010904/DTD/svg10.dtd">
<svg version="1.0" id="Layer_1" xmlns="http://www.w3.org/2000/svg" xmlns:xlink="http://www.w3.org/1999/xlink" x="0px" y="0px"
	 width="220px" height="227px" viewBox="0 0 220 227" enable-background="new 0 0 220 227" xml:space="preserve">
<g>
	<path fill="#434343" d="M102,120.482c0,1.695-1.377,3.072-3.074,3.072h-5.852c-1.697,0-3.074-1.377-3.074-3.072v-5.854
		c0-1.697,1.377-3.074,3.074-3.074h5.852c1.697,0,3.074,1.377,3.074,3.074V120.482z"/>
	<path fill="#434343" d="M110.141,105.201l1.143,3.59c0.471,0,0.852-0.381,0.852-0.85l0.818-6.42c0-0.473-0.381-0.854-0.854-0.854
		l-6.436,0.818c-0.473,0-0.854,0.381-0.854,0.852l3.607,1.146l-5.9,5.883c-0.236,0.236-0.355,0.547-0.355,0.857
		c0,0.31,0.119,0.617,0.355,0.854c0.479,0.475,1.25,0.475,1.729,0L110.141,105.201z"/>
	<path fill="#434343" d="M112.08,110.483v10.927c0,1.193-0.963,2.165-2.148,2.165H92.15c-1.186,0-2.148-0.972-2.148-2.165v-17.832
		c0-1.193,0.965-2.165,2.148-2.165h10.913v-0.862H92.15c-1.691,0-3.068,1.384-3.068,3.084v17.781c0,1.699,1.377,3.084,3.068,3.084
		h17.781c1.691,0,3.068-1.385,3.068-3.084v-10.934L112.08,110.483L112.08,110.483z"/>
</g>
</svg>
