<?xml version="1.0" encoding="utf-8"?>
<!-- Generator: Adobe Illustrator 15.0.0, SVG Export Plug-In . SVG Version: 6.00 Build 0)  -->
<!DOCTYPE svg PUBLIC "-//W3C//DTD SVG 1.0//EN" "http://www.w3.org/TR/2001/REC-SVG-20010904/DTD/svg10.dtd">
<svg version="1.0" id="Layer_1" xmlns="http://www.w3.org/2000/svg" xmlns:xlink="http://www.w3.org/1999/xlink" x="0px" y="0px"
	 width="220px" height="227px" viewBox="0 0 220 227" enable-background="new 0 0 220 227" xml:space="preserve">
<g>
	<path fill="#434343" d="M120.543,111.958v7.938h13.916v-7.938H120.543z M133.547,119.062H121.37v-6.188h12.177V119.062z"/>
	<rect x="122.5" y="114" fill="#434343" width="9.917" height="3.938"/>
	<polygon fill="#434343" points="116.459,119.958 117.845,121.346 115.46,123.73 116.685,124.957 119.072,122.571 120.459,123.958 
		120.459,119.958 	"/>
	<polygon fill="#434343" points="138.231,106.97 135.877,109.305 134.502,107.941 134.502,111.874 138.468,111.874 137.093,110.511 
		139.447,108.176 	"/>
	<polygon fill="#434343" points="138.24,124.956 139.446,123.73 137.106,121.352 138.476,119.958 134.542,119.958 134.542,123.958 
		135.899,122.577 	"/>
	<polygon fill="#434343" points="116.729,107.011 115.502,108.217 117.841,110.516 116.459,111.874 120.459,111.874 
		120.459,107.942 119.065,109.311 	"/>
</g>
</svg>
