<?xml version="1.0" encoding="utf-8"?>
<!-- Generator: Adobe Illustrator 15.0.0, SVG Export Plug-In . SVG Version: 6.00 Build 0)  -->
<!DOCTYPE svg PUBLIC "-//W3C//DTD SVG 1.0//EN" "http://www.w3.org/TR/2001/REC-SVG-20010904/DTD/svg10.dtd">
<svg version="1.0" id="Layer_1" xmlns="http://www.w3.org/2000/svg" xmlns:xlink="http://www.w3.org/1999/xlink" x="0px" y="0px"
	 width="220px" height="227px" viewBox="0 0 220 227" enable-background="new 0 0 220 227" xml:space="preserve">
<g>
	<polygon fill="#434343" points="137.354,126.808 134.612,125.913 128.115,119.416 127.247,120.283 133.744,126.779 
		134.697,129.582 139.292,132.327 140.158,131.461 	"/>
	<path fill="#434343" d="M128.285,116.068l-1.322,1.335c0.236-0.584,0.16-1.229-0.255-1.648l-6.913-6.997
		c-0.58-0.586-1.599-0.512-2.271,0.173l-0.768,0.772c-0.674,0.685-0.749,1.713-0.167,2.301L123.5,119
		c0.414,0.42,1.051,0.495,1.625,0.259l-1.188,1.2l0.838,0.845l4.347-4.391L128.285,116.068z"/>
</g>
</svg>
