<?xml version="1.0" encoding="utf-8"?>
<!-- Generator: Adobe Illustrator 15.0.0, SVG Export Plug-In . SVG Version: 6.00 Build 0)  -->
<!DOCTYPE svg PUBLIC "-//W3C//DTD SVG 1.0//EN" "http://www.w3.org/TR/2001/REC-SVG-20010904/DTD/svg10.dtd">
<svg version="1.0" id="Layer_1" xmlns="http://www.w3.org/2000/svg" xmlns:xlink="http://www.w3.org/1999/xlink" x="0px" y="0px"
	 width="220px" height="227px" viewBox="0 0 220 227" enable-background="new 0 0 220 227" xml:space="preserve">
<g>
	<rect x="114.062" y="104.5" fill="#434343" width="1.905" height="3.031"/>
	<rect x="121" y="104.531" fill="#434343" width="1.938" height="4"/>
	<rect x="114.031" y="103.5" fill="#434343" width="0.875" height="1.938"/>
	<rect x="122.031" y="103.5" fill="#434343" width="0.875" height="1.938"/>
	<rect x="113.031" y="105.5" fill="#434343" width="11.938" height="1"/>
	<rect x="118" y="112.562" fill="none" width="1.083" height="9.875"/>
	<rect x="112.021" y="112.562" fill="#434343" width="5.979" height="9.875"/>
	<path fill="#434343" d="M118,109.693c0-1.185-1.089-2.144-2.432-2.144h-1.115c-1.344,0-2.434,0.959-2.434,2.144v1.744H118V109.693z
		"/>
	<path fill="#434343" d="M112.021,125.326c0,1.184,1.088,2.143,2.433,2.143h1.114c1.344,0,2.433-0.959,2.433-2.143v-1.764h-5.979
		V125.326L112.021,125.326z"/>
	<path fill="#434343" d="M124.938,109.693c0-1.185-1.065-2.144-2.381-2.144h-1.092c-1.314,0-2.382,0.959-2.382,2.144v1.744h5.854
		V109.693L124.938,109.693z"/>
	<path fill="#434343" d="M119.083,125.326c0,1.184,1.065,2.143,2.382,2.143h1.092c1.314,0,2.381-0.959,2.381-2.143v-1.764h-5.854
		L119.083,125.326L119.083,125.326z"/>
	<rect x="119.083" y="112.562" fill="#434343" width="5.854" height="9.875"/>
	<rect x="111.031" y="110.531" fill="#434343" width="0.938" height="2.938"/>
	<rect x="125.031" y="110.531" fill="#434343" width="0.938" height="2.938"/>
	<rect x="125.031" y="121.531" fill="#434343" width="0.938" height="2.938"/>
	<rect x="111.031" y="121.531" fill="#434343" width="0.938" height="2.938"/>
	<g>
		<path fill="#434343" d="M130.938,123.531c-0.506,0-0.955-0.195-1.336-0.58c-1.725-1.744-1.582-7.288-1.535-11.394
			c0.009-0.729-0.062-1.469-0.065-2.022c-0.007-0.813-0.265-1.444-0.787-1.93c-1.291-1.196-3.718-1.051-3.741-1.045l-0.068-0.998
			c0.117-0.002,2.884-0.18,4.49,1.31c0.726,0.673,1.099,1.565,1.106,2.655c0.005,0.562-0.003,1.229-0.012,1.966
			c-0.04,3.481-0.106,9.308,1.323,10.755c0.191,0.193,0.391,0.283,0.625,0.283V123.531L130.938,123.531z"/>
	</g>
	<ellipse fill="#434343" cx="131.484" cy="123" rx="1.483" ry="1.469"/>
</g>
</svg>
