<?xml version="1.0" encoding="utf-8"?>
<!-- Generator: Adobe Illustrator 15.0.0, SVG Export Plug-In . SVG Version: 6.00 Build 0)  -->
<!DOCTYPE svg PUBLIC "-//W3C//DTD SVG 1.0//EN" "http://www.w3.org/TR/2001/REC-SVG-20010904/DTD/svg10.dtd">
<svg version="1.0" id="Layer_1" xmlns="http://www.w3.org/2000/svg" xmlns:xlink="http://www.w3.org/1999/xlink" x="0px" y="0px"
	 width="220px" height="227px" viewBox="0 0 220 227" enable-background="new 0 0 220 227" xml:space="preserve">
<g>
	<rect x="126" y="105.5" fill="#434343" width="20.896" height="1.943"/>
	<rect x="126" y="108.5" fill="#434343" width="20.896" height="1.943"/>
	<rect x="126" y="126.5" fill="#434343" width="16.896" height="1.943"/>
	<g>
		<path fill="#434343" d="M138.438,111.57c-3.557,0-6.438,2.891-6.438,6.456c0,3.564,2.881,6.457,6.438,6.457
			c3.559,0,6.438-2.893,6.438-6.457C144.875,114.461,141.994,111.57,138.438,111.57z M138.438,122.852
			c-2.655,0-4.811-2.158-4.811-4.823c0-2.664,2.153-4.824,4.811-4.824c2.658,0,4.812,2.16,4.812,4.824
			C143.248,120.691,141.095,122.852,138.438,122.852z"/>
		<path fill="#434343" d="M150,127.5l-2.043,2.043l-4.743-4.744c0,0,0.874-0.09,1.415-0.631c0.542-0.543,0.626-1.412,0.626-1.412
			L150,127.5z"/>
		<path fill="#434343" d="M138.618,115.075c0.712,0,0.442-0.541-0.545-0.541c-1.703,0-3.082,1.365-3.082,3.049
			c0,0.979,0.546,1.246,0.546,0.541C135.537,116.44,136.917,115.075,138.618,115.075z"/>
	</g>
	<rect x="126" y="111.5" fill="#434343" width="5.958" height="1.943"/>
	<rect x="126" y="114.5" fill="#434343" width="4.957" height="1.943"/>
	<rect x="126" y="117.5" fill="#434343" width="4.957" height="1.943"/>
	<rect x="126" y="120.5" fill="#434343" width="4.957" height="1.943"/>
	<rect x="126" y="123.5" fill="#434343" width="6.956" height="1.943"/>
</g>
</svg>
