<?xml version="1.0" encoding="utf-8"?>
<!-- Generator: Adobe Illustrator 15.0.0, SVG Export Plug-In . SVG Version: 6.00 Build 0)  -->
<!DOCTYPE svg PUBLIC "-//W3C//DTD SVG 1.0//EN" "http://www.w3.org/TR/2001/REC-SVG-20010904/DTD/svg10.dtd">
<svg version="1.0" id="Layer_1" xmlns="http://www.w3.org/2000/svg" xmlns:xlink="http://www.w3.org/1999/xlink" x="0px" y="0px"
	 width="220px" height="227px" viewBox="0 0 220 227" enable-background="new 0 0 220 227" xml:space="preserve">
<g>
	<rect x="103.683" y="95.048" fill="#434343" width="2.887" height="1.905"/>
	<circle fill="#434343" cx="107.599" cy="96.015" r="1.984"/>
	
		<rect x="104.422" y="90.246" transform="matrix(0.3315 -0.9434 0.9434 0.3315 -13.169 163.78)" fill="#434343" width="9.14" height="1.875"/>
	<g>
		<path fill="#434343" d="M104.708,81.896l-0.727,2.487c0,0-0.44,1.156,0.639,1.517c1.213,0.371,10.451,3.115,10.451,3.115
			l2.079-3.561L104.708,81.896z"/>
		<path fill="#434343" d="M121.042,84.395c0.159-0.061,3.521-1.781,3.521-1.781c-0.243-0.244-0.543-0.438-0.899-0.544l-16.92-4.956
			c-1.113-0.325-2.276,0.301-2.6,1.399l-0.522,1.79l14.195,4.157c0.021,0.006,0.315,0.095,0.762,0.154l-0.871,2.971l2.951,0.853
			l1.138-3.808C121.797,84.63,121.282,84.469,121.042,84.395L121.042,84.395z"/>
	</g>
	<g>
		<path fill="#434343" d="M103.178,94.921l-0.532-0.791c2.906-1.791,3.902-6.571,3.871-10.12L107.5,84
			C107.533,87.971,106.416,92.923,103.178,94.921z"/>
	</g>
	<path fill="#434343" d="M103.583,95.5c0,2.451-1.314,4.438-2.938,4.438v-8.875C102.269,91.062,103.583,93.048,103.583,95.5z"/>
</g>
</svg>
