<?xml version="1.0" encoding="utf-8"?>
<!-- Generator: Adobe Illustrator 15.0.0, SVG Export Plug-In . SVG Version: 6.00 Build 0)  -->
<!DOCTYPE svg PUBLIC "-//W3C//DTD SVG 1.0//EN" "http://www.w3.org/TR/2001/REC-SVG-20010904/DTD/svg10.dtd">
<svg version="1.0" id="Layer_1" xmlns="http://www.w3.org/2000/svg" xmlns:xlink="http://www.w3.org/1999/xlink" x="0px" y="0px"
	 width="220px" height="227px" viewBox="0 0 220 227" enable-background="new 0 0 220 227" xml:space="preserve">
<path fill="#434343" d="M109.021,98.5c-4.961,0-8.979,2.925-8.979,2.925l0.008,9.106c0,7.52,8.972,11.865,8.972,11.865
	s8.979-4.097,8.979-11.89s0.001-9.084,0.001-9.084S113.979,98.5,109.021,98.5z M114.309,109.648c0,0.523-0.472,0.949-1.054,0.949
	h-3.158v3.146c0,0.578-0.427,1.049-0.955,1.049h-0.238c-0.528,0-0.955-0.471-0.955-1.049v-3.146h-3.158
	c-0.582,0-1.054-0.426-1.054-0.949v-0.239c0-0.525,0.472-0.951,1.054-0.951h3.158v-3.146c0-0.578,0.427-1.049,0.955-1.049h0.238
	c0.528,0,0.955,0.471,0.955,1.049v3.146h3.158c0.582,0,1.054,0.426,1.054,0.951V109.648z"/>
</svg>
