<?xml version="1.0" encoding="utf-8"?>
<!-- Generator: Adobe Illustrator 15.0.0, SVG Export Plug-In . SVG Version: 6.00 Build 0)  -->
<!DOCTYPE svg PUBLIC "-//W3C//DTD SVG 1.0//EN" "http://www.w3.org/TR/2001/REC-SVG-20010904/DTD/svg10.dtd">
<svg version="1.0" id="Layer_1" xmlns="http://www.w3.org/2000/svg" xmlns:xlink="http://www.w3.org/1999/xlink" x="0px" y="0px"
	 width="220px" height="227px" viewBox="0 0 220 227" enable-background="new 0 0 220 227" xml:space="preserve">
<path fill="#434343" d="M120.096,95.812c0,0-0.781-0.375-1.312,1.938c-0.406,2.219-0.807,2.709-0.807,2.709h-0.934
	c0,0,0.01-1.02,0.01-1.781c0-0.761-0.425-3.221-1.479-5.025c-1.053-1.81-0.752-4.127,2.072-7.025c0.112-0.113,0.664-0.33,1.354,0.36
	c0.896,0.896,4.978,5.296,8.438,6.825c3.25,1.438,5.438-0.188,5.438-0.188s4.234,0.984,5.816,3.77c1.58,2.787-3.441,2.98-3.441,2.98
	s-6.25,0.375-7.758-0.946C127.268,99.126,121.312,95.562,120.096,95.812z"/>
</svg>
