<?xml version="1.0" encoding="utf-8"?>
<!-- Generator: Adobe Illustrator 15.0.0, SVG Export Plug-In . SVG Version: 6.00 Build 0)  -->
<!DOCTYPE svg PUBLIC "-//W3C//DTD SVG 1.0//EN" "http://www.w3.org/TR/2001/REC-SVG-20010904/DTD/svg10.dtd">
<svg version="1.0" id="Layer_1" xmlns="http://www.w3.org/2000/svg" xmlns:xlink="http://www.w3.org/1999/xlink" x="0px" y="0px"
	 width="220px" height="227px" viewBox="0 0 220 227" enable-background="new 0 0 220 227" xml:space="preserve">
<g>
	<path fill="#434343" d="M130.988,116.59c0-1.088-0.912-2.09-2.037-2.09h-2.725c0.475-0.531,0.772-1.227,0.772-1.998
		c0-1.655-1.336-2.996-2.979-2.996c-1.646,0-2.982,1.341-2.982,2.996c0,0.771,0.297,1.467,0.773,1.998h-2.59
		c-1.125,0-2.037,1.002-2.037,2.09l-3.017,14.813c0,1.09,0.912,1.972,2.039,1.972h15.758c1.125,0,2.037-0.882,2.037-1.972
		L130.988,116.59z M124.02,110.438c1.133,0,2.054,0.926,2.054,2.064s-0.921,2.064-2.054,2.064c-1.135,0-2.057-0.926-2.057-2.064
		S122.885,110.438,124.02,110.438z M123.047,122.505h-1.002v1.948h1.002v1.066h-1.064v-1.006h-0.939v1.006h-1.081v-6.108h1.081
		v3.031h0.939v-1.005h1.064V122.505z M124.984,128.547v-1.008h-1.023v-1.071h1.087v1.008l1.892-0.017l0.013-1.938h-1.968v-1.01
		h-1.022l0.009-2.048h1.008v-1.013l2.069,0.016v0.997h1v5.06h-1v1.021L124.984,128.547L124.984,128.547z M126.951,124.451
		l-0.004-1.92l-1.905,0.004l0.006,1.916H126.951z"/>
</g>
</svg>
