<?xml version="1.0" encoding="utf-8"?>
<!-- Generator: Adobe Illustrator 15.0.0, SVG Export Plug-In . SVG Version: 6.00 Build 0)  -->
<!DOCTYPE svg PUBLIC "-//W3C//DTD SVG 1.0//EN" "http://www.w3.org/TR/2001/REC-SVG-20010904/DTD/svg10.dtd">
<svg version="1.0" id="Layer_1" xmlns="http://www.w3.org/2000/svg" xmlns:xlink="http://www.w3.org/1999/xlink" x="0px" y="0px"
	 width="220px" height="227px" viewBox="0 0 220 227" enable-background="new 0 0 220 227" xml:space="preserve">
<path fill="#434343" d="M131.904,113.51c0-1.088-0.911-1.971-2.036-1.971h-2.654c0.476-0.531,0.772-1.227,0.772-1.998
	c0-1.655-1.336-2.996-2.98-2.996c-1.646,0-2.982,1.341-2.982,2.996c0,0.771,0.297,1.467,0.774,1.998h-2.661
	c-1.125,0-2.037,0.883-2.037,1.971l-3.016,14.977c0,1.09,0.912,1.972,2.039,1.972h15.759c1.125,0,2.037-0.882,2.037-1.972
	L131.904,113.51z M125.006,107.477c1.135,0,2.055,0.926,2.055,2.064s-0.92,2.064-2.055,2.064s-2.057-0.926-2.057-2.064
	S123.871,107.477,125.006,107.477z M126.055,121.58v3.959h-2.109v-3.938l-2.133-0.021l3.17-4.354l3.125,4.354H126.055z"/>
</svg>
