<?xml version="1.0" encoding="utf-8"?>
<!-- Generator: Adobe Illustrator 15.0.0, SVG Export Plug-In . SVG Version: 6.00 Build 0)  -->
<!DOCTYPE svg PUBLIC "-//W3C//DTD SVG 1.0//EN" "http://www.w3.org/TR/2001/REC-SVG-20010904/DTD/svg10.dtd">
<svg version="1.0" id="Layer_1" xmlns="http://www.w3.org/2000/svg" xmlns:xlink="http://www.w3.org/1999/xlink" x="0px" y="0px"
	 width="220px" height="227px" viewBox="0 0 220 227" enable-background="new 0 0 220 227" xml:space="preserve">
<g>
	<path fill="#434343" d="M99.548,114.928l-2.143,2.145l-2.918-2.918l2.143-2.145l-2.033-2.031l-3.377,3.377
		c-1.104,1.104-2.025,5.127-0.112,7.041c1.911,1.912,5.935,0.984,7.034-0.115l3.381-3.379L99.548,114.928z"/>
	<path fill="#434343" d="M113.13,101.674l-3.299-3.297c-0.635-0.637-1.695-0.611-2.363,0.057c-0.062,0.064-0.109,0.146-0.135,0.234
		c-0.824,3.297-0.807,4.447-0.67,4.9L96.071,114.16l1.326,1.326l10.619-10.619c0.506,0.113,1.707,0.084,4.82-0.693
		c0.088-0.021,0.17-0.066,0.234-0.133C113.741,103.373,113.765,102.312,113.13,101.674z M108.233,104.027l-0.703-0.703
		c-0.102-0.432,0.35-2.525,0.855-4.322c0.293-0.215,0.67-0.221,0.896,0.004l3.264,3.264c0.225,0.227,0.217,0.604,0.004,0.896
		C110.769,103.666,108.694,104.115,108.233,104.027z"/>
</g>
</svg>
