<?xml version="1.0" encoding="utf-8"?>
<!-- Generator: Adobe Illustrator 15.0.0, SVG Export Plug-In . SVG Version: 6.00 Build 0)  -->
<!DOCTYPE svg PUBLIC "-//W3C//DTD SVG 1.0//EN" "http://www.w3.org/TR/2001/REC-SVG-20010904/DTD/svg10.dtd">
<svg version="1.0" id="Layer_1" xmlns="http://www.w3.org/2000/svg" xmlns:xlink="http://www.w3.org/1999/xlink" x="0px" y="0px"
	 width="220px" height="227px" viewBox="0 0 220 227" enable-background="new 0 0 220 227" xml:space="preserve">
<g>
	<g>
		<path fill="#434343" d="M120.346,102.881h-7.736c-1.166,0-2.115-0.938-2.115-2.097V93.04c0-1.155,0.949-2.097,2.115-2.097h7.736
			c1.166,0,2.115,0.939,2.115,2.097v7.744C122.461,101.94,121.512,102.881,120.346,102.881z M112.567,92.902
			c-0.063,0-0.116,0.044-0.116,0.098v7.824c0,0.055,0.053,0.098,0.116,0.098h7.816c0.063,0,0.116-0.043,0.116-0.098V93
			c0-0.054-0.053-0.098-0.116-0.098H112.567z"/>
	</g>
	<rect x="115.555" y="102.787" fill="#434343" width="1.875" height="10.031"/>
	<g>
		<polygon fill="#434343" points="117.461,94.912 117.461,93.943 114.492,93.943 114.492,99.912 115.492,99.912 115.492,97.896 
			117.461,97.896 117.461,96.928 115.492,96.928 115.492,94.912 		"/>
		<rect x="117.523" y="94.912" fill="#434343" width="0.938" height="1.969"/>
	</g>
	<path fill="#434343" d="M121.492,114.871h-10c0-1.15,2.238-2.084,5-2.084C119.253,112.787,121.492,113.721,121.492,114.871z"/>
</g>
</svg>
