<?xml version="1.0" encoding="utf-8"?>
<!-- Generator: Adobe Illustrator 15.0.0, SVG Export Plug-In . SVG Version: 6.00 Build 0)  -->
<!DOCTYPE svg PUBLIC "-//W3C//DTD SVG 1.0//EN" "http://www.w3.org/TR/2001/REC-SVG-20010904/DTD/svg10.dtd">
<svg version="1.0" id="Layer_1" xmlns="http://www.w3.org/2000/svg" xmlns:xlink="http://www.w3.org/1999/xlink" x="0px" y="0px"
	 width="220px" height="227px" viewBox="0 0 220 227" enable-background="new 0 0 220 227" xml:space="preserve">
<g>
	<path fill="#434343" d="M155.084,109.557c0-0.584,0.654-1.057,1.457-1.057l0,0c0.806,0,1.459,0.473,1.459,1.057v15.721
		c0,0.584-0.653,1.057-1.459,1.057l0,0c-0.803,0-1.457-0.473-1.457-1.057V109.557z"/>
	<path fill="#434343" d="M150.084,112.557c0-0.584,0.654-1.057,1.457-1.057l0,0c0.806,0,1.459,0.473,1.459,1.057v12.721
		c0,0.584-0.653,1.057-1.459,1.057l0,0c-0.803,0-1.457-0.473-1.457-1.057V112.557z"/>
	<path fill="#434343" d="M145.084,115.557c0-0.584,0.654-1.057,1.457-1.057l0,0c0.806,0,1.459,0.473,1.459,1.057v9.721
		c0,0.584-0.653,1.057-1.459,1.057l0,0c-0.803,0-1.457-0.473-1.457-1.057V115.557z"/>
	<path fill="#434343" d="M140.084,118.557c0-0.584,0.654-1.057,1.457-1.057l0,0c0.806,0,1.459,0.473,1.459,1.057v6.721
		c0,0.584-0.653,1.057-1.459,1.057l0,0c-0.803,0-1.457-0.473-1.457-1.057V118.557z"/>
	<path fill="#434343" d="M135.084,121.557c0-0.584,0.654-1.057,1.457-1.057l0,0c0.806,0,1.459,0.473,1.459,1.057v3.721
		c0,0.584-0.653,1.057-1.459,1.057l0,0c-0.803,0-1.457-0.473-1.457-1.057V121.557z"/>
</g>
</svg>
