<?xml version="1.0" encoding="utf-8"?>
<!-- Generator: Adobe Illustrator 15.0.0, SVG Export Plug-In . SVG Version: 6.00 Build 0)  -->
<!DOCTYPE svg PUBLIC "-//W3C//DTD SVG 1.0//EN" "http://www.w3.org/TR/2001/REC-SVG-20010904/DTD/svg10.dtd">
<svg version="1.0" id="Layer_1" xmlns="http://www.w3.org/2000/svg" xmlns:xlink="http://www.w3.org/1999/xlink" x="0px" y="0px"
	 width="220px" height="227px" viewBox="0 0 220 227" enable-background="new 0 0 220 227" xml:space="preserve">
<g>
	<path fill="#434343" d="M131.958,121.109c0,0.769-0.656,1.392-1.468,1.392l0,0c-0.812,0-1.469-0.623-1.469-1.392V99.976
		c0-0.77,0.654-1.393,1.469-1.393l0,0c0.812,0,1.468,0.623,1.468,1.393V121.109z"/>
	<path fill="#434343" d="M148.544,101.605c0.771,0,1.394,0.646,1.394,1.446l0,0c0,0.802-0.621,1.447-1.394,1.447h-21.15
		c-0.771,0-1.394-0.646-1.394-1.447l0,0c0-0.8,0.623-1.446,1.394-1.446H148.544z"/>
	<path fill="#434343" d="M145.997,106.585h0.065v2.021h-3.104v-2.021h-4.916v2.021h-3.125v-2.021h0.065
		c-1.124,0-1.92,0.909-1.92,2.03v5.836c0,1.12,0.909,2.029,2.033,2.029h10.807c1.124,0,2.033-0.909,2.033-2.029v-5.836
		C147.938,107.494,147.121,106.585,145.997,106.585z"/>
	<g>
		<rect x="136.032" y="103.585" fill="#434343" width="0.936" height="3.916"/>
		<rect x="144.032" y="103.585" fill="#434343" width="0.936" height="3.916"/>
	</g>
</g>
</svg>
