<?xml version="1.0" encoding="utf-8"?>
<!-- Generator: Adobe Illustrator 15.0.0, SVG Export Plug-In . SVG Version: 6.00 Build 0)  -->
<!DOCTYPE svg PUBLIC "-//W3C//DTD SVG 1.0//EN" "http://www.w3.org/TR/2001/REC-SVG-20010904/DTD/svg10.dtd">
<svg version="1.0" id="Layer_1" xmlns="http://www.w3.org/2000/svg" xmlns:xlink="http://www.w3.org/1999/xlink" x="0px" y="0px"
	 width="220px" height="227px" viewBox="0 0 220 227" enable-background="new 0 0 220 227" xml:space="preserve">
<g>
	<g>
		<polygon fill="#434343" points="112.542,110.098 115.336,114.477 113.325,114.963 110.529,110.585 		"/>
		<polygon fill="#434343" points="107.515,111.312 110.31,115.691 108.298,116.178 105.503,111.799 		"/>
		<polygon fill="#434343" points="123.163,107.531 124.316,112.306 123.378,112.532 120.584,108.154 		"/>
		<polygon fill="#434343" points="117.568,108.884 120.363,113.262 118.352,113.748 115.557,109.369 		"/>
		<polygon fill="#434343" points="101.297,112.816 102.488,112.529 105.283,116.906 102.451,117.591 		"/>
		
			<rect x="100.816" y="108.929" transform="matrix(-0.972 0.235 -0.235 -0.972 246.7259 189.6465)" fill="#434343" width="22.496" height="1.188"/>
		
			<rect x="102.091" y="113.828" transform="matrix(-0.972 0.2349 -0.2349 -0.972 250.383 199.0193)" fill="#434343" width="22.496" height="1.189"/>
		<g>
			<path fill="#434343" d="M102.084,117.625H125V129.5h-22.916V117.625z M123.167,119.418h-19.25v8.291h19.25V119.418z"/>
		</g>
	</g>
	<polygon fill="#434343" points="113.031,120.625 116.958,123.625 113.031,126.584 	"/>
</g>
</svg>
