<?xml version="1.0" encoding="utf-8"?>
<!-- Generator: Adobe Illustrator 15.0.0, SVG Export Plug-In . SVG Version: 6.00 Build 0)  -->
<!DOCTYPE svg PUBLIC "-//W3C//DTD SVG 1.0//EN" "http://www.w3.org/TR/2001/REC-SVG-20010904/DTD/svg10.dtd">
<svg version="1.0" id="Layer_1" xmlns="http://www.w3.org/2000/svg" xmlns:xlink="http://www.w3.org/1999/xlink" x="0px" y="0px"
	 width="220px" height="227px" viewBox="0 0 220 227" enable-background="new 0 0 220 227" xml:space="preserve">
<g>
	<g>
		<path fill="#434343" d="M97.518,109.5H86.67c-0.589,0-1.121-0.35-1.358-0.893c-0.236-0.542-0.133-1.176,0.265-1.611l8.662-9.508
			h-7.63c-0.819,0-1.546-0.607-1.546-1.434s0.664-1.494,1.483-1.494h11.002c0.588,0,1.122,0.352,1.357,0.895
			c0.236,0.542,0.134,1.174-0.264,1.611l-8.6,9.525h7.476c0.818,0,1.482,0.588,1.482,1.412C99,108.832,98.336,109.5,97.518,109.5z"
			/>
	</g>
	<g>
		<path fill="#434343" d="M107.938,102.5h-8.875c-0.395,0-0.752-0.231-0.913-0.592c-0.161-0.359-0.096-0.781,0.167-1.074
			l7.448-8.334h-6.702c-0.553,0-1-0.447-1-1s0.502-0.945,1.055-0.945h8.938c0.395,0,0.697,0.179,0.858,0.537
			c0.161,0.359,0.096,0.781-0.167,1.074l-7.448,8.428h6.64c0.553,0,1,0.354,1,0.906S108.49,102.5,107.938,102.5z"/>
	</g>
</g>
</svg>
