<?xml version="1.0" encoding="utf-8"?>
<!-- Generator: Adobe Illustrator 15.0.0, SVG Export Plug-In . SVG Version: 6.00 Build 0)  -->
<!DOCTYPE svg PUBLIC "-//W3C//DTD SVG 1.0//EN" "http://www.w3.org/TR/2001/REC-SVG-20010904/DTD/svg10.dtd">
<svg version="1.0" id="Layer_1" xmlns="http://www.w3.org/2000/svg" xmlns:xlink="http://www.w3.org/1999/xlink" x="0px" y="0px"
	 width="220px" height="227px" viewBox="0 0 220 227" enable-background="new 0 0 220 227" xml:space="preserve">
<g>
	<path fill="#434343" d="M101.918,84.668C95.336,84.668,90,90.002,90,96.584s5.336,11.916,11.918,11.916
		c6.58,0,11.916-5.334,11.916-11.916S108.498,84.668,101.918,84.668z M105.896,89.255c0.861,0,1.562,1.027,1.562,2.294
		c0,1.268-0.699,2.295-1.562,2.295c-0.861,0-1.562-1.025-1.562-2.295C104.334,90.282,105.035,89.255,105.896,89.255z M97.896,89.255
		c0.861,0,1.562,1.027,1.562,2.294c0,1.268-0.699,2.295-1.562,2.295c-0.861,0-1.562-1.025-1.562-2.295
		C96.334,90.282,97.035,89.255,97.896,89.255z M101.904,105.27c-4.523,0-8.188-3.291-8.188-6.117s16.377-2.826,16.377,0
		C110.094,101.979,106.426,105.27,101.904,105.27z"/>
</g>
</svg>
