<?xml version="1.0" encoding="utf-8"?>
<!-- Generator: Adobe Illustrator 15.0.0, SVG Export Plug-In . SVG Version: 6.00 Build 0)  -->
<!DOCTYPE svg PUBLIC "-//W3C//DTD SVG 1.0//EN" "http://www.w3.org/TR/2001/REC-SVG-20010904/DTD/svg10.dtd">
<svg version="1.0" id="Layer_1" xmlns="http://www.w3.org/2000/svg" xmlns:xlink="http://www.w3.org/1999/xlink" x="0px" y="0px"
	 width="220px" height="227px" viewBox="0 0 220 227" enable-background="new 0 0 220 227" xml:space="preserve">
<path fill="#434343" d="M123.384,90.465l-2.412-1.201l0.782-1.492l-0.868-0.453l-0.791,1.51l-1.809-0.9l0.81-1.547l-0.528-0.275
	l0.538-0.264l-0.915-1.887l1.811-0.9l0.924,1.906l0.881-0.428l-0.928-1.914l2.449-1.221c0.498-0.246,0.697-0.85,0.451-1.344
	c-0.249-0.492-0.854-0.691-1.352-0.443l-2.424,1.205l-0.788-1.625l-0.882,0.426l0.793,1.637l-1.81,0.9l-0.804-1.654l-0.881,0.426
	l0.808,1.664l-1.614,0.807l-1.869-1.146l0.006-1.76h1.977v-0.979h-1.974l0.007-2.021h1.967v-0.979h-1.964l0.006-1.939
	c0.002-0.552-0.421-1-0.94-1.002h-0.003c-0.521,0-0.944,0.444-0.945,0.996l-0.006,1.946h-2.083v0.979h2.08l-0.007,2.021h-2.073
	v0.979h2.07l-0.006,1.735l-1.908,1.157l-1.616-0.805l0.924-1.766l-0.867-0.453l-0.934,1.779l-1.812-0.898l0.952-1.818l-0.867-0.453
	l-0.962,1.836l-2.46-1.225c-0.494-0.248-1.1-0.049-1.35,0.447c-0.247,0.492-0.047,1.094,0.45,1.34l2.432,1.211l-0.864,1.65
	l0.867,0.453l0.873-1.668l1.812,0.9l-0.894,1.703l0.529,0.277l-0.538,0.262l0.862,1.779l-1.812,0.898l-0.871-1.799l-0.881,0.428
	l0.876,1.809l-2.336,1.162c-0.498,0.248-0.698,0.848-0.45,1.342c0.179,0.352,0.531,0.553,0.9,0.553c0.15,0,0.305-0.033,0.448-0.104
	l2.31-1.15l0.841,1.734l0.881-0.428l-0.845-1.742l1.812-0.9l0.854,1.762l0.881-0.426l-0.857-1.773l1.636-0.812l1.96,1.229
	l-0.006,1.797h-2.035v0.979h2.032l-0.008,2.021h-2.024v0.979h2.021l-0.004,0.979c-0.002,0.552,0.421,1,0.942,1.002h0.003
	c0.521,0,0.943-0.444,0.945-0.995l0.003-0.984h2.022v-0.979h-2.021l0.007-2.021h2.016v-0.979h-2.013l0.006-1.776l1.999-1.238
	l1.551,0.771l-1.007,1.922l0.866,0.453l1.016-1.938l1.812,0.9l-1.034,1.975L119,93.037l1.043-1.992l2.439,1.215
	c0.146,0.072,0.299,0.105,0.447,0.105c0.369,0,0.726-0.201,0.901-0.553C124.081,91.312,123.88,90.711,123.384,90.465z M105.8,85.904
	l0.812-1.553l1.5,0.744l0.001,1.639l-1.54,0.766L105.8,85.904z M115.882,86.73l0.001-1.631l1.433-0.713l0.824,1.705l-0.729,1.396
	L115.882,86.73z"/>
</svg>
