<?xml version="1.0" encoding="utf-8"?>
<!-- Generator: Adobe Illustrator 15.0.0, SVG Export Plug-In . SVG Version: 6.00 Build 0)  -->
<!DOCTYPE svg PUBLIC "-//W3C//DTD SVG 1.0//EN" "http://www.w3.org/TR/2001/REC-SVG-20010904/DTD/svg10.dtd">
<svg version="1.0" id="Layer_1" xmlns="http://www.w3.org/2000/svg" xmlns:xlink="http://www.w3.org/1999/xlink" x="0px" y="0px"
	 width="220px" height="227px" viewBox="0 0 220 227" enable-background="new 0 0 220 227" xml:space="preserve">
<g>
	<g>
		<path fill="#434343" d="M116.819,110.567c-1.388,0-2.64-0.677-3.19-1.72c-0.188-0.355-0.019-0.78,0.386-0.947
			c0.4-0.168,0.88-0.017,1.069,0.344c0.288,0.545,0.969,0.896,1.735,0.896c1.034,0,1.871-0.643,1.871-1.429
			c0-0.789-0.837-1.432-1.871-1.432c-1.925,0-3.479-1.277-3.479-2.852c0-1.568,1.554-2.85,3.464-2.85
			c1.38,0,2.625,0.671,3.176,1.707c0.188,0.357,0.02,0.781-0.385,0.95c-0.396,0.169-0.877,0.016-1.067-0.341
			c-0.287-0.54-0.964-0.893-1.724-0.893c-1.023,0-1.855,0.643-1.855,1.424c0,0.785,0.831,1.426,1.855,1.426
			c1.931,0,3.493,1.279,3.493,2.855S118.735,110.567,116.819,110.567z"/>
	</g>
	<g>
		<path fill="#434343" d="M133.795,110.525c-1.377,0-2.62-0.672-3.171-1.711c-0.186-0.355-0.017-0.778,0.385-0.945
			c0.398-0.165,0.872-0.014,1.062,0.342c0.281,0.543,0.962,0.896,1.724,0.896c1.026,0,1.86-0.642,1.86-1.427
			c0-0.782-0.834-1.424-1.86-1.424c-1.912,0-3.453-1.271-3.453-2.838c0-1.562,1.541-2.838,3.439-2.838c1.367,0,2.605,0.668,3.15,1.7
			c0.189,0.354,0.021,0.776-0.38,0.945c-0.396,0.168-0.875,0.017-1.062-0.341c-0.284-0.538-0.954-0.887-1.712-0.887
			c-1.018,0-1.844,0.638-1.844,1.418c0,0.782,0.826,1.418,1.844,1.418c1.922,0,3.471,1.275,3.471,2.844
			C137.25,109.25,135.701,110.525,133.795,110.525z"/>
	</g>
	<g>
		<path fill="#434343" d="M125.398,110.561h-0.115c-1.587,0-3.862-1.154-3.862-2.578v-4.818c0-1.422,2.275-2.58,3.862-2.58h0.115
			c1.589,0,3.864,1.158,3.864,2.58v4.818C129.263,109.404,126.987,110.561,125.398,110.561z M125.283,102.373
			c-0.587,0-2.083,0.354-2.083,0.791V108c0,0.438,1.496,0.791,2.083,0.791h0.132c0.59,0,2.085-0.354,2.085-0.791v-4.836
			c0-0.438-1.495-0.791-2.085-0.791H125.283z"/>
	</g>
</g>
</svg>
