<?xml version="1.0" encoding="utf-8"?>
<!-- Generator: Adobe Illustrator 15.0.0, SVG Export Plug-In . SVG Version: 6.00 Build 0)  -->
<!DOCTYPE svg PUBLIC "-//W3C//DTD SVG 1.0//EN" "http://www.w3.org/TR/2001/REC-SVG-20010904/DTD/svg10.dtd">
<svg version="1.0" id="Layer_1" xmlns="http://www.w3.org/2000/svg" xmlns:xlink="http://www.w3.org/1999/xlink" x="0px" y="0px"
	 width="220px" height="227px" viewBox="0 0 220 227" enable-background="new 0 0 220 227" xml:space="preserve">
<g>
	<g>
		<polygon fill="#434343" points="96.023,135.454 94.751,133.855 115.213,117.626 116.484,119.227 		"/>
	</g>
	<path fill="#434343" d="M99.502,120.66h-2.723c-2.617,0-3.156,1.252-3.156,4.027v1.678c0,2.775,0.539,4.025,3.156,4.025h0.576
		l2.146-1.705L99.502,120.66L99.502,120.66z"/>
	<path fill="#434343" d="M112.375,114.898c0-0.762-0.727-1.382-1.622-1.382l-8.379,5.527c-0.896,0-1.622,0.619-1.622,1.383v7.016
		l11.623-9.172V114.898z"/>
	<path fill="#434343" d="M102.488,131.871c0.088,0.014,0.176,0.023,0.269,0.023l8.163,5.474c0.872,0,1.58-0.61,1.58-1.368v-12.16
		L102.488,131.871z"/>
</g>
</svg>
