<?xml version="1.0" encoding="utf-8"?>
<!-- Generator: Adobe Illustrator 15.0.0, SVG Export Plug-In . SVG Version: 6.00 Build 0)  -->
<!DOCTYPE svg PUBLIC "-//W3C//DTD SVG 1.0//EN" "http://www.w3.org/TR/2001/REC-SVG-20010904/DTD/svg10.dtd">
<svg version="1.0" id="Layer_1" xmlns="http://www.w3.org/2000/svg" xmlns:xlink="http://www.w3.org/1999/xlink" x="0px" y="0px"
	 width="220px" height="227px" viewBox="0 0 220 227" enable-background="new 0 0 220 227" xml:space="preserve">
<g>
	<path fill="#434343" d="M116.156,108.334L116.156,108.334c-2.617,0-3.156-1.254-3.156-4.035v-1.68c0-2.781,0.539-4.035,3.156-4.035
		l0,0h2.723v9.75H116.156L116.156,108.334z"/>
	<path fill="#434343" d="M131.877,114.094c0,0.777-0.734,1.406-1.64,1.406l-8.471-5.626c-0.904,0-1.64-0.63-1.64-1.407V98.68
		c0-0.773,0.733-1.404,1.64-1.404l8.471-5.627c0.903,0,1.64,0.631,1.64,1.405V114.094z"/>
</g>
</svg>
