<?xml version="1.0" encoding="utf-8"?>
<!-- Generator: Adobe Illustrator 15.0.0, SVG Export Plug-In . SVG Version: 6.00 Build 0)  -->
<!DOCTYPE svg PUBLIC "-//W3C//DTD SVG 1.0//EN" "http://www.w3.org/TR/2001/REC-SVG-20010904/DTD/svg10.dtd">
<svg version="1.0" id="Layer_1" xmlns="http://www.w3.org/2000/svg" xmlns:xlink="http://www.w3.org/1999/xlink" x="0px" y="0px"
	 width="220px" height="227px" viewBox="0 0 220 227" enable-background="new 0 0 220 227" xml:space="preserve">
<path fill="#434343" d="M109.668,123.191l8.764-8.766c1.74,0.899,3.812,0.732,5.142-0.597c1.022-1.025,1.37-2.495,1.062-3.913
	l-2.26,2.254l-2.012,0.395l-2.437-2.41l0.419-2.073l2.238-2.21c-1.417-0.311-2.889,0.034-3.913,1.059
	c-1.329,1.329-1.496,3.398-0.597,5.143l-8.766,8.764c-1.739-0.898-3.812-0.73-5.141,0.598c-1.021,1.024-1.369,2.493-1.061,3.912
	l2.258-2.254l2.012-0.393l2.438,2.41l-0.423,2.072l-2.237,2.209c1.418,0.311,2.889-0.032,3.914-1.059
	C110.398,127.003,110.566,124.933,109.668,123.191z"/>
</svg>
