<?xml version="1.0" encoding="utf-8"?>
<!-- Generator: Adobe Illustrator 15.0.0, SVG Export Plug-In . SVG Version: 6.00 Build 0)  -->
<!DOCTYPE svg PUBLIC "-//W3C//DTD SVG 1.0//EN" "http://www.w3.org/TR/2001/REC-SVG-20010904/DTD/svg10.dtd">
<svg version="1.0" id="Layer_1" xmlns="http://www.w3.org/2000/svg" xmlns:xlink="http://www.w3.org/1999/xlink" x="0px" y="0px"
	 width="220px" height="227px" viewBox="0 0 220 227" enable-background="new 0 0 220 227" xml:space="preserve">
<rect x="130.875" y="109.5" fill="none" width="1.167" height="13.083"/>
<path fill="#434343" d="M122,122.45c0,0.556,0.447,1.008,1,1.008h9c0.553,0,1-0.452,1-1.008v-13.888h-11V122.45z M130.875,109.5
	h1.167v13.083h-1.167V109.5z"/>
<path fill="#434343" d="M129.958,105.737c0-0.591-0.455-1.07-1.016-1.07H128v-1.209h0.958v-2.916h-2.917v2.916H127v1.209h-0.941
	c-0.561,0-1.017,0.479-1.017,1.07c0,0-1.239,0.9-2.136,1.7h9.188C131.197,106.64,129.958,105.737,129.958,105.737z"/>
</svg>
