<?xml version="1.0" encoding="utf-8"?>
<!-- Generator: Adobe Illustrator 15.0.0, SVG Export Plug-In . SVG Version: 6.00 Build 0)  -->
<!DOCTYPE svg PUBLIC "-//W3C//DTD SVG 1.0//EN" "http://www.w3.org/TR/2001/REC-SVG-20010904/DTD/svg10.dtd">
<svg version="1.0" id="Layer_1" xmlns="http://www.w3.org/2000/svg" xmlns:xlink="http://www.w3.org/1999/xlink" x="0px" y="0px"
	 width="220px" height="227px" viewBox="0 0 220 227" enable-background="new 0 0 220 227" xml:space="preserve">
<g>
	<path fill="#434343" d="M109.682,94.771c0,1.188-0.976,2.148-2.182,2.148h-6.639c-1.204,0-2.181-0.962-2.181-2.148v-6.534
		c0-1.188,0.977-2.148,2.181-2.148h6.639c1.206,0,2.182,0.962,2.182,2.148V94.771z"/>
	<path fill="#434343" d="M109.682,107.82c0,1.205-0.976,2.182-2.182,2.182h-6.639c-1.204,0-2.181-0.977-2.181-2.182v-6.639
		c0-1.205,0.977-2.182,2.181-2.182h6.639c1.206,0,2.182,0.977,2.182,2.182V107.82z"/>
	<path fill="#434343" d="M122.682,94.771c0,1.188-0.976,2.148-2.182,2.148h-6.639c-1.204,0-2.181-0.962-2.181-2.148v-6.534
		c0-1.188,0.977-2.148,2.181-2.148h6.639c1.206,0,2.182,0.962,2.182,2.148V94.771z"/>
	<path fill="#434343" d="M122.682,107.82c0,1.205-0.976,2.182-2.182,2.182h-6.639c-1.204,0-2.181-0.977-2.181-2.182v-6.639
		c0-1.205,0.977-2.182,2.181-2.182h6.639c1.206,0,2.182,0.977,2.182,2.182V107.82z"/>
</g>
</svg>
