<?xml version="1.0" encoding="utf-8"?>
<!-- Generator: Adobe Illustrator 15.0.0, SVG Export Plug-In . SVG Version: 6.00 Build 0)  -->
<!DOCTYPE svg PUBLIC "-//W3C//DTD SVG 1.0//EN" "http://www.w3.org/TR/2001/REC-SVG-20010904/DTD/svg10.dtd">
<svg version="1.0" id="Layer_1" xmlns="http://www.w3.org/2000/svg" xmlns:xlink="http://www.w3.org/1999/xlink" x="0px" y="0px"
	 width="220px" height="227px" viewBox="0 0 220 227" enable-background="new 0 0 220 227" xml:space="preserve">
<g>
	<g>
		<polygon fill="#434343" points="131,109.418 130.004,109.418 130.004,86.251 107.938,86.355 107.938,109.418 107.084,109.418 
			107.084,85.5 131,85.5 		"/>
	</g>
	<g>
		<path fill="#434343" d="M111.001,102.48c8.562-3.25,6.832-14.979,6.832-14.979h-1.821c0.756,6.358-0.783,10.612-3.998,12.928
			c0.266-0.369,3.284-2.366,2.916-12.928h-1.846c-0.036,1.448,0.895,10.444-3.163,13.965c0,0,2.25-3.237,1.933-13.965h-2.811v21.875
			h2.95c-0.04-3.048-0.976-5.206-2.008-5.942c0,0,3.022,0.041,3.095,5.942h1.711C114.791,109.376,113.453,103.15,111.001,102.48z"/>
	</g>
	<g>
		<path fill="#434343" d="M126.977,102.475c-8.562-3.213-6.832-14.809-6.832-14.809h1.821c-0.755,6.287,0.784,10.492,3.999,12.781
			c-0.266-0.365-3.285-2.34-2.916-12.781h1.846c0.035,1.434-0.895,10.326,3.162,13.807c0,0-2.25-3.198-1.933-13.807h2.812v21.627
			h-2.951c0.041-3.014,0.977-5.146,2.009-5.875c0,0-3.022,0.041-3.095,5.875h-1.711
			C123.188,109.293,124.523,103.139,126.977,102.475z"/>
	</g>
</g>
</svg>
