<?xml version="1.0" encoding="utf-8"?>
<!-- Generator: Adobe Illustrator 15.0.0, SVG Export Plug-In . SVG Version: 6.00 Build 0)  -->
<!DOCTYPE svg PUBLIC "-//W3C//DTD SVG 1.0//EN" "http://www.w3.org/TR/2001/REC-SVG-20010904/DTD/svg10.dtd">
<svg version="1.0" id="Layer_1" xmlns="http://www.w3.org/2000/svg" xmlns:xlink="http://www.w3.org/1999/xlink" x="0px" y="0px"
	 width="220px" height="227px" viewBox="0 0 220 227" enable-background="new 0 0 220 227" xml:space="preserve">
<path fill="#434343" d="M117.012,79.5c-4.414,0-7.988,3.768-7.988,8.416c0,2.375,7.988,15.416,7.988,15.416S125,90.416,125,87.916
	C125,83.268,121.424,79.5,117.012,79.5z M117.057,91.658c0,0-4.199-1.803-4.199-5.31c0-1.214,0.951-2.196,2.127-2.196
	c1.008,0,1.85,0.727,2.066,1.697c0.211-0.972,1.049-1.697,2.057-1.697c1.16,0,2.104,0.974,2.104,2.176
	C121.209,89.9,117.057,91.658,117.057,91.658z"/>
</svg>
