<?xml version="1.0" encoding="utf-8"?>
<!-- Generator: Adobe Illustrator 15.0.0, SVG Export Plug-In . SVG Version: 6.00 Build 0)  -->
<!DOCTYPE svg PUBLIC "-//W3C//DTD SVG 1.0//EN" "http://www.w3.org/TR/2001/REC-SVG-20010904/DTD/svg10.dtd">
<svg version="1.0" id="Layer_1" xmlns="http://www.w3.org/2000/svg" xmlns:xlink="http://www.w3.org/1999/xlink" x="0px" y="0px"
	 width="220px" height="227px" viewBox="0 0 220 227" enable-background="new 0 0 220 227" xml:space="preserve">
<path fill="#434343" d="M110.465,97.99c-4.414,0-7.99,3.768-7.99,8.416c0,2.375,7.99,15.416,7.99,15.416s7.986-12.916,7.986-15.416
	C118.453,101.758,114.877,97.99,110.465,97.99z M113.43,107.045h-1.783v1.772c0,0.651-0.516,1.183-1.146,1.183
	c-0.637,0-1.148-0.529-1.148-1.183v-1.772h-1.787c-0.65,0-1.182-0.521-1.182-1.16c0-0.641,0.527-1.16,1.182-1.16h1.787v-1.771
	c0-0.65,0.514-1.183,1.148-1.183c0.633,0,1.146,0.528,1.146,1.183v1.771h1.783c0.652,0,1.184,0.521,1.184,1.16
	S114.082,107.045,113.43,107.045z"/>
</svg>
