<?xml version="1.0" encoding="utf-8"?>
<!-- Generator: Adobe Illustrator 15.0.0, SVG Export Plug-In . SVG Version: 6.00 Build 0)  -->
<!DOCTYPE svg PUBLIC "-//W3C//DTD SVG 1.0//EN" "http://www.w3.org/TR/2001/REC-SVG-20010904/DTD/svg10.dtd">
<svg version="1.0" id="Layer_1" xmlns="http://www.w3.org/2000/svg" xmlns:xlink="http://www.w3.org/1999/xlink" x="0px" y="0px"
	 width="220px" height="227px" viewBox="0 0 220 227" enable-background="new 0 0 220 227" xml:space="preserve">
<g>
	<path fill="#434343" d="M121.058,92.625c0.087-0.23,0.906-1.141,0.906-1.75s-0.344-1.375-1.406-1.375
		c-1.062,0-1.529,0.766-1.529,1.422c0,0.594,0.818,1.454,0.904,1.672c-11.347,0-8.487,8.878-8.487,8.878s3.175-5.821,6.004-6.354
		c-0.003,0.144-0.011,0.286-0.011,0.431c0,4.104,3.117,7.428,3.117,7.428s2.829-3.324,2.829-7.428c0-0.152-0.005-0.305-0.008-0.457
		c3.162,0.496,6.1,6.457,6.1,6.457S132.535,92.625,121.058,92.625z"/>
	<path fill="#434343" d="M124.953,97.912c0,3.588-4.416,6.771-4.416,6.771s-4.5-3.215-4.5-6.847
		c-1.856,1.421-3.137,4.25-4.027,5.382c0,0,3.579,10.281,8.519,10.281c4.938,0,8.469-10.094,8.469-10.094
		C128.286,102.505,126.946,99.48,124.953,97.912z M125.964,102.5v-1.031h1.062v1.031H125.964z M126.026,103.469v1.031h-1.062v-1.031
		H126.026z M124.964,99.469h1.062v1.031h-1.062V99.469z M123.964,101.469h1.062v1.031h-1.062V101.469z M122.964,103.469h1.062v1.031
		h-1.062V103.469z M121.964,105.469h1.062v1.031h-1.062V105.469z M122.026,107.469v1.031h-1.062v-1.031H122.026z M119.964,105.469
		h1.062v1.031h-1.062V105.469z M120.026,107.469v1.031h-1.062v-1.031H120.026z M119.026,105.469v1.031h-1.062v-1.031H119.026z
		 M118.026,104.5h-1.062v-1.031h1.062V104.5z M117.026,101.469v1.031h-1.062v-1.031H117.026z M114.964,104.5v-1.031h1.062v1.031
		H114.964z M114.964,99.469h1.062v1.031h-1.062V99.469z M113.964,101.469h1.062v1.031h-1.062V101.469z M112.964,103.469h1.062v1.031
		h-1.062V103.469z M116.026,108.5h-1.062v-1.031h1.062V108.5z M115.964,106.5v-1.031h1.062v1.031H115.964z M113.964,106.5v-1.031
		h1.062v1.031H113.964z M116.964,107.469h1.062v1.031h-1.062V107.469z M119.026,110.5h-1.062v-1.031h1.062V110.5z M117.026,110.5
		h-1.062v-1.031h1.062V110.5z M121.026,112.5h-1.062v-1.031h1.062V112.5z M119.026,112.5h-1.062v-1.031h1.062V112.5z M123.026,112.5
		h-1.062v-1.031h1.062V112.5z M121.026,110.5h-1.062v-1.031h1.062V110.5z M123.026,110.5h-1.062v-1.031h1.062V110.5z M125.026,110.5
		h-1.062v-1.031h1.062V110.5z M124.026,108.5h-1.062v-1.031h1.062V108.5z M123.964,106.5v-1.031h1.062v1.031H123.964z
		 M126.026,108.5h-1.062v-1.031h1.062V108.5z M127.026,106.5h-1.062v-1.031h1.062V106.5z M126.964,104.5v-1.031h1.062v1.031H126.964
		z"/>
</g>
</svg>
