<?xml version="1.0" encoding="utf-8"?>
<!-- Generator: Adobe Illustrator 15.0.0, SVG Export Plug-In . SVG Version: 6.00 Build 0)  -->
<!DOCTYPE svg PUBLIC "-//W3C//DTD SVG 1.0//EN" "http://www.w3.org/TR/2001/REC-SVG-20010904/DTD/svg10.dtd">
<svg version="1.0" id="Layer_1" xmlns="http://www.w3.org/2000/svg" xmlns:xlink="http://www.w3.org/1999/xlink" x="0px" y="0px"
	 width="220px" height="227px" viewBox="0 0 220 227" enable-background="new 0 0 220 227" xml:space="preserve">
<g>
	<path fill="#434343" d="M105.939,112.48c1.094,0,4.449-1.035,4.918-4.021c0.354-0.021,0.711-0.046,1.078-0.046
		c0.372,0,0.726,0.034,1.083,0.057c0.478,2.998,3.75,4.027,4.848,4.027c1.181,0,6.069-1.053,6.069-4.721
		c0-3.238-2.458-3.229-5.488-3.229c-2.59,0-4.756,0.156-5.334,2.084c-0.379-0.037-0.766-0.062-1.156-0.062
		c-0.41,0-0.809,0.035-1.202,0.074c-0.583-1.899-2.729-2.055-5.297-2.055c-3.015,0-5.458-0.053-5.458,3.211
		C100,111.447,104.765,112.48,105.939,112.48z"/>
	<g>
		<path fill="#434343" d="M101.5,106.51c-0.042,0-0.086-0.006-0.129-0.018c-0.268-0.07-0.426-0.345-0.354-0.611l3.146-4.039
			c0.021-0.08,0.062-0.152,0.12-0.215l3.792-1.961c0.188-0.2,0.505-0.21,0.706-0.02c0.201,0.188,0.21,0.506,0.021,0.707
			l-3.705,1.865l-3.111,3.918C101.924,106.362,101.722,106.51,101.5,106.51z"/>
	</g>
	<g>
		<path fill="#434343" d="M122.438,106.51c0.043,0,0.088-0.006,0.131-0.018c0.267-0.07,0.426-0.345,0.354-0.611l-3.146-4.039
			c-0.021-0.08-0.062-0.152-0.12-0.215l-3.792-1.961c-0.188-0.2-0.505-0.21-0.706-0.02c-0.201,0.188-0.21,0.506-0.021,0.707
			l3.705,1.865l3.112,3.918C122.014,106.362,122.216,106.51,122.438,106.51z"/>
	</g>
</g>
</svg>
