<?xml version="1.0" encoding="utf-8"?>
<!-- Generator: Adobe Illustrator 15.0.0, SVG Export Plug-In . SVG Version: 6.00 Build 0)  -->
<!DOCTYPE svg PUBLIC "-//W3C//DTD SVG 1.0//EN" "http://www.w3.org/TR/2001/REC-SVG-20010904/DTD/svg10.dtd">
<svg version="1.0" id="Layer_1" xmlns="http://www.w3.org/2000/svg" xmlns:xlink="http://www.w3.org/1999/xlink" x="0px" y="0px"
	 width="220px" height="227px" viewBox="0 0 220 227" enable-background="new 0 0 220 227" xml:space="preserve">
<g>
	<path fill="#434343" d="M102.01,118.596c-0.156-1.031-0.568-1.979-1.179-2.771l1.37-1.369l-1.23-1.23l-1.381,1.383
		c-0.796-0.588-1.737-0.984-2.762-1.137v-1.959h-1.74v1.949c-1.035,0.139-1.986,0.531-2.792,1.113l-1.349-1.35l-1.23,1.23
		l1.326,1.326c-0.625,0.805-1.05,1.764-1.209,2.812h-1.833v0.002H88v1.74h1.822c0.146,1.059,0.564,2.031,1.188,2.846l-1.295,1.293
		l1.231,1.23l1.305-1.307c0.812,0.602,1.782,1.006,2.836,1.146v1.877h1.74v-1.887c1.044-0.154,2.001-0.564,2.806-1.168l1.337,1.338
		l1.23-1.23l-1.337-1.338c0.604-0.805,1.013-1.762,1.154-2.803h1.896v-0.002h0.001v-1.74h-1.906L102.01,118.596L102.01,118.596z
		 M95.939,122.658c-1.765,0-3.191-1.428-3.191-3.191c0-1.762,1.429-3.191,3.191-3.191c1.764,0,3.19,1.432,3.19,3.191
		C99.132,121.23,97.703,122.658,95.939,122.658z"/>
	<path fill="#434343" d="M109.989,109.701l1.952-0.504l-0.452-1.75l-1.953,0.506c-0.21-0.432-0.472-0.844-0.826-1.203
		c-0.345-0.354-0.743-0.617-1.158-0.832l0.538-1.934l-1.741-0.484l-0.532,1.92c-0.97-0.076-1.954,0.141-2.805,0.684l-1.362-1.391
		l-1.289,1.266l1.354,1.381c-0.584,0.842-0.839,1.834-0.791,2.816l-1.861,0.48l0.45,1.748l1.859-0.479
		c0.21,0.436,0.474,0.852,0.831,1.213c0.364,0.373,0.786,0.65,1.228,0.869l-0.517,1.859l1.739,0.485l0.521-1.877
		c0.973,0.06,1.956-0.181,2.8-0.741l1.381,1.405l1.288-1.267l-1.39-1.416C109.803,111.629,110.039,110.66,109.989,109.701z
		 M105.48,111.926c-1.104,0-1.998-0.896-1.998-2c0-1.104,0.895-1.998,1.998-1.998c1.103,0,1.996,0.896,1.996,1.998
		C107.478,111.029,106.584,111.926,105.48,111.926z"/>
</g>
</svg>
