<?xml version="1.0" encoding="utf-8"?>
<!-- Generator: Adobe Illustrator 15.0.0, SVG Export Plug-In . SVG Version: 6.00 Build 0)  -->
<!DOCTYPE svg PUBLIC "-//W3C//DTD SVG 1.0//EN" "http://www.w3.org/TR/2001/REC-SVG-20010904/DTD/svg10.dtd">
<svg version="1.0" id="Layer_1" xmlns="http://www.w3.org/2000/svg" xmlns:xlink="http://www.w3.org/1999/xlink" x="0px" y="0px"
	 width="220px" height="227px" viewBox="0 0 220 227" enable-background="new 0 0 220 227" xml:space="preserve">
<g>
	<path fill="#434343" d="M122,89.541c-1.379,0-2.564-0.844-3.068-2.041c-0.309,0.018-0.607,0.051-0.906,0.102
		c0.574,1.643,2.139,2.828,3.977,2.828c1.84,0,3.402-1.186,3.979-2.828c-0.3-0.051-0.603-0.084-0.907-0.102
		C124.566,88.697,123.381,89.541,122,89.541z"/>
	<path fill="#434343" d="M127.375,87.5c-0.641,1.961-2.75,4.096-5.375,4.096s-4.712-2.135-5.354-4.096
		c-4.213,1.07-6.646,5.344-6.646,9.863v0.926h5.083v11.994h13.834V98.289H134v-0.926C134,92.844,131.588,88.57,127.375,87.5z"/>
	<rect x="110" y="99.617" fill="#434343" width="3.958" height="1.812"/>
	<rect x="130.083" y="99.617" fill="#434343" width="3.875" height="1.812"/>
</g>
</svg>
