<?xml version="1.0" encoding="utf-8"?>
<!-- Generator: Adobe Illustrator 15.0.0, SVG Export Plug-In . SVG Version: 6.00 Build 0)  -->
<!DOCTYPE svg PUBLIC "-//W3C//DTD SVG 1.0//EN" "http://www.w3.org/TR/2001/REC-SVG-20010904/DTD/svg10.dtd">
<svg version="1.0" id="Layer_1" xmlns="http://www.w3.org/2000/svg" xmlns:xlink="http://www.w3.org/1999/xlink" x="0px" y="0px"
	 width="220px" height="227px" viewBox="0 0 220 227" enable-background="new 0 0 220 227" xml:space="preserve">
<g>
	<path fill="#434343" d="M121.947,110.5c-6.599,0-11.947,4.003-11.947,8.941c0,4.508,4.462,8.226,10.258,8.842l-3.07,5.092
		l9.177-5.631c4.41-1.314,7.532-4.533,7.532-8.303C133.896,114.503,128.546,110.5,121.947,110.5z M122.04,122.518h-1.068v-1.941
		h-1.863v1.941h-1.171v-6.101h1.171v3.069h1.863v-3.069h1.068V122.518z M124.062,122.518h-1.107v-4.137h1.107V122.518z
		 M124.124,117.588h-1.17v-1.213h1.17V117.588z M127.124,122.562h-1.188v-1.102h1.188V122.562z M127.124,120.542h-1.188v-4.167
		h1.188V120.542z"/>
</g>
</svg>
