<?xml version="1.0" encoding="utf-8"?>
<!-- Generator: Adobe Illustrator 15.0.0, SVG Export Plug-In . SVG Version: 6.00 Build 0)  -->
<!DOCTYPE svg PUBLIC "-//W3C//DTD SVG 1.0//EN" "http://www.w3.org/TR/2001/REC-SVG-20010904/DTD/svg10.dtd">
<svg version="1.0" id="Layer_1" xmlns="http://www.w3.org/2000/svg" xmlns:xlink="http://www.w3.org/1999/xlink" x="0px" y="0px"
	 width="220px" height="227px" viewBox="0 0 220 227" enable-background="new 0 0 220 227" xml:space="preserve">
<g>
	<path fill="#434343" d="M112.417,101.07c0-3.904-4.231-7.07-9.449-7.07c-5.216,0-9.446,3.166-9.446,7.07
		c0,3.564,3.527,6.505,8.11,6.992l-1.944,3.877l6.771-4.303C109.946,106.598,112.417,104.051,112.417,101.07z"/>
	<path fill="#434343" d="M117.5,106.367c0-1.711-1.593-3.482-3.432-4.367c-0.517,2.969-2.886,5.701-6.62,6.771l-1.777,0.978
		c0.68,0.52,1.513,0.933,2.448,1.199l5.452,3l-1.953-2.703C114.941,110.904,117.5,108.854,117.5,106.367z"/>
</g>
</svg>
