<?xml version="1.0" encoding="utf-8"?>
<!-- Generator: Adobe Illustrator 15.0.0, SVG Export Plug-In . SVG Version: 6.00 Build 0)  -->
<!DOCTYPE svg PUBLIC "-//W3C//DTD SVG 1.0//EN" "http://www.w3.org/TR/2001/REC-SVG-20010904/DTD/svg10.dtd">
<svg version="1.0" id="Layer_1" xmlns="http://www.w3.org/2000/svg" xmlns:xlink="http://www.w3.org/1999/xlink" x="0px" y="0px"
	 width="220px" height="227px" viewBox="0 0 220 227" enable-background="new 0 0 220 227" xml:space="preserve">
<g>
	<path fill="none" d="M104.992,94.605l1.017,10.814l1.188-0.001c0.259-5.84,0.968-8.759,1.981-11.326l-4.062,0.503
		C105.074,94.604,105.033,94.605,104.992,94.605z"/>
	<path fill="#434343" d="M107.084,110.68c0,0.619,0.014,1.223,0.033,1.82h14.684c0.021-0.598,0.033-1.201,0.033-1.82
		c0-0.01,0-0.019,0-0.027h-14.75C107.084,110.661,107.084,110.67,107.084,110.68z"/>
	<path fill="#434343" d="M114.459,88.667c-1.061,0-2.066,0.754-2.977,1.771h6.717C117.102,89.146,115.826,88.667,114.459,88.667z"/>
	<path fill="#434343" d="M122.92,92.298l-0.66-0.315c-0.729-0.354-1.507-0.255-1.732,0.217l-0.752,1.014
		c-0.24-0.621-0.506-1.142-0.778-1.615h-8.442c-0.084,0.113-0.17,0.229-0.252,0.348l-5.381,0.665
		c-1.063,0.039-1.92,0.934-1.916,2.105l0.996,10.683c0,1.113,0.896,2.021,1.992,2.021h1.136c-0.017,0.652-0.03,1.318-0.036,2.015
		h14.734c-0.045-4.975-0.359-8.812-0.881-11.764c0.008-0.014,0.021-0.021,0.029-0.033l2.854-3.845
		C124.057,93.316,123.648,92.648,122.92,92.298z M107.196,105.421l-1.188,0.001l-1.017-10.816c0.041,0,0.082-0.002,0.123-0.008
		l4.062-0.503C108.164,96.662,107.455,99.581,107.196,105.421z"/>
</g>
</svg>
