<?xml version="1.0" encoding="utf-8"?>
<!-- Generator: Adobe Illustrator 15.0.0, SVG Export Plug-In . SVG Version: 6.00 Build 0)  -->
<!DOCTYPE svg PUBLIC "-//W3C//DTD SVG 1.0//EN" "http://www.w3.org/TR/2001/REC-SVG-20010904/DTD/svg10.dtd">
<svg version="1.0" id="Layer_1" xmlns="http://www.w3.org/2000/svg" xmlns:xlink="http://www.w3.org/1999/xlink" x="0px" y="0px"
	 width="220px" height="227px" viewBox="0 0 220 227" enable-background="new 0 0 220 227" xml:space="preserve">
<g>
	<rect x="107.5" y="117" fill="#434343" width="1" height="4"/>
	<rect x="130.5" y="117" fill="#434343" width="1" height="4"/>
	<path fill="#434343" d="M119.5,102c-0.553,0-6,18-12,18c0,0,0.447,1,1,1h6c3.901-2.877,5-12,5-12s1.415,9.123,5,12h6
		c0.553,0,1,0,1-1C125.5,120,120.053,102,119.5,102z"/>
	<g>
		<path fill="#404041" d="M120.562,106.031c-0.147,0-0.295-0.087-0.375-0.242l-2.625-4.975c-0.125-0.234-0.06-0.541,0.148-0.684
			c0.206-0.141,0.477-0.062,0.602,0.173l2.625,4.975c0.125,0.235,0.058,0.54-0.15,0.683
			C120.717,106.009,120.64,106.031,120.562,106.031z"/>
	</g>
	<g>
		<path fill="#404041" d="M118.438,106.031c-0.075,0-0.152-0.022-0.225-0.07c-0.208-0.143-0.275-0.447-0.15-0.684l2.625-4.975
			c0.128-0.236,0.396-0.312,0.602-0.172c0.208,0.142,0.273,0.445,0.148,0.682l-2.625,4.977
			C118.73,105.944,118.585,106.031,118.438,106.031z"/>
	</g>
	<rect x="113.5" y="120" fill="#404041" width="13" height="0.969"/>
</g>
</svg>
