<?xml version="1.0" encoding="utf-8"?>
<!-- Generator: Adobe Illustrator 15.0.0, SVG Export Plug-In . SVG Version: 6.00 Build 0)  -->
<!DOCTYPE svg PUBLIC "-//W3C//DTD SVG 1.0//EN" "http://www.w3.org/TR/2001/REC-SVG-20010904/DTD/svg10.dtd">
<svg version="1.0" id="Layer_1" xmlns="http://www.w3.org/2000/svg" xmlns:xlink="http://www.w3.org/1999/xlink" x="0px" y="0px"
	 width="220px" height="227px" viewBox="0 0 220 227" enable-background="new 0 0 220 227" xml:space="preserve">
<g>
	<path fill="#434343" d="M104.175,84.145c5.67,0,10.338,4.346,10.845,9.868h1.946l-1.946,1.988l-0.929,0.949l-0.968-0.967
		l-1.97-1.973h1.967c-0.485-4.698-4.354-8.373-9.038-8.373c-5.013,0-9.09,4.203-9.09,9.37s4.077,9.371,9.09,9.371
		c2.489,0,4.747-1.038,6.391-2.716l1.204,1.204c-1.956,1.855-4.595,3.006-7.502,3.006c-6.009,0-10.896-4.874-10.896-10.865
		S98.166,84.145,104.175,84.145z"/>
	<path fill="#434343" d="M103.373,89.075c-0.956,0-1.052,1.562-1.052,1.562v6.406v0.021l6.957-0.021v-1.969h-4.988v-4.438
		C104.29,90.638,104.29,89.075,103.373,89.075z"/>
</g>
</svg>
