<?xml version="1.0" encoding="utf-8"?>
<!-- Generator: Adobe Illustrator 15.0.0, SVG Export Plug-In . SVG Version: 6.00 Build 0)  -->
<!DOCTYPE svg PUBLIC "-//W3C//DTD SVG 1.0//EN" "http://www.w3.org/TR/2001/REC-SVG-20010904/DTD/svg10.dtd">
<svg version="1.0" id="Layer_1" xmlns="http://www.w3.org/2000/svg" xmlns:xlink="http://www.w3.org/1999/xlink" x="0px" y="0px"
	 width="220px" height="227px" viewBox="0 0 220 227" enable-background="new 0 0 220 227" xml:space="preserve">
<g>
	<path fill="#434343" d="M99.679,102.133c0.73,0.73,7.306,6.367,10.759,8.505l1.258-1.344c-2.162-3.471-7.745-9.979-8.474-10.705
		c-0.95-0.95-3.13-1.53-4.208-0.665C97.595,99.062,98.729,101.182,99.679,102.133z"/>
	<g>
		<path fill="#434343" d="M104.9,111.071l1.388-0.021l1.218-1.218c-0.52-0.382-1.055-0.786-1.595-1.204l-1.013,1.011L104.9,111.071z
			"/>
		<path fill="#434343" d="M109.007,103.912l8.191-8.196c0.187-0.271,0.924-0.103,1.337,0.312l-8.814,8.799
			c0.418,0.539,0.821,1.073,1.202,1.591l8.968-8.97l0.784,1.054l-9.077,8.854c0.355,0.506,0.678,0.98,0.944,1.414l0.405,0.648
			l-0.611,0.654c0.012-0.006,0.365-0.08,0.883-0.096l8.974-9.002c0.75-0.751,0.791-1.833-0.014-2.637l-2.999-2.978
			c-0.804-0.803-2.065-0.846-2.814-0.096l-7.926,7.937C108.629,103.436,108.818,103.674,109.007,103.912z"/>
		<path fill="#434343" d="M110.27,111.71l-0.356-0.222c-0.459-0.284-0.972-0.629-1.519-1.014l-1.308,1.274l-0.001,1.459l0.729,0.729
			l-5.529,2.681l-1.504-1.375l2.507-5.607l1.717-1.718c-0.237-0.188-0.475-0.376-0.71-0.564l-1.564,1.569
			c0,0-3.459,7.957-3.693,8.602c-0.188,0.508,0.457,1.151,0.902,0.934c0.719-0.354,8.584-3.768,8.584-3.768l1.443-1.45
			C109.965,112.854,110.029,112.277,110.27,111.71z"/>
	</g>
	<path fill="#434343" d="M112.484,111.061c0,0,3.094-0.797,4.947,2.299c1.856,3.094,3.624,2.031,4.42,1.768
		c0.797-0.264-1.854,3.271-3.094,3.271c-1.211,0-6.486,1.693-7.787-4.947C110.944,113.304,110.865,111.312,112.484,111.061z"/>
</g>
</svg>
