<?xml version="1.0" encoding="utf-8"?>
<!-- Generator: Adobe Illustrator 15.0.0, SVG Export Plug-In . SVG Version: 6.00 Build 0)  -->
<!DOCTYPE svg PUBLIC "-//W3C//DTD SVG 1.0//EN" "http://www.w3.org/TR/2001/REC-SVG-20010904/DTD/svg10.dtd">
<svg version="1.0" id="Layer_1" xmlns="http://www.w3.org/2000/svg" xmlns:xlink="http://www.w3.org/1999/xlink" x="0px" y="0px"
	 width="220px" height="227px" viewBox="0 0 220 227" enable-background="new 0 0 220 227" xml:space="preserve">
<g>
	<g>
		<path fill="#434343" d="M111.961,127.531h-0.992v-0.997h-1.016v-4.003h-0.938v4.003h-0.957v0.997h-1.023v2H105V146.5h8.982
			v-16.969h-2.021V127.531z M109.969,128.469h1.062v1.062h-1.062V128.469z M107.969,128.484h1.078v1.062h-1.078V128.484z
			 M108.086,144.546h-1.142v-1.093h1.142V144.546z M108.086,142.641h-1.142v-1.187h1.142V142.641z M108.086,140.579h-1.142v-1.123
			h1.142V140.579z M108.086,138.582h-1.142v-1.125h1.142V138.582z M108.086,136.583h-1.142v-1.125h1.142V136.583z M108.086,134.585
			h-1.142v-1.136h1.142V134.585z M108.086,132.566h-1.142v-1.138h1.142V132.566z M110.062,144.562h-1.112v-1.125h1.112V144.562z
			 M110.062,142.562h-1.112v-1.108h1.112V142.562z M110.092,140.579h-1.142v-1.123h1.142V140.579z M110.092,138.582h-1.142v-1.125
			h1.142V138.582z M110.092,136.583h-1.142v-1.125h1.142V136.583z M110.092,134.585h-1.142v-1.136h1.142V134.585z M110.092,132.566
			h-1.142v-1.138h1.142V132.566z M112,144.562h-1.074v-1.109H112V144.562z M112.099,142.641h-1.173v-1.187h1.173V142.641z
			 M112.099,140.579h-1.173v-1.123h1.173V140.579z M112.099,138.582h-1.173v-1.125h1.173V138.582z M112.099,136.583h-1.173v-1.125
			h1.173V136.583z M112.099,134.585h-1.173v-1.136h1.173V134.585z M112.099,131.431v1.138h-1.173v-1.138H112.099z"/>
	</g>
	<g>
		<path fill="#434343" d="M100.961,127.549h-1.037v-0.997h-0.949v-4.005h-0.928v4.005h-1.033v0.997h-0.979v1.998H94V146.5h8.982
			v-16.953h-2.021V127.549z M98.957,128.461h1.112v1.072h-1.112V128.461z M96.919,128.461h1.116v1.104h-1.116V128.461z
			 M97.031,144.64h-1.118v-1.265h1.118V144.64z M97.023,142.655h-1.11v-1.181h1.11V142.655z M97.023,140.608h-1.11v-1.115h1.11
			V140.608z M97.062,138.625h-1.149v-1.136h1.149V138.625z M97.062,136.607h-1.149v-1.138h1.149V136.607z M97.062,134.59h-1.149
			v-1.146h1.149V134.59z M97.062,132.553h-1.149v-1.146h1.149V132.553z M99.092,144.64H97.95v-1.185h1.142V144.64z M99.092,142.646
			H97.95v-1.186h1.142V142.646z M99.092,140.589H97.95v-1.12h1.142V140.589z M99.092,138.597H97.95v-1.123h1.142V138.597z
			 M99.092,136.604H97.95v-1.121h1.142V136.604z M99.092,134.608H97.95v-1.135h1.142V134.608z M99.092,132.596H97.95v-1.134h1.142
			V132.596z M101.062,144.5h-1.156v-1.062h1.156V144.5z M101.031,142.562h-1.094v-1.106h1.094V142.562z M101.031,140.582h-1.105
			v-1.123h1.105V140.582z M101.031,138.585h-1.105v-1.124h1.105V138.585z M101.031,136.588h-1.105v-1.125h1.105V136.588z
			 M101.031,134.59h-1.105v-1.135h1.105V134.59z M101.031,131.438v1.138h-1.105v-1.138H101.031z"/>
	</g>
</g>
</svg>
