<?xml version="1.0" encoding="utf-8"?>
<!-- Generator: Adobe Illustrator 15.0.0, SVG Export Plug-In . SVG Version: 6.00 Build 0)  -->
<!DOCTYPE svg PUBLIC "-//W3C//DTD SVG 1.0//EN" "http://www.w3.org/TR/2001/REC-SVG-20010904/DTD/svg10.dtd">
<svg version="1.0" id="Layer_1" xmlns="http://www.w3.org/2000/svg" xmlns:xlink="http://www.w3.org/1999/xlink" x="0px" y="0px"
	 width="220px" height="227px" viewBox="0 0 220 227" enable-background="new 0 0 220 227" xml:space="preserve">
<path fill="#434343" d="M106.874,101.465c-0.013-1.047-0.862-1.893-1.911-1.893c-1.048,0-1.896,0.846-1.909,1.893
	c0,0-0.003,0.019-0.003,0.025c0,1.059,0.856,1.916,1.912,1.916c1.06,0,1.914-0.857,1.914-1.916
	C106.877,101.48,106.874,101.473,106.874,101.465z"/>
<path fill="#434343" d="M113.901,101.444c-0.025-1.05-0.874-1.896-1.923-1.896s-1.896,0.847-1.923,1.896
	c-0.001,0.015-0.005,0.03-0.005,0.046c0,1.07,0.862,1.938,1.928,1.938c1.062,0,1.927-0.867,1.927-1.938
	C113.905,101.475,113.901,101.459,113.901,101.444z"/>
<path fill="#434343" d="M121.948,99.531h-7.585c0.408,0.495,0.668,1.113,0.712,1.795c0,0.533,0.412,1.158,0.971,1.158h7.923
	C123.969,101.039,121.948,99.531,121.948,99.531z"/>
<ellipse fill="#434343" cx="117.492" cy="101.969" rx="1.508" ry="1.531"/>
<ellipse fill="#434343" cx="121.492" cy="101.969" rx="1.508" ry="1.531"/>
<path fill="#434343" d="M121,94.542v-3.031h-2v3.031h-1.031v-2.017h-1.953v2.017H115v-2.031h-2v2.031h-2V91.48h0.984v-0.938H100
	v0.938h1.031v7.041h-1.013v2.959h1.604h0.15c0.021-1.748,1.438-3.209,3.188-3.209s3.166,1.461,3.189,3.209h0.721
	c0.039-1.698,1.412-3.115,3.104-3.115c0.352,0,0.683-0.023,0.994,0.084h8.98v-3.906L121,94.542L121,94.542z M105.042,95.531h-2.104
	v-3.083h2.104V95.531z M109.042,95.553h-3.084v-3.104h3.084V95.553z"/>
</svg>
