<?xml version="1.0" encoding="utf-8"?>
<!-- Generator: Adobe Illustrator 15.0.0, SVG Export Plug-In . SVG Version: 6.00 Build 0)  -->
<!DOCTYPE svg PUBLIC "-//W3C//DTD SVG 1.0//EN" "http://www.w3.org/TR/2001/REC-SVG-20010904/DTD/svg10.dtd">
<svg version="1.0" id="Layer_1" xmlns="http://www.w3.org/2000/svg" xmlns:xlink="http://www.w3.org/1999/xlink" x="0px" y="0px"
	 width="220px" height="227px" viewBox="0 0 220 227" enable-background="new 0 0 220 227" xml:space="preserve">
<g>
	<path fill="#434343" d="M134.109,153.5c2.292,0,4.801-2.471,4.801-5.293v-8.869c0-3.207-2.646-5.807-5.906-5.807h-7.092
		c-3.262,0-5.907,2.6-5.907,5.807v8.869c0,2.837,2.646,5.293,5.806,5.293C125.811,153.5,131.817,153.5,134.109,153.5z
		 M133.494,151.5c-0.818,0-1.481-0.663-1.481-1.484c0-0.82,0.663-1.483,1.481-1.483c0.816,0,1.48,0.663,1.48,1.483
		C134.976,150.837,134.312,151.5,133.494,151.5z M126.049,135.364h6.908c0.176,0,0.319,0.309,0.319,0.68
		c0,0.373-0.146,0.683-0.319,0.683h-6.908c-0.176,0-0.316-0.31-0.316-0.683C125.73,135.673,125.873,135.364,126.049,135.364z
		 M122.775,141.188v-0.311c0-1.388,0.238-2.513,1.646-2.513h9.98c1.402,0,1.646,1.125,1.646,2.513v0.311
		c0,1.389-0.242,2.512-1.646,2.512h-9.98C123.016,143.698,122.775,142.575,122.775,141.188z M125.477,148.568
		c0.832,0,1.508,0.656,1.508,1.468c0,0.813-0.676,1.47-1.508,1.47c-0.828,0-1.503-0.656-1.503-1.47
		C123.974,149.225,124.646,148.568,125.477,148.568z"/>
	<path fill="#434343" d="M124.906,133.5v-1h9.107v1c0,0,0.479-0.005,0.471-0.006l4.516-3.979h-18.934l4.48,3.983L124.906,133.5
		L124.906,133.5z M123.953,130.469h11.072v1.031h-11.072V130.469z"/>
</g>
</svg>
