<?xml version="1.0" encoding="utf-8"?>
<!-- Generator: Adobe Illustrator 15.0.0, SVG Export Plug-In . SVG Version: 6.00 Build 0)  -->
<!DOCTYPE svg PUBLIC "-//W3C//DTD SVG 1.0//EN" "http://www.w3.org/TR/2001/REC-SVG-20010904/DTD/svg10.dtd">
<svg version="1.0" id="Layer_1" xmlns="http://www.w3.org/2000/svg" xmlns:xlink="http://www.w3.org/1999/xlink" x="0px" y="0px"
	 width="220px" height="227px" viewBox="0 0 220 227" enable-background="new 0 0 220 227" xml:space="preserve">
<g>
	<path fill="#434343" d="M120.233,104.594l1.535,15.883c0,0.565,0.462,1.023,1.025,1.023h11.371c0.563,0,1.025-0.458,1.025-1.023
		l1.535-15.883H120.233z M125.342,118.396h-1.281l-0.769-10.982h1.28L125.342,118.396z M129.121,118.656h-1.28v-11.243h1.28V118.656
		z M132.902,118.396h-1.281l0.77-10.982h1.28L132.902,118.396z"/>
	<path fill="#434343" d="M136.872,100.657h-4.903v-2.095c0-0.587-0.485-1.062-1.088-1.062h-4.643c-0.603,0-1.229,0.336-1.229,0.923
		v2.095l-4.92,0.14c-0.603,0-1.09,0.476-1.09,1.062v1.718h18.962v-1.718C137.962,101.133,137.475,100.657,136.872,100.657z
		 M125.899,99.406c0-0.586,0.575-1.062,1.292-1.062h2.58c0.712,0,1.289,0.477,1.289,1.062v1.251h-5.162L125.899,99.406
		L125.899,99.406z"/>
</g>
</svg>
