<?xml version="1.0" encoding="utf-8"?>
<!-- Generator: Adobe Illustrator 15.0.0, SVG Export Plug-In . SVG Version: 6.00 Build 0)  -->
<!DOCTYPE svg PUBLIC "-//W3C//DTD SVG 1.0//EN" "http://www.w3.org/TR/2001/REC-SVG-20010904/DTD/svg10.dtd">
<svg version="1.0" id="Layer_1" xmlns="http://www.w3.org/2000/svg" xmlns:xlink="http://www.w3.org/1999/xlink" x="0px" y="0px"
	 width="220px" height="227px" viewBox="0 0 220 227" enable-background="new 0 0 220 227" xml:space="preserve">
<g>
	<path fill="#434343" d="M99.125,124.386v3.114h1.834v-3.142c1.709-0.467,2.979-2.124,2.979-4.118c0-2.354-1.763-8.656-3.938-8.656
		c-2.176,0-3.938,6.305-3.938,8.656C96.062,122.267,97.372,123.954,99.125,124.386z"/>
	<path fill="#434343" d="M110.959,127.826v-4.43c2.274-0.508,4-2.924,4-5.832c0-3.279-2.188-12.064-4.886-12.064
		s-4.886,8.785-4.886,12.064c0,2.848,1.649,5.225,3.854,5.801v4.326c-1.259-0.068-2.608-0.107-4.021-0.107
		c-6.613,0-11.979,0.82-11.979,1.833H117C117,128.735,114.565,128.143,110.959,127.826z"/>
</g>
</svg>
