<?xml version="1.0" encoding="utf-8"?>
<!-- Generator: Adobe Illustrator 15.0.0, SVG Export Plug-In . SVG Version: 6.00 Build 0)  -->
<!DOCTYPE svg PUBLIC "-//W3C//DTD SVG 1.0//EN" "http://www.w3.org/TR/2001/REC-SVG-20010904/DTD/svg10.dtd">
<svg version="1.0" id="Layer_1" xmlns="http://www.w3.org/2000/svg" xmlns:xlink="http://www.w3.org/1999/xlink" x="0px" y="0px"
	 width="220px" height="227px" viewBox="0 0 220 227" enable-background="new 0 0 220 227" xml:space="preserve">
<g>
	<polygon fill="#434343" points="121.843,105.54 118.325,92.594 113.189,92.594 113.189,94.429 116.82,94.429 120.338,107.375 
		120.361,107.367 120.361,107.375 137,107.375 137,105.54 	"/>
	<rect x="123.086" y="101.625" fill="#434343" width="3.914" height="2.702"/>
	<rect x="128.086" y="101.625" fill="#434343" width="3.914" height="2.702"/>
	<rect x="133.086" y="101.625" fill="#434343" width="3.914" height="2.702"/>
	<rect x="123.086" y="97.625" fill="#434343" width="3.914" height="2.702"/>
	<rect x="128.086" y="97.625" fill="#434343" width="3.914" height="2.702"/>
	<rect x="133.086" y="97.625" fill="#434343" width="3.914" height="2.702"/>
	<rect x="123.086" y="93.625" fill="#434343" width="3.914" height="2.702"/>
	<rect x="128.086" y="93.625" fill="#434343" width="3.914" height="2.702"/>
	<rect x="133.086" y="93.625" fill="#434343" width="3.914" height="2.702"/>
	<circle fill="#434343" cx="122.579" cy="110.022" r="1.475"/>
	<circle fill="#434343" cx="134.558" cy="110.028" r="1.472"/>
</g>
</svg>
