<?xml version="1.0" encoding="utf-8"?>
<!-- Generator: Adobe Illustrator 15.0.0, SVG Export Plug-In . SVG Version: 6.00 Build 0)  -->
<!DOCTYPE svg PUBLIC "-//W3C//DTD SVG 1.0//EN" "http://www.w3.org/TR/2001/REC-SVG-20010904/DTD/svg10.dtd">
<svg version="1.0" id="Layer_1" xmlns="http://www.w3.org/2000/svg" xmlns:xlink="http://www.w3.org/1999/xlink" x="0px" y="0px"
	 width="220px" height="227px" viewBox="0 0 220 227" enable-background="new 0 0 220 227" xml:space="preserve">
<g>
	<ellipse fill="#434343" cx="110.979" cy="108.5" rx="1.938" ry="1.916"/>
	<ellipse fill="#434343" cx="118.979" cy="108.5" rx="1.938" ry="1.916"/>
	<rect x="122.021" y="104.541" fill="#434343" width="5.938" height="1.938"/>
	<path fill="#434343" d="M125.98,90.5c-1.072,0-1.939,0.896-1.939,2l-0.256,2.008h-18.922c-0.479,0-0.863,0.443-0.863,0.992
		c0,0.207,0.068,0.388,0.162,0.547l1.811,7.771c0.061,0.257,0.25,0.444,0.494,0.552c0.121,0.073,0.252,0.124,0.396,0.124h14.104
		v-1.023h3.75l1.008-8.995c0.084,0.013,0.166,0.026,0.256,0.026c1.068,0,1.936-0.896,1.936-2
		C127.916,91.398,127.051,90.5,125.98,90.5z M109.023,102.508h-1.32l-0.469-2.016h1.789V102.508z M109.023,98.508h-2.252
		l-0.471-2.016h2.723V98.508z M112.023,102.508h-2.109v-2.016h2.109V102.508z M112.023,98.508h-2.109v-2.016h2.109V98.508z
		 M115.023,102.508h-2.109v-2.016h2.109V102.508z M115.023,98.508h-2.109v-2.016h2.109V98.508z M118.023,102.508h-2.049v-2.016
		h2.049V102.508z M118.023,98.508h-2.049v-2.016h2.049V98.508z M121.023,102.508h-2.049v-2.016h2.049V102.508z M121.023,98.508
		h-2.049v-2.016h2.049V98.508z M122.822,102.508h-0.848v-2.016h1.104L122.822,102.508z M123.281,98.508h-1.307v-2.016h1.555
		L123.281,98.508z"/>
	<path fill="#434343" d="M120.969,107.531v-1.023h-13.104c-0.479,0-0.863,0.443-0.863,0.992s0.387,0.992,0.863,0.992H123v-0.961
		H120.969z"/>
</g>
</svg>
