<?xml version="1.0" encoding="utf-8"?>
<!-- Generator: Adobe Illustrator 15.0.0, SVG Export Plug-In . SVG Version: 6.00 Build 0)  -->
<!DOCTYPE svg PUBLIC "-//W3C//DTD SVG 1.0//EN" "http://www.w3.org/TR/2001/REC-SVG-20010904/DTD/svg10.dtd">
<svg version="1.0" id="Layer_1" xmlns="http://www.w3.org/2000/svg" xmlns:xlink="http://www.w3.org/1999/xlink" x="0px" y="0px"
	 width="220px" height="227px" viewBox="0 0 220 227" enable-background="new 0 0 220 227" xml:space="preserve">
<g>
	<path fill="#434343" d="M119.602,119.324l1.137-8.852c0.084,0.012,0.166,0.025,0.254,0.025c1.068,0,1.936-0.896,1.936-2
		c0-1.104-0.863-2-1.936-2s-1.939,0.896-1.939,2l-0.256,2.008H99.875c-0.477,0-0.863,0.443-0.863,0.992
		c0,0.207,0.068,0.389,0.162,0.547l1.812,7.771c0.059,0.258,0.25,0.445,0.494,0.553c0.119,0.072,0.252,0.123,0.396,0.123H116.2
		l2.219-2.336L119.602,119.324z M104.033,118.508h-1.32l-0.469-2.016h1.789V118.508z M104.033,114.508h-2.252l-0.469-2.016h2.721
		V114.508z M107.033,118.508h-2.109v-2.016h2.109V118.508z M107.033,114.508h-2.109v-2.016h2.109V114.508z M110.033,118.508h-2.109
		v-2.016h2.109V118.508z M110.033,114.508h-2.109v-2.016h2.109V114.508z M113.033,118.508h-2.109v-2.016h2.109V118.508z
		 M113.033,114.508h-2.109v-2.016h2.109V114.508z M116.033,118.508h-2.109v-2.016h2.109V118.508z M116.033,114.508h-2.109v-2.016
		h2.109V114.508z M117.77,118.508h-0.846v-2.016h1.104L117.77,118.508z M118.281,114.508h-1.357v-2.016h1.615L118.281,114.508z"/>
	<path fill="#434343" d="M117.248,122.508h-14.375c-0.477,0-0.863,0.443-0.863,0.992s0.389,0.992,0.863,0.992h1.475
		c-0.186,0.293-0.297,0.637-0.297,1.008c0,1.059,0.867,1.916,1.939,1.916c1.068,0,1.936-0.857,1.936-1.916
		c0-0.371-0.111-0.715-0.295-1.008h5.717c-0.186,0.293-0.297,0.637-0.297,1.008c0,1.059,0.867,1.916,1.939,1.916
		c1.068,0,1.936-0.857,1.936-1.916c0-0.207-0.041-0.402-0.104-0.588l-0.955-0.955L117.248,122.508z"/>
	<polygon fill="#434343" points="123.008,124.143 121.406,122.543 122.986,120.961 121.631,119.605 120.051,121.186 
		118.398,119.533 117.043,120.889 118.695,122.541 117.115,124.121 118.471,125.477 120.051,123.898 121.652,125.498 	"/>
</g>
</svg>
