<?xml version="1.0" encoding="utf-8"?>
<!-- Generator: Adobe Illustrator 15.0.0, SVG Export Plug-In . SVG Version: 6.00 Build 0)  -->
<!DOCTYPE svg PUBLIC "-//W3C//DTD SVG 1.0//EN" "http://www.w3.org/TR/2001/REC-SVG-20010904/DTD/svg10.dtd">
<svg version="1.0" id="Layer_1" xmlns="http://www.w3.org/2000/svg" xmlns:xlink="http://www.w3.org/1999/xlink" x="0px" y="0px"
	 width="220px" height="227px" viewBox="0 0 220 227" enable-background="new 0 0 220 227" xml:space="preserve">
<g>
	<ellipse fill="#434343" cx="110.979" cy="117.456" rx="1.938" ry="1.916"/>
	<ellipse fill="#434343" cx="119.979" cy="117.456" rx="1.938" ry="1.916"/>
	<path fill="#434343" d="M125.98,99.539c-1.071,0-1.938,0.892-1.938,1.99l-0.257,1.999h-18.922c-0.479,0-0.863,0.439-0.863,0.985
		c0,0.206,0.068,0.389,0.162,0.545l1.811,7.733c0.061,0.256,0.251,0.444,0.495,0.55c0.12,0.072,0.251,0.122,0.396,0.122h15.643
		l-0.259,2.097h-14.384c-0.479,0-0.863,0.354-0.863,0.898s0.387,0.987,0.863,0.987l16.073-0.057l1.788-13.897
		c0.084,0.011,0.167,0.024,0.256,0.024c1.068,0,1.937-0.894,1.937-1.989C127.917,100.431,127.051,99.539,125.98,99.539z
		 M123.271,107.51h-1.357v-2.104h1.616L123.271,107.51z M107.704,111.562l-0.47-2.077h1.789v2.077H107.704z M115.023,107.51h-2.109
		v-2.104h2.109V107.51z M115.914,105.406h2.109v2.104h-2.109V105.406z M112.023,107.51h-2.109v-2.104h2.109V107.51z M109.023,107.51
		h-2.251l-0.472-2.104h2.723V107.51L109.023,107.51z M109.914,109.485h2.109v2.077h-2.109V109.485z M112.914,109.485h2.109v2.077
		h-2.109V109.485z M115.914,109.485h2.109v2.077h-2.109V109.485z M118.914,109.485h2.109v2.077h-2.109V109.485z M118.914,107.51
		v-2.104h2.109v2.104H118.914z M121.914,111.562v-2.077h1.104l-0.258,2.077H121.914z"/>
	<path fill="#434343" d="M111.23,99.37l1.816-0.367l-0.012,2.445c-0.001,0.552,0.443,0.997,0.997,0.995
		c0.554,0.001,0.944-0.394,0.943-0.945l0.017-2.458l1.789,0.353c0.272-0.271,0.271-0.718,0-0.988l-2.285-2.697
		c-0.273-0.273-0.716-0.273-0.989,0l-2.274,2.675C110.958,98.654,110.959,99.097,111.23,99.37z"/>
</g>
</svg>
