<?xml version="1.0" encoding="utf-8"?>
<!-- Generator: Adobe Illustrator 15.0.0, SVG Export Plug-In . SVG Version: 6.00 Build 0)  -->
<!DOCTYPE svg PUBLIC "-//W3C//DTD SVG 1.0//EN" "http://www.w3.org/TR/2001/REC-SVG-20010904/DTD/svg10.dtd">
<svg version="1.0" id="Layer_1" xmlns="http://www.w3.org/2000/svg" xmlns:xlink="http://www.w3.org/1999/xlink" x="0px" y="0px"
	 width="220px" height="227px" viewBox="0 0 220 227" enable-background="new 0 0 220 227" xml:space="preserve">
<g>
	<path fill="#434343" d="M124.146,115.459h0.765v-1.875h-0.938c0.139,0.422,0.215,0.884,0.215,1.369
		C124.188,115.126,124.166,115.291,124.146,115.459z"/>
	<path fill="#434343" d="M116.898,113.584h-5.862v1.875h5.646c-0.021-0.168-0.05-0.333-0.05-0.506
		C116.633,114.468,116.729,114.006,116.898,113.584z"/>
	<path fill="#434343" d="M120.374,111.166c1.454,0,1.96,0.596,2.62,1.293h1.917V102.5h-13.875v9.959h6.717
		C118.413,111.762,118.92,111.166,120.374,111.166z"/>
	<path fill="#434343" d="M108.512,105.5h-4.678c-0.746,0-1.578,1.265-1.578,1.265S101,108.571,101,109.527c0,0.611,0,3.047,0,4.502
		c0,0.811,0.59,1.408,1.347,1.408c0.229,0,0.871,0,1.649,0c-0.021-0.148-0.045-0.301-0.045-0.457c0-1.832,1.477-3.613,3.299-3.613
		c0.946,0,2.008,0.406,2.609,1.051v-5.49C109.859,106.138,109.256,105.5,108.512,105.5z M108.016,109.594h-5.219
		c-0.094-1.906,1.031-3.188,1.031-3.188l4.219,0.031L108.016,109.594z"/>
	<circle fill="#434343" cx="107.453" cy="115" r="2.438"/>
	<circle fill="#434343" cx="120.453" cy="115" r="2.438"/>
</g>
</svg>
