<?xml version="1.0" encoding="utf-8"?>
<!-- Generator: Adobe Illustrator 15.0.0, SVG Export Plug-In . SVG Version: 6.00 Build 0)  -->
<!DOCTYPE svg PUBLIC "-//W3C//DTD SVG 1.0//EN" "http://www.w3.org/TR/2001/REC-SVG-20010904/DTD/svg10.dtd">
<svg version="1.0" id="Layer_1" xmlns="http://www.w3.org/2000/svg" xmlns:xlink="http://www.w3.org/1999/xlink" x="0px" y="0px"
	 width="220px" height="227px" viewBox="0 0 220 227" enable-background="new 0 0 220 227" xml:space="preserve">
<g>
	<g>
		<rect x="83" y="105.516" fill="#434343" width="0.972" height="0.953"/>
		<rect x="89.021" y="105.516" fill="#434343" width="0.939" height="0.953"/>
		<rect x="92.031" y="106.516" fill="#434343" width="0.938" height="0.969"/>
		<rect x="91.029" y="105.516" fill="#434343" width="0.938" height="0.953"/>
		<rect x="90.031" y="106.516" fill="#434343" width="0.938" height="0.969"/>
		<rect x="87.015" y="105.516" fill="#434343" width="0.94" height="0.953"/>
		<rect x="84.031" y="106.516" fill="#434343" width="0.938" height="0.969"/>
		<rect x="85.008" y="105.516" fill="#434343" width="0.974" height="0.953"/>
		<rect x="86.031" y="106.516" fill="#434343" width="0.938" height="0.969"/>
		<rect x="88.031" y="106.516" fill="#434343" width="0.938" height="0.969"/>
		<rect x="88.031" y="104.516" fill="#434343" width="0.938" height="0.953"/>
		<rect x="93.021" y="105.516" fill="#434343" width="0.955" height="0.953"/>
		<rect x="86.031" y="104.516" fill="#434343" width="0.938" height="0.953"/>
		<rect x="84.031" y="104.516" fill="#434343" width="0.938" height="0.953"/>
		<rect x="90.031" y="104.516" fill="#434343" width="0.938" height="0.953"/>
		<rect x="94.031" y="106.516" fill="#434343" width="0.938" height="0.969"/>
		<rect x="95.028" y="105.516" fill="#434343" width="0.956" height="0.953"/>
		<rect x="92.031" y="104.516" fill="#434343" width="0.938" height="0.953"/>
		<rect x="94.031" y="104.516" fill="#434343" width="0.938" height="0.953"/>
		<path fill="#434343" d="M96.932,102.5H82.07c-0.558,0-1.006,1.02-1.006,1.02l-2,7.898c0,0.562,0.448,1.02,1.006,1.02h18.861
			c0.558,0,1.006-0.457,1.006-1.02l-2-7.898C97.938,103.52,97.487,102.5,96.932,102.5z M81.969,105.469h1v-0.953h-1v-1.047h1.062v1
			h0.938v-1h1.062v1h0.938v-1h1.062v1h0.938v-1h1.062v1h0.938v-1h1.062v1h0.938v-1h1.062v1h0.938v-1h1.062v1h0.938v-1h1.062v1.047
			h-1v0.953h1v1.047h-1v1h-1v1h-1.062v-1h-0.938v1h-1.062v-1h-0.938v1h-1.062v-1h-0.938v1h-1.062v-1h-0.938v1h-1.062v-1h-0.938v1
			h-1.062v-1h-1v-1h-1V105.469z M97.062,110.562H81.938v-1.125h15.125V110.562z"/>
	</g>
	<polygon fill="#434343" points="99,115.5 80.042,115.5 79.042,113.625 100,113.625 	"/>
	<path fill="#434343" d="M93.023,99.5c0,0.011,0.005,0.021,0.005,0.031c0,1.104-1.879,2-3.562,2c-1.681,0-3.513-0.896-3.513-2
		c0-0.011,0.005-0.021,0.005-0.031H81.02v2.959h16.979V99.5H93.023z"/>
	<g>
		<path fill="#434343" d="M95.938,91.521l-12.911,0.041v6.896H95.94L95.938,91.521z M94.066,95.438v1.158h-9.176v-1.158H94.066z
			 M91.058,93.438v1.158h-6.165v-1.158H91.058z"/>
	</g>
	<rect x="78.083" y="97.584" fill="#434343" width="1.876" height="2.916"/>
	<rect x="99.083" y="97.584" fill="#434343" width="1.876" height="2.916"/>
	<rect x="81" y="97.549" fill="#434343" width="16.938" height="0.902"/>
	<rect x="78.031" y="102.5" fill="#434343" width="4.208" height="1"/>
	<rect x="78" y="102.5" fill="#434343" width="1" height="2.938"/>
</g>
</svg>
