<?xml version="1.0" encoding="utf-8"?>
<!-- Generator: Adobe Illustrator 15.0.0, SVG Export Plug-In . SVG Version: 6.00 Build 0)  -->
<!DOCTYPE svg PUBLIC "-//W3C//DTD SVG 1.0//EN" "http://www.w3.org/TR/2001/REC-SVG-20010904/DTD/svg10.dtd">
<svg version="1.0" id="Layer_1" xmlns="http://www.w3.org/2000/svg" xmlns:xlink="http://www.w3.org/1999/xlink" x="0px" y="0px"
	 width="220px" height="227px" viewBox="0 0 220 227" enable-background="new 0 0 220 227" xml:space="preserve">
<g>
	<path fill="#434343" d="M116.934,103.388c0-5.615-4.67-9.388-10.059-9.825V92.26c0-0.385,0.012-0.697-0.376-0.697
		c-0.39,0-0.467,0.312-0.467,0.697v1.289C100.52,93.856,96,97.683,96,103.388h0.938v-0.928h2.093v0.928h1.876v-0.928h2.136v0.928
		h1.896v-0.928h3.093l0.093,0.928h1.814v-0.928h2.092v0.928h1.877v-0.928h2.193v0.928H116.934z"/>
	<path fill="#434343" d="M106.043,112.755c0,0.715-0.75,1.298-1.442,1.298c-0.444,0-1.258-0.088-1.258-0.803
		c0-0.383-0.3-0.694-0.671-0.694c-0.369,0-0.67,0.312-0.67,0.694c0,1.48,1.166,2.189,2.599,2.189s2.337-1.205,2.337-2.686v-9.192
		h-0.895V112.755L106.043,112.755z"/>
</g>
</svg>
