<?xml version="1.0" encoding="utf-8"?>
<!-- Generator: Adobe Illustrator 15.0.0, SVG Export Plug-In . SVG Version: 6.00 Build 0)  -->
<!DOCTYPE svg PUBLIC "-//W3C//DTD SVG 1.0//EN" "http://www.w3.org/TR/2001/REC-SVG-20010904/DTD/svg10.dtd">
<svg version="1.0" id="Layer_1" xmlns="http://www.w3.org/2000/svg" xmlns:xlink="http://www.w3.org/1999/xlink" x="0px" y="0px"
	 width="220px" height="227px" viewBox="0 0 220 227" enable-background="new 0 0 220 227" xml:space="preserve">
<g>
	<rect x="79" y="117.5" fill="#434343" width="2" height="7.938"/>
	<polygon fill="#434343" points="80,105.5 68,114.5 68,116.5 69,116.5 69,115.5 71,115.5 71,116.5 73,116.5 73,115.5 75,115.5 
		75,116.5 77,116.5 77,115.5 79,115.5 79,116.5 81,116.5 81,115.5 83,115.5 83,116.5 85,116.5 85,115.5 87,115.5 87,116.5 89,116.5 
		89,115.5 91,115.5 91,116.5 92,116.5 92,114.5 	"/>
	<polygon fill="#434343" points="71.344,121.5 68,121.5 68,123.5 70.516,123.5 75.528,128.514 76,128.5 76,129.5 78,129.5 78,128.5 
		79,128.5 79,129.5 81,129.5 81,128.5 87,128.5 87,129.5 89,129.5 89,128.5 90,128.5 90,126.5 76.344,126.5 	"/>
</g>
</svg>
