<?xml version="1.0" encoding="utf-8"?>
<!-- Generator: Adobe Illustrator 15.0.0, SVG Export Plug-In . SVG Version: 6.00 Build 0)  -->
<!DOCTYPE svg PUBLIC "-//W3C//DTD SVG 1.0//EN" "http://www.w3.org/TR/2001/REC-SVG-20010904/DTD/svg10.dtd">
<svg version="1.0" id="Layer_1" xmlns="http://www.w3.org/2000/svg" xmlns:xlink="http://www.w3.org/1999/xlink" x="0px" y="0px"
	 width="220px" height="227px" viewBox="0 0 220 227" enable-background="new 0 0 220 227" xml:space="preserve">
<g>
	<path fill="#434343" d="M103.211,104.43h-5.475c-0.958,0-1.736-0.754-1.736-1.684v-8.562c0-0.93,0.778-1.684,1.736-1.684h5.475
		c0.959,0,1.736,0.754,1.736,1.684v8.562C104.947,103.676,104.17,104.43,103.211,104.43z"/>
	<path fill="#434343" d="M119.135,100.381c-0.021,0.002-0.045,0.016-0.068,0.016h-2.127v1.166H120v1.168
		c0,0.938-0.781,1.699-1.744,1.699c0,0-1.361,0-2.798,0c-3.489,0-2.996,3.049-2.996,3.049l0.834,2.281
		c0,1.757-0.748,1.688-1.668,1.688c-1.564-0.596-3.597-6.096-3.597-6.096c-0.5-1.688-1.988-1.938-1.988-1.938V94.48l0.782,0.026
		c2.337,0,2.812-1.969,3.776-1.969h5.652c0.963,0,1.744,0.762,1.744,1.7v0.14h-1.062v1.14h1.127c0.131,0,0.25,0.031,0.361,0.083
		c0.312,0.146,0.532,0.475,0.532,0.854c0,0.491-0.364,0.884-0.825,0.923c-0.021,0.002-0.044,0.015-0.068,0.015h-1.127v1.124h2.127
		c0.131,0,0.25,0.032,0.361,0.084c0.312,0.146,0.532,0.475,0.532,0.854C119.958,99.949,119.595,100.341,119.135,100.381z"/>
</g>
</svg>
