<?xml version="1.0" encoding="utf-8"?>
<!-- Generator: Adobe Illustrator 15.0.0, SVG Export Plug-In . SVG Version: 6.00 Build 0)  -->
<!DOCTYPE svg PUBLIC "-//W3C//DTD SVG 1.0//EN" "http://www.w3.org/TR/2001/REC-SVG-20010904/DTD/svg10.dtd">
<svg version="1.0" id="Layer_1" xmlns="http://www.w3.org/2000/svg" xmlns:xlink="http://www.w3.org/1999/xlink" x="0px" y="0px"
	 width="220px" height="227px" viewBox="0 0 220 227" enable-background="new 0 0 220 227" xml:space="preserve">
<g>
	<path fill="#555555" d="M92.404,123.371c-1.738,1.74-1.756,4.546-0.038,6.264l0.526,0.527c1.72,1.718,4.521,1.699,6.264-0.039
		l2.865-2.865l-6.754-6.749L92.404,123.371z"/>
	<path fill="#555555" d="M110.848,118.557l2.781-2.781c1.759-1.76,1.778-4.59,0.044-6.324l-0.532-0.532
		c-1.733-1.734-4.563-1.716-6.324,0.043l-2.78,2.783L110.848,118.557z"/>
	<path fill="#555555" d="M107.588,117.15l-2.018-2.018l-2.652-2.651l-6.951,6.954l7.062,7.062l6.953-6.952L107.588,117.15z
		 M100.971,117.467c0.312-0.31,0.804-0.32,1.099-0.023c0.296,0.296,0.283,0.785-0.024,1.098c-0.311,0.311-0.804,0.32-1.1,0.025
		S100.66,117.779,100.971,117.467z M102.971,119.467c0.312-0.31,0.804-0.32,1.099-0.023c0.296,0.296,0.283,0.785-0.024,1.098
		c-0.311,0.311-0.804,0.32-1.1,0.025S102.66,119.779,102.971,119.467z M104.972,121.439c0.298-0.299,0.778-0.303,1.07-0.013
		c0.29,0.291,0.285,0.771-0.013,1.069c-0.302,0.3-0.778,0.305-1.071,0.013C104.666,122.221,104.672,121.739,104.972,121.439z
		 M103.972,117.439c0.298-0.299,0.778-0.303,1.07-0.013c0.29,0.291,0.285,0.771-0.013,1.069c-0.302,0.3-0.778,0.305-1.071,0.013
		C103.666,118.221,103.672,117.739,103.972,117.439z M105.972,119.439c0.298-0.299,0.778-0.303,1.07-0.013
		c0.29,0.291,0.285,0.771-0.013,1.069c-0.302,0.3-0.778,0.305-1.071,0.013C105.666,120.221,105.672,119.739,105.972,119.439z
		 M101.972,115.439c0.298-0.299,0.778-0.303,1.07-0.013c0.29,0.291,0.285,0.771-0.013,1.069c-0.302,0.3-0.778,0.305-1.071,0.013
		C101.666,116.221,101.672,115.739,101.972,115.439z M98.972,118.439c0.298-0.299,0.778-0.303,1.07-0.013
		c0.29,0.291,0.285,0.771-0.013,1.069c-0.302,0.3-0.778,0.305-1.071,0.013C98.666,119.221,98.672,118.739,98.972,118.439z
		 M100.972,120.439c0.298-0.299,0.778-0.303,1.07-0.013c0.29,0.291,0.285,0.771-0.013,1.069c-0.302,0.3-0.778,0.305-1.071,0.013
		C100.666,121.221,100.672,120.739,100.972,120.439z M102.972,122.439c0.298-0.299,0.778-0.303,1.07-0.013
		c0.29,0.291,0.285,0.771-0.013,1.069c-0.302,0.3-0.778,0.305-1.071,0.013C102.666,123.221,102.672,122.739,102.972,122.439z
		 M100.972,122.439c0.298-0.299,0.778-0.303,1.07-0.013c0.29,0.291,0.285,0.771-0.013,1.069c-0.302,0.3-0.778,0.305-1.071,0.013
		C100.666,123.221,100.672,122.739,100.972,122.439z M98.972,120.439c0.298-0.299,0.778-0.303,1.07-0.013
		c0.29,0.291,0.285,0.771-0.013,1.069c-0.302,0.3-0.778,0.305-1.071,0.013C98.666,121.221,98.672,120.739,98.972,120.439z
		 M103.972,115.439c0.298-0.299,0.778-0.303,1.07-0.013c0.29,0.291,0.285,0.771-0.013,1.069c-0.302,0.3-0.778,0.305-1.071,0.013
		C103.666,116.221,103.672,115.739,103.972,115.439z M105.972,117.439c0.298-0.299,0.778-0.303,1.07-0.013
		c0.29,0.291,0.285,0.771-0.013,1.069c-0.302,0.3-0.778,0.305-1.071,0.013C105.666,118.221,105.672,117.739,105.972,117.439z"/>
</g>
</svg>
