<?xml version="1.0" encoding="utf-8"?>
<!-- Generator: Adobe Illustrator 15.0.0, SVG Export Plug-In . SVG Version: 6.00 Build 0)  -->
<!DOCTYPE svg PUBLIC "-//W3C//DTD SVG 1.0//EN" "http://www.w3.org/TR/2001/REC-SVG-20010904/DTD/svg10.dtd">
<svg version="1.0" id="Layer_1" xmlns="http://www.w3.org/2000/svg" xmlns:xlink="http://www.w3.org/1999/xlink" x="0px" y="0px"
	 width="220px" height="227px" viewBox="0 0 220 227" enable-background="new 0 0 220 227" xml:space="preserve">
<path fill="#434343" d="M116.541,106.272v3.84h0.968v1.712l-6.135,3.026v-7.748l3.07-0.011l-3.938-4.875l-3.979,4.917h3.025v10.305
	l-6.13-2.664v-1.694c1.124-0.406,1.933-1.491,1.933-2.779c0-1.635-1.295-2.959-2.894-2.959c-1.6,0-2.896,1.324-2.896,2.959
	c0,1.288,0.811,2.372,1.934,2.778V116l8.053,3.585v1.899c-1.183,0.365-2.047,1.461-2.047,2.772c0,1.612,1.354,2.917,2.954,2.917
	c1.599,0,2.894-1.305,2.894-2.917c0-1.288-0.834-2.367-1.98-2.754v-4.507l8.041-3.949v-2.936h0.969v-3.84L116.541,106.272
	L116.541,106.272z"/>
</svg>
