<?xml version="1.0" encoding="utf-8"?>
<!-- Generator: Adobe Illustrator 15.0.0, SVG Export Plug-In . SVG Version: 6.00 Build 0)  -->
<!DOCTYPE svg PUBLIC "-//W3C//DTD SVG 1.0//EN" "http://www.w3.org/TR/2001/REC-SVG-20010904/DTD/svg10.dtd">
<svg version="1.0" id="Layer_1" xmlns="http://www.w3.org/2000/svg" xmlns:xlink="http://www.w3.org/1999/xlink" x="0px" y="0px"
	 width="220px" height="227px" viewBox="0 0 220 227" enable-background="new 0 0 220 227" xml:space="preserve">
<g>
	<path fill="#434343" d="M118.644,117.208c-0.606,0.807-1.362,2.385-2.238,3.816c-0.964,1.577-2.072-2.354-3.284-2.354
		c-1.244,0-2.407,3.861-3.414,2.242c-0.865-1.393-1.616-2.893-2.207-3.666c-6.129,0-6.314,8.664-6.314,8.664h23.87
		C125.054,125.911,125.536,117.208,118.644,117.208z"/>
	<path fill="#434343" d="M118.036,108.979c0,2.698-2.22,7.86-4.958,7.86s-4.959-5.162-4.959-7.86c0-2.7,2.221-4.89,4.959-4.89
		S118.036,106.276,118.036,108.979z"/>
</g>
</svg>
