<?xml version="1.0" encoding="utf-8"?>
<!-- Generator: Adobe Illustrator 15.0.0, SVG Export Plug-In . SVG Version: 6.00 Build 0)  -->
<!DOCTYPE svg PUBLIC "-//W3C//DTD SVG 1.0//EN" "http://www.w3.org/TR/2001/REC-SVG-20010904/DTD/svg10.dtd">
<svg version="1.0" id="Layer_1" xmlns="http://www.w3.org/2000/svg" xmlns:xlink="http://www.w3.org/1999/xlink" x="0px" y="0px"
	 width="220px" height="227px" viewBox="0 0 220 227" enable-background="new 0 0 220 227" xml:space="preserve">
<g>
	<path fill="#434343" d="M114.979,102.544c0,2.726-2.229,7.938-4.979,7.938s-4.979-5.214-4.979-7.938
		c0-2.727,2.23-4.937,4.979-4.937S114.979,99.817,114.979,102.544z"/>
	<path fill="#434343" d="M116.982,119.492v-0.938h-2.047v-4.078h2.03v-2.016h3c-0.95-1.065-2.498-1.89-4.507-1.89
		c-1.277,1.726-5.523,2.167-5.523,2.167s-4.344-0.425-5.621-2.129C98.186,110.609,98,119.5,98,119.5L116.982,119.492z"/>
	<polygon fill="#434343" points="122,115.5 120,115.5 120,113.5 118.084,113.5 118.084,115.5 116.084,115.5 116.084,117.479 
		118.084,117.479 118.084,119.416 120,119.416 120,117.479 122,117.479 	"/>
</g>
</svg>
