<?xml version="1.0" encoding="utf-8"?>
<!-- Generator: Adobe Illustrator 15.0.0, SVG Export Plug-In . SVG Version: 6.00 Build 0)  -->
<!DOCTYPE svg PUBLIC "-//W3C//DTD SVG 1.0//EN" "http://www.w3.org/TR/2001/REC-SVG-20010904/DTD/svg10.dtd">
<svg version="1.0" id="Layer_1" xmlns="http://www.w3.org/2000/svg" xmlns:xlink="http://www.w3.org/1999/xlink" x="0px" y="0px"
	 width="220px" height="227px" viewBox="0 0 220 227" enable-background="new 0 0 220 227" xml:space="preserve">
<g>
	<path fill="#434343" d="M107.543,95.807c0,2.726-2.229,7.938-4.979,7.938s-4.979-5.215-4.979-7.938c0-2.727,2.23-4.937,4.979-4.937
		S107.543,93.08,107.543,95.807z"/>
	<path fill="#434343" d="M109.547,112.755v-0.938H107.5v-4.078h2.03v-2.016h3c-0.95-1.065-2.498-1.89-4.507-1.89
		C106.746,105.559,102.5,106,102.5,106s-4.344-0.425-5.621-2.129c-6.129,0.001-6.314,8.892-6.314,8.892L109.547,112.755z"/>
	<polygon fill="#434343" points="114.564,108.763 112.564,108.763 112.564,106.763 110.648,106.763 110.648,108.763 
		108.648,108.763 108.648,110.741 110.648,110.741 110.648,112.679 112.564,112.679 112.564,110.741 114.564,110.741 	"/>
</g>
</svg>
