<?xml version="1.0" encoding="utf-8"?>
<!-- Generator: Adobe Illustrator 15.0.0, SVG Export Plug-In . SVG Version: 6.00 Build 0)  -->
<!DOCTYPE svg PUBLIC "-//W3C//DTD SVG 1.0//EN" "http://www.w3.org/TR/2001/REC-SVG-20010904/DTD/svg10.dtd">
<svg version="1.0" id="Layer_1" xmlns="http://www.w3.org/2000/svg" xmlns:xlink="http://www.w3.org/1999/xlink" x="0px" y="0px"
	 width="220px" height="227px" viewBox="0 0 220 227" enable-background="new 0 0 220 227" xml:space="preserve">
<g>
	<path fill="#434343" d="M115.654,126.527c-4.274,3.217-1.087,5.98-5.493,5.98s-0.906-2.639-5.652-5.941
		c-7.379,2.066-6.312,7.791-6.312,7.791h23.87C122.064,134.357,123.005,128.01,115.654,126.527z"/>
	<path fill="#434343" d="M105.174,121.488l0.812,2.834l-2.837,0.125C103.146,124.447,104.903,123.211,105.174,121.488z"/>
	<path fill="#434343" d="M115.077,121.449l-0.865,2.814l2.834,0.184C117.046,124.447,115.312,123.176,115.077,121.449z"/>
	<path fill="#434343" d="M115.047,117.482c0,2.701-2.22,7.859-4.958,7.859s-4.959-5.16-4.959-7.859s2.221-4.891,4.959-4.891
		S115.047,114.783,115.047,117.482z"/>
</g>
</svg>
