<?xml version="1.0" encoding="utf-8"?>
<!-- Generator: Adobe Illustrator 15.0.0, SVG Export Plug-In . SVG Version: 6.00 Build 0)  -->
<!DOCTYPE svg PUBLIC "-//W3C//DTD SVG 1.0//EN" "http://www.w3.org/TR/2001/REC-SVG-20010904/DTD/svg10.dtd">
<svg version="1.0" id="Layer_1" xmlns="http://www.w3.org/2000/svg" xmlns:xlink="http://www.w3.org/1999/xlink" x="0px" y="0px"
	 width="220px" height="227px" viewBox="0 0 220 227" enable-background="new 0 0 220 227" xml:space="preserve">
<g>
	<g>
		<path fill="#434343" d="M122.487,124.738c-1.277,1.695-5.524,2.129-5.524,2.129s-4.343-0.418-5.621-2.092
			c-6.129,0-6.312,8.664-6.312,8.664h23.87C128.896,133.439,129.38,124.738,122.487,124.738z"/>
		<path fill="#434343" d="M121.942,116.506c0,2.699-2.212,7.861-4.942,7.861s-4.943-5.162-4.943-7.861s2.213-4.889,4.943-4.889
			S121.942,113.807,121.942,116.506z"/>
	</g>
	<path fill="#434343" d="M123.969,118.7c0,0.39-0.434,0.706-0.969,0.706l0,0c-0.536,0-0.969-0.316-0.969-0.706v-3.463
		c0-0.393,0.433-0.706,0.969-0.706l0,0c0.535,0,0.969,0.313,0.969,0.706V118.7z"/>
	<path fill="#434343" d="M111.906,118.7c0,0.39-0.412,0.706-0.922,0.706l0,0c-0.512,0-0.922-0.316-0.922-0.706v-3.463
		c0-0.393,0.41-0.706,0.922-0.706l0,0c0.51,0,0.922,0.313,0.922,0.706V118.7z"/>
	<g>
		<path fill="#434343" d="M122.938,116.43h-0.875v-3.357c0-0.104-0.058-2.664-5.062-2.664s-5.062,2.561-5.062,2.664v3.357h-0.875
			v-3.357c0-0.146-0.058-3.539,5.938-3.539s5.938,3.395,5.938,3.539v3.357H122.938z"/>
	</g>
	<rect x="123.031" y="117.5" fill="#434343" width="0.938" height="5.906"/>
	<rect x="122" y="122.531" fill="#434343" width="1.969" height="0.969"/>
</g>
</svg>
