<?xml version="1.0" encoding="utf-8"?>
<!-- Generator: Adobe Illustrator 15.0.0, SVG Export Plug-In . SVG Version: 6.00 Build 0)  -->
<!DOCTYPE svg PUBLIC "-//W3C//DTD SVG 1.0//EN" "http://www.w3.org/TR/2001/REC-SVG-20010904/DTD/svg10.dtd">
<svg version="1.0" id="Layer_1" xmlns="http://www.w3.org/2000/svg" xmlns:xlink="http://www.w3.org/1999/xlink" x="0px" y="0px"
	 width="220px" height="227px" viewBox="0 0 220 227" enable-background="new 0 0 220 227" xml:space="preserve">
<g>
	<path fill="#434343" d="M112.936,102.004c0,2.728-2.211,7.938-4.938,7.938c-2.727,0-4.938-5.213-4.938-7.938
		c0-2.727,2.212-4.937,4.938-4.937C110.723,97.067,112.936,99.277,112.936,102.004z"/>
	<g>
		<path fill="#434343" d="M109.538,115.608l3.583-3.625l1.917,2l2.459-2.49c-0.942-0.973-2.104-1.493-3.997-1.493
			c-1.277,1.731-5.524,2.175-5.524,2.175s-4.343-0.426-5.621-2.136c-6.129,0-6.314,8.851-6.314,8.851h16.623L109.538,115.608z"/>
	</g>
	<polygon fill="#434343" points="118.615,112.621 115.05,116.187 112.93,114.065 111.544,115.45 115.051,118.956 120.001,114.007 	
		"/>
</g>
</svg>
