<?xml version="1.0" encoding="utf-8"?>
<!-- Generator: Adobe Illustrator 15.0.0, SVG Export Plug-In . SVG Version: 6.00 Build 0)  -->
<!DOCTYPE svg PUBLIC "-//W3C//DTD SVG 1.0//EN" "http://www.w3.org/TR/2001/REC-SVG-20010904/DTD/svg10.dtd">
<svg version="1.0" id="Layer_1" xmlns="http://www.w3.org/2000/svg" xmlns:xlink="http://www.w3.org/1999/xlink" x="0px" y="0px"
	 width="220px" height="227px" viewBox="0 0 220 227" enable-background="new 0 0 220 227" xml:space="preserve">
<g>
	<path fill="#434343" d="M107.852,99.637l-2.688,1.334v4.229l2.688,1.334c0.536,0,0.974-0.507,0.974-1.131v-4.637
		C108.823,100.144,108.388,99.637,107.852,99.637z"/>
	<path fill="#434343" d="M100.011,95.442c2.729,0,4.938-2.206,4.938-4.93c0-2.723-2.211-4.928-4.938-4.928
		c-2.727,0-4.938,2.205-4.938,4.928C95.072,93.236,97.283,95.442,100.011,95.442z M100.011,87.524c1.654,0,2.996,1.339,2.996,2.988
		c0,1.652-1.342,2.99-2.996,2.99c-1.657,0-2.997-1.338-2.997-2.99C97.014,88.863,98.354,87.524,100.011,87.524z"/>
	<path fill="#434343" d="M88.911,95.442c2.159,0,3.91-1.764,3.91-3.938c0-2.173-1.751-3.936-3.91-3.936
		c-2.16,0-3.911,1.763-3.911,3.936C85,93.681,86.751,95.442,88.911,95.442z M88.911,89.118c1.31,0,2.372,1.069,2.372,2.388
		c0,1.319-1.062,2.389-2.372,2.389c-1.312,0-2.373-1.067-2.373-2.389C86.538,90.188,87.601,89.118,88.911,89.118z"/>
	<path fill="#434343" d="M101.832,96.691H87.061c-1.139,0-2.061,0.938-2.061,2.098v8.614c0,1.155,0.922,2.097,2.061,2.097h14.771
		c1.139,0,2.061-0.939,2.061-2.097v-2.244v-3.919v-2.451C103.893,97.631,102.971,96.691,101.832,96.691z"/>
</g>
</svg>
