<?xml version="1.0" encoding="utf-8"?>
<!-- Generator: Adobe Illustrator 15.0.0, SVG Export Plug-In . SVG Version: 6.00 Build 0)  -->
<!DOCTYPE svg PUBLIC "-//W3C//DTD SVG 1.0//EN" "http://www.w3.org/TR/2001/REC-SVG-20010904/DTD/svg10.dtd">
<svg version="1.0" id="Layer_1" xmlns="http://www.w3.org/2000/svg" xmlns:xlink="http://www.w3.org/1999/xlink" x="0px" y="0px"
	 width="220px" height="227px" viewBox="0 0 220 227" enable-background="new 0 0 220 227" xml:space="preserve">
<g>
	<path fill="#434343" d="M98,111.09v2.41h3.733c0.683,0,1.235-0.562,1.235-1.258v-3.68h-2.437C99.136,108.562,98,109.696,98,111.09z
		"/>
	<path fill="#434343" d="M102.979,99.506l0.001-0.004h-0.002c0-0.157,0.001-0.33,0.001-0.533c0-3.016-2.453-5.469-5.468-5.469
		c-3.017,0-5.47,2.453-5.47,5.469c0,1.701,0.78,3.223,2.002,4.226v8.885c0,0.681,0.546,1.233,1.221,1.233h1.684v-2.459
		c0-2.291,1.094-3.479,3.5-3.479h2.47L102.979,99.506z M104,108.438h11.003c0.552,0,0.997-0.449,0.997-1.003v-6.932
		c0-0.554-0.445-1.003-0.997-1.003H104V108.438z M97.594,102.656c-2.033,0-3.688-1.654-3.688-3.688c0-2.034,1.654-3.688,3.688-3.688
		c2.034,0,3.688,1.654,3.688,3.688C101.282,101.002,99.627,102.656,97.594,102.656z M114.156,103.5H112v-1.156h2.156V103.5z"/>
</g>
</svg>
