<?xml version="1.0" encoding="utf-8"?>
<!-- Generator: Adobe Illustrator 15.0.0, SVG Export Plug-In . SVG Version: 6.00 Build 0)  -->
<!DOCTYPE svg PUBLIC "-//W3C//DTD SVG 1.0//EN" "http://www.w3.org/TR/2001/REC-SVG-20010904/DTD/svg10.dtd">
<svg version="1.0" id="Layer_1" xmlns="http://www.w3.org/2000/svg" xmlns:xlink="http://www.w3.org/1999/xlink" x="0px" y="0px"
	 width="220px" height="227px" viewBox="0 0 220 227" enable-background="new 0 0 220 227" xml:space="preserve">
<g>
	<g>
		<path fill="#434343" d="M111.113,112.5c-6.555,0-11.887-5.383-11.887-12s5.332-12,11.887-12S123,93.883,123,100.5
			S117.668,112.5,111.113,112.5z M111.113,91.164c-5.09,0-9.229,4.188-9.229,9.336s4.141,9.336,9.229,9.336s9.229-4.188,9.229-9.336
			S116.203,91.164,111.113,91.164z"/>
	</g>
	<path fill="#434343" d="M111.07,97.562c-3.715,0-6.572,1.239-7.955,3.646c0.059,0.737,0.248,1.442,0.537,2.104
		c1.959-1.016,5.691,2.846,4.521,4.562c0.928,0.316,1.826,0.553,2.879,0.553c1.035,0,2.113-0.184,3.027-0.49
		c-1.178-1.721,2.445-5.496,4.416-4.462c0.301-0.681,0.494-1.409,0.551-2.171C117.65,98.924,114.762,97.562,111.07,97.562z
		 M111.135,103.648c-1.186,0-2.145-0.957-2.145-2.139c0-1.18,0.959-2.137,2.145-2.137s2.146,0.957,2.146,2.137
		C113.279,102.691,112.318,103.648,111.135,103.648z M111.113,102.594c-0.6,0-1.084-0.482-1.084-1.076
		c0-0.595,0.484-1.076,1.084-1.076s1.086,0.481,1.086,1.076C112.199,102.111,111.713,102.594,111.113,102.594z"/>
</g>
</svg>
