<?xml version="1.0" encoding="utf-8"?>
<!-- Generator: Adobe Illustrator 15.0.0, SVG Export Plug-In . SVG Version: 6.00 Build 0)  -->
<!DOCTYPE svg PUBLIC "-//W3C//DTD SVG 1.0//EN" "http://www.w3.org/TR/2001/REC-SVG-20010904/DTD/svg10.dtd">
<svg version="1.0" id="Layer_1" xmlns="http://www.w3.org/2000/svg" xmlns:xlink="http://www.w3.org/1999/xlink" x="0px" y="0px"
	 width="220px" height="227px" viewBox="0 0 220 227" enable-background="new 0 0 220 227" xml:space="preserve">
<g>
	<path fill="#434343" d="M99,103.5h5v-15h-5V103.5z M102.031,101.531h-2.072v-1.094h2.072V101.531z M102.031,99.531h-2.072v-1.094
		h2.072V99.531z M99.959,90.438h2.072v1.096h-2.072V90.438z M99.959,92.438h2.072v1.096h-2.072V92.438z M101.5,94.25
		c0.967,0,1.75,0.783,1.75,1.75s-0.783,1.75-1.75,1.75s-1.75-0.783-1.75-1.75S100.533,94.25,101.5,94.25z"/>
	<rect x="107" y="92.531" fill="#434343" width="13" height="6.969"/>
	<path fill="#434343" d="M105,88.5v15h18v-15H105z M121,100.5h-15v-9.031h15V100.5z"/>
</g>
</svg>
