<?xml version="1.0" encoding="utf-8"?>
<!-- Generator: Adobe Illustrator 15.0.0, SVG Export Plug-In . SVG Version: 6.00 Build 0)  -->
<!DOCTYPE svg PUBLIC "-//W3C//DTD SVG 1.0//EN" "http://www.w3.org/TR/2001/REC-SVG-20010904/DTD/svg10.dtd">
<svg version="1.0" id="Layer_1" xmlns="http://www.w3.org/2000/svg" xmlns:xlink="http://www.w3.org/1999/xlink" x="0px" y="0px"
	 width="220px" height="227px" viewBox="0 0 220 227" enable-background="new 0 0 220 227" xml:space="preserve">
<g>
	<path fill="#434343" d="M107.057,96.6c0,2.699,2.223,7.861,4.959,7.861c2.738,0,4.958-5.162,4.958-7.861
		c0-0.354-0.044-0.7-0.115-1.037h-9.685C107.101,95.896,107.057,96.243,107.057,96.6z"/>
	<rect x="107.062" y="91.5" fill="#434343" width="9.875" height="2.875"/>
	<path fill="#434343" d="M117.682,104.582c-0.349,0.477-0.923,0.852-1.566,1.148v7.678h7.878
		C123.991,113.408,124.465,104.582,117.682,104.582z"/>
	<path fill="#434343" d="M112.007,106.741c0,0-4.325-0.425-5.598-2.122c-6.104,0-6.288,8.789-6.288,8.789h14.828v-7.303
		C113.479,106.586,112.007,106.741,112.007,106.741z M113.031,112.516h-1.062v-1.068h1.062V112.516z M113.031,109.516h-1.062v-1.068
		h1.062V109.516z"/>
</g>
</svg>
