<?xml version="1.0" encoding="utf-8"?>
<!-- Generator: Adobe Illustrator 15.0.0, SVG Export Plug-In . SVG Version: 6.00 Build 0)  -->
<!DOCTYPE svg PUBLIC "-//W3C//DTD SVG 1.0//EN" "http://www.w3.org/TR/2001/REC-SVG-20010904/DTD/svg10.dtd">
<svg version="1.0" id="Layer_1" xmlns="http://www.w3.org/2000/svg" xmlns:xlink="http://www.w3.org/1999/xlink" x="0px" y="0px"
	 width="220px" height="227px" viewBox="0 0 220 227" enable-background="new 0 0 220 227" xml:space="preserve">
<g>
	<path fill="#434343" d="M118,100.583h-2.146c-0.345-1.751-1.295-3.287-2.636-4.369c-1.285-1.038-2.918-1.662-4.694-1.662
		c-1.853,0-3.547,0.679-4.854,1.794c-1.604,1.369-2.626,3.398-2.626,5.664s1.021,4.296,2.626,5.664
		c1.31,1.116,3.003,1.795,4.854,1.795c1.776,0,3.409-0.625,4.694-1.661c1.33-1.073,2.277-2.595,2.627-4.329H118V100.583z
		 M113.218,105.506c-1.073,1.43-2.771,2.371-4.694,2.371c-2,0-3.767-1.006-4.828-2.529c-0.662-0.949-1.057-2.098-1.057-3.338
		c0-1.472,0.564-2.803,1.469-3.834c1.076-1.234,2.646-2.032,4.416-2.032c1.721,0,3.256,0.755,4.333,1.936
		c0.952,1.043,1.549,2.415,1.549,3.933C114.403,103.324,113.953,104.526,113.218,105.506z"/>
	<path fill="#434343" d="M112.99,93.404v-2.73c0-0.646-0.451-1.174-1.009-1.174h-6.909c-0.56,0-1.009,0.525-1.009,1.174V93.5
		c0.947-0.816,3.176-1.312,4.52-1.312C109.875,92.188,112.057,92.645,112.99,93.404z"/>
	<path fill="#434343" d="M104.104,110.406v2.023c0,0.537,0.446,0.977,1,0.977h6.848c0.553,0,0.999-0.438,0.999-0.977v-2.021
		c-0.924,0.759-3.087,1.216-4.366,1.216C107.252,111.625,105.046,111.223,104.104,110.406z"/>
	<polygon fill="#434343" points="108.96,97.521 108,97.521 108,102.396 108.104,102.396 108.104,102.459 111.917,102.459 
		111.917,101.5 108.96,101.5 	"/>
</g>
</svg>
