<?xml version="1.0" encoding="utf-8"?>
<!-- Generator: Adobe Illustrator 15.0.0, SVG Export Plug-In . SVG Version: 6.00 Build 0)  -->
<!DOCTYPE svg PUBLIC "-//W3C//DTD SVG 1.0//EN" "http://www.w3.org/TR/2001/REC-SVG-20010904/DTD/svg10.dtd">
<svg version="1.0" id="Layer_1" xmlns="http://www.w3.org/2000/svg" xmlns:xlink="http://www.w3.org/1999/xlink" x="0px" y="0px"
	 width="220px" height="227px" viewBox="0 0 220 227" enable-background="new 0 0 220 227" xml:space="preserve">
<path fill="#434343" d="M137.695,106.52c-0.756-3.94-3.701-6.895-7.219-6.895c-3.514,0-6.455,2.945-7.215,6.881
	c-0.701,0.018-1.263,0.465-1.263,1.024v3.349l-2.552-3.006l-0.008-0.006c0.47-0.816,0.574-1.598,0.182-2
	c-0.579-0.594-1.998-0.146-3.169,0.995c-1.173,1.144-1.654,2.551-1.075,3.145c0.396,0.405,1.184,0.316,2.016-0.139l4.606,9.077
	v3.355c0,0.568,0.58,1.03,1.299,1.03h14.278c0.718,0,1.298-0.462,1.298-1.03V107.53C138.875,106.994,138.354,106.568,137.695,106.52
	z M130.479,100.438c3.062,0,5.629,2.588,6.332,6.062h-12.666C124.848,103.025,127.416,100.438,130.479,100.438z"/>
</svg>
