<?xml version="1.0" encoding="utf-8"?>
<!-- Generator: Adobe Illustrator 15.0.0, SVG Export Plug-In . SVG Version: 6.00 Build 0)  -->
<!DOCTYPE svg PUBLIC "-//W3C//DTD SVG 1.0//EN" "http://www.w3.org/TR/2001/REC-SVG-20010904/DTD/svg10.dtd">
<svg version="1.0" id="Layer_1" xmlns="http://www.w3.org/2000/svg" xmlns:xlink="http://www.w3.org/1999/xlink" x="0px" y="0px"
	 width="220px" height="227px" viewBox="0 0 220 227" enable-background="new 0 0 220 227" xml:space="preserve">
<g>
	<ellipse fill="#434343" cx="112.503" cy="100.982" rx="2.44" ry="2.482"/>
	<g>
		<path fill="#434343" d="M123.328,121.467c-0.479,0-0.944-0.233-1.229-0.662l-2.836-4.308h-6.758c-0.813,0-1.477-0.67-1.477-1.495
			v-8.883c0-0.827,0.661-1.494,1.477-1.494c0.816,0,1.479,0.667,1.479,1.494v7.389h6.068c0.492,0,0.951,0.247,1.228,0.662l2.55,3.88
			l0.979-0.399c0.729-0.367,1.616-0.067,1.979,0.672c0.362,0.738,0.063,1.637-0.665,2.004l-2.141,0.984
			C123.773,121.416,123.549,121.467,123.328,121.467z"/>
	</g>
	<g>
		<path fill="#434343" d="M111.969,122.447c-4.394,0-7.969-3.568-7.969-7.953c0-2.582,1.264-5.014,3.381-6.504
			c0.451-0.318,1.076-0.211,1.396,0.242c0.316,0.449,0.21,1.072-0.243,1.393c-1.585,1.117-2.531,2.936-2.531,4.869
			c0,3.283,2.678,5.953,5.969,5.953c1.646,0,3.18-0.654,4.316-1.844c0.382-0.396,1.015-0.41,1.414-0.027
			c0.396,0.381,0.412,1.014,0.027,1.414C116.21,121.574,114.164,122.447,111.969,122.447z"/>
	</g>
</g>
</svg>
