<?xml version="1.0" encoding="utf-8"?>
<!-- Generator: Adobe Illustrator 15.0.0, SVG Export Plug-In . SVG Version: 6.00 Build 0)  -->
<!DOCTYPE svg PUBLIC "-//W3C//DTD SVG 1.0//EN" "http://www.w3.org/TR/2001/REC-SVG-20010904/DTD/svg10.dtd">
<svg version="1.0" id="Layer_1" xmlns="http://www.w3.org/2000/svg" xmlns:xlink="http://www.w3.org/1999/xlink" x="0px" y="0px"
	 width="220px" height="227px" viewBox="0 0 220 227" enable-background="new 0 0 220 227" xml:space="preserve">
<g>
	<path fill="#434343" d="M114.938,128.399c0,0.504-1.42,0.913-1.938,0.913l0,0c-0.518,0-1.938-0.409-1.938-0.913l1-10.861
		c0-0.504,0.42-0.913,0.938-0.913l0,0c0.518,0,0.938,0.409,0.938,0.913L114.938,128.399z"/>
	<ellipse fill="#434343" cx="113.062" cy="114.531" rx="1" ry="0.969"/>
	<path fill="#434343" d="M113.875,111.383c0,0.479-0.405,0.867-0.906,0.867l0,0c-0.501,0-0.906-0.388-0.906-0.867v-5.016
		c0-0.479,0.405-0.867,0.906-0.867l0,0c0.501,0,0.906,0.389,0.906,0.867V111.383z"/>
	<path fill="#434343" d="M106.451,119.183c-0.387,0.283-0.938,0.188-1.235-0.218l0,0c-0.296-0.402-0.223-0.959,0.163-1.243
		l4.045-2.968c0.385-0.282,0.938-0.186,1.235,0.218l0,0c0.295,0.404,0.222,0.961-0.164,1.243L106.451,119.183z"/>
	<path fill="#434343" d="M120.668,117.755c0.395,0.274,0.479,0.828,0.193,1.239l0,0c-0.287,0.41-0.836,0.521-1.229,0.246
		l-4.114-2.87c-0.392-0.273-0.479-0.829-0.19-1.239l0,0c0.288-0.41,0.838-0.52,1.229-0.247L120.668,117.755z"/>
</g>
</svg>
