<?xml version="1.0" encoding="utf-8"?>
<!-- Generator: Adobe Illustrator 15.0.0, SVG Export Plug-In . SVG Version: 6.00 Build 0)  -->
<!DOCTYPE svg PUBLIC "-//W3C//DTD SVG 1.0//EN" "http://www.w3.org/TR/2001/REC-SVG-20010904/DTD/svg10.dtd">
<svg version="1.0" id="Layer_1" xmlns="http://www.w3.org/2000/svg" xmlns:xlink="http://www.w3.org/1999/xlink" x="0px" y="0px"
	 width="220px" height="227px" viewBox="0 0 220 227" enable-background="new 0 0 220 227" xml:space="preserve">
<g>
	<path fill="#434343" d="M116.604,90.992c-0.105-0.404-7.652-7.953-8.03-8.059c-1.55-0.425-3.146-0.478-4.655-0.182l12.859,12.859
		C117.07,94.115,117.021,92.533,116.604,90.992z"/>
	<path fill="#434343" d="M99.354,100.299c3.188,3.188,7.796,4.003,11.523,2.409L96.946,88.777
		C95.354,92.507,96.17,97.113,99.354,100.299z"/>
	<path fill="#434343" d="M99.138,85.604c-0.401,0.403-0.751,0.843-1.062,1.298l14.681,14.68c0.454-0.312,0.894-0.66,1.295-1.062
		c0.812-0.812,1.425-1.752,1.873-2.752l-14.033-14.032C100.888,84.18,99.95,84.792,99.138,85.604z M111.641,95.91l1.063,1.062
		l-1.086,1.088l-1.063-1.064L111.641,95.91z M109.645,93.852l1.097,1.098l-1.117,1.116l-1.095-1.097L109.645,93.852z
		 M107.646,91.918l1.003,1.002l-1.117,1.117l-1.002-1.002L107.646,91.918z M105.62,89.953l1.095,1.095l-1.086,1.086l-1.095-1.095
		L105.62,89.953z M103.468,87.863l1.126,1.126l-1.021,1.021l-1.126-1.126L103.468,87.863z M102.598,86.992l-1.055,1.055
		l-1.032-1.032l1.056-1.054L102.598,86.992z"/>
	<polygon fill="#434343" points="113.424,81.501 111.108,83.854 116.701,89.535 119.018,87.183 	"/>
	<path fill="#434343" d="M120,83.395c0-1.57-1.25-2.849-2.787-2.849c-1.269,0-2.329,0.873-2.666,2.062l0.896,0.893
		c-0.005-0.035-0.013-0.068-0.013-0.104c-0.003-1.007,0.797-1.821,1.782-1.82s1.783,0.812,1.783,1.82
		c0,1.007-0.798,1.821-1.782,1.821c-0.021,0-0.04-0.006-0.062-0.007l0.891,0.891C119.172,85.737,120,84.67,120,83.395z"/>
</g>
</svg>
