<?xml version="1.0" encoding="utf-8"?>
<!-- Generator: Adobe Illustrator 15.0.0, SVG Export Plug-In . SVG Version: 6.00 Build 0)  -->
<!DOCTYPE svg PUBLIC "-//W3C//DTD SVG 1.0//EN" "http://www.w3.org/TR/2001/REC-SVG-20010904/DTD/svg10.dtd">
<svg version="1.0" id="Layer_1" xmlns="http://www.w3.org/2000/svg" xmlns:xlink="http://www.w3.org/1999/xlink" x="0px" y="0px"
	 width="220px" height="227px" viewBox="0 0 220 227" enable-background="new 0 0 220 227" xml:space="preserve">
<g>
	<path fill="#434343" d="M101.942,124.5H89.079c-0.585,0-1.058,0.447-1.058,1v21.916c0,0.553,0.473,1,1.058,1h12.863
		c0.585,0,1.058-0.447,1.058-1V125.5C103,124.947,102.527,124.5,101.942,124.5z M93.967,136.562V132.5h0.971v-1h-0.971v-1h0.971v-1
		h-0.971v-1h0.971v-1h-0.971l0.021-1h0.948v-1h2.135v1h-1.023v1h1.023v1h-1.023v1h1.023v1h-1.023v1h1.023v5.062H93.967z"/>
	<rect x="95.038" y="134.5" fill="#434343" width="0.946" height="1"/>
</g>
</svg>
