<?xml version="1.0" encoding="utf-8"?>
<!-- Generator: Adobe Illustrator 15.0.0, SVG Export Plug-In . SVG Version: 6.00 Build 0)  -->
<!DOCTYPE svg PUBLIC "-//W3C//DTD SVG 1.0//EN" "http://www.w3.org/TR/2001/REC-SVG-20010904/DTD/svg10.dtd">
<svg version="1.0" id="Layer_1" xmlns="http://www.w3.org/2000/svg" xmlns:xlink="http://www.w3.org/1999/xlink" x="0px" y="0px"
	 width="220px" height="227px" viewBox="0 0 220 227" enable-background="new 0 0 220 227" xml:space="preserve">
<g>
	<path fill="#434343" d="M115,109.487c0-4.913-3.999-8.896-8.932-8.896c-4.934,0-8.933,3.981-8.933,8.896
		c0,4.912,3.999,8.895,8.933,8.895C111.001,118.382,115,114.399,115,109.487z M99.393,109.487c0-3.672,2.988-6.646,6.676-6.646
		c3.687,0,6.675,2.977,6.675,6.646s-2.988,6.646-6.675,6.646C102.381,116.134,99.393,113.159,99.393,109.487z"/>
	<path fill="#434343" d="M93.898,124.5l-2.729-2.729l6.213-6.215c0,0,0.131,1.158,0.854,1.883c0.725,0.725,1.875,0.848,1.875,0.848
		L93.898,124.5z"/>
	<path fill="#434343" d="M109.01,108.5H107v-2.01c0-0.547-0.447-0.99-1-0.99s-1,0.443-1,0.99v2.01h-2.01c-0.547,0-0.99,0.447-0.99,1
		s0.443,1,0.99,1H105v2.01c0,0.547,0.447,0.99,1,0.99s1-0.443,1-0.99v-2.01h2.01c0.547,0,0.99-0.447,0.99-1
		S109.557,108.5,109.01,108.5z"/>
</g>
</svg>
