<?xml version="1.0" encoding="utf-8"?>
<!-- Generator: Adobe Illustrator 15.0.0, SVG Export Plug-In . SVG Version: 6.00 Build 0)  -->
<!DOCTYPE svg PUBLIC "-//W3C//DTD SVG 1.0//EN" "http://www.w3.org/TR/2001/REC-SVG-20010904/DTD/svg10.dtd">
<svg version="1.0" id="Layer_1" xmlns="http://www.w3.org/2000/svg" xmlns:xlink="http://www.w3.org/1999/xlink" x="0px" y="0px"
	 width="52px" height="53px" viewBox="0 0 52 53" enable-background="new 0 0 52 53" xml:space="preserve">
<g>
	<g>
		<g>
			<g>
				<path fill="#231F20" d="M35.707,16.207c6.271,2.004,9.742,8.732,7.74,14.997c-2.002,6.264-8.732,9.733-15.003,7.729
					c-6.27-2.003-9.742-8.732-7.74-14.999C22.706,17.671,29.438,14.203,35.707,16.207z M28.925,37.228
					c5.309,1.696,11.008-1.252,12.708-6.572c1.7-5.319-1.234-11.026-6.542-12.722c-5.309-1.696-11.009,1.251-12.709,6.57
					C20.682,29.824,23.618,35.532,28.925,37.228z"/>
			</g>
		</g>
	</g>
</g>
<g>
	<path fill="#231F20" d="M31.074,32.559c-0.174,0-0.35-0.045-0.51-0.141c-0.476-0.281-0.631-0.896-0.349-1.371l3-5.041
		c0.25-0.42,0.769-0.6,1.224-0.42l5,1.959c0.515,0.201,0.769,0.781,0.566,1.295c-0.201,0.514-0.781,0.768-1.296,0.566l-4.21-1.648
		l-2.566,4.312C31.747,32.385,31.415,32.559,31.074,32.559z"/>
</g>
<g>
	<path fill="#231F20" d="M25.242,24.559c-0.303,0-0.604-0.137-0.799-0.396c-0.334-0.439-0.246-1.066,0.195-1.398l3.916-2.959
		c0.44-0.334,1.069-0.244,1.4,0.193c0.333,0.441,0.246,1.068-0.195,1.4l-3.917,2.959C25.664,24.494,25.452,24.559,25.242,24.559z"/>
</g>
<g>
	<path fill="#231F20" d="M38.075,20.518h-4.833c-0.553,0-1-0.447-1-1s0.447-1,1-1h4.833c0.552,0,1,0.447,1,1
		S38.627,20.518,38.075,20.518z"/>
</g>
</svg>
