<?xml version="1.0" encoding="utf-8"?>
<!-- Generator: Adobe Illustrator 15.0.0, SVG Export Plug-In . SVG Version: 6.00 Build 0)  -->
<!DOCTYPE svg PUBLIC "-//W3C//DTD SVG 1.0//EN" "http://www.w3.org/TR/2001/REC-SVG-20010904/DTD/svg10.dtd">
<svg version="1.0" id="Layer_1" xmlns="http://www.w3.org/2000/svg" xmlns:xlink="http://www.w3.org/1999/xlink" x="0px" y="0px"
	 width="52px" height="53px" viewBox="0 0 52 53" enable-background="new 0 0 52 53" xml:space="preserve">
<g>
	<g>
		<g>
			<path fill="#231F20" d="M29.982,37.145c-6.594,0-11.959-5.334-11.959-11.887c0-6.557,5.365-11.889,11.959-11.889
				s11.957,5.332,11.957,11.889C41.939,31.811,36.576,37.145,29.982,37.145z M29.982,15.084c-5.645,0-10.233,4.562-10.233,10.174
				c0,5.607,4.591,10.172,10.233,10.172c5.642,0,10.231-4.562,10.231-10.172C40.216,19.646,35.625,15.084,29.982,15.084z"/>
		</g>
	</g>
	<g>
		<g>
			<path fill="#231F20" d="M20.996,26.27c-0.546,0-0.988-0.447-0.988-1c0-2.721,5.154-3.959,9.943-3.959
				c4.787,0,9.941,1.238,9.941,3.959c0,0.553-0.441,1-0.988,1c-0.545,0-0.986-0.447-0.986-1c-0.075-0.586-2.852-2.053-7.939-2.053
				c-5.092,0-7.92,1.467-7.994,2.053C21.982,25.822,21.541,26.27,20.996,26.27z"/>
		</g>
	</g>
	<g>
		<g>
			<path fill="#231F20" d="M26.951,19.291c-0.127,0-0.256-0.027-0.381-0.086l-4.012-1.842c-0.492-0.229-0.722-0.842-0.511-1.367
				c0.21-0.531,0.78-0.775,1.271-0.549l4.013,1.844c0.492,0.227,0.721,0.838,0.511,1.367C27.686,19.053,27.328,19.291,26.951,19.291
				z"/>
		</g>
	</g>
	<g>
		<g>
			<path fill="#231F20" d="M32.958,19.254c-0.374,0-0.729-0.229-0.892-0.609c-0.219-0.518,0.004-1.123,0.496-1.352l4.01-1.869
				c0.49-0.229,1.066,0.006,1.285,0.521c0.219,0.52-0.004,1.123-0.496,1.354l-4.01,1.869C33.225,19.227,33.09,19.254,32.958,19.254z
				"/>
		</g>
	</g>
	<g>
		<g>
			<path fill="#231F20" d="M32.445,27.26c-0.271,0-0.489-0.17-0.489-0.379c0-0.369-0.858-0.785-2.011-0.785
				c-1.15,0-2.01,0.416-2.01,0.785c0,0.209-0.221,0.379-0.488,0.379c-0.271,0-0.49-0.17-0.49-0.379c0-0.861,1.312-1.539,2.988-1.539
				c1.677,0,2.99,0.678,2.99,1.539C32.936,27.09,32.717,27.26,32.445,27.26z"/>
		</g>
	</g>
</g>
</svg>
