<?xml version="1.0" encoding="utf-8"?>
<!-- Generator: Adobe Illustrator 15.0.0, SVG Export Plug-In . SVG Version: 6.00 Build 0)  -->
<!DOCTYPE svg PUBLIC "-//W3C//DTD SVG 1.0//EN" "http://www.w3.org/TR/2001/REC-SVG-20010904/DTD/svg10.dtd">
<svg version="1.0" id="Layer_1" xmlns="http://www.w3.org/2000/svg" xmlns:xlink="http://www.w3.org/1999/xlink" x="0px" y="0px"
	 width="52px" height="53px" viewBox="0 0 52 53" enable-background="new 0 0 52 53" xml:space="preserve">
<g>
	<g>
		<g>
			<g>
				<path fill="#231F20" d="M28.346,39.5c-6.617,0-12-5.383-12-12s5.383-12,12-12s12,5.383,12,12S34.963,39.5,28.346,39.5z
					 M28.346,17.27c-5.641,0-10.229,4.591-10.229,10.23s4.59,10.23,10.229,10.23c5.641,0,10.232-4.591,10.232-10.23
					S33.986,17.27,28.346,17.27z"/>
			</g>
		</g>
		<g>
			<g>
				<path fill="#231F20" d="M24.305,24.718c0,1.515-0.652,2.741-1.457,2.741c-0.807,0-1.459-1.228-1.459-2.741
					C21.389,23.205,24.305,23.205,24.305,24.718z"/>
			</g>
		</g>
		<g>
			<g>
				<path fill="#231F20" d="M35.305,24.718c0,1.515-0.652,2.741-1.459,2.741c-0.805,0-1.457-1.228-1.457-2.741
					C32.389,23.205,35.305,23.205,35.305,24.718z"/>
			</g>
		</g>
		<g>
			<g>
				<path fill="#231F20" d="M28.367,36.416c-3.756,0-7.957-2.75-7.957-6.43c0-0.271,0.223-0.486,0.5-0.486h14.916
					c0.275,0,0.498,0.217,0.498,0.486C36.324,33.666,32.125,36.416,28.367,36.416z M21.439,30.471
					c0.367,2.838,3.881,5.113,6.928,5.113s6.561-2.275,6.928-5.113H21.439z"/>
			</g>
		</g>
	</g>
	<g>
		<g>
			<rect x="19.996" y="18.654" fill="#231F20" width="17.291" height="1.885"/>
		</g>
	</g>
	<g>
		<g>
			<path fill="#231F20" d="M30.348,25.5c-0.367,0-0.721-0.202-0.896-0.553l-2-4c-0.246-0.494-0.048-1.096,0.446-1.342
				c0.496-0.248,1.097-0.048,1.343,0.446l2,4c0.248,0.494,0.047,1.096-0.447,1.343C30.65,25.467,30.496,25.5,30.348,25.5z"/>
		</g>
	</g>
	<g>
		<g>
			<path fill="#231F20" d="M26.346,25.5c-0.15,0-0.303-0.033-0.447-0.105c-0.494-0.246-0.692-0.848-0.446-1.342l2-4
				c0.248-0.494,0.848-0.694,1.342-0.446c0.494,0.247,0.694,0.848,0.447,1.342l-2,4C27.066,25.298,26.713,25.5,26.346,25.5z"/>
		</g>
	</g>
</g>
</svg>
