<?xml version="1.0" encoding="utf-8"?>
<!-- Generator: Adobe Illustrator 15.0.0, SVG Export Plug-In . SVG Version: 6.00 Build 0)  -->
<!DOCTYPE svg PUBLIC "-//W3C//DTD SVG 1.0//EN" "http://www.w3.org/TR/2001/REC-SVG-20010904/DTD/svg10.dtd">
<svg version="1.0" id="Layer_1" xmlns="http://www.w3.org/2000/svg" xmlns:xlink="http://www.w3.org/1999/xlink" x="0px" y="0px"
	 width="52px" height="53px" viewBox="0 0 52 53" enable-background="new 0 0 52 53" xml:space="preserve">
<g>
	<g>
		<g>
			<path fill="#231F20" d="M27.205,36.98c-6.605,0-11.98-5.375-11.98-11.98c0-6.606,5.375-11.98,11.98-11.98
				S39.184,18.395,39.184,25S33.811,36.98,27.205,36.98z M27.205,14.914c-5.561,0-10.086,4.523-10.086,10.086
				s4.525,10.086,10.086,10.086S37.291,30.562,37.291,25S32.766,14.914,27.205,14.914z"/>
		</g>
	</g>
	<g>
		<g>
			<path fill="#231F20" d="M27.215,32.957c-4.402,0-7.984-3.037-7.984-6.771c0-0.405,0.164-1.086,1.263-1.086
				c0.541,0,1.239,0.152,2.123,0.348c1.28,0.279,2.872,0.629,4.6,0.629c1.722,0,3.312-0.358,4.586-0.647
				c0.886-0.198,1.587-0.356,2.132-0.356c1.104,0,1.268,0.699,1.268,1.115C35.199,29.92,31.617,32.957,27.215,32.957z
				 M20.693,26.056c-0.363,0-0.363,0.065-0.363,0.229c0,3.161,3.088,5.731,6.885,5.731s6.887-2.57,6.887-5.731
				c0-0.181,0-0.256-0.371-0.256c-0.43,0-4.59,0.889-6.358,0.889C25.6,26.916,21.121,26.056,20.693,26.056z"/>
		</g>
	</g>
	<g>
		<g>
			<ellipse fill="#231F20" cx="23.184" cy="20.021" rx="1.896" ry="1.979"/>
		</g>
	</g>
	<g>
		<g>
			<circle fill="#231F20" cx="31.227" cy="20.021" r="1.979"/>
		</g>
	</g>
</g>
</svg>
