<?xml version="1.0" encoding="utf-8"?>
<!-- Generator: Adobe Illustrator 15.0.0, SVG Export Plug-In . SVG Version: 6.00 Build 0)  -->
<!DOCTYPE svg PUBLIC "-//W3C//DTD SVG 1.0//EN" "http://www.w3.org/TR/2001/REC-SVG-20010904/DTD/svg10.dtd">
<svg version="1.0" id="Layer_1" xmlns="http://www.w3.org/2000/svg" xmlns:xlink="http://www.w3.org/1999/xlink" x="0px" y="0px"
	 width="52px" height="53px" viewBox="0 0 52 53" enable-background="new 0 0 52 53" xml:space="preserve">
<g>
	<g>
		<g>
			<path fill="#231F20" d="M28.492,35.121c0,0-4.85-0.162-6.73-2.297c-0.365-0.416-0.324-1.047,0.09-1.412s1.045-0.326,1.412,0.09
				c1.35,1.533,3.246,1.744,5.229,1.744c2.209,0,3.862-0.285,5.147-1.744c0.365-0.414,0.996-0.455,1.412-0.09
				c0.414,0.365,0.453,0.996,0.09,1.412C33.174,35.059,28.492,35.121,28.492,35.121z"/>
		</g>
	</g>
	<g>
		<g>
			<path fill="#231F20" d="M28.404,40.125c-6.592,0-11.953-5.357-11.953-11.941c0-6.586,5.361-11.942,11.953-11.942
				s11.953,5.356,11.953,11.942C40.357,34.768,34.996,40.125,28.404,40.125z M28.404,18.082c-5.574,0-10.111,4.531-10.111,10.102
				c0,5.571,4.537,10.103,10.111,10.103c5.576,0,10.111-4.531,10.111-10.103C38.516,22.613,33.98,18.082,28.404,18.082z"/>
		</g>
	</g>
	<g>
		<g>
			<path fill="#231F20" d="M27.389,23.895c0,1.906-3.34,4.23-5.332,4.23c-1.99,0-3.604-0.793-3.604-3.451s1.041-3.449,3.604-3.449
				C24.049,21.225,27.389,21.988,27.389,23.895z"/>
		</g>
	</g>
	<g>
		<g>
			<path fill="#231F20" d="M29.451,23.855c0,1.924,3.365,4.27,5.369,4.27c2.006,0,3.631-0.799,3.631-3.482
				c0-2.682-1.049-3.479-3.631-3.479C32.816,21.162,29.451,21.934,29.451,23.855z"/>
		</g>
	</g>
	<g>
		<g>
			<path fill="#231F20" d="M31.729,25.084c-0.172,0-0.346-0.043-0.504-0.137c-1.764-1.029-3.812-1.07-5.594-0.109
				c-0.486,0.262-1.094,0.08-1.355-0.406c-0.26-0.485-0.08-1.092,0.406-1.354c2.394-1.289,5.189-1.238,7.553,0.143
				c0.478,0.279,0.638,0.894,0.357,1.369C32.406,24.908,32.072,25.084,31.729,25.084z"/>
		</g>
	</g>
</g>
</svg>
