<?xml version="1.0" encoding="utf-8"?>
<!-- Generator: Adobe Illustrator 15.0.0, SVG Export Plug-In . SVG Version: 6.00 Build 0)  -->
<!DOCTYPE svg PUBLIC "-//W3C//DTD SVG 1.0//EN" "http://www.w3.org/TR/2001/REC-SVG-20010904/DTD/svg10.dtd">
<svg version="1.0" id="Layer_1" xmlns="http://www.w3.org/2000/svg" xmlns:xlink="http://www.w3.org/1999/xlink" x="0px" y="0px"
	 width="52px" height="53px" viewBox="0 0 52 53" enable-background="new 0 0 52 53" xml:space="preserve">
<g>
	<g>
		<g>
			<path fill="#231F20" d="M27.662,35.432c-6.594,0-11.958-5.375-11.958-11.979c0-6.607,5.364-11.98,11.958-11.98
				c6.595,0,11.959,5.373,11.959,11.98C39.621,30.057,34.257,35.432,27.662,35.432z M27.665,13.377
				c-5.541,0-10.052,4.52-10.052,10.074c0,5.553,4.511,10.07,10.052,10.07s10.05-4.52,10.05-10.07
				C37.715,17.896,33.206,13.377,27.665,13.377z"/>
		</g>
	</g>
	<g>
		<g>
			<path fill="#231F20" d="M17.684,19.326c-0.552,0-1-0.447-1-1v-6.875c0-0.555,0.448-1,1-1c0.553,0,1,0.445,1,1v6.875
				C18.684,18.879,18.236,19.326,17.684,19.326z"/>
		</g>
	</g>
	<g>
		<g>
			<path fill="#231F20" d="M37.684,19.326c-0.552,0-1-0.447-1-1v-6.875c0-0.555,0.448-1,1-1c0.553,0,1,0.445,1,1v6.875
				C38.684,18.879,38.234,19.326,37.684,19.326z"/>
		</g>
	</g>
	<g>
		<path fill="#231F20" d="M27.684,15.451c-6.593,0-10.938,1.564-10.938,3.5c0,1.932,4.345,3.5,10.938,3.5
			c6.594,0,10.938-1.568,10.938-3.5C38.621,17.018,34.275,15.451,27.684,15.451z M23.684,20.482c-1.121,0-2.031-0.908-2.031-2.029
			s0.91-2.031,2.031-2.031s2.031,0.91,2.031,2.031S24.805,20.482,23.684,20.482z M31.684,20.514c-1.139,0-2.062-0.924-2.062-2.062
			s0.924-2.062,2.062-2.062c1.14,0,2.062,0.924,2.062,2.062S32.822,20.514,31.684,20.514z"/>
	</g>
</g>
</svg>
