<?xml version="1.0" encoding="utf-8"?>
<!-- Generator: Adobe Illustrator 15.0.0, SVG Export Plug-In . SVG Version: 6.00 Build 0)  -->
<!DOCTYPE svg PUBLIC "-//W3C//DTD SVG 1.0//EN" "http://www.w3.org/TR/2001/REC-SVG-20010904/DTD/svg10.dtd">
<svg version="1.0" id="Layer_1" xmlns="http://www.w3.org/2000/svg" xmlns:xlink="http://www.w3.org/1999/xlink" x="0px" y="0px"
	 width="52px" height="53px" viewBox="0 0 52 53" enable-background="new 0 0 52 53" xml:space="preserve">
<g>
	<g>
		<g>
			<path fill="#231F20" d="M26.292,36.922c-6.584,0-11.938-5.375-11.938-11.98s5.354-11.979,11.938-11.979
				c6.583,0,11.938,5.373,11.938,11.979S32.875,36.922,26.292,36.922z M26.292,14.795c-5.53,0-10.028,4.535-10.028,10.104
				c0,5.572,4.498,10.105,10.028,10.105c5.528,0,10.028-4.533,10.028-10.105C36.32,19.33,31.822,14.795,26.292,14.795z"/>
		</g>
	</g>
	<g>
		<g>
			<path fill="#231F20" d="M26.292,32.889c-3.306,0-5.965-2.328-5.965-4.254c0-1.238,1.034-2.715,5.965-2.715
				c4.929,0,5.964,1.477,5.964,2.715C32.256,30.561,29.596,32.889,26.292,32.889z M26.292,26.713c-1.536,0-5.106,0.188-5.106,1.914
				c0,1.379,2.192,3.506,5.106,3.506s5.106-2.127,5.106-3.506C31.4,26.9,27.828,26.713,26.292,26.713z"/>
		</g>
	</g>
	<g>
		<g>
			<path fill="#231F20" d="M32.23,22.867H20.355c-0.554,0-1-0.43-1-0.957c0-0.529,0.446-0.959,1-0.959H32.23c0.552,0,1,0.43,1,0.959
				C33.23,22.438,32.782,22.867,32.23,22.867z"/>
		</g>
	</g>
	<g>
		<g>
			<path fill="#231F20" d="M25.198,22.826c-0.218,0-0.438-0.07-0.621-0.219l-3.845-2.844c-0.433-0.344-0.504-0.973-0.16-1.404
				c0.343-0.434,0.974-0.504,1.404-0.16l3.844,2.844c0.434,0.344,0.506,0.973,0.162,1.404
				C25.785,22.697,25.493,22.826,25.198,22.826z"/>
		</g>
	</g>
	<g>
		<g>
			<path fill="#231F20" d="M27.355,22.92c-0.297,0-0.59-0.131-0.787-0.381c-0.34-0.436-0.267-1.062,0.168-1.404l4-2.938
				c0.435-0.344,1.063-0.27,1.404,0.166c0.342,0.436,0.268,1.061-0.166,1.402l-4.002,2.938C27.791,22.85,27.573,22.92,27.355,22.92z
				"/>
		</g>
	</g>
</g>
</svg>
