<?xml version="1.0" encoding="utf-8"?>
<!-- Generator: Adobe Illustrator 15.0.0, SVG Export Plug-In . SVG Version: 6.00 Build 0)  -->
<!DOCTYPE svg PUBLIC "-//W3C//DTD SVG 1.0//EN" "http://www.w3.org/TR/2001/REC-SVG-20010904/DTD/svg10.dtd">
<svg version="1.0" id="Layer_1" xmlns="http://www.w3.org/2000/svg" xmlns:xlink="http://www.w3.org/1999/xlink" x="0px" y="0px"
	 width="52px" height="53px" viewBox="0 0 52 53" enable-background="new 0 0 52 53" xml:space="preserve">
<g>
	<g>
		<g>
			<g>
				<path fill="#231F20" d="M28.521,37.457c-6.582,0-11.938-5.363-11.938-11.957s5.354-11.957,11.938-11.957
					c6.582,0,11.938,5.363,11.938,11.957S35.104,37.457,28.521,37.457z M28.584,15.375c-5.548,0-10.062,4.521-10.062,10.076
					s4.514,10.074,10.062,10.074s10.062-4.521,10.062-10.074C38.646,19.896,34.132,15.375,28.584,15.375z"/>
			</g>
		</g>
		<g>
			<g>
				<ellipse fill="#231F20" cx="33.084" cy="22" rx="1.416" ry="2.459"/>
			</g>
		</g>
		<g>
			<g>
				<ellipse fill="#231F20" cx="24.084" cy="22" rx="1.416" ry="2.459"/>
			</g>
		</g>
	</g>
	<g>
		<g>
			<path fill="#231F20" d="M31.401,32.428c-1.207,0-2.188-0.701-2.83-1.344c-0.676,0.65-1.711,1.354-2.985,1.279
				c-1.504-0.09-2.815-1.24-3.897-3.418c-0.246-0.494-0.043-1.098,0.451-1.34c0.493-0.248,1.096-0.045,1.34,0.447
				c0.722,1.449,1.512,2.271,2.228,2.312c0.925,0.062,1.842-1.078,2.043-1.385c0.187-0.283,0.497-0.471,0.842-0.449
				c0.341,0.002,0.654,0.176,0.836,0.461c0.253,0.387,1.179,1.488,2.046,1.434c0.709-0.045,1.494-0.885,2.215-2.361
				c0.238-0.498,0.836-0.705,1.336-0.465c0.496,0.24,0.703,0.842,0.461,1.338c-1.078,2.225-2.393,3.396-3.899,3.484
				C31.521,32.428,31.461,32.428,31.401,32.428z"/>
		</g>
	</g>
</g>
</svg>
