<?xml version="1.0" encoding="utf-8"?>
<!-- Generator: Adobe Illustrator 15.0.0, SVG Export Plug-In . SVG Version: 6.00 Build 0)  -->
<!DOCTYPE svg PUBLIC "-//W3C//DTD SVG 1.0//EN" "http://www.w3.org/TR/2001/REC-SVG-20010904/DTD/svg10.dtd">
<svg version="1.0" id="Layer_1" xmlns="http://www.w3.org/2000/svg" xmlns:xlink="http://www.w3.org/1999/xlink" x="0px" y="0px"
	 width="52px" height="53px" viewBox="0 0 52 53" enable-background="new 0 0 52 53" xml:space="preserve">
<g>
	<g>
		<g>
			<g>
				<path fill="#231F20" d="M27.404,37.45c-6.582,0-11.938-5.361-11.938-11.95s5.354-11.95,11.938-11.95
					c6.582,0,11.938,5.361,11.938,11.95S33.986,37.45,27.404,37.45z M27.363,15.442c-5.562,0-10.088,4.529-10.088,10.1
					c0,5.568,4.524,10.099,10.088,10.099c5.562,0,10.088-4.529,10.088-10.099S32.926,15.442,27.363,15.442z"/>
			</g>
		</g>
		<g>
			<g>
				<ellipse fill="#231F20" cx="31.885" cy="22.094" rx="1.459" ry="2.417"/>
			</g>
		</g>
	</g>
	<g>
		<g>
			<path fill="#231F20" d="M21.324,24.428c-0.363,0.001-0.711-0.197-0.881-0.539c-0.238-0.479-0.039-1.058,0.445-1.293l2.223-1.078
				L20.879,20.4c-0.482-0.24-0.674-0.822-0.43-1.298c0.246-0.477,0.836-0.666,1.316-0.425l3.979,1.991
				c0.332,0.166,0.539,0.502,0.537,0.867c-0.002,0.366-0.215,0.699-0.547,0.861l-3.979,1.931
				C21.615,24.396,21.469,24.428,21.324,24.428z"/>
		</g>
	</g>
	<g>
		<g>
			<path fill="#231F20" d="M27.342,33.511c-3.924,0-6.998-2.127-6.998-4.842c0-0.594,0.447-1.075,1-1.075c0.551,0,1,0.481,1,1.075
				c0,1.273,2.094,2.926,5.041,2.926s4.959-1.651,4.959-2.926c0-0.594,0.447-1.075,0.998-1.075c0.553,0,1.002,0.481,1.002,1.075
				C34.344,31.384,31.268,33.511,27.342,33.511z"/>
		</g>
	</g>
</g>
</svg>
