<?xml version="1.0" encoding="utf-8"?>
<!-- Generator: Adobe Illustrator 15.0.0, SVG Export Plug-In . SVG Version: 6.00 Build 0)  -->
<!DOCTYPE svg PUBLIC "-//W3C//DTD SVG 1.0//EN" "http://www.w3.org/TR/2001/REC-SVG-20010904/DTD/svg10.dtd">
<svg version="1.0" id="Layer_1" xmlns="http://www.w3.org/2000/svg" xmlns:xlink="http://www.w3.org/1999/xlink" x="0px" y="0px"
	 width="52px" height="53px" viewBox="0 0 52 53" enable-background="new 0 0 52 53" xml:space="preserve">
<g>
	<g>
		<g>
			<ellipse fill="#231F20" cx="17.908" cy="24.267" rx="1.457" ry="2.417"/>
		</g>
	</g>
	<g>
		<g>
			<ellipse fill="#231F20" cx="24.99" cy="24.267" rx="1.458" ry="2.417"/>
		</g>
	</g>
	<g>
		<g>
			<path fill="#231F20" d="M21.438,38.667c-6.601,0-11.969-5.366-11.969-11.962s5.368-11.962,11.969-11.962
				s11.97,5.366,11.97,11.962S28.039,38.667,21.438,38.667z M21.438,16.555c-5.601,0-10.157,4.555-10.157,10.15
				s4.557,10.15,10.157,10.15s10.156-4.555,10.156-10.15S27.039,16.555,21.438,16.555z"/>
		</g>
	</g>
	<g>
		<g>
			<path fill="#231F20" d="M20.449,23.684c-0.104,0-0.211-0.016-0.316-0.051l-6-2c-0.523-0.176-0.807-0.742-0.631-1.266
				c0.174-0.523,0.738-0.809,1.265-0.633l6,2c0.524,0.176,0.807,0.742,0.632,1.266C21.258,23.42,20.869,23.684,20.449,23.684z"/>
		</g>
	</g>
	<g>
		<g>
			<path fill="#231F20" d="M22.449,23.684c-0.419,0-0.809-0.265-0.949-0.684c-0.174-0.523,0.108-1.09,0.633-1.266l6-2
				c0.525-0.176,1.091,0.108,1.265,0.633c0.175,0.522-0.108,1.09-0.632,1.266l-6,2C22.66,23.669,22.554,23.684,22.449,23.684z"/>
		</g>
	</g>
	<g>
		<g>
			<path fill="#231F20" d="M21.49,31.602c-5.34,0-7.978-0.68-7.978-2.334c0-0.275,0.237-0.5,0.53-0.5s0.53,0.225,0.53,0.5
				c0,0.674,1.802,1.459,6.875,1.459c5.074,0,6.875-0.785,6.875-1.459c0-0.275,0.237-0.5,0.53-0.5s0.531,0.225,0.531,0.5
				C29.387,30.922,26.832,31.602,21.49,31.602z"/>
		</g>
	</g>
</g>
</svg>
