<?xml version="1.0" encoding="utf-8"?>
<!-- Generator: Adobe Illustrator 15.0.0, SVG Export Plug-In . SVG Version: 6.00 Build 0)  -->
<!DOCTYPE svg PUBLIC "-//W3C//DTD SVG 1.0//EN" "http://www.w3.org/TR/2001/REC-SVG-20010904/DTD/svg10.dtd">
<svg version="1.0" id="Layer_1" xmlns="http://www.w3.org/2000/svg" xmlns:xlink="http://www.w3.org/1999/xlink" x="0px" y="0px"
	 width="52px" height="53px" viewBox="0 0 52 53" enable-background="new 0 0 52 53" xml:space="preserve">
<g>
	<g>
		<g>
			<path fill="#231F20" d="M26.959,35.258c-6.583,0-11.938-5.383-11.938-12s5.355-12,11.938-12s11.938,5.383,11.938,12
				S33.542,35.258,26.959,35.258z M27.035,13.174c-5.592,0-10.139,4.523-10.139,10.084s4.547,10.084,10.139,10.084
				c5.591,0,10.139-4.523,10.139-10.084S32.626,13.174,27.035,13.174z"/>
		</g>
	</g>
	<g>
		<g>
			<circle fill="#231F20" cx="22.459" cy="19.778" r="2.438"/>
		</g>
	</g>
	<g>
		<g>
			<circle fill="#231F20" cx="30.084" cy="19.278" r="3.938"/>
		</g>
	</g>
	<g>
		<g>
			<polygon fill="#231F20" points="37.363,27.01 22.363,14.01 23.68,12.506 38.68,25.506 			"/>
		</g>
	</g>
	<g>
		<g>
			<path fill="#231F20" d="M27.021,31.258c-3.926,0-7-2.135-7-4.857c0-0.598,0.447-1.08,1-1.08c0.552,0,1,0.482,1,1.08
				c0,1.275,2.053,2.92,5,2.92c2.946,0,5-1.645,5-2.92c0-0.598,0.447-1.08,1-1.08c0.552,0,1,0.482,1,1.08
				C34.021,29.123,30.945,31.258,27.021,31.258z"/>
		</g>
	</g>
</g>
</svg>
