<?xml version="1.0" encoding="utf-8"?>
<!-- Generator: Adobe Illustrator 15.0.0, SVG Export Plug-In . SVG Version: 6.00 Build 0)  -->
<!DOCTYPE svg PUBLIC "-//W3C//DTD SVG 1.0//EN" "http://www.w3.org/TR/2001/REC-SVG-20010904/DTD/svg10.dtd">
<svg version="1.0" id="Layer_1" xmlns="http://www.w3.org/2000/svg" xmlns:xlink="http://www.w3.org/1999/xlink" x="0px" y="0px"
	 width="52px" height="53px" viewBox="0 0 52 53" enable-background="new 0 0 52 53" xml:space="preserve">
<g>
	<g>
		<g>
			<path fill="#231F20" d="M26.984,39.258c-6.594,0-11.958-5.383-11.958-12s5.364-12,11.958-12c6.594,0,11.957,5.383,11.957,12
				S33.578,39.258,26.984,39.258z M27.034,17.156c-5.578,0-10.116,4.529-10.116,10.102s4.538,10.102,10.116,10.102
				c5.579,0,10.116-4.529,10.116-10.102S32.613,17.156,27.034,17.156z"/>
		</g>
	</g>
	<g>
		<g>
			<path fill="#231F20" d="M25.026,33.258h-3c-1.654,0-3-1.346-3-3c0-0.553,0.448-1,1-1c0.552,0,1,0.447,1,1c0,0.551,0.449,1,1,1h3
				c0.552,0,1,0.447,1,1S25.578,33.258,25.026,33.258z"/>
		</g>
	</g>
	<g>
		<g>
			<path fill="#231F20" d="M32.025,33.258h-3c-0.551,0-1-0.447-1-1s0.449-1,1-1h3c0.552,0,1-0.449,1-1c0-0.553,0.449-1,1-1
				c0.553,0,1,0.447,1,1C35.025,31.912,33.68,33.258,32.025,33.258z"/>
		</g>
	</g>
	<g>
		<g>
			<path fill="#231F20" d="M29.025,29.258h-3c-0.202,0-0.385-0.121-0.462-0.309c-0.078-0.189-0.035-0.402,0.108-0.545l2.146-2.146
				h-1.793c-0.276,0-0.5-0.225-0.5-0.5c0-0.277,0.224-0.5,0.5-0.5h3c0.201,0,0.385,0.121,0.461,0.309
				c0.078,0.188,0.035,0.402-0.107,0.545l-2.146,2.146h1.793c0.276,0,0.5,0.223,0.5,0.5C29.525,29.033,29.302,29.258,29.025,29.258z
				"/>
		</g>
	</g>
	<g>
		<g>
			<path fill="#231F20" d="M33.025,24.258h-3.938c-0.201,0-0.385-0.121-0.462-0.309c-0.078-0.189-0.035-0.402,0.108-0.545
				l3.084-3.084h-2.73c-0.275,0-0.5-0.227-0.5-0.5c0-0.277,0.225-0.5,0.5-0.5h3.938c0.203,0,0.386,0.119,0.463,0.309
				c0.078,0.188,0.035,0.402-0.108,0.545l-3.084,3.084h2.729c0.276,0,0.5,0.223,0.5,0.5C33.525,24.033,33.302,24.258,33.025,24.258z
				"/>
		</g>
	</g>
</g>
</svg>
