<?xml version="1.0" encoding="utf-8"?>
<!-- Generator: Adobe Illustrator 15.0.0, SVG Export Plug-In . SVG Version: 6.00 Build 0)  -->
<!DOCTYPE svg PUBLIC "-//W3C//DTD SVG 1.0//EN" "http://www.w3.org/TR/2001/REC-SVG-20010904/DTD/svg10.dtd">
<svg version="1.0" id="Layer_1" xmlns="http://www.w3.org/2000/svg" xmlns:xlink="http://www.w3.org/1999/xlink" x="0px" y="0px"
	 width="52px" height="53px" viewBox="0 0 52 53" enable-background="new 0 0 52 53" xml:space="preserve">
<g>
	<g>
		<g>
			<path fill="#231F20" d="M29.144,38.438c-6.594,0-11.958-5.354-11.958-11.938s5.364-11.938,11.958-11.938
				c6.594,0,11.958,5.354,11.958,11.938S35.738,38.438,29.144,38.438z M29.227,16.284c-5.596,0-10.15,4.555-10.15,10.153
				c0,5.598,4.554,10.152,10.15,10.152c5.598,0,10.151-4.555,10.151-10.152C39.378,20.839,34.825,16.284,29.227,16.284z"/>
		</g>
	</g>
	<g>
		<g>
			<path fill="#231F20" d="M24.687,26.435c-1.901,0-3.448-1.557-3.448-3.471s1.547-3.471,3.448-3.471s3.448,1.557,3.448,3.471
				S26.588,26.435,24.687,26.435z M24.645,20.369c-1.442,0-2.615,1.164-2.615,2.595s1.173,2.595,2.615,2.595
				s2.615-1.164,2.615-2.595S26.087,20.369,24.645,20.369z"/>
		</g>
	</g>
	<g>
		<g>
			<path fill="#231F20" d="M33.667,26.376c-1.901,0-3.448-1.553-3.448-3.459c0-1.908,1.547-3.459,3.448-3.459
				c1.9,0,3.447,1.551,3.447,3.459C37.114,24.823,35.567,26.376,33.667,26.376z M33.667,20.315c-1.434,0-2.601,1.167-2.601,2.602
				c0,1.434,1.167,2.602,2.601,2.602c1.433,0,2.6-1.168,2.6-2.602C36.267,21.482,35.1,20.315,33.667,20.315z"/>
		</g>
	</g>
	<g>
		<g>
			<ellipse fill="#231F20" cx="28.655" cy="32.938" rx="3.396" ry="0.489"/>
		</g>
	</g>
</g>
</svg>
