<?xml version="1.0" encoding="utf-8"?>
<!-- Generator: Adobe Illustrator 15.0.0, SVG Export Plug-In . SVG Version: 6.00 Build 0)  -->
<!DOCTYPE svg PUBLIC "-//W3C//DTD SVG 1.0//EN" "http://www.w3.org/TR/2001/REC-SVG-20010904/DTD/svg10.dtd">
<svg version="1.0" id="Layer_1" xmlns="http://www.w3.org/2000/svg" xmlns:xlink="http://www.w3.org/1999/xlink" x="0px" y="0px"
	 width="52px" height="53px" viewBox="0 0 52 53" enable-background="new 0 0 52 53" xml:space="preserve">
<g>
	<g>
		<g>
			<path fill="#231F20" d="M27.467,37.46c-6.605,0-11.979-5.365-11.979-11.961c0-6.594,5.374-11.959,11.979-11.959
				s11.979,5.365,11.979,11.959C39.447,32.095,34.073,37.46,27.467,37.46z M27.467,15.302c-5.631,0-10.213,4.575-10.213,10.197
				c0,5.623,4.583,10.197,10.213,10.197c5.631,0,10.214-4.574,10.214-10.197C37.681,19.877,33.099,15.302,27.467,15.302z"/>
		</g>
	</g>
	<g>
		<g>
			<path fill="#231F20" d="M26.448,23.019c0,1.382-1.106-0.608-2.469-0.608s-2.469,1.99-2.469,0.608
				c0-1.379,1.106-2.497,2.469-2.497S26.448,21.64,26.448,23.019z"/>
		</g>
	</g>
	<g>
		<g>
			<path fill="#231F20" d="M33.385,22.985c0,1.313-1.095-0.52-2.443-0.52c-1.349,0-2.443,1.833-2.443,0.52
				c0-1.314,1.094-2.382,2.443-2.382S33.385,21.671,33.385,22.985z"/>
		</g>
	</g>
	<g>
		<g>
			<path fill="#231F20" d="M35.388,28.95c-1.556,1.639-2.739,1.19-4.682-0.629c-1.607-1.502-2.926-0.58-3.247,0.715
				c-0.322-1.296-1.644-2.218-3.248-0.711c-1.939,1.821-3.122,2.271-4.681,0.635c-0.155,1.648,1.509,3.189,3.716,3.441
				c2.044,0.234,3.834-0.719,4.213-2.167c0.381,1.449,2.174,2.4,4.219,2.163C33.885,32.142,35.546,30.599,35.388,28.95z"/>
		</g>
	</g>
</g>
</svg>
