<?xml version="1.0" encoding="utf-8"?>
<!-- Generator: Adobe Illustrator 15.0.0, SVG Export Plug-In . SVG Version: 6.00 Build 0)  -->
<!DOCTYPE svg PUBLIC "-//W3C//DTD SVG 1.0//EN" "http://www.w3.org/TR/2001/REC-SVG-20010904/DTD/svg10.dtd">
<svg version="1.0" id="Layer_1" xmlns="http://www.w3.org/2000/svg" xmlns:xlink="http://www.w3.org/1999/xlink" x="0px" y="0px"
	 width="52px" height="53px" viewBox="0 0 52 53" enable-background="new 0 0 52 53" xml:space="preserve">
<g>
	<g>
		<g>
			<path fill="#231F20" d="M26.596,35.195c-6.56,0-11.896-5.354-11.896-11.938s5.337-11.939,11.896-11.939
				c6.561,0,11.896,5.355,11.896,11.939C38.493,29.84,33.156,35.195,26.596,35.195z M26.596,13.041
				c-5.614,0-10.181,4.584-10.181,10.217s4.567,10.217,10.181,10.217c5.614,0,10.182-4.584,10.182-10.217
				S32.21,13.041,26.596,13.041z"/>
		</g>
	</g>
	<g>
		<g>
			<circle fill="#231F20" cx="22.618" cy="19.259" r="1.938"/>
		</g>
	</g>
	<g>
		<g>
			<circle fill="#231F20" cx="30.639" cy="19.28" r="1.958"/>
		</g>
	</g>
	<g>
		<g>
			<path fill="#231F20" d="M26.617,32.238c-3.825,0-6.905-2.666-6.905-4.871c0-1.408,1.198-3.088,6.905-3.088
				c5.708,0,6.906,1.68,6.906,3.088C33.523,29.572,30.441,32.238,26.617,32.238z M26.617,25.164c-2.233,0-5.979,0.285-5.979,2.203
				c0,1.604,2.511,3.984,5.979,3.984c3.469,0,5.98-2.381,5.98-3.984C32.598,25.449,28.852,25.164,26.617,25.164z"/>
		</g>
	</g>
</g>
</svg>
