<?xml version="1.0" encoding="utf-8"?>
<!-- Generator: Adobe Illustrator 15.0.0, SVG Export Plug-In . SVG Version: 6.00 Build 0)  -->
<!DOCTYPE svg PUBLIC "-//W3C//DTD SVG 1.0//EN" "http://www.w3.org/TR/2001/REC-SVG-20010904/DTD/svg10.dtd">
<svg version="1.0" id="Layer_1" xmlns="http://www.w3.org/2000/svg" xmlns:xlink="http://www.w3.org/1999/xlink" x="0px" y="0px"
	 width="52px" height="53px" viewBox="0 0 52 53" enable-background="new 0 0 52 53" xml:space="preserve">
<g>
	<g>
		<g>
			<g>
				<g>
					<path fill="#231F20" d="M25.096,37.152c-6.598,0-11.966-5.369-11.966-11.97c0-6.6,5.368-11.969,11.966-11.969
						c6.598,0,11.966,5.369,11.966,11.969C37.062,31.783,31.694,37.152,25.096,37.152z M25.075,15.131
						C19.52,15.131,15,19.646,15,25.193c0,5.549,4.52,10.062,10.075,10.062c5.555,0,10.074-4.514,10.074-10.062
						C35.149,19.646,30.629,15.131,25.075,15.131z"/>
				</g>
			</g>
		</g>
	</g>
	<g>
		<path fill="#231F20" d="M31.344,24.287c-1.375,0-2.603-1.012-3.458-2.846c-0.845-1.814-1.292-4.316-1.292-7.238h1
			c0,2.777,0.414,5.133,1.198,6.815c0.682,1.464,1.588,2.269,2.552,2.269c1.375,0,2.682-1.26,3.328-3.209l0.949,0.313
			C34.825,22.795,33.187,24.287,31.344,24.287L31.344,24.287z"/>
	</g>
	<g>
		<path fill="#231F20" d="M18.782,23.287L18.782,23.287c-1.534,0-2.93-1.025-3.83-2.812l0.893-0.448
			c0.724,1.436,1.794,2.26,2.937,2.26l0,0c1.034,0,1.921-0.621,2.566-1.799c0.774-1.408,1.183-3.582,1.183-6.285h1
			c0,2.912-0.439,5.188-1.306,6.768C21.175,22.885,19.773,23.287,18.782,23.287z"/>
	</g>
	<g>
		<path fill="#231F20" d="M25.083,32.256c-2.167,0-4.5-0.604-4.5-1.938h1c0,0.239,1.204,0.938,3.5,0.938s3.5-0.697,3.5-0.938h1
			C29.583,31.65,27.251,32.256,25.083,32.256z"/>
	</g>
	<g>
		<g>
			<path fill="#231F20" d="M27.083,26.379c0,1.555-0.876,2.814-1.958,2.814s-1.958-1.261-1.958-2.814S27.083,24.824,27.083,26.379z"
				/>
		</g>
	</g>
	<g>
		<rect x="21.271" y="22.193" fill="#231F20" width="1.688" height="2"/>
	</g>
	<g>
		<rect x="27.271" y="22.193" fill="#231F20" width="1.688" height="2"/>
	</g>
	<g>
		<rect x="24.083" y="28.381" fill="#231F20" width="2" height="3.375"/>
	</g>
</g>
</svg>
