<?xml version="1.0" encoding="utf-8"?>
<!-- Generator: Adobe Illustrator 15.0.0, SVG Export Plug-In . SVG Version: 6.00 Build 0)  -->
<!DOCTYPE svg PUBLIC "-//W3C//DTD SVG 1.0//EN" "http://www.w3.org/TR/2001/REC-SVG-20010904/DTD/svg10.dtd">
<svg version="1.0" id="Layer_1" xmlns="http://www.w3.org/2000/svg" xmlns:xlink="http://www.w3.org/1999/xlink" x="0px" y="0px"
	 width="52px" height="53px" viewBox="0 0 52 53" enable-background="new 0 0 52 53" xml:space="preserve">
<g>
	<g>
		<g>
			<path fill="#231F20" d="M27.678,37.219c-6.6,0-11.969-5.365-11.969-11.961s5.369-11.963,11.969-11.963
				s11.969,5.367,11.969,11.963S34.277,37.219,27.678,37.219z M27.678,15.02c-5.648,0-10.243,4.594-10.243,10.238
				c0,5.643,4.595,10.236,10.243,10.236c5.649,0,10.244-4.594,10.244-10.236C37.922,19.613,33.327,15.02,27.678,15.02z"/>
		</g>
	</g>
	<g>
		<g>
			<circle fill="#231F20" cx="23.689" cy="21.216" r="1.938"/>
		</g>
	</g>
	<g>
		<g>
			<circle fill="#231F20" cx="31.709" cy="21.237" r="1.958"/>
		</g>
	</g>
	<g>
		<g>
			<path fill="#231F20" d="M27.667,34.174c-3.841,0-6.935-2.65-6.935-4.846c0-1.41,1.203-3.094,6.935-3.094
				c5.733,0,6.937,1.684,6.937,3.094C34.604,31.523,31.51,34.174,27.667,34.174z M27.667,27.137c-1.833,0-6.098,0.215-6.098,2.197
				c0,1.584,2.619,4.027,6.098,4.027c3.479,0,6.099-2.443,6.099-4.027C33.768,27.352,29.501,27.137,27.667,27.137z"/>
		</g>
	</g>
	<g>
		<g>
			<rect x="22.689" y="27.174" fill="#231F20" width="1" height="5.5"/>
		</g>
	</g>
	<g>
		<g>
			<rect x="25.751" y="26.799" fill="#231F20" width="0.875" height="6.689"/>
		</g>
	</g>
	<g>
		<g>
			<rect x="28.751" y="26.799" fill="#231F20" width="0.875" height="6.689"/>
		</g>
	</g>
	<g>
		<g>
			<rect x="31.751" y="27.174" fill="#231F20" width="1" height="5.312"/>
		</g>
	</g>
</g>
</svg>
