<?xml version="1.0" encoding="utf-8"?>
<!-- Generator: Adobe Illustrator 15.0.0, SVG Export Plug-In . SVG Version: 6.00 Build 0)  -->
<!DOCTYPE svg PUBLIC "-//W3C//DTD SVG 1.0//EN" "http://www.w3.org/TR/2001/REC-SVG-20010904/DTD/svg10.dtd">
<svg version="1.0" id="Layer_1" xmlns="http://www.w3.org/2000/svg" xmlns:xlink="http://www.w3.org/1999/xlink" x="0px" y="0px"
	 width="52px" height="53px" viewBox="0 0 52 53" enable-background="new 0 0 52 53" xml:space="preserve">
<g>
	<g>
		<g>
			<path fill="#231F20" d="M33.48,38.627c-6.605,0-11.979-5.383-11.979-12s5.373-12,11.979-12c6.605,0,11.979,5.383,11.979,12
				S40.087,38.627,33.48,38.627z M33.502,16.492c-5.589,0-10.136,4.546-10.136,10.135c0,5.588,4.547,10.135,10.136,10.135
				c5.588,0,10.135-4.547,10.135-10.135C43.637,21.038,39.09,16.492,33.502,16.492z"/>
		</g>
	</g>
	<g>
		<g>
			<path fill="#231F20" d="M31.43,27.627c-1.572,0-4.844-1.343-4.844-3c0-1.656,1.271-3,2.844-3L31.43,27.627z"/>
		</g>
	</g>
	<g>
		<g>
			<path fill="#231F20" d="M37.512,21.638c1.646,0,2.98,1.323,2.98,2.958c0,1.636-3.335,2.958-4.98,2.958L37.512,21.638z"/>
		</g>
	</g>
	<g>
		<g>
			<path fill="#231F20" d="M33.508,33.584c-3.477,0-6.984-0.914-6.984-2.958c0-0.552,0.447-1,1-1c0.519,0,0.943,0.394,0.994,0.897
				c0.297,0.339,2.019,1.27,4.99,1.27c2.973,0,4.692-0.931,4.989-1.27c0.051-0.505,0.478-0.897,0.995-0.897c0.552,0,1,0.448,1,1
				C40.492,32.67,36.984,33.584,33.508,33.584z"/>
		</g>
	</g>
	<g>
		<g>
			<path fill="#231F20" d="M38.502,34.543c-0.553,0-1-0.447-1-1v-2c0-0.552,0.447-1,1-1s1,0.448,1,1v2
				C39.502,34.096,39.055,34.543,38.502,34.543z"/>
		</g>
	</g>
	<g>
		<g>
			<path fill="#231F20" d="M28.502,34.543c-0.553,0-1-0.447-1-1v-2c0-0.552,0.447-1,1-1s1,0.448,1,1v2
				C29.502,34.096,29.055,34.543,28.502,34.543z"/>
		</g>
	</g>
</g>
</svg>
