<?xml version="1.0" encoding="utf-8"?>
<!-- Generator: Adobe Illustrator 15.0.0, SVG Export Plug-In . SVG Version: 6.00 Build 0)  -->
<!DOCTYPE svg PUBLIC "-//W3C//DTD SVG 1.0//EN" "http://www.w3.org/TR/2001/REC-SVG-20010904/DTD/svg10.dtd">
<svg version="1.0" id="Layer_1" xmlns="http://www.w3.org/2000/svg" xmlns:xlink="http://www.w3.org/1999/xlink" x="0px" y="0px"
	 width="52px" height="53px" viewBox="0 0 52 53" enable-background="new 0 0 52 53" xml:space="preserve">
<g>
	<g>
		<g>
			<g>
				<path fill="#231F20" d="M28.846,37.581c-6.57,0-11.916-5.362-11.916-11.954s5.346-11.955,11.916-11.955
					c6.572,0,11.918,5.363,11.918,11.955S35.418,37.581,28.846,37.581z M28.846,15.525c-5.551,0-10.068,4.53-10.068,10.102
					s4.519,10.102,10.068,10.102c5.553,0,10.07-4.53,10.07-10.102S34.398,15.525,28.846,15.525z"/>
			</g>
		</g>
		<g>
			<g>
				<path fill="#231F20" d="M26.889,21.856c0,1.529-0.652,2.771-1.459,2.771c-0.805,0-1.457-1.24-1.457-2.771
					C23.973,20.325,26.889,20.326,26.889,21.856z"/>
			</g>
		</g>
		<g>
			<g>
				<path fill="#231F20" d="M33.889,21.832c0,1.498-0.652,2.711-1.459,2.711c-0.805,0-1.457-1.213-1.457-2.711
					C30.973,20.335,33.889,20.335,33.889,21.832z"/>
			</g>
		</g>
	</g>
	<g>
		<path fill="#231F20" d="M36.83,26.564H20.885c-1.102,0-1.996-0.896-1.996-2v-3.875c0-1.104,0.896-2,1.996-2H36.83
			c1.102,0,1.996,0.896,1.996,2v3.875C38.826,25.668,37.932,26.564,36.83,26.564z M36.83,24.564v1V24.564L36.83,24.564L36.83,24.564
			z M20.627,20.627l0.004,4h16.451l0.002-4H20.627z"/>
	</g>
	<g>
		<path fill="#231F20" d="M33.846,32.596H30.93v-1.803h2.916c1.203,0,2.166-1.152,2.166-2.347V12.5l1.846,0.154V28.6
			C37.857,30.916,36.17,32.596,33.846,32.596z"/>
	</g>
	<g>
		<rect x="27.951" y="29.689" fill="#231F20" width="3.938" height="3.812"/>
	</g>
</g>
</svg>
