<?xml version="1.0" encoding="utf-8"?>
<!-- Generator: Adobe Illustrator 15.0.0, SVG Export Plug-In . SVG Version: 6.00 Build 0)  -->
<!DOCTYPE svg PUBLIC "-//W3C//DTD SVG 1.0//EN" "http://www.w3.org/TR/2001/REC-SVG-20010904/DTD/svg10.dtd">
<svg version="1.0" id="Layer_1" xmlns="http://www.w3.org/2000/svg" xmlns:xlink="http://www.w3.org/1999/xlink" x="0px" y="0px"
	 width="52px" height="53px" viewBox="0 0 52 53" enable-background="new 0 0 52 53" xml:space="preserve">
<g>
	<g>
		<g>
			<path fill="#231F20" d="M27.705,35.385c-6.594,0-11.958-5.383-11.958-12s5.364-12,11.958-12s11.957,5.383,11.957,12
				S34.299,35.385,27.705,35.385z M27.662,13.154c-5.641,0-10.23,4.59-10.23,10.229c0,5.641,4.59,10.23,10.23,10.23
				c5.643,0,10.232-4.592,10.232-10.23C37.895,17.742,33.305,13.154,27.662,13.154z"/>
		</g>
	</g>
	<g>
		<g>
			<ellipse fill="#231F20" cx="27.206" cy="19.968" rx="1.458" ry="2.417"/>
		</g>
	</g>
	<g>
		<g>
			<ellipse fill="#231F20" cx="34.206" cy="19.968" rx="1.458" ry="2.417"/>
		</g>
	</g>
	<g>
		<g>
			<path fill="#231F20" d="M31.161,30.391c-1.021,0-2.287-0.289-3.813-1.131c-3.289-1.811-4.895-0.252-4.961-0.184
				c-0.386,0.387-1.016,0.398-1.408,0.021c-0.395-0.377-0.42-0.994-0.049-1.395c0.107-0.115,2.67-2.791,7.383-0.197
				c3.246,1.789,4.549,0.279,4.562,0.264c0.34-0.438,0.968-0.516,1.402-0.176c0.438,0.338,0.516,0.967,0.178,1.402
				C34.391,29.08,33.334,30.391,31.161,30.391z"/>
		</g>
	</g>
	<g>
		<g>
			<rect x="19.705" y="19.447" fill="#231F20" width="0.938" height="4.811"/>
		</g>
	</g>
	<g>
		<g>
			<rect x="21.705" y="17.447" fill="#231F20" width="0.938" height="4.811"/>
		</g>
	</g>
</g>
</svg>
