<?xml version="1.0" encoding="utf-8"?>
<!-- Generator: Adobe Illustrator 15.0.0, SVG Export Plug-In . SVG Version: 6.00 Build 0)  -->
<!DOCTYPE svg PUBLIC "-//W3C//DTD SVG 1.0//EN" "http://www.w3.org/TR/2001/REC-SVG-20010904/DTD/svg10.dtd">
<svg version="1.0" id="Layer_1" xmlns="http://www.w3.org/2000/svg" xmlns:xlink="http://www.w3.org/1999/xlink" x="0px" y="0px"
	 width="52px" height="53px" viewBox="0 0 52 53" enable-background="new 0 0 52 53" xml:space="preserve">
<g>
	<g>
		<g>
			<ellipse fill="#231F20" cx="33.419" cy="21.724" rx="1.458" ry="2.417"/>
		</g>
	</g>
	<g>
		<g>
			<ellipse fill="#231F20" cx="22.502" cy="21.724" rx="1.458" ry="2.417"/>
		</g>
	</g>
	<g>
		<g>
			<path fill="#231F20" d="M27.98,35.141c-6.562,0-11.897-5.373-11.897-11.979s5.338-11.979,11.897-11.979
				c6.561,0,11.897,5.373,11.897,11.979C39.88,29.768,34.542,35.141,27.98,35.141z M27.98,12.961
				c-5.586,0-10.133,4.576-10.133,10.199c0,5.625,4.547,10.201,10.133,10.201s10.133-4.576,10.133-10.201
				C38.113,17.537,33.566,12.961,27.98,12.961z"/>
		</g>
	</g>
	<g>
		<g>
			<path fill="#231F20" d="M36.961,22.141c-0.104,0-0.212-0.016-0.316-0.051l-6-2c-0.522-0.176-0.808-0.742-0.631-1.266
				c0.174-0.523,0.737-0.811,1.264-0.635l6,2c0.524,0.178,0.81,0.742,0.634,1.268C37.771,21.877,37.38,22.141,36.961,22.141z"/>
		</g>
	</g>
	<g>
		<g>
			<path fill="#231F20" d="M18.961,22.141c-0.419,0-0.811-0.264-0.947-0.684c-0.177-0.523,0.106-1.09,0.631-1.268l6-2
				c0.525-0.176,1.092,0.109,1.267,0.635c0.176,0.521-0.106,1.09-0.634,1.266l-6,2C19.173,22.125,19.064,22.141,18.961,22.141z"/>
		</g>
	</g>
	<g>
		<g>
			<path fill="#231F20" d="M29.836,28.553c0,0.279-0.32,0.504-0.718,0.504h-2.336c-0.396,0-0.718-0.225-0.718-0.504v-2.824
				c0-0.277,0.319-0.504,0.718-0.504h2.336c0.396,0,0.718,0.227,0.718,0.504V28.553z"/>
		</g>
	</g>
</g>
</svg>
