<?xml version="1.0" encoding="utf-8"?>
<!-- Generator: Adobe Illustrator 15.0.0, SVG Export Plug-In . SVG Version: 6.00 Build 0)  -->
<!DOCTYPE svg PUBLIC "-//W3C//DTD SVG 1.0//EN" "http://www.w3.org/TR/2001/REC-SVG-20010904/DTD/svg10.dtd">
<svg version="1.0" id="Layer_1" xmlns="http://www.w3.org/2000/svg" xmlns:xlink="http://www.w3.org/1999/xlink" x="0px" y="0px"
	 width="52px" height="53px" viewBox="0 0 52 53" enable-background="new 0 0 52 53" xml:space="preserve">
<g>
	<g>
		<g>
			<path fill="#231F20" d="M29.705,37.162c-6.549,0-11.877-5.383-11.877-12s5.328-12,11.877-12s11.875,5.383,11.875,12
				S36.254,37.162,29.705,37.162z M29.705,15.104c-5.547,0-10.059,4.514-10.059,10.061c0,5.545,4.512,10.057,10.059,10.057
				c5.545,0,10.057-4.512,10.057-10.057C39.762,19.615,35.25,15.104,29.705,15.104z"/>
		</g>
	</g>
	<g>
		<g>
			<path fill="#231F20" d="M24.205,28.162c-2.48,0-4.5-2.021-4.5-4.5c0-2.482,2.02-4.5,4.5-4.5c2.482,0,4.5,2.018,4.5,4.5
				C28.705,26.143,26.688,28.162,24.205,28.162z M24.205,20.078c-1.975,0-3.584,1.605-3.584,3.584c0,1.975,1.609,3.584,3.584,3.584
				c1.977,0,3.584-1.609,3.584-3.584C27.789,21.686,26.182,20.078,24.205,20.078z"/>
		</g>
	</g>
	<g>
		<g>
			<path fill="#231F20" d="M24.205,26.162c-1.379,0-2.5-1.121-2.5-2.5s1.121-2.5,2.5-2.5s2.5,1.121,2.5,2.5
				S25.584,26.162,24.205,26.162z M24.205,22.162c-0.826,0-1.5,0.672-1.5,1.5c0,0.826,0.674,1.5,1.5,1.5c0.828,0,1.5-0.674,1.5-1.5
				C25.705,22.834,25.033,22.162,24.205,22.162z"/>
		</g>
	</g>
	<g>
		<g>
			<path fill="#231F20" d="M35.205,28.162c-2.48,0-4.5-2.021-4.5-4.5c0-2.482,2.02-4.5,4.5-4.5c2.482,0,4.5,2.018,4.5,4.5
				C39.705,26.143,37.688,28.162,35.205,28.162z M35.205,20.078c-1.975,0-3.584,1.605-3.584,3.584c0,1.975,1.609,3.584,3.584,3.584
				c1.977,0,3.584-1.609,3.584-3.584C38.789,21.686,37.182,20.078,35.205,20.078z"/>
		</g>
	</g>
	<g>
		<g>
			<path fill="#231F20" d="M35.205,26.162c-1.379,0-2.5-1.121-2.5-2.5s1.121-2.5,2.5-2.5s2.5,1.121,2.5,2.5
				S36.584,26.162,35.205,26.162z M35.205,22.162c-0.826,0-1.5,0.672-1.5,1.5c0,0.826,0.674,1.5,1.5,1.5c0.828,0,1.5-0.674,1.5-1.5
				C36.705,22.834,36.033,22.162,35.205,22.162z"/>
		</g>
	</g>
	<g>
		<g>
			<rect x="23.789" y="30.225" fill="#231F20" width="1.854" height="1.875"/>
		</g>
	</g>
	<g>
		<g>
			<rect x="25.789" y="31.225" fill="#231F20" width="1.854" height="1.854"/>
		</g>
	</g>
	<g>
		<g>
			<rect x="27.789" y="30.225" fill="#231F20" width="1.854" height="1.854"/>
		</g>
	</g>
	<g>
		<g>
			<rect x="29.789" y="31.225" fill="#231F20" width="1.854" height="1.854"/>
		</g>
	</g>
	<g>
		<g>
			<rect x="31.705" y="30.225" fill="#231F20" width="1.938" height="1.854"/>
		</g>
	</g>
	<g>
		<g>
			<rect x="33.705" y="31.225" fill="#231F20" width="1.938" height="1.812"/>
		</g>
	</g>
</g>
</svg>
