<?xml version="1.0" encoding="utf-8"?>
<!-- Generator: Adobe Illustrator 15.0.0, SVG Export Plug-In . SVG Version: 6.00 Build 0)  -->
<!DOCTYPE svg PUBLIC "-//W3C//DTD SVG 1.0//EN" "http://www.w3.org/TR/2001/REC-SVG-20010904/DTD/svg10.dtd">
<svg version="1.0" id="Layer_1" xmlns="http://www.w3.org/2000/svg" xmlns:xlink="http://www.w3.org/1999/xlink" x="0px" y="0px"
	 width="52px" height="53px" viewBox="0 0 52 53" enable-background="new 0 0 52 53" xml:space="preserve">
<g>
	<g>
		<g>
			<path fill="#231F20" d="M24.404,38.346c-6.594,0-11.959-5.356-11.959-11.94s5.365-11.94,11.959-11.94s11.959,5.356,11.959,11.94
				S30.998,38.346,24.404,38.346z M24.404,16.186c-5.645,0-10.234,4.584-10.234,10.22c0,5.635,4.592,10.219,10.234,10.219
				s10.234-4.584,10.234-10.219C34.639,20.77,30.048,16.186,24.404,16.186z"/>
		</g>
	</g>
	<g>
		<g>
			<ellipse fill="#231F20" cx="26.916" cy="21.873" rx="3.427" ry="3.469"/>
		</g>
	</g>
	<g>
		<g>
			<path fill="#231F20" d="M24.445,35.321c-0.551,0-1-0.448-1-1c0-2.973,7.468-3.538,11.279-2.412
				c0.528,0.157,0.832,0.713,0.676,1.243c-0.156,0.528-0.711,0.832-1.242,0.675c-1.012-0.3-2.336-0.464-3.729-0.464
				c-2.972,0-4.691,0.722-4.988,1.061C25.391,34.928,24.964,35.321,24.445,35.321z"/>
		</g>
	</g>
	<g>
		<g>
			<path fill="#231F20" d="M21.301,26.301c0,1.07-0.602,1.938-1.344,1.938s-1.344-0.867-1.344-1.938c0-1.07,0.602-4.938,1.344-4.938
				S21.301,25.23,21.301,26.301z"/>
		</g>
	</g>
</g>
</svg>
