<?xml version="1.0" encoding="utf-8"?>
<!-- Generator: Adobe Illustrator 15.0.0, SVG Export Plug-In . SVG Version: 6.00 Build 0)  -->
<!DOCTYPE svg PUBLIC "-//W3C//DTD SVG 1.0//EN" "http://www.w3.org/TR/2001/REC-SVG-20010904/DTD/svg10.dtd">
<svg version="1.0" id="Layer_1" xmlns="http://www.w3.org/2000/svg" xmlns:xlink="http://www.w3.org/1999/xlink" x="0px" y="0px"
	 width="52px" height="53px" viewBox="0 0 52 53" enable-background="new 0 0 52 53" xml:space="preserve">
<g>
	<g>
		<g>
			<path fill="#231F20" d="M29.193,35.384c-0.152,0-0.307-0.035-0.446-0.104l-6-3c-0.494-0.247-0.694-0.849-0.447-1.343
				c0.247-0.493,0.847-0.693,1.343-0.446l5.553,2.775l5.553-2.775c0.494-0.247,1.095-0.047,1.342,0.446
				c0.246,0.494,0.047,1.096-0.447,1.343l-6,3C29.501,35.349,29.348,35.384,29.193,35.384z"/>
		</g>
	</g>
	<g>
		<g>
			<path fill="#231F20" d="M29.163,38.362c-6.589,0-11.948-5.364-11.948-11.958s5.359-11.958,11.948-11.958
				c6.588,0,11.946,5.364,11.946,11.958S35.751,38.362,29.163,38.362z M29.163,16.209c-5.617,0-10.188,4.574-10.188,10.195
				c0,5.622,4.57,10.195,10.188,10.195c5.616,0,10.187-4.573,10.187-10.195C39.35,20.783,34.779,16.209,29.163,16.209z"/>
		</g>
	</g>
	<g>
		<g>
			<rect x="21.443" y="21.384" fill="#231F20" width="6.5" height="2"/>
		</g>
	</g>
	<g>
		<g>
			<rect x="30.443" y="21.384" fill="#231F20" width="6.5" height="2"/>
		</g>
	</g>
</g>
</svg>
