<?xml version="1.0" encoding="utf-8"?>
<!-- Generator: Adobe Illustrator 15.0.0, SVG Export Plug-In . SVG Version: 6.00 Build 0)  -->
<!DOCTYPE svg PUBLIC "-//W3C//DTD SVG 1.0//EN" "http://www.w3.org/TR/2001/REC-SVG-20010904/DTD/svg10.dtd">
<svg version="1.0" id="Layer_1" xmlns="http://www.w3.org/2000/svg" xmlns:xlink="http://www.w3.org/1999/xlink" x="0px" y="0px"
	 width="52px" height="53px" viewBox="0 0 52 53" enable-background="new 0 0 52 53" xml:space="preserve">
<g>
	<g>
		<g>
			<g>
				<g>
					<path fill="#231F20" d="M28.662,36.91c-6.598,0-11.966-5.369-11.966-11.971c0-6.6,5.368-11.969,11.966-11.969
						c6.598,0,11.966,5.369,11.966,11.969C40.628,31.541,35.26,36.91,28.662,36.91z M28.641,14.889
						c-5.555,0-10.075,4.516-10.075,10.062c0,5.549,4.52,10.061,10.075,10.061s10.074-4.514,10.074-10.061
						S34.195,14.889,28.641,14.889z"/>
				</g>
			</g>
		</g>
	</g>
	<g>
		<path fill="#231F20" d="M17.65,27.035v-1c5.062,0,8.083-1.414,8.083-3.781c0-2.086-2.658-3.781-5.925-3.781v-1
			c3.819,0,6.925,2.146,6.925,4.781C26.732,25.248,23.337,27.035,17.65,27.035z"/>
	</g>
	<g>
		<path fill="#231F20" d="M39.65,26.973c-8.067,0-8.938-3.322-8.938-4.75c0-2.619,3.06-4.75,6.817-4.75v1
			c-3.207,0-5.817,1.684-5.817,3.75c0,2.35,2.968,3.75,7.938,3.75V26.973z"/>
	</g>
	<g>
		<ellipse fill="#231F20" cx="23.15" cy="22.441" rx="1.5" ry="1.469"/>
	</g>
	<g>
		<ellipse fill="#231F20" cx="34.139" cy="22.451" rx="1.49" ry="1.459"/>
	</g>
	<g>
		<path fill="#231F20" d="M28.648,32.014c-2.166,0-4.5-0.604-4.5-1.938h1c0,0.238,1.205,0.938,3.5,0.938
			c2.297,0,3.5-0.697,3.5-0.938h1C33.148,31.408,30.816,32.014,28.648,32.014z"/>
	</g>
</g>
</svg>
