<?xml version="1.0" encoding="utf-8"?>
<!-- Generator: Adobe Illustrator 15.0.0, SVG Export Plug-In . SVG Version: 6.00 Build 0)  -->
<!DOCTYPE svg PUBLIC "-//W3C//DTD SVG 1.0//EN" "http://www.w3.org/TR/2001/REC-SVG-20010904/DTD/svg10.dtd">
<svg version="1.0" id="Layer_1" xmlns="http://www.w3.org/2000/svg" xmlns:xlink="http://www.w3.org/1999/xlink" x="0px" y="0px"
	 width="52px" height="53px" viewBox="0 0 52 53" enable-background="new 0 0 52 53" xml:space="preserve">
<g>
	<g>
		<g>
			<path fill="#231F20" d="M30.292,37.121c-6.594,0-11.958-5.365-11.958-11.959c0-6.596,5.364-11.959,11.958-11.959
				c6.595,0,11.958,5.363,11.958,11.959C42.25,31.756,36.887,37.121,30.292,37.121z M30.355,15.037
				c-5.607,0-10.17,4.547-10.17,10.135c0,5.59,4.562,10.135,10.17,10.135s10.17-4.545,10.17-10.135
				C40.525,19.584,35.964,15.037,30.355,15.037z"/>
		</g>
	</g>
	<g>
		<g>
			<ellipse fill="#231F20" cx="26.834" cy="22.745" rx="1.458" ry="2.417"/>
		</g>
	</g>
	<g>
		<g>
			<ellipse fill="#231F20" cx="33.834" cy="22.745" rx="1.458" ry="2.417"/>
		</g>
	</g>
	<g>
		<g>
			<rect x="22.542" y="20.162" fill="#231F20" width="6.5" height="2"/>
		</g>
	</g>
	<g>
		<g>
			<rect x="31.542" y="20.162" fill="#231F20" width="6.5" height="2"/>
		</g>
	</g>
	<g>
		<g>
			<path fill="#231F20" d="M31.282,33.162c-0.548,0-0.99-0.445-0.99-0.994c0-0.551,0.442-0.996,0.99-0.996
				c2.729,0,4.948-2.23,4.948-4.973c0-0.553,0.442-0.996,0.99-0.996c0.547,0,0.989,0.443,0.989,0.996
				C38.209,30.039,35.102,33.162,31.282,33.162z"/>
		</g>
	</g>
</g>
</svg>
