<?xml version="1.0" encoding="utf-8"?>
<!-- Generator: Adobe Illustrator 15.0.0, SVG Export Plug-In . SVG Version: 6.00 Build 0)  -->
<!DOCTYPE svg PUBLIC "-//W3C//DTD SVG 1.0//EN" "http://www.w3.org/TR/2001/REC-SVG-20010904/DTD/svg10.dtd">
<svg version="1.0" id="Layer_1" xmlns="http://www.w3.org/2000/svg" xmlns:xlink="http://www.w3.org/1999/xlink" x="0px" y="0px"
	 width="52px" height="53px" viewBox="0 0 52 53" enable-background="new 0 0 52 53" xml:space="preserve">
<g>
	<g>
		<g>
			<ellipse fill="#231F20" cx="21.076" cy="26.745" rx="1.396" ry="2.417"/>
		</g>
	</g>
	<g>
		<g>
			<ellipse fill="#231F20" cx="28.076" cy="26.745" rx="1.396" ry="2.417"/>
		</g>
	</g>
	<g>
		<g>
			<path fill="#231F20" d="M24.617,36.121c-6.604,0-11.979-5.365-11.979-11.959c0-6.596,5.373-11.959,11.979-11.959
				s11.979,5.363,11.979,11.959C36.596,30.756,31.223,36.121,24.617,36.121z M24.617,14.104c-5.557,0-10.075,4.514-10.075,10.061
				s4.521,10.059,10.075,10.059s10.074-4.512,10.074-10.059C34.691,18.615,30.172,14.104,24.617,14.104z"/>
		</g>
	</g>
	<g>
		<g>
			<ellipse fill="#231F20" cx="22.598" cy="18.131" rx="0.938" ry="0.969"/>
		</g>
	</g>
	<g>
		<g>
			<ellipse fill="#231F20" cx="26.598" cy="18.131" rx="0.938" ry="0.969"/>
		</g>
	</g>
	<g>
		<g>
			<ellipse fill="#231F20" cx="22.598" cy="15.131" rx="0.938" ry="0.969"/>
		</g>
	</g>
	<g>
		<g>
			<ellipse fill="#231F20" cx="26.598" cy="15.131" rx="0.938" ry="0.969"/>
		</g>
	</g>
	<g>
		<g>
			<ellipse fill="#231F20" cx="22.598" cy="21.131" rx="0.938" ry="0.969"/>
		</g>
	</g>
	<g>
		<g>
			<ellipse fill="#231F20" cx="26.598" cy="21.131" rx="0.938" ry="0.969"/>
		</g>
	</g>
	<g>
		<g>
			<path fill="#231F20" d="M27.502,32.16c-0.002,0-0.004,0-0.006,0l-5.915-0.018c-0.552-0.002-0.997-0.221-0.994-0.488
				s0.45-0.484,1-0.484c0.002,0,0.003,0,0.005,0l5.915,0.016c0.554,0.002,0.998,0.223,0.995,0.49S28.052,32.16,27.502,32.16z"/>
		</g>
	</g>
</g>
</svg>
