<?xml version="1.0" encoding="utf-8"?>
<!-- Generator: Adobe Illustrator 15.0.0, SVG Export Plug-In . SVG Version: 6.00 Build 0)  -->
<!DOCTYPE svg PUBLIC "-//W3C//DTD SVG 1.0//EN" "http://www.w3.org/TR/2001/REC-SVG-20010904/DTD/svg10.dtd">
<svg version="1.0" id="Layer_1" xmlns="http://www.w3.org/2000/svg" xmlns:xlink="http://www.w3.org/1999/xlink" x="0px" y="0px"
	 width="52px" height="53px" viewBox="0 0 52 53" enable-background="new 0 0 52 53" xml:space="preserve">
<g>
	<g>
		<g>
			<path fill="#231F20" d="M31.678,37.162c-6.617,0-12-5.383-12-12s5.382-12,12-12s12,5.383,12,12S38.295,37.162,31.678,37.162z
				 M31.678,15.062c-5.568,0-10.1,4.529-10.1,10.102c0,5.566,4.531,10.1,10.1,10.1c5.569,0,10.1-4.531,10.1-10.1
				C41.777,19.592,37.248,15.062,31.678,15.062z"/>
		</g>
	</g>
	<g>
		<g>
			<ellipse fill="#231F20" cx="28.221" cy="21.745" rx="1.457" ry="2.417"/>
		</g>
	</g>
	<g>
		<g>
			<ellipse fill="#231F20" cx="35.221" cy="21.745" rx="1.457" ry="2.417"/>
		</g>
	</g>
	<g>
		<g>
			<path fill="#231F20" d="M27.668,31.881c-0.529,0-0.958-0.447-0.958-1v-2.562c0-0.553,0.429-1,0.958-1s0.958,0.447,0.958,1v2.562
				C28.626,31.434,28.197,31.881,27.668,31.881z"/>
		</g>
	</g>
	<g>
		<g>
			<path fill="#231F20" d="M31.646,32.131c-0.482,0-0.875-0.447-0.875-1v-2.812c0-0.553,0.393-1,0.875-1
				c0.483,0,0.875,0.447,0.875,1v2.812C32.521,31.684,32.131,32.131,31.646,32.131z"/>
		</g>
	</g>
	<g>
		<g>
			<path fill="#231F20" d="M35.73,32.068c-0.506,0-0.918-0.445-0.918-1v-2.812c0-0.553,0.412-1,0.918-1s0.916,0.447,0.916,1v2.812
				C36.646,31.621,36.236,32.068,35.73,32.068z"/>
		</g>
	</g>
	<g>
		<g>
			<path fill="#231F20" d="M38.271,30.162H24.98c-0.271,0-0.489-0.227-0.489-0.5c0-0.277,0.219-0.5,0.489-0.5h13.291
				c0.271,0,0.49,0.223,0.49,0.5C38.762,29.938,38.543,30.162,38.271,30.162z"/>
		</g>
	</g>
</g>
</svg>
