<?xml version="1.0" encoding="utf-8"?>
<!-- Generator: Adobe Illustrator 15.0.0, SVG Export Plug-In . SVG Version: 6.00 Build 0)  -->
<!DOCTYPE svg PUBLIC "-//W3C//DTD SVG 1.0//EN" "http://www.w3.org/TR/2001/REC-SVG-20010904/DTD/svg10.dtd">
<svg version="1.0" id="Layer_1" xmlns="http://www.w3.org/2000/svg" xmlns:xlink="http://www.w3.org/1999/xlink" x="0px" y="0px"
	 width="52px" height="53px" viewBox="0 0 52 53" enable-background="new 0 0 52 53" xml:space="preserve">
<g>
	<g>
		<g>
			<ellipse fill="#231F20" cx="25.1" cy="22.987" rx="1.458" ry="2.417"/>
		</g>
	</g>
	<g>
		<g>
			<ellipse fill="#231F20" cx="32.184" cy="22.987" rx="1.457" ry="2.417"/>
		</g>
	</g>
	<g>
		<g>
			<path fill="#231F20" d="M28.662,37.363c-6.583,0-11.938-5.365-11.938-11.959c0-6.596,5.354-11.959,11.938-11.959
				c6.582,0,11.938,5.363,11.938,11.959C40.6,31.998,35.244,37.363,28.662,37.363z M28.609,15.348
				c-5.565,0-10.093,4.514-10.093,10.059s4.527,10.057,10.093,10.057c5.564,0,10.092-4.512,10.092-10.057
				S34.174,15.348,28.609,15.348z"/>
		</g>
	</g>
	<g>
		<g>
			<path fill="#231F20" d="M34.643,32.404c-0.519,0-0.944-0.396-0.996-0.898c-0.297-0.338-2.018-1.268-4.988-1.268
				c-2.972,0-4.693,0.93-4.99,1.269c-0.051,0.504-0.477,0.897-0.995,0.897c-0.552,0-1-0.447-1-1c0-2.043,3.508-2.959,6.984-2.959
				c3.476,0,6.983,0.916,6.983,2.959C35.643,31.957,35.193,32.404,34.643,32.404z"/>
		</g>
	</g>
	<g>
		<g>
			<path fill="#231F20" d="M27.643,22.404c-0.104,0-0.211-0.018-0.316-0.053l-6-2c-0.524-0.176-0.807-0.74-0.632-1.266
				c0.174-0.521,0.739-0.809,1.265-0.633l6,2c0.523,0.176,0.807,0.742,0.632,1.266C28.451,22.141,28.061,22.404,27.643,22.404z"/>
		</g>
	</g>
	<g>
		<g>
			<path fill="#231F20" d="M29.643,22.404c-0.42,0-0.81-0.266-0.949-0.686c-0.176-0.521,0.107-1.09,0.632-1.266l6-2
				c0.526-0.176,1.091,0.109,1.265,0.633c0.176,0.523-0.107,1.09-0.632,1.266l-6,2C29.854,22.389,29.746,22.404,29.643,22.404z"/>
		</g>
	</g>
</g>
</svg>
