<?xml version="1.0" encoding="utf-8"?>
<!-- Generator: Adobe Illustrator 15.0.0, SVG Export Plug-In . SVG Version: 6.00 Build 0)  -->
<!DOCTYPE svg PUBLIC "-//W3C//DTD SVG 1.0//EN" "http://www.w3.org/TR/2001/REC-SVG-20010904/DTD/svg10.dtd">
<svg version="1.0" id="Layer_1" xmlns="http://www.w3.org/2000/svg" xmlns:xlink="http://www.w3.org/1999/xlink" x="0px" y="0px"
	 width="52px" height="53px" viewBox="0 0 52 53" enable-background="new 0 0 52 53" xml:space="preserve">
<g>
	<g>
		<g>
			<ellipse fill="#231F20" cx="20.01" cy="17.987" rx="1.458" ry="2.417"/>
		</g>
	</g>
	<g>
		<g>
			<ellipse fill="#231F20" cx="27.01" cy="17.987" rx="1.458" ry="2.417"/>
		</g>
	</g>
	<g>
		<g>
			<path fill="#231F20" d="M23.468,33.404c-6.547,0-11.874-5.383-11.874-12s5.327-12,11.874-12c6.548,0,11.874,5.383,11.874,12
				S30.016,33.404,23.468,33.404z M23.468,11.32c-5.624,0-10.199,4.522-10.199,10.084c0,5.561,4.575,10.084,10.199,10.084
				c5.625,0,10.2-4.523,10.2-10.084C33.668,15.843,29.092,11.32,23.468,11.32z"/>
		</g>
	</g>
	<g>
		<g>
			<path fill="#231F20" d="M23.469,30.404c-2.772,0-4.944-1.523-4.944-3.47c0-1.945,2.172-3.469,4.944-3.469
				c2.771,0,4.943,1.523,4.943,3.469C28.412,28.881,26.241,30.404,23.469,30.404z M23.469,24.279c-2.222,0-4.1,1.197-4.1,2.614
				c0,1.418,1.877,2.616,4.1,2.616c2.222,0,4.099-1.198,4.099-2.616C27.568,25.478,25.691,24.279,23.469,24.279z"/>
		</g>
	</g>
</g>
</svg>
