<?xml version="1.0" encoding="utf-8"?>
<!-- Generator: Adobe Illustrator 15.0.0, SVG Export Plug-In . SVG Version: 6.00 Build 0)  -->
<!DOCTYPE svg PUBLIC "-//W3C//DTD SVG 1.0//EN" "http://www.w3.org/TR/2001/REC-SVG-20010904/DTD/svg10.dtd">
<svg version="1.0" id="Layer_1" xmlns="http://www.w3.org/2000/svg" xmlns:xlink="http://www.w3.org/1999/xlink" x="0px" y="0px"
	 width="52px" height="53px" viewBox="0 0 52 53" enable-background="new 0 0 52 53" xml:space="preserve">
<g>
	<g>
		<g>
			<path fill="#231F20" d="M26.645,39.131c-6.565,0-11.906-5.369-11.906-11.969c0-6.602,5.341-11.971,11.906-11.971
				s11.906,5.369,11.906,11.971C38.551,33.762,33.21,39.131,26.645,39.131z M26.613,17.1c-5.565,0-10.094,4.527-10.094,10.094
				c0,5.564,4.528,10.094,10.094,10.094c5.564,0,10.093-4.527,10.093-10.094S32.178,17.1,26.613,17.1z"/>
		</g>
	</g>
	<g>
		<g>
			<path fill="#231F20" d="M31.613,33.193h-10c-0.553,0-1-0.445-1-1c0-0.553,0.447-1,1-1h10c0.552,0,1,0.447,1,1
				S32.165,33.193,31.613,33.193z"/>
		</g>
	</g>
	<g>
		<g>
			<path fill="#231F20" d="M19.676,27.186c-0.435,0-0.834-0.285-0.96-0.725c-0.153-0.531,0.154-1.084,0.685-1.236l13.875-3.982
				c0.531-0.156,1.084,0.152,1.238,0.686c0.152,0.529-0.154,1.084-0.686,1.236l-13.875,3.982
				C19.859,27.174,19.768,27.186,19.676,27.186z"/>
		</g>
	</g>
	<g>
		<g>
			<path fill="#231F20" d="M33.534,27.24c-0.095,0-0.188-0.016-0.284-0.041l-13.841-4.096c-0.529-0.154-0.832-0.713-0.675-1.24
				c0.156-0.531,0.713-0.832,1.242-0.678l13.842,4.096c0.529,0.154,0.832,0.713,0.675,1.24C34.364,26.959,33.966,27.24,33.534,27.24
				z"/>
		</g>
	</g>
</g>
</svg>
