<?xml version="1.0" encoding="utf-8"?>
<!-- Generator: Adobe Illustrator 15.0.0, SVG Export Plug-In . SVG Version: 6.00 Build 0)  -->
<!DOCTYPE svg PUBLIC "-//W3C//DTD SVG 1.0//EN" "http://www.w3.org/TR/2001/REC-SVG-20010904/DTD/svg10.dtd">
<svg version="1.0" id="Layer_1" xmlns="http://www.w3.org/2000/svg" xmlns:xlink="http://www.w3.org/1999/xlink" x="0px" y="0px"
	 width="52px" height="53px" viewBox="0 0 52 53" enable-background="new 0 0 52 53" xml:space="preserve">
<g>
	<g>
		<g>
			<path fill="#231F20" d="M30,39.123c-6.617,0-12-5.365-12-11.961c0-6.598,5.383-11.963,12-11.963s12,5.365,12,11.963
				C42,33.758,36.617,39.123,30,39.123z M30,16.926c-5.663,0-10.27,4.592-10.27,10.236c0,5.643,4.606,10.234,10.27,10.234
				s10.27-4.592,10.27-10.234C40.27,21.518,35.663,16.926,30,16.926z"/>
		</g>
	</g>
	<g>
		<g>
			<ellipse fill="#231F20" cx="26.459" cy="23.682" rx="1.479" ry="2.459"/>
		</g>
	</g>
	<g>
		<g>
			<ellipse fill="#231F20" cx="33.438" cy="23.682" rx="1.459" ry="2.459"/>
		</g>
	</g>
</g>
</svg>
