<?xml version="1.0" encoding="utf-8"?>
<!-- Generator: Adobe Illustrator 15.0.0, SVG Export Plug-In . SVG Version: 6.00 Build 0)  -->
<!DOCTYPE svg PUBLIC "-//W3C//DTD SVG 1.0//EN" "http://www.w3.org/TR/2001/REC-SVG-20010904/DTD/svg10.dtd">
<svg version="1.0" id="Layer_1" xmlns="http://www.w3.org/2000/svg" xmlns:xlink="http://www.w3.org/1999/xlink" x="0px" y="0px"
	 width="52px" height="53px" viewBox="0 0 52 53" enable-background="new 0 0 52 53" xml:space="preserve">
<g>
	<g>
		<g>
			<path fill="#231F20" d="M25.484,34.373c-6.608,0-11.984-5.368-11.984-11.969c0-6.602,5.376-11.97,11.984-11.97
				s11.984,5.368,11.984,11.97C37.468,29.005,32.093,34.373,25.484,34.373z M25.469,12.286c-5.561,0-10.085,4.532-10.085,10.103
				c0,5.571,4.524,10.104,10.085,10.104c5.561,0,10.084-4.532,10.084-10.104C35.553,16.818,31.029,12.286,25.469,12.286z"/>
		</g>
	</g>
	<g>
		<g>
			<ellipse fill="#231F20" cx="22.009" cy="18.882" rx="1.455" ry="2.41"/>
		</g>
	</g>
	<g>
		<g>
			<ellipse fill="#231F20" cx="28.992" cy="18.882" rx="1.455" ry="2.41"/>
		</g>
	</g>
	<g>
		<g>
			<path fill="#231F20" d="M25.489,30.321c-3.897,0-6.951-1.742-6.951-3.968c0-0.487,0.444-0.883,0.993-0.883
				c0.549,0,0.993,0.396,0.993,0.883c0,1.043,2.039,2.203,4.965,2.203c2.927,0,4.966-1.16,4.966-2.203
				c0-0.487,0.444-0.883,0.993-0.883c0.549,0,0.993,0.396,0.993,0.883C32.441,28.579,29.388,30.321,25.489,30.321z"/>
		</g>
	</g>
</g>
</svg>
