<?xml version="1.0" encoding="utf-8"?>
<!-- Generator: Adobe Illustrator 15.0.0, SVG Export Plug-In . SVG Version: 6.00 Build 0)  -->
<!DOCTYPE svg PUBLIC "-//W3C//DTD SVG 1.0//EN" "http://www.w3.org/TR/2001/REC-SVG-20010904/DTD/svg10.dtd">
<svg version="1.0" id="Layer_1" xmlns="http://www.w3.org/2000/svg" xmlns:xlink="http://www.w3.org/1999/xlink" x="0px" y="0px"
	 width="52px" height="53px" viewBox="0 0 52 53" enable-background="new 0 0 52 53" xml:space="preserve">
<g>
	<g>
		<g>
			<g>
				<g>
					<path fill="#231F20" d="M31.968,42.91c-6.598,0-11.966-5.369-11.966-11.971c0-6.6,5.368-11.969,11.966-11.969
						c6.599,0,11.966,5.369,11.966,11.969C43.934,37.541,38.564,42.91,31.968,42.91z M31.945,20.889
						c-5.555,0-10.074,4.516-10.074,10.062c0,5.549,4.52,10.061,10.074,10.061c5.556,0,10.074-4.514,10.074-10.061
						C42.021,25.404,37.501,20.889,31.945,20.889z"/>
				</g>
			</g>
		</g>
	</g>
	<g>
		<path fill="#231F20" d="M24.604,29.994v-1c2.448,0,4.44-2.023,4.44-4.514h1C30.045,27.521,27.604,29.994,24.604,29.994z"/>
	</g>
	<g>
		<path fill="#231F20" d="M39.368,30.023c-3.022,0-5.481-2.488-5.481-5.551h1c0,2.51,2.01,4.551,4.481,4.551V30.023z"/>
	</g>
	<g>
		<ellipse fill="#231F20" cx="28.939" cy="28.451" rx="0.983" ry="1.5"/>
	</g>
	<g>
		<ellipse fill="#231F20" cx="34.939" cy="28.451" rx="0.983" ry="1.5"/>
	</g>
	<g>
		<path fill="#231F20" d="M37.07,36.961h-1c0-1.1-0.924-1.992-2.059-1.992s-2.058,0.893-2.058,1.992h-1
			c0-1.65,1.372-2.992,3.058-2.992C35.698,33.969,37.07,35.311,37.07,36.961z"/>
	</g>
</g>
</svg>
