<?xml version="1.0" encoding="utf-8"?>
<!-- Generator: Adobe Illustrator 15.0.0, SVG Export Plug-In . SVG Version: 6.00 Build 0)  -->
<!DOCTYPE svg PUBLIC "-//W3C//DTD SVG 1.0//EN" "http://www.w3.org/TR/2001/REC-SVG-20010904/DTD/svg10.dtd">
<svg version="1.0" id="Layer_1" xmlns="http://www.w3.org/2000/svg" xmlns:xlink="http://www.w3.org/1999/xlink" x="0px" y="0px"
	 width="52px" height="53px" viewBox="0 0 52 53" enable-background="new 0 0 52 53" xml:space="preserve">
<g>
	<g>
		<g>
			<ellipse fill="#231F20" cx="33.283" cy="22.988" rx="1.458" ry="2.417"/>
		</g>
	</g>
	<g>
		<g>
			<ellipse fill="#231F20" cx="25.367" cy="22.988" rx="1.458" ry="2.417"/>
		</g>
	</g>
	<g>
		<g>
			<path fill="#231F20" d="M28.846,38.317c-6.582,0-11.938-5.345-11.938-11.912c0-6.568,5.354-11.913,11.938-11.913
				s11.938,5.345,11.938,11.913C40.784,32.973,35.43,38.317,28.846,38.317z M28.783,16.172c-5.625,0-10.2,4.591-10.2,10.233
				c0,5.642,4.575,10.231,10.2,10.231c5.624,0,10.199-4.59,10.199-10.231C38.982,20.763,34.407,16.172,28.783,16.172z"/>
		</g>
	</g>
	<g>
		<g>
			<path fill="#231F20" d="M34.825,33.405c-0.519,0-0.943-0.395-0.994-0.898c-0.297-0.338-1.951-1.268-4.922-1.268
				c-2.974,0-4.761,0.93-5.058,1.269c-0.053,0.504-0.479,0.897-0.996,0.897c-0.551,0-1-0.447-1-1c0-2.043,3.508-2.958,6.984-2.958
				s6.984,0.915,6.984,2.958C35.825,32.958,35.378,33.405,34.825,33.405z"/>
		</g>
	</g>
	<g>
		<g>
			<path fill="#231F20" d="M36.825,23.405c-0.104,0-0.212-0.017-0.316-0.052l-6-2c-0.522-0.176-0.807-0.741-0.633-1.266
				c0.176-0.522,0.74-0.808,1.267-0.633l6,2c0.522,0.176,0.807,0.742,0.633,1.266C37.634,23.141,37.244,23.405,36.825,23.405z"/>
		</g>
	</g>
	<g>
		<g>
			<path fill="#231F20" d="M21.825,23.405c-0.419,0-0.81-0.266-0.949-0.685c-0.174-0.522,0.108-1.09,0.633-1.266l6-2
				c0.527-0.175,1.091,0.109,1.267,0.633c0.174,0.523-0.109,1.09-0.633,1.266l-6,2C22.036,23.39,21.93,23.405,21.825,23.405z"/>
		</g>
	</g>
</g>
</svg>
