<?xml version="1.0" encoding="utf-8"?>
<!-- Generator: Adobe Illustrator 15.0.0, SVG Export Plug-In . SVG Version: 6.00 Build 0)  -->
<!DOCTYPE svg PUBLIC "-//W3C//DTD SVG 1.0//EN" "http://www.w3.org/TR/2001/REC-SVG-20010904/DTD/svg10.dtd">
<svg version="1.0" id="Layer_1" xmlns="http://www.w3.org/2000/svg" xmlns:xlink="http://www.w3.org/1999/xlink" x="0px" y="0px"
	 width="52px" height="53px" viewBox="0 0 52 53" enable-background="new 0 0 52 53" xml:space="preserve">
<g>
	<g>
		<g>
			<g>
				<g>
					<path fill="#231F20" d="M22.823,38.652c-6.583,0-11.938-5.369-11.938-11.97c0-6.602,5.354-11.969,11.938-11.969
						c6.582,0,11.938,5.367,11.938,11.969C34.761,33.283,29.405,38.652,22.823,38.652z M22.886,16.537
						c-5.63,0-10.212,4.545-10.212,10.129c0,5.586,4.582,10.129,10.212,10.129c5.63,0,10.211-4.543,10.211-10.129
						C33.097,21.082,28.516,16.537,22.886,16.537z"/>
				</g>
			</g>
		</g>
	</g>
	<g>
		<g>
			<path fill="#231F20" d="M20.494,20.783c0.743,1.524,0.087,3.377-1.467,4.135c-1.554,0.756-3.416,0.133-4.16-1.395L20.494,20.783z
				"/>
		</g>
	</g>
	<g>
		<g>
			<path fill="#231F20" d="M30.877,23.594c-0.815,1.562-2.728,2.178-4.269,1.373c-1.541-0.803-2.13-2.725-1.313-4.287L30.877,23.594
				z"/>
		</g>
	</g>
	<g>
		<g>
			<path fill="#231F20" d="M27.81,33.662c-0.582,0-1.055-0.355-1.055-0.795c0-0.769-1.589-2.289-3.869-2.289
				c-2.279,0-3.868,1.521-3.868,2.289c0,0.438-0.473,0.795-1.056,0.795c-0.582,0-1.055-0.355-1.055-0.795
				c0-1.801,2.626-3.174,5.979-3.174s5.979,1.373,5.979,3.174C28.865,33.307,28.393,33.662,27.81,33.662z"/>
		</g>
	</g>
</g>
</svg>
