<?xml version="1.0" encoding="utf-8"?>
<!-- Generator: Adobe Illustrator 15.0.0, SVG Export Plug-In . SVG Version: 6.00 Build 0)  -->
<!DOCTYPE svg PUBLIC "-//W3C//DTD SVG 1.0//EN" "http://www.w3.org/TR/2001/REC-SVG-20010904/DTD/svg10.dtd">
<svg version="1.0" id="Layer_1" xmlns="http://www.w3.org/2000/svg" xmlns:xlink="http://www.w3.org/1999/xlink" x="0px" y="0px"
	 width="52px" height="53px" viewBox="0 0 52 53" enable-background="new 0 0 52 53" xml:space="preserve">
<g>
	<path fill="#434343" d="M23.903,41.258h-1.807c-1.675,0-3.037-1.344-3.037-2.994v-5.026h-5.045c-1.651,0-2.994-1.36-2.994-3.035
		v-1.805c0-1.674,1.343-3.035,2.994-3.035h5.045v-5.028c0-1.65,1.362-2.993,3.037-2.993h1.807c1.675,0,3.037,1.343,3.037,2.993
		v5.028h5.045c1.652,0,2.994,1.361,2.994,3.035v1.805c0,1.675-1.342,3.035-2.994,3.035h-5.045v5.026
		C26.939,39.914,25.578,41.258,23.903,41.258z M14.062,27.199c-0.598,0-1.085,0.503-1.085,1.122v1.955
		c0,0.618,0.487,1.122,1.085,1.122h5.748c0.596,0,1.079,0.484,1.079,1.083v5.876c0,0.594,0.509,1.076,1.133,1.076h1.957
		c0.625,0,1.133-0.482,1.133-1.076v-5.876c0-0.599,0.482-1.083,1.079-1.083h5.872c0.598,0,1.084-0.504,1.084-1.122v-1.955
		c0-0.619-0.486-1.122-1.084-1.122h-5.872c-0.597,0-1.079-0.486-1.079-1.084v-5.744c0-0.594-0.508-1.076-1.133-1.076h-1.957
		c-0.624,0-1.133,0.482-1.133,1.076v5.744c0,0.598-0.482,1.084-1.079,1.084H14.062z"/>
</g>
</svg>
