<?xml version="1.0" encoding="utf-8"?>
<!-- Generator: Adobe Illustrator 15.0.0, SVG Export Plug-In . SVG Version: 6.00 Build 0)  -->
<!DOCTYPE svg PUBLIC "-//W3C//DTD SVG 1.0//EN" "http://www.w3.org/TR/2001/REC-SVG-20010904/DTD/svg10.dtd">
<svg version="1.0" id="Layer_1" xmlns="http://www.w3.org/2000/svg" xmlns:xlink="http://www.w3.org/1999/xlink" x="0px" y="0px"
	 width="52px" height="53px" viewBox="0 0 52 53" enable-background="new 0 0 52 53" xml:space="preserve">
<g>
	<path fill="#434343" d="M18.876,11.866c0.252-0.813,0.013-1.3-0.254-1.568c-0.636-0.64-1.5-0.992-2.437-0.992
		c-1.052,0-2.103,0.451-2.881,1.238c-1.533,1.546-1.644,3.949-0.244,5.359c0.237,0.239,0.559,0.365,0.926,0.365
		c0.002,0,0.006-0.001,0.009-0.001C15.005,14.249,16.747,12.666,18.876,11.866z"/>
	<path fill="#434343" d="M34.085,16.27c0.366-0.002,0.687-0.127,0.927-0.365c1.408-1.409,1.299-3.814-0.246-5.359
		c-0.787-0.787-1.847-1.238-2.906-1.238c-0.939,0-1.812,0.353-2.452,0.992c-0.271,0.269-0.511,0.756-0.255,1.57
		C31.303,12.669,33.062,14.251,34.085,16.27z"/>
	<path fill="#434343" d="M32.023,17.326c-1.008-2.009-2.748-3.583-4.873-4.381c-0.979-0.367-2.035-0.577-3.144-0.577
		c-1.104,0-2.155,0.21-3.133,0.575c-2.129,0.796-3.871,2.372-4.881,4.382c-0.604,1.204-0.953,2.557-0.953,3.992
		c0,4.935,4.021,8.948,8.967,8.948s8.97-4.014,8.97-8.948C32.979,19.882,32.629,18.53,32.023,17.326z M24.009,28.272
		c-3.847,0-6.977-3.138-6.977-6.994s3.13-6.994,6.977-6.994c3.849,0,6.978,3.138,6.978,6.994S27.855,28.272,24.009,28.272z"/>
	<path fill="#434343" d="M24.979,21.267c0,0.529-0.42,0.959-0.938,0.959l0,0c-0.52,0-0.938-0.43-0.938-0.959V16.31
		c0-0.529,0.42-0.959,0.938-0.959l0,0c0.52,0,0.938,0.43,0.938,0.959V21.267z"/>
	<path fill="#434343" d="M24.062,22.226c-0.529,0-0.959-0.42-0.959-0.938l0,0c0-0.518,0.43-0.938,0.959-0.938h2.957
		c0.527,0,0.959,0.42,0.959,0.938l0,0c0,0.518-0.432,0.938-0.959,0.938H24.062z"/>
	<path fill="none" stroke="#434343" stroke-width="2" stroke-linecap="round" stroke-linejoin="round" stroke-miterlimit="10" d="
		M19.999,29.311"/>
	<path fill="none" stroke="#434343" stroke-width="2" stroke-linecap="round" stroke-linejoin="round" stroke-miterlimit="10" d="
		M28.062,29.311"/>
	<ellipse fill="#434343" cx="18.04" cy="29.28" rx="2" ry="1.978"/>
	<ellipse fill="#434343" cx="30.04" cy="29.28" rx="2" ry="1.978"/>
</g>
</svg>
