<?xml version="1.0" encoding="utf-8"?>
<!-- Generator: Adobe Illustrator 15.0.0, SVG Export Plug-In . SVG Version: 6.00 Build 0)  -->
<!DOCTYPE svg PUBLIC "-//W3C//DTD SVG 1.0//EN" "http://www.w3.org/TR/2001/REC-SVG-20010904/DTD/svg10.dtd">
<svg version="1.0" id="Layer_1" xmlns="http://www.w3.org/2000/svg" xmlns:xlink="http://www.w3.org/1999/xlink" x="0px" y="0px"
	 width="52px" height="53px" viewBox="0 0 52 53" enable-background="new 0 0 52 53" xml:space="preserve">
<g>
	<g>
		<path fill="#434343" d="M31.5,32.5h-2c-0.553,0-1-0.447-1-1s0.447-1,1-1h2c0.553,0,1,0.447,1,1S32.053,32.5,31.5,32.5z"/>
	</g>
	<polygon fill="#434343" points="37.5,24.5 33.5,24.5 33.5,21.5 36.5,21.5 	"/>
	<g>
		<path fill="#434343" d="M42.395,25.044l-1.981-3.956C40.219,20.656,39.168,18.5,37.5,18.5h-16c-1.654,0-3,1.344-3,2.996v7.988
			c0,1.652,1.346,2.996,3,2.996c0.512,0,0.918-0.39,0.977-0.885l0.004-0.205c-0.049-0.507-0.462-0.906-0.981-0.906
			c-0.551,0-1-0.448-1-1v-7.988c0-0.551,0.449-0.998,1-0.998l15.991-0.001c0.225,0.04,0.774,0.698,1.114,1.446l1.895,3.783v3.758
			c0,0.552-0.448,1-1,1c-0.553,0-1,0.447-1,0.998c0,0.553,0.447,0.998,1,0.998c1.654,0,3-1.344,3-2.996V25.49
			C42.5,25.336,42.464,25.184,42.395,25.044z"/>
		<path fill="#434343" d="M36.5,28.518c-1.637,0-2.969,1.33-2.969,2.965c0,1.636,1.332,2.966,2.969,2.966s2.969-1.33,2.969-2.966
			C39.469,29.848,38.137,28.518,36.5,28.518z M36.531,32.57c-0.609,0-1.103-0.494-1.103-1.103s0.493-1.103,1.103-1.103
			c0.608,0,1.103,0.494,1.103,1.103S37.14,32.57,36.531,32.57z"/>
		<path fill="#434343" d="M25.5,28.518c-1.637,0-2.969,1.338-2.969,2.98c0,1.645,1.332,2.98,2.969,2.98s2.969-1.336,2.969-2.98
			C28.469,29.855,27.137,28.518,25.5,28.518z M25.531,32.592c-0.609,0-1.103-0.496-1.103-1.107c0-0.61,0.494-1.107,1.103-1.107
			c0.609,0,1.103,0.497,1.103,1.107C26.634,32.096,26.14,32.592,25.531,32.592z"/>
		<path fill="#434343" d="M28.5,23.5h-1v-1c0-0.553-0.448-1-1-1s-1,0.447-1,1v1h-1c-0.552,0-1,0.447-1,1s0.448,1,1,1h1v1
			c0,0.553,0.448,1,1,1s1-0.447,1-1v-1h1c0.553,0,1-0.447,1-1S29.053,23.5,28.5,23.5z"/>
	</g>
	<path fill="#434343" d="M33.5,18c0,0.828-0.021,1.5-0.021,1.5H30.52c0,0-0.021-0.672-0.021-1.5l0,0c0-0.828,0.504-1.5,1.125-1.5
		h0.75C32.996,16.5,33.5,17.172,33.5,18L33.5,18z"/>
</g>
</svg>
