<?xml version="1.0" encoding="utf-8"?>
<!-- Generator: Adobe Illustrator 15.0.0, SVG Export Plug-In . SVG Version: 6.00 Build 0)  -->
<!DOCTYPE svg PUBLIC "-//W3C//DTD SVG 1.0//EN" "http://www.w3.org/TR/2001/REC-SVG-20010904/DTD/svg10.dtd">
<svg version="1.0" id="Layer_1" xmlns="http://www.w3.org/2000/svg" xmlns:xlink="http://www.w3.org/1999/xlink" x="0px" y="0px"
	 width="52px" height="53px" viewBox="0 0 52 53" enable-background="new 0 0 52 53" xml:space="preserve">
<g>
	<g>
		<path fill="#414042" d="M22.474,16.656v13.812c0,2.205-1.798,4-4.008,4h0.142c-2.21,0-4.009-1.795-4.009-4V16.656
			c0-2.206,1.799-4,4.009-4h-0.142C20.676,12.656,22.474,14.45,22.474,16.656z M16.474,30.618c0,1.124,0.916,2.038,2.041,2.038
			h0.107c1.125,0,2.039-0.914,2.039-2.038V16.506c0-1.122-0.914-2.037-2.039-2.037h-0.107c-1.125,0-2.041,0.915-2.041,2.037V30.618z
			"/>
	</g>
	<g>
		<path fill="#414042" d="M27.849,34.5c-2.006,0-3.303-1.195-3.303-3.044V15.598c0-1.855,1.291-3.054,3.288-3.054
			c1.297,0,2.66,0.529,3.476,1.347l5.826,6.365c0.888,0.89,1.364,2.044,1.364,3.271s-0.477,2.381-1.342,3.249l-5.872,6.41
			C30.501,33.974,29.144,34.5,27.849,34.5z M27.784,14.543c-1.301,0-1.301,0.766-1.301,1.054v15.858c0,0.286,0,1.044,1.316,1.044
			c0.771,0,1.617-0.309,2.06-0.751l5.903-6.41c0.467-0.468,0.737-1.119,0.737-1.812s-0.271-1.345-0.761-1.835l-5.856-6.365
			C29.411,14.856,28.558,14.543,27.784,14.543z"/>
	</g>
</g>
</svg>
