<?xml version="1.0" encoding="utf-8"?>
<!-- Generator: Adobe Illustrator 15.0.0, SVG Export Plug-In . SVG Version: 6.00 Build 0)  -->
<!DOCTYPE svg PUBLIC "-//W3C//DTD SVG 1.0//EN" "http://www.w3.org/TR/2001/REC-SVG-20010904/DTD/svg10.dtd">
<svg version="1.0" id="Layer_1" xmlns="http://www.w3.org/2000/svg" xmlns:xlink="http://www.w3.org/1999/xlink" x="0px" y="0px"
	 width="52px" height="53px" viewBox="0 0 52 53" enable-background="new 0 0 52 53" xml:space="preserve">
<g>
	<g>
		<path fill="#414042" d="M24.481,14.372l-6.97,5.892c-0.637,0.563-0.998,1.368-0.998,2.209c0,0.737,0.276,1.444,0.777,1.991
			c1.11,1.214,3.012,1.308,4.238,0.211l2.078-1.543v4.118c0,1.734,0.785,3.145,2.938,3.176c2.151-0.031,2.937-1.441,2.937-3.176
			v-3.994c1.63,1.475,1.894,1.352,2.003,1.442c1.198,1.071,3.099,0.977,4.209-0.234c1.072-1.168,0.97-3.144-0.215-4.196
			l-6.981-5.898C27.357,13.352,25.628,13.352,24.481,14.372z M27.168,15.854l6.981,5.897c0.207,0.185,0.323,0.44,0.323,0.722
			c0,0.241-0.091,0.475-0.256,0.653c-0.373,0.406-1.011,0.438-1.422,0.069c-0.058-0.049-1.05-0.532-2.593-1.987
			c-0.221-0.208-0.464-0.386-0.719-0.547c-0.548-0.347-1.937-0.22-1.937,1.331c0,1.55,0,5.377,0,5.377
			c0,0.893,0.086,1.245-1.039,1.245h0.018c-1.125,0-1.041-0.353-1.041-1.245c0,0,0-4.053,0-5.4s-1.297-1.691-1.875-1.352
			c-0.271,0.158-0.533,0.338-0.773,0.546l-2.633,2.024c-0.421,0.375-1.059,0.345-1.432-0.062c-0.357-0.392-0.322-1.028,0.071-1.379
			l6.972-5.892C26.202,15.509,26.783,15.509,27.168,15.854z"/>
	</g>
	<g>
		<path fill="#414042" d="M35.615,37.5H17.302c-1.571,0-2.802-1.309-2.802-2.979s1.23-2.979,2.802-2.979h18.313
			c1.571,0,2.802,1.31,2.802,2.979S37.186,37.5,35.615,37.5z M17.302,33.542c-0.728,0-1.272,0.539-1.272,1.021
			c0,0.482,0.544,1.021,1.272,1.021h18.313c0.728,0,1.272-0.54,1.272-1.021c0-0.48-0.544-1.021-1.272-1.021H17.302z"/>
	</g>
</g>
</svg>
