<?xml version="1.0" encoding="utf-8"?>
<!-- Generator: Adobe Illustrator 15.0.0, SVG Export Plug-In . SVG Version: 6.00 Build 0)  -->
<!DOCTYPE svg PUBLIC "-//W3C//DTD SVG 1.0//EN" "http://www.w3.org/TR/2001/REC-SVG-20010904/DTD/svg10.dtd">
<svg version="1.0" id="Layer_1" xmlns="http://www.w3.org/2000/svg" xmlns:xlink="http://www.w3.org/1999/xlink" x="0px" y="0px"
	 width="52px" height="53px" viewBox="0 0 52 53" enable-background="new 0 0 52 53" xml:space="preserve">
<g>
	<g>
		<path fill="#414042" d="M38.462,29.367c0,0.738-0.276,1.445-0.778,1.992c-1.109,1.212-3.011,1.307-4.237,0.211l-4.619-4.014
			c-1.302-1.129-3.486-1.134-4.676-0.012c-1.59,1.5-4.536,3.945-4.661,4.049c-1.198,1.072-3.099,0.977-4.209-0.234
			c-1.072-1.168-0.97-3.143,0.215-4.198l8.98-7.898c1.142-1.018,2.871-1.018,4.018,0.005l8.97,7.89
			C38.1,27.723,38.462,28.526,38.462,29.367z M16.503,29.367c0,0.241,0.091,0.474,0.256,0.653c0.373,0.407,1.012,0.438,1.423,0.071
			c0.058-0.049,3.05-2.533,4.593-3.989c1.927-1.816,5.3-1.836,7.367-0.044l4.632,4.025c0.422,0.375,1.06,0.344,1.432-0.062
			c0.357-0.391,0.322-1.029-0.07-1.379l-8.972-7.891c-0.39-0.349-0.971-0.349-1.355-0.005l-8.981,7.899
			C16.619,28.83,16.503,29.088,16.503,29.367z"/>
	</g>
</g>
</svg>
