<?xml version="1.0" encoding="utf-8"?>
<!-- Generator: Adobe Illustrator 15.0.0, SVG Export Plug-In . SVG Version: 6.00 Build 0)  -->
<!DOCTYPE svg PUBLIC "-//W3C//DTD SVG 1.0//EN" "http://www.w3.org/TR/2001/REC-SVG-20010904/DTD/svg10.dtd">
<svg version="1.0" id="Layer_1" xmlns="http://www.w3.org/2000/svg" xmlns:xlink="http://www.w3.org/1999/xlink" x="0px" y="0px"
	 width="52px" height="53px" viewBox="0 0 52 53" enable-background="new 0 0 52 53" xml:space="preserve">
<path fill="#414042" d="M22.279,40.07h3.717c-0.002-0.504-0.03-8.848-0.03-8.865c0-0.553-0.397-0.941-0.95-0.941H23.09
	c-0.255,0-0.347-0.561-0.009-0.898l4.265-4.068c0.362-0.33,1.033-0.303,1.332-0.031l4.273,4.139c0.35,0.35,0.193,0.861-0.047,0.861
	H31.15c-0.553,0-0.998,0.391-0.998,0.941c0,0.018,0,8.361,0,8.863h3.568c3.42,0,6.199-2.775,6.199-6.188V22.449
	c0-3.414-2.779-6.189-6.199-6.189H22.279c-3.42,0-6.201,2.775-6.201,6.189v11.434C16.078,37.293,18.859,40.07,22.279,40.07z
	 M17.922,22.396c0-2.352,1.918-4.264,4.276-4.264h11.637c2.356,0,4.274,1.912,4.274,4.264v11.602c0,2.35-1.918,4.262-4.274,4.262
	h-1.849l-0.008-6.123h0.744c1.31,0,2.258-0.875,2.258-2.178c0-0.771-0.334-1.555-0.847-2.016l-4.091-4
	c-0.544-0.494-1.261-0.711-2.018-0.711c-0.758,0-1.479,0.219-2.051,0.744l-4.07,3.932c-0.547,0.496-0.887,1.283-0.887,2.057
	c0,1.299,0.951,2.203,2.262,2.203h0.82l0.006,6.092h-1.91c-2.357,0-4.275-1.912-4.275-4.262L17.922,22.396L17.922,22.396z"/>
</svg>
