<?xml version="1.0" encoding="utf-8"?>
<!-- Generator: Adobe Illustrator 15.0.0, SVG Export Plug-In . SVG Version: 6.00 Build 0)  -->
<!DOCTYPE svg PUBLIC "-//W3C//DTD SVG 1.0//EN" "http://www.w3.org/TR/2001/REC-SVG-20010904/DTD/svg10.dtd">
<svg version="1.0" id="Layer_1" xmlns="http://www.w3.org/2000/svg" xmlns:xlink="http://www.w3.org/1999/xlink" x="0px" y="0px"
	 width="52px" height="53px" viewBox="0 0 52 53" enable-background="new 0 0 52 53" xml:space="preserve">
<g>
	<g>
		<path fill="#414042" d="M20.471,41.5c-0.738,0-1.445-0.277-1.992-0.778c-1.213-1.11-1.308-3.011-0.211-4.237l4.014-4.62
			c1.129-1.301,1.134-3.485,0.012-4.675c-1.5-1.59-3.945-4.536-4.049-4.661c-1.072-1.198-0.977-3.1,0.234-4.21
			c1.168-1.071,3.143-0.97,4.197,0.215l7.898,8.981c1.018,1.141,1.018,2.87-0.006,4.017l-7.889,8.971
			C22.113,41.137,21.311,41.5,20.471,41.5z M20.471,19.54c-0.242,0-0.475,0.092-0.654,0.257c-0.406,0.373-0.438,1.011-0.07,1.422
			c0.049,0.058,2.533,3.05,3.988,4.594c1.816,1.926,1.836,5.3,0.045,7.366l-4.025,4.633c-0.375,0.421-0.344,1.059,0.062,1.432
			c0.391,0.357,1.029,0.322,1.379-0.071l7.891-8.971c0.35-0.391,0.35-0.972,0.005-1.356l-7.899-8.981
			C21.007,19.657,20.749,19.54,20.471,19.54z"/>
	</g>
</g>
</svg>
