<?xml version="1.0" encoding="utf-8"?>
<!-- Generator: Adobe Illustrator 15.0.0, SVG Export Plug-In . SVG Version: 6.00 Build 0)  -->
<!DOCTYPE svg PUBLIC "-//W3C//DTD SVG 1.0//EN" "http://www.w3.org/TR/2001/REC-SVG-20010904/DTD/svg10.dtd">
<svg version="1.0" id="Layer_1" xmlns="http://www.w3.org/2000/svg" xmlns:xlink="http://www.w3.org/1999/xlink" x="0px" y="0px"
	 width="52px" height="53px" viewBox="0 0 52 53" enable-background="new 0 0 52 53" xml:space="preserve">
<path fill="#414042" d="M31.566,25.801v1.73l-6.164,0.011v-1.744c0-1.309-0.875-2.258-2.178-2.258c-0.771,0-1.553,0.335-2.014,0.847
	l-4,4.09c-0.495,0.545-0.711,1.262-0.711,2.018c0,0.758,0.219,1.479,0.744,2.05l3.932,4.07c0.496,0.547,1.283,0.887,2.055,0.887
	c1.299,0,2.203-0.951,2.203-2.262v-1.73l6.164-0.011v1.744c0,1.309,0.875,2.258,2.178,2.258c0.771,0,1.553-0.335,2.014-0.846
	l4-4.092c0.495-0.543,0.711-1.261,0.711-2.017c0-0.758-0.219-1.479-0.744-2.05l-3.932-4.07c-0.496-0.547-1.283-0.887-2.055-0.887
	C32.471,23.539,31.566,24.49,31.566,25.801z M34.367,25.577l4.07,4.271c0.33,0.362,0.302,1.034,0.031,1.334L34.33,35.46
	c-0.349,0.351-0.862,0.194-0.862-0.047v-2.875c0-0.554-0.389-1-0.941-1c-0.031,0-8.022,0.002-8.055,0.002
	c-0.553,0-0.941,0.397-0.941,0.951v2.962c0,0.255-0.561,0.347-0.898,0.009l-4.07-4.271c-0.33-0.362-0.302-1.034-0.031-1.334
	l4.138-4.278c0.349-0.351,0.862-0.194,0.862,0.047v2.875c0,0.554,0.389,1,0.941,1c0.031,0,8.022-0.035,8.055-0.035
	c0.553,0,0.941-0.397,0.941-0.95v-2.93C33.469,25.331,34.029,25.239,34.367,25.577z"/>
</svg>
