<?xml version="1.0" encoding="utf-8"?>
<!-- Generator: Adobe Illustrator 15.0.0, SVG Export Plug-In . SVG Version: 6.00 Build 0)  -->
<!DOCTYPE svg PUBLIC "-//W3C//DTD SVG 1.0//EN" "http://www.w3.org/TR/2001/REC-SVG-20010904/DTD/svg10.dtd">
<svg version="1.0" id="Layer_1" xmlns="http://www.w3.org/2000/svg" xmlns:xlink="http://www.w3.org/1999/xlink" x="0px" y="0px"
	 width="52px" height="53px" viewBox="0 0 52 53" enable-background="new 0 0 52 53" xml:space="preserve">
<path fill="#414042" d="M32.73,18.404h-3.724c0.002,0.502,0.03,8.924,0.03,8.941c0,0.555,0.396,0.939,0.951,0.939h1.929
	c0.255,0,0.349,0.562,0.01,0.898l-4.271,4.07c-0.363,0.33-1.035,0.301-1.334,0.031l-4.279-4.139
	c-0.352-0.35-0.193-0.861,0.047-0.861h1.875c0.555,0,1-0.389,1-0.941c0-0.02-0.001-8.439-0.002-8.943h-3.689
	c-3.424,0-6.209,2.775-6.209,6.189v11.432c0,3.414,2.785,6.191,6.209,6.191H32.73c3.424,0,6.209-2.777,6.209-6.191V24.59
	C38.939,21.18,36.154,18.404,32.73,18.404z M37.064,36.078c0,2.35-1.918,4.264-4.275,4.264H21.15c-2.356,0-4.273-1.914-4.273-4.264
	v-11.6c0-2.352,1.917-4.264,4.273-4.264H23l0.008,6.201h-0.744c-1.309,0-2.258,0.875-2.258,2.178c0,0.771,0.335,1.555,0.846,2.016
	l4.092,4c0.543,0.494,1.262,0.711,2.018,0.711c0.758,0,1.479-0.221,2.05-0.744l4.07-3.932c0.547-0.496,0.887-1.283,0.887-2.057
	c0-1.299-0.95-2.203-2.262-2.203h-0.729l-0.008-6.17h1.822c2.357,0,4.273,1.912,4.273,4.264V36.078L37.064,36.078z"/>
</svg>
