<?xml version="1.0" encoding="utf-8"?>
<!-- Generator: Adobe Illustrator 15.0.0, SVG Export Plug-In . SVG Version: 6.00 Build 0)  -->
<!DOCTYPE svg PUBLIC "-//W3C//DTD SVG 1.0//EN" "http://www.w3.org/TR/2001/REC-SVG-20010904/DTD/svg10.dtd">
<svg version="1.0" id="Layer_1" xmlns="http://www.w3.org/2000/svg" xmlns:xlink="http://www.w3.org/1999/xlink" x="0px" y="0px"
	 width="52px" height="53px" viewBox="0 0 52 53" enable-background="new 0 0 52 53" xml:space="preserve">
<g>
	<g>
		<path fill="#414042" d="M13,16.389c0-0.738,0.275-1.445,0.777-1.992c1.109-1.212,3.011-1.307,4.236-0.211l4.62,4.014
			c1.302,1.129,3.485,1.134,4.675,0.012c1.59-1.5,4.537-3.945,4.662-4.049c1.197-1.072,3.1-0.979,4.209,0.234
			c1.071,1.168,0.971,3.143-0.215,4.198l-8.98,7.898c-1.142,1.019-2.871,1.019-4.018-0.005l-8.971-7.89
			C13.361,18.034,13,17.23,13,16.389z M34.959,16.389c0-0.241-0.092-0.474-0.257-0.653c-0.373-0.407-1.011-0.438-1.423-0.071
			c-0.057,0.049-3.049,2.533-4.594,3.989c-1.926,1.816-5.299,1.836-7.365,0.044l-4.633-4.025c-0.422-0.375-1.06-0.344-1.433,0.062
			c-0.356,0.391-0.321,1.029,0.071,1.379l8.971,7.891c0.391,0.349,0.973,0.349,1.355,0.005l8.981-7.899
			C34.842,16.926,34.959,16.669,34.959,16.389z"/>
	</g>
</g>
</svg>
