<?xml version="1.0" encoding="utf-8"?>
<!-- Generator: Adobe Illustrator 15.0.0, SVG Export Plug-In . SVG Version: 6.00 Build 0)  -->
<!DOCTYPE svg PUBLIC "-//W3C//DTD SVG 1.0//EN" "http://www.w3.org/TR/2001/REC-SVG-20010904/DTD/svg10.dtd">
<svg version="1.0" id="Layer_1" xmlns="http://www.w3.org/2000/svg" xmlns:xlink="http://www.w3.org/1999/xlink" x="0px" y="0px"
	 width="52px" height="53px" viewBox="0 0 52 53" enable-background="new 0 0 52 53" xml:space="preserve">
<path fill="#414042" d="M28.532,34.733l8.97-7.891c0.636-0.564,0.998-1.369,0.998-2.209c0-0.738-0.276-1.445-0.778-1.992
	c-1.11-1.213-3.011-1.307-4.237-0.211l-4.078,3.543V14.855c0-1.735-0.786-3.144-2.938-3.176c-2.151,0.032-2.938,1.441-2.938,3.176
	v10.994c-1.63-1.474-3.895-3.352-4.003-3.442c-1.198-1.072-3.099-0.977-4.209,0.234c-1.072,1.168-0.97,3.143,0.215,4.197
	l8.981,7.898C25.656,35.755,27.386,35.755,28.532,34.733z M25.846,33.253l-8.981-7.898c-0.207-0.184-0.323-0.441-0.323-0.721
	c0-0.242,0.091-0.475,0.256-0.654c0.373-0.406,1.011-0.438,1.422-0.07c0.058,0.049,3.05,2.533,4.593,3.988
	c0.221,0.208,0.464,0.386,0.719,0.547c0.548,0.347,1.937,0.219,1.937-1.331c0-1.55,0-12.377,0-12.377
	c0-0.893-0.086-1.245,1.039-1.245h-0.017c1.125,0,1.041,0.353,1.041,1.245c0,0,0,11.052,0,12.4c0,1.348,1.297,1.691,1.875,1.353
	c0.271-0.159,0.533-0.338,0.773-0.546l4.632-4.025c0.421-0.375,1.059-0.344,1.432,0.062c0.357,0.391,0.322,1.029-0.071,1.379
	l-8.971,7.891C26.812,33.597,26.23,33.597,25.846,33.253z"/>
</svg>
