<?xml version="1.0" encoding="utf-8"?>
<!-- Generator: Adobe Illustrator 15.0.0, SVG Export Plug-In . SVG Version: 6.00 Build 0)  -->
<!DOCTYPE svg PUBLIC "-//W3C//DTD SVG 1.0//EN" "http://www.w3.org/TR/2001/REC-SVG-20010904/DTD/svg10.dtd">
<svg version="1.0" id="Layer_1" xmlns="http://www.w3.org/2000/svg" xmlns:xlink="http://www.w3.org/1999/xlink" x="0px" y="0px"
	 width="52px" height="53px" viewBox="0 0 52 53" enable-background="new 0 0 52 53" xml:space="preserve">
<g>
	<g>
		<g>
			<path fill="#414042" d="M17.093,28.252c0-0.705,0.244-1.391,0.688-1.931c0.51-0.621,1.225-0.997,2.014-1.06
				c0.785-0.062,1.545,0.193,2.141,0.721c0.041,0.038,3.938,3.518,5.062,4.479c0.766,0.654,1.176,0.658,1.92,0.019
				c1.107-0.952,5.24-4.521,5.24-4.521c0.602-0.52,1.361-0.766,2.146-0.693c0.788,0.072,1.497,0.457,2.002,1.082
				c0.979,1.224,0.803,3.184-0.377,4.201l-8.111,7c-1.104,0.955-2.703,0.943-3.799-0.024l-7.91-7
				C17.462,29.953,17.093,29.125,17.093,28.252z M35.462,27.471c0,0-4.133,3.57-5.241,4.525c-1.492,1.281-3.017,1.276-4.525-0.017
				c-1.141-0.978-4.93-4.358-5.09-4.503c-0.183-0.161-0.414-0.241-0.651-0.223c-0.242,0.02-0.466,0.139-0.627,0.334
				c-0.334,0.412-0.283,1.092,0.106,1.437l7.909,7c0.337,0.298,0.826,0.302,1.166,0.009l8.111-7
				c0.396-0.342,0.455-1.021,0.123-1.436c-0.16-0.198-0.382-0.32-0.625-0.342C35.882,27.234,35.646,27.312,35.462,27.471z"/>
		</g>
	</g>
	<g>
		<g>
			<path fill="#414042" d="M17.093,17.252c0-0.705,0.244-1.391,0.688-1.931c0.51-0.621,1.225-0.996,2.014-1.059
				c0.785-0.062,1.545,0.194,2.139,0.72l0,0c0,0,4.061,3.569,5.113,4.524c0.676,0.612,1.121,0.613,1.836,0.001
				c1.102-0.941,5.271-4.549,5.271-4.549c0.604-0.52,1.365-0.766,2.146-0.694c0.789,0.073,1.498,0.458,2.004,1.084
				c0.979,1.218,0.803,3.181-0.379,4.199l-8.109,7c-1.105,0.955-2.703,0.944-3.799-0.023l-7.91-7
				C17.462,18.953,17.093,18.125,17.093,17.252z M35.462,16.472c0,0-4.176,3.614-5.278,4.556c-1.492,1.276-3.043,1.263-4.479-0.04
				c-1.05-0.951-5.093-4.506-5.093-4.506c-0.188-0.166-0.42-0.246-0.657-0.227c-0.242,0.019-0.466,0.138-0.627,0.334
				c-0.334,0.409-0.283,1.091,0.106,1.436l7.909,6.999c0.337,0.298,0.826,0.302,1.166,0.009l8.111-7
				c0.221-0.191,0.351-0.477,0.351-0.782c0-0.169-0.041-0.419-0.228-0.651c-0.16-0.2-0.382-0.321-0.625-0.344
				C35.882,16.235,35.646,16.312,35.462,16.472L35.462,16.472z"/>
		</g>
	</g>
</g>
</svg>
