<?xml version="1.0" encoding="utf-8"?>
<!-- Generator: Adobe Illustrator 15.0.0, SVG Export Plug-In . SVG Version: 6.00 Build 0)  -->
<!DOCTYPE svg PUBLIC "-//W3C//DTD SVG 1.0//EN" "http://www.w3.org/TR/2001/REC-SVG-20010904/DTD/svg10.dtd">
<svg version="1.0" id="Layer_1" xmlns="http://www.w3.org/2000/svg" xmlns:xlink="http://www.w3.org/1999/xlink" x="0px" y="0px"
	 width="52px" height="53px" viewBox="0 0 52 53" enable-background="new 0 0 52 53" xml:space="preserve">
<g>
	<path fill="#434343" d="M20.174,35.443l-6.453-5.641c-1.082-0.906-1.703-2.184-1.703-3.5c0-1.283,0.589-2.509,1.595-3.346
		l6.495-5.779c0.566-0.577,1.559-0.879,2.245-0.879c1.106,0,1.61,0.729,1.61,1.407l0.002,4.622
		c6.572,0.445,12.032,5.164,12.032,10.695c0,2-1.056,2.216-1.511,2.216c-0.932,0-1.545-0.888-1.711-1.159
		c-1.381-2.258-4.688-3.712-8.81-3.914l0.002,4.682c0,0.679-0.506,1.41-1.617,1.41l0,0C21.67,36.258,20.685,35.961,20.174,35.443z
		 M23.065,28.424c4.849,0.006,8.839,1.271,10.919,3.842c-0.52-4.321-5.4-7.966-10.923-7.971c-0.556-0.001-1.005-0.448-1.005-1
		l-0.002-4.918c-0.192,0.064-0.375,0.16-0.468,0.251l-6.672,5.848c-0.578,0.479-0.896,1.129-0.896,1.828
		c0,0.736,0.352,1.436,1,1.979l6.623,5.701c0.061,0.062,0.23,0.144,0.419,0.203l-0.002-4.763c0-0.266,0.105-0.521,0.294-0.707
		C22.542,28.528,22.797,28.424,23.065,28.424L23.065,28.424z"/>
</g>
</svg>
