<?xml version="1.0" encoding="utf-8"?>
<!-- Generator: Adobe Illustrator 15.0.0, SVG Export Plug-In . SVG Version: 6.00 Build 0)  -->
<!DOCTYPE svg PUBLIC "-//W3C//DTD SVG 1.0//EN" "http://www.w3.org/TR/2001/REC-SVG-20010904/DTD/svg10.dtd">
<svg version="1.0" id="Layer_1" xmlns="http://www.w3.org/2000/svg" xmlns:xlink="http://www.w3.org/1999/xlink" x="0px" y="0px"
	 width="52px" height="53px" viewBox="0 0 52 53" enable-background="new 0 0 52 53" xml:space="preserve">
<path fill="#414042" d="M30.2,29.566h-1.73l-0.011-6.164h1.744c1.309,0,2.258-0.875,2.258-2.178c0-0.771-0.335-1.554-0.846-2.015
	l-4.091-4c-0.544-0.494-1.261-0.71-2.017-0.71c-0.758,0-1.479,0.219-2.05,0.744l-4.07,3.932C18.84,19.672,18.5,20.459,18.5,21.23
	c0,1.299,0.951,2.203,2.262,2.203h1.73l0.011,6.164h-1.744c-1.309,0-2.258,0.875-2.258,2.178c0,0.771,0.335,1.553,0.846,2.014
	l4.091,4c0.543,0.495,1.26,0.711,2.016,0.711c0.758,0,1.479-0.219,2.05-0.744l4.07-3.932c0.547-0.496,0.887-1.283,0.887-2.055
	C32.461,30.471,31.51,29.566,30.2,29.566z M30.423,32.367l-4.27,4.07c-0.363,0.33-1.035,0.302-1.334,0.03L20.54,32.33
	c-0.35-0.35-0.194-0.862,0.047-0.862h2.875c0.553,0,1-0.389,1-0.94c0-0.031-0.001-8.022-0.001-8.055
	c0-0.554-0.398-0.941-0.952-0.941h-2.962c-0.255,0-0.347-0.561-0.009-0.898l4.27-4.07c0.363-0.33,1.035-0.302,1.334-0.03
	l4.279,4.138c0.35,0.35,0.194,0.862-0.047,0.862H27.5c-0.553,0-1,0.389-1,0.94c0,0.031,0.035,8.022,0.035,8.055
	c0,0.554,0.398,0.941,0.951,0.941h2.929C30.669,31.469,30.761,32.029,30.423,32.367z"/>
</svg>
