<?xml version="1.0" encoding="utf-8"?>
<!-- Generator: Adobe Illustrator 15.0.0, SVG Export Plug-In . SVG Version: 6.00 Build 0)  -->
<!DOCTYPE svg PUBLIC "-//W3C//DTD SVG 1.0//EN" "http://www.w3.org/TR/2001/REC-SVG-20010904/DTD/svg10.dtd">
<svg version="1.0" id="Layer_1" xmlns="http://www.w3.org/2000/svg" xmlns:xlink="http://www.w3.org/1999/xlink" x="0px" y="0px"
	 width="52px" height="53px" viewBox="0 0 52 53" enable-background="new 0 0 52 53" xml:space="preserve">
<g>
	<g>
		<g>
			<path fill="#414042" d="M34.975,21.258c0,0.705-0.244,1.391-0.688,1.931c-0.511,0.62-1.226,0.997-2.015,1.06
				c-0.783,0.062-1.543-0.193-2.14-0.721c-0.042-0.038-3.937-3.518-5.062-4.479c-0.764-0.654-1.176-0.658-1.92-0.018
				c-1.109,0.952-5.239,4.521-5.239,4.521c-0.603,0.52-1.364,0.766-2.147,0.693c-0.787-0.072-1.498-0.457-2-1.083
				c-0.98-1.223-0.804-3.183,0.375-4.2l8.111-7c1.105-0.955,2.704-0.944,3.799,0.024l7.91,7
				C34.605,19.556,34.975,20.385,34.975,21.258z M16.605,22.039c0,0,4.133-3.571,5.242-4.525c1.492-1.282,3.016-1.277,4.525,0.016
				c1.141,0.977,4.929,4.358,5.089,4.503c0.183,0.161,0.414,0.241,0.651,0.223c0.242-0.02,0.466-0.139,0.628-0.334
				c0.335-0.412,0.282-1.092-0.107-1.437l-7.909-7c-0.336-0.298-0.826-0.302-1.166-0.009l-8.111,7
				c-0.396,0.342-0.455,1.021-0.122,1.435c0.159,0.199,0.381,0.321,0.624,0.343C16.186,22.275,16.419,22.198,16.605,22.039z"/>
		</g>
	</g>
	<g>
		<g>
			<path fill="#414042" d="M34.975,32.258c0,0.705-0.244,1.391-0.688,1.931c-0.511,0.62-1.226,0.995-2.015,1.06
				c-0.783,0.062-1.543-0.193-2.139-0.721l0,0c0,0-4.059-3.568-5.113-4.523c-0.676-0.613-1.121-0.613-1.836-0.002
				c-1.102,0.941-5.271,4.549-5.271,4.549c-0.603,0.521-1.365,0.767-2.147,0.693c-0.789-0.072-1.498-0.457-2.002-1.084
				c-0.979-1.218-0.803-3.181,0.377-4.197l8.11-7c1.106-0.955,2.704-0.945,3.799,0.023l7.91,7
				C34.605,30.557,34.975,31.385,34.975,32.258z M16.605,33.037c0,0,4.177-3.613,5.278-4.556c1.493-1.276,3.043-1.263,4.479,0.04
				c1.05,0.951,5.093,4.506,5.093,4.507c0.188,0.166,0.42,0.245,0.657,0.228c0.242-0.021,0.466-0.139,0.628-0.336
				c0.335-0.408,0.282-1.09-0.106-1.436l-7.91-6.999c-0.336-0.298-0.826-0.302-1.166-0.009l-8.111,7
				c-0.221,0.191-0.35,0.477-0.35,0.781c0,0.17,0.041,0.42,0.227,0.651c0.16,0.2,0.382,0.321,0.625,0.345
				C16.186,33.275,16.419,33.198,16.605,33.037L16.605,33.037z"/>
		</g>
	</g>
</g>
</svg>
