<?xml version="1.0" encoding="utf-8"?>
<!-- Generator: Adobe Illustrator 15.0.0, SVG Export Plug-In . SVG Version: 6.00 Build 0)  -->
<!DOCTYPE svg PUBLIC "-//W3C//DTD SVG 1.0//EN" "http://www.w3.org/TR/2001/REC-SVG-20010904/DTD/svg10.dtd">
<svg version="1.0" id="Layer_1" xmlns="http://www.w3.org/2000/svg" xmlns:xlink="http://www.w3.org/1999/xlink" x="0px" y="0px"
	 width="52px" height="53px" viewBox="0 0 52 53" enable-background="new 0 0 52 53" xml:space="preserve">
<path fill="#414042" d="M17.604,23.794v3.623c0.506-0.002,8.955,0.067,8.976,0.067c0.555,0,0.944-0.398,0.944-0.951v-1.93
	c0-0.254,0.562-0.347,0.901-0.008l4.084,4.271c0.331,0.362,0.304,1.034,0.031,1.334l-4.151,4.278
	c-0.351,0.351-0.865,0.194-0.865-0.047v-1.875c0-0.553-0.391-1-0.944-1c-0.019,0-8.47,0.002-8.976,0.002v3.691
	c0,3.423,2.787,6.208,6.211,6.208h11.473c3.426,0,6.213-2.785,6.213-6.208V23.793c0-3.424-2.787-6.21-6.213-6.21H23.814
	C20.391,17.584,17.604,20.37,17.604,23.794z M35.34,19.459c2.359,0,4.278,1.918,4.278,4.275v11.638c0,2.356-1.919,4.274-4.278,4.274
	H23.7c-2.358,0-4.277-1.918-4.277-4.274v-1.955l6.224-0.007v0.852c0,1.309,0.879,2.258,2.186,2.258c0.773,0,1.559-0.336,2.021-0.847
	l4.014-4.091c0.496-0.544,0.713-1.261,0.713-2.018c0-0.758-0.219-1.479-0.746-2.051l-3.945-4.07
	c-0.498-0.547-1.287-0.887-2.062-0.887c-1.304,0-2.21,0.951-2.21,2.262v0.73l-6.192,0.008v-1.822c0-2.357,1.919-4.275,4.277-4.275
	H35.34L35.34,19.459z"/>
</svg>
