<?xml version="1.0" encoding="utf-8"?>
<!-- Generator: Adobe Illustrator 15.0.0, SVG Export Plug-In . SVG Version: 6.00 Build 0)  -->
<!DOCTYPE svg PUBLIC "-//W3C//DTD SVG 1.0//EN" "http://www.w3.org/TR/2001/REC-SVG-20010904/DTD/svg10.dtd">
<svg version="1.0" id="Layer_1" xmlns="http://www.w3.org/2000/svg" xmlns:xlink="http://www.w3.org/1999/xlink" x="0px" y="0px"
	 width="52px" height="53px" viewBox="0 0 52 53" enable-background="new 0 0 52 53" xml:space="preserve">
<g>
	<path fill="#434343" d="M25.156,31.5L25.156,31.5c-1.111,0-1.617-0.731-1.617-1.41l0.002-4.681
		c-4.121,0.202-7.429,1.656-8.809,3.914c-0.166,0.271-0.78,1.159-1.711,1.159c-0.454,0-1.51-0.216-1.51-2.216
		c0-5.531,5.46-10.25,12.032-10.695l0.002-4.622c0-0.678,0.504-1.407,1.61-1.407c0.687,0,1.679,0.302,2.245,0.879l6.495,5.779
		c1.006,0.837,1.595,2.062,1.595,3.346c0,1.316-0.621,2.593-1.703,3.5l-6.453,5.64C26.823,31.203,25.837,31.5,25.156,31.5z
		 M24.444,23.636c0.267,0,0.522,0.104,0.712,0.292c0.188,0.188,0.294,0.442,0.294,0.708l-0.002,4.793
		c0.188-0.06,0.358-0.143,0.419-0.203l6.623-5.701c0.648-0.543,1-1.242,1-1.979c0-0.699-0.318-1.349-0.896-1.828l-6.672-5.848
		c-0.093-0.091-0.275-0.187-0.468-0.251l-0.002,4.918c0,0.552-0.449,0.999-1.005,1c-5.522,0.005-10.404,3.649-10.922,7.971
		C15.603,24.938,19.594,23.642,24.444,23.636L24.444,23.636z"/>
</g>
</svg>
