<?xml version="1.0" encoding="utf-8"?>
<!-- Generator: Adobe Illustrator 15.0.0, SVG Export Plug-In . SVG Version: 6.00 Build 0)  -->
<!DOCTYPE svg PUBLIC "-//W3C//DTD SVG 1.0//EN" "http://www.w3.org/TR/2001/REC-SVG-20010904/DTD/svg10.dtd">
<svg version="1.0" id="Layer_1" xmlns="http://www.w3.org/2000/svg" xmlns:xlink="http://www.w3.org/1999/xlink" x="0px" y="0px"
	 width="52px" height="53px" viewBox="0 0 52 53" enable-background="new 0 0 52 53" xml:space="preserve">
<path fill="#414042" d="M20.016,9.021l-8.981,7.896c-1.185,1.055-1.286,3.028-0.215,4.196c1.11,1.211,3.012,1.308,4.21,0.233
	c0.109-0.09,2.372-1.969,4.003-3.44v10.994c0,1.733,0.786,3.144,2.938,3.176c2.151-0.032,2.938-1.44,2.938-3.176V17.782l4.077,3.543
	c1.228,1.097,3.127,1.002,4.238-0.211c0.5-0.547,0.776-1.254,0.776-1.991c0-0.841-0.36-1.646-0.997-2.209l-8.971-7.892
	C22.886,8.002,21.156,8.002,20.016,9.021z M22.702,10.508l8.971,7.893c0.394,0.35,0.429,0.986,0.071,1.379
	c-0.373,0.404-1.012,0.438-1.432,0.062l-4.633-4.024c-0.24-0.209-0.501-0.388-0.772-0.547c-0.578-0.341-1.875,0.004-1.875,1.353
	c0,1.35,0,12.399,0,12.399c0,0.894,0.084,1.245-1.041,1.245h0.017c-1.125,0-1.039-0.354-1.039-1.245c0,0,0-10.826,0-12.377
	c0-1.55-1.389-1.679-1.937-1.33c-0.255,0.159-0.498,0.338-0.719,0.547c-1.544,1.455-4.536,3.938-4.594,3.987
	c-0.411,0.367-1.049,0.336-1.422-0.069c-0.165-0.181-0.257-0.412-0.257-0.653c0-0.279,0.117-0.537,0.323-0.722l8.979-7.897
	C21.73,10.159,22.312,10.159,22.702,10.508z"/>
</svg>
