<?xml version="1.0" encoding="utf-8"?>
<!-- Generator: Adobe Illustrator 15.0.0, SVG Export Plug-In . SVG Version: 6.00 Build 0)  -->
<!DOCTYPE svg PUBLIC "-//W3C//DTD SVG 1.0//EN" "http://www.w3.org/TR/2001/REC-SVG-20010904/DTD/svg10.dtd">
<svg version="1.0" id="Layer_1" xmlns="http://www.w3.org/2000/svg" xmlns:xlink="http://www.w3.org/1999/xlink" x="0px" y="0px"
	 width="52px" height="53px" viewBox="0 0 52 53" enable-background="new 0 0 52 53" xml:space="preserve">
<g>
	<g>
		<g>
			<path fill="#414042" d="M34.049,32.258c-0.001,0-0.002,0-0.003,0l-8.056-0.023c-0.477-0.002-0.887-0.338-0.979-0.803
				l-1.631-8.215l-4.066,0.02c-0.002,0-0.003,0-0.005,0c-0.278,0-0.544-0.117-0.733-0.319c-0.353-0.378-0.546-0.867-0.546-1.375
				c0-0.58,0.252-1.136,0.693-1.521l9.797-9.166c0.82-0.721,2.047-0.695,2.824-0.018l9.986,9.197
				c0.387,0.334,0.638,0.852,0.666,1.398c0.029,0.549-0.166,1.088-0.535,1.483c-0.188,0.202-0.452,0.317-0.729,0.317l-4.133,0.016
				l-1.569,8.197C34.941,31.918,34.527,32.258,34.049,32.258z M26.814,30.424l6.408,0.02l1.567-8.269
				c0.09-0.474,0.5-0.815,0.979-0.817l3.889-0.014l-9.682-9.033l-9.636,9.023l3.854-0.018c0.003,0,0.004,0,0.006,0
				c0.479,0,0.888,0.338,0.98,0.81L26.814,30.424z"/>
		</g>
	</g>
</g>
</svg>
