<?xml version="1.0" encoding="utf-8"?>
<!-- Generator: Adobe Illustrator 15.0.0, SVG Export Plug-In . SVG Version: 6.00 Build 0)  -->
<!DOCTYPE svg PUBLIC "-//W3C//DTD SVG 1.0//EN" "http://www.w3.org/TR/2001/REC-SVG-20010904/DTD/svg10.dtd">
<svg version="1.0" id="Layer_1" xmlns="http://www.w3.org/2000/svg" xmlns:xlink="http://www.w3.org/1999/xlink" x="0px" y="0px"
	 width="52px" height="53px" viewBox="0 0 52 53" enable-background="new 0 0 52 53" xml:space="preserve">
<g>
	<g>
		<g>
			<path fill="#414042" d="M23.232,39.486l-7-7.911c-0.969-1.095-0.979-2.692-0.023-3.799l7-8.111
				c1.018-1.179,2.979-1.356,4.2-0.376c0.626,0.502,1.011,1.213,1.083,2.001c0.07,0.783-0.176,1.545-0.693,2.147
				c0,0-3.568,4.13-4.521,5.239c-0.641,0.745-0.637,1.158,0.019,1.921c0.962,1.124,4.44,5.018,4.479,5.061
				c0.525,0.596,0.783,1.355,0.721,2.14c-0.062,0.789-0.438,1.504-1.061,2.014c-0.539,0.443-1.226,0.688-1.931,0.688
				C24.632,40.5,23.805,40.13,23.232,39.486z M26.5,21.473c-0.021-0.243-0.145-0.464-0.343-0.624
				c-0.413-0.333-1.093-0.272-1.435,0.122l-7,8.111c-0.293,0.34-0.289,0.831,0.008,1.167l7,7.91
				c0.346,0.391,1.024,0.441,1.437,0.106c0.196-0.161,0.315-0.384,0.334-0.626c0.021-0.238-0.062-0.471-0.222-0.652
				c-0.145-0.161-3.526-3.95-4.504-5.089c-1.293-1.51-1.297-3.033-0.016-4.526c0.954-1.109,4.524-5.243,4.524-5.242
				C26.445,21.944,26.521,21.71,26.5,21.473z"/>
		</g>
	</g>
	<g>
		<g>
			<path fill="#414042" d="M34.232,39.486l-7-7.911c-0.969-1.095-0.979-2.692-0.023-3.799l7-8.111
				c1.018-1.179,2.98-1.356,4.199-0.376c0.626,0.502,1.011,1.213,1.084,2.001c0.07,0.783-0.176,1.545-0.694,2.147
				c0,0-3.606,4.17-4.549,5.271c-0.61,0.715-0.61,1.161,0.001,1.837c0.955,1.054,4.523,5.112,4.523,5.112l0,0
				c0.526,0.595,0.783,1.354,0.722,2.14c-0.063,0.788-0.438,1.503-1.06,2.014c-0.541,0.443-1.228,0.688-1.932,0.688
				C35.631,40.5,34.803,40.13,34.232,39.486z M37.284,22.13c0.161-0.187,0.237-0.42,0.216-0.657
				c-0.021-0.243-0.145-0.464-0.344-0.624c-0.232-0.187-0.482-0.226-0.651-0.226c-0.306,0-0.591,0.127-0.782,0.349l-7,8.111
				c-0.293,0.34-0.289,0.831,0.01,1.167l6.998,7.91c0.346,0.391,1.026,0.441,1.437,0.106c0.196-0.161,0.315-0.384,0.335-0.626
				c0.02-0.238-0.061-0.472-0.227-0.658c0,0-3.557-4.043-4.508-5.093c-1.302-1.438-1.314-2.987-0.039-4.479
				C33.672,26.307,37.284,22.13,37.284,22.13L37.284,22.13z"/>
		</g>
	</g>
</g>
</svg>
