<?xml version="1.0" encoding="utf-8"?>
<!-- Generator: Adobe Illustrator 15.0.0, SVG Export Plug-In . SVG Version: 6.00 Build 0)  -->
<!DOCTYPE svg PUBLIC "-//W3C//DTD SVG 1.0//EN" "http://www.w3.org/TR/2001/REC-SVG-20010904/DTD/svg10.dtd">
<svg version="1.0" id="Layer_1" xmlns="http://www.w3.org/2000/svg" xmlns:xlink="http://www.w3.org/1999/xlink" x="0px" y="0px"
	 width="52px" height="53px" viewBox="0 0 52 53" enable-background="new 0 0 52 53" xml:space="preserve">
<path fill="#414042" d="M43,28.006v-3.721c-0.504,0.002-8.924,0.031-8.943,0.031c-0.553,0-0.939,0.396-0.939,0.949v1.93
	c0,0.256-0.562,0.348-0.898,0.01l-4.068-4.271c-0.33-0.363-0.303-1.035-0.031-1.334l4.137-4.279c0.35-0.35,0.863-0.191,0.863,0.047
	v1.875c0,0.555,0.389,0.883,0.941,0.883c0.018,0,8.438,0,8.941,0v-3.574c0-3.422-2.775-6.207-6.188-6.207H25.38
	c-3.414,0-6.19,2.785-6.19,6.207v11.457c0,3.424,2.776,6.211,6.19,6.211h11.433C40.223,34.217,43,31.43,43,28.006z M25.326,32.342
	c-2.352,0-4.409-1.918-4.409-4.277V16.428c0-2.357,2.058-4.273,4.409-4.273h11.6c2.35,0,4.262,1.916,4.262,4.273v1.85l-6.201,0.006
	v-0.742c0-1.311-0.875-2.26-2.178-2.26c-0.771,0-1.553,0.336-2.014,0.848l-4,4.092c-0.496,0.543-0.711,1.262-0.711,2.018
	c0,0.758,0.219,1.479,0.744,2.051l3.867,4.006c0.496,0.547,1.283,0.887,2.055,0.887c1.299,0,2.268-0.887,2.268-2.197l-0.096-0.824
	l6.17-0.008l0.096,1.916c0,2.359-1.912,4.277-4.262,4.277h-11.6V32.342L25.326,32.342z"/>
</svg>
