<?xml version="1.0" encoding="utf-8"?>
<!-- Generator: Adobe Illustrator 15.0.0, SVG Export Plug-In . SVG Version: 6.00 Build 0)  -->
<!DOCTYPE svg PUBLIC "-//W3C//DTD SVG 1.0//EN" "http://www.w3.org/TR/2001/REC-SVG-20010904/DTD/svg10.dtd">
<svg version="1.0" id="Layer_1" xmlns="http://www.w3.org/2000/svg" xmlns:xlink="http://www.w3.org/1999/xlink" x="0px" y="0px"
	 width="52px" height="53px" viewBox="0 0 52 53" enable-background="new 0 0 52 53" xml:space="preserve">
<g>
	<g>
		<path fill="#414042" d="M24.443,30.773c0.545,0.494,1.262,0.711,2.019,0.711s1.478-0.219,2.05-0.744l4.07-3.932
			c0.547-0.496,0.887-1.283,0.887-2.056c0-1.299-0.951-2.203-2.262-2.203h-1.73v-5.021c0-2.012-1.944-2.012-2.677-2.012h-0.61
			c-0.733,0-2.678,0-2.678,2.012v5.035h-1.744c-1.31,0-2.26,0.892-2.26,2.193c0,0.771,0.336,1.553,0.848,2.014L24.443,30.773z
			 M21.594,24.453h2.875c0.553,0,1-0.389,1-0.941c0-0.031-0.002-0.068-0.006-0.104l0.008-5.91l2.076,0.002v5.906
			c-0.004,0.037-0.006,0.072-0.006,0.104c0,0.554,0.398,0.941,0.952,0.941h2.929c0.255,0,0.348,0.562,0.01,0.897l-4.271,4.07
			c-0.362,0.33-1.034,0.303-1.333,0.031l-4.28-4.139C21.198,24.967,21.354,24.453,21.594,24.453z"/>
	</g>
	<g>
		<g>
			<path fill="#414042" d="M35.5,39.5h-18c-1.654,0-3-1.346-3-3v-4c0-1.654,1.346-2.918,3-2.918s3,1.264,3,2.918v1.082h12V32.5
				c0-1.654,1.346-2.918,3-2.918s3,1.264,3,2.918v4C38.5,38.154,37.154,39.5,35.5,39.5z M17.5,31.5c-0.552,0-1,0.448-1,1v4.082
				c0,0.552,0.448,1,1,1h18c0.551,0,1-0.448,1-1V32.5c0-0.552-0.449-1-1-1c-0.552,0-1,0.448-1,1v3h-16v-3
				C18.5,31.948,18.051,31.5,17.5,31.5z"/>
		</g>
	</g>
</g>
</svg>
