<?xml version="1.0" encoding="utf-8"?>
<!-- Generator: Adobe Illustrator 15.0.0, SVG Export Plug-In . SVG Version: 6.00 Build 0)  -->
<!DOCTYPE svg PUBLIC "-//W3C//DTD SVG 1.0//EN" "http://www.w3.org/TR/2001/REC-SVG-20010904/DTD/svg10.dtd">
<svg version="1.0" id="Layer_1" xmlns="http://www.w3.org/2000/svg" xmlns:xlink="http://www.w3.org/1999/xlink" x="0px" y="0px"
	 width="52px" height="53px" viewBox="0 0 52 53" enable-background="new 0 0 52 53" xml:space="preserve">
<g>
	<path fill="#414042" d="M36.159,33.955c0,2.006-1.195,3.303-3.044,3.303H15.257c-1.854,0-3.054-1.291-3.054-3.287
		c0-1.297,0.527-2.66,1.347-3.478l7.365-7.825c0.892-0.888,2.044-1.363,3.271-1.363c1.229,0,2.381,0.477,3.25,1.342l7.408,7.871
		C35.634,31.303,36.159,32.659,36.159,33.955z M14.203,34.02c0,1.301,0.766,1.301,1.054,1.301h17.858c0.285,0,1.044,0,1.044-1.314
		c0-0.771-0.31-1.617-0.751-2.061l-7.409-7.902c-0.47-0.469-1.119-0.736-1.812-0.736c-0.693,0-1.347,0.271-1.836,0.761l-7.363,7.856
		C14.518,32.393,14.203,33.245,14.203,34.02z"/>
</g>
</svg>
