<?xml version="1.0" encoding="utf-8"?>
<!-- Generator: Adobe Illustrator 15.0.0, SVG Export Plug-In . SVG Version: 6.00 Build 0)  -->
<!DOCTYPE svg PUBLIC "-//W3C//DTD SVG 1.0//EN" "http://www.w3.org/TR/2001/REC-SVG-20010904/DTD/svg10.dtd">
<svg version="1.0" id="Layer_1" xmlns="http://www.w3.org/2000/svg" xmlns:xlink="http://www.w3.org/1999/xlink" x="0px" y="0px"
	 width="52px" height="53px" viewBox="0 0 52 53" enable-background="new 0 0 52 53" xml:space="preserve">
<g>
	<g>
		<path fill="#414042" d="M35.572,14.576c0.738,0,1.445,0.276,1.992,0.778c1.211,1.11,1.307,3.011,0.211,4.237l-4.014,4.62
			c-1.13,1.301-1.135,3.486-0.013,4.675c1.5,1.59,3.944,4.536,4.049,4.661c1.072,1.198,0.978,3.1-0.233,4.209
			c-1.168,1.072-3.144,0.971-4.198-0.215l-7.898-8.98c-1.018-1.141-1.018-2.871,0.005-4.017l7.891-8.97
			C33.928,14.938,34.73,14.576,35.572,14.576z M35.572,36.536c0.24,0,0.474-0.092,0.652-0.257c0.407-0.373,0.438-1.011,0.071-1.422
			c-0.049-0.058-2.532-3.05-3.989-4.593c-1.815-1.926-1.836-5.3-0.043-7.367l4.024-4.632c0.375-0.421,0.344-1.059-0.062-1.432
			c-0.392-0.357-1.029-0.322-1.379,0.071l-7.892,8.971c-0.349,0.39-0.349,0.971-0.005,1.356l7.898,8.981
			C35.035,36.418,35.293,36.536,35.572,36.536z"/>
	</g>
</g>
</svg>
