<?xml version="1.0" encoding="utf-8"?>
<!-- Generator: Adobe Illustrator 15.0.0, SVG Export Plug-In . SVG Version: 6.00 Build 0)  -->
<!DOCTYPE svg PUBLIC "-//W3C//DTD SVG 1.0//EN" "http://www.w3.org/TR/2001/REC-SVG-20010904/DTD/svg10.dtd">
<svg version="1.0" id="Layer_1" xmlns="http://www.w3.org/2000/svg" xmlns:xlink="http://www.w3.org/1999/xlink" x="0px" y="0px"
	 width="52px" height="53px" viewBox="0 0 52 53" enable-background="new 0 0 52 53" xml:space="preserve">
<g>
	<g>
		<path fill="#414042" d="M31.031,15.987c-0.543-0.496-1.26-0.711-2.018-0.711s-1.479,0.219-2.051,0.744l-4.068,3.932
			c-0.547,0.496-0.889,1.283-0.889,2.056c0,1.299,0.951,2.203,2.264,2.203H26v5.02c0,2.012,1.945,2.012,2.676,2.012h0.611
			c0.734,0,2.678,0,2.678-2.012V24.18h1.744c1.309,0,2.26-0.875,2.26-2.178c0-0.771-0.336-1.554-0.848-2.015L31.031,15.987z
			 M33.883,22.309h-2.875c-0.553,0-1,0.389-1,0.941c0,0.03,0.002,0.067,0.006,0.104l-0.008,5.91l-2.076-0.002v-5.906
			c0.004-0.037,0.006-0.074,0.006-0.104c0-0.555-0.398-0.941-0.953-0.941h-2.928c-0.256,0-0.348-0.561-0.01-0.896l4.271-4.07
			c0.359-0.33,1.033-0.303,1.332-0.031l4.281,4.137C34.277,21.795,34.123,22.309,33.883,22.309z"/>
	</g>
	<g>
		<g>
			<path fill="#414042" d="M38,39.258H20c-1.654,0-3-1.347-3-3v-4c0-1.654,1.346-2.935,3-2.935s3,1.278,3,2.935v1.065h12v-1.065
				c0-1.654,1.346-2.935,3-2.935s3,1.278,3,2.935v4C41,37.911,39.654,39.258,38,39.258z M20,31.258c-0.553,0-1,0.447-1,1v4.082
				c0,0.551,0.447,1,1,1h18c0.551,0,1-0.449,1-1v-4.082c0-0.553-0.449-1-1-1c-0.553,0-1,0.447-1,1v3H21v-3
				C21,31.705,20.551,31.258,20,31.258z"/>
		</g>
	</g>
</g>
</svg>
