<?xml version="1.0" encoding="utf-8"?>
<!-- Generator: Adobe Illustrator 15.0.0, SVG Export Plug-In . SVG Version: 6.00 Build 0)  -->
<!DOCTYPE svg PUBLIC "-//W3C//DTD SVG 1.0//EN" "http://www.w3.org/TR/2001/REC-SVG-20010904/DTD/svg10.dtd">
<svg version="1.0" id="Layer_1" xmlns="http://www.w3.org/2000/svg" xmlns:xlink="http://www.w3.org/1999/xlink" x="0px" y="0px"
	 width="52px" height="53px" viewBox="0 0 52 53" enable-background="new 0 0 52 53" xml:space="preserve">
<g>
	<g>
		<g>
			<path fill="#414042" d="M18.678,29.59v-0.002l0.023-8.016c0.002-0.475,0.338-0.881,0.803-0.973l8.215-1.623L27.7,14.932
				c0-0.002,0-0.004,0-0.006c0-0.275,0.116-0.541,0.319-0.729c0.378-0.352,0.867-0.543,1.375-0.543c0.58,0,1.135,0.251,1.52,0.688
				l9.166,9.747c0.721,0.817,0.696,2.036,0.018,2.812l-9.197,9.935c-0.335,0.386-0.852,0.634-1.399,0.662
				c-0.548,0.028-1.088-0.165-1.483-0.532c-0.202-0.188-0.317-0.449-0.318-0.725l-0.015-4.111l-8.197-1.562
				C19.018,30.479,18.678,30.066,18.678,29.59z M20.512,22.314l-0.02,6.406l8.269,1.568c0.474,0.09,0.815,0.5,0.817,0.979
				l0.014,3.89l9.033-9.681l-9.023-9.637l0.018,3.855c0,0.002,0,0.003,0,0.005c0,0.478-0.339,0.888-0.81,0.979L20.512,22.314z"/>
		</g>
	</g>
</g>
</svg>
