<?xml version="1.0" encoding="utf-8"?>
<!-- Generator: Adobe Illustrator 15.0.0, SVG Export Plug-In . SVG Version: 6.00 Build 0)  -->
<!DOCTYPE svg PUBLIC "-//W3C//DTD SVG 1.0//EN" "http://www.w3.org/TR/2001/REC-SVG-20010904/DTD/svg10.dtd">
<svg version="1.0" id="Layer_1" xmlns="http://www.w3.org/2000/svg" xmlns:xlink="http://www.w3.org/1999/xlink" x="0px" y="0px"
	 width="52px" height="53px" viewBox="0 0 52 53" enable-background="new 0 0 52 53" xml:space="preserve">
<g>
	<g>
		<path fill="#414042" d="M32.533,29.725l6.969-5.892c0.637-0.563,0.998-1.369,0.998-2.209c0-0.738-0.275-1.444-0.777-1.992
			c-1.108-1.213-3.012-1.307-4.238-0.211l-2.077,1.543v-4.118c0-1.734-0.785-3.144-2.938-3.176c-2.15,0.032-2.937,1.441-2.937,3.176
			v3.994c-1.63-1.474-1.894-1.352-2.003-1.441c-1.198-1.072-3.1-0.978-4.209,0.233c-1.072,1.168-0.971,3.144,0.215,4.197l6.98,5.897
			C29.656,30.745,31.387,30.745,32.533,29.725z M29.846,28.243l-6.979-5.898c-0.207-0.184-0.324-0.44-0.324-0.721
			c0-0.242,0.092-0.476,0.257-0.654c0.373-0.405,1.012-0.438,1.424-0.069c0.057,0.049,1.049,0.533,2.592,1.988
			c0.222,0.207,0.465,0.385,0.72,0.547c0.548,0.347,1.937,0.219,1.937-1.332c0-1.55,0-5.377,0-5.377
			c0-0.893-0.086-1.244,1.039-1.244h-0.018c1.125,0,1.041,0.353,1.041,1.244c0,0,0,4.053,0,5.4s1.297,1.691,1.875,1.352
			c0.271-0.158,0.533-0.338,0.773-0.545l2.633-2.025c0.422-0.375,1.059-0.344,1.432,0.062c0.357,0.392,0.322,1.029-0.07,1.38
			l-6.973,5.891C30.812,28.587,30.23,28.587,29.846,28.243z"/>
	</g>
	<g>
		<path fill="#414042" d="M39.615,37.5H21.303c-1.572,0-2.803-1.309-2.803-2.979s1.23-2.979,2.803-2.979h18.312
			c1.57,0,2.802,1.31,2.802,2.979S41.188,37.5,39.615,37.5z M21.303,33.542c-0.729,0-1.271,0.539-1.271,1.021
			c0,0.482,0.544,1.021,1.271,1.021h18.312c0.729,0,1.271-0.54,1.271-1.021c0-0.48-0.544-1.021-1.271-1.021H21.303z"/>
	</g>
</g>
</svg>
