<?xml version="1.0" encoding="utf-8"?>
<!-- Generator: Adobe Illustrator 15.0.0, SVG Export Plug-In . SVG Version: 6.00 Build 0)  -->
<!DOCTYPE svg PUBLIC "-//W3C//DTD SVG 1.0//EN" "http://www.w3.org/TR/2001/REC-SVG-20010904/DTD/svg10.dtd">
<svg version="1.0" id="Layer_1" xmlns="http://www.w3.org/2000/svg" xmlns:xlink="http://www.w3.org/1999/xlink" x="0px" y="0px"
	 width="52px" height="53px" viewBox="0 0 52 53" enable-background="new 0 0 52 53" xml:space="preserve">
<g>
	<g>
		<path fill="#414042" d="M31.418,34.5H17.583c-1.137,0-2.062-0.898-2.062-2.005V16.672c0-1.105,0.925-2.005,2.062-2.005h13.835
			c1.137,0,2.062,0.897,2.062,2.005v15.823C33.479,33.602,32.555,34.5,31.418,34.5z M17.473,16.338L17.41,32.645l14.202,0.019
			c0.048,0,0.064-0.024,0.064-0.027l-0.002-16.278L17.473,16.338z"/>
	</g>
	<g>
		<path fill="#414042" d="M27.521,15.542c-0.553,0-1-0.448-1-1c0-1.08-0.907-1.959-2.021-1.959s-2.021,0.879-2.021,1.959
			c0,0.552-0.447,1-1,1s-1-0.448-1-1c0-2.185,1.803-3.959,4.02-3.959c2.218,0,4.021,1.774,4.021,3.959
			C28.521,15.094,28.073,15.542,27.521,15.542z"/>
	</g>
</g>
</svg>
