<?xml version="1.0" encoding="utf-8"?>
<!-- Generator: Adobe Illustrator 15.0.0, SVG Export Plug-In . SVG Version: 6.00 Build 0)  -->
<!DOCTYPE svg PUBLIC "-//W3C//DTD SVG 1.0//EN" "http://www.w3.org/TR/2001/REC-SVG-20010904/DTD/svg10.dtd">
<svg version="1.0" id="Layer_1" xmlns="http://www.w3.org/2000/svg" xmlns:xlink="http://www.w3.org/1999/xlink" x="0px" y="0px"
	 width="52px" height="53px" viewBox="0 0 52 53" enable-background="new 0 0 52 53" xml:space="preserve">
<g>
	<g>
		<g>
			<path fill="#414042" d="M36.35,32.459c-1.15,1.15-3.019,1.154-4.165,0.009L18.832,20.447c-1.617-1.613-1.636-4.131-0.1-5.666
				c1.535-1.535,4.052-1.516,5.611,0.043l12.074,13.533C37.504,29.439,37.5,31.309,36.35,32.459z M20.146,16.195
				c-0.756,0.756-0.737,2.004,0.042,2.783l13.354,12.021c0.423,0.42,1.022,0.416,1.394,0.045s0.374-0.97,0.008-1.336L22.871,16.175
				C22.149,15.46,20.9,15.439,20.146,16.195z"/>
		</g>
	</g>
	<path fill="#414042" d="M41.166,33.008c-0.398-0.398-1.199-0.285-2.044,0.202l-2.179-2.136c-0.547-0.539-1.428-0.529-1.966,0.02
		c-0.539,0.547-0.529,1.428,0.018,1.965l2.143,2.103c-0.52,0.862-0.648,1.688-0.24,2.096c0.581,0.578,2.007,0.097,3.187-1.08
		C41.263,35.002,41.747,33.586,41.166,33.008z"/>
</g>
</svg>
