<?xml version="1.0" encoding="utf-8"?>
<!-- Generator: Adobe Illustrator 15.0.0, SVG Export Plug-In . SVG Version: 6.00 Build 0)  -->
<!DOCTYPE svg PUBLIC "-//W3C//DTD SVG 1.0//EN" "http://www.w3.org/TR/2001/REC-SVG-20010904/DTD/svg10.dtd">
<svg version="1.0" id="Layer_1" xmlns="http://www.w3.org/2000/svg" xmlns:xlink="http://www.w3.org/1999/xlink" x="0px" y="0px"
	 width="52px" height="53px" viewBox="0 0 52 53" enable-background="new 0 0 52 53" xml:space="preserve">
<path fill="#434343" d="M35.4,16.958c-1.717-1.719-3.924-2.866-6.297-3.299l0.004-0.043l-0.965-0.092
	c-0.004,0-0.012-0.002-0.016-0.002l-0.993-0.096l-0.005,0.057c-2.872-0.037-5.635,0.959-7.816,2.82l-0.037-0.037l-0.668,0.668
	l-0.025,0.027l-0.672,0.672l0.037,0.037c-1.846,2.168-2.832,4.915-2.795,7.773l-0.051,0.004l0.09,0.951
	c0.002,0.012,0,0.021,0.002,0.033l0.095,0.986l0.043-0.004c0.429,2.379,1.578,4.592,3.299,6.312c1.703,1.703,3.894,2.85,6.246,3.287
	l-0.005,0.043l0.986,0.102c0.012,0,0.021,0,0.035,0.002l0.948,0.096l0.007-0.052c2.883,0.056,5.651-0.933,7.84-2.794l0.037,0.037
	l0.672-0.672l0.025-0.023l0.669-0.67l-0.036-0.037c1.875-2.199,2.871-4.986,2.818-7.883l0.054-0.006l-0.102-0.992l-0.101-0.979
	l-0.043,0.004C38.245,20.842,37.102,18.657,35.4,16.958z M36.008,23.177c-0.056-0.006-0.109-0.018-0.166-0.023
	c-0.23-0.027-0.46-0.062-0.684-0.105c-0.102-0.021-0.198-0.047-0.297-0.071c-0.176-0.042-0.35-0.086-0.521-0.138
	c-0.104-0.033-0.209-0.07-0.312-0.105c-0.157-0.057-0.313-0.117-0.467-0.184c-0.103-0.043-0.203-0.088-0.303-0.137
	c-0.15-0.072-0.297-0.15-0.439-0.232c-0.094-0.052-0.186-0.104-0.273-0.158c-0.15-0.096-0.299-0.201-0.441-0.308
	c-0.031-0.022-0.062-0.044-0.096-0.067l2.729-2.729c1.033,1.246,1.77,2.718,2.103,4.303C36.559,23.217,36.279,23.206,36.008,23.177z
	 M30.285,19.761c-0.055-0.085-0.104-0.173-0.152-0.26c-0.084-0.146-0.166-0.299-0.24-0.452c-0.045-0.094-0.088-0.188-0.129-0.285
	c-0.068-0.157-0.131-0.319-0.188-0.483c-0.035-0.097-0.069-0.191-0.102-0.289c-0.057-0.18-0.104-0.361-0.146-0.547
	c-0.021-0.088-0.046-0.176-0.062-0.266c-0.052-0.24-0.09-0.484-0.117-0.732c-0.004-0.039-0.014-0.074-0.019-0.113
	c-0.026-0.27-0.041-0.547-0.047-0.825c1.578,0.321,3.046,1.042,4.295,2.062l-2.726,2.724c-0.021-0.026-0.037-0.054-0.059-0.082
	C30.486,20.064,30.382,19.917,30.285,19.761z M27.076,15.307c-0.001,0.035,0.003,0.07,0.003,0.105
	c0.001,0.054,0.004,0.104,0.005,0.159c0.021,2.369,0.74,4.513,2.096,6.193l-2.147,2.149l-6.308-6.306
	C22.534,16.146,24.768,15.333,27.076,15.307z M19.331,18.986l6.313,6.314l-2.121,2.119c-0.02-0.015-0.037-0.027-0.057-0.041
	c-0.089-0.07-0.183-0.131-0.271-0.197c-0.188-0.137-0.37-0.271-0.564-0.393c-0.113-0.072-0.23-0.136-0.347-0.201
	c-0.183-0.103-0.365-0.203-0.556-0.295c-0.127-0.062-0.258-0.117-0.389-0.175c-0.188-0.079-0.379-0.155-0.57-0.226
	c-0.139-0.049-0.273-0.094-0.414-0.137c-0.198-0.061-0.399-0.113-0.604-0.162c-0.142-0.035-0.28-0.067-0.424-0.096
	c-0.216-0.041-0.435-0.074-0.653-0.104c-0.139-0.02-0.275-0.039-0.417-0.055c-0.243-0.021-0.491-0.029-0.741-0.039
	c-0.121-0.002-0.24-0.012-0.363-0.012c-0.028,0-0.057-0.004-0.086-0.004C17.075,22.986,17.872,20.767,19.331,18.986z M20.677,32.98
	l2.765-2.766c1.015,1.332,1.555,3.01,1.564,4.871C23.411,34.756,21.932,34.018,20.677,32.98z M17.262,27.297
	c1.844,0.021,3.506,0.562,4.824,1.562l-2.759,2.76C18.305,30.362,17.581,28.887,17.262,27.297z M27.014,35.295
	c0-0.029-0.004-0.058-0.004-0.084c0.002-0.138-0.008-0.271-0.012-0.406c-0.006-0.238-0.014-0.478-0.034-0.709
	c-0.014-0.148-0.034-0.293-0.054-0.439c-0.028-0.215-0.059-0.43-0.1-0.641c-0.027-0.146-0.062-0.293-0.098-0.438
	c-0.048-0.201-0.102-0.4-0.158-0.6c-0.043-0.143-0.091-0.283-0.14-0.422c-0.067-0.193-0.146-0.385-0.226-0.572
	c-0.058-0.133-0.111-0.264-0.174-0.393c-0.093-0.191-0.191-0.375-0.297-0.56c-0.066-0.116-0.13-0.235-0.201-0.351
	c-0.121-0.194-0.258-0.383-0.395-0.569c-0.066-0.09-0.129-0.187-0.199-0.272c-0.017-0.021-0.031-0.043-0.048-0.062l2.121-2.121
	l6.373,6.373C31.577,34.502,29.337,35.301,27.014,35.295z M34.751,31.637l-6.366-6.365l2.15-2.149
	c1.686,1.358,3.83,2.077,6.203,2.096c0.072,0.002,0.144,0.006,0.216,0.006c0.034,0,0.065,0.005,0.099,0.002
	C37.041,27.557,36.229,29.811,34.751,31.637z"/>
</svg>
