<?xml version="1.0" encoding="utf-8"?>
<!-- Generator: Adobe Illustrator 15.0.0, SVG Export Plug-In . SVG Version: 6.00 Build 0)  -->
<!DOCTYPE svg PUBLIC "-//W3C//DTD SVG 1.0//EN" "http://www.w3.org/TR/2001/REC-SVG-20010904/DTD/svg10.dtd">
<svg version="1.0" id="Layer_1" xmlns="http://www.w3.org/2000/svg" xmlns:xlink="http://www.w3.org/1999/xlink" x="0px" y="0px"
	 width="52px" height="53px" viewBox="0 0 52 53" enable-background="new 0 0 52 53" xml:space="preserve">
<g>
	<path fill="#434343" d="M26.58,25.257c-0.338,0-0.682-0.018-1.031-0.055c-4.146-0.447-5.734-3.32-5.468-5.969
		c0.039-0.388,0.291-0.718,0.65-0.851s0.761-0.045,1.037,0.226c0.789,0.776,1.334,1.139,1.716,1.139
		c0.616,0,1.653-0.914,2.966-2.074c1.013-0.895,2.05-1.348,3.083-1.348c0.939,0,1.806,0.401,2.447,1.084
		c0.641-0.683,1.504-1.084,2.444-1.084c1.031,0,2.067,0.451,3.081,1.344c1.314,1.156,2.352,2.068,2.969,2.068
		c0.383,0,0.928-0.361,1.717-1.144c0.272-0.271,0.676-0.358,1.035-0.226c0.358,0.132,0.611,0.462,0.651,0.849
		c0.269,2.649-1.313,5.524-5.458,5.979c-0.354,0.037-0.701,0.057-1.044,0.057l0,0c-2.274,0-4.235-0.801-5.396-2.105
		C30.822,24.457,28.859,25.257,26.58,25.257z M22.61,21.632c0.612,0.842,1.698,1.396,3.149,1.553
		c2.542,0.277,4.832-0.783,5.261-2.326c0.065-0.237,0.06-0.906-0.004-1.151c-0.166-0.623-0.652-1.353-1.484-1.353
		c-0.53,0-1.145,0.293-1.774,0.851c-1.753,1.549-2.912,2.571-4.273,2.571C23.18,21.777,22.89,21.724,22.61,21.632z M32.939,20.859
		c0.383,1.371,2.248,2.367,4.437,2.367l0,0c0.272,0,0.55-0.016,0.83-0.047c1.451-0.158,2.537-0.715,3.147-1.559
		c-0.28,0.094-0.574,0.146-0.879,0.146c-1.36,0-2.521-1.02-4.273-2.563c-0.633-0.555-1.245-0.851-1.776-0.851
		c-0.829,0-1.317,0.729-1.481,1.354C32.878,19.952,32.873,20.618,32.939,20.859z"/>
</g>
</svg>
