<?xml version="1.0" encoding="utf-8"?>
<!-- Generator: Adobe Illustrator 15.0.0, SVG Export Plug-In . SVG Version: 6.00 Build 0)  -->
<!DOCTYPE svg PUBLIC "-//W3C//DTD SVG 1.0//EN" "http://www.w3.org/TR/2001/REC-SVG-20010904/DTD/svg10.dtd">
<svg version="1.0" id="Layer_1" xmlns="http://www.w3.org/2000/svg" xmlns:xlink="http://www.w3.org/1999/xlink" x="0px" y="0px"
	 width="52px" height="53px" viewBox="0 0 52 53" enable-background="new 0 0 52 53" xml:space="preserve">
<g>
	<g>
		<path fill="#434343" d="M25.477,36.258c-0.72,0-1.278-0.193-1.66-0.574c-0.229-0.229-0.332-0.555-0.272-0.871
			c0.03-0.174,0.701-4.518-4.574-9.766c-2.403-2.392-2.822-7.531,0.239-10.576c1.344-1.338,3.217-2.074,5.273-2.074
			c2.053,0,4.045,0.766,5.332,2.045c4.322,4.299,9.304,4.422,9.856,4.422c0.261,0,0.579,0.104,0.765,0.287
			c1.979,1.969-1.969,9.152-4.817,11.988C32.975,33.77,28.045,36.258,25.477,36.258z M24.482,14.355c-1.53,0-2.908,0.533-3.881,1.5
			c-2.24,2.229-1.961,6.094-0.24,7.809c4.689,4.664,5.211,8.869,5.188,10.635c1.885-0.055,6.292-2.17,8.678-4.543
			c2.748-2.735,4.824-7.459,4.819-8.963c-1.841-0.139-6.528-0.895-10.623-4.967C27.498,14.903,26.025,14.355,24.482,14.355z"/>
	</g>
	<g>
		<path fill="#434343" d="M33.041,32.991c1.26,0.61,2.9,0.36,3.92-0.659c0.648-0.646,1.004-1.511,1.003-2.429
			c0-0.526-0.118-1.035-0.343-1.494L33.041,32.991z"/>
	</g>
</g>
</svg>
