<?xml version="1.0" encoding="utf-8"?>
<!-- Generator: Adobe Illustrator 15.0.0, SVG Export Plug-In . SVG Version: 6.00 Build 0)  -->
<!DOCTYPE svg PUBLIC "-//W3C//DTD SVG 1.0//EN" "http://www.w3.org/TR/2001/REC-SVG-20010904/DTD/svg10.dtd">
<svg version="1.0" id="Layer_1" xmlns="http://www.w3.org/2000/svg" xmlns:xlink="http://www.w3.org/1999/xlink" x="0px" y="0px"
	 width="52px" height="53px" viewBox="0 0 52 53" enable-background="new 0 0 52 53" xml:space="preserve">
<g>
	<g>
		<path fill="#434343" d="M25.516,33.682c-4.136,0-7.501-2.771-7.501-6.18V15.861c0-3.406,3.365-6.18,7.501-6.18
			c4.135,0,7.499,2.771,7.499,6.18v11.643C33.015,30.91,29.651,33.682,25.516,33.682z M25.536,11.515
			c-3.044,0-5.521,1.906-5.521,4.249v11.837c0,2.343,2.477,4.248,5.521,4.248c3.043,0,5.52-1.906,5.52-4.248V15.764
			C31.056,13.421,28.58,11.515,25.536,11.515z"/>
	</g>
	<g>
		<path fill="#434343" d="M24.527,23.588c-0.064,0-0.128-0.014-0.189-0.04c-0.178-0.078-0.293-0.259-0.294-0.459l-0.013-7.875
			c0-0.2,0.115-0.382,0.292-0.46c0.179-0.078,0.384-0.043,0.524,0.096l4.001,3.92c0.096,0.096,0.15,0.225,0.151,0.361
			c0,0.138-0.053,0.269-0.148,0.363l-3.989,3.955C24.769,23.539,24.649,23.588,24.527,23.588z M25.001,16.377l0.01,5.541
			l2.903-2.783L25.001,16.377z"/>
	</g>
	<g>
		<path fill="#434343" d="M24.501,29.635c-0.064,0-0.129-0.014-0.19-0.04c-0.18-0.078-0.296-0.261-0.296-0.46v-7.891
			c0-0.201,0.116-0.381,0.294-0.461c0.179-0.078,0.386-0.039,0.527,0.099l4.011,3.924c0.096,0.094,0.15,0.226,0.151,0.36
			c0,0.137-0.054,0.268-0.149,0.361l-4.011,3.967C24.746,29.586,24.625,29.635,24.501,29.635z M25.015,22.41v5.551l2.901-2.791
			L25.015,22.41z"/>
	</g>
	<path fill="#434343" d="M22.904,25.457c-0.194,0.193-0.51,0.193-0.706-0.002l0,0c-0.195-0.194-0.195-0.512-0.001-0.705l2.095-2.096
		c0.194-0.193,0.51-0.193,0.706,0.002l0,0c0.196,0.195,0.196,0.512,0.001,0.705L22.904,25.457z"/>
	<path fill="#434343" d="M22.197,19.613c-0.193-0.195-0.193-0.512,0.002-0.707l0,0c0.195-0.195,0.512-0.195,0.705,0L25,21
		c0.193,0.195,0.193,0.511-0.001,0.705l0,0c-0.196,0.197-0.513,0.197-0.706,0.002L22.197,19.613z"/>
</g>
</svg>
