<?xml version="1.0" encoding="utf-8"?>
<!-- Generator: Adobe Illustrator 15.0.0, SVG Export Plug-In . SVG Version: 6.00 Build 0)  -->
<!DOCTYPE svg PUBLIC "-//W3C//DTD SVG 1.0//EN" "http://www.w3.org/TR/2001/REC-SVG-20010904/DTD/svg10.dtd">
<svg version="1.0" id="Layer_1" xmlns="http://www.w3.org/2000/svg" xmlns:xlink="http://www.w3.org/1999/xlink" x="0px" y="0px"
	 width="52px" height="53px" viewBox="0 0 52 53" enable-background="new 0 0 52 53" xml:space="preserve">
<g>
	<g>
		<path fill="#414042" d="M20.513,37.28c-0.223,0-0.446-0.072-0.631-0.22c-0.39-0.311-0.492-0.856-0.24-1.285l5.565-9.33h-3.704
			c-0.354,0-0.683-0.186-0.865-0.485c-0.183-0.301-0.193-0.674-0.027-0.983l5.811-10.944c0.175-0.328,0.56-0.521,0.895-0.531
			l8.082,0.035c0.39,0.002,0.742,0.225,0.909,0.571c0.166,0.35,0.116,0.761-0.13,1.06l-4.408,5.349h4.778
			c0.415,0,0.729,0.344,0.88,0.727c0.151,0.383,0.051,0.818-0.253,1.099L21.2,37.016C21.006,37.189,20.76,37.28,20.513,37.28z
			 M23.168,24.583h3.784c0.361,0,0.709,0.054,0.889,0.364c0.181,0.312,0.179,0.691-0.004,1.003l-3.02,5.014l9.098-8.575h-4.327
			c-0.39,0-0.744-0.006-0.912-0.354c-0.167-0.35-0.117-0.762,0.129-1.061l4.562-5.606l-5.361-0.022L23.168,24.583z"/>
	</g>
</g>
</svg>
