<?xml version="1.0" encoding="utf-8"?>
<!-- Generator: Adobe Illustrator 15.0.0, SVG Export Plug-In . SVG Version: 6.00 Build 0)  -->
<!DOCTYPE svg PUBLIC "-//W3C//DTD SVG 1.0//EN" "http://www.w3.org/TR/2001/REC-SVG-20010904/DTD/svg10.dtd">
<svg version="1.0" id="Layer_1" xmlns="http://www.w3.org/2000/svg" xmlns:xlink="http://www.w3.org/1999/xlink" x="0px" y="0px"
	 width="52px" height="53px" viewBox="0 0 52 53" enable-background="new 0 0 52 53" xml:space="preserve">
<g>
	<path fill="#414042" d="M33.996,38.236H20.025c-1.656,0-3.004-1.35-3.004-3.01V17.267c0-1.66,1.348-3.01,3.004-3.01h2.006
		c0.551,0,0.939,0.447,0.939,1l0.008,8.521l0.713-1.035c0.183-0.291,0.502-0.467,0.846-0.467c0.002,0,0.006,0,0.008,0
		c0.348,0.002,0.666,0.185,0.848,0.479l0.65,0.969v-8.467c0-0.553,0.447-1,1-1h6.953c1.656,0,3.004,1.35,3.004,3.01v17.959
		C37,36.887,35.652,38.236,33.996,38.236z M19.967,16.198c-0.554,0-1.004,0.453-1.004,1.01V35.26c0,0.559,0.45,1.012,1.004,1.012
		l14.029,0.061c0.553,0,1.004-0.453,1.004-1.01V17.267c0-0.557-0.451-1.01-1.004-1.01H27.98v10.959c0,0.447-0.299,0.842-0.73,0.963
		c-0.428,0.119-0.893-0.062-1.125-0.441l-1.604-2.562l-1.633,2.596c-0.238,0.377-0.697,0.549-1.123,0.428
		c-0.43-0.123-0.725-0.516-0.726-0.959l-0.009-10.983L19.967,16.198z"/>
</g>
</svg>
