<?xml version="1.0" encoding="utf-8"?>
<!-- Generator: Adobe Illustrator 15.0.0, SVG Export Plug-In . SVG Version: 6.00 Build 0)  -->
<!DOCTYPE svg PUBLIC "-//W3C//DTD SVG 1.0//EN" "http://www.w3.org/TR/2001/REC-SVG-20010904/DTD/svg10.dtd">
<svg version="1.0" id="Layer_1" xmlns="http://www.w3.org/2000/svg" xmlns:xlink="http://www.w3.org/1999/xlink" x="0px" y="0px"
	 width="52px" height="53px" viewBox="0 0 52 53" enable-background="new 0 0 52 53" xml:space="preserve">
<path fill="#434343" d="M40.539,19.771c-1.922-1.232-4.27-2.494-7.104-2.494c-1.453,0-2.938,0.356-4.422,1.027
	c-1.482-0.671-2.968-1.027-4.422-1.027c-2.833,0-5.18,1.262-7.103,2.494c-0.287,0.186-0.46,0.502-0.46,0.842v14.645
	c0,0.365,0.2,0.703,0.522,0.877c0.149,0.082,0.314,0.123,0.478,0.123c0.189,0,0.378-0.056,0.543-0.16
	c1.935-1.252,4.102-1.939,6.101-1.939c1.376,0,2.671,0.324,3.851,0.961c0.145,0.078,0.303,0.113,0.463,0.115
	c0.009,0,0.019,0.004,0.027,0.004c0.01,0,0.02-0.004,0.028-0.004c0.16-0.002,0.317-0.037,0.463-0.115
	c1.179-0.637,2.474-0.961,3.851-0.961c1.998,0,4.166,0.688,6.101,1.939c0.165,0.104,0.354,0.16,0.543,0.16
	c0.164,0,0.329-0.041,0.478-0.123c0.322-0.174,0.522-0.512,0.522-0.877V20.612C40.999,20.273,40.826,19.956,40.539,19.771z
	 M19.03,33.545V21.083c1.659-1.021,3.488-1.9,5.621-1.9c1.115,0,2.227,0.241,3.379,0.729v12.771
	C25.273,31.756,22.027,32.08,19.03,33.545z M39.029,33.545c-3.006-1.465-6.264-1.789-9.03-0.861v-12.77
	c1.157-0.487,2.272-0.729,3.392-0.729c2.141,0,3.976,0.881,5.639,1.9V33.545z"/>
</svg>
