<?xml version="1.0" encoding="utf-8"?>
<!-- Generator: Adobe Illustrator 15.0.0, SVG Export Plug-In . SVG Version: 6.00 Build 0)  -->
<!DOCTYPE svg PUBLIC "-//W3C//DTD SVG 1.0//EN" "http://www.w3.org/TR/2001/REC-SVG-20010904/DTD/svg10.dtd">
<svg version="1.0" id="Layer_1" xmlns="http://www.w3.org/2000/svg" xmlns:xlink="http://www.w3.org/1999/xlink" x="0px" y="0px"
	 width="52px" height="53px" viewBox="0 0 52 53" enable-background="new 0 0 52 53" xml:space="preserve">
<g>
	<rect x="17.583" y="23.54" fill="#414042" width="1.914" height="1.938"/>
	<rect x="17.583" y="17.604" fill="#414042" width="1.914" height="1.844"/>
	<path fill="#414042" d="M32.411,9.521H20.562c-1.69,0-2.979,1.34-2.979,2.985v0.931h1.914v-0.986c0-0.547,0.479-0.992,1.069-0.992
		h8.961v8.011c0,0.552,0.435,1,0.97,1s0.969-0.448,0.969-1v-8.011h0.972c0.59,0,1.07,0.445,1.07,0.992V30.57
		c0,0.547-0.48,0.992-1.07,0.992H20.568c-0.59,0-1.07-0.445-1.07-0.992v-0.978h-1.914v0.921c0,1.646,1.289,2.985,2.979,2.985h11.85
		c1.689,0,3.064-1.34,3.064-2.985V12.508C35.477,10.861,34.102,9.521,32.411,9.521z"/>
	<path fill="#414042" d="M16.523,16.445h3.974c0.553,0,1-0.42,1-0.938s-0.447-0.938-1-0.938h-3.974c-0.553,0-1,0.42-1,0.938
		S15.971,16.445,16.523,16.445z"/>
	<path fill="#414042" d="M16.523,22.479h3.974c0.553,0,1-0.42,1-0.938s-0.447-0.938-1-0.938h-3.974c-0.553,0-1,0.42-1,0.938
		S15.971,22.479,16.523,22.479z"/>
	<path fill="#414042" d="M21.497,27.539c0-0.518-0.447-0.938-1-0.938h-3.974c-0.553,0-1,0.42-1,0.938c0,0.52,0.447,0.938,1,0.938
		h3.974C21.05,28.477,21.497,28.059,21.497,27.539z"/>
</g>
</svg>
