<?xml version="1.0" encoding="utf-8"?>
<!-- Generator: Adobe Illustrator 15.0.0, SVG Export Plug-In . SVG Version: 6.00 Build 0)  -->
<!DOCTYPE svg PUBLIC "-//W3C//DTD SVG 1.0//EN" "http://www.w3.org/TR/2001/REC-SVG-20010904/DTD/svg10.dtd">
<svg version="1.0" id="Layer_1" xmlns="http://www.w3.org/2000/svg" xmlns:xlink="http://www.w3.org/1999/xlink" x="0px" y="0px"
	 width="52px" height="53px" viewBox="0 0 52 53" enable-background="new 0 0 52 53" xml:space="preserve">
<g>
	<g>
		<path fill="#414042" d="M21.556,27.5c-3.837,0-6.958-3.141-6.958-7s3.121-7,6.958-7c3.837,0,6.958,3.141,6.958,7
			S25.393,27.5,21.556,27.5z M21.619,15.5c-2.769,0-5.021,2.242-5.021,5c0,2.756,2.252,5,5.021,5s5.021-2.244,5.021-5
			C26.64,17.742,24.387,15.5,21.619,15.5z"/>
	</g>
	<g>
		<path fill="#414042" d="M21.535,12.458c-0.529,0-0.958-0.413-0.958-0.922V9.463c0-0.51,0.429-0.922,0.958-0.922
			c0.53,0,0.959,0.412,0.959,0.922v2.073C22.494,12.045,22.065,12.458,21.535,12.458z"/>
	</g>
	<g>
		<path fill="#414042" d="M21.535,32.5c-0.514,0-0.93-0.422-0.93-0.941v-2.117c0-0.52,0.416-0.94,0.93-0.94
			c0.515,0,0.931,0.422,0.931,0.94v2.117C22.465,32.078,22.049,32.5,21.535,32.5z"/>
	</g>
	<g>
		<path fill="#414042" d="M32.59,21.5h-1.984c-0.488,0-0.883-0.448-0.883-1c0-0.553,0.395-1,0.883-1h1.984
			c0.488,0,0.883,0.447,0.883,1C33.473,21.052,33.079,21.5,32.59,21.5z"/>
	</g>
	<g>
		<path fill="#414042" d="M12.583,21.5h-2.095c-0.515,0-0.932-0.448-0.932-1c0-0.553,0.417-1,0.932-1h2.095
			c0.515,0,0.932,0.447,0.932,1C13.515,21.052,13.098,21.5,12.583,21.5z"/>
	</g>
	<g>
		<path fill="#414042" d="M29.443,29.367c-0.256,0-0.512-0.098-0.707-0.293l-1.591-1.592c-0.391-0.392-0.391-1.023,0-1.414
			c0.391-0.392,1.023-0.392,1.414,0l1.591,1.592c0.391,0.391,0.391,1.023,0,1.414C29.955,29.27,29.699,29.367,29.443,29.367z"/>
	</g>
	<g>
		<path fill="#414042" d="M15.301,15.225c-0.256,0-0.512-0.098-0.707-0.293l-1.591-1.592c-0.391-0.391-0.391-1.023,0-1.414
			s1.023-0.391,1.414,0l1.591,1.592c0.391,0.392,0.391,1.023,0,1.414C15.812,15.127,15.557,15.225,15.301,15.225z"/>
	</g>
	<g>
		<path fill="#414042" d="M27.852,15.227c-0.256,0-0.512-0.098-0.707-0.293c-0.391-0.391-0.391-1.022,0-1.414l1.591-1.592
			c0.391-0.391,1.023-0.391,1.414,0s0.391,1.023,0,1.414l-1.591,1.592C28.364,15.129,28.108,15.227,27.852,15.227z"/>
	</g>
	<g>
		<path fill="#414042" d="M13.71,29.367c-0.256,0-0.512-0.098-0.707-0.293c-0.391-0.391-0.391-1.023,0-1.414l1.591-1.59
			c0.391-0.391,1.023-0.391,1.414,0c0.391,0.391,0.391,1.022,0,1.414l-1.591,1.59C14.222,29.27,13.966,29.367,13.71,29.367z"/>
	</g>
</g>
</svg>
