<?xml version="1.0" encoding="utf-8"?>
<!-- Generator: Adobe Illustrator 15.0.0, SVG Export Plug-In . SVG Version: 6.00 Build 0)  -->
<!DOCTYPE svg PUBLIC "-//W3C//DTD SVG 1.0//EN" "http://www.w3.org/TR/2001/REC-SVG-20010904/DTD/svg10.dtd">
<svg version="1.0" id="Layer_1" xmlns="http://www.w3.org/2000/svg" xmlns:xlink="http://www.w3.org/1999/xlink" x="0px" y="0px"
	 width="52px" height="53px" viewBox="0 0 52 53" enable-background="new 0 0 52 53" xml:space="preserve">
<g>
	<path fill="#434343" d="M31.908,23.221c-0.116-0.113-10.452-10.338-10.452-10.338l-0.224-0.193l-0.259-0.058
		c-0.001-0.001-2.61-0.591-7.208,4.007c-4.328,4.326-4.281,6.951-4.261,7.236l0.023,0.344l10.7,10.697
		c0.266,0.266,0.753,0.584,1.564,0.584c1.755,0,4.369-1.523,6.821-3.977C31.863,28.271,33.314,24.628,31.908,23.221z M27.311,30.225
		c-2.362,2.36-4.517,3.438-5.521,3.438c-0.17,0-0.25-0.034-0.265-0.045L11.382,23.475c1.002-0.281,2.999-1.759,5.063-3.822
		c2.142-2.143,3.649-4.209,3.847-5.17c0.046-0.008,0.101-0.021,0.139-0.024c9.268,9.167,10.105,9.995,10.152,10.034
		C30.797,24.962,30.118,27.416,27.311,30.225z"/>
	<g>
		<path fill="#434343" d="M27.122,23.753c-1.622,1.124-3.771,1.72-6.056,1.683c-2.156-0.037-4.204-0.643-5.758-1.709
			c-0.239-0.164-0.562-0.084-0.713,0.168c-0.153,0.256-0.084,0.598,0.155,0.76c1.714,1.177,3.951,1.847,6.298,1.886
			c2.486,0.04,4.841-0.621,6.63-1.858c0.489-0.339,0.921-0.709,1.293-1.105c0.04-0.043,0.065-0.09,0.104-0.135
			c-0.15-0.158-0.398-0.424-0.729-0.775C28.004,23.057,27.599,23.422,27.122,23.753z"/>
		<path fill="#434343" d="M27.822,14.693c-1.756-1.303-4.095-2.045-6.583-2.092c-0.287-0.006-0.521,0.237-0.525,0.543
			c-0.005,0.306,0.222,0.558,0.509,0.562c2.287,0.043,4.422,0.717,6.012,1.896c1.526,1.133,2.274,2.541,2.252,4.065
			c-0.015,1.054-0.366,2.117-1.14,2.993l0.73,0.779c0.966-1.082,1.355-2.428,1.375-3.775C30.479,17.761,29.64,16.045,27.822,14.693z
			"/>
	</g>
</g>
</svg>
