<?xml version="1.0" encoding="utf-8"?>
<!-- Generator: Adobe Illustrator 15.0.0, SVG Export Plug-In . SVG Version: 6.00 Build 0)  -->
<!DOCTYPE svg PUBLIC "-//W3C//DTD SVG 1.0//EN" "http://www.w3.org/TR/2001/REC-SVG-20010904/DTD/svg10.dtd">
<svg version="1.0" id="Layer_1" xmlns="http://www.w3.org/2000/svg" xmlns:xlink="http://www.w3.org/1999/xlink" x="0px" y="0px"
	 width="52px" height="53px" viewBox="0 0 52 53" enable-background="new 0 0 52 53" xml:space="preserve">
<g>
	<g>
		<path fill="#414042" d="M20.959,38.217C14.363,38.217,9,32.842,9,26.236c0-6.605,5.363-11.979,11.959-11.979
			c6.594,0,11.959,5.373,11.959,11.979C32.918,32.842,27.553,38.217,20.959,38.217z M20.959,16.153
			c-5.549,0-10.062,4.522-10.062,10.082c0,5.562,4.516,10.084,10.062,10.084s10.062-4.522,10.062-10.084
			C31.021,20.676,26.508,16.153,20.959,16.153z"/>
	</g>
	<g>
		<path fill="#414042" d="M20.959,34.217c-4.395,0-7.966-3.58-7.966-7.98c0-4.397,3.571-7.979,7.966-7.979
			c4.393,0,7.966,3.58,7.966,7.979C28.925,30.637,25.352,34.217,20.959,34.217z M20.941,20.111c-3.369,0-6.107,2.734-6.107,6.095
			c0,3.361,2.738,6.094,6.107,6.094c3.367,0,6.107-2.731,6.107-6.094C27.051,22.845,24.309,20.111,20.941,20.111z"/>
	</g>
	<g>
		<path fill="#414042" d="M20.959,30.176c-2.169,0-3.934-1.769-3.934-3.939c0-2.17,1.765-3.938,3.934-3.938s3.934,1.766,3.934,3.938
			S23.128,30.176,20.959,30.176z M20.959,24.257c-1.089,0-1.975,0.889-1.975,1.979c0,1.092,0.886,1.98,1.975,1.98
			s1.975-0.89,1.975-1.98C22.934,25.146,22.048,24.257,20.959,24.257z"/>
	</g>
</g>
</svg>
