<?xml version="1.0" encoding="utf-8"?>
<!-- Generator: Adobe Illustrator 15.0.0, SVG Export Plug-In . SVG Version: 6.00 Build 0)  -->
<!DOCTYPE svg PUBLIC "-//W3C//DTD SVG 1.0//EN" "http://www.w3.org/TR/2001/REC-SVG-20010904/DTD/svg10.dtd">
<svg version="1.0" id="Layer_1" xmlns="http://www.w3.org/2000/svg" xmlns:xlink="http://www.w3.org/1999/xlink" x="0px" y="0px"
	 width="52px" height="53px" viewBox="0 0 52 53" enable-background="new 0 0 52 53" xml:space="preserve">
<g>
	<g>
		<path fill="#414042" d="M19.313,25.436c-0.742,0-1.48-0.262-1.977-0.699c-0.034-0.03-3.021-3.42-3.021-3.42
			c-0.515-0.479-0.797-1.112-0.797-1.787c0-0.674,0.279-1.305,0.789-1.78c0,0,3-3.49,3.034-3.521c0.48-0.427,1.233-0.69,1.966-0.69
			c1.304,0,2.148,0.848,2.148,2.015V16.5h3.047c1.638,0,2.953,1.302,2.953,2.843v0.44c0,1.521-1.288,2.67-2.953,2.67h-3.047v0.964
			C21.457,24.586,20.614,25.436,19.313,25.436z M18.698,23.354c0.115,0.08,0.353,0.172,0.615,0.172c0.201,0,0.244-0.08,0.245-0.08
			v-1.902c0-0.552,0.447-1,1-1h3.945c0.553,0,1.021-0.348,1.021-0.759v-0.44c0-0.396-0.437-0.843-1.021-0.843h-3.945
			c-0.553,0-1-0.446-1-1v-1.935c-0.021-0.002-0.101-0.028-0.25-0.028c-0.249,0-0.492,0.086-0.604,0.16l-2.918,3.399
			c-0.029,0.034-0.062,0.066-0.096,0.098c-0.078,0.068-0.171,0.183-0.171,0.335c0,0.12,0.061,0.235,0.179,0.341
			c0.035,0.029,0.067,0.062,0.097,0.1L18.698,23.354z"/>
	</g>
	<g>
		<path fill="#414042" d="M20.5,31.438c-6.601,0-11.969-5.371-11.969-11.971C8.531,12.868,13.899,7.5,20.5,7.5
			c6.6,0,11.969,5.368,11.969,11.967C32.469,26.066,27.1,31.438,20.5,31.438z M20.5,9.369c-5.569,0-10.1,4.529-10.1,10.098
			s4.53,10.1,10.1,10.1s10.1-4.53,10.1-10.1C30.6,13.898,26.069,9.369,20.5,9.369z"/>
	</g>
</g>
</svg>
