<?xml version="1.0" encoding="utf-8"?>
<!-- Generator: Adobe Illustrator 15.0.0, SVG Export Plug-In . SVG Version: 6.00 Build 0)  -->
<!DOCTYPE svg PUBLIC "-//W3C//DTD SVG 1.0//EN" "http://www.w3.org/TR/2001/REC-SVG-20010904/DTD/svg10.dtd">
<svg version="1.0" id="Layer_1" xmlns="http://www.w3.org/2000/svg" xmlns:xlink="http://www.w3.org/1999/xlink" x="0px" y="0px"
	 width="52px" height="53px" viewBox="0 0 52 53" enable-background="new 0 0 52 53" xml:space="preserve">
<g>
	<g>
		<path fill="#414042" d="M22.516,41.5c-6.6,0-11.969-5.37-11.969-11.97c0-6.599,5.369-11.967,11.969-11.967
			c6.601,0,11.969,5.369,11.969,11.967C34.484,36.13,29.115,41.5,22.516,41.5z M22.516,19.37c-5.604,0-10.162,4.559-10.162,10.16
			c0,5.604,4.56,10.162,10.162,10.162c5.604,0,10.162-4.558,10.162-10.162C32.678,23.929,28.119,19.37,22.516,19.37z"/>
	</g>
	<path fill="#414042" d="M20.825,33.259c-0.386-0.385-0.369-1.023,0.036-1.43l4.854-4.854c0.404-0.405,1.045-0.421,1.43-0.037l0,0
		c0.383,0.384,0.367,1.024-0.037,1.429l-4.854,4.854C21.85,33.627,21.209,33.643,20.825,33.259L20.825,33.259z"/>
	<path fill="#414042" d="M17.866,28.932c0.385-0.384,1.03-0.361,1.446,0.054l2.797,2.797c0.414,0.414,0.438,1.062,0.054,1.446l0,0
		c-0.384,0.384-1.031,0.359-1.445-0.054l-2.798-2.798C17.506,29.962,17.482,29.315,17.866,28.932L17.866,28.932z"/>
</g>
</svg>
