<?xml version="1.0" encoding="utf-8"?>
<!-- Generator: Adobe Illustrator 15.0.0, SVG Export Plug-In . SVG Version: 6.00 Build 0)  -->
<!DOCTYPE svg PUBLIC "-//W3C//DTD SVG 1.0//EN" "http://www.w3.org/TR/2001/REC-SVG-20010904/DTD/svg10.dtd">
<svg version="1.0" id="Layer_1" xmlns="http://www.w3.org/2000/svg" xmlns:xlink="http://www.w3.org/1999/xlink" x="0px" y="0px"
	 width="52px" height="53px" viewBox="0 0 52 53" enable-background="new 0 0 52 53" xml:space="preserve">
<g>
	<g>
		<path fill="#414042" d="M19.718,15.501c0.742,0,1.48,0.263,1.977,0.704c0.034,0.029,3.02,3.438,3.02,3.438
			c0.515,0.482,0.797,1.118,0.797,1.797c0,0.678-0.279,1.312-0.788,1.789c0,0-3.001,3.51-3.034,3.539
			c-0.48,0.43-1.233,0.694-1.966,0.694c-1.304,0-2.148-0.853-2.148-2.024v-0.953h-3.047c-1.638,0-2.953-1.31-2.953-2.857v-0.443
			c0-1.529,1.236-2.632,2.901-2.632h3.047l0.052-1.021C17.574,16.355,18.417,15.501,19.718,15.501z M20.333,17.586
			c-0.115-0.08-0.353-0.174-0.615-0.174c-0.201,0-0.244,0.08-0.245,0.08v1.934c0,0.561-0.447,1.016-1,1.016h-3.945
			c-0.553,0-1.021,0.354-1.021,0.771v0.447c0,0.402,0.437,0.855,1.021,0.855h3.945c0.553,0,1,0.455,1,1.017v1.965
			c0.021,0.001,0.101,0.028,0.25,0.028c0.249,0,0.492-0.088,0.604-0.164c0,0,2.979-3.521,3.014-3.553
			c0.077-0.068,0.17-0.185,0.17-0.338c0-0.123-0.06-0.24-0.179-0.347C23.298,21.093,20.333,17.586,20.333,17.586z"/>
	</g>
	<g>
		<path fill="#414042" d="M18.531,9.5c6.6,0,11.969,5.37,11.969,11.971c0,6.598-5.369,11.967-11.969,11.967
			c-6.6,0-11.969-5.369-11.969-11.967C6.562,14.87,11.932,9.5,18.531,9.5z M18.531,31.566c5.568,0,10.099-4.529,10.099-10.098
			s-4.53-10.1-10.099-10.1c-5.569,0-10.1,4.531-10.1,10.1C8.432,27.037,12.962,31.566,18.531,31.566z"/>
	</g>
</g>
</svg>
