<?xml version="1.0" encoding="utf-8"?>
<!-- Generator: Adobe Illustrator 15.0.0, SVG Export Plug-In . SVG Version: 6.00 Build 0)  -->
<!DOCTYPE svg PUBLIC "-//W3C//DTD SVG 1.0//EN" "http://www.w3.org/TR/2001/REC-SVG-20010904/DTD/svg10.dtd">
<svg version="1.0" id="Layer_1" xmlns="http://www.w3.org/2000/svg" xmlns:xlink="http://www.w3.org/1999/xlink" x="0px" y="0px"
	 width="52px" height="53px" viewBox="0 0 52 53" enable-background="new 0 0 52 53" xml:space="preserve">
<g>
	<g>
		<path fill="#414042" d="M15.011,25.289c0-6.601,5.369-11.97,11.97-11.97c6.6,0,11.969,5.369,11.969,11.97
			c0,6.598-5.369,11.969-11.969,11.969C20.38,37.258,15.011,31.887,15.011,25.289z M16.838,25.33c0,5.567,4.531,10.098,10.1,10.098
			s10.099-4.529,10.099-10.098c0-5.57-4.53-10.099-10.099-10.099C21.369,15.232,16.838,19.761,16.838,25.33z"/>
	</g>
	<g>
		<path fill="#414042" d="M27.799,29.096l-4.388-3.125c-0.203-0.146-0.325-0.389-0.325-0.65c0-0.26,0.122-0.504,0.325-0.646
			l4.388-3.127c0.225-0.158,0.514-0.174,0.75-0.039c0.238,0.137,0.387,0.399,0.387,0.69v6.248c0,0.289-0.148,0.555-0.387,0.689
			c-0.107,0.062-0.227,0.092-0.345,0.092C28.062,29.227,27.921,29.184,27.799,29.096z"/>
	</g>
</g>
</svg>
