<?xml version="1.0" encoding="utf-8"?>
<!-- Generator: Adobe Illustrator 15.0.0, SVG Export Plug-In . SVG Version: 6.00 Build 0)  -->
<!DOCTYPE svg PUBLIC "-//W3C//DTD SVG 1.0//EN" "http://www.w3.org/TR/2001/REC-SVG-20010904/DTD/svg10.dtd">
<svg version="1.0" id="Layer_1" xmlns="http://www.w3.org/2000/svg" xmlns:xlink="http://www.w3.org/1999/xlink" x="0px" y="0px"
	 width="52px" height="53px" viewBox="0 0 52 53" enable-background="new 0 0 52 53" xml:space="preserve">
<g>
	<g>
		<path fill="#434343" d="M30.873,31.258c-0.04,0-7.345-1-7.345-1s-7.347,1-7.386,1c-2.551,0-4.627-2.148-4.627-4.787v-7.404
			c0-2.641,2.076-4.787,4.627-4.787c0.039,0,7.347,0.963,7.347,0.963s7.344-0.963,7.384-0.963c2.552,0,4.627,2.146,4.627,4.787
			v7.404C35.5,29.109,33.425,31.258,30.873,31.258z M16.042,16.236c-1.433,0.029-2.589,1.271-2.589,2.793v7.438
			c0,1.521,1.157,2.765,2.59,2.791l7.502-0.873l7.432,0.873c1.432-0.03,2.586-1.271,2.586-2.791v-7.438
			c0-1.521-1.154-2.764-2.588-2.793l-7.507,0.875L16.042,16.236z"/>
	</g>
	<rect x="17.508" y="19.289" fill="#434343" width="1.984" height="0.952"/>
	<rect x="25.508" y="25.289" fill="#434343" width="1.984" height="0.952"/>
	<rect x="16.513" y="20.264" fill="#434343" width="0.969" height="1.984"/>
	<rect x="18.513" y="23.264" fill="#434343" width="0.969" height="1.984"/>
	<rect x="24.514" y="19.319" fill="#434343" width="0.969" height="6.929"/>
	<rect x="29.508" y="25.289" fill="#434343" width="1.984" height="0.952"/>
	<rect x="28.514" y="19.319" fill="#434343" width="0.969" height="6.929"/>
	<rect x="21.508" y="25.289" fill="#434343" width="1.984" height="0.952"/>
	<rect x="21.508" y="22.289" fill="#434343" width="1.984" height="0.952"/>
	<rect x="21.508" y="19.289" fill="#434343" width="1.984" height="0.952"/>
	<rect x="20.513" y="20.278" fill="#434343" width="0.969" height="4.97"/>
	<rect x="16.508" y="25.289" fill="#434343" width="1.984" height="0.952"/>
	<rect x="17.508" y="22.289" fill="#434343" width="0.969" height="0.952"/>
</g>
</svg>
