<?xml version="1.0" encoding="utf-8"?>
<!-- Generator: Adobe Illustrator 15.0.0, SVG Export Plug-In . SVG Version: 6.00 Build 0)  -->
<!DOCTYPE svg PUBLIC "-//W3C//DTD SVG 1.0//EN" "http://www.w3.org/TR/2001/REC-SVG-20010904/DTD/svg10.dtd">
<svg version="1.0" id="Layer_1" xmlns="http://www.w3.org/2000/svg" xmlns:xlink="http://www.w3.org/1999/xlink" x="0px" y="0px"
	 width="52px" height="53px" viewBox="0 0 52 53" enable-background="new 0 0 52 53" xml:space="preserve">
<g>
	<g>
		<path fill="#414042" d="M28.441,25.244c0,0.742-0.262,1.479-0.7,1.977c-0.03,0.035-3.419,3.021-3.419,3.021
			c-0.48,0.516-1.113,0.797-1.787,0.797c-0.676,0-1.305-0.279-1.781-0.787c0,0-3.49-3.002-3.521-3.035
			c-0.426-0.48-0.689-1.232-0.689-1.965c0-1.307,0.848-2.148,2.016-2.148h0.947v-3.047c0-1.639,1.303-2.953,2.844-2.953h0.439
			c1.521,0,2.67,1.287,2.67,2.953v3.047h0.964C27.591,23.102,28.441,23.943,28.441,25.244z M26.355,25.859
			c0.181-0.181,0.174-0.353,0.174-0.615c0-0.201-0.08-0.244-0.08-0.244h-1.934c-0.561,0-1.016-0.447-1.016-1v-3.945
			c0-0.553-0.354-1.021-0.771-1.021h-0.446c-0.404,0-0.856,0.438-0.856,1.021V24c0,0.553-0.453,1-1.016,1h-1.965
			c-0.002,0.021-0.028,0.102-0.028,0.25c0,0.248,0.011,0.451,0.162,0.604c0,0,3.521,2.979,3.553,3.014
			c0.069,0.078,0.185,0.172,0.341,0.172c0.122,0,0.239-0.061,0.346-0.18C22.85,28.824,26.355,25.859,26.355,25.859z"/>
	</g>
	<g>
		<path fill="#414042" d="M34.441,24.059c0,6.6-5.369,11.969-11.969,11.969s-11.968-5.369-11.968-11.969
			c0-6.601,5.368-11.97,11.968-11.97S34.441,17.459,34.441,24.059z M12.375,24.059c0,5.567,4.529,10.098,10.098,10.098
			s10.101-4.529,10.101-10.098c0-5.57-4.531-10.101-10.101-10.101C16.904,13.959,12.375,18.488,12.375,24.059z"/>
	</g>
</g>
</svg>
