<?xml version="1.0" encoding="utf-8"?>
<!-- Generator: Adobe Illustrator 15.0.0, SVG Export Plug-In . SVG Version: 6.00 Build 0)  -->
<!DOCTYPE svg PUBLIC "-//W3C//DTD SVG 1.0//EN" "http://www.w3.org/TR/2001/REC-SVG-20010904/DTD/svg10.dtd">
<svg version="1.0" id="Layer_1" xmlns="http://www.w3.org/2000/svg" xmlns:xlink="http://www.w3.org/1999/xlink" x="0px" y="0px"
	 width="52px" height="53px" viewBox="0 0 52 53" enable-background="new 0 0 52 53" xml:space="preserve">
<g>
	<g>
		<path fill="#434343" d="M34.893,38.938c-0.04,0-7.346-1-7.346-1s-7.346,1-7.385,1c-2.552,0-4.627-2.148-4.627-4.787v-7.404
			c0-2.64,2.075-4.787,4.627-4.787c0.039,0,7.346,0.963,7.346,0.963s7.345-0.963,7.385-0.963c2.552,0,4.627,2.147,4.627,4.787v7.404
			C39.52,36.789,37.443,38.938,34.893,38.938z M20.062,23.916c-1.433,0.03-2.589,1.271-2.589,2.793v7.436
			c0,1.521,1.156,2.764,2.59,2.792l7.502-0.874l7.432,0.874c1.431-0.031,2.586-1.271,2.586-2.792v-7.436
			c0-1.521-1.155-2.763-2.588-2.793l-7.507,0.875L20.062,23.916z"/>
	</g>
	<rect x="20.526" y="26.969" fill="#434343" width="1.984" height="0.953"/>
	<rect x="24.526" y="26.969" fill="#434343" width="1.984" height="0.953"/>
	<rect x="29.526" y="32.969" fill="#434343" width="1.984" height="0.953"/>
	<rect x="33.526" y="32.969" fill="#434343" width="1.984" height="0.953"/>
	<rect x="33.526" y="29.969" fill="#434343" width="1.984" height="0.953"/>
	<rect x="33.526" y="26.969" fill="#434343" width="1.984" height="0.953"/>
	<rect x="24.526" y="30.969" fill="#434343" width="1.984" height="0.953"/>
	<rect x="19.531" y="27.943" fill="#434343" width="0.969" height="1.984"/>
	<rect x="21.531" y="30.943" fill="#434343" width="0.969" height="1.984"/>
	<rect x="23.531" y="27.959" fill="#434343" width="0.969" height="5.969"/>
	<rect x="26.531" y="27.959" fill="#434343" width="0.969" height="5.969"/>
	<rect x="28.531" y="27" fill="#434343" width="0.969" height="6.928"/>
	<rect x="32.531" y="27.959" fill="#434343" width="0.969" height="4.969"/>
	<rect x="19.526" y="32.969" fill="#434343" width="1.984" height="0.953"/>
	<rect x="20.526" y="29.969" fill="#434343" width="0.97" height="0.953"/>
</g>
</svg>
