<?xml version="1.0" encoding="utf-8"?>
<!-- Generator: Adobe Illustrator 15.0.0, SVG Export Plug-In . SVG Version: 6.00 Build 0)  -->
<!DOCTYPE svg PUBLIC "-//W3C//DTD SVG 1.0//EN" "http://www.w3.org/TR/2001/REC-SVG-20010904/DTD/svg10.dtd">
<svg version="1.0" id="Layer_1" xmlns="http://www.w3.org/2000/svg" xmlns:xlink="http://www.w3.org/1999/xlink" x="0px" y="0px"
	 width="52px" height="53px" viewBox="0 0 52 53" enable-background="new 0 0 52 53" xml:space="preserve">
<g>
	<g>
		<path fill="#414042" d="M24.031,36.258c-6.6,0-11.969-5.371-11.969-11.969c0-6.6,5.369-11.969,11.969-11.969
			c6.6,0,11.969,5.369,11.969,11.969C36,30.887,30.631,36.258,24.031,36.258z M23.971,14.252c-5.567,0-10.096,4.522-10.096,10.081
			c0,5.557,4.529,10.081,10.096,10.081c5.568,0,10.097-4.523,10.097-10.081C34.068,18.775,29.539,14.252,23.971,14.252z"/>
	</g>
	<g>
		<path fill="#414042" d="M23.806,28.227c-0.118,0-0.237-0.029-0.345-0.092c-0.238-0.137-0.386-0.398-0.386-0.689v-6.248
			c0-0.289,0.148-0.555,0.386-0.689c0.237-0.135,0.525-0.12,0.75,0.039l4.389,3.126c0.202,0.146,0.324,0.39,0.324,0.649
			c0,0.262-0.122,0.506-0.324,0.648l-4.389,3.125C24.089,28.184,23.948,28.227,23.806,28.227z"/>
	</g>
	<path fill="#414042" d="M22,26.859c0,0.771-0.448,1.398-1,1.398l0,0c-0.552,0-1-0.627-1-1.398v-5.138c0-0.772,0.448-1.399,1-1.399
		l0,0c0.552,0,1,0.627,1,1.399V26.859z"/>
</g>
</svg>
