<?xml version="1.0" encoding="utf-8"?>
<!-- Generator: Adobe Illustrator 15.0.0, SVG Export Plug-In . SVG Version: 6.00 Build 0)  -->
<!DOCTYPE svg PUBLIC "-//W3C//DTD SVG 1.0//EN" "http://www.w3.org/TR/2001/REC-SVG-20010904/DTD/svg10.dtd">
<svg version="1.0" id="Layer_1" xmlns="http://www.w3.org/2000/svg" xmlns:xlink="http://www.w3.org/1999/xlink" x="0px" y="0px"
	 width="52px" height="53px" viewBox="0 0 52 53" enable-background="new 0 0 52 53" xml:space="preserve">
<g>
	<g>
		<path fill="#414042" d="M25.969,35.195c-6.6,0-11.969-5.371-11.969-11.971c0-6.599,5.369-11.967,11.969-11.967
			s11.969,5.368,11.969,11.967C37.938,29.823,32.568,35.195,25.969,35.195z M25.969,13.086c-5.592,0-10.141,4.548-10.141,10.138
			c0,5.592,4.549,10.141,10.141,10.141s10.141-4.549,10.141-10.141C36.109,17.634,31.561,13.086,25.969,13.086z"/>
	</g>
	<path fill="#414042" d="M30,25.257c0,1.104-0.896,2-2,2h-4c-1.104,0-2-0.896-2-2v-4c0-1.104,0.896-2,2-2h4c1.104,0,2,0.896,2,2
		V25.257z"/>
</g>
</svg>
