<?xml version="1.0" encoding="utf-8"?>
<!-- Generator: Adobe Illustrator 15.0.0, SVG Export Plug-In . SVG Version: 6.00 Build 0)  -->
<!DOCTYPE svg PUBLIC "-//W3C//DTD SVG 1.0//EN" "http://www.w3.org/TR/2001/REC-SVG-20010904/DTD/svg10.dtd">
<svg version="1.0" id="Layer_1" xmlns="http://www.w3.org/2000/svg" xmlns:xlink="http://www.w3.org/1999/xlink" x="0px" y="0px"
	 width="52px" height="53px" viewBox="0 0 52 53" enable-background="new 0 0 52 53" xml:space="preserve">
<g>
	<g>
		<g>
			<g>
				<path fill="#414042" d="M23.479,36.5c-6.599,0-11.968-5.371-11.968-11.971c0-6.598,5.369-11.967,11.968-11.967
					c6.6,0,11.969,5.369,11.969,11.967C35.448,31.129,30.079,36.5,23.479,36.5z M23.479,14.369c-5.603,0-10.161,4.559-10.161,10.16
					c0,5.604,4.558,10.162,10.161,10.162c5.604,0,10.162-4.56,10.162-10.162C33.641,18.928,29.083,14.369,23.479,14.369z"/>
			</g>
		</g>
	</g>
	<g>
		<path fill="#434343" d="M23.47,29.521c-0.055,0-0.107-0.013-0.158-0.029c-0.195-0.072-4.795-1.855-4.795-5.406
			c0-1.359,1.215-2.467,2.708-2.467c0.919,0,1.803,0.633,2.296,1.291c0.483-0.658,1.244-1.291,2.163-1.291
			c1.481,0,2.686,1.098,2.686,2.447c0,3.615-4.551,5.354-4.745,5.426C23.576,29.51,23.522,29.521,23.47,29.521z"/>
	</g>
</g>
</svg>
