<?xml version="1.0" encoding="utf-8"?>
<!-- Generator: Adobe Illustrator 15.0.0, SVG Export Plug-In . SVG Version: 6.00 Build 0)  -->
<!DOCTYPE svg PUBLIC "-//W3C//DTD SVG 1.0//EN" "http://www.w3.org/TR/2001/REC-SVG-20010904/DTD/svg10.dtd">
<svg version="1.0" id="Layer_1" xmlns="http://www.w3.org/2000/svg" xmlns:xlink="http://www.w3.org/1999/xlink" x="0px" y="0px"
	 width="52px" height="53px" viewBox="0 0 52 53" enable-background="new 0 0 52 53" xml:space="preserve">
<g>
	<g>
		<path fill="#414042" d="M26.008,34.258c-6.6,0-11.969-5.371-11.969-11.969c0-6.6,5.369-11.969,11.969-11.969
			s11.969,5.369,11.969,11.969C37.977,28.887,32.607,34.258,26.008,34.258z M26.008,12.191c-5.568,0-10.099,4.528-10.099,10.099
			c0,5.567,4.53,10.098,10.099,10.098c5.569,0,10.1-4.528,10.1-10.098C36.107,16.719,31.577,12.191,26.008,12.191z"/>
	</g>
	<path fill="#414042" d="M22.438,18.506c0.236-0.135,0.525-0.12,0.75,0.039l2.863,2.04v-1.389c0-0.291,0.148-0.556,0.387-0.69
		c0.236-0.135,0.525-0.12,0.75,0.039l4.389,3.126c0.203,0.145,0.324,0.389,0.324,0.648c0,0.263-0.121,0.506-0.324,0.649
		l-4.389,3.126c-0.121,0.088-0.264,0.131-0.404,0.131c-0.118,0-0.237-0.029-0.346-0.092c-0.237-0.137-0.387-0.4-0.387-0.689v-1.39
		l-2.863,2.04c-0.121,0.088-0.264,0.131-0.404,0.131c-0.118,0-0.237-0.029-0.346-0.092c-0.237-0.137-0.387-0.4-0.387-0.689v-6.248
		C22.052,18.905,22.2,18.642,22.438,18.506z"/>
</g>
</svg>
