<?xml version="1.0" encoding="utf-8"?>
<!-- Generator: Adobe Illustrator 15.0.0, SVG Export Plug-In . SVG Version: 6.00 Build 0)  -->
<!DOCTYPE svg PUBLIC "-//W3C//DTD SVG 1.0//EN" "http://www.w3.org/TR/2001/REC-SVG-20010904/DTD/svg10.dtd">
<svg version="1.0" id="Layer_1" xmlns="http://www.w3.org/2000/svg" xmlns:xlink="http://www.w3.org/1999/xlink" x="0px" y="0px"
	 width="52px" height="53px" viewBox="0 0 52 53" enable-background="new 0 0 52 53" xml:space="preserve">
<g>
	<g>
		<path fill="#414042" d="M23.533,23.344c0-0.742,0.262-1.479,0.7-1.977c0.03-0.033,3.419-3.02,3.419-3.02
			c0.48-0.516,1.113-0.798,1.787-0.798c0.675,0,1.305,0.279,1.781,0.789c0,0,3.49,3,3.521,3.033c0.426,0.479,0.69,1.233,0.69,1.967
			c0,1.304-0.848,2.147-2.015,2.147h-0.948v3.048c0,1.637-1.302,2.952-2.843,2.952h-0.44c-1.521,0-2.67-1.288-2.67-2.952v-3.048
			h-0.964C24.382,25.488,23.533,24.645,23.533,23.344z M25.617,22.729c-0.08,0.115-0.173,0.354-0.173,0.615
			c0,0.201,0.08,0.244,0.08,0.246h1.926c0.558,0,1.012,0.447,1.012,1v3.945c0,0.553,0.352,1.02,0.768,1.02h0.445
			c0.402,0,0.853-0.436,0.853-1.02V24.59c0-0.553,0.452-1,1.012-1h1.957c0.001-0.021,0.029-0.102,0.029-0.25
			c0-0.25-0.087-0.492-0.162-0.605c0,0-3.508-2.979-3.539-3.014c-0.069-0.076-0.184-0.17-0.338-0.17
			c-0.123,0-0.239,0.061-0.345,0.18C29.11,19.764,25.617,22.729,25.617,22.729z"/>
	</g>
	<g>
		<path fill="#414042" d="M17.532,24.531c0-6.602,5.37-11.969,11.97-11.969c6.599,0,11.967,5.367,11.967,11.969
			c0,6.6-5.368,11.969-11.967,11.969C22.902,36.5,17.532,31.131,17.532,24.531z M39.599,24.531c0-5.569-4.53-10.1-10.098-10.1
			s-10.1,4.529-10.1,10.1c0,5.568,4.531,10.1,10.1,10.1C35.069,34.631,39.599,30.1,39.599,24.531z"/>
	</g>
</g>
</svg>
