<?xml version="1.0" encoding="utf-8"?>
<!-- Generator: Adobe Illustrator 15.0.0, SVG Export Plug-In . SVG Version: 6.00 Build 0)  -->
<!DOCTYPE svg PUBLIC "-//W3C//DTD SVG 1.0//EN" "http://www.w3.org/TR/2001/REC-SVG-20010904/DTD/svg10.dtd">
<svg version="1.0" id="Layer_1" xmlns="http://www.w3.org/2000/svg" xmlns:xlink="http://www.w3.org/1999/xlink" x="0px" y="0px"
	 width="52px" height="53px" viewBox="0 0 52 53" enable-background="new 0 0 52 53" xml:space="preserve">
<g>
	<g>
		<path fill="#414042" d="M21.469,36.437c-6.6,0-11.969-5.37-11.969-11.97c0-6.599,5.369-11.967,11.969-11.967
			s11.969,5.368,11.969,11.967C33.438,31.066,28.068,36.437,21.469,36.437z M21.469,14.307c-5.604,0-10.162,4.559-10.162,10.16
			c0,5.604,4.56,10.162,10.162,10.162c5.604,0,10.162-4.559,10.162-10.162C31.631,18.865,27.072,14.307,21.469,14.307z"/>
	</g>
	<path fill="#414042" d="M26.438,24.499c0,0.534-0.463,0.969-1.037,0.969h-7.862c-0.574,0-1.037-0.435-1.037-0.969l0,0
		c0-0.534,0.463-0.969,1.037-0.969H25.4C25.975,23.53,26.438,23.965,26.438,24.499L26.438,24.499z"/>
	<path fill="#414042" d="M21.469,29.468c-0.535,0-0.969-0.463-0.969-1.036v-7.865c0-0.572,0.434-1.036,0.969-1.036l0,0
		c0.535,0,0.969,0.464,0.969,1.036v7.865C22.438,29.005,22.004,29.468,21.469,29.468L21.469,29.468z"/>
</g>
</svg>
