<?xml version="1.0" encoding="utf-8"?>
<!-- Generator: Adobe Illustrator 15.0.0, SVG Export Plug-In . SVG Version: 6.00 Build 0)  -->
<!DOCTYPE svg PUBLIC "-//W3C//DTD SVG 1.0//EN" "http://www.w3.org/TR/2001/REC-SVG-20010904/DTD/svg10.dtd">
<svg version="1.0" id="Layer_1" xmlns="http://www.w3.org/2000/svg" xmlns:xlink="http://www.w3.org/1999/xlink" x="0px" y="0px"
	 width="52px" height="53px" viewBox="0 0 52 53" enable-background="new 0 0 52 53" xml:space="preserve">
<g>
	<g>
		<path fill="#414042" d="M14.031,20.289c0-6.6,5.369-11.969,11.969-11.969c6.6,0,11.969,5.369,11.969,11.969
			c0,6.599-5.369,11.969-11.969,11.969C19.4,32.258,14.031,26.887,14.031,20.289z M15.963,20.333
			c0,5.558,4.529,10.081,10.097,10.081c5.567,0,10.096-4.523,10.096-10.081c0-5.559-4.529-10.081-10.096-10.081
			C20.492,10.252,15.963,14.775,15.963,20.333z"/>
	</g>
	<g>
		<path fill="#414042" d="M25.819,24.096l-4.388-3.126c-0.203-0.145-0.325-0.388-0.325-0.648c0-0.262,0.122-0.506,0.325-0.649
			l4.388-3.126c0.225-0.159,0.514-0.174,0.75-0.039c0.238,0.136,0.387,0.4,0.387,0.689v6.248c0,0.291-0.148,0.555-0.387,0.69
			c-0.107,0.062-0.227,0.092-0.344,0.092C26.083,24.227,25.942,24.184,25.819,24.096z"/>
	</g>
	<path fill="#414042" d="M28.031,22.859c0,0.772,0.429,1.399,0.958,1.399l0,0c0.528,0,0.958-0.627,0.958-1.399v-5.138
		c0-0.772-0.43-1.399-0.958-1.399l0,0c-0.529,0-0.958,0.627-0.958,1.399V22.859z"/>
</g>
</svg>
