<?xml version="1.0" encoding="utf-8"?>
<!-- Generator: Adobe Illustrator 15.0.0, SVG Export Plug-In . SVG Version: 6.00 Build 0)  -->
<!DOCTYPE svg PUBLIC "-//W3C//DTD SVG 1.0//EN" "http://www.w3.org/TR/2001/REC-SVG-20010904/DTD/svg10.dtd">
<svg version="1.0" id="Layer_1" xmlns="http://www.w3.org/2000/svg" xmlns:xlink="http://www.w3.org/1999/xlink" x="0px" y="0px"
	 width="52px" height="53px" viewBox="0 0 52 53" enable-background="new 0 0 52 53" xml:space="preserve">
<g>
	<g>
		<path fill="#414042" d="M38.439,39.5H20.517c-1.664,0-3.018-1.346-3.018-3v-18c0-1.654,1.354-3,3.018-3h17.922
			c1.664,0,3.019,1.346,3.019,3v18C41.458,38.154,40.104,39.5,38.439,39.5z M20.523,17.5c-0.564,0-1.023,0.449-1.023,1v18
			c0,0.551,0.459,1,1.023,1h17.953c0.564,0,1.023-0.449,1.023-1v-18c0-0.551-0.459-1-1.023-1H20.523z"/>
	</g>
	<g>
		<rect x="28.5" y="16.584" fill="#414042" width="2" height="22"/>
	</g>
	<g>
		<rect x="18.5" y="26.521" fill="#414042" width="22" height="1.938"/>
	</g>
	<g>
		<rect x="23.542" y="19.547" fill="#414042" width="0.911" height="4.916"/>
	</g>
	<g>
		<rect x="21.552" y="21.536" fill="#414042" width="4.906" height="0.901"/>
	</g>
	<g>
		<polygon fill="#414042" points="22.315,35.447 21.523,34.665 25.667,30.572 26.459,31.354 		"/>
	</g>
	<g>
		<polygon fill="#414042" points="21.523,31.314 22.309,30.538 26.488,34.664 25.701,35.439 		"/>
	</g>
	<g>
		<rect x="32.541" y="21.521" fill="#414042" width="4.917" height="0.963"/>
	</g>
	<g>
		<rect x="32.541" y="32.521" fill="#414042" width="4.917" height="0.933"/>
	</g>
	<g>
		<rect x="34.542" y="30.521" fill="#414042" width="0.938" height="0.938"/>
	</g>
	<g>
		<rect x="34.542" y="34.521" fill="#414042" width="0.938" height="0.938"/>
	</g>
</g>
</svg>
