<?xml version="1.0" encoding="utf-8"?>
<!-- Generator: Adobe Illustrator 15.0.0, SVG Export Plug-In . SVG Version: 6.00 Build 0)  -->
<!DOCTYPE svg PUBLIC "-//W3C//DTD SVG 1.0//EN" "http://www.w3.org/TR/2001/REC-SVG-20010904/DTD/svg10.dtd">
<svg version="1.0" id="Layer_1" xmlns="http://www.w3.org/2000/svg" xmlns:xlink="http://www.w3.org/1999/xlink" x="0px" y="0px"
	 width="52px" height="53px" viewBox="0 0 52 53" enable-background="new 0 0 52 53" xml:space="preserve">
<g>
	<g>
		<path fill="#414042" d="M34.451,40.5H21.569c-1.652,0-2.997-1.346-2.997-3V19.541c0-1.654,1.344-3,2.997-3h12.882
			c1.652,0,2.997,1.346,2.997,3V37.5C37.447,39.154,36.103,40.5,34.451,40.5z M21.433,18.458c-0.566,0-1.026,0.45-1.026,1.004
			v18.034c0,0.554,0.46,1.004,1.026,1.004h13.154c0.566,0,1.026-0.45,1.026-1.004V19.462c0-0.554-0.46-1.004-1.026-1.004H21.433z"/>
	</g>
	<g>
		<path fill="#414042" d="M32.459,28.5h-8.898c-1.096,0-1.988-0.902-1.988-2.014v-4.894c0-1.108,0.892-2.012,1.988-2.012h8.898
			c1.097,0,1.989,0.903,1.989,2.012v4.894C34.448,27.598,33.556,28.5,32.459,28.5z M23.417,21.417l-0.008,5.103l9.154,0.021
			l0.01-5.102L23.417,21.417z"/>
	</g>
	<g>
		<rect x="22.588" y="29.557" fill="#414042" width="1.859" height="1.943"/>
	</g>
	<g>
		<rect x="25.588" y="29.557" fill="#414042" width="1.859" height="1.943"/>
	</g>
	<g>
		<rect x="28.588" y="29.557" fill="#414042" width="1.901" height="1.943"/>
	</g>
	<g>
		<rect x="31.588" y="29.557" fill="#414042" width="1.901" height="1.943"/>
	</g>
	<g>
		<rect x="22.588" y="32.557" fill="#414042" width="1.859" height="1.943"/>
	</g>
	<g>
		<rect x="25.588" y="32.557" fill="#414042" width="1.859" height="1.943"/>
	</g>
	<g>
		<rect x="28.588" y="32.557" fill="#414042" width="1.9" height="1.943"/>
	</g>
	<g>
		<rect x="31.588" y="32.557" fill="#414042" width="1.859" height="1.943"/>
	</g>
	<g>
		<rect x="31.588" y="35.557" fill="#414042" width="1.859" height="1.943"/>
	</g>
	<g>
		<rect x="28.588" y="35.557" fill="#414042" width="1.9" height="1.943"/>
	</g>
	<g>
		<rect x="25.588" y="35.557" fill="#414042" width="1.859" height="1.943"/>
	</g>
	<g>
		<rect x="22.588" y="35.557" fill="#414042" width="1.859" height="1.943"/>
	</g>
</g>
</svg>
