<?xml version="1.0" encoding="utf-8"?>
<!-- Generator: Adobe Illustrator 15.0.0, SVG Export Plug-In . SVG Version: 6.00 Build 0)  -->
<!DOCTYPE svg PUBLIC "-//W3C//DTD SVG 1.0//EN" "http://www.w3.org/TR/2001/REC-SVG-20010904/DTD/svg10.dtd">
<svg version="1.0" id="Layer_1" xmlns="http://www.w3.org/2000/svg" xmlns:xlink="http://www.w3.org/1999/xlink" x="0px" y="0px"
	 width="52px" height="53px" viewBox="0 0 52 53" enable-background="new 0 0 52 53" xml:space="preserve">
<g>
	<g>
		<path fill="#414042" d="M37.948,32.205H20.02c-1.664,0-3.02-1.352-3.02-3.012V14.281c0-1.662,1.355-3.014,3.021-3.014h17.928
			c1.664,0,3.021,1.352,3.021,3.014v14.912C40.969,30.854,39.613,32.205,37.948,32.205z M19.938,13.188
			c-0.568,0-1.03,0.458-1.03,1.022v15.051c0,0.563,0.462,1.022,1.03,1.022h18.096c0.568,0,1.029-0.459,1.029-1.022V14.21
			c0-0.564-0.461-1.022-1.029-1.022H19.938z"/>
	</g>
	<rect x="21.062" y="17.267" fill="#414042" width="15.844" height="0.938"/>
	<rect x="21.062" y="21.267" fill="#414042" width="15.844" height="0.938"/>
	<rect x="21.062" y="25.267" fill="#414042" width="15.844" height="0.938"/>
	<rect x="23" y="15.33" fill="#414042" width="1" height="12.875"/>
	<rect x="27" y="15.33" fill="#414042" width="1" height="12.875"/>
	<rect x="31" y="15.33" fill="#414042" width="1" height="12.875"/>
	<rect x="35" y="15.33" fill="#414042" width="1" height="12.875"/>
	<path fill="#414042" d="M25,10.257c0-0.553-0.671-1-1.5-1s-1.5,0.447-1.5,1v1.979h3V10.257z"/>
	<path fill="#414042" d="M36,10.257c0-0.553-0.671-1-1.5-1s-1.5,0.447-1.5,1v1.979h3V10.257z"/>
</g>
</svg>
