<?xml version="1.0" encoding="utf-8"?>
<!-- Generator: Adobe Illustrator 15.0.0, SVG Export Plug-In . SVG Version: 6.00 Build 0)  -->
<!DOCTYPE svg PUBLIC "-//W3C//DTD SVG 1.0//EN" "http://www.w3.org/TR/2001/REC-SVG-20010904/DTD/svg10.dtd">
<svg version="1.0" id="Layer_1" xmlns="http://www.w3.org/2000/svg" xmlns:xlink="http://www.w3.org/1999/xlink" x="0px" y="0px"
	 width="52px" height="53px" viewBox="0 0 52 53" enable-background="new 0 0 52 53" xml:space="preserve">
<g>
	<path fill="#414042" d="M36.92,13.319h-2.962V12.3c0-0.576-0.661-1.044-1.479-1.044C31.661,11.257,31,11.725,31,12.301v1.019
		h-6.042v-1.019c0-0.576-0.661-1.044-1.479-1.044S22,11.725,22,12.301v1.019h-2.983c-1.664,0-3.017,1.346-3.017,3v15.875
		c0,1.654,1.354,3,3.017,3H36.92c1.664,0,3.018-1.346,3.018-3V16.32C39.938,14.666,38.584,13.319,36.92,13.319z M38,32.241
		c0,0.562-0.457,1.017-1.021,1.017H19.02c-0.562,0-1.02-0.455-1.02-1.017V16.147c0-0.561,0.458-1.016,1.021-1.016h2.98v1.039
		c0,0.576,0.661,1.044,1.479,1.044c0.817,0,1.479-0.468,1.479-1.044v-1.039h6.042v1.039c0,0.576,0.661,1.044,1.479,1.044
		c0.816,0,1.479-0.468,1.479-1.044v-1.039h3.021c0.562,0,1.021,0.455,1.021,1.016L38,32.241L38,32.241z"/>
	<rect x="21.031" y="19.289" fill="#414042" width="13.938" height="0.938"/>
	<rect x="24" y="22.289" fill="#414042" width="1.938" height="8.938"/>
	<rect x="30" y="22.289" fill="#414042" width="1.938" height="8.938"/>
	<rect x="23.062" y="22.289" fill="#414042" width="2.344" height="1.969"/>
	<rect x="29.062" y="22.289" fill="#414042" width="2.344" height="1.969"/>
</g>
</svg>
