<?xml version="1.0" encoding="utf-8"?>
<!-- Generator: Adobe Illustrator 15.0.0, SVG Export Plug-In . SVG Version: 6.00 Build 0)  -->
<!DOCTYPE svg PUBLIC "-//W3C//DTD SVG 1.0//EN" "http://www.w3.org/TR/2001/REC-SVG-20010904/DTD/svg10.dtd">
<svg version="1.0" id="Layer_1" xmlns="http://www.w3.org/2000/svg" xmlns:xlink="http://www.w3.org/1999/xlink" x="0px" y="0px"
	 width="52px" height="53px" viewBox="0 0 52 53" enable-background="new 0 0 52 53" xml:space="preserve">
<g>
	<g>
		<path fill="#414042" d="M27.483,30c-2.188,0-3.969-1.791-3.969-3.994c0-2.201,1.78-3.993,3.969-3.993
			c2.189,0,3.97,1.792,3.97,3.993C31.453,28.209,29.673,30,27.483,30z M27.483,23.41c-1.416,0-2.567,1.165-2.567,2.596
			c0,1.432,1.151,2.596,2.567,2.596s2.568-1.164,2.568-2.596C30.054,24.575,28.899,23.41,27.483,23.41z"/>
	</g>
	<path fill="#414042" d="M32.483,17.272v1.696h-0.87c2.13,0.162,2.979,1.991,2.979,4.243v5.639c0,2.355-0.916,4.273-3.273,4.273
		H18.674c-5.034,0-4.277-1.918-4.277-4.273v-5.639c0-2.356-0.757-4.274,4.277-4.274h4.872v-1.812h-4.818
		c-6.102,0-6.213,2.785-6.213,6.209v5.457c0,3.424,0.111,6.209,6.213,6.209h12.475c3.426,0,5.209-2.785,5.209-6.209v-5.457
		C36.412,20.367,35.071,17.883,32.483,17.272z"/>
	<rect x="23.547" y="18.938" fill="#414042" width="1.875" height="0.031"/>
	<path fill="#414042" d="M25.422,15.338c0-0.244,0.209-0.441,0.462-0.441h4.232c0.255,0,0.462,0.197,0.462,0.441v1.787h0.625
		c0.457,0,0.883,0.053,1.28,0.147v-1.766c0-1.348-1.096-2.444-2.444-2.444h-4.047c-1.349,0-2.445,1.097-2.445,2.444v1.618h1.875
		V15.338z"/>
	<path fill="#414042" d="M30.578,18.938v0.031h1.035c-0.101-0.008-0.188-0.031-0.294-0.031H30.578z"/>
	<path fill="#414042" d="M30.578,17.125v1.812h0.741c0.105,0,0.193,0.023,0.294,0.031h0.87v-1.696
		c-0.397-0.095-0.823-0.147-1.28-0.147H30.578z"/>
	<rect x="23.547" y="17.125" fill="#414042" width="1.875" height="1.812"/>
	<path fill="#414042" d="M20.516,22c0,0.518-0.433,0.938-0.967,0.938h-2.004c-0.534,0-0.967-0.42-0.967-0.938l0,0
		c0-0.518,0.433-0.938,0.967-0.938h2.004C20.083,21.062,20.516,21.482,20.516,22L20.516,22z"/>
	<circle fill="#414042" cx="27.528" cy="26" r="0.972"/>
</g>
</svg>
