<?xml version="1.0" encoding="utf-8"?>
<!-- Generator: Adobe Illustrator 15.0.0, SVG Export Plug-In . SVG Version: 6.00 Build 0)  -->
<!DOCTYPE svg PUBLIC "-//W3C//DTD SVG 1.0//EN" "http://www.w3.org/TR/2001/REC-SVG-20010904/DTD/svg10.dtd">
<svg version="1.0" id="Layer_1" xmlns="http://www.w3.org/2000/svg" xmlns:xlink="http://www.w3.org/1999/xlink" x="0px" y="0px"
	 width="52px" height="53px" viewBox="0 0 52 53" enable-background="new 0 0 52 53" xml:space="preserve">
<g>
	<g>
		<path fill="#434343" d="M35.457,27.5c-0.553,0-1-0.447-1-1c0-0.545,0.437-0.988,0.979-1c0,0-0.974-3.964-0.974-4.047l-5-0.02
			c-0.266,0-0.521-0.106-0.709-0.295l-3.707-3.658h-8.578c0,0.041-0.008,0.104-0.014,0.145L15.47,25.48
			c0.549,0.004,0.995,0.459,0.995,1.01c0,0.553-0.445,1.01-0.997,1.01c-1.106,0-1.969-0.868-1.969-1.982
			c0-0.041,0.002-0.082,0.008-0.125l0.957-7.965c0.038-1.08,0.862-1.887,1.944-1.887h8.994c0.266,0,0.521,0.105,0.709,0.295
			l3.768,3.768h4.578c1.058,0,1.693,0.656,2.001,1.773c0,0,1.005,4.021,1.005,4.104C37.463,26.594,36.563,27.5,35.457,27.5z"/>
	</g>
	<g>
		<path fill="#434343" d="M26.475,27.5h-1.977c-0.546,0-0.988-0.419-0.988-0.938s0.442-0.938,0.988-0.938h1.977
			c0.546,0,0.988,0.42,0.988,0.938S27.021,27.5,26.475,27.5z"/>
	</g>
	<polygon fill="#434343" points="27.463,21.5 22.463,21.5 22.463,18.604 24.463,18.604 	"/>
	<g>
		<path fill="#434343" d="M31.463,29.5c-1.654,0-3-1.322-3-2.948s1.346-2.948,3-2.948c1.654,0,3,1.322,3,2.948
			S33.117,29.5,31.463,29.5z M31.463,25.568c-0.552,0-1,0.441-1,0.982c0,0.542,0.448,0.982,1,0.982c0.552,0,1-0.44,1-0.982
			C32.463,26.011,32.015,25.568,31.463,25.568z"/>
	</g>
	<g>
		<path fill="#434343" d="M19.447,29.5c-1.646,0-2.984-1.337-2.984-2.979c0-1.643,1.339-2.979,2.984-2.979
			c1.645,0,2.984,1.337,2.984,2.979C22.431,28.163,21.093,29.5,19.447,29.5z M19.463,25.527c-0.551,0-1,0.445-1,0.992
			c0,0.549,0.449,0.994,1,0.994c0.551,0,1-0.445,1-0.994C20.463,25.975,20.014,25.527,19.463,25.527z"/>
	</g>
	<rect x="17.463" y="18.604" fill="#434343" width="4" height="2.896"/>
</g>
</svg>
