<?xml version="1.0" encoding="utf-8"?>
<!-- Generator: Adobe Illustrator 15.0.0, SVG Export Plug-In . SVG Version: 6.00 Build 0)  -->
<!DOCTYPE svg PUBLIC "-//W3C//DTD SVG 1.0//EN" "http://www.w3.org/TR/2001/REC-SVG-20010904/DTD/svg10.dtd">
<svg version="1.0" id="Layer_1" xmlns="http://www.w3.org/2000/svg" xmlns:xlink="http://www.w3.org/1999/xlink" x="0px" y="0px"
	 width="52px" height="53px" viewBox="0 0 52 53" enable-background="new 0 0 52 53" xml:space="preserve">
<g>
	<path fill="#434343" d="M27.109,29.5L27.109,29.5c-0.709,0-1.376-0.273-1.877-0.773l-6.955-6.906c-1.035-1.027-1.035-2.701,0-3.729
		l1.152-1.143c1.004-0.996,2.752-0.996,3.755,0l3.926,3.898l8.626-8.568c1.006-0.996,2.753-0.994,3.755,0l1.151,1.145
		c0.502,0.497,0.778,1.159,0.778,1.863c0.001,0.705-0.275,1.367-0.778,1.866L28.987,28.728c-0.124,0.123-0.265,0.238-0.416,0.338
		C28.136,29.35,27.63,29.5,27.109,29.5z M21.306,18.148c-0.179,0-0.347,0.07-0.473,0.195l-1.152,1.143
		c-0.261,0.26-0.26,0.682,0,0.939l6.955,6.906c0.126,0.126,0.294,0.195,0.473,0.195l0,0c0.132,0,0.259-0.037,0.368-0.109
		c0.036-0.023,0.07-0.051,0.101-0.081l11.659-11.579c0.127-0.125,0.197-0.293,0.196-0.471c0-0.177-0.069-0.344-0.196-0.469
		l-1.151-1.145c-0.252-0.25-0.694-0.25-0.946,0.002l-10.03,9.961l-5.33-5.293C21.652,18.219,21.484,18.148,21.306,18.148z"/>
</g>
</svg>
