<?xml version="1.0" encoding="utf-8"?>
<!-- Generator: Adobe Illustrator 15.0.0, SVG Export Plug-In . SVG Version: 6.00 Build 0)  -->
<!DOCTYPE svg PUBLIC "-//W3C//DTD SVG 1.0//EN" "http://www.w3.org/TR/2001/REC-SVG-20010904/DTD/svg10.dtd">
<svg version="1.0" id="Layer_1" xmlns="http://www.w3.org/2000/svg" xmlns:xlink="http://www.w3.org/1999/xlink" x="0px" y="0px"
	 width="52px" height="53px" viewBox="0 0 52 53" enable-background="new 0 0 52 53" xml:space="preserve">
<g>
	<path fill="#414042" d="M31.973,36.258H18.028c-0.55,0-0.996-0.447-0.996-1c0-1.297,0.933-2.182,1.834-3.037
		c0.492-0.465,1-0.947,1.327-1.471c0.863-1.434,1.862-3.479,1.862-6.492c0-2.117-0.126-2.883-0.188-3.129
		c-1.177-0.957-1.772-2.354-1.772-3.871c0-0.375,0.05-0.762,0.154-1.186c0.547-2.246,2.458-3.814,4.752-3.814
		c2.313,0,4.304,1.582,4.837,3.85c0.096,0.408,0.143,0.785,0.143,1.15c0,1.494-0.655,2.879-1.807,3.834
		c-0.062,0.248-0.186,1.006-0.186,3.166c0,3.125,1.043,5.207,1.826,6.5c0.203,0.312,0.645,0.736,1.072,1.146
		c0.975,0.939,2.082,2.006,2.082,3.354C32.969,35.811,32.523,36.258,31.973,36.258z M19.637,34.258h10.765
		c-0.277-0.314-0.61-0.635-0.896-0.91c-0.53-0.51-1.03-0.992-1.376-1.521c-0.926-1.525-2.058-3.896-2.058-7.525
		c0-3.186,0.156-4.078,0.584-4.537c0.038-0.041,0.081-0.08,0.128-0.113c0.765-0.578,1.203-1.447,1.203-2.391
		c0-0.209-0.029-0.436-0.09-0.689c-0.32-1.359-1.513-2.311-2.898-2.311c-1.375,0-2.563,0.939-2.892,2.289
		c-0.065,0.271-0.096,0.496-0.096,0.711c0,0.957,0.449,1.836,1.231,2.412c0.041,0.027,0.08,0.062,0.116,0.102
		c0.375,0.377,0.631,0.977,0.631,4.486c0,3.547-1.175,6-2.101,7.539c-0.469,0.754-1.1,1.354-1.656,1.879
		C20.023,33.875,19.818,34.07,19.637,34.258z"/>
</g>
</svg>
