<?xml version="1.0" encoding="utf-8"?>
<!-- Generator: Adobe Illustrator 15.0.0, SVG Export Plug-In . SVG Version: 6.00 Build 0)  -->
<!DOCTYPE svg PUBLIC "-//W3C//DTD SVG 1.0//EN" "http://www.w3.org/TR/2001/REC-SVG-20010904/DTD/svg10.dtd">
<svg version="1.0" id="Layer_1" xmlns="http://www.w3.org/2000/svg" xmlns:xlink="http://www.w3.org/1999/xlink" x="0px" y="0px"
	 width="52px" height="53px" viewBox="0 0 52 53" enable-background="new 0 0 52 53" xml:space="preserve">
<g>
	<g>
		<path fill="#414042" d="M35.988,38.258H23.012c-1.662,0-3.014-1.373-3.014-3.062V19.325c0-1.688,1.352-3.062,3.014-3.062h1.944
			c0.552,0,1,0.447,1,1c0,0.554-0.448,0.931-1,0.931h-1.944c-0.561,0-1.014,0.545-1.014,1.131v15.871
			c0,0.586,0.453,1.062,1.014,1.062h12.977c0.557,0,1.012-0.476,1.012-1.062V19.325c0-0.586-0.455-1.131-1.012-1.131H34
			c-0.553,0-1-0.377-1-0.931c0-0.553,0.447-1,1-1h1.988c1.66,0,3.012,1.373,3.012,3.062v15.871
			C39,36.885,37.648,38.258,35.988,38.258z"/>
	</g>
	<path fill="#414042" d="M30.908,16.264C30.963,16.105,31,15.939,31,15.762c0-0.83-0.672-1.504-1.5-1.504
		c-0.83,0-1.5,0.674-1.5,1.504c0,0.178,0.035,0.344,0.092,0.502H27.02v1.932H32v-1.932H30.908z M30.041,17.307h-1.062v-1.086h1.062
		V17.307z"/>
</g>
</svg>
