<?xml version="1.0" encoding="utf-8"?>
<!-- Generator: Adobe Illustrator 15.0.0, SVG Export Plug-In . SVG Version: 6.00 Build 0)  -->
<!DOCTYPE svg PUBLIC "-//W3C//DTD SVG 1.0//EN" "http://www.w3.org/TR/2001/REC-SVG-20010904/DTD/svg10.dtd">
<svg version="1.0" id="Layer_1" xmlns="http://www.w3.org/2000/svg" xmlns:xlink="http://www.w3.org/1999/xlink" x="0px" y="0px"
	 width="52px" height="53px" viewBox="0 0 52 53" enable-background="new 0 0 52 53" xml:space="preserve">
<g>
	<g>
		<path fill="#414042" d="M32,37.258H20c-1.654,0-3-1.346-3-3v-16c0-1.654,1.346-3,3-3h3v2h-3c-0.551,0-1,0.449-1,1v16
			c0,0.551,0.449,1,1,1h12c0.552,0,1-0.449,1-1v-16c0-0.551-0.448-1-1-1h-3v-2h3c1.654,0,2.922,1.424,2.922,3.078v16
			C34.922,35.99,33.654,37.258,32,37.258z"/>
	</g>
	<g>
		<path fill="#414042" d="M28,15.258h-4c0-1.105,0.896-2,2-2C27.104,13.258,28,14.152,28,15.258z"/>
	</g>
	<g>
		<path fill="#414042" d="M29,21.258h-6c-1.103,0-2-0.896-2-2v-2c0-1.104,0.897-2,2-2h6c1.104,0,2,0.896,2,2v2
			C31,20.361,30.104,21.258,29,21.258z M23,17.258v2h6.001l-0.001-2H23z"/>
	</g>
	<g>
		<rect x="21" y="24.258" fill="#414042" width="10" height="1"/>
	</g>
	<g>
		<rect x="21" y="26.258" fill="#414042" width="10" height="1"/>
	</g>
	<g>
		<rect x="21" y="29.258" fill="#414042" width="10" height="1"/>
	</g>
</g>
</svg>
