<?xml version="1.0" encoding="utf-8"?>
<!-- Generator: Adobe Illustrator 15.0.0, SVG Export Plug-In . SVG Version: 6.00 Build 0)  -->
<!DOCTYPE svg PUBLIC "-//W3C//DTD SVG 1.0//EN" "http://www.w3.org/TR/2001/REC-SVG-20010904/DTD/svg10.dtd">
<svg version="1.0" id="Layer_1" xmlns="http://www.w3.org/2000/svg" xmlns:xlink="http://www.w3.org/1999/xlink" x="0px" y="0px"
	 width="52px" height="53px" viewBox="0 0 52 53" enable-background="new 0 0 52 53" xml:space="preserve">
<g>
	<path fill="#434343" d="M28.721,28.5c-1.634,0-18.283,0-20.293,0c-2.011,0-1.843-1.602-1.843-1.974
		c0-3.659,2.485-6.638,5.542-6.646c1.212-1.507,2.877-2.359,4.646-2.359c2.212,0,4.235,1.33,5.42,3.518
		c1.643-0.033,3.193,0.819,4.256,2.286c2.033,0.03,3.739,1.765,4.067,4.146C30.516,27.472,30.73,28.5,28.721,28.5z M8.568,26.594
		h19.575c-0.391-0.9-1.094-1.502-1.852-1.502c-0.048,0-0.146,0.018-0.238,0.035l-0.725,0.139l-0.377-0.591
		c-0.691-1.173-1.698-1.846-2.764-1.846c-0.124,0-0.281,0.029-0.463,0.064l-0.816,0.154l-0.32-0.704
		c-0.802-1.847-2.284-2.994-3.869-2.994c-1.243,0-2.446,0.717-3.3,1.968l-0.342,0.5l-0.828-0.112
		c-0.046-0.009-0.092-0.02-0.14-0.021c-1.919,0-3.542,2.183-3.542,4.766C8.566,26.497,8.567,26.546,8.568,26.594z"/>
</g>
</svg>
