<?xml version="1.0" encoding="utf-8"?>
<!-- Generator: Adobe Illustrator 15.0.0, SVG Export Plug-In . SVG Version: 6.00 Build 0)  -->
<!DOCTYPE svg PUBLIC "-//W3C//DTD SVG 1.0//EN" "http://www.w3.org/TR/2001/REC-SVG-20010904/DTD/svg10.dtd">
<svg version="1.0" id="Layer_1" xmlns="http://www.w3.org/2000/svg" xmlns:xlink="http://www.w3.org/1999/xlink" x="0px" y="0px"
	 width="52px" height="53px" viewBox="0 0 52 53" enable-background="new 0 0 52 53" xml:space="preserve">
<g>
	<g>
		<path fill="#414042" d="M28.005,39.258c-6.604,0-11.979-5.383-11.979-12c0-6.618,5.375-12,11.979-12
			c6.606,0,11.979,5.383,11.979,12C39.984,33.875,34.611,39.258,28.005,39.258z M28.005,17.028c-5.63,0-10.21,4.588-10.21,10.229
			c0,5.641,4.581,10.229,10.21,10.229c5.632,0,10.212-4.588,10.212-10.229C38.217,21.616,33.636,17.028,28.005,17.028z"/>
	</g>
	<g>
		<path fill="#414042" d="M28.016,35.236c-0.547,0-0.988-0.439-0.988-0.986V20.286c0-0.545,0.441-0.988,0.988-0.988
			c4.395,0,7.969,3.575,7.969,7.969C35.984,31.661,32.409,35.236,28.016,35.236z"/>
	</g>
</g>
</svg>
