<?xml version="1.0" encoding="utf-8"?>
<!-- Generator: Adobe Illustrator 15.0.0, SVG Export Plug-In . SVG Version: 6.00 Build 0)  -->
<!DOCTYPE svg PUBLIC "-//W3C//DTD SVG 1.1//EN" "http://www.w3.org/Graphics/SVG/1.1/DTD/svg11.dtd">
<svg version="1.1" id="Layer_1" xmlns="http://www.w3.org/2000/svg" xmlns:xlink="http://www.w3.org/1999/xlink" x="0px" y="0px"
	 width="52px" height="53px" viewBox="0 0 52 53" enable-background="new 0 0 52 53" xml:space="preserve">
<g>
	<g>
		<path fill="#424143" d="M40.971,38.152H25.053c-1.666,0-3.021-1.33-3.021-2.967c0.984-11.953,2.161-11.953,3.021-11.953
			c0.382,0,0.731,0.217,0.899,0.561l2.205,4.502l4.028-5.641c0.375-0.521,1.254-0.523,1.629,0l4.033,5.645l2.225-4.508
			c0.169-0.342,0.518-0.559,0.897-0.559c0.859,0,2.036,0,3.019,11.871C43.99,36.822,42.635,38.152,40.971,38.152z M25.127,26.668
			c-0.415,2.066-0.845,5.586-1.099,8.695c0.003,0.461,0.461,0.9,1.024,0.9h15.917c0.562,0,1.021-0.439,1.021-0.984
			c-0.254-3.055-0.684-6.562-1.098-8.621l-1.99,4.07c-0.154,0.316-0.465,0.527-0.815,0.559c-0.362,0.029-0.69-0.131-0.896-0.42
			L33,24.949l-4.189,5.918c-0.205,0.289-0.547,0.453-0.896,0.42c-0.352-0.029-0.662-0.242-0.816-0.562L25.127,26.668z"/>
	</g>
	<circle fill="#424143" cx="24.969" cy="23.216" r="1.958"/>
	<circle fill="#424143" cx="32.969" cy="21.216" r="1.958"/>
	<circle fill="#424143" cx="40.969" cy="23.216" r="1.958"/>
	<g>
		<path fill="#424143" d="M41.999,43.195H24.001c-1.649,0-2.99-1.309-2.99-2.916v-1.031c0-1.607,1.341-2.916,2.99-2.916h17.998
			c1.647,0,2.989,1.309,2.989,2.916v1.031C44.989,41.887,43.646,43.195,41.999,43.195z M24.001,38.201
			c-0.546,0-0.99,0.455-0.99,1.014v1.086c0,0.561,0.444,1.016,0.99,1.016h17.998c0.546,0,0.989-0.455,0.989-1.016v-1.086
			c0-0.559-0.443-1.014-0.989-1.014H24.001z"/>
	</g>
</g>
</svg>
