<?xml version="1.0" encoding="utf-8"?>
<!-- Generator: Adobe Illustrator 15.0.0, SVG Export Plug-In . SVG Version: 6.00 Build 0)  -->
<!DOCTYPE svg PUBLIC "-//W3C//DTD SVG 1.0//EN" "http://www.w3.org/TR/2001/REC-SVG-20010904/DTD/svg10.dtd">
<svg version="1.0" id="Layer_1" xmlns="http://www.w3.org/2000/svg" xmlns:xlink="http://www.w3.org/1999/xlink" x="0px" y="0px"
	 width="52px" height="53px" viewBox="0 0 52 53" enable-background="new 0 0 52 53" xml:space="preserve">
<g>
	<g>
		<path fill="#414042" d="M29.93,22.195H14.1c-1.139,0-2.064-0.939-2.064-2.098v-2.744c0-1.156,0.926-2.097,2.064-2.097h15.83
			c1.139,0,2.063,0.94,2.063,2.097v2.744C31.994,21.254,31.068,22.195,29.93,22.195z M14.058,17.132
			c-0.027,0-0.064,0.04-0.064,0.104v2.979c0,0.063,0.037,0.104,0.064,0.104h15.915c0.025,0,0.062-0.041,0.062-0.104v-2.979
			c0-0.063-0.037-0.104-0.062-0.104H14.058z"/>
	</g>
	<g>
		<path fill="#414042" d="M29.93,30.195H14.1c-1.139,0-2.064-0.939-2.064-2.098v-2.744c0-1.156,0.926-2.098,2.064-2.098h15.83
			c1.139,0,2.063,0.94,2.063,2.098v2.744C31.994,29.254,31.068,30.195,29.93,30.195z M13.995,25.112
			c-0.027,0-0.065,0.039-0.065,0.104v3.015c0,0.065,0.038,0.106,0.065,0.106h16.041c0.026,0,0.063-0.041,0.063-0.106v-3.015
			c0-0.065-0.037-0.104-0.063-0.104H13.995z"/>
	</g>
	<g>
		<path fill="#414042" d="M29.93,38.195H14.1c-1.139,0-2.064-0.939-2.064-2.098v-2.744c0-1.156,0.926-2.098,2.064-2.098h15.83
			c1.139,0,2.063,0.94,2.063,2.098v2.744C31.994,37.254,31.068,38.195,29.93,38.195z M13.975,33.234
			c-0.027,0-0.065,0.039-0.065,0.104v2.904c0,0.062,0.038,0.104,0.065,0.104h16.08c0.026,0,0.064-0.039,0.064-0.104v-2.904
			c0-0.062-0.038-0.104-0.064-0.104L13.975,33.234L13.975,33.234z"/>
	</g>
</g>
</svg>
