<?xml version="1.0" encoding="utf-8"?>
<!-- Generator: Adobe Illustrator 15.0.0, SVG Export Plug-In . SVG Version: 6.00 Build 0)  -->
<!DOCTYPE svg PUBLIC "-//W3C//DTD SVG 1.0//EN" "http://www.w3.org/TR/2001/REC-SVG-20010904/DTD/svg10.dtd">
<svg version="1.0" id="Layer_1" xmlns="http://www.w3.org/2000/svg" xmlns:xlink="http://www.w3.org/1999/xlink" x="0px" y="0px"
	 width="52px" height="53px" viewBox="0 0 52 53" enable-background="new 0 0 52 53" xml:space="preserve">
<g>
	<g>
		<g>
			<path fill="#434343" d="M30.936,35.5C24.63,35.5,19.5,30.389,19.5,24.107c0-6.279,5.13-11.391,11.436-11.391
				c6.307,0,11.438,5.111,11.438,11.391C42.374,30.389,37.243,35.5,30.936,35.5z M30.936,14.492c-5.324,0-9.655,4.314-9.655,9.615
				c0,5.303,4.331,9.617,9.655,9.617c5.325,0,9.656-4.314,9.656-9.617C40.592,18.807,36.261,14.492,30.936,14.492z M30.962,29.521
				c-3.002,0-5.443-2.449-5.443-5.459s2.441-5.459,5.443-5.459c3,0,5.443,2.449,5.443,5.459S33.963,29.521,30.962,29.521z
				 M30.968,19.471c-2.552,0-4.629,2.082-4.629,4.643c0,2.559,2.077,4.641,4.629,4.641c2.552,0,4.629-2.082,4.629-4.641
				C35.597,21.553,33.52,19.471,30.968,19.471z"/>
		</g>
		<path fill="#434343" d="M30.931,26.486c-1.346,0-2.433-1.074-2.433-2.396c0-1.328,1.087-2.402,2.433-2.402
			c1.344,0,2.433,1.074,2.433,2.402C33.364,25.412,32.275,26.486,30.931,26.486z"/>
	</g>
	<g>
		<path fill="#414042" d="M34.949,20.561c-0.128,0-0.256-0.049-0.354-0.145c-0.195-0.191-0.195-0.5,0-0.691l2.999-2.936
			c0.195-0.191,0.512-0.191,0.707,0c0.195,0.191,0.195,0.5,0,0.691l-2.999,2.936C35.205,20.512,35.077,20.561,34.949,20.561z"/>
	</g>
	<g>
		<path fill="#414042" d="M23.947,31.562c-0.13,0-0.26-0.051-0.358-0.152c-0.192-0.197-0.188-0.514,0.01-0.707l3.042-2.957
			c0.198-0.193,0.515-0.188,0.707,0.01c0.192,0.198,0.188,0.514-0.01,0.707l-3.042,2.957C24.198,31.516,24.072,31.562,23.947,31.562
			z"/>
	</g>
</g>
</svg>
