<?xml version="1.0" encoding="utf-8"?>
<!-- Generator: Adobe Illustrator 15.0.0, SVG Export Plug-In . SVG Version: 6.00 Build 0)  -->
<!DOCTYPE svg PUBLIC "-//W3C//DTD SVG 1.0//EN" "http://www.w3.org/TR/2001/REC-SVG-20010904/DTD/svg10.dtd">
<svg version="1.0" id="Layer_1" xmlns="http://www.w3.org/2000/svg" xmlns:xlink="http://www.w3.org/1999/xlink" x="0px" y="0px"
	 width="52px" height="53px" viewBox="0 0 52 53" enable-background="new 0 0 52 53" xml:space="preserve">
<g>
	<path fill="#434343" d="M28.49,22.391h-0.006c-1.188,0-2.299,0.461-3.133,1.297c-0.832,0.834-1.291,1.941-1.289,3.121
		c0.004,2.438,1.994,4.424,4.438,4.428c1.188,0,2.299-0.461,3.137-1.299c0.834-0.834,1.289-1.941,1.287-3.121
		C32.922,24.379,30.934,22.395,28.49,22.391z M28.947,24.041c-0.871-0.111-1.764,0.152-2.418,0.807
		c-0.66,0.66-0.922,1.562-0.805,2.439c0.068,0.514-0.334,0.436-0.484,0.014c-0.383-1.059-0.168-2.266,0.654-3.088
		c0.826-0.826,2.041-1.039,3.104-0.646C29.416,23.717,29.471,24.109,28.947,24.041z"/>
	<path fill="#434343" d="M39.295,22.898c-0.73-1.318-1.703-1.996-3.031-2.658l-0.428-0.213c-0.914-0.451-1.775-0.877-2.533-1.412
		c-0.52-0.373-0.625-0.643-0.877-1.291l-0.137-0.348c-0.947-2.348-4.594-3.443-6.811-3.605c-0.504-0.037-1.004-0.01-1.502,0.023
		c-0.283,0.02-0.566,0.037-0.918,0.037h-0.002c-2.674,0-4.352,0.996-4.99,2.963c-0.172,0.533-0.084,1.045-0.02,1.414
		c0.018,0.1,0.035,0.197,0.045,0.295c0.051,0.479,0.066,0.959,0.053,1.426c-0.012,0.242-0.025,0.484-0.053,0.732
		c-0.098,0.939-0.23,2.012-0.617,2.836c-0.111,0.238-0.246,0.453-0.379,0.666c-0.271,0.439-0.574,0.938-0.736,1.582
		c-0.684,2.699-0.373,5.021,0.889,6.717c0.924,1.242,2.535,2.096,4.205,2.223c0.727,0.055,1.459,0.479,2.236,0.932
		c0.432,0.25,0.879,0.51,1.342,0.711c1.252,0.549,2.412,0.914,3.658,1.148c0.646,0.121,1.262,0.184,1.834,0.184
		c1.951,0,3.488-0.699,4.564-2.078c0.705-0.898,1.02-1.916,1.295-2.812l0.098-0.312c0.301-0.955,0.906-1.854,1.578-2.348
		c1.084-0.793,1.738-1.947,1.896-3.344C40.098,25.092,39.883,23.957,39.295,22.898z M37.969,26.166
		c-0.096,0.848-0.451,1.488-1.092,1.955c-1.016,0.744-1.877,2.004-2.305,3.367l-0.1,0.324c-0.248,0.805-0.482,1.562-0.959,2.174
		c-0.924,1.182-2.385,1.553-4.455,1.166c-1.092-0.207-2.113-0.531-3.227-1.02c-0.357-0.158-0.738-0.379-1.143-0.609
		c-0.893-0.521-1.904-1.107-3.09-1.197c-1.09-0.082-2.17-0.645-2.75-1.424c-0.904-1.219-1.092-2.916-0.555-5.051
		c0.088-0.35,0.279-0.66,0.502-1.021c0.17-0.275,0.34-0.557,0.484-0.867c0.521-1.109,0.684-2.383,0.797-3.48
		c0.031-0.287,0.049-0.576,0.061-0.869c0.021-0.562-0.002-1.139-0.061-1.703c-0.014-0.143-0.037-0.289-0.064-0.438
		c-0.023-0.145-0.064-0.389-0.047-0.459c0.238-0.734,0.805-1.582,3.15-1.582l0,0c0.33,0,0.66-0.02,0.988-0.043
		c0.402-0.025,0.803-0.055,1.219-0.023c2.025,0.148,4.619,1.158,5.107,2.369l0.125,0.318c0.295,0.762,0.572,1.479,1.584,2.199
		c0.887,0.629,1.859,1.111,2.803,1.578l0.422,0.211c1.061,0.529,1.688,0.959,2.176,1.842C37.93,24.578,38.064,25.305,37.969,26.166z
		"/>
</g>
</svg>
