<?xml version="1.0" encoding="utf-8"?>
<!-- Generator: Adobe Illustrator 15.0.0, SVG Export Plug-In . SVG Version: 6.00 Build 0)  -->
<!DOCTYPE svg PUBLIC "-//W3C//DTD SVG 1.0//EN" "http://www.w3.org/TR/2001/REC-SVG-20010904/DTD/svg10.dtd">
<svg version="1.0" id="Layer_1" xmlns="http://www.w3.org/2000/svg" xmlns:xlink="http://www.w3.org/1999/xlink" x="0px" y="0px"
	 width="52px" height="53px" viewBox="0 0 52 53" enable-background="new 0 0 52 53" xml:space="preserve">
<g>
	<g>
		<path fill="#414042" d="M14.115,25.383h13.812c2.205,0,4,1.797,4,4.008v-0.143c0,2.211-1.795,4.01-4,4.01H14.115
			c-2.206,0-4-1.799-4-4.01v0.143C10.115,27.18,11.909,25.383,14.115,25.383z M28.077,31.383c1.124,0,2.038-0.916,2.038-2.041
			v-0.107c0-1.125-0.914-2.037-2.038-2.037H13.965c-1.122,0-2.037,0.912-2.037,2.037v0.107c0,1.125,0.915,2.041,2.037,2.041H28.077z
			"/>
	</g>
	<g>
		<path fill="#414042" d="M31.958,19.816c0,1.973-1.194,3.244-3.044,3.244H13.057c-1.855,0-3.055-1.268-3.055-3.229
			c0-1.273,0.529-2.613,1.348-3.412l6.364-5.723c0.891-0.873,2.044-1.342,3.271-1.342s2.382,0.469,3.249,1.316l6.409,5.77
			C31.434,17.211,31.958,18.545,31.958,19.816z M12.001,20.072c0,1.301,0.766,1.301,1.055,1.301h15.857c0.286,0,1.044,0,1.044-1.316
			c0-0.771-0.309-1.617-0.751-2.061l-6.409-5.902c-0.468-0.467-1.119-0.738-1.812-0.738c-0.693,0-1.345,0.271-1.835,0.764
			l-6.364,5.854C12.315,18.445,12.001,19.299,12.001,20.072z"/>
	</g>
</g>
</svg>
