<?xml version="1.0" encoding="utf-8"?>
<!-- Generator: Adobe Illustrator 15.0.0, SVG Export Plug-In . SVG Version: 6.00 Build 0)  -->
<!DOCTYPE svg PUBLIC "-//W3C//DTD SVG 1.0//EN" "http://www.w3.org/TR/2001/REC-SVG-20010904/DTD/svg10.dtd">
<svg version="1.0" id="Layer_1" xmlns="http://www.w3.org/2000/svg" xmlns:xlink="http://www.w3.org/1999/xlink" x="0px" y="0px"
	 width="52px" height="53px" viewBox="0 0 52 53" enable-background="new 0 0 52 53" xml:space="preserve">
<g>
	<g>
		<path fill="#414042" d="M36.021,40.217h-10.92c-1.643,0-2.979-1.35-2.979-3.006V19.285c0-1.658,1.336-3.006,2.979-3.006h10.92
			c1.643,0,2.979,1.348,2.979,3.006v17.926C39,38.867,37.664,40.217,36.021,40.217z M25,18.092c-0.559,0-1.012,0.459-1.012,1.025
			v18.262c0,0.566,0.453,1.025,1.012,1.025h11.125c0.559,0,1.012-0.459,1.012-1.025V19.117c0-0.566-0.453-1.025-1.012-1.025H25z"/>
	</g>
	<circle fill="#414042" cx="34.5" cy="28.842" r="1.438"/>
</g>
</svg>
