<?xml version="1.0" encoding="utf-8"?>
<!-- Generator: Adobe Illustrator 15.0.0, SVG Export Plug-In . SVG Version: 6.00 Build 0)  -->
<!DOCTYPE svg PUBLIC "-//W3C//DTD SVG 1.0//EN" "http://www.w3.org/TR/2001/REC-SVG-20010904/DTD/svg10.dtd">
<svg version="1.0" id="Layer_1" xmlns="http://www.w3.org/2000/svg" xmlns:xlink="http://www.w3.org/1999/xlink" x="0px" y="0px"
	 width="52px" height="53px" viewBox="0 0 52 53" enable-background="new 0 0 52 53" xml:space="preserve">
<g>
	<path fill="#414042" d="M38.111,22.255l-7.825-7.365c-0.815-0.818-2.179-1.347-3.476-1.347c-1.81,0-3.027,0.988-3.244,2.552
		l-1.28-1.205c-0.815-0.818-2.179-1.347-3.476-1.347c-1.998,0-3.289,1.198-3.289,3.054v17.857c0,1.85,1.297,3.045,3.304,3.045
		c1.295,0,2.651-0.525,3.438-1.314l1.305-1.229c0.218,1.557,1.441,2.543,3.258,2.543c1.295,0,2.652-0.525,3.438-1.314l7.872-7.409
		c0.865-0.868,1.343-2.021,1.343-3.249S39,23.145,38.111,22.255z M20.836,34.748c-0.441,0.443-1.289,0.752-2.061,0.752
		c-1.315,0-1.315-0.759-1.315-1.045V16.598c0-0.288,0-1.054,1.302-1.054c0.772,0,1.627,0.312,2.098,0.783l7.856,7.365
		c0.49,0.49,0.761,1.142,0.761,1.835c0,0.692-0.271,1.344-0.736,1.812L20.836,34.748z M36.738,27.338l-7.902,7.409
		c-0.441,0.443-1.289,0.752-2.061,0.752c-1.315,0-1.315-0.759-1.315-1.045v-1.279l4.675-4.399c0.865-0.868,1.342-2.021,1.342-3.249
		S31,23.145,30.113,22.256l-4.652-4.378v-1.28c0-0.288,0-1.054,1.301-1.054c0.773,0,1.627,0.312,2.1,0.783l7.855,7.365
		c0.49,0.49,0.762,1.142,0.762,1.835C37.477,26.219,37.206,26.871,36.738,27.338z"/>
</g>
</svg>
