<?xml version="1.0" encoding="utf-8"?>
<!-- Generator: Adobe Illustrator 15.0.0, SVG Export Plug-In . SVG Version: 6.00 Build 0)  -->
<!DOCTYPE svg PUBLIC "-//W3C//DTD SVG 1.0//EN" "http://www.w3.org/TR/2001/REC-SVG-20010904/DTD/svg10.dtd">
<svg version="1.0" id="Layer_1" xmlns="http://www.w3.org/2000/svg" xmlns:xlink="http://www.w3.org/1999/xlink" x="0px" y="0px"
	 width="52px" height="53px" viewBox="0 0 52 53" enable-background="new 0 0 52 53" xml:space="preserve">
<g>
	<g>
		<g>
			<path fill="#414042" d="M25.495,39.5c-0.705,0-1.392-0.244-1.931-0.688c-0.621-0.511-0.998-1.226-1.061-2.015
				c-0.062-0.785,0.194-1.545,0.721-2.141c0.039-0.042,3.518-3.937,4.479-5.062c0.653-0.764,0.657-1.176,0.019-1.921
				c-0.953-1.107-4.521-5.239-4.521-5.239c-0.52-0.602-0.766-1.362-0.693-2.146c0.072-0.789,0.457-1.499,1.083-2.002
				c1.224-0.98,3.183-0.803,4.2,0.377l7,8.11c0.955,1.105,0.943,2.703-0.023,3.8l-7,7.91C27.195,39.131,26.368,39.5,25.495,39.5z
				 M24.715,21.131c0,0,3.57,4.133,4.523,5.242c1.283,1.492,1.277,3.016-0.016,4.525c-0.977,1.141-4.359,4.929-4.502,5.09
				c-0.162,0.182-0.242,0.414-0.223,0.651c0.02,0.242,0.139,0.466,0.334,0.626c0.411,0.335,1.091,0.284,1.436-0.105l7-7.91
				c0.299-0.336,0.303-0.827,0.01-1.167l-7-8.11c-0.342-0.395-1.021-0.455-1.436-0.123c-0.199,0.16-0.32,0.382-0.343,0.624
				C24.479,20.711,24.555,20.944,24.715,21.131z"/>
		</g>
	</g>
	<g>
		<g>
			<path fill="#414042" d="M14.495,39.5c-0.704,0-1.392-0.244-1.931-0.688c-0.621-0.512-0.996-1.227-1.061-2.015
				c-0.062-0.785,0.194-1.545,0.721-2.14l0,0c0,0,3.569-4.059,4.524-5.112c0.612-0.676,0.612-1.122,0.001-1.837
				c-0.941-1.101-4.549-5.271-4.549-5.271c-0.52-0.603-0.766-1.363-0.694-2.146c0.073-0.789,0.458-1.499,1.084-2.002
				c1.22-0.98,3.183-0.803,4.199,0.377l7,8.11c0.955,1.105,0.944,2.704-0.024,3.8l-6.998,7.91
				C16.197,39.131,15.369,39.5,14.495,39.5z M13.716,21.131c0,0,3.612,4.176,4.556,5.279c1.276,1.492,1.264,3.042-0.039,4.479
				c-0.95,1.051-4.506,5.094-4.506,5.094c-0.166,0.187-0.246,0.42-0.228,0.657c0.021,0.242,0.138,0.466,0.335,0.626
				c0.409,0.335,1.091,0.284,1.436-0.105l7-7.91c0.297-0.336,0.301-0.827,0.008-1.167l-7-8.11c-0.19-0.222-0.477-0.35-0.781-0.35
				c-0.169,0-0.419,0.04-0.65,0.227c-0.201,0.16-0.322,0.382-0.345,0.624C13.479,20.711,13.555,20.944,13.716,21.131L13.716,21.131z
				"/>
		</g>
	</g>
</g>
</svg>
