<?xml version="1.0" encoding="utf-8"?>
<!-- Generator: Adobe Illustrator 15.0.0, SVG Export Plug-In . SVG Version: 6.00 Build 0)  -->
<!DOCTYPE svg PUBLIC "-//W3C//DTD SVG 1.0//EN" "http://www.w3.org/TR/2001/REC-SVG-20010904/DTD/svg10.dtd">
<svg version="1.0" id="Layer_1" xmlns="http://www.w3.org/2000/svg" xmlns:xlink="http://www.w3.org/1999/xlink" x="0px" y="0px"
	 width="52px" height="53px" viewBox="0 0 52 53" enable-background="new 0 0 52 53" xml:space="preserve">
<g>
	<path fill="#434343" d="M23.025,33.258L23.025,33.258c-1.679,0-3.342-0.322-4.941-0.957c-2.789-1.229-4.532-2.9-5.217-4.98
		c-1.03-3.127,0.665-6.143,1.303-7.275c0.07-0.123,0.124-0.217,0.152-0.277c0.146-0.43,0.561-0.674,1.006-0.645
		c0.45,0.037,0.808,0.4,0.882,0.852c0.303,1.84,0.959,3.062,1.889,3.562c-0.408-1.473-0.402-2.967-0.398-3.195
		c0-5.355,4.572-10.537,4.767-10.754c0.279-0.312,0.721-0.414,1.107-0.256c0.385,0.16,0.63,0.545,0.612,0.965
		c-0.215,4.996,1.556,7.578,2.976,8.973c0.639-2.244,2.978-3.611,3.11-3.688c0.36-0.207,0.816-0.162,1.133,0.113
		c0.314,0.275,0.424,0.725,0.271,1.117c-1.028,2.637,0.796,5.023,0.874,5.127c0.977,1.27,1.189,3.264,0.559,5.199
		c-0.854,2.627-3.043,4.619-6.004,5.469l-0.142,0.043C26.427,32.814,24.998,33.258,23.025,33.258z M15.005,22.855
		c-0.418,1.109-0.706,2.502-0.266,3.838c0.5,1.521,1.881,2.789,4.101,3.77c1.333,0.527,2.753,0.805,4.184,0.805l0,0
		c1.677,0,2.899-0.381,3.359-0.521l0.207-0.062c2.297-0.656,3.999-2.178,4.646-4.166c0.416-1.275,0.318-2.625-0.24-3.354
		c-0.632-0.812-1.423-2.332-1.573-4.109c-0.37,0.598-0.577,1.311-0.321,2.086c0.155,0.473-0.056,0.986-0.496,1.207
		c-0.439,0.221-0.973,0.082-1.252-0.324c-0.028-0.021-0.151-0.111-0.305-0.23c-1.212-0.961-4.149-3.289-4.747-8.682
		c-1.202,1.834-2.628,4.57-2.628,7.248c-0.01,0.719,0.12,2.775,0.825,3.812c0.183,0.271,0.224,0.611,0.109,0.918
		c-0.115,0.305-0.371,0.533-0.684,0.611c-0.055,0.016-0.353,0.084-0.787,0.084C18.191,25.783,16.199,25.449,15.005,22.855z"/>
</g>
</svg>
