<?xml version="1.0" encoding="utf-8"?>
<!-- Generator: Adobe Illustrator 15.0.0, SVG Export Plug-In . SVG Version: 6.00 Build 0)  -->
<!DOCTYPE svg PUBLIC "-//W3C//DTD SVG 1.1//EN" "http://www.w3.org/Graphics/SVG/1.1/DTD/svg11.dtd">
<svg version="1.1" id="Layer_1" xmlns="http://www.w3.org/2000/svg" xmlns:xlink="http://www.w3.org/1999/xlink" x="0px" y="0px"
	 width="52px" height="53px" viewBox="0 0 52 53" enable-background="new 0 0 52 53" xml:space="preserve">
<g>
	<path fill="#434343" d="M25.446,38.979c-2.776,0-5.002-1.377-5.353-3.219c-0.348,0.127-0.72,0.188-1.113,0.188
		c-1.653,0-3.431-1.151-4.53-2.936c-0.882-1.433-1.185-3.009-0.832-4.327c0.185-0.688,0.55-1.271,1.05-1.688
		c-0.499-0.416-0.863-0.998-1.047-1.687c-0.353-1.319-0.05-2.898,0.831-4.329c1.097-1.782,2.875-2.937,4.53-2.937
		c0.392,0,0.764,0.063,1.111,0.189c0.35-1.842,2.576-3.22,5.353-3.22c2.778,0,5.005,1.38,5.353,3.223
		c0.348-0.127,0.721-0.19,1.113-0.19c1.653,0,3.432,1.152,4.53,2.937c0.881,1.433,1.185,3.012,0.831,4.331
		c-0.184,0.687-0.547,1.269-1.045,1.683c0.499,0.416,0.863,0.998,1.047,1.688c0.354,1.32,0.049,2.898-0.833,4.328
		c-1.096,1.781-2.874,2.934-4.526,2.934l0,0c-0.396,0-0.769-0.064-1.117-0.191C30.451,37.6,28.225,38.979,25.446,38.979z
		 M21.211,32.879c0.179,0,0.358,0.049,0.519,0.146c0.351,0.212,0.536,0.617,0.467,1.021c-0.11,0.652-0.149,1.051-0.149,1.201
		c0,0.816,1.455,1.729,3.4,1.729c1.946,0,3.399-0.913,3.399-1.729c0-0.153-0.04-0.554-0.15-1.205
		c-0.069-0.403,0.117-0.811,0.468-1.021c0.351-0.214,0.795-0.188,1.121,0.06c0.707,0.534,0.988,0.696,1.059,0.733
		c0.892,0.481,2.515-0.414,3.396-1.851c0.578-0.937,0.81-1.993,0.604-2.764c-0.098-0.365-0.283-0.625-0.549-0.77
		c-0.07-0.039-0.361-0.186-1.211-0.492c-0.396-0.145-0.66-0.52-0.66-0.939c0-0.422,0.264-0.799,0.66-0.939
		c0.672-0.242,1.063-0.412,1.207-0.49c0.269-0.146,0.453-0.402,0.551-0.77c0.207-0.77-0.023-1.826-0.602-2.765
		c-0.72-1.168-1.882-1.984-2.826-1.984c-0.216,0-0.406,0.046-0.568,0.134c-0.148,0.08-0.506,0.317-1.059,0.735
		c-0.328,0.248-0.771,0.271-1.123,0.059c-0.351-0.213-0.535-0.618-0.467-1.021c0.11-0.654,0.15-1.053,0.15-1.207
		c0-0.815-1.454-1.729-3.399-1.729c-1.946,0-3.401,0.914-3.401,1.729c0,0.152,0.041,0.549,0.15,1.203
		c0.069,0.404-0.117,0.81-0.467,1.021c-0.35,0.214-0.794,0.189-1.122-0.057c-0.703-0.531-0.987-0.699-1.06-0.737
		c-0.158-0.087-0.351-0.132-0.564-0.132c-0.946,0-2.108,0.815-2.827,1.984c-0.577,0.938-0.807,1.995-0.602,2.764
		c0.098,0.367,0.283,0.627,0.549,0.771c0.147,0.079,0.544,0.251,1.213,0.492c0.397,0.143,0.662,0.52,0.661,0.941
		c-0.001,0.42-0.265,0.797-0.663,0.938c-0.672,0.241-1.065,0.411-1.208,0.489c-0.271,0.146-0.457,0.404-0.555,0.771
		c-0.205,0.769,0.026,1.824,0.603,2.762c0.72,1.168,1.883,1.983,2.827,1.983c0.215,0,0.406-0.045,0.568-0.133
		c0.072-0.038,0.353-0.201,1.058-0.733C20.785,32.949,20.998,32.879,21.211,32.879z M25.446,31.947c-2.728,0-4.946-2.22-4.946-4.947
		c0-2.727,2.219-4.945,4.946-4.945s4.947,2.22,4.947,4.945C30.394,29.728,28.174,31.947,25.446,31.947z M25.446,24.053
		c-1.625,0-2.946,1.322-2.946,2.947s1.321,2.945,2.946,2.945s2.947-1.32,2.947-2.945S27.071,24.053,25.446,24.053z"/>
</g>
</svg>
