<?xml version="1.0" encoding="utf-8"?>
<!-- Generator: Adobe Illustrator 15.0.0, SVG Export Plug-In . SVG Version: 6.00 Build 0)  -->
<!DOCTYPE svg PUBLIC "-//W3C//DTD SVG 1.0//EN" "http://www.w3.org/TR/2001/REC-SVG-20010904/DTD/svg10.dtd">
<svg version="1.0" id="Layer_1" xmlns="http://www.w3.org/2000/svg" xmlns:xlink="http://www.w3.org/1999/xlink" x="0px" y="0px"
	 width="52px" height="53px" viewBox="0 0 52 53" enable-background="new 0 0 52 53" xml:space="preserve">
<g>
	<path fill="#434343" d="M31.402,34.258c-1.381,0-2.672-0.707-3.367-1.847c-0.174-0.282-0.318-0.728-0.662-1.795
		c-0.115-0.356-0.246-0.767-0.393-1.207c-0.146,0.438-0.277,0.845-0.393,1.201c-0.344,1.071-0.49,1.519-0.664,1.801
		c-0.696,1.14-1.987,1.847-3.369,1.847c-0.674,0-1.341-0.17-1.928-0.49c-0.923-0.504-1.577-1.32-1.843-2.303
		c-0.259-0.957-0.115-1.955,0.408-2.812c0.172-0.28,0.506-0.621,1.312-1.435c0.216-0.217,0.455-0.458,0.711-0.719
		c-0.236,0.055-0.458,0.104-0.664,0.151c-1.079,0.25-1.53,0.354-1.855,0.354c-2.05,0-3.717-1.646-3.717-3.67
		c0-2.024,1.667-3.67,3.717-3.67c0.324,0,0.774,0.102,1.851,0.35c0.229,0.054,0.477,0.109,0.742,0.17
		c-0.28-0.286-0.542-0.551-0.777-0.786c-0.81-0.816-1.146-1.158-1.318-1.441c-0.522-0.852-0.667-1.85-0.408-2.809
		c0.265-0.982,0.919-1.8,1.842-2.304c0.588-0.319,1.255-0.489,1.929-0.489c1.381,0,2.672,0.707,3.369,1.844
		c0.175,0.285,0.321,0.729,0.664,1.801c0.114,0.355,0.244,0.76,0.391,1.199c0.146-0.437,0.273-0.838,0.388-1.191
		c0.347-1.076,0.493-1.525,0.669-1.809c0.693-1.137,1.984-1.844,3.365-1.844c0.675,0,1.343,0.17,1.932,0.489
		c0.92,0.5,1.573,1.315,1.841,2.297c0.261,0.959,0.115,1.959-0.407,2.816c-0.174,0.28-0.508,0.62-1.312,1.434
		c-0.236,0.238-0.499,0.505-0.781,0.793c0.264-0.061,0.512-0.116,0.739-0.17c1.077-0.248,1.526-0.35,1.853-0.35
		c2.049,0,3.717,1.646,3.717,3.67c0,2.024-1.668,3.67-3.717,3.67c-0.324,0-0.775-0.104-1.854-0.354
		c-0.206-0.047-0.429-0.098-0.664-0.151c0.252,0.258,0.487,0.496,0.701,0.711c0.812,0.816,1.147,1.162,1.321,1.443
		c0.521,0.854,0.666,1.854,0.405,2.812c-0.267,0.979-0.92,1.797-1.841,2.299C32.744,34.088,32.077,34.258,31.402,34.258z
		 M26.979,25.417c0.418,0,0.793,0.254,0.944,0.639c0.601,1.532,1.052,2.934,1.38,3.958c0.187,0.576,0.396,1.229,0.475,1.381
		c0.482,0.787,1.699,1.104,2.576,0.623c0.435-0.236,0.74-0.615,0.862-1.066c0.116-0.428,0.052-0.877-0.187-1.262
		c-0.092-0.131-0.592-0.633-1.031-1.078c-0.766-0.77-1.812-1.826-2.9-3.061c-0.281-0.32-0.328-0.781-0.117-1.148
		c0.211-0.369,0.633-0.565,1.059-0.494c1.508,0.265,2.852,0.572,3.831,0.8c0.582,0.135,1.243,0.286,1.409,0.299
		c0.916,0,1.675-0.75,1.675-1.67s-0.759-1.67-1.69-1.67c-0.149,0.01-0.811,0.162-1.392,0.297c-0.996,0.229-2.36,0.545-3.896,0.81
		c-0.424,0.071-0.845-0.125-1.056-0.492c-0.212-0.369-0.165-0.828,0.116-1.148c1.113-1.27,2.186-2.35,2.968-3.137
		c0.438-0.443,0.937-0.943,1.035-1.084c0.228-0.371,0.292-0.82,0.175-1.25c-0.121-0.449-0.428-0.828-0.861-1.062
		c-0.877-0.479-2.09-0.172-2.586,0.637c-0.072,0.14-0.283,0.797-0.471,1.377c-0.326,1.021-0.775,2.42-1.374,3.943
		c-0.151,0.387-0.526,0.641-0.944,0.641s-0.792-0.254-0.943-0.641c-0.599-1.527-1.049-2.928-1.376-3.951
		c-0.186-0.578-0.396-1.231-0.475-1.385c-0.48-0.785-1.698-1.102-2.577-0.623c-0.435,0.238-0.742,0.617-0.864,1.068
		c-0.116,0.428-0.049,0.875,0.186,1.26c0.091,0.129,0.59,0.631,1.03,1.074c0.782,0.789,1.852,1.867,2.963,3.133
		c0.281,0.32,0.328,0.779,0.117,1.148c-0.212,0.367-0.636,0.562-1.056,0.492c-1.536-0.265-2.9-0.578-3.897-0.81
		c-0.582-0.136-1.241-0.287-1.408-0.297c-0.915,0-1.673,0.75-1.673,1.67s0.758,1.67,1.691,1.67c0.15-0.013,0.811-0.164,1.394-0.299
		c0.98-0.228,2.323-0.535,3.832-0.8c0.422-0.073,0.846,0.123,1.058,0.494c0.211,0.367,0.164,0.828-0.118,1.148
		c-1.093,1.24-2.144,2.299-2.911,3.07c-0.438,0.441-0.934,0.941-1.033,1.082c-0.226,0.369-0.292,0.818-0.176,1.246
		c0.123,0.451,0.43,0.83,0.866,1.067c0.872,0.478,2.089,0.171,2.583-0.639c0.07-0.139,0.281-0.793,0.468-1.371
		c0.328-1.022,0.778-2.424,1.377-3.952C26.186,25.671,26.562,25.417,26.979,25.417L26.979,25.417z"/>
</g>
</svg>
