<?xml version="1.0" encoding="utf-8"?>
<!-- Generator: Adobe Illustrator 15.0.0, SVG Export Plug-In . SVG Version: 6.00 Build 0)  -->
<!DOCTYPE svg PUBLIC "-//W3C//DTD SVG 1.0//EN" "http://www.w3.org/TR/2001/REC-SVG-20010904/DTD/svg10.dtd">
<svg version="1.0" id="Layer_1" xmlns="http://www.w3.org/2000/svg" xmlns:xlink="http://www.w3.org/1999/xlink" x="0px" y="0px"
	 width="52px" height="53px" viewBox="0 0 52 53" enable-background="new 0 0 52 53" xml:space="preserve">
<g>
	<path fill="#424143" d="M38.178,18.543c0-1.706-1.31-3.043-2.979-3.043H17.221c-1.672,0-2.979,1.337-2.979,3.043
		c0,1.23,0.731,2.938,1.901,3.633l2.131,11.426c0.056,1.607,1.392,2.898,3.023,2.898h8.824c1.57,0,3.928-1.148,4.021-2.892
		l2.145-11.43C37.463,21.493,38.178,19.803,38.178,18.543z M17.221,17.469h17.978c0.567,0,0.979,0.445,0.979,1.058
		c0,0.921-0.695,1.975-0.979,1.975H17.221c-0.283-0.012-0.979-1.072-0.979-1.975C16.24,17.924,16.662,17.469,17.221,17.469z
		 M32.164,33.316l-0.018,0.18c-0.049,0.324-1.201,1.004-2.025,1.004h-8.824c-0.564,0-1.025-0.449-1.025-1l-2.051-11h15.971
		L32.164,33.316z"/>
</g>
</svg>
