<?xml version="1.0" encoding="utf-8"?>
<!-- Generator: Adobe Illustrator 15.0.0, SVG Export Plug-In . SVG Version: 6.00 Build 0)  -->
<!DOCTYPE svg PUBLIC "-//W3C//DTD SVG 1.0//EN" "http://www.w3.org/TR/2001/REC-SVG-20010904/DTD/svg10.dtd">
<svg version="1.0" id="Layer_1" xmlns="http://www.w3.org/2000/svg" xmlns:xlink="http://www.w3.org/1999/xlink" x="0px" y="0px"
	 width="52px" height="53px" viewBox="0 0 52 53" enable-background="new 0 0 52 53" xml:space="preserve">
<g>
	<g>
		<g>
			<path fill="#414042" d="M34.951,33.232H17.017c-1.664,0-3.017-1.346-3.017-2.996V17.254c0-1.648,1.353-2.994,3.017-2.994h5.993
				c0.378,0,0.725,0.213,0.895,0.553l1.72,3.479h9.328c1.664,0,3.019,1.303,3.019,2.953v8.992
				C37.969,31.887,36.615,33.232,34.951,33.232z M17.021,16.258c-0.563,0-1.021,0.449-1.021,1.002v13.016
				c0,0.555,0.458,1.004,1.021,1.004h17.958c0.563,0,1.021-0.449,1.021-1.004V21.26c0-0.553-0.458-1.002-1.021-1.002h-9.957
				c-0.379,0-0.727-0.215-0.896-0.553l-1.723-3.447H17.021z"/>
		</g>
		<g>
			<path fill="#414042" d="M35,17.227h-7.984c-0.553,0-1-0.438-1-0.977s0.447-0.977,1-0.977H35c0.553,0,1,0.438,1,0.977
				S35.553,17.227,35,17.227z"/>
		</g>
	</g>
	<g>
		<rect x="23.021" y="25.289" fill="#414042" width="5.979" height="1.928"/>
	</g>
	<g>
		<rect x="25.047" y="23.264" fill="#414042" width="1.928" height="5.979"/>
	</g>
</g>
</svg>
