<?xml version="1.0" encoding="utf-8"?>
<!-- Generator: Adobe Illustrator 15.0.0, SVG Export Plug-In . SVG Version: 6.00 Build 0)  -->
<!DOCTYPE svg PUBLIC "-//W3C//DTD SVG 1.1//EN" "http://www.w3.org/Graphics/SVG/1.1/DTD/svg11.dtd">
<svg version="1.1" id="Layer_1" xmlns="http://www.w3.org/2000/svg" xmlns:xlink="http://www.w3.org/1999/xlink" x="0px" y="0px"
	 width="52px" height="53px" viewBox="0 0 52 53" enable-background="new 0 0 52 53" xml:space="preserve">
<g>
	<g>
		<path fill="#424143" d="M37.951,37.23H20.017c-1.664,0-3.017-1.344-3.017-2.996V21.252c0-1.65,1.353-2.994,3.017-2.994h5.993
			c0.378,0,0.725,0.213,0.895,0.551l1.72,3.48h9.328c1.664,0,3.019,1.303,3.019,2.953v8.992
			C40.969,35.887,39.615,37.23,37.951,37.23z M20.021,20.257c-0.563,0-1.021,0.449-1.021,1.002v13.016
			c0,0.553,0.458,1.002,1.021,1.002h17.958c0.563,0,1.021-0.449,1.021-1.002v-9.016c0-0.553-0.458-1.002-1.021-1.002h-9.957
			c-0.379,0-0.727-0.215-0.896-0.553l-1.723-3.447H20.021z"/>
	</g>
	<g>
		<path fill="#424143" d="M38,21.226h-7.984c-0.553,0-1-0.438-1-0.977s0.447-0.977,1-0.977H38c0.553,0,1,0.438,1,0.977
			S38.553,21.226,38,21.226z"/>
	</g>
</g>
</svg>
