<?xml version="1.0" encoding="utf-8"?>
<!-- Generator: Adobe Illustrator 15.0.0, SVG Export Plug-In . SVG Version: 6.00 Build 0)  -->
<!DOCTYPE svg PUBLIC "-//W3C//DTD SVG 1.1//EN" "http://www.w3.org/Graphics/SVG/1.1/DTD/svg11.dtd">
<svg version="1.1" id="Layer_1" xmlns="http://www.w3.org/2000/svg" xmlns:xlink="http://www.w3.org/1999/xlink" x="0px" y="0px"
	 width="52px" height="53px" viewBox="0 0 52 53" enable-background="new 0 0 52 53" xml:space="preserve">
<g>
	<g>
		<g>
			<path fill="#424143" d="M38.951,37.232H21.017c-1.664,0-3.018-1.346-3.018-2.996V21.254c0-1.648,1.354-2.994,3.018-2.994h5.992
				c0.38,0,0.726,0.213,0.894,0.553l1.721,3.479h9.328c1.664,0,3.018,1.303,3.018,2.953v8.992
				C41.969,35.887,40.615,37.232,38.951,37.232z M21.021,20.258c-0.563,0-1.021,0.449-1.021,1.002v13.016
				c0,0.555,0.458,1.004,1.021,1.004h17.958c0.562,0,1.021-0.449,1.021-1.004V25.26c0-0.553-0.458-1.002-1.021-1.002H29.02
				c-0.379,0-0.726-0.215-0.895-0.553l-1.723-3.447H21.021z"/>
		</g>
		<g>
			<path fill="#424143" d="M39,21.227h-7.984c-0.553,0-1-0.438-1-0.977s0.447-0.977,1-0.977H39c0.553,0,1,0.438,1,0.977
				S39.553,21.227,39,21.227z"/>
		</g>
	</g>
	<g>
		
			<rect x="27.905" y="28.347" transform="matrix(0.7071 -0.7071 0.7071 0.7071 -11.6223 30.5605)" fill="#424143" width="6.347" height="1.926"/>
	</g>
	<g>
		
			<rect x="27.801" y="28.137" transform="matrix(0.7071 -0.7071 0.7071 0.7071 -12.8723 29.156)" fill="#424143" width="1.914" height="3.959"/>
	</g>
</g>
</svg>
