<?xml version="1.0" encoding="utf-8"?>
<!-- Generator: Adobe Illustrator 15.0.0, SVG Export Plug-In . SVG Version: 6.00 Build 0)  -->
<!DOCTYPE svg PUBLIC "-//W3C//DTD SVG 1.0//EN" "http://www.w3.org/TR/2001/REC-SVG-20010904/DTD/svg10.dtd">
<svg version="1.0" id="Layer_1" xmlns="http://www.w3.org/2000/svg" xmlns:xlink="http://www.w3.org/1999/xlink" x="0px" y="0px"
	 width="52px" height="53px" viewBox="0 0 52 53" enable-background="new 0 0 52 53" xml:space="preserve">
<g>
	<path fill="#434343" d="M33.561,37.258h-9.178c-0.66,0-1.09-0.23-1.271-0.684c-0.28-0.689,0.279-1.242,0.58-1.538
		c1.494-1.481,2.136-2.894,2.396-3.969c-0.435,0.104-0.877,0.157-1.323,0.157c-3.029,0-5.727-2.401-5.727-5.354
		c0-7.232,8.962-12.341,9.318-12.481c0.365-0.146,0.793-0.147,1.168,0.002c0.36,0.146,9.441,5.342,9.441,12.44
		c0,2.973-2.833,5.393-5.883,5.393c-0.368,0-0.764-0.057-1.182-0.17c0.291,1.099,0.914,2.591,2.264,3.927l0.092,0.084
		c0.307,0.278,0.874,0.801,0.605,1.497C34.686,37.023,34.246,37.258,33.561,37.258z M25.645,35.346h6.633
		c-1.965-2.318-2.196-4.819-2.25-5.594c-0.021-0.3,0.121-0.586,0.369-0.754c0.25-0.166,0.567-0.186,0.834-0.052
		c0.718,0.364,1.264,0.463,1.75,0.463c2.062,0,4.093-1.61,4.093-3.589c0-5.641-7.462-10.286-8.138-10.566
		c-0.666,0.272-8.008,4.843-8.008,10.604c0,1.958,1.318,3.551,3.356,3.551c0.657,0,1.886-0.171,2.454-0.491
		c0.258-0.146,0.572-0.144,0.828,0.008c0.256,0.149,0.412,0.426,0.412,0.723C27.977,30.801,27.654,33.039,25.645,35.346z"/>
</g>
</svg>
