<?xml version="1.0" encoding="utf-8"?>
<!-- Generator: Adobe Illustrator 15.0.0, SVG Export Plug-In . SVG Version: 6.00 Build 0)  -->
<!DOCTYPE svg PUBLIC "-//W3C//DTD SVG 1.1//EN" "http://www.w3.org/Graphics/SVG/1.1/DTD/svg11.dtd">
<svg version="1.1" id="Layer_1" xmlns="http://www.w3.org/2000/svg" xmlns:xlink="http://www.w3.org/1999/xlink" x="0px" y="0px"
	 width="52px" height="53px" viewBox="0 0 52 53" enable-background="new 0 0 52 53" xml:space="preserve">
<g>
	<path fill="#444444" d="M33.702,33.094H19.527c-1.85,0-3.354-1.453-3.354-3.24v-4.379c0-0.541,0.44-0.982,0.988-0.99
		c1.341-0.016,2.432-1.004,2.432-2.203s-1.091-2.188-2.432-2.207c-0.541-0.006-0.978-0.438-0.988-0.969l-0.048-2.543
		c0-1.807,1.505-3.262,3.354-3.262h2.735c0.445-1.976,2.212-3.918,4.403-3.918c2.186,0,3.893,1.918,4.314,3.918h2.719
		c1.851,0,3.354,1.455,3.354,3.242l0.009,1.893C38.768,18.99,40,20.576,40,22.418c0,1.828-1.223,3.405-2.957,3.973l0.014,3.459
		C37.057,31.641,35.552,33.094,33.702,33.094z M17.863,26.53v3.589c0,0.711,0.621,1.291,1.387,1.291h14.516
		c0.764,0,1.387-0.58,1.387-1.291l-0.016-4.354c-0.003-0.516,0.389-0.952,0.907-1.01c1.21-0.137,2.124-1.104,2.124-2.25
		c0-1.153-0.919-2.125-2.139-2.254c-0.518-0.057-0.911-0.488-0.913-1.002l-0.013-2.752c0-0.719-0.623-1.299-1.387-1.299h-3.711
		c-0.294,0-0.572-0.125-0.768-0.342c-0.194-0.219-0.284-0.51-0.248-0.799c-0.002-1.223-1.168-2.871-2.477-2.871
		c-1.308,0-2.541,1.619-2.57,2.9c0.02,0.262-0.061,0.528-0.229,0.729c-0.194,0.233-0.483,0.379-0.789,0.379h-3.722
		c-0.766,0-1.387,0.582-1.387,1.293l0.031,1.705c2.012,0.448,3.52,2.155,3.52,4.168C21.365,24.373,19.866,26.073,17.863,26.53z"/>
</g>
</svg>
