<?xml version="1.0" encoding="utf-8"?>
<!-- Generator: Adobe Illustrator 15.0.0, SVG Export Plug-In . SVG Version: 6.00 Build 0)  -->
<!DOCTYPE svg PUBLIC "-//W3C//DTD SVG 1.0//EN" "http://www.w3.org/TR/2001/REC-SVG-20010904/DTD/svg10.dtd">
<svg version="1.0" id="Layer_1" xmlns="http://www.w3.org/2000/svg" xmlns:xlink="http://www.w3.org/1999/xlink" x="0px" y="0px"
	 width="52px" height="53px" viewBox="0 0 52 53" enable-background="new 0 0 52 53" xml:space="preserve">
<g>
	<path fill="#414042" d="M28.021,36.258c-0.754,0-1.463-0.295-1.996-0.826l-6.234-9.226c-1.014-1.081-1.014-2.771,0.001-3.852
		l6.233-9.183c1.065-1.065,2.927-1.065,3.992,0l6.193,9.185c1.014,1.08,1.014,2.768,0.001,3.848l-6.194,9.229
		C29.484,35.963,28.775,36.258,28.021,36.258z M27.491,34.066c0.297,0.252,0.765,0.251,1.062,0.001l6.18-9.205
		c0.322-0.32,0.322-0.843,0-1.162l-6.18-9.164c-0.295-0.25-0.765-0.25-1.062,0.002l-6.22,9.162c-0.321,0.319-0.321,0.842,0,1.162
		L27.491,34.066z"/>
</g>
</svg>
