<?xml version="1.0" encoding="utf-8"?>
<!-- Generator: Adobe Illustrator 15.0.0, SVG Export Plug-In . SVG Version: 6.00 Build 0)  -->
<!DOCTYPE svg PUBLIC "-//W3C//DTD SVG 1.0//EN" "http://www.w3.org/TR/2001/REC-SVG-20010904/DTD/svg10.dtd">
<svg version="1.0" id="Layer_1" xmlns="http://www.w3.org/2000/svg" xmlns:xlink="http://www.w3.org/1999/xlink" x="0px" y="0px"
	 width="52px" height="53px" viewBox="0 0 52 53" enable-background="new 0 0 52 53" xml:space="preserve">
<g>
	<path fill="#414042" d="M34.991,22.352H19.009c-1.659,0-3.009,1.355-3.009,3.021v9.862c0,1.668,1.35,3.022,3.009,3.022h15.982
		c1.659,0,3.009-1.354,3.009-3.021v-9.861C38,23.707,36.65,22.352,34.991,22.352z M35.02,24.258c0.557,0,1.006,0.477,1.006,1.061
		v4.045H28v-5.105H35.02z M18.98,24.258h7.082v5.104h-8.088v-4.043C17.975,24.734,18.427,24.258,18.98,24.258z M18.98,36.319
		c-0.556,0-1.006-0.468-1.006-1.039v-4.022h8.088v5.062H18.98z M35.02,36.319H28v-5.062h8.025v4.022
		C36.025,35.855,35.574,36.319,35.02,36.319z"/>
	<g>
		<path fill="#414042" d="M27.749,24.006c-0.17,0.17-0.415,0.248-0.677,0.215c-0.154-0.021-3.814-0.508-6.438-3.131
			c-2.491-2.492-3.31-4.75-1.931-6.128c1.378-1.379,3.639-0.562,6.13,1.931c2.622,2.624,3.108,6.282,3.13,6.438
			C27.996,23.592,27.919,23.836,27.749,24.006z M20.137,16.395c-0.229,0.229-0.642,1.137,1.709,3.486
			c1.273,1.271,2.918,1.917,4,2.225c-0.312-1.088-0.957-2.734-2.223-4.002C21.271,15.752,20.365,16.166,20.137,16.395z"/>
	</g>
	<g>
		<path fill="#414042" d="M26.044,23.327c0.021-0.153,0.508-3.812,3.13-6.437c2.492-2.491,4.752-3.31,6.131-1.931
			c1.379,1.378,0.562,3.637-1.932,6.128c-2.623,2.623-6.283,3.111-6.438,3.131c-0.264,0.033-0.509-0.045-0.679-0.215
			S26.012,23.592,26.044,23.327z M30.385,18.104c-1.266,1.268-1.91,2.914-2.222,4.002c1.081-0.309,2.726-0.951,3.999-2.225
			c2.352-2.352,1.938-3.258,1.709-3.486S32.734,15.752,30.385,18.104z"/>
	</g>
</g>
</svg>
