<?xml version="1.0" encoding="utf-8"?>
<!-- Generator: Adobe Illustrator 15.0.0, SVG Export Plug-In . SVG Version: 6.00 Build 0)  -->
<!DOCTYPE svg PUBLIC "-//W3C//DTD SVG 1.0//EN" "http://www.w3.org/TR/2001/REC-SVG-20010904/DTD/svg10.dtd">
<svg version="1.0" id="Layer_1" xmlns="http://www.w3.org/2000/svg" xmlns:xlink="http://www.w3.org/1999/xlink" x="0px" y="0px"
	 width="52px" height="53px" viewBox="0 0 52 53" enable-background="new 0 0 52 53" xml:space="preserve">
<g>
	<path fill="#414042" d="M33,37.258H19c-1.104,0-2-0.896-2-2c0-0.432,0.275-0.812,0.684-0.949l5.317-1.771
		c0.002-1.189,0.009-3.467,0.038-4.785C19.445,26.502,17,23.117,17,19.258c0-1.383,0.312-3.254,0.878-5.271
		c0.121-0.432,0.515-0.729,0.963-0.729h14.318c0.448,0,0.842,0.299,0.963,0.729C34.688,16.004,35,17.875,35,19.258
		c0,3.846-2.43,7.221-6,8.479v4.801l5.316,1.771C34.725,34.445,35,34.826,35,35.258C35,36.361,34.104,37.258,33,37.258z
		 M21.125,35.258h9.791l-3.143-1.004c-0.412-0.135-0.691-0.518-0.691-0.947v-5.941c-0.104-0.525,0.189-1.146,0.715-1.277
		c3.154-0.781,5.309-3.617,5.309-6.828c0-1.025-0.224-2.455-0.617-4H19.555c-0.396,1.545-0.617,2.975-0.617,4
		c0,3.211,2.119,5.998,5.273,6.781c0.266,0.064,0.49,0.232,0.629,0.465c0.105,0.184,0.151,0.393,0.133,0.596
		c-0.021,0.48-0.048,5.867-0.048,6.158c0,0.432-0.278,0.812-0.69,0.949L21.125,35.258z"/>
</g>
</svg>
