<?xml version="1.0" encoding="utf-8"?>
<!-- Generator: Adobe Illustrator 15.0.0, SVG Export Plug-In . SVG Version: 6.00 Build 0)  -->
<!DOCTYPE svg PUBLIC "-//W3C//DTD SVG 1.0//EN" "http://www.w3.org/TR/2001/REC-SVG-20010904/DTD/svg10.dtd">
<svg version="1.0" id="Layer_1" xmlns="http://www.w3.org/2000/svg" xmlns:xlink="http://www.w3.org/1999/xlink" x="0px" y="0px"
	 width="52px" height="53px" viewBox="0 0 52 53" enable-background="new 0 0 52 53" xml:space="preserve">
<g>
	<g>
		<g>
			<path fill="#434343" d="M31.088,32.258l-11.855-0.051c-0.547,0-0.99-0.447-0.99-1v-4.344c-2.762-0.463-5.014-2.781-5.014-5.441
				c0-3.223,2.703-5.865,5.979-5.562c0.955-2.684,3.521-4.545,6.436-4.545c2.916,0,5.463,1.83,6.426,4.531
				c2.895,0.445,5.07,2.938,5.07,5.961c0,2.727-2.234,5.24-5.057,5.879v3.572C32.08,31.811,31.637,32.258,31.088,32.258z
				 M20.115,30.352h10.219v-3.551c0-0.527,0.406-0.967,0.932-1.006c1.982-0.148,4.025-1.85,4.025-4.051
				c0-2.203-1.727-3.986-3.928-4.062c-0.451-0.016-0.836-0.326-0.943-0.768c-0.535-2.195-2.496-3.729-4.768-3.729
				c-2.332,0-4.355,1.646-4.812,3.916c-0.057,0.271-0.219,0.508-0.453,0.654s-0.52,0.191-0.785,0.121
				c-0.352-0.092-0.641-0.133-0.908-0.133c-1.986,0-3.604,1.617-3.604,3.605c0,1.924,1.846,3.609,3.943,3.609
				c0.557,0,1.084,0.441,1.084,1L20.115,30.352L20.115,30.352z"/>
		</g>
	</g>
	<path fill="#434343" d="M25.857,15.008c-1.148,0.738-1.887,1.906-1.887,3.219h-1.773c0-1.9,1.545-3.496,3.633-3.941
		C26.209,14.205,26.445,14.625,25.857,15.008z"/>
</g>
</svg>
