<?xml version="1.0" encoding="utf-8"?>
<!-- Generator: Adobe Illustrator 15.0.0, SVG Export Plug-In . SVG Version: 6.00 Build 0)  -->
<!DOCTYPE svg PUBLIC "-//W3C//DTD SVG 1.0//EN" "http://www.w3.org/TR/2001/REC-SVG-20010904/DTD/svg10.dtd">
<svg version="1.0" id="Layer_1" xmlns="http://www.w3.org/2000/svg" xmlns:xlink="http://www.w3.org/1999/xlink" x="0px" y="0px"
	 width="52px" height="53px" viewBox="0 0 52 53" enable-background="new 0 0 52 53" xml:space="preserve">
<g>
	<path fill="#434343" d="M35.957,22.045l-0.004-1.978l-0.012-0.142c-0.194-1.211-1.568-3.586-3.858-3.586
		c-0.517,0-1.151,0.14-1.825,0.285c-0.425,0.094-1.007,0.219-1.232,0.219c-0.225,0-0.807-0.125-1.231-0.219
		c-0.673-0.146-1.31-0.285-1.824-0.285c-2.448,0-3.704,2.576-3.885,3.515l-0.026,2.182c-2.869,0.291-5.044,2.089-5.044,3.577
		c0,2.717,6.333,5.645,11.995,5.645C34.671,31.258,41,28.33,41,25.613C41,23.875,38.439,22.569,35.957,22.045z M23.934,20.047
		c0.148-0.547,0.932-1.906,1.846-1.906c0.272,0,0.896,0.137,1.395,0.242c0.682,0.146,1.325,0.285,1.831,0.285s1.15-0.14,1.831-0.285
		c0.5-0.105,1.122-0.242,1.398-0.242c0.871,0,1.675,1.326,1.812,1.934l0.007,3.059c-0.641,0.498-1.707,1.123-3.125,1.236
		c-1.312,0.102-2.447,0.102-3.744,0c-1.261-0.104-2.477-0.703-3.275-1.283L23.934,20.047z M29.005,29.424
		c-5.957,0-9.764-3.143-9.999-3.768c0.082-0.324,1.152-1.646,2.991-1.906c0.011,0.014,0.375,0.444,0.375,0.444
		c0.185,0.16,0.399,0.321,0.63,0.481c0.04,0.027,0.078,0.056,0.12,0.082c1.033,0.697,2.455,1.342,3.987,1.467
		c0.681,0.055,1.32,0.078,1.957,0.078s1.276-0.023,1.963-0.078c2.299-0.188,3.878-1.35,4.615-2.022l0.314-0.396
		c1.832,0.457,2.833,1.484,3.021,1.811C38.581,26.381,34.816,29.424,29.005,29.424z"/>
</g>
</svg>
