<?xml version="1.0" encoding="utf-8"?>
<!-- Generator: Adobe Illustrator 15.0.0, SVG Export Plug-In . SVG Version: 6.00 Build 0)  -->
<!DOCTYPE svg PUBLIC "-//W3C//DTD SVG 1.1//EN" "http://www.w3.org/Graphics/SVG/1.1/DTD/svg11.dtd">
<svg version="1.1" id="Layer_1" xmlns="http://www.w3.org/2000/svg" xmlns:xlink="http://www.w3.org/1999/xlink" x="0px" y="0px"
	 width="52px" height="53px" viewBox="0 0 52 53" enable-background="new 0 0 52 53" xml:space="preserve">
<g>
	<path fill="#444444" d="M39.205,20.199l-3.768-3.324v-5.854h-3.75v2.417l-1.925-1.569c-0.595-0.589-1.378-0.879-2.15-0.879
		c-0.753,0-1.495,0.276-2.041,0.819l-9.583,8.386c-0.426,0.348-0.486,0.972-0.134,1.393c0.351,0.42,0.981,0.481,1.407,0.132
		l9.652-8.448c0.396-0.391,1.039-0.395,1.5,0.056l9.506,8.39c0.424,0.351,1.054,0.295,1.408-0.125
		C39.684,21.173,39.627,20.548,39.205,20.199z"/>
	<path fill="#444444" d="M34.646,31.067c0,0.54-0.454,0.981-1.013,0.981h-3.67c0.467-0.844,0.562-2.036,0.562-3.373
		c0-2.547-1.331-4.611-2.971-4.611c-1.641,0-2.971,2.064-2.971,4.611c0,1.337,0.096,2.529,0.562,3.373h-3.667
		c-0.558,0-1.013-0.441-1.013-0.981v-7.994h-1.842v7.938c0,1.625,1.338,2.947,2.982,2.947h11.896c1.645,0,2.981-1.322,2.981-2.947
		v-7.938h-1.838v7.994H34.646z M29.5,29.053h-1V28h1V29.053z"/>
	<circle fill="#444444" cx="27.5" cy="18.979" r="1.969"/>
</g>
</svg>
