<?xml version="1.0" encoding="utf-8"?>
<!-- Generator: Adobe Illustrator 15.0.0, SVG Export Plug-In . SVG Version: 6.00 Build 0)  -->
<!DOCTYPE svg PUBLIC "-//W3C//DTD SVG 1.0//EN" "http://www.w3.org/TR/2001/REC-SVG-20010904/DTD/svg10.dtd">
<svg version="1.0" id="Layer_1" xmlns="http://www.w3.org/2000/svg" xmlns:xlink="http://www.w3.org/1999/xlink" x="0px" y="0px"
	 width="52px" height="53px" viewBox="0 0 52 53" enable-background="new 0 0 52 53" xml:space="preserve">
<g>
	<g>
		<path fill="#434343" d="M37.875,33.258H20c-1.654,0-3-1.346-3-3V19.34c0-1.652,1.346-3,3-3h17.875c1.654,0,3,1.348,3,3v10.918
			C40.875,31.912,39.529,33.258,37.875,33.258z M19.827,18.215c-0.562,0-1.02,0.459-1.02,1.021v11.127
			c0,0.562,0.458,1.021,1.02,1.021h18.221c0.562,0,1.021-0.459,1.021-1.021V19.236c0-0.562-0.457-1.021-1.021-1.021H19.827z"/>
	</g>
	<g>
		<path fill="#434343" d="M31.248,32.879l-1.405-1.416c0.062-0.062,0.075-0.135,0.075-0.186s-0.014-0.121-0.075-0.186l-4.679-4.707
			c-0.125-0.127-0.243-0.127-0.368-0.002l-5.426,5.459l-1.406-1.414l5.425-5.457c0.85-0.854,2.33-0.854,3.18,0l4.68,4.705
			c0.425,0.43,0.658,0.996,0.658,1.602S31.672,32.451,31.248,32.879z"/>
	</g>
	<g>
		<path fill="#434343" d="M39.309,29.447l-6.02-6.021c-0.127-0.125-0.244-0.125-0.371,0l-4.707,4.707l-1.414-1.414l4.707-4.707
			c0.854-0.854,2.344-0.854,3.199,0l6.02,6.021L39.309,29.447z"/>
	</g>
	<g>
		<circle fill="#434343" cx="26.48" cy="20.777" r="1.438"/>
	</g>
</g>
</svg>
