<?xml version="1.0" encoding="utf-8"?>
<!-- Generator: Adobe Illustrator 15.0.0, SVG Export Plug-In . SVG Version: 6.00 Build 0)  -->
<!DOCTYPE svg PUBLIC "-//W3C//DTD SVG 1.0//EN" "http://www.w3.org/TR/2001/REC-SVG-20010904/DTD/svg10.dtd">
<svg version="1.0" id="Layer_1" xmlns="http://www.w3.org/2000/svg" xmlns:xlink="http://www.w3.org/1999/xlink" x="0px" y="0px"
	 width="52px" height="53px" viewBox="0 0 52 53" enable-background="new 0 0 52 53" xml:space="preserve">
<g>
	<g>
		<path fill="#414042" d="M33.921,37.215H16.008c-1.658,0-3.008-1.351-3.008-3.01v-5.867c0-0.093,0.014-0.185,0.038-0.271
			l3.979-14.082c0.121-0.43,0.512-0.727,0.959-0.727h14.021c0.445,0,0.841,0.297,0.96,0.729l3.937,14.084
			c0.022,0.086,0.037,0.18,0.037,0.27v5.867C36.928,35.864,35.578,37.215,33.921,37.215z M14.953,28.506v5.752
			c0,0.562,0.457,1.02,1.02,1.02h18.03c0.562,0,1.019-0.457,1.019-1.02v-5.754l-3.717-13.278H18.714L14.953,28.506z"/>
	</g>
	<g>
		<path fill="#414042" d="M27.965,31.234c-0.002,0-0.004,0-0.007,0l-5.968-0.039c-0.551-0.004-0.994-0.445-0.993-0.994l0.001-1
			h-2.977c-0.312,0-0.607-0.145-0.797-0.391c-0.188-0.244-0.25-0.562-0.168-0.863l3.031-10.914c0.119-0.432,0.516-0.729,0.964-0.729
			h7.978c0.453,0,0.851,0.301,0.968,0.736l2.929,10.915c0.079,0.299,0.016,0.614-0.174,0.858c-0.189,0.243-0.482,0.387-0.793,0.387
			h-2.995c0,0-0.013,0.976-0.013,1.041c0,0.55-0.414,0.992-0.967,0.992C27.98,31.234,27.973,31.234,27.965,31.234z M22.948,29.295
			l4.075,0.024l-0.002-0.996c0-0.269,0.104-0.524,0.293-0.713c0.188-0.188,0.44-0.297,0.707-0.297h2.637l-2.396-9.142h-6.445
			l-2.48,9.142h2.614c0.266,0,0.521,0.106,0.708,0.297c0.188,0.188,0.293,0.444,0.292,0.713L22.948,29.295L22.948,29.295z"/>
	</g>
	<path fill="none" stroke="#414042" stroke-width="2" stroke-miterlimit="10" d="M31.896,28.195"/>
</g>
</svg>
