<?xml version="1.0" encoding="utf-8"?>
<!-- Generator: Adobe Illustrator 15.0.0, SVG Export Plug-In . SVG Version: 6.00 Build 0)  -->
<!DOCTYPE svg PUBLIC "-//W3C//DTD SVG 1.1//EN" "http://www.w3.org/Graphics/SVG/1.1/DTD/svg11.dtd">
<svg version="1.1" id="Layer_1" xmlns="http://www.w3.org/2000/svg" xmlns:xlink="http://www.w3.org/1999/xlink" x="0px" y="0px"
	 width="52px" height="53px" viewBox="0 0 52 53" enable-background="new 0 0 52 53" xml:space="preserve">
<g>
	<g>
		<path fill="#424143" d="M29.746,39.258H19.169c-1.747,0-3.169-1.367-3.169-3.047V18.305c0-1.68,1.422-3.047,3.169-3.047h10.577
			c1.748,0,3.17,1.367,3.17,3.047v17.906C32.916,37.891,31.494,39.258,29.746,39.258z M19.169,17.258
			c-0.646,0-1.169,0.471-1.169,1.047v17.906c0,0.576,0.523,1.047,1.169,1.047h10.577c0.646,0,1.17-0.471,1.17-1.047V18.305
			c0-0.576-0.523-1.047-1.17-1.047H19.169z"/>
	</g>
	<g>
		<path fill="#424143" d="M27.5,34.258h-6c-1.379,0-2.5-1.121-2.5-2.5v-11c0-1.379,1.121-2.5,2.5-2.5h6c1.379,0,2.5,1.121,2.5,2.5
			v11C30,33.137,28.879,34.258,27.5,34.258z M21.5,19.258c-0.827,0-1.5,0.672-1.5,1.5v11c0,0.826,0.673,1.5,1.5,1.5h6
			c0.827,0,1.5-0.674,1.5-1.5v-11c0-0.828-0.673-1.5-1.5-1.5H21.5z"/>
	</g>
	<g>
		<rect x="23.031" y="35.32" fill="#424143" width="2.906" height="0.875"/>
	</g>
</g>
</svg>
