<?xml version="1.0" encoding="utf-8"?>
<!-- Generator: Adobe Illustrator 15.0.0, SVG Export Plug-In . SVG Version: 6.00 Build 0)  -->
<!DOCTYPE svg PUBLIC "-//W3C//DTD SVG 1.1//EN" "http://www.w3.org/Graphics/SVG/1.1/DTD/svg11.dtd">
<svg version="1.1" id="Layer_1" xmlns="http://www.w3.org/2000/svg" xmlns:xlink="http://www.w3.org/1999/xlink" x="0px" y="0px"
	 width="52px" height="53px" viewBox="0 0 52 53" enable-background="new 0 0 52 53" xml:space="preserve">
<g>
	<g>
		<path fill="#424143" d="M38.904,30.258H19.086c-1.084,0-1.966-0.902-1.966-2.013V17.362c0-1.108,0.882-2.013,1.966-2.013h19.818
			c1.084,0,1.966,0.902,1.966,2.013v10.883C40.87,29.355,39.988,30.258,38.904,30.258z M18.986,17.102l0.009,11.271l20.058,0.012
			l0.006-11.271L18.986,17.102z"/>
	</g>
	<g>
		<rect x="24.016" y="25.498" fill="#424143" width="9.948" height="1.696"/>
	</g>
	<g>
		<rect x="20.037" y="19.352" fill="#424143" width="1.917" height="1.865"/>
	</g>
	<g>
		<rect x="24.037" y="19.352" fill="#424143" width="1.917" height="1.865"/>
	</g>
	<g>
		<rect x="28.036" y="19.352" fill="#424143" width="1.918" height="1.865"/>
	</g>
	<g>
		<rect x="32.036" y="19.352" fill="#424143" width="1.918" height="1.865"/>
	</g>
	<g>
		<rect x="36.036" y="19.352" fill="#424143" width="1.918" height="1.865"/>
	</g>
	<g>
		<rect x="34.036" y="22.352" fill="#424143" width="1.918" height="1.865"/>
	</g>
	<g>
		<rect x="30.036" y="22.352" fill="#424143" width="1.918" height="1.865"/>
	</g>
	<g>
		<rect x="26.036" y="22.352" fill="#424143" width="1.918" height="1.865"/>
	</g>
	<g>
		<rect x="22.036" y="22.352" fill="#424143" width="1.918" height="1.865"/>
	</g>
	<g>
		<rect x="20.025" y="25.352" fill="#424143" width="1.906" height="1.844"/>
	</g>
	<g>
		<rect x="36.025" y="25.389" fill="#424143" width="1.906" height="1.807"/>
	</g>
</g>
</svg>
