<?xml version="1.0" encoding="utf-8"?>
<!-- Generator: Adobe Illustrator 15.0.0, SVG Export Plug-In . SVG Version: 6.00 Build 0)  -->
<!DOCTYPE svg PUBLIC "-//W3C//DTD SVG 1.0//EN" "http://www.w3.org/TR/2001/REC-SVG-20010904/DTD/svg10.dtd">
<svg version="1.0" id="Layer_1" xmlns="http://www.w3.org/2000/svg" xmlns:xlink="http://www.w3.org/1999/xlink" x="0px" y="0px"
	 width="52px" height="53px" viewBox="0 0 52 53" enable-background="new 0 0 52 53" xml:space="preserve">
<g>
	<path fill="#414042" d="M38.719,30.512C38.895,30.131,39,29.709,39,29.264v-7.949c0-1.648-1.342-2.994-2.992-2.994H21.994
		c-1.65,0-2.994,1.346-2.994,2.994v7.949c0,0.445,0.105,0.867,0.281,1.248L17,35.025v0.238c0,1.65,1.344,2.994,2.994,2.994h18.014
		c1.678,0,2.898-1.316,2.898-2.994v-0.238L38.719,30.512z M21,21.248c0-0.56,0.445-1.013,0.994-1.013h14.014
		c0.547,0,0.992,0.453,0.992,1.013v8.082c0,0.52-0.393,0.936-0.891,0.989H21.891c-0.496-0.056-0.893-0.47-0.893-0.989L21,21.248
		L21,21.248z M38.008,36.383H19.994c-0.48,0-0.881-0.363-0.975-0.847l1.59-3.342h16.783l1.59,3.345
		C38.895,36.032,38.504,36.383,38.008,36.383z"/>
	<rect x="27" y="34.373" fill="#414042" width="3.918" height="0.801"/>
</g>
</svg>
