<?xml version="1.0" encoding="utf-8"?>
<!-- Generator: Adobe Illustrator 15.0.0, SVG Export Plug-In . SVG Version: 6.00 Build 0)  -->
<!DOCTYPE svg PUBLIC "-//W3C//DTD SVG 1.0//EN" "http://www.w3.org/TR/2001/REC-SVG-20010904/DTD/svg10.dtd">
<svg version="1.0" id="Layer_1" xmlns="http://www.w3.org/2000/svg" xmlns:xlink="http://www.w3.org/1999/xlink" x="0px" y="0px"
	 width="52px" height="53px" viewBox="0 0 52 53" enable-background="new 0 0 52 53" xml:space="preserve">
<g>
	<g>
		<path fill="#414042" d="M19.028,18.092c0-1.523,0.412-2.711,1.227-3.525c0.815-0.816,2.004-1.23,3.533-1.23
			c4.819,0,12.537,4.234,15.389,7.09c1.742,1.746,2.703,4.066,2.703,6.533s-0.96,4.785-2.703,6.533
			c-1.745,1.748-4.067,2.711-6.536,2.709c-2.471,0-4.791-0.963-6.538-2.709C23.254,30.637,19.028,22.914,19.028,18.092z
			 M39.88,27.006c0-1.957-0.755-3.797-2.125-5.18c-2.563-2.588-9.841-6.555-13.967-6.555c-0.975,0-1.686,0.219-2.113,0.646
			c-0.43,0.436-0.646,1.156-0.646,2.146c0,4.172,3.93,11.527,6.497,14.117c1.367,1.381,3.184,2.141,5.115,2.141
			c1.932,0.002,3.748-0.76,5.115-2.141C39.126,30.803,39.88,28.963,39.88,27.006z"/>
	</g>
	<g>
		<path fill="#414042" d="M20.458,15.541c0-0.258,0.099-0.516,0.296-0.711c0.393-0.389,1.025-0.385,1.414,0.008l20.516,20.715
			c0.39,0.395,0.385,1.025-0.009,1.416c-0.393,0.389-1.024,0.385-1.413-0.008L20.747,16.244
			C20.554,16.049,20.458,15.795,20.458,15.541z"/>
	</g>
	<g>
		<path fill="#414042" d="M33.034,27.295v-7.074c0-0.555,0.433-1.006,0.969-1.006s0.97,0.451,0.97,1.006v7.074
			c0,0.555-0.434,1.004-0.97,1.004S33.034,27.85,33.034,27.295z"/>
	</g>
	<g>
		<path fill="#414042" d="M24.013,25.305c0-0.525,0.475-0.953,1.059-0.953h4.76c0.584,0,1.059,0.428,1.059,0.953
			s-0.475,0.953-1.059,0.953h-4.76C24.487,26.258,24.013,25.83,24.013,25.305z"/>
	</g>
	<g>
		<path fill="#414042" d="M27.014,21.188v-3.859c0-0.566,0.43-1.027,0.959-1.027c0.528,0,0.957,0.461,0.957,1.027v3.859
			c0,0.566-0.429,1.027-0.957,1.027C27.443,22.215,27.014,21.754,27.014,21.188z"/>
	</g>
	<g>
		<path fill="#414042" d="M29.057,31.305c0-0.516,0.455-0.934,1.019-0.934h6.92c0.563,0,1.019,0.418,1.019,0.934
			s-0.455,0.932-1.019,0.932h-6.92C29.512,32.236,29.057,31.82,29.057,31.305z"/>
	</g>
</g>
</svg>
