<?xml version="1.0" encoding="utf-8"?>
<!-- Generator: Adobe Illustrator 15.0.0, SVG Export Plug-In . SVG Version: 6.00 Build 0)  -->
<!DOCTYPE svg PUBLIC "-//W3C//DTD SVG 1.1//EN" "http://www.w3.org/Graphics/SVG/1.1/DTD/svg11.dtd">
<svg version="1.1" id="Layer_1" xmlns="http://www.w3.org/2000/svg" xmlns:xlink="http://www.w3.org/1999/xlink" x="0px" y="0px"
	 width="52px" height="53px" viewBox="0 0 52 53" enable-background="new 0 0 52 53" xml:space="preserve">
<g>
	<g>
		<g>
			<path fill="#424143" d="M29.008,36.924c-0.361,0-0.695-0.199-0.867-0.518c-0.727-1.342-7.092-11.205-7.092-15.189
				c0-4.389,3.57-7.959,7.959-7.959s7.958,3.57,7.958,7.959c0,3.984-6.364,13.85-7.09,15.189
				C29.704,36.725,29.371,36.924,29.008,36.924z M29.008,15.23c-3.3,0-5.984,2.688-5.984,5.986c0,2.572,3.757,8.33,5.984,12.611
				c2.227-4.281,5.983-10.039,5.983-12.611C34.992,17.916,32.309,15.23,29.008,15.23z"/>
		</g>
	</g>
	<path fill="#424143" d="M31.951,20.143h-5.834c-0.552,0-1,0.443-1,0.99s0.448,0.988,1,0.988h5.834c0.552,0,1-0.441,1-0.988
		S32.502,20.143,31.951,20.143z"/>
</g>
</svg>
