<?xml version="1.0" encoding="utf-8"?>
<!-- Generator: Adobe Illustrator 15.0.0, SVG Export Plug-In . SVG Version: 6.00 Build 0)  -->
<!DOCTYPE svg PUBLIC "-//W3C//DTD SVG 1.0//EN" "http://www.w3.org/TR/2001/REC-SVG-20010904/DTD/svg10.dtd">
<svg version="1.0" id="Layer_1" xmlns="http://www.w3.org/2000/svg" xmlns:xlink="http://www.w3.org/1999/xlink" x="0px" y="0px"
	 width="52px" height="53px" viewBox="0 0 52 53" enable-background="new 0 0 52 53" xml:space="preserve">
<g>
	<g>
		<path fill="#414042" d="M26.042,40.924c-0.362,0-0.694-0.199-0.867-0.518c-0.727-1.342-7.091-11.205-7.091-15.189
			c0-4.389,3.57-7.959,7.958-7.959S34,20.828,34,25.217c0,3.984-6.363,13.85-7.09,15.189C26.738,40.725,26.404,40.924,26.042,40.924
			z M26.042,19.23c-3.3,0-5.983,2.688-5.983,5.986c0,2.572,3.758,8.33,5.983,12.611c2.228-4.281,5.983-10.039,5.983-12.611
			C32.025,21.916,29.342,19.23,26.042,19.23z"/>
	</g>
	<circle fill="#414042" cx="26.025" cy="25.148" r="2.953"/>
</g>
</svg>
