<?xml version="1.0" encoding="utf-8"?>
<!-- Generator: Adobe Illustrator 15.0.0, SVG Export Plug-In . SVG Version: 6.00 Build 0)  -->
<!DOCTYPE svg PUBLIC "-//W3C//DTD SVG 1.0//EN" "http://www.w3.org/TR/2001/REC-SVG-20010904/DTD/svg10.dtd">
<svg version="1.0" id="Layer_1" xmlns="http://www.w3.org/2000/svg" xmlns:xlink="http://www.w3.org/1999/xlink" x="0px" y="0px"
	 width="52px" height="53px" viewBox="0 0 52 53" enable-background="new 0 0 52 53" xml:space="preserve">
<g>
	<g>
		<path fill="#414042" d="M32.949,26.215H19.053v-5.921c0-2.755,2.818-4.995,6.285-4.995h1.324c3.467,0,6.287,2.24,6.287,4.995
			V26.215z M20.969,24.393h10.062v-4.02c0-1.667-1.996-3.074-4.361-3.074h-1.34c-2.363,0-4.361,1.407-4.361,3.074V24.393
			L20.969,24.393z"/>
	</g>
	<g>
		<path fill="#414042" d="M32.174,39.258H19.836c-1.557,0-2.826-1.332-2.826-2.972v-8.975c0-1.639,1.27-2.972,2.826-2.972h12.338
			c1.559,0,2.826,1.333,2.826,2.972v8.975C35,37.926,33.732,39.258,32.174,39.258z M19.801,26.153c-0.459,0-0.832,0.451-0.832,1.006
			v9.134c0,0.555,0.373,1.006,0.832,1.006h12.367c0.459,0,0.832-0.451,0.832-1.006v-9.134c0-0.555-0.373-1.006-0.832-1.006H19.801z"
			/>
	</g>
	<path fill="#414042" d="M28,30.316c0-1.078-0.895-1.953-2-1.953s-2,0.875-2,1.953c0,0.688,0.369,1.293,0.922,1.641l-0.828,3.281
		h3.844l-0.83-3.297C27.646,31.592,28,30.993,28,30.316z"/>
</g>
</svg>
