<?xml version="1.0" encoding="utf-8"?>
<!-- Generator: Adobe Illustrator 15.0.0, SVG Export Plug-In . SVG Version: 6.00 Build 0)  -->
<!DOCTYPE svg PUBLIC "-//W3C//DTD SVG 1.1//EN" "http://www.w3.org/Graphics/SVG/1.1/DTD/svg11.dtd">
<svg version="1.1" id="Layer_1" xmlns="http://www.w3.org/2000/svg" xmlns:xlink="http://www.w3.org/1999/xlink" x="0px" y="0px"
	 width="52px" height="53px" viewBox="0 0 52 53" enable-background="new 0 0 52 53" xml:space="preserve">
<g>
	<g>
		<path fill="#444444" d="M35.973,34.227H17.998c-1.653,0-2.998-1.357-2.998-3.027v-5.914c0-0.207,0.065-0.409,0.185-0.578l5-7.028
			c0.253-0.354,0.706-0.503,1.119-0.373C21.719,17.44,22,17.825,22,18.259v4h0.586l4.707-4.707c0.287-0.287,0.716-0.371,1.09-0.217
			C28.757,17.488,29,17.854,29,18.258v4h0.52L33,17.906v-6.649c0-0.553,0.447-1,1-1h3.973c0.266,0,0.52,0.105,0.707,0.293
			c0.187,0.188,0.293,0.441,0.293,0.707l-0.004,19.941C38.969,32.866,37.624,34.227,35.973,34.227z M17,25.667v5.619
			c0,0.57,0.45,1.033,1.003,1.033h18.058c0.554,0,1.002-0.463,1.002-1.033l0.004-19.029h-2.129v6.027
			c0,0.229-0.076,0.449-0.22,0.629l-3.872,4.904c-0.191,0.237-0.479,0.377-0.785,0.377h-2.009c-0.556,0-1.005-0.449-1.005-1.004
			v-2.48l-3.309,3.189c-0.188,0.188-0.444,0.295-0.71,0.295h-2.01c-0.555,0-1.004-0.449-1.004-1.004v-1.761L17,25.667z"/>
	</g>
	<rect x="18" y="26.299" fill="#444444" width="2.958" height="1.958"/>
	<rect x="25" y="26.299" fill="#444444" width="2.959" height="1.958"/>
	<rect x="32" y="26.299" fill="#444444" width="2.959" height="1.958"/>
</g>
</svg>
