<?xml version="1.0" encoding="utf-8"?>
<!-- Generator: Adobe Illustrator 15.0.0, SVG Export Plug-In . SVG Version: 6.00 Build 0)  -->
<!DOCTYPE svg PUBLIC "-//W3C//DTD SVG 1.0//EN" "http://www.w3.org/TR/2001/REC-SVG-20010904/DTD/svg10.dtd">
<svg version="1.0" id="Layer_1" xmlns="http://www.w3.org/2000/svg" xmlns:xlink="http://www.w3.org/1999/xlink" x="0px" y="0px"
	 width="52px" height="53px" viewBox="0 0 52 53" enable-background="new 0 0 52 53" xml:space="preserve">
<g>
	<g>
		<path fill="#434343" d="M29.036,29.258c-0.99,0-1.989-0.447-3.046-0.922c-1.016-0.455-2.165-0.974-3.454-1.158
			c-5.69-1.351-5.476-10.174-5.463-10.549c0-1.818,1.286-1.828,1.979-1.832c0.498-0.004,1.181-0.011,2.163-0.32
			c0.29-0.092,0.61-0.139,0.95-0.139c1.087,0,2.269,0.459,3.521,0.942c1.168,0.453,2.375,0.922,3.338,0.922
			c0.957,0,2.166-0.469,3.334-0.924c1.254-0.485,2.438-0.946,3.526-0.946c0.337,0,0.652,0.045,0.938,0.135
			c0.99,0.311,1.68,0.315,2.183,0.322c0.698,0.006,1.995,0.02,1.995,1.87c-0.005,0.412-0.186,9.789-5.402,10.507
			c-1.656,0.284-2.787,0.807-3.785,1.268C30.852,28.875,30.021,29.258,29.036,29.258z M19.009,16.797
			c-0.004,1.028,0.113,7.53,3.853,8.418c1.479,0.209,2.826,0.812,3.908,1.295c0.896,0.401,1.67,0.748,2.235,0.748
			c0.55,0,1.138-0.271,1.948-0.644c1.057-0.485,2.373-1.09,4.326-1.426c2.895-0.396,3.66-6.195,3.718-8.399
			c-0.005,0-0.011,0-0.017,0c-0.594-0.007-1.49-0.017-2.767-0.412c-0.599-0.189-1.937,0.293-3.157,0.768
			c-1.345,0.521-2.731,1.061-4.064,1.061c-1.34,0-2.729-0.537-4.069-1.057c-1.225-0.475-2.56-0.953-3.159-0.764
			C20.491,16.784,19.562,16.793,19.009,16.797L19.009,16.797z"/>
	</g>
	<path fill="#434343" d="M26.871,22.234c-0.252-0.1-0.598-0.34-1.061-0.197c-0.752,0.23-1.849,0.174-2.972-0.217
		c-1.819-0.631-2.784-3.459-2.784-3.459s2.635-0.195,4.454,0.436c0.847,0.293,1.062,0.43,1.572,0.855
		C27.118,20.516,27.12,22.334,26.871,22.234z"/>
	<path fill="#434343" d="M31.979,19.652c0.514-0.428,0.729-0.562,1.572-0.855c1.821-0.631,4.456-0.436,4.456-0.436
		s-0.965,2.828-2.784,3.459c-1.125,0.391-2.22,0.447-2.972,0.217c-0.464-0.143-0.81,0.1-1.062,0.197
		C30.941,22.334,30.943,20.516,31.979,19.652z"/>
</g>
</svg>
