<?xml version="1.0" encoding="utf-8"?>
<!-- Generator: Adobe Illustrator 15.0.0, SVG Export Plug-In . SVG Version: 6.00 Build 0)  -->
<!DOCTYPE svg PUBLIC "-//W3C//DTD SVG 1.0//EN" "http://www.w3.org/TR/2001/REC-SVG-20010904/DTD/svg10.dtd">
<svg version="1.0" id="Layer_1" xmlns="http://www.w3.org/2000/svg" xmlns:xlink="http://www.w3.org/1999/xlink" x="0px" y="0px"
	 width="52px" height="53px" viewBox="0 0 52 53" enable-background="new 0 0 52 53" xml:space="preserve">
<g>
	<g>
		<path fill="#414042" d="M23,33.266c-0.404,0-0.769-0.244-0.924-0.617l-1.442-3.479l-3.787,1.104
			c-0.396,0.115-0.821-0.021-1.072-0.35c-0.251-0.326-0.276-0.773-0.064-1.127l1.923-3.188l-3.202-2.091
			c-0.349-0.229-0.52-0.646-0.43-1.053c0.09-0.408,0.421-0.715,0.833-0.774l3.881-0.563l-0.283-3.687
			c-0.031-0.406,0.187-0.791,0.55-0.974c0.365-0.182,0.802-0.125,1.107,0.146L23,19.174l2.909-2.562
			c0.305-0.271,0.743-0.326,1.106-0.146c0.364,0.183,0.582,0.566,0.551,0.972l-0.281,3.688l3.88,0.562
			c0.412,0.062,0.743,0.367,0.833,0.773s-0.082,0.825-0.43,1.053l-3.203,2.092l1.924,3.188c0.213,0.354,0.188,0.801-0.062,1.127
			c-0.254,0.326-0.682,0.463-1.073,0.351l-3.786-1.104l-1.442,3.479C23.769,33.021,23.404,33.266,23,33.266z M21.215,26.957
			c0.396,0,0.766,0.235,0.924,0.616L23,29.653l0.861-2.08c0.195-0.471,0.71-0.721,1.204-0.575l2.188,0.639l-1.099-1.822
			c-0.278-0.461-0.141-1.059,0.31-1.354l1.795-1.172l-2.186-0.316c-0.521-0.076-0.894-0.543-0.854-1.066l0.166-2.168l-1.725,1.52
			c-0.379,0.334-0.943,0.334-1.322,0l-1.724-1.518l0.167,2.166c0.041,0.523-0.333,0.99-0.853,1.066l-2.187,0.316l1.794,1.172
			c0.451,0.295,0.588,0.893,0.31,1.354l-1.099,1.822l2.188-0.639C21.028,26.971,21.122,26.957,21.215,26.957z"/>
	</g>
	<g>
		<path fill="#414042" d="M25.84,40.258c-0.206,0-0.406-0.064-0.575-0.183l-2.254-1.586l-2.115,1.569
			c-0.172,0.13-0.381,0.197-0.596,0.197c-0.822,0-2.237-0.761-2.237-2V28.6c0-0.553,0.354-1,0.906-1c0.552,0,1,0.447,1,1v9.479
			c0.037,0.027,0.083,0.055,0.131,0.08l2.3-1.705c0.346-0.258,0.817-0.264,1.171-0.016l2.421,1.699
			c0.003-0.002,0.006-0.004,0.009-0.008v-9.531c0-0.553,0.447-1,1-1c0.554,0,1,0.447,1,1v9.66C28,39.418,26.71,40.258,25.84,40.258z
			"/>
	</g>
</g>
</svg>
