<?xml version="1.0" encoding="utf-8"?>
<!-- Generator: Adobe Illustrator 15.0.0, SVG Export Plug-In . SVG Version: 6.00 Build 0)  -->
<!DOCTYPE svg PUBLIC "-//W3C//DTD SVG 1.0//EN" "http://www.w3.org/TR/2001/REC-SVG-20010904/DTD/svg10.dtd">
<svg version="1.0" id="Layer_1" xmlns="http://www.w3.org/2000/svg" xmlns:xlink="http://www.w3.org/1999/xlink" x="0px" y="0px"
	 width="52px" height="53px" viewBox="0 0 52 53" enable-background="new 0 0 52 53" xml:space="preserve">
<g>
	<path fill="none" stroke="#434343" stroke-width="2" stroke-miterlimit="10" d="M37.964,35.223c0,1.676-1.354,3.035-3.024,3.035
		H19.053c-1.671,0-3.026-1.359-3.026-3.035v-7.932l7-0.002v-9.998h14.938L37.964,35.223L37.964,35.223z"/>
	<path fill="none" stroke="#434343" stroke-width="2" stroke-miterlimit="10" d="M22.995,35.211c0,1.682-1.366,3.047-3.054,3.047
		h-0.894c-1.686,0-3.053-1.365-3.053-3.047v-7.967h7V35.211L22.995,35.211z"/>
	<rect x="26.025" y="25.367" fill="#434343" width="8.938" height="0.857"/>
	<rect x="26.025" y="31.367" fill="#434343" width="8.938" height="0.857"/>
	<rect x="19.025" y="30.336" fill="#434343" width="3.906" height="0.891"/>
	<rect x="19.025" y="32.336" fill="#434343" width="3.906" height="0.891"/>
	<rect x="19.025" y="34.336" fill="#434343" width="3.906" height="0.891"/>
	<rect x="26.025" y="34.398" fill="#434343" width="8.938" height="0.828"/>
	<rect x="26.025" y="28.336" fill="#434343" width="8.938" height="0.891"/>
	<rect x="25.995" y="20.352" fill="#434343" width="3.938" height="2.906"/>
</g>
</svg>
