<?xml version="1.0" encoding="utf-8"?>
<!-- Generator: Adobe Illustrator 15.0.0, SVG Export Plug-In . SVG Version: 6.00 Build 0)  -->
<!DOCTYPE svg PUBLIC "-//W3C//DTD SVG 1.0//EN" "http://www.w3.org/TR/2001/REC-SVG-20010904/DTD/svg10.dtd">
<svg version="1.0" id="Layer_1" xmlns="http://www.w3.org/2000/svg" xmlns:xlink="http://www.w3.org/1999/xlink" x="0px" y="0px"
	 width="52px" height="53px" viewBox="0 0 52 53" enable-background="new 0 0 52 53" xml:space="preserve">
<g>
	<path fill="#414042" d="M38.564,30.281l-6.131-7.473c0.084-0.438,0.131-0.889,0.131-1.346c0.002-1.916-0.748-3.719-2.107-5.072
		c-0.287-0.283-0.605-0.549-0.975-0.809c-1.215-0.844-2.643-1.289-4.127-1.289c-1.924,0-3.734,0.748-5.098,2.104
		c-2.459,2.445-2.812,6.287-0.85,9.137c0.258,0.373,0.541,0.715,0.844,1.014c1.357,1.355,3.168,2.102,5.094,2.102
		c0.477,0,0.945-0.047,1.404-0.137l7.479,6.084c0.537,0.486,1.443,0.561,1.945,0.561c0.617,0,1.455-0.104,1.947-0.59l0.41-0.41
		c0.49-0.486,0.594-1.322,0.594-1.938C39.129,31.717,39.053,30.816,38.564,30.281z M21.664,17.795
		c0.986-0.98,2.297-1.521,3.691-1.521c0.936,0,1.836,0.242,2.633,0.707c0.002,0.018,0.006,0.035,0.006,0.055
		c0.021,0.201,0.033,0.396,0.033,0.58c0,3.576-2.932,6.482-6.535,6.482c-0.193,0-0.396-0.014-0.607-0.033
		c-0.021-0.002-0.043-0.008-0.064-0.01C19.658,22.037,19.984,19.467,21.664,17.795z M22.746,25.984
		c0.049-0.006,0.092-0.023,0.139-0.031c0.402-0.064,0.797-0.15,1.178-0.271c0.033-0.01,0.066-0.023,0.104-0.035
		c0.357-0.117,0.705-0.264,1.041-0.428c0.066-0.031,0.141-0.061,0.205-0.098c0.346-0.178,0.674-0.379,0.986-0.6
		c0.066-0.047,0.127-0.096,0.191-0.143c0.307-0.229,0.602-0.473,0.873-0.738c0.014-0.012,0.027-0.021,0.039-0.035
		c0.279-0.275,0.533-0.576,0.773-0.891c0.049-0.062,0.1-0.129,0.146-0.195c0.228-0.312,0.433-0.641,0.613-0.98
		c0.03-0.059,0.057-0.117,0.086-0.178c0.164-0.326,0.308-0.664,0.428-1.014c0.019-0.051,0.037-0.098,0.056-0.146
		c0.121-0.377,0.211-0.766,0.278-1.16c0.009-0.045,0.022-0.082,0.029-0.123c0.437,0.768,0.668,1.641,0.666,2.547
		c0,0.629-0.127,1.234-0.341,1.811c-0.043,0.111-0.088,0.225-0.137,0.334c-0.097,0.211-0.207,0.416-0.332,0.613
		c-0.05,0.08-0.104,0.158-0.156,0.236c-0.17,0.234-0.35,0.467-0.559,0.676c-0.005,0.004-0.009,0.008-0.011,0.014
		c-0.002,0.002-0.004,0.002-0.006,0.004c-0.213,0.211-0.447,0.393-0.688,0.561c-0.072,0.053-0.147,0.104-0.226,0.15
		c-0.218,0.137-0.44,0.258-0.677,0.357c-0.094,0.043-0.192,0.076-0.291,0.113c-0.573,0.211-1.184,0.336-1.813,0.336
		C24.418,26.67,23.527,26.432,22.746,25.984z M37.074,32.818l-0.293,0.289c-0.09,0.029-0.305,0.072-0.604,0.072
		c-0.331,0-0.563-0.051-0.651-0.084c-0.004-0.004-0.006-0.006-0.01-0.01l-6.611-5.375c0.017-0.01,0.029-0.021,0.046-0.029
		c0.229-0.133,0.452-0.279,0.67-0.439c0.055-0.039,0.106-0.076,0.159-0.117c0.228-0.178,0.447-0.363,0.656-0.57
		c0.004-0.004,0.008-0.008,0.015-0.012c0.004-0.004,0.006-0.008,0.01-0.012c0.211-0.211,0.403-0.438,0.586-0.67
		c0.039-0.053,0.076-0.104,0.115-0.152c0.17-0.232,0.33-0.475,0.473-0.723c0.003-0.006,0.007-0.012,0.011-0.018l5.405,6.59
		c0.005,0.006,0.009,0.01,0.013,0.014C37.166,31.828,37.172,32.545,37.074,32.818z"/>
	<g>
		<path fill="#414042" d="M41.264,38.217c-0.217,0-0.432-0.082-0.596-0.244l-3.326-3.301c-0.322-0.322-0.318-0.84,0.01-1.158
			c0.33-0.318,0.859-0.312,1.188,0.01l3.322,3.301c0.324,0.322,0.32,0.842-0.01,1.158C41.689,38.139,41.477,38.217,41.264,38.217z"
			/>
	</g>
</g>
</svg>
