<?xml version="1.0" encoding="utf-8"?>
<!-- Generator: Adobe Illustrator 15.0.0, SVG Export Plug-In . SVG Version: 6.00 Build 0)  -->
<!DOCTYPE svg PUBLIC "-//W3C//DTD SVG 1.0//EN" "http://www.w3.org/TR/2001/REC-SVG-20010904/DTD/svg10.dtd">
<svg version="1.0" id="Layer_1" xmlns="http://www.w3.org/2000/svg" xmlns:xlink="http://www.w3.org/1999/xlink" x="0px" y="0px"
	 width="52px" height="53px" viewBox="0 0 52 53" enable-background="new 0 0 52 53" xml:space="preserve">
<g>
	<path fill="#414042" d="M33.41,13.109H15.48c-1.647,0-2.987,1.319-2.987,2.941v10.046c0,1.623,1.34,2.94,2.987,2.94h17.93
		c1.648,0,2.988-1.317,2.988-2.94V16.05C36.399,14.429,35.059,13.109,33.41,13.109z M34.5,26.178c0,0.535-0.451,0.971-1.007,0.971
		H15.367c-0.555,0-1.007-0.436-1.007-0.971V16c0-0.535,0.452-0.97,1.007-0.97h18.126c0.556,0,1.007,0.435,1.007,0.97V26.178z"/>
	<path fill="#414042" d="M30.436,34.109h-3.983v-3.016c0-1.105-0.896-1-2-1s-1.875-0.105-1.875,1v3.016h-4.108
		c-0.553,0-1,0.438-1,0.977s0.447,0.977,1,0.977h11.969c0.553,0,1-0.438,1-0.977S30.989,34.109,30.436,34.109z"/>
</g>
</svg>
