<?xml version="1.0" encoding="utf-8"?>
<!-- Generator: Adobe Illustrator 15.0.0, SVG Export Plug-In . SVG Version: 6.00 Build 0)  -->
<!DOCTYPE svg PUBLIC "-//W3C//DTD SVG 1.0//EN" "http://www.w3.org/TR/2001/REC-SVG-20010904/DTD/svg10.dtd">
<svg version="1.0" id="Layer_1" xmlns="http://www.w3.org/2000/svg" xmlns:xlink="http://www.w3.org/1999/xlink" x="0px" y="0px"
	 width="52px" height="53px" viewBox="0 0 52 53" enable-background="new 0 0 52 53" xml:space="preserve">
<g>
	<path fill="#414042" d="M32.585,36.258c-3.321,0-6.442-1.293-8.791-3.64c-4.851-4.853-4.844-12.75,0.015-17.606
		c1.086-1.086,2.362-1.955,3.793-2.586c0.375-0.164,0.812-0.084,1.103,0.205c0.291,0.289,0.373,0.727,0.209,1.102
		c-0.668,1.529-0.957,3.145-0.854,4.793c0.353,5.719,5.312,10.152,11.104,9.799c1.207-0.07,2.396-0.359,3.539-0.854
		c0.373-0.162,0.809-0.082,1.1,0.209c0.287,0.289,0.369,0.726,0.205,1.099c-0.629,1.444-1.506,2.731-2.604,3.83
		C39.042,34.961,35.913,36.258,32.585,36.258z M26.273,15.316c-0.383,0.289-0.746,0.604-1.086,0.943
		c-4.117,4.117-4.123,10.809-0.015,14.916c1.988,1.988,4.632,3.082,7.443,3.082c2.821,0,5.475-1.101,7.471-3.097
		c0.354-0.353,0.679-0.729,0.978-1.125c-0.562,0.113-1.129,0.188-1.698,0.222c-6.927,0.432-12.886-4.894-13.308-11.75
		C25.993,17.428,26.064,16.361,26.273,15.316z"/>
</g>
</svg>
