<?xml version="1.0" encoding="utf-8"?>
<!-- Generator: Adobe Illustrator 15.0.0, SVG Export Plug-In . SVG Version: 6.00 Build 0)  -->
<!DOCTYPE svg PUBLIC "-//W3C//DTD SVG 1.0//EN" "http://www.w3.org/TR/2001/REC-SVG-20010904/DTD/svg10.dtd">
<svg version="1.0" id="Layer_1" xmlns="http://www.w3.org/2000/svg" xmlns:xlink="http://www.w3.org/1999/xlink" x="0px" y="0px"
	 width="52px" height="53px" viewBox="0 0 52 53" enable-background="new 0 0 52 53" xml:space="preserve">
<g>
	<path fill="#434343" d="M21.375,35.258c-1.895,0-3.432-0.867-4.009-2.263c-0.427-1.032-0.298-2.211,0.36-3.317
		c0.662-1.115,1.797-2.049,3.193-2.625c0.495-0.205,1.363-0.324,2.062-0.408l0.09-0.01l0.009-11.335
		c0.001-0.435,0.312-0.81,0.737-0.89l16.104-3.017c0.058-0.01,0.111-0.016,0.168-0.016c0.212,0,0.416,0.073,0.58,0.209
		c0.207,0.172,0.326,0.426,0.326,0.696L40.98,27.293c0,0.033-0.002,0.068-0.006,0.104c-0.207,1.734-1.703,3.416-3.812,4.285
		c-0.879,0.363-1.815,0.555-2.707,0.555c-1.896,0-3.433-0.863-4.011-2.262c-0.426-1.033-0.297-2.211,0.359-3.316
		c0.664-1.116,1.801-2.049,3.196-2.627c0.496-0.203,1.365-0.323,2.067-0.406l0.089-0.012l0.004-3.812L27.88,21.62l0.015,8.687
		c0,0.037-0.002,0.072-0.008,0.109c-0.207,1.732-1.705,3.416-3.811,4.281C23.202,35.066,22.266,35.258,21.375,35.258z
		 M24.895,16.051l-0.008,11.396c-0.002,0.461-0.348,0.85-0.807,0.898l-0.229,0.022c-0.801,0.087-1.895,0.216-2.238,0.356
		c-0.9,0.371-1.666,0.947-2.158,1.621c-0.504,0.688-0.65,1.386-0.414,1.957c0.292,0.705,1.186,1.144,2.334,1.144
		c0.654,0,1.352-0.146,2.016-0.418c1.43-0.588,2.537-1.728,2.695-2.771l-0.012-9.362c0-0.423,0.299-0.795,0.711-0.886l10.094-2.217
		c0.064-0.017,0.131-0.022,0.197-0.022c0.203,0,0.404,0.071,0.566,0.2c0.215,0.175,0.338,0.433,0.338,0.707l-0.004,5.75
		c0,0.461-0.35,0.849-0.811,0.899l-0.225,0.022c-0.799,0.084-1.896,0.212-2.244,0.356c-0.9,0.371-1.666,0.947-2.158,1.621
		c-0.504,0.688-0.648,1.386-0.416,1.959c0.293,0.705,1.188,1.144,2.336,1.144c0.652,0,1.354-0.146,2.018-0.42
		c1.43-0.588,2.537-1.728,2.691-2.771l0.02-13.866L24.895,16.051z"/>
</g>
</svg>
