<?xml version="1.0" encoding="utf-8"?>
<!-- Generator: Adobe Illustrator 15.0.0, SVG Export Plug-In . SVG Version: 6.00 Build 0)  -->
<!DOCTYPE svg PUBLIC "-//W3C//DTD SVG 1.0//EN" "http://www.w3.org/TR/2001/REC-SVG-20010904/DTD/svg10.dtd">
<svg version="1.0" id="Layer_1" xmlns="http://www.w3.org/2000/svg" xmlns:xlink="http://www.w3.org/1999/xlink" x="0px" y="0px"
	 width="52px" height="53px" viewBox="0 0 52 53" enable-background="new 0 0 52 53" xml:space="preserve">
<g>
	<g>
		<path fill="#414042" d="M27.025,36.102V22.289c0-2.205,1.798-4,4.008-4h-0.143c2.211,0,4.01,1.795,4.01,4v13.812
			c0,2.205-1.799,4-4.01,4h0.143C28.823,40.102,27.025,38.307,27.025,36.102z M33.025,22.139c0-1.123-0.916-2.037-2.041-2.037
			h-0.107c-1.125,0-2.039,0.914-2.039,2.037v14.113c0,1.121,0.914,2.037,2.039,2.037h0.107c1.125,0,2.041-0.916,2.041-2.037V22.139z
			"/>
	</g>
	<g>
		<path fill="#414042" d="M14.303,40.215C12.297,40.215,11,39.02,11,37.17V21.312c0-1.854,1.291-3.055,3.288-3.055
			c1.297,0,2.66,0.529,3.476,1.348l5.826,6.365c0.888,0.889,1.364,2.043,1.364,3.271c0,1.227-0.477,2.381-1.342,3.248l-5.872,6.408
			C16.955,39.689,15.598,40.215,14.303,40.215z M14.238,20.258c-1.301,0-1.301,0.766-1.301,1.055V37.17c0,0.285,0,1.045,1.316,1.045
			c0.771,0,1.617-0.309,2.06-0.752l5.903-6.41c0.467-0.467,0.737-1.119,0.737-1.811c0-0.693-0.271-1.348-0.761-1.836l-5.856-6.365
			C15.865,20.57,15.012,20.258,14.238,20.258z"/>
	</g>
</g>
</svg>
