<?xml version="1.0" encoding="utf-8"?>
<!-- Generator: Adobe Illustrator 15.0.0, SVG Export Plug-In . SVG Version: 6.00 Build 0)  -->
<!DOCTYPE svg PUBLIC "-//W3C//DTD SVG 1.0//EN" "http://www.w3.org/TR/2001/REC-SVG-20010904/DTD/svg10.dtd">
<svg version="1.0" id="Layer_1" xmlns="http://www.w3.org/2000/svg" xmlns:xlink="http://www.w3.org/1999/xlink" x="0px" y="0px"
	 width="52px" height="53px" viewBox="0 0 52 53" enable-background="new 0 0 52 53" xml:space="preserve">
<g>
	<g>
		<path fill="#414042" d="M36.018,29.195h-16.02c-1.619,0-2.936-1.307-2.936-2.912l1.988-8.18c0.464-1.824,1.357-2.783,2.932-2.783
			h16.02c1.618,0,2.936,1.308,2.936,2.914l-1.985,8.179C38.568,27.986,37.592,29.195,36.018,29.195z M18.942,26.452
			c0.05,0.486,0.458,0.867,0.954,0.867h16.145c0.527,0,0.771-0.438,0.959-0.967l1.995-8.293c-0.05-0.484-0.459-0.865-0.954-0.865
			H21.896c-0.529,0-0.834,0.438-0.959,0.965L18.942,26.452z"/>
	</g>
	<path fill="#414042" d="M19,26.275V12.26c0-0.553,0.458-1.003,1.021-1.003h4.382l1.723,2.447c0.169,0.339,0.517,0.553,0.896,0.553
		h7.957c0.563,0,1.021,0.45,1.021,1.003v0.997h1.969v-1.016c0-1.65-1.354-2.953-3.018-2.953h-7.328l-1.72-2.479
		c-0.169-0.338-0.515-0.552-0.894-0.552h-4.992c-1.664,0-3.018,1.344-3.018,2.995v13.981L19,26.275z"/>
</g>
</svg>
