<?xml version="1.0" encoding="utf-8"?>
<!-- Generator: Adobe Illustrator 15.0.0, SVG Export Plug-In . SVG Version: 6.00 Build 0)  -->
<!DOCTYPE svg PUBLIC "-//W3C//DTD SVG 1.0//EN" "http://www.w3.org/TR/2001/REC-SVG-20010904/DTD/svg10.dtd">
<svg version="1.0" id="Layer_1" xmlns="http://www.w3.org/2000/svg" xmlns:xlink="http://www.w3.org/1999/xlink" x="0px" y="0px"
	 width="52px" height="53px" viewBox="0 0 52 53" enable-background="new 0 0 52 53" xml:space="preserve">
<g>
	<path fill="#414042" d="M28.396,17.258h-1.354h-4.121c-2.713,0-4.922,2.201-4.922,4.906v14.137c0,2.705,2.209,4.906,4.922,4.906
		h10.146c2.717,0,4.922-2.201,4.922-4.906v-8.094v-1.398L28.396,17.258z M34.711,26.342h-2.771c-1.672,0-3.029-1.363-3.029-3.039
		v-2.767L34.711,26.342z M36.012,36.359c0,1.613-1.311,2.928-2.922,2.928H22.9c-1.609,0-2.92-1.312-2.92-2.928V22.105
		c0-1.613,1.311-2.928,2.92-2.928h4.143v4.131c0,2.701,2.193,4.898,4.891,4.898h4.078V36.359L36.012,36.359z"/>
	<g>
		<rect x="25.021" y="31.289" fill="#414042" width="5.979" height="1.928"/>
	</g>
</g>
</svg>
