<?xml version="1.0" encoding="utf-8"?>
<!-- Generator: Adobe Illustrator 15.0.0, SVG Export Plug-In . SVG Version: 6.00 Build 0)  -->
<!DOCTYPE svg PUBLIC "-//W3C//DTD SVG 1.0//EN" "http://www.w3.org/TR/2001/REC-SVG-20010904/DTD/svg10.dtd">
<svg version="1.0" id="Layer_1" xmlns="http://www.w3.org/2000/svg" xmlns:xlink="http://www.w3.org/1999/xlink" x="0px" y="0px"
	 width="52px" height="53px" viewBox="0 0 52 53" enable-background="new 0 0 52 53" xml:space="preserve">
<g>
	<path fill="#414042" d="M21.396,9.258h-1.354h-4.12c-2.713,0-4.922,2.201-4.922,4.906v14.135c0,2.705,2.209,4.906,4.922,4.906
		h10.146c2.714,0,4.922-2.201,4.922-4.906v-8.092v-1.398L21.396,9.258z M27.711,18.342h-2.771c-1.672,0-3.03-1.363-3.03-3.041
		v-2.765L27.711,18.342z M29.012,28.359c0,1.613-1.312,2.928-2.922,2.928H15.9c-1.61,0-2.922-1.312-2.922-2.928V14.105
		c0-1.613,1.312-2.928,2.922-2.928h4.142v4.131c0,2.701,2.194,4.898,4.892,4.898h4.078V28.359z"/>
	<g>
		
			<rect x="16.444" y="24.215" transform="matrix(0.7072 0.707 -0.707 0.7072 23.9987 -7.4758)" fill="#414042" width="9.163" height="2.044"/>
	</g>
	<g>
		
			<rect x="16.43" y="24.231" transform="matrix(-0.7071 0.7071 -0.7071 -0.7071 53.7241 28.2526)" fill="#414042" width="9.162" height="2.044"/>
	</g>
</g>
</svg>
