<?xml version="1.0" encoding="utf-8"?>
<!-- Generator: Adobe Illustrator 15.0.0, SVG Export Plug-In . SVG Version: 6.00 Build 0)  -->
<!DOCTYPE svg PUBLIC "-//W3C//DTD SVG 1.0//EN" "http://www.w3.org/TR/2001/REC-SVG-20010904/DTD/svg10.dtd">
<svg version="1.0" id="Layer_1" xmlns="http://www.w3.org/2000/svg" xmlns:xlink="http://www.w3.org/1999/xlink" x="0px" y="0px"
	 width="52px" height="53px" viewBox="0 0 52 53" enable-background="new 0 0 52 53" xml:space="preserve">
<g>
	<path fill="#414042" d="M29.4,15.258h-1.354h-4.12c-2.713,0-4.922,2.201-4.922,4.906v14.135c0,2.705,2.209,4.906,4.922,4.906
		h10.146c2.714,0,4.922-2.201,4.922-4.906v-8.092v-1.398L29.4,15.258z M35.716,24.342h-2.771c-1.672,0-3.032-1.363-3.032-3.041
		v-2.765L35.716,24.342z M37.016,34.359c0,1.613-1.311,2.928-2.92,2.928H23.907c-1.61,0-2.923-1.312-2.923-2.928V20.105
		c0-1.613,1.312-2.928,2.923-2.928h4.142v4.131c0,2.701,2.194,4.898,4.893,4.898h4.078v8.152H37.016L37.016,34.359z"/>
	<g>
		
			<rect x="26.88" y="29.334" transform="matrix(0.7072 -0.707 0.707 0.7072 -12.6211 30.1201)" fill="#414042" width="6.347" height="1.927"/>
	</g>
	<g>
		
			<rect x="26.785" y="29.173" transform="matrix(0.7071 -0.7071 0.7071 0.7071 -13.902 28.7412)" fill="#414042" width="1.916" height="3.957"/>
	</g>
</g>
</svg>
