<?xml version="1.0" encoding="utf-8"?>
<!-- Generator: Adobe Illustrator 15.0.0, SVG Export Plug-In . SVG Version: 6.00 Build 0)  -->
<!DOCTYPE svg PUBLIC "-//W3C//DTD SVG 1.0//EN" "http://www.w3.org/TR/2001/REC-SVG-20010904/DTD/svg10.dtd">
<svg version="1.0" id="Layer_1" xmlns="http://www.w3.org/2000/svg" xmlns:xlink="http://www.w3.org/1999/xlink" x="0px" y="0px"
	 width="52px" height="53px" viewBox="0 0 52 53" enable-background="new 0 0 52 53" xml:space="preserve">
<g>
	<g>
		<path fill="#414042" d="M35.486,32.918h-0.945c-0.547,0-0.994-0.437-1-0.978l-0.031-3.106H19.459l0.002,3.115
			c0.003,0.266-0.07,0.485-0.258,0.676c-0.188,0.188-0.444,0.293-0.711,0.293h-0.979c-1.662,0-3.016-1.41-3.016-3.142v-6.596
			c0-1.73,1.354-3.141,3.016-3.141h17.973c1.662,0,3.014,1.409,3.014,3.141v6.596C38.5,31.508,37.148,32.918,35.486,32.918z
			 M17.514,21.958c-0.56,0-1.014,0.529-1.014,1.182v6.68c0,0.65,0.454,1.182,1.014,1.182h0.02l0.016-3.018
			c-0.004-0.268,0.055-0.496,0.24-0.688C17.977,27.107,18.232,27,18.5,27h16c0.547,0,0.994,0.44,1,0.99L35.484,31
			c0.537-0.027,1.016-0.547,1.016-1.181v-6.682c0-0.65-0.455-1.181-1.014-1.181L17.514,21.958L17.514,21.958z"/>
	</g>
	<rect x="20.583" y="30.125" fill="#414042" width="1.833" height="6.834"/>
	<rect x="23.584" y="30.125" fill="#414042" width="1.832" height="6.834"/>
	<rect x="27.584" y="30.125" fill="#414042" width="1.832" height="6.834"/>
	<rect x="30.584" y="30.125" fill="#414042" width="1.832" height="6.834"/>
	<g>
		<path fill="#414042" d="M33.438,21.932H19.562c-0.553,0-1-0.442-1-0.988v-4.889c0-1.615,1.309-2.93,2.914-2.93h10.047
			c1.605,0,2.914,1.314,2.914,2.93v4.889C34.438,21.487,33.99,21.932,33.438,21.932z M20.479,20.119h12.084v-4.164
			c0-0.561-0.418-1.018-0.932-1.018H21.408c-0.514,0-0.93,0.457-0.93,1.018V20.119L20.479,20.119z"/>
	</g>
	<rect x="31.516" y="24" fill="#414042" width="2.953" height="0.906"/>
</g>
</svg>
