<?xml version="1.0" encoding="utf-8"?>
<!-- Generator: Adobe Illustrator 15.0.0, SVG Export Plug-In . SVG Version: 6.00 Build 0)  -->
<!DOCTYPE svg PUBLIC "-//W3C//DTD SVG 1.0//EN" "http://www.w3.org/TR/2001/REC-SVG-20010904/DTD/svg10.dtd">
<svg version="1.0" id="Layer_1" xmlns="http://www.w3.org/2000/svg" xmlns:xlink="http://www.w3.org/1999/xlink" x="0px" y="0px"
	 width="52px" height="53px" viewBox="0 0 52 53" enable-background="new 0 0 52 53" xml:space="preserve">
<g>
	<path fill="#414042" d="M28.396,16.257h-1.354h-4.12c-2.713,0-4.922,2.201-4.922,4.907v14.134c0,2.705,2.208,4.906,4.922,4.906
		h10.146c2.714,0,4.922-2.201,4.922-4.906v-8.092v-1.398L28.396,16.257z M34.711,25.34h-2.771c-1.672,0-3.031-1.363-3.031-3.039
		v-2.765L34.711,25.34z M36.011,35.359c0,1.613-1.311,2.927-2.921,2.927H22.901c-1.611,0-2.921-1.313-2.921-2.927V21.106
		c0-1.614,1.311-2.928,2.921-2.928h4.141v4.13c0,2.701,2.194,4.898,4.892,4.898h4.077V35.359z"/>
	<g>
		<rect x="23.021" y="29.289" fill="#414042" width="9.979" height="1.926"/>
	</g>
	<g>
		<rect x="23.021" y="33.289" fill="#414042" width="9.979" height="1.926"/>
	</g>
</g>
</svg>
