<?xml version="1.0" encoding="utf-8"?>
<!-- Generator: Adobe Illustrator 15.0.0, SVG Export Plug-In . SVG Version: 6.00 Build 0)  -->
<!DOCTYPE svg PUBLIC "-//W3C//DTD SVG 1.0//EN" "http://www.w3.org/TR/2001/REC-SVG-20010904/DTD/svg10.dtd">
<svg version="1.0" id="Layer_1" xmlns="http://www.w3.org/2000/svg" xmlns:xlink="http://www.w3.org/1999/xlink" x="0px" y="0px"
	 width="52px" height="53px" viewBox="0 0 52 53" enable-background="new 0 0 52 53" xml:space="preserve">
<g>
	<g>
		<path fill="#414042" d="M23.404,12.258H22.05h-4.118c-2.715,0-4.924,2.201-4.924,4.906v14.135c0,2.705,2.209,4.906,4.924,4.906
			h10.146c2.714,0,4.922-2.201,4.922-4.906v-8.092v-1.398L23.404,12.258z M29.721,21.342H26.95c-1.673,0-3.032-1.363-3.032-3.041
			v-2.764L29.721,21.342z M31.021,31.359c0,1.613-1.312,2.928-2.922,2.928H17.91c-1.61,0-2.922-1.312-2.922-2.928V17.105
			c0-1.613,1.312-2.928,2.922-2.928h4.142v4.131c0,2.701,2.194,4.898,4.892,4.898h4.078V31.359L31.021,31.359z"/>
	</g>
	<g>
		<path fill="#434343" d="M23.034,32.227c-0.043,0-0.086-0.008-0.127-0.021c-0.156-0.053-3.863-2.383-3.863-5.033
			c0-1.016,0.979-1.842,2.183-1.842c0.74,0,1.387,0.641,1.783,1.131c0.391-0.49,1.068-1.131,1.809-1.131
			c1.193,0,2.164,0.82,2.164,1.826c0,2.697-3.666,4.998-3.822,5.051C23.119,32.219,23.076,32.227,23.034,32.227z"/>
	</g>
</g>
</svg>
