<?xml version="1.0" encoding="utf-8"?>
<!-- Generator: Adobe Illustrator 15.0.0, SVG Export Plug-In . SVG Version: 6.00 Build 0)  -->
<!DOCTYPE svg PUBLIC "-//W3C//DTD SVG 1.0//EN" "http://www.w3.org/TR/2001/REC-SVG-20010904/DTD/svg10.dtd">
<svg version="1.0" id="Layer_1" xmlns="http://www.w3.org/2000/svg" xmlns:xlink="http://www.w3.org/1999/xlink" x="0px" y="0px"
	 width="52px" height="53px" viewBox="0 0 52 53" enable-background="new 0 0 52 53" xml:space="preserve">
<g>
	<g>
		<path fill="#414042" d="M13.125,32.258V16.445c0-2.203,1.799-4,4.009-4h1.858c2.21,0,4.008,1.797,4.008,4v15.812
			c0,2.205-1.798,4-4.008,4h-1.858C14.924,36.258,13.125,34.463,13.125,32.258z M21.125,16.295c0-1.123-0.915-2.037-2.04-2.037
			h-2.107c-1.125,0-2.04,0.914-2.04,2.037v16.113c0,1.121,0.915,2.035,2.04,2.035h2.107c1.125,0,2.04-0.914,2.04-2.035V16.295z"/>
	</g>
	<g>
		<path fill="#414042" d="M25.125,32.258V16.445c0-2.203,1.799-4,4.008-4h1.859c2.209,0,4.008,1.797,4.008,4v15.812
			c0,2.205-1.799,4-4.008,4h-1.859C26.924,36.258,25.125,34.463,25.125,32.258z M33.125,16.295c0-1.123-0.915-2.037-2.04-2.037
			h-2.106c-1.125,0-2.041,0.914-2.041,2.037v16.113c0,1.121,0.916,2.035,2.041,2.035h2.106c1.125,0,2.04-0.914,2.04-2.035V16.295z"
			/>
	</g>
</g>
</svg>
