<?xml version="1.0" encoding="utf-8"?>
<!-- Generator: Adobe Illustrator 15.0.0, SVG Export Plug-In . SVG Version: 6.00 Build 0)  -->
<!DOCTYPE svg PUBLIC "-//W3C//DTD SVG 1.0//EN" "http://www.w3.org/TR/2001/REC-SVG-20010904/DTD/svg10.dtd">
<svg version="1.0" id="Layer_1" xmlns="http://www.w3.org/2000/svg" xmlns:xlink="http://www.w3.org/1999/xlink" x="0px" y="0px"
	 width="52px" height="53px" viewBox="0 0 52 53" enable-background="new 0 0 52 53" xml:space="preserve">
<g>
	<g>
		<path fill="#434343" d="M34.716,36.258H11.224L11.14,35.35c-0.02-0.221-0.459-5.395,2.09-8.203
			c1.067-1.176,2.475-1.771,4.183-1.771h0.464l0.297,0.357c1.299,1.557,2.66,2.635,4.869,2.635c2.148,0,3.317-1.002,4.686-2.663
			l0.297-0.362h0.468c2.016,0,3.61,0.679,4.737,2.017c2.442,2.9,1.656,7.854,1.621,8.062L34.716,36.258z M12.936,34.366h20.102
			c0.094-1.394,0.077-4.146-1.281-5.788c-0.67-0.808-1.587-1.246-2.799-1.332c-1.388,1.639-3.118,3.062-6.003,3.062
			c-2.952,0-4.747-1.471-6.092-3.023c-0.943,0.086-1.698,0.458-2.298,1.131C13.133,30.025,12.935,32.891,12.936,34.366z"/>
	</g>
	<g>
		<path fill="#434343" d="M23.229,26.263c-3.493,0-5.943-5.432-5.943-8.371c0-3.078,2.666-5.582,5.943-5.582
			s5.942,2.504,5.942,5.582C29.172,20.832,26.723,26.263,23.229,26.263z M23.183,14.101c-2.285,0-4.145,1.688-4.145,3.764
			c0,2.338,2.13,6.686,4.145,6.686s4.144-4.348,4.144-6.686C27.326,15.79,25.468,14.101,23.183,14.101z"/>
	</g>
</g>
</svg>
