<?xml version="1.0" encoding="utf-8"?>
<!-- Generator: Adobe Illustrator 15.0.0, SVG Export Plug-In . SVG Version: 6.00 Build 0)  -->
<!DOCTYPE svg PUBLIC "-//W3C//DTD SVG 1.0//EN" "http://www.w3.org/TR/2001/REC-SVG-20010904/DTD/svg10.dtd">
<svg version="1.0" id="Layer_1" xmlns="http://www.w3.org/2000/svg" xmlns:xlink="http://www.w3.org/1999/xlink" x="0px" y="0px"
	 width="52px" height="53px" viewBox="0 0 52 53" enable-background="new 0 0 52 53" xml:space="preserve">
<g>
	<path fill="none" stroke="#414042" stroke-width="2" stroke-miterlimit="10" d="M23.016,16.258L23.016,16.258
		c-5.703,0-10.395,1.566-10.959,5.607C12.621,17.824,17.312,16.258,23.016,16.258z"/>
	<path fill="none" stroke="#414042" stroke-width="2" stroke-miterlimit="10" d="M33.977,21.865
		c-0.564-4.041-5.256-5.607-10.959-5.607c0,0,0,0-0.002,0C28.721,16.258,33.412,17.824,33.977,21.865z"/>
	<path fill="none" stroke="#414042" stroke-width="2" stroke-miterlimit="10" d="M28.626,25.217c0.508,0,1.323,0,1.778,0
		c1.383,0,3.629-0.084,3.629-2.51c0-0.291-0.02-0.572-0.057-0.842c-0.564-4.041-5.256-5.607-10.961-5.607
		c-5.701,0-10.395,1.566-10.959,5.607C12.02,22.135,12,22.416,12,22.707c0,2.426,2.246,2.51,3.629,2.51c0.454,0,1.292,0,1.799,0
		c0.652,0,1.412-0.711,1.604-1.395v-1.605c0-0.553,0.411-1,0.922-1h6.147c0.51,0,0.922,0.447,0.922,1v1.605
		C27.213,24.504,27.975,25.217,28.626,25.217z"/>
	<path fill="#414042" d="M19.99,29.258c0,0.553-0.455,1-1.016,1h-1.929c-0.562,0-1.017-0.447-1.017-1v-1c0-0.553,0.455-1,1.017-1
		h1.929c0.561,0,1.016,0.447,1.016,1V29.258z"/>
	<path fill="#414042" d="M29.99,29.258c0,0.553-0.455,1-1.016,1h-1.929c-0.562,0-1.017-0.447-1.017-1v-1c0-0.553,0.455-1,1.017-1
		h1.929c0.561,0,1.016,0.447,1.016,1V29.258z"/>
	<path fill="#414042" d="M29.99,33.258c0,0.553-0.455,1-1.016,1h-1.929c-0.562,0-1.017-0.447-1.017-1v-1c0-0.553,0.455-1,1.017-1
		h1.929c0.561,0,1.016,0.447,1.016,1V33.258z"/>
	<path fill="#414042" d="M29.99,37.258c0,0.553-0.455,1-1.016,1h-1.929c-0.562,0-1.017-0.447-1.017-1v-1c0-0.553,0.455-1,1.017-1
		h1.929c0.561,0,1.016,0.447,1.016,1V37.258z"/>
	<path fill="#414042" d="M24.99,29.258c0,0.553-0.455,1-1.016,1h-1.929c-0.562,0-1.017-0.447-1.017-1v-1c0-0.553,0.455-1,1.017-1
		h1.929c0.561,0,1.016,0.447,1.016,1V29.258z"/>
	<path fill="#414042" d="M24.99,33.258c0,0.553-0.455,1-1.016,1h-1.929c-0.562,0-1.017-0.447-1.017-1v-1c0-0.553,0.455-1,1.017-1
		h1.929c0.561,0,1.016,0.447,1.016,1V33.258z"/>
	<path fill="#414042" d="M24.99,37.258c0,0.553-0.455,1-1.016,1h-1.929c-0.562,0-1.017-0.447-1.017-1v-1c0-0.553,0.455-1,1.017-1
		h1.929c0.561,0,1.016,0.447,1.016,1V37.258z"/>
	<path fill="#414042" d="M19.99,33.258c0,0.553-0.455,1-1.016,1h-1.929c-0.562,0-1.017-0.447-1.017-1v-1c0-0.553,0.455-1,1.017-1
		h1.929c0.561,0,1.016,0.447,1.016,1V33.258z"/>
	<path fill="#414042" d="M19.99,37.258c0,0.553-0.455,1-1.016,1h-1.929c-0.562,0-1.017-0.447-1.017-1v-1c0-0.553,0.455-1,1.017-1
		h1.929c0.561,0,1.016,0.447,1.016,1V37.258z"/>
</g>
</svg>
