<?xml version="1.0" encoding="utf-8"?>
<!-- Generator: Adobe Illustrator 15.0.0, SVG Export Plug-In . SVG Version: 6.00 Build 0)  -->
<!DOCTYPE svg PUBLIC "-//W3C//DTD SVG 1.0//EN" "http://www.w3.org/TR/2001/REC-SVG-20010904/DTD/svg10.dtd">
<svg version="1.0" id="Layer_1" xmlns="http://www.w3.org/2000/svg" xmlns:xlink="http://www.w3.org/1999/xlink" x="0px" y="0px"
	 width="52px" height="53px" viewBox="0 0 52 53" enable-background="new 0 0 52 53" xml:space="preserve">
<g>
	<g>
		<path fill="#414042" d="M35.287,39.223c-4,0-8.225-3.391-11.062-6.232c-5.904-5.918-7.687-11.186-5.014-14.83
			c0.204-0.279,0.438-0.553,0.695-0.812c0.723-0.723,1.541-1.09,2.429-1.09c1.746,0,3.188,1.445,3.962,2.223l0.953,0.953
			c0.924,0.926,0.98,2.609,0.456,3.602l-0.177,0.242L26.3,24.506c-0.03,0.031-0.026,0.084,0.009,0.117l6.332,6.307l1.521-1.43
			c0.409-0.219,0.912-0.201,1.448-0.201c0.861,0,1.646,0.156,2.146,0.66l0.952,0.953c0.748,0.75,1.497,1.578,1.908,2.545
			c0.602,1.41,0.329,2.744-0.781,3.857c-0.256,0.256-0.526,0.488-0.812,0.695C37.936,38.816,36.677,39.223,35.287,39.223z
			 M22.336,18.273c-0.341,0-0.669,0.164-1.007,0.502c-0.187,0.186-0.353,0.379-0.497,0.574c-2.818,3.848,2.43,9.824,4.814,12.217
			c3.633,3.639,7.058,5.643,9.641,5.643c0.966,0,1.8-0.268,2.551-0.82c0.198-0.145,0.393-0.311,0.575-0.498
			c0.524-0.523,0.627-1,0.354-1.643c-0.316-0.742-2.435-2.863-2.435-2.863c-0.099-0.098-0.385-0.201-0.726-0.201
			c-0.166,0-0.303,0.023-0.4,0.059l-1.098,1.096c-0.787,0.791-2.168,0.787-2.961-0.01l-6.226-6.236
			c-0.856-0.857-0.862-2.188-0.047-3.004l1.097-1.1c0.118-0.365,0.028-0.949-0.146-1.127C25.829,20.859,23.249,18.273,22.336,18.273
			z"/>
	</g>
	<path fill="#414042" d="M32.512,25.463l3.481,0.701c0.54,0.107,1.067-0.24,1.178-0.783c0.111-0.541-0.241-1.068-0.782-1.178
		l-1.697-0.342c0.033-0.025,0.07-0.037,0.102-0.066l2.857-2.857c0.391-0.391,0.392-1.021,0-1.414
		c-0.393-0.391-1.023-0.346-1.416,0.045l-2.856,2.857c-0.026,0.027-0.037,0.062-0.062,0.092l-0.349-1.738
		c-0.11-0.539-0.641-0.889-1.181-0.775c-0.198,0.041-0.372,0.137-0.505,0.271c-0.23,0.229-0.345,0.566-0.273,0.908l0.722,3.5
		C31.811,25.076,32.118,25.383,32.512,25.463z"/>
</g>
</svg>
