<?xml version="1.0" encoding="utf-8"?>
<!-- Generator: Adobe Illustrator 15.0.0, SVG Export Plug-In . SVG Version: 6.00 Build 0)  -->
<!DOCTYPE svg PUBLIC "-//W3C//DTD SVG 1.0//EN" "http://www.w3.org/TR/2001/REC-SVG-20010904/DTD/svg10.dtd">
<svg version="1.0" id="Layer_1" xmlns="http://www.w3.org/2000/svg" xmlns:xlink="http://www.w3.org/1999/xlink" x="0px" y="0px"
	 width="52px" height="53px" viewBox="0 0 52 53" enable-background="new 0 0 52 53" xml:space="preserve">
<g>
	<path fill="#414042" d="M33.357,38.258c-4,0-8.226-3.391-11.062-6.232c-5.904-5.918-7.688-11.186-5.014-14.83
		c0.203-0.279,0.438-0.555,0.693-0.812c0.725-0.723,1.543-1.09,2.43-1.09c1.746,0,3.188,1.445,3.962,2.223l0.952,0.953
		c0.926,0.926,0.981,2.609,0.457,3.602L25.6,22.312l-1.229,1.229c-0.029,0.031-0.024,0.084,0.008,0.117l6.333,6.307l1.375-1.297
		c0.411-0.219,0.912-0.334,1.449-0.334c0.861,0,1.646,0.289,2.146,0.793l1.096,0.82c0.748,0.75,1.498,1.578,1.908,2.545
		c0.603,1.41,0.33,2.744-0.781,3.855c-0.256,0.258-0.527,0.49-0.809,0.697C36.005,37.85,34.747,38.258,33.357,38.258z
		 M20.406,17.307c-0.342,0-0.67,0.164-1.008,0.502c-0.187,0.186-0.354,0.381-0.496,0.576c-2.818,3.848,2.429,9.824,4.812,12.215
		c3.635,3.641,7.059,5.645,9.643,5.645c0.966,0,1.8-0.27,2.551-0.82c0.197-0.145,0.392-0.311,0.574-0.498
		c0.524-0.523,0.627-1,0.354-1.643c-0.314-0.742-2.434-2.863-2.434-2.863c-0.098-0.098-0.385-0.201-0.725-0.201
		c-0.166,0-0.304,0.023-0.402,0.059l-1.096,1.096c-0.787,0.791-2.168,0.787-2.961-0.01l-6.227-6.236
		c-0.855-0.857-0.861-2.188-0.047-3.004l1.096-1.1c0.12-0.365,0.029-0.949-0.146-1.127C23.898,19.893,21.318,17.307,20.406,17.307z"
		/>
</g>
</svg>
