<?xml version="1.0" encoding="utf-8"?>
<!-- Generator: Adobe Illustrator 15.0.0, SVG Export Plug-In . SVG Version: 6.00 Build 0)  -->
<!DOCTYPE svg PUBLIC "-//W3C//DTD SVG 1.0//EN" "http://www.w3.org/TR/2001/REC-SVG-20010904/DTD/svg10.dtd">
<svg version="1.0" id="Layer_1" xmlns="http://www.w3.org/2000/svg" xmlns:xlink="http://www.w3.org/1999/xlink" x="0px" y="0px"
	 width="52px" height="53px" viewBox="0 0 52 53" enable-background="new 0 0 52 53" xml:space="preserve">
<g>
	<g>
		<path fill="#414042" d="M32.895,36.248H15.014c-1.662,0-3.014-1.355-3.014-3.023V20.279c0-1.666,1.352-3.021,3.014-3.021h17.881
			c1.662,0,3.015,1.354,3.015,3.021v12.945C35.907,34.893,34.557,36.248,32.895,36.248z M14.993,19.257
			c-0.563,0-1.024,0.461-1.024,1.027v13.027c0,0.567,0.461,1.028,1.024,1.028h18.045c0.563,0,1.024-0.461,1.024-1.028V20.284
			c0-0.566-0.461-1.027-1.024-1.027H14.993z"/>
	</g>
	<g>
		<polygon fill="#414042" points="23.021,31.008 23.012,31.008 23.012,34.217 23.927,34.217 23.927,31.241 24.941,31.241 
			24.941,26.218 23.021,26.218 		"/>
		<polygon fill="#414042" points="13.594,25.278 13.594,26.214 15.021,26.214 15.021,31.008 15.012,31.008 15.012,34.236 
			15.927,34.236 15.927,31.258 16.927,31.258 16.927,26.214 19.021,26.214 19.021,31.241 19.029,31.241 19.029,34.195 
			19.927,34.195 19.927,31.241 20.941,31.241 20.941,26.214 27.021,26.214 27.021,31.209 28.052,31.209 28.052,34.217 
			28.927,34.217 28.927,31.209 28.975,31.209 28.975,26.214 31.018,26.214 31.018,31.209 32.032,31.209 32.032,34.236 
			32.927,34.236 32.927,31.209 32.975,31.209 32.975,26.214 34.532,26.214 34.532,25.278 		"/>
	</g>
</g>
</svg>
