<?xml version="1.0" encoding="utf-8"?>
<!-- Generator: Adobe Illustrator 15.0.0, SVG Export Plug-In . SVG Version: 6.00 Build 0)  -->
<!DOCTYPE svg PUBLIC "-//W3C//DTD SVG 1.0//EN" "http://www.w3.org/TR/2001/REC-SVG-20010904/DTD/svg10.dtd">
<svg version="1.0" id="Layer_1" xmlns="http://www.w3.org/2000/svg" xmlns:xlink="http://www.w3.org/1999/xlink" x="0px" y="0px"
	 width="52px" height="53px" viewBox="0 0 52 53" enable-background="new 0 0 52 53" xml:space="preserve">
<g>
	<g>
		<g>
			<path fill="#434343" d="M31.191,33.258c-0.353,0-0.812-0.125-1.659-0.359c-0.898-0.25-2.128-0.594-2.861-0.594
				c-0.697,0-1.575,0.318-2.28,0.572c-0.607,0.223-1.046,0.381-1.448,0.381c-1.052,0-1.949-0.771-2.257-1.846
				c-1.955-0.762-2.908-1.84-3.998-3.072l-0.469-0.526c-0.346-0.384-1.165-1.817-1.165-2.648v-1.784c0-0.643,0-2.541,2.424-2.707
				c0.058-0.088,0.125-0.198,0.192-0.308c-0.056-0.022-0.111-0.05-0.164-0.08c-0.4-0.226-0.653-0.597-0.695-1.017
				c-0.053-0.542,0.235-1.084,0.857-1.611c0.667-0.566,1.295-0.865,2.101-1.002c0.455-0.076,0.945-0.088,1.42-0.048
				c1.696-0.989,3.755-1.433,6.299-1.305c3.636,0.183,6.84,1.932,8.488,4.601c1.045,0.219,2.996,0.808,2.996,2.121
				c0,0.922-0.724,1.691-1.844,2.045c-0.045,3.271-1.251,5.598-3.591,6.928c-0.05,0.477-0.209,1.092-0.663,1.575
				C32.583,32.885,32.053,33.258,31.191,33.258z M20.707,18.53l0.631,0.117l-0.982,1.252c-0.369,0.469-0.64,0.919-0.879,1.316
				c-0.449,0.746-0.836,1.391-1.646,1.391c-0.776,0-0.776,0.029-0.776,0.773v1.784c0.031,0.263,0.489,1.15,0.671,1.368l0.479,0.538
				c1.12,1.269,1.859,2.104,3.688,2.698l0.65,0.214l0.031,0.665c0.019,0.412,0.25,0.662,0.369,0.662
				c0.082-0.014,0.468-0.154,0.75-0.256c0.81-0.293,1.92-0.695,2.978-0.695c1.015,0,2.345,0.371,3.412,0.669
				c0.403,0.112,0.956,0.267,1.124,0.282c0.148-0.002,0.184-0.038,0.193-0.051c0.133-0.14,0.175-0.541,0.154-0.765l-0.062-0.672
				l0.624-0.292c2.028-0.952,3.016-2.8,3.016-5.649c0-0.172-0.016-0.34-0.03-0.507l-0.092-0.965l0.991-0.093
				c0.288-0.026,0.511-0.091,0.673-0.16c-0.424-0.176-1.027-0.352-1.355-0.412l-0.558,0.059l-0.315-0.586
				c-1.236-2.293-3.941-3.815-7.059-3.973c-2.27-0.115-4.008,0.275-5.408,1.179l-0.315,0.203l-0.375-0.051
				C21.096,18.551,20.902,18.532,20.707,18.53z"/>
		</g>
	</g>
	<ellipse fill="#434343" cx="21.525" cy="21.771" rx="1.49" ry="1.479"/>
	<path fill="#434343" d="M32.925,21.691c-0.686-0.752-1.774-1.121-2.843-1.482c-1.068-0.361-1.953-0.664-2.873-0.455
		c-1.188,0.269-1.572-0.419-0.626-0.867c1.094-0.518,2.562-0.778,4.004-0.29c1.372,0.465,2.453,1.538,3.155,2.587
		C34.417,22.195,33.811,22.659,32.925,21.691z"/>
</g>
</svg>
