<?xml version="1.0" encoding="utf-8"?>
<!-- Generator: Adobe Illustrator 15.0.0, SVG Export Plug-In . SVG Version: 6.00 Build 0)  -->
<!DOCTYPE svg PUBLIC "-//W3C//DTD SVG 1.0//EN" "http://www.w3.org/TR/2001/REC-SVG-20010904/DTD/svg10.dtd">
<svg version="1.0" id="Layer_1" xmlns="http://www.w3.org/2000/svg" xmlns:xlink="http://www.w3.org/1999/xlink" x="0px" y="0px"
	 width="52px" height="53px" viewBox="0 0 52 53" enable-background="new 0 0 52 53" xml:space="preserve">
<g>
	<path fill="#414042" d="M26.049,38.196c-0.265,0-0.52-0.104-0.707-0.293s-0.293-0.444-0.292-0.711l0.011-2.84l-5.812,0.834
		c-0.048,0.006-0.097,0.01-0.144,0.01c-1.285,0-2.053-0.817-2.053-2.188c0-0.996,0.436-2.037,1.107-2.651
		c0.027-0.024,0.058-0.05,0.088-0.072l1.751-1.271c-0.618-0.291-0.978-0.924-0.978-1.791c0-0.859,0.371-1.76,0.945-2.297
		l1.926-1.914c-0.526-0.27-0.841-0.83-0.841-1.574c0-0.73,0.296-1.471,0.771-1.933l4.372-4.524c0.994-0.968,2.649-0.947,3.592-0.037
		l4.445,4.598c0.435,0.421,0.729,1.169,0.729,1.886c0,0.748-0.312,1.311-0.833,1.582l1.971,1.957
		c0.534,0.498,0.895,1.39,0.895,2.246c0,0.869-0.357,1.506-0.973,1.799l1.78,1.295c0.03,0.021,0.06,0.045,0.089,0.072
		c0.65,0.596,1.071,1.623,1.071,2.617c0,1.379-0.763,2.201-2.041,2.201c-0.048,0-0.096-0.004-0.144-0.01l-5.766-0.836v2.836
		c0,0.553-0.445,1-0.998,1L26.049,38.196C26.051,38.196,26.05,38.196,26.049,38.196z M26.014,32.196
		c0.239,0,0.473,0.086,0.656,0.244c0.221,0.19,0.346,0.469,0.344,0.76l-0.012,3.063l2.012-0.004v-3.063
		c0-0.291,0.127-0.565,0.346-0.756c0.22-0.19,0.511-0.274,0.799-0.233l6.793,0.983c0.007-0.045,0.013-0.108,0.013-0.195
		c0-0.442-0.198-0.907-0.394-1.112l-3.963-2.881c-0.351-0.254-0.496-0.705-0.362-1.117s0.519-0.691,0.95-0.691h1.8
		c-0.007-0.344-0.169-0.682-0.282-0.787l-3.529-3.507c-0.287-0.286-0.375-0.716-0.221-1.091s0.52-0.619,0.926-0.619h1.034
		c-0.03-0.122-0.075-0.207-0.104-0.238l-4.442-4.594c-0.146-0.139-0.556-0.167-0.761,0.034l-4.373,4.527
		c-0.051,0.047-0.109,0.148-0.146,0.271h1.045c0.404,0,0.771,0.243,0.924,0.618c0.156,0.375,0.068,0.806-0.219,1.091l-3.488,3.469
		c-0.168,0.156-0.323,0.498-0.334,0.824l1.811,0.002c0.434,0,0.816,0.278,0.951,0.69c0.134,0.412-0.014,0.863-0.363,1.117
		l-3.939,2.861c-0.215,0.223-0.426,0.693-0.426,1.146c0,0.08,0.004,0.141,0.012,0.184l6.807-0.986
		C25.918,32.2,25.967,32.196,26.014,32.196z"/>
</g>
</svg>
