<?xml version="1.0" encoding="utf-8"?>
<!-- Generator: Adobe Illustrator 15.0.0, SVG Export Plug-In . SVG Version: 6.00 Build 0)  -->
<!DOCTYPE svg PUBLIC "-//W3C//DTD SVG 1.0//EN" "http://www.w3.org/TR/2001/REC-SVG-20010904/DTD/svg10.dtd">
<svg version="1.0" id="Layer_1" xmlns="http://www.w3.org/2000/svg" xmlns:xlink="http://www.w3.org/1999/xlink" x="0px" y="0px"
	 width="52px" height="53px" viewBox="0 0 52 53" enable-background="new 0 0 52 53" xml:space="preserve">
<g>
	<g>
		<path fill="#414042" d="M38.052,26.257h-1.325v-1.875h1.325c0.556,0,1.009-0.6,1.009-1.184v-6.861
			c0-0.584-0.453-1.143-1.009-1.143H20.068c-0.556,0-1.091,0.559-1.091,1.143v6.861c0,0.584,0.535,1.184,1.091,1.184h0.972v1.875
			h-0.972c-1.658,0-3.007-1.371-3.007-3.059v-6.861c0-1.688,1.349-3.059,3.007-3.059h17.984c1.658,0,2.948,1.312,2.948,3v6.86
			C41,24.825,39.71,26.257,38.052,26.257z"/>
	</g>
	<g>
		<path fill="#414042" d="M34.001,31.258h-9.945c-1.652,0-2.995-1.371-2.995-3.06v-4.861c0-1.688,1.343-3.059,2.995-3.059h9.945
			c1.651,0,2.996,1.371,2.996,3.059v4.861C36.997,29.887,35.652,31.258,34.001,31.258z M23.987,22.185
			c-0.562,0-1.02,0.488-1.02,1.088v4.99c0,0.602,0.458,1.088,1.02,1.088h10.115c0.562,0,1.021-0.486,1.021-1.088v-4.99
			c0-0.6-0.458-1.088-1.021-1.088H23.987z"/>
	</g>
	<g>
		<path fill="#414042" d="M35.977,15.195H22.061V11.31c0-1.672,1.341-3.031,2.989-3.031h7.937c1.648,0,2.99,1.359,2.99,3.031V15.195
			z M23.986,13.289h10.053v-2.011c0-0.61-0.454-1.108-1.014-1.108h-8.026c-0.558,0-1.013,0.498-1.013,1.108V13.289z"/>
	</g>
	<rect x="34.102" y="17.376" fill="#414042" width="2.75" height="0.762"/>
	<rect x="25.039" y="24.289" fill="#414042" width="7.906" height="0.969"/>
	<rect x="25.039" y="26.289" fill="#414042" width="7.906" height="0.969"/>
</g>
</svg>
