<?xml version="1.0" encoding="utf-8"?>
<!-- Generator: Adobe Illustrator 15.0.0, SVG Export Plug-In . SVG Version: 6.00 Build 0)  -->
<!DOCTYPE svg PUBLIC "-//W3C//DTD SVG 1.0//EN" "http://www.w3.org/TR/2001/REC-SVG-20010904/DTD/svg10.dtd">
<svg version="1.0" id="Layer_1" xmlns="http://www.w3.org/2000/svg" xmlns:xlink="http://www.w3.org/1999/xlink" x="0px" y="0px"
	 width="52px" height="53px" viewBox="0 0 52 53" enable-background="new 0 0 52 53" xml:space="preserve">
<g>
	<path fill="#414042" d="M37.049,20.298h-0.098v-1.91c0-1.482-1.059-2.719-2.455-2.99c-0.02-0.504-0.154-0.998-0.426-1.438
		c-0.418-0.679-1.072-1.152-1.846-1.336l-9.754-2.263c-0.229-0.055-0.461-0.082-0.693-0.082c-1.383,0-2.551,0.881-2.871,2.229
		l-0.709,2.976c-1.248,0.377-2.164,1.528-2.164,2.905v11.82c0,1.682,1.359,3.049,3.029,3.049H33.92c1.67,0,3.029-1.367,3.029-3.049
		v-1.992h0.098c1.668,0,2.924-1.205,2.924-2.892v-2.055C39.971,21.585,38.717,20.298,37.049,20.298z M20.852,12.97
		c0.105-0.441,0.494-0.75,0.947-0.75c0.076,0,0.152,0.01,0.229,0.027l9.734,2.32c0.252,0.061,0.469,0.217,0.604,0.438
		c0.059,0.093,0.1,0.193,0.123,0.298L20.29,15.327L20.852,12.97z M35.104,30.316c0,0.588-0.471,1.066-1.047,1.066H18.928
		c-0.576,0-1.047-0.479-1.047-1.066V18.28c0-0.588,0.471-1.066,1.047-1.066h15.129c0.576,0,1.047,0.479,1.047,1.066v2.06h-3.963
		c-1.697,0-3.08,1.396-3.08,3.11v1.633c0,1.717,1.383,3.111,3.08,3.111h3.963V30.316z M38.055,25.325
		c0,0.582-0.467,1.057-1.039,1.057h-6.066c-0.572,0-1.039-0.475-1.039-1.057v-2.055c0-0.582,0.467-1.057,1.039-1.057h6.066
		c0.572,0,1.039,0.475,1.039,1.057V25.325z"/>
	<ellipse fill="#414042" cx="31.992" cy="24.278" rx="0.959" ry="0.937"/>
</g>
</svg>
