<?xml version="1.0" encoding="utf-8"?>
<!-- Generator: Adobe Illustrator 15.0.0, SVG Export Plug-In . SVG Version: 6.00 Build 0)  -->
<!DOCTYPE svg PUBLIC "-//W3C//DTD SVG 1.0//EN" "http://www.w3.org/TR/2001/REC-SVG-20010904/DTD/svg10.dtd">
<svg version="1.0" id="Layer_1" xmlns="http://www.w3.org/2000/svg" xmlns:xlink="http://www.w3.org/1999/xlink" x="0px" y="0px"
	 width="52px" height="53px" viewBox="0 0 52 53" enable-background="new 0 0 52 53" xml:space="preserve">
<g>
	<path fill="#434343" d="M38.869,28.258H20.985c-1.646,0-2.985-1.376-2.985-3.067v-1.823c0-1.691,1.339-3.067,2.985-3.067h17.884
		c1.646,0,2.984,1.376,2.984,3.067v1.823C41.854,26.881,40.516,28.258,38.869,28.258z M20.952,22.235
		c-0.551,0-0.999,0.5-0.999,1.115v1.854c0,0.615,0.448,1.115,0.999,1.115h18.034c0.55,0,0.998-0.5,0.998-1.115V23.35
		c0-0.615-0.447-1.115-0.998-1.115H20.952z"/>
</g>
</svg>
