<?xml version="1.0" encoding="utf-8"?>
<!-- Generator: Adobe Illustrator 15.0.0, SVG Export Plug-In . SVG Version: 6.00 Build 0)  -->
<!DOCTYPE svg PUBLIC "-//W3C//DTD SVG 1.0//EN" "http://www.w3.org/TR/2001/REC-SVG-20010904/DTD/svg10.dtd">
<svg version="1.0" id="Layer_1" xmlns="http://www.w3.org/2000/svg" xmlns:xlink="http://www.w3.org/1999/xlink" x="0px" y="0px"
	 width="52px" height="53px" viewBox="0 0 52 53" enable-background="new 0 0 52 53" xml:space="preserve">
<g>
	<path fill="#414042" d="M33.938,19.129v-1.807c0-1.69-1.362-3.065-3.039-3.065H19.04c-1.677,0-3.04,1.375-3.04,3.065v1.807
		c0,1.69,1.363,3.065,3.04,3.065h11.856C32.574,22.195,33.938,20.819,33.938,19.129z M18.992,20.319c-0.581,0-1.055-0.493-1.055-1.1
		v-1.862c0-0.606,0.474-1.1,1.055-1.1h12.016c0.582,0,1.055,0.493,1.055,1.1v1.863c0,0.606-0.473,1.1-1.055,1.1L18.992,20.319
		L18.992,20.319z"/>
	<path fill="#414042" d="M36.999,17.263l-0.944,0.025c-0.009,0-0.017,0-0.022,0c-0.54,0-0.989,0.387-1.003,0.932
		c-0.012,0.543,0.465,0.995,1.003,1.021v5.036l-11.003-0.02l0,0c-0.266,0-0.518,0.105-0.705,0.293
		c-0.188,0.187-0.293,0.441-0.293,0.707v3h-1.034c-0.55,0-0.997,0.447-0.997,1v8c0,0.553,0.447,1,0.998,1h3.995
		c0.551,0,0.997-0.447,0.997-1v-8c0-0.553-0.446-1-0.997-1h-1.009v-2.036l10.99,0.02c0.291,0.025,0.519-0.104,0.707-0.293
		c0.188-0.188,0.293-0.441,0.293-0.707v-6.979C37.975,17.718,37.54,17.275,36.999,17.263z M26.025,36.289h-2.047v-6.078h0.859
		c0.051,0.008,0.096,0.03,0.148,0.03c0.054,0,0.101-0.022,0.152-0.03h0.887V36.289z"/>
</g>
</svg>
