<?xml version="1.0" encoding="utf-8"?>
<!-- Generator: Adobe Illustrator 15.0.0, SVG Export Plug-In . SVG Version: 6.00 Build 0)  -->
<!DOCTYPE svg PUBLIC "-//W3C//DTD SVG 1.0//EN" "http://www.w3.org/TR/2001/REC-SVG-20010904/DTD/svg10.dtd">
<svg version="1.0" id="Layer_1" xmlns="http://www.w3.org/2000/svg" xmlns:xlink="http://www.w3.org/1999/xlink" x="0px" y="0px"
	 width="52px" height="53px" viewBox="0 0 52 53" enable-background="new 0 0 52 53" xml:space="preserve">
<g>
	<g>
		<path fill="#434343" d="M19.772,31.104c-2.249,0-2.532-1.457-2.549-2.084c-0.072-2.637,1.064-3.871,2.162-5.068
			c0.422-0.459,0.859-0.936,1.246-1.512c0.405-0.604,0.567-1.385,0.739-2.209c0.206-0.988,0.439-2.109,1.143-3.102
			c1.294-1.824,3.726-2.871,6.672-2.871c1.877,0,3.746,0.451,5.131,1.237c0.094-0.012,0.31-0.077,0.498-0.137
			c0.302-0.095,0.642-0.199,1.02-0.213l0.129-0.003c0.357,0,0.688,0.058,1.002,0.177c1.273,0.465,2.135,1.719,2.135,3.116
			c0,0.787-0.279,1.601-0.768,2.23c-0.555,0.715-1.326,1.125-2.118,1.125l0,0c-0.192,0-0.671,0.018-0.858-0.029
			c-2.502-0.619-2.804-1.86-3.155-2.938c-0.017-0.055-0.038-0.118-0.06-0.176c-0.166,0.002-0.595,0.101-0.595,0.101
			c-0.138,0.356,0.521,1.827,0.769,2.383c0.14,0.311,0.266,0.592,0.354,0.826c0.384,1.012,0.583,2.059,0.776,3.071l0.09,0.465
			c0.099,0.505,0.275,1,0.447,1.479c0.365,1.015,0.742,2.062,0.127,2.966c-0.631,0.925-1.936,1.05-3.129,1.05
			c-1.549,0-3.1,0.002-4.648,0.006c-1.654,0.002-3.307,0.008-4.959,0.016c-0.177,0.002-0.385,0.02-0.606,0.039
			C20.445,31.076,20.103,31.104,19.772,31.104z M29.154,16.051c-2.285,0-4.194,0.795-5.104,2.127
			c-0.459,0.674-0.631,1.531-0.812,2.44c-0.197,0.981-0.42,2.099-1.056,3.082c-0.478,0.742-0.995,1.328-1.451,1.845
			c-1.016,1.147-1.687,1.905-1.637,3.789c-0.033,0.02,10.306-0.019,11.873-0.019c0.95,0,1.336-0.121,1.471-0.185
			c-0.021-0.25-0.205-0.779-0.33-1.146c-0.191-0.553-0.992-4.344-1.314-5.225c-0.077-0.213-0.189-0.469-0.311-0.752
			c-0.596-1.385-1.338-3.107-0.711-4.404c0.201-0.418,0.629-0.955,1.524-1.141c0.149-0.031,0.288-0.056,0.418-0.07
			C30.918,16.172,30.042,16.051,29.154,16.051z M33.785,17.482c0.158,0.277-0.098,2.805,2.322,2.439
			c0.037-0.006,0.072,0.014,0.105,0.014l0,0c0.18,0,0.381-0.137,0.555-0.377c0.209-0.291,0.336-0.676,0.336-1.029
			c0-0.566-0.336-1.096-0.818-1.283c-0.102-0.039-0.2-0.059-0.322-0.059c-0.176,0.006-0.375,0.072-0.568,0.137
			C34.93,17.479,34.324,17.635,33.785,17.482z"/>
	</g>
	<g>
		<path fill="#434343" d="M33.27,36.139H18.088c-1.597,0-2.896-1.148-2.896-2.562v-1.637c0-1.412,1.299-2.562,2.896-2.562H33.27
			c1.596,0,2.895,1.149,2.895,2.562v1.637C36.164,34.988,34.865,36.139,33.27,36.139z M18.088,31.225
			c-0.496,0-0.899,0.32-0.899,0.715v1.637c0,0.396,0.403,0.719,0.899,0.719H33.27c0.494,0,0.897-0.322,0.897-0.719v-1.637
			c0-0.395-0.403-0.715-0.897-0.715H18.088z"/>
	</g>
</g>
</svg>
