<?xml version="1.0" encoding="utf-8"?>
<!-- Generator: Adobe Illustrator 15.0.0, SVG Export Plug-In . SVG Version: 6.00 Build 0)  -->
<!DOCTYPE svg PUBLIC "-//W3C//DTD SVG 1.0//EN" "http://www.w3.org/TR/2001/REC-SVG-20010904/DTD/svg10.dtd">
<svg version="1.0" id="Layer_1" xmlns="http://www.w3.org/2000/svg" xmlns:xlink="http://www.w3.org/1999/xlink" x="0px" y="0px"
	 width="52px" height="53px" viewBox="0 0 52 53" enable-background="new 0 0 52 53" xml:space="preserve">
<g>
	<g>
		<path fill="#414042" d="M20,39.258h-4c-1.103,0-2-0.896-2-2v-4c0-1.104,0.897-2,2-2h4c1.103,0,2,0.896,2,2v4
			C22,38.361,21.103,39.258,20,39.258z M16,33.258v4h4.001l-0.001-4H16z"/>
	</g>
	<g>
		<path fill="#414042" d="M20,33.258h-4c-1.103,0-2-0.896-2-2v-4c0-1.104,0.897-2,2-2h4c1.103,0,2,0.896,2,2v4
			C22,32.361,21.103,33.258,20,33.258z M16,27.258v4h4.001l-0.001-4H16z"/>
	</g>
	<g>
		<path fill="#414042" d="M20,27.258h-4c-1.103,0-2-0.896-2-2v-4c0-1.104,0.897-2,2-2h4c1.103,0,2,0.896,2,2v4
			C22,26.361,21.103,27.258,20,27.258z M16,21.258v4h4.001l-0.001-4H16z"/>
	</g>
	<g>
		<path fill="#414042" d="M26,27.258h-4c-1.103,0-2-0.896-2-2v-4c0-1.104,0.897-2,2-2h4c1.104,0,2,0.896,2,2v4
			C28,26.361,27.104,27.258,26,27.258z M22,21.258v4h4.001l-0.001-4H22z"/>
	</g>
	<g>
		<path fill="#414042" d="M26,33.258h-4c-1.103,0-2-0.896-2-2v-4c0-1.104,0.897-2,2-2h4c1.104,0,2,0.896,2,2v4
			C28,32.361,27.104,33.258,26,33.258z M22,27.258v4h4.001l-0.001-4H22z"/>
	</g>
	<g>
		<path fill="#414042" d="M26,39.258h-4c-1.103,0-2-0.896-2-2v-4c0-1.104,0.897-2,2-2h4c1.104,0,2,0.896,2,2v4
			C28,38.361,27.104,39.258,26,39.258z M22,33.258v4h4.001l-0.001-4H22z"/>
	</g>
	<g>
		<path fill="#414042" d="M32,39.258h-4c-1.104,0-2-0.896-2-2v-4c0-1.104,0.896-2,2-2h4c1.104,0,2,0.896,2,2v4
			C34,38.361,33.104,39.258,32,39.258z M28,33.258v4h4.001l-0.001-4H28z"/>
	</g>
	<g>
		<path fill="#414042" d="M32,33.258h-4c-1.104,0-2-0.896-2-2v-4c0-1.104,0.896-2,2-2h4c1.104,0,2,0.896,2,2v4
			C34,32.361,33.104,33.258,32,33.258z M28,27.258v4h4.001l-0.001-4H28z"/>
	</g>
	<g>
		<path fill="#414042" d="M36,23.258h-4c-1.104,0-2-0.896-2-2v-4c0-1.104,0.896-2,2-2h4c1.104,0,2,0.896,2,2v4
			C38,22.361,37.104,23.258,36,23.258z M32,17.258v4h4.001l-0.001-4H32z"/>
	</g>
</g>
</svg>
