<?xml version="1.0" encoding="utf-8"?>
<!-- Generator: Adobe Illustrator 15.0.0, SVG Export Plug-In . SVG Version: 6.00 Build 0)  -->
<!DOCTYPE svg PUBLIC "-//W3C//DTD SVG 1.0//EN" "http://www.w3.org/TR/2001/REC-SVG-20010904/DTD/svg10.dtd">
<svg version="1.0" id="Layer_1" xmlns="http://www.w3.org/2000/svg" xmlns:xlink="http://www.w3.org/1999/xlink" x="0px" y="0px"
	 width="52px" height="53px" viewBox="0 0 52 53" enable-background="new 0 0 52 53" xml:space="preserve">
<g>
	<g>
		<path fill="#434343" d="M32.938,41.258H15c-1.654,0-3-1.347-3-3v-18c0-1.654,1.346-3,3-3h13.938c4.81,0,7,3.629,7,7v14
			C35.938,39.911,34.591,41.258,32.938,41.258z M14.828,19.257c-0.561,0-1.016,0.449-1.016,1v18c0,0.551,0.455,1,1.016,1h18.218
			c0.562,0,1.017-0.449,1.017-1v-14c0-2.488-1.57-5-5.078-5H14.828z"/>
	</g>
	<g>
		<path fill="#434343" d="M31.958,41.174H16.02v-8.849c0-1.61,1.34-2.922,2.988-2.922h9.963c1.646,0,2.987,1.312,2.987,2.922V41.174
			z M17.896,39.445h12.125v-7.229c0-0.562-0.453-1.021-1.012-1.021H18.906c-0.557,0-1.01,0.459-1.01,1.021V39.445z"/>
	</g>
	<g>
		<path fill="#434343" d="M29.917,26.257H18.042v-8.938h11.875V26.257z M19.885,24.257h8.178v-5.094h-8.178V24.257z"/>
	</g>
	<g>
		<rect x="21.062" y="18.695" fill="#434343" width="1.854" height="4.5"/>
	</g>
</g>
</svg>
