<?xml version="1.0" encoding="utf-8"?>
<!-- Generator: Adobe Illustrator 15.0.0, SVG Export Plug-In . SVG Version: 6.00 Build 0)  -->
<!DOCTYPE svg PUBLIC "-//W3C//DTD SVG 1.0//EN" "http://www.w3.org/TR/2001/REC-SVG-20010904/DTD/svg10.dtd">
<svg version="1.0" id="Layer_1" xmlns="http://www.w3.org/2000/svg" xmlns:xlink="http://www.w3.org/1999/xlink" x="0px" y="0px"
	 width="52px" height="53px" viewBox="0 0 52 53" enable-background="new 0 0 52 53" xml:space="preserve">
<g>
	<g>
		<path fill="#414042" d="M29.436,30.281c-4.664-0.039-8.426-3.863-8.387-8.524s3.867-8.421,8.53-8.381s8.425,3.864,8.384,8.525
			C37.924,26.563,34.098,30.321,29.436,30.281z M29.59,15.328c-3.622-0.031-6.595,2.887-6.625,6.501
			c-0.031,3.616,2.891,6.584,6.514,6.616c3.621,0.029,6.592-2.888,6.623-6.504C36.133,18.326,33.211,15.36,29.59,15.328z"/>
	</g>
	<path fill="#414042" d="M20.539,28.567c-0.15,0.075-0.296,0.168-0.424,0.293l-5.723,5.625c-0.64,0.626-0.646,1.649-0.021,2.288
		c0.627,0.639,1.649,0.646,2.288,0.02l5.723-5.625c0.126-0.125,0.223-0.268,0.301-0.418C21.843,30.157,21.116,29.418,20.539,28.567z
		"/>
	<g>
		<path fill="#414042" d="M33.99,21.415c-0.277-0.003-0.498-0.229-0.496-0.505c0.014-1.631-1.303-2.969-2.934-2.982
			c-0.276-0.003-0.498-0.229-0.496-0.505s0.229-0.498,0.504-0.495c2.184,0.019,3.943,1.809,3.926,3.991
			C34.492,21.195,34.266,21.417,33.99,21.415z"/>
	</g>
</g>
</svg>
