<?xml version="1.0" encoding="utf-8"?>
<!-- Generator: Adobe Illustrator 15.0.0, SVG Export Plug-In . SVG Version: 6.00 Build 0)  -->
<!DOCTYPE svg PUBLIC "-//W3C//DTD SVG 1.0//EN" "http://www.w3.org/TR/2001/REC-SVG-20010904/DTD/svg10.dtd">
<svg version="1.0" id="Layer_1" xmlns="http://www.w3.org/2000/svg" xmlns:xlink="http://www.w3.org/1999/xlink" x="0px" y="0px"
	 width="52px" height="53px" viewBox="0 0 52 53" enable-background="new 0 0 52 53" xml:space="preserve">
<g>
	<path fill="#414042" d="M39,17.278h-1.15c-0.264-1.334-0.793-2.572-1.533-3.656l0.826-0.827c0.395-0.392,0.385-1.03-0.016-1.431
		l-1.234-1.234c-0.398-0.399-1.039-0.406-1.43-0.016l-0.838,0.839c-1.084-0.726-2.318-1.239-3.646-1.493V8.257
		c0-0.553-0.457-1-1.021-1h-1.746c-0.565,0-1.022,0.447-1.022,1v1.209c-1.321,0.259-2.551,0.775-3.629,1.502l-0.854-0.854
		c-0.393-0.391-1.031-0.385-1.434,0.016l-1.232,1.234c-0.398,0.4-0.406,1.04-0.018,1.431l0.852,0.851
		c-0.729,1.078-1.254,2.309-1.518,3.633H17.17c-0.553,0-1.002,0.457-1.002,1.023v1.745c0,0.565,0.449,1.022,1,1.022h1.182
		c0.252,1.335,0.768,2.576,1.494,3.665l-0.816,0.817c-0.389,0.39-0.383,1.032,0.018,1.433l1.232,1.232
		c0.398,0.4,1.041,0.408,1.432,0.018l0.805-0.807c1.09,0.742,2.336,1.272,3.678,1.535v1.127c0,0.553,0.457,1,1.023,1h1.746
		c0.564,0,1.021-0.447,1.021-1v-1.121c1.348-0.256,2.6-0.781,3.693-1.523l0.789,0.787c0.393,0.391,1.029,0.385,1.432-0.016
		l1.232-1.234c0.398-0.4,0.406-1.039,0.018-1.43l-0.791-0.793c0.734-1.094,1.256-2.346,1.51-3.69H39c0.553,0,1-0.457,1-1.022V18.3
		C40,17.736,39.553,17.278,39,17.278z M28.072,27.246c-4.436,0-8.031-3.596-8.031-8.031s3.596-8.031,8.031-8.031
		c4.435,0,8.031,3.596,8.031,8.031S32.508,27.246,28.072,27.246z"/>
	<ellipse fill="#414042" cx="27.979" cy="19.262" rx="2.971" ry="2.953"/>
</g>
</svg>
