<?xml version="1.0" encoding="utf-8"?>
<!-- Generator: Adobe Illustrator 15.0.0, SVG Export Plug-In . SVG Version: 6.00 Build 0)  -->
<!DOCTYPE svg PUBLIC "-//W3C//DTD SVG 1.0//EN" "http://www.w3.org/TR/2001/REC-SVG-20010904/DTD/svg10.dtd">
<svg version="1.0" id="Layer_1" xmlns="http://www.w3.org/2000/svg" xmlns:xlink="http://www.w3.org/1999/xlink" x="0px" y="0px"
	 width="52px" height="53px" viewBox="0 0 52 53" enable-background="new 0 0 52 53" xml:space="preserve">
<path fill="#414042" d="M39.945,24.373h-2.947l2.796-2.803c0.78-0.782,0.772-2.062-0.017-2.851l-1.237-1.242
	c-0.769-0.768-2.095-0.773-2.851-0.016L32.9,20.257v-2.953c0-1.105-0.907-2.006-2.024-2.006h-1.752c-1.117,0-2.024,0.9-2.024,2.006
	v2.951l-2.787-2.795c-0.758-0.76-2.088-0.752-2.854,0.016l-1.236,1.242c-0.789,0.789-0.797,2.068-0.017,2.85l2.795,2.803h-2.946
	c-1.104,0-2.004,0.91-2.004,2.029v1.756c0,0.537,0.206,1.044,0.578,1.426c0.38,0.389,0.887,0.604,1.426,0.604H23l-2.795,2.803
	c-0.779,0.781-0.771,2.061,0.018,2.852l1.236,1.242c0.768,0.768,2.098,0.774,2.852,0.016l2.789-2.795v2.949
	c0,1.105,0.907,2.006,2.024,2.006h1.752c1.117,0,2.024-0.899,2.024-2.006v-2.951l2.789,2.795c0.756,0.763,2.086,0.754,2.85-0.016
	l1.238-1.24c0.789-0.791,0.796-2.069,0.017-2.852l-2.795-2.803h2.946c1.104,0,2.003-0.909,2.003-2.028v-1.756
	C41.948,25.281,41.05,24.373,39.945,24.373z M40.302,27.633c0,0.451-0.362,0.818-0.809,0.818h-6.668l5.129,5.133
	c0.313,0.313,0.312,0.83-0.009,1.149l-0.498,0.502c-0.309,0.31-0.846,0.312-1.15,0.006l-5.126-5.129v6.71
	c0,0.445-0.366,0.811-0.817,0.811h-0.707c-0.448,0-0.815-0.363-0.815-0.811v-6.709l-5.126,5.128
	c-0.307,0.308-0.844,0.306-1.15-0.006l-0.498-0.502c-0.318-0.317-0.322-0.836-0.009-1.149l5.129-5.133H20.58
	c-0.219,0-0.422-0.086-0.574-0.242c-0.148-0.154-0.232-0.359-0.232-0.576v-0.708c0-0.451,0.361-0.818,0.809-0.818h6.598
	l-5.129-5.132c-0.314-0.315-0.312-0.832,0.006-1.151l0.5-0.501c0.31-0.31,0.846-0.312,1.15-0.007l5.126,5.129v-6.658
	c0-0.446,0.367-0.81,0.817-0.81h0.707c0.449,0,0.815,0.363,0.815,0.81v6.658l5.126-5.129c0.307-0.306,0.842-0.303,1.15,0.006
	l0.498,0.502c0.318,0.319,0.322,0.836,0.009,1.151l-5.129,5.132h6.668c0.444,0,0.81,0.367,0.81,0.818L40.302,27.633L40.302,27.633z"
	/>
</svg>
