<?xml version="1.0" encoding="utf-8"?>
<!-- Generator: Adobe Illustrator 15.0.0, SVG Export Plug-In . SVG Version: 6.00 Build 0)  -->
<!DOCTYPE svg PUBLIC "-//W3C//DTD SVG 1.0//EN" "http://www.w3.org/TR/2001/REC-SVG-20010904/DTD/svg10.dtd">
<svg version="1.0" id="Layer_1" xmlns="http://www.w3.org/2000/svg" xmlns:xlink="http://www.w3.org/1999/xlink" x="0px" y="0px"
	 width="52px" height="53px" viewBox="0 0 52 53" enable-background="new 0 0 52 53" xml:space="preserve">
<g>
	<g>
		<path fill="#414042" d="M26.995,37.258c-0.535,0-0.969-0.447-0.969-1V21.319c0-0.554,0.434-1,0.969-1c0.534,0,0.969,0.446,0.969,1
			v14.938C27.963,36.811,27.529,37.258,26.995,37.258z"/>
	</g>
	<g>
		<path fill="#414042" d="M27.025,16.227c-0.552,0-1-0.43-1-0.959v-0.988c0-0.527,0.447-0.959,1-0.959c0.554,0,1,0.432,1,0.959
			v0.988C28.025,15.797,27.579,16.227,27.025,16.227z"/>
	</g>
	<g>
		<path fill="#414042" d="M33.969,22.174H19.031c-1.66,0-3.01-1.396-3.01-3.113v-1.533c0-1.717,1.35-3.111,3.01-3.111h14.938
			c1.147,0,6.01,1.322,6.01,3.973C39.979,21.143,34.989,22.174,33.969,22.174z M19.031,16.2c-0.557,0-1.01,0.558-1.01,1.246v1.629
			c0,0.688,0.453,1.248,1.01,1.248h14.938c1.194,0,4.01-1.162,4.01-1.963c0-0.888-2.99-2.16-4.01-2.16H19.031z"/>
	</g>
</g>
</svg>
