<?xml version="1.0" encoding="utf-8"?>
<!-- Generator: Adobe Illustrator 15.0.0, SVG Export Plug-In . SVG Version: 6.00 Build 0)  -->
<!DOCTYPE svg PUBLIC "-//W3C//DTD SVG 1.0//EN" "http://www.w3.org/TR/2001/REC-SVG-20010904/DTD/svg10.dtd">
<svg version="1.0" id="Layer_1" xmlns="http://www.w3.org/2000/svg" xmlns:xlink="http://www.w3.org/1999/xlink" x="0px" y="0px"
	 width="52px" height="53px" viewBox="0 0 52 53" enable-background="new 0 0 52 53" xml:space="preserve">
<g>
	<g>
		<g>
			<path fill="#434343" d="M30.043,38.053c-6.596,0-11.961-5.373-11.961-11.977s5.365-11.979,11.961-11.979
				C36.635,14.098,42,19.471,42,26.076C42,32.68,36.635,38.053,30.043,38.053z M30.084,16c-5.554,0-10.07,4.512-10.07,10.057
				s4.519,10.055,10.07,10.055c5.551,0,10.068-4.51,10.068-10.055S35.637,16,30.084,16z"/>
		</g>
	</g>
	<ellipse fill="#434343" cx="33.547" cy="22.562" rx="1.453" ry="2.438"/>
	<ellipse fill="#434343" cx="26.572" cy="22.539" rx="1.473" ry="2.457"/>
	<g>
		<path fill="#434343" d="M30.105,32.994c-3.914,0-6.953-2.484-6.953-4.939c0-0.512,0.42-0.926,0.936-0.926
			c0.517,0,0.937,0.414,0.937,0.926c0,1.393,2.135,3.088,5.084,3.088c2.951,0,5.086-1.695,5.086-3.088
			c0-0.512,0.418-0.926,0.935-0.926c0.518,0,0.936,0.414,0.936,0.926C37.062,30.51,34.023,32.994,30.105,32.994z"/>
	</g>
</g>
</svg>
