<?xml version="1.0" encoding="utf-8"?>
<!-- Generator: Adobe Illustrator 15.0.0, SVG Export Plug-In . SVG Version: 6.00 Build 0)  -->
<!DOCTYPE svg PUBLIC "-//W3C//DTD SVG 1.0//EN" "http://www.w3.org/TR/2001/REC-SVG-20010904/DTD/svg10.dtd">
<svg version="1.0" id="Layer_1" xmlns="http://www.w3.org/2000/svg" xmlns:xlink="http://www.w3.org/1999/xlink" x="0px" y="0px"
	 width="52px" height="53px" viewBox="0 0 52 53" enable-background="new 0 0 52 53" xml:space="preserve">
<path fill="#414042" d="M28.07,15.382l-6.083,5.013c-3.423,0-6.911,1.782-6.911,5.204v3.439c0,3.424,2.857,5.204,6.281,5.204
	l6.713,5.015c5.875,0,6.882,0.041,6.882-6.207V21.59C34.952,15.36,33.967,15.382,28.07,15.382z M33.077,33.147
	c0,4.274-1.088,4.274-4.271,4.274l-6.627-5.016c-2.354,0-5.269-0.915-5.269-3.271V25.53c0-2.356,2.915-3.274,5.269-3.274
	l6.627-5.021c3.244,0,4.271-0.041,4.271,4.276V33.147z"/>
</svg>
