<?xml version="1.0" encoding="utf-8"?>
<!-- Generator: Adobe Illustrator 15.0.0, SVG Export Plug-In . SVG Version: 6.00 Build 0)  -->
<!DOCTYPE svg PUBLIC "-//W3C//DTD SVG 1.0//EN" "http://www.w3.org/TR/2001/REC-SVG-20010904/DTD/svg10.dtd">
<svg version="1.0" id="Layer_1" xmlns="http://www.w3.org/2000/svg" xmlns:xlink="http://www.w3.org/1999/xlink" x="0px" y="0px"
	 width="52px" height="53px" viewBox="0 0 52 53" enable-background="new 0 0 52 53" xml:space="preserve">
<g>
	<path fill="#414042" d="M31.995,16.382l-6.084,5.013C22.488,21.396,19,23.178,19,26.6v3.439c0,3.424,2.857,5.204,6.281,5.204
		l6.714,5.015c5.875,0,6.881,0.041,6.881-6.207V22.59C38.875,16.36,37.891,16.382,31.995,16.382z M37,34.147
		c0,4.274-1.088,4.274-4.27,4.274l-6.629-5.016c-2.354,0-5.269-0.915-5.269-3.271V26.53c0-2.356,2.915-3.274,5.269-3.274
		l6.629-5.021c3.244,0,4.27-0.041,4.27,4.276V34.147z"/>
	<g>
		<path fill="#414042" d="M21.938,39.319c-0.256,0-0.512-0.099-0.707-0.293c-0.391-0.392-0.391-1.022,0-1.414l18.875-18.875
			c0.392-0.391,1.023-0.391,1.414,0c0.392,0.391,0.392,1.023,0,1.414L22.645,39.026C22.45,39.221,22.193,39.319,21.938,39.319z"/>
	</g>
</g>
</svg>
