<?xml version="1.0" encoding="utf-8"?>
<!-- Generator: Adobe Illustrator 15.0.0, SVG Export Plug-In . SVG Version: 6.00 Build 0)  -->
<!DOCTYPE svg PUBLIC "-//W3C//DTD SVG 1.0//EN" "http://www.w3.org/TR/2001/REC-SVG-20010904/DTD/svg10.dtd">
<svg version="1.0" id="Layer_1" xmlns="http://www.w3.org/2000/svg" xmlns:xlink="http://www.w3.org/1999/xlink" x="0px" y="0px"
	 width="52px" height="53px" viewBox="0 0 52 53" enable-background="new 0 0 52 53" xml:space="preserve">
<g>
	<path fill="none" stroke="#414042" stroke-width="2" stroke-miterlimit="10" d="M26.975,39.232c0,1.119-0.885,2.025-1.976,2.025
		h-4.988c-1.09,0-1.975-0.906-1.975-2.025v-4.949c0-1.117,0.885-2.023,1.975-2.023H25c1.091,0,1.975,0.906,1.975,2.023V39.232
		L26.975,39.232z"/>
	<path fill="none" stroke="#414042" stroke-width="2" stroke-miterlimit="10" d="M39.975,39.232c0,1.119-0.885,2.025-1.976,2.025
		h-4.988c-1.09,0-1.975-0.906-1.975-2.025v-4.949c0-1.117,0.885-2.023,1.975-2.023H38c1.091,0,1.975,0.906,1.975,2.023V39.232
		L39.975,39.232z"/>
	<path fill="none" stroke="#414042" stroke-width="2" stroke-miterlimit="10" d="M39.975,26.232c0,1.119-0.885,2.025-1.976,2.025
		h-4.988c-1.09,0-1.975-0.906-1.975-2.025v-4.949c0-1.118,0.885-2.024,1.975-2.024H38c1.091,0,1.975,0.906,1.975,2.024V26.232
		L39.975,26.232z"/>
	<path fill="none" stroke="#414042" stroke-width="2" stroke-miterlimit="10" d="M26.975,26.232c0,1.119-0.885,2.025-1.976,2.025
		h-4.988c-1.09,0-1.975-0.906-1.975-2.025v-4.949c0-1.118,0.885-2.024,1.975-2.024H25c1.091,0,1.975,0.906,1.975,2.024V26.232
		L26.975,26.232z"/>
</g>
</svg>
