<?xml version="1.0" encoding="utf-8"?>
<!-- Generator: Adobe Illustrator 15.0.0, SVG Export Plug-In . SVG Version: 6.00 Build 0)  -->
<!DOCTYPE svg PUBLIC "-//W3C//DTD SVG 1.0//EN" "http://www.w3.org/TR/2001/REC-SVG-20010904/DTD/svg10.dtd">
<svg version="1.0" id="Layer_1" xmlns="http://www.w3.org/2000/svg" xmlns:xlink="http://www.w3.org/1999/xlink" x="0px" y="0px"
	 width="52px" height="53px" viewBox="0 0 52 53" enable-background="new 0 0 52 53" xml:space="preserve">
<g>
	<path fill="#414042" d="M33.766,36.258c-0.166,0-0.332-0.041-0.48-0.125l-6.281-3.461l-6.279,3.461
		c-0.334,0.186-0.746,0.162-1.06-0.059c-0.312-0.223-0.474-0.602-0.41-0.979l1.21-7.394l-5.115-5.228
		c-0.265-0.268-0.354-0.66-0.234-1.016c0.119-0.356,0.427-0.615,0.798-0.673l7.034-1.069l3.154-6.697
		c0.164-0.352,0.518-0.574,0.902-0.574c0.389,0,0.74,0.223,0.905,0.573l3.153,6.699l7.033,1.069c0.37,0.058,0.678,0.316,0.797,0.673
		c0.119,0.355,0.029,0.748-0.231,1.016l-5.117,5.228l1.211,7.394c0.062,0.377-0.098,0.757-0.409,0.979
		C34.17,36.195,33.968,36.258,33.766,36.258z M27.002,30.53c0.166,0,0.333,0.041,0.482,0.124l4.961,2.734l-0.959-5.862
		c-0.051-0.313,0.05-0.634,0.271-0.86l4.104-4.193l-5.631-0.857c-0.33-0.051-0.611-0.262-0.754-0.562L27,15.794l-2.477,5.258
		c-0.144,0.302-0.424,0.513-0.754,0.562l-5.633,0.857l4.105,4.193c0.223,0.227,0.322,0.547,0.271,0.86l-0.961,5.86l4.961-2.732
		C26.67,30.571,26.836,30.53,27.002,30.53z"/>
</g>
</svg>
