<?xml version="1.0" encoding="utf-8"?>
<!-- Generator: Adobe Illustrator 15.0.0, SVG Export Plug-In . SVG Version: 6.00 Build 0)  -->
<!DOCTYPE svg PUBLIC "-//W3C//DTD SVG 1.0//EN" "http://www.w3.org/TR/2001/REC-SVG-20010904/DTD/svg10.dtd">
<svg version="1.0" id="Layer_1" xmlns="http://www.w3.org/2000/svg" xmlns:xlink="http://www.w3.org/1999/xlink" x="0px" y="0px"
	 width="52px" height="53px" viewBox="0 0 52 53" enable-background="new 0 0 52 53" xml:space="preserve">
<g>
	<g>
		<path fill="#414042" d="M26.975,24.214c-3.793-0.033-6.851-3.183-6.817-7.021c0.032-3.838,3.145-6.937,6.936-6.904
			c3.792,0.033,6.851,3.183,6.815,7.021C33.875,21.15,30.766,24.245,26.975,24.214z M27.137,12.24
			c-2.789-0.024-5.076,2.222-5.101,5.005c-0.024,2.783,2.226,5.068,5.014,5.092s5.075-2.223,5.099-5.006
			C32.173,14.548,29.924,12.265,27.137,12.24z"/>
	</g>
	<g>
		<path fill="#414042" d="M30.023,18.314c-0.275-0.003-0.498-0.229-0.496-0.505c0.016-1.631-1.301-2.969-2.934-2.982
			c-0.275-0.003-0.498-0.229-0.494-0.505c0.002-0.276,0.227-0.498,0.504-0.495c2.182,0.019,3.942,1.809,3.924,3.991
			C30.525,18.094,30.301,18.316,30.023,18.314z"/>
	</g>
	<g>
		<path fill="#434343" d="M26.984,30.184c-0.527,0-0.953-0.447-0.953-1v-5.938c0-0.553,0.426-1,0.953-1s0.953,0.447,0.953,1v5.938
			C27.938,29.736,27.512,30.184,26.984,30.184z"/>
	</g>
	<g>
		<path fill="#414042" d="M27.031,33.258c-4.833,0-9.969-1.242-9.969-3.545c0-1.621,2.773-2.957,7.064-3.397
			c0.266-0.025,0.496,0.148,0.523,0.392c0.029,0.244-0.159,0.462-0.42,0.489c-4.041,0.415-6.221,1.606-6.221,2.519
			c0,1.256,3.704,2.658,9.02,2.658c5.316,0,9.021-1.402,9.021-2.658c0-0.91-2.18-2.104-6.217-2.518
			c-0.26-0.027-0.448-0.246-0.42-0.49c0.028-0.243,0.269-0.421,0.524-0.391c4.289,0.44,7.062,1.775,7.062,3.396
			C37,32.016,31.863,33.258,27.031,33.258z"/>
	</g>
</g>
</svg>
