<?xml version="1.0" encoding="utf-8"?>
<!-- Generator: Adobe Illustrator 15.0.0, SVG Export Plug-In . SVG Version: 6.00 Build 0)  -->
<!DOCTYPE svg PUBLIC "-//W3C//DTD SVG 1.0//EN" "http://www.w3.org/TR/2001/REC-SVG-20010904/DTD/svg10.dtd">
<svg version="1.0" id="Layer_1" xmlns="http://www.w3.org/2000/svg" xmlns:xlink="http://www.w3.org/1999/xlink" x="0px" y="0px"
	 width="52px" height="53px" viewBox="0 0 52 53" enable-background="new 0 0 52 53" xml:space="preserve">
<g>
	<path fill="#434343" d="M27,18.384c0.035-3.839-3.037-6.988-6.846-7.021c-3.809-0.032-6.934,3.066-6.967,6.904
		c-0.03,3.514,2.543,6.443,5.901,6.939v9.051c0,0.553,0.45,1,1.004,1c0.556,0,0.8-0.652,0.8-1.205v-9.051
		C24.201,24.511,26.971,21.859,27,18.384z M20.111,23.411c-2.801-0.023-5.061-2.309-5.036-5.092
		c0.022-2.783,2.321-5.029,5.123-5.005c2.801,0.024,5.059,2.308,5.034,5.091C25.21,21.189,22.912,23.435,20.111,23.411z"/>
	<path fill="#434343" d="M19.663,14.901c-0.278-0.003-0.503,0.219-0.505,0.495c-0.004,0.276,0.22,0.502,0.496,0.505
		c1.641,0.014,2.963,1.352,2.949,2.982c-0.004,0.276,0.221,0.502,0.496,0.505c0.279,0.002,0.504-0.22,0.508-0.496
		C23.624,16.709,21.854,14.919,19.663,14.901z"/>
</g>
</svg>
