<?xml version="1.0" encoding="utf-8"?>
<!-- Generator: Adobe Illustrator 15.0.0, SVG Export Plug-In . SVG Version: 6.00 Build 0)  -->
<!DOCTYPE svg PUBLIC "-//W3C//DTD SVG 1.0//EN" "http://www.w3.org/TR/2001/REC-SVG-20010904/DTD/svg10.dtd">
<svg version="1.0" id="Layer_1" xmlns="http://www.w3.org/2000/svg" xmlns:xlink="http://www.w3.org/1999/xlink" x="0px" y="0px"
	 width="52px" height="53px" viewBox="0 0 52 53" enable-background="new 0 0 52 53" xml:space="preserve">
<g>
	<g>
		<g>
			<path fill="#414042" d="M24.986,31.236c-0.364,0-0.697-0.201-0.87-0.523c-0.728-1.358-7.108-8.322-7.108-12.363
				c0-4.45,3.579-8.071,7.978-8.071c4.397,0,7.976,3.621,7.976,8.071c0,4.041-6.378,11.004-7.107,12.363
				C25.683,31.034,25.349,31.236,24.986,31.236z M24.997,12.261c-3.333,0-6.043,2.696-6.043,6.011c0,2.583,6.043,9.653,6.043,9.653
				s6.041-7.07,6.041-9.653C31.037,14.958,28.328,12.261,24.997,12.261z"/>
		</g>
		<ellipse fill="#414042" cx="25.001" cy="18.268" rx="2.972" ry="2.947"/>
	</g>
	<g>
		<path fill="#414042" d="M25,34.258c-4.842,0-9.99-1.125-9.99-3.211c0-1.146,1.36-2.104,4.196-2.689
			c0.292-0.059,0.594,0.09,0.668,0.335c0.073,0.246-0.106,0.494-0.402,0.558c-2.461,0.508-3.36,1.271-3.36,1.799
			c0,0.957,3.381,2.291,8.887,2.291s8.888-1.334,8.888-2.291c0-0.531-0.957-1.295-3.429-1.806c-0.296-0.062-0.476-0.31-0.403-0.555
			c0.073-0.243,0.373-0.396,0.668-0.335c2.848,0.588,4.266,1.544,4.266,2.693C34.99,33.133,29.843,34.258,25,34.258z"/>
	</g>
</g>
</svg>
