<?xml version="1.0" encoding="utf-8"?>
<!-- Generator: Adobe Illustrator 15.0.0, SVG Export Plug-In . SVG Version: 6.00 Build 0)  -->
<!DOCTYPE svg PUBLIC "-//W3C//DTD SVG 1.0//EN" "http://www.w3.org/TR/2001/REC-SVG-20010904/DTD/svg10.dtd">
<svg version="1.0" id="Layer_1" xmlns="http://www.w3.org/2000/svg" xmlns:xlink="http://www.w3.org/1999/xlink" x="0px" y="0px"
	 width="52px" height="53px" viewBox="0 0 52 53" enable-background="new 0 0 52 53" xml:space="preserve">
<g>
	<g>
		<path fill="#434343" d="M33.413,37.258C33.412,37.258,33.413,37.258,33.413,37.258c-1.021,0-1.978-0.394-2.692-1.104
			L20.186,25.635c-0.715-0.715-1.109-1.665-1.109-2.675c0-0.857,0.281-1.681,0.805-2.366c-0.436-0.677-0.667-1.474-0.667-2.314
			c0-1.188,0.481-2.351,1.326-3.191l0.379-0.379c0.854-0.851,1.978-1.319,3.161-1.319c0.843,0,1.645,0.239,2.324,0.685
			c1.49-1.037,3.662-0.886,4.949,0.396L41.891,24.99C42.607,25.706,43,26.663,43,27.686c-0.001,1.059-0.419,2.059-1.178,2.814
			l-5.594,5.586C35.471,36.842,34.471,37.258,33.413,37.258z M24.064,15.39c-0.657,0-1.283,0.262-1.764,0.737l-0.381,0.379
			c-0.471,0.469-0.738,1.115-0.738,1.773c0,0.615,0.229,1.182,0.645,1.596l0.576,0.574l-0.771,1.141
			c-0.38,0.378-0.589,0.864-0.589,1.37c0,0.473,0.188,0.919,0.524,1.257l10.58,10.517c0.705,0.701,1.967,0.668,2.707-0.066
			l5.615-5.586c0.381-0.38,0.592-0.877,0.592-1.398c0-0.486-0.188-0.94-0.523-1.276L29.956,15.89
			c-0.705-0.698-1.965-0.667-2.703,0.066l-0.134,0.133l-0.979,0.426l-0.48-0.479C25.24,15.619,24.674,15.39,24.064,15.39z"/>
	</g>
	<ellipse fill="#434343" cx="26.05" cy="20.339" rx="1.97" ry="1.911"/>
</g>
</svg>
