<?xml version="1.0" encoding="utf-8"?>
<!-- Generator: Adobe Illustrator 15.0.0, SVG Export Plug-In . SVG Version: 6.00 Build 0)  -->
<!DOCTYPE svg PUBLIC "-//W3C//DTD SVG 1.0//EN" "http://www.w3.org/TR/2001/REC-SVG-20010904/DTD/svg10.dtd">
<svg version="1.0" id="Layer_1" xmlns="http://www.w3.org/2000/svg" xmlns:xlink="http://www.w3.org/1999/xlink" x="0px" y="0px"
	 width="52px" height="53px" viewBox="0 0 52 53" enable-background="new 0 0 52 53" xml:space="preserve">
<path fill="#414042" d="M36.96,24.258h-3.425c-0.211-0.478-0.506-0.903-0.848-1.287c0.012-0.012,0.027-0.016,0.039-0.027
	l4.979-4.979c0.392-0.392,0.392-1.023,0-1.415s-1.022-0.391-1.414,0l-4.979,4.979c-0.08,0.081-0.133,0.178-0.182,0.273
	c-0.654-0.312-1.378-0.504-2.152-0.504c-0.469,0-0.912,0.084-1.34,0.205l-4.933-4.933c-0.391-0.391-1.023-0.391-1.414,0
	c-0.391,0.39-0.391,1.022,0,1.414l4.492,4.492c-0.579,0.483-1.054,1.081-1.363,1.778h-3.382c-1.659,0-3.009,1.359-3.009,3.029v9.879
	c0,1.67,1.35,3.029,3.009,3.029h15.92c1.659,0,3.009-1.359,3.009-3.029v-9.879C39.969,25.616,38.619,24.258,36.96,24.258z
	 M38.094,37.239c0,0.574-0.458,1.043-1.021,1.043H20.928c-0.563,0-1.021-0.469-1.021-1.043V27.213c0-0.574,0.458-1.043,1.021-1.043
	h3.079c0,0.022-0.007,0.043-0.007,0.065h9.958c0-0.022-0.007-0.043-0.007-0.065h3.121c0.562,0,1.021,0.469,1.021,1.043V37.239
	L38.094,37.239z"/>
</svg>
