<?xml version="1.0" encoding="utf-8"?>
<!-- Generator: Adobe Illustrator 15.0.0, SVG Export Plug-In . SVG Version: 6.00 Build 0)  -->
<!DOCTYPE svg PUBLIC "-//W3C//DTD SVG 1.0//EN" "http://www.w3.org/TR/2001/REC-SVG-20010904/DTD/svg10.dtd">
<svg version="1.0" id="Layer_1" xmlns="http://www.w3.org/2000/svg" xmlns:xlink="http://www.w3.org/1999/xlink" x="0px" y="0px"
	 width="52px" height="53px" viewBox="0 0 52 53" enable-background="new 0 0 52 53" xml:space="preserve">
<g>
	<g>
		<path fill="#414042" d="M33.943,16.299H16.014c-1.662,0-3.014,1.369-3.014,3.051v8.857c0,1.682,1.352,3.051,3.014,3.051h17.929
			c1.662,0,3.016-1.369,3.016-3.051V19.35C36.959,17.668,35.605,16.299,33.943,16.299z M34.023,29.383H16.018
			c-0.563,0-1.022-0.48-1.022-1.07v-4.07h2.837v-1.979h-2.837v-3.018c0-0.59,0.458-1.07,1.022-1.07h18.005
			c0.562,0,1.021,0.48,1.021,1.07v3.018H32.04v1.979h3.005v4.07C35.046,28.902,34.587,29.383,34.023,29.383z"/>
		<path fill="#414042" d="M19.999,21.342c-1.072,0-0.961,0.408-0.961,0.912v2.092c0,0.504-0.111,0.912,0.961,0.912
			c1.07,0,0.959-0.408,0.959-0.912v-2.092C20.958,21.75,21.069,21.342,19.999,21.342z"/>
		<path fill="#414042" d="M29.979,21.342c-1.049,0-0.941,0.408-0.941,0.912v2.092c0,0.504-0.107,0.912,0.941,0.912
			c1.047,0,0.938-0.408,0.938-0.912v-2.092C30.917,21.75,31.025,21.342,29.979,21.342z"/>
		<path fill="#414042" d="M22.906,14.211h4.164c0,0-0.023,0.532-0.023,1.026h1.911c0-1.621-0.321-2.938-1.944-2.938h-4.026
			c-1.624,0-1.946,1.317-1.946,2.938h1.888C22.929,14.743,22.906,14.211,22.906,14.211z"/>
	</g>
	<rect x="22" y="22.299" fill="#414042" width="5.958" height="1.959"/>
</g>
</svg>
