<?xml version="1.0" encoding="utf-8"?>
<!-- Generator: Adobe Illustrator 15.0.0, SVG Export Plug-In . SVG Version: 6.00 Build 0)  -->
<!DOCTYPE svg PUBLIC "-//W3C//DTD SVG 1.0//EN" "http://www.w3.org/TR/2001/REC-SVG-20010904/DTD/svg10.dtd">
<svg version="1.0" id="Layer_1" xmlns="http://www.w3.org/2000/svg" xmlns:xlink="http://www.w3.org/1999/xlink" x="0px" y="0px"
	 width="52px" height="53px" viewBox="0 0 52 53" enable-background="new 0 0 52 53" xml:space="preserve">
<g>
	<path fill="none" stroke="#414042" stroke-width="2" stroke-miterlimit="10" d="M23,39.258c0,0.553-0.447,1-1,1h-5
		c-0.553,0-1-0.447-1-1v-12c0-0.553,0.447-1,1-1h5c0.553,0,1,0.447,1,1V39.258z"/>
	<path fill="none" stroke="#414042" stroke-width="2" stroke-miterlimit="10" d="M38,39.258c0,0.553-0.447,1-1,1h-5
		c-0.553,0-1-0.447-1-1v-16c0-0.553,0.447-1,1-1l5,1c0.553,0,1,0.447,1,1V39.258z"/>
	<path fill="none" stroke="#414042" stroke-width="2" stroke-miterlimit="10" d="M31,39.258c0,0.553-0.447,1-1,1h-6
		c-0.553,0-1-0.447-1-1v-19c0-0.553,0.447-1,1-1h6c0.553,0,1,0.447,1,1V39.258z"/>
	<rect x="17" y="23.258" fill="#414042" width="2" height="3"/>
	<rect x="20" y="23.258" fill="#414042" width="1" height="3"/>
	<rect x="25" y="21.258" fill="#414042" width="2" height="2"/>
	<rect x="25" y="25.258" fill="#414042" width="2" height="2"/>
	<rect x="25" y="29.258" fill="#414042" width="2" height="2"/>
	<rect x="25" y="33.258" fill="#414042" width="2" height="2"/>
	<rect x="18" y="28.258" fill="#414042" width="2" height="2"/>
	<rect x="18" y="32.258" fill="#414042" width="2" height="2"/>
	<rect x="18" y="36.258" fill="#414042" width="2" height="2"/>
	<rect x="33" y="26.258" fill="#414042" width="2" height="2"/>
	<rect x="33" y="30.258" fill="#414042" width="2" height="2"/>
	<rect x="33" y="34.258" fill="#414042" width="2" height="2"/>
</g>
</svg>
