<?xml version="1.0" encoding="utf-8"?>
<!-- Generator: Adobe Illustrator 15.0.0, SVG Export Plug-In . SVG Version: 6.00 Build 0)  -->
<!DOCTYPE svg PUBLIC "-//W3C//DTD SVG 1.0//EN" "http://www.w3.org/TR/2001/REC-SVG-20010904/DTD/svg10.dtd">
<svg version="1.0" id="Layer_1" xmlns="http://www.w3.org/2000/svg" xmlns:xlink="http://www.w3.org/1999/xlink" x="0px" y="0px"
	 width="52px" height="53px" viewBox="0 0 52 53" enable-background="new 0 0 52 53" xml:space="preserve">
<g>
	<g>
		<path fill="#414042" d="M32.002,40.258H11.998c-1.102,0-1.998-0.9-1.998-2.006c0-0.107,2.047-6.308,2.047-6.308
			c0.38-1.461,1.384-1.688,1.947-1.688h2.002c0.552,0,1,0.447,1,1s-0.448,1-1,1h-1.944c-0.022,0.047-1.999,6.078-1.999,6.078
			l19.894,0.006c0,0-1.997-6.028-2.027-6.084h-1.997c-0.553,0-1-0.447-1-1s0.447-1,1-1h2.083c1.352,0,1.779,1.215,1.941,1.672
			c0,0,2.053,6.215,2.053,6.322C34,39.357,33.104,40.258,32.002,40.258z"/>
	</g>
	<g>
		<path fill="#414042" d="M24.525,36.217h-5.051c-2.532,0-4.516-1.355-4.516-3.088c0-0.093,0.012-0.183,0.037-0.269l3.06-10.976
			c0.352-1.108,0.833-2.629,3.419-2.629h1.051c2.295,0,2.829,0.996,3.332,2.402l0.122,0.336l3.026,10.863
			c0.022,0.088,0.036,0.178,0.036,0.27C29.042,34.861,27.059,36.217,24.525,36.217z M16.973,33.305
			c0.124,0.397,1.051,1.016,2.502,1.016h5.051c1.451,0,2.378-0.615,2.501-1.016l-3.052-11.019c-0.371-1.051-0.386-1.092-1.449-1.092
			h-1.051c-1.122,0-1.182,0.19-1.513,1.25l-0.051,0.16L16.973,33.305z"/>
	</g>
	<g>
		<path fill="#414042" d="M22.021,25.236c-1.28,0-2.52-0.119-3.685-0.354c-0.541-0.108-0.888-0.627-0.775-1.151
			s0.643-0.861,1.183-0.755c2.064,0.421,4.493,0.421,6.556,0c0.538-0.108,1.069,0.228,1.183,0.753
			c0.115,0.526-0.233,1.043-0.774,1.151C24.542,25.114,23.302,25.236,22.021,25.236z"/>
	</g>
	<g>
		<path fill="#414042" d="M22.01,31.217c-1.915-0.002-3.752-0.277-5.313-0.801c-0.518-0.175-0.795-0.73-0.619-1.24
			c0.176-0.512,0.739-0.707,1.258-0.535c2.697,0.906,6.586,0.912,9.307,0.014c0.52-0.172,1.082,0.027,1.256,0.539
			c0.175,0.514-0.104,1.064-0.625,1.236C25.721,30.945,23.9,31.215,22.01,31.217z"/>
	</g>
</g>
</svg>
