<?xml version="1.0" encoding="utf-8"?>
<!-- Generator: Adobe Illustrator 15.0.0, SVG Export Plug-In . SVG Version: 6.00 Build 0)  -->
<!DOCTYPE svg PUBLIC "-//W3C//DTD SVG 1.0//EN" "http://www.w3.org/TR/2001/REC-SVG-20010904/DTD/svg10.dtd">
<svg version="1.0" id="Layer_1" xmlns="http://www.w3.org/2000/svg" xmlns:xlink="http://www.w3.org/1999/xlink" x="0px" y="0px"
	 width="52px" height="53px" viewBox="0 0 52 53" enable-background="new 0 0 52 53" xml:space="preserve">
<g>
	<g>
		<path fill="#434343" d="M20.917,40.161h-1.896v-4.17C15.894,35.457,14,32.444,14,29.637c0-2.979,2.185-12.357,5.975-12.357
			c3.789,0,5.973,9.379,5.973,12.357c0,2.729-2.083,5.742-5.031,6.309V40.161z M19.458,34.383h0.533c2.3,0,4.02-2.379,4.02-4.504
			c0-3.56-2.471-10.601-4.066-10.601c-1.596,0-4.069,7.041-4.069,10.601C15.875,31.909,17.294,34.073,19.458,34.383z"/>
	</g>
	<g>
		<path fill="#434343" d="M32.961,40.161h-1.963v-2.905c-2.48-0.523-3.978-2.998-3.978-5.312c0-2.011,1.583-9.631,4.923-9.631
			c3.338,0,4.92,7.62,4.92,9.631c0,2.246-1.561,4.717-3.902,5.271V40.161z M31.578,35.229h0.42c1.732,0,3.029-1.771,3.029-3.357
			c0-2.928-1.979-7.706-3.067-7.706c-1.091,0-3.07,4.778-3.07,7.706C28.889,33.381,29.953,34.987,31.578,35.229z"/>
	</g>
	<path fill="#434343" d="M37.937,41.258H14.062c0-1.021,5.344-1.854,11.938-1.854C32.594,39.403,37.937,40.236,37.937,41.258z"/>
</g>
</svg>
