<?xml version="1.0" encoding="utf-8"?>
<!-- Generator: Adobe Illustrator 15.0.0, SVG Export Plug-In . SVG Version: 6.00 Build 0)  -->
<!DOCTYPE svg PUBLIC "-//W3C//DTD SVG 1.0//EN" "http://www.w3.org/TR/2001/REC-SVG-20010904/DTD/svg10.dtd">
<svg version="1.0" id="Layer_1" xmlns="http://www.w3.org/2000/svg" xmlns:xlink="http://www.w3.org/1999/xlink" x="0px" y="0px"
	 width="52px" height="53px" viewBox="0 0 52 53" enable-background="new 0 0 52 53" xml:space="preserve">
<g>
	<g>
		<path fill="#414042" d="M22,35.258c-1.654,0-3-1.346-3-3s1.346-3,3-3s3,1.346,3,3S23.654,35.258,22,35.258z M22,31.258
			c-0.551,0-1,0.449-1,1s0.449,1,1,1s1-0.449,1-1S22.551,31.258,22,31.258z"/>
	</g>
	<g>
		<path fill="#414042" d="M32,35.258c-1.654,0-3-1.346-3-3s1.346-3,3-3s3,1.346,3,3S33.654,35.258,32,35.258z M32,31.258
			c-0.552,0-1,0.449-1,1s0.448,1,1,1s1-0.449,1-1S32.552,31.258,32,31.258z"/>
	</g>
	<g>
		<path fill="#414042" d="M33,29.258H22c-1.609,0-2.926-1.273-2.997-2.865L17,18.258c0-1.654,1.346-3,3-3l0.143,0.01l13.937,1.99
			c1.616,0.043,2.921,1.371,2.921,3l-0.014,0.164l-0.987,5.926C35.95,27.961,34.624,29.258,33,29.258z M19.005,18.153L21,26.258
			c0,0.551,0.449,1,1,1h11c0.552,0,1-0.449,1-1l0.014-0.164l0.984-5.904c-0.036-0.52-0.471-0.932-0.998-0.932l-0.143-0.01
			L19.941,17.26C19.451,17.286,19.055,17.672,19.005,18.153z"/>
	</g>
	<g>
		<path fill="#414042" d="M18,17.258c-0.256,0-0.512-0.099-0.707-0.293l-1.707-1.707H14c-0.552,0-1-0.447-1-1c0-0.554,0.448-1,1-1h2
			c0.265,0,0.52,0.104,0.707,0.293l2,2c0.391,0.391,0.391,1.022,0,1.414C18.512,17.159,18.256,17.258,18,17.258z"/>
	</g>
	<g>
		<path fill="#414042" d="M23,25.258c-0.552,0-1-0.447-1-1v-3c0-0.554,0.448-1,1-1c0.553,0,1,0.446,1,1v3
			C24,24.811,23.553,25.258,23,25.258z"/>
	</g>
	<g>
		<path fill="#414042" d="M27,25.258c-0.553,0-1-0.447-1-1v-3c0-0.554,0.447-1,1-1s1,0.446,1,1v3C28,24.811,27.553,25.258,27,25.258
			z"/>
	</g>
	<g>
		<path fill="#414042" d="M31,25.258c-0.553,0-1-0.447-1-1v-3c0-0.554,0.447-1,1-1s1,0.446,1,1v3C32,24.811,31.553,25.258,31,25.258
			z"/>
	</g>
</g>
</svg>
