<?xml version="1.0" encoding="utf-8"?>
<!-- Generator: Adobe Illustrator 15.0.0, SVG Export Plug-In . SVG Version: 6.00 Build 0)  -->
<!DOCTYPE svg PUBLIC "-//W3C//DTD SVG 1.0//EN" "http://www.w3.org/TR/2001/REC-SVG-20010904/DTD/svg10.dtd">
<svg version="1.0" id="Layer_1" xmlns="http://www.w3.org/2000/svg" xmlns:xlink="http://www.w3.org/1999/xlink" x="0px" y="0px"
	 width="52px" height="53px" viewBox="0 0 52 53" enable-background="new 0 0 52 53" xml:space="preserve">
<g>
	<g>
		<path fill="#434343" d="M24,29.258h-3c-0.552,0-1-0.447-1-1s0.448-1,1-1h3c0.553,0,1,0.447,1,1S24.553,29.258,24,29.258z"/>
	</g>
	<g>
		<path fill="#434343" d="M32.996,29.258H32c-0.553,0-1-0.447-1-1s0.447-1,1-1h0.99l-0.961-7.712
			c-0.062-0.108-0.139-0.22-0.199-0.288h-6.758c-0.553,0-1-0.447-1-1v-2H13l-0.004,11H13c0.552,0,1.045,0.447,1.045,1
			c0,0.131-0.025,0.258-0.072,0.373c-0.146,0.367-0.505,0.627-0.927,0.627h-0.001c-1.105,0-2.004-0.894-2.004-1.99v-11.02
			c0-1.098,0.898-1.99,2.004-1.99H25c0.553,0,1,0.447,1,1v2h5.996c1.111,0,1.746,1.207,1.914,1.577
			c0.041,0.092,0.068,0.188,0.082,0.29l1,8.02C34.996,27.186,35,27.227,35,27.268C35,28.364,34.1,29.258,32.996,29.258z"/>
	</g>
	<g>
		<path fill="#434343" d="M17,31.258c-1.654,0-3-1.347-3-3c0-1.654,1.346-3,3-3s3,1.346,3,3C20,29.911,18.654,31.258,17,31.258z
			 M17,27.258c-0.551,0-1,0.449-1,1s0.449,1,1,1s1-0.449,1-1S17.551,27.258,17,27.258z"/>
	</g>
	<g>
		<path fill="#434343" d="M28,31.258c-1.654,0-3-1.347-3-3c0-1.654,1.346-3,3-3s3,1.346,3,3C31,29.911,29.654,31.258,28,31.258z
			 M28,27.258c-0.553,0-1,0.449-1,1s0.447,1,1,1c0.551,0,1-0.449,1-1S28.551,27.258,28,27.258z"/>
	</g>
	<g>
		<path fill="#434343" d="M25.031,25.257c-0.536,0-0.969-0.447-0.969-1v-6c0-0.553,0.433-1,0.969-1c0.535,0,0.969,0.447,0.969,1v6
			C26,24.81,25.566,25.257,25.031,25.257z"/>
	</g>
	<rect x="14.125" y="19.257" fill="#434343" width="8.875" height="1"/>
	<rect x="14.125" y="22.257" fill="#434343" width="8.875" height="1"/>
	<polygon fill="#434343" points="31,22.257 27.062,22.257 27.062,20.257 30.016,20.257 	"/>
</g>
</svg>
