<?xml version="1.0" encoding="utf-8"?>
<!-- Generator: Adobe Illustrator 15.0.0, SVG Export Plug-In . SVG Version: 6.00 Build 0)  -->
<!DOCTYPE svg PUBLIC "-//W3C//DTD SVG 1.0//EN" "http://www.w3.org/TR/2001/REC-SVG-20010904/DTD/svg10.dtd">
<svg version="1.0" id="Layer_1" xmlns="http://www.w3.org/2000/svg" xmlns:xlink="http://www.w3.org/1999/xlink" x="0px" y="0px"
	 width="52px" height="53px" viewBox="0 0 52 53" enable-background="new 0 0 52 53" xml:space="preserve">
<g>
	<path fill="#434343" d="M42.216,25.355l-2.168,1.344v4.254l2.168,1.344c0.433,0,0.783-0.512,0.783-1.141v-4.662
		C43,25.864,42.648,25.355,42.216,25.355z"/>
	<path fill="#434343" d="M32.52,20.243c2.451,0,4.438-1.981,4.438-4.428c0-2.445-1.986-4.428-4.438-4.428s-4.438,1.98-4.438,4.428
		C28.083,18.262,30.068,20.243,32.52,20.243z M32.52,13.13c1.486,0,2.692,1.203,2.692,2.688s-1.206,2.687-2.692,2.687
		c-1.488,0-2.692-1.201-2.692-2.687C29.827,14.333,31.031,13.13,32.52,13.13z"/>
	<path fill="#434343" d="M23.462,20.237c1.883,0,3.41-1.537,3.41-3.434s-1.527-3.433-3.41-3.433c-1.884,0-3.411,1.536-3.411,3.433
		S21.579,20.237,23.462,20.237z M23.462,14.941c1.022,0,1.852,0.836,1.852,1.864c0,1.03-0.83,1.864-1.852,1.864
		c-1.023,0-1.853-0.834-1.853-1.864C21.61,15.777,22.439,14.941,23.462,14.941z"/>
	<g>
		<path fill="#434343" d="M36,35.258H21.959c-1.631,0-2.958-1.326-2.958-2.955v-8.045c0-1.629,1.327-2.955,2.958-2.955H36
			c1.632,0,2.96,1.326,2.96,2.955v8.045C38.959,33.932,37.631,35.258,36,35.258z M21.848,23.135c-0.536,0-0.973,0.44-0.973,0.985
			v8.215c0,0.543,0.437,0.983,0.973,0.983h14.261c0.539,0,0.976-0.44,0.976-0.983v-8.215c0-0.545-0.437-0.985-0.976-0.985H21.848z"
			/>
	</g>
</g>
</svg>
