<?xml version="1.0" encoding="utf-8"?>
<!-- Generator: Adobe Illustrator 15.0.0, SVG Export Plug-In . SVG Version: 6.00 Build 0)  -->
<!DOCTYPE svg PUBLIC "-//W3C//DTD SVG 1.0//EN" "http://www.w3.org/TR/2001/REC-SVG-20010904/DTD/svg10.dtd">
<svg version="1.0" id="Layer_1" xmlns="http://www.w3.org/2000/svg" xmlns:xlink="http://www.w3.org/1999/xlink" x="0px" y="0px"
	 width="52px" height="53px" viewBox="0 0 52 53" enable-background="new 0 0 52 53" xml:space="preserve">
<g>
	<g>
		<g>
			<path fill="#434343" d="M25,30.258c-6.829,0-11.968-4.834-11.968-7.969c0-3.135,5.139-7.969,11.968-7.969
				c6.941,0,11.967,4.76,11.967,7.969S31.941,30.258,25,30.258z M24.993,16.153c-6.079,0-10.106,4.365-10.106,6.134
				c0,1.769,4.027,6.134,10.106,6.134c6.181,0,10.103-4.313,10.103-6.134C35.096,20.465,31.173,16.153,24.993,16.153z"/>
		</g>
		<g>
			<ellipse fill="#434343" cx="25.001" cy="22.298" rx="1.952" ry="1.938"/>
		</g>
	</g>
	<g>
		<path fill="#434343" d="M24.993,26.267c-3.354,0-5.981-1.736-5.981-3.953c0-2.217,2.627-3.953,5.981-3.953
			c3.353,0,5.979,1.736,5.979,3.953C30.973,24.531,28.346,26.267,24.993,26.267z M25.019,19.205c-2.753,0-5.078,1.418-5.078,3.094
			c0,1.678,2.325,3.094,5.078,3.094c2.75,0,5.077-1.416,5.077-3.094C30.096,20.623,27.77,19.205,25.019,19.205z"/>
	</g>
</g>
</svg>
