<?xml version="1.0" encoding="utf-8"?>
<!-- Generator: Adobe Illustrator 15.0.0, SVG Export Plug-In . SVG Version: 6.00 Build 0)  -->
<!DOCTYPE svg PUBLIC "-//W3C//DTD SVG 1.0//EN" "http://www.w3.org/TR/2001/REC-SVG-20010904/DTD/svg10.dtd">
<svg version="1.0" id="Layer_1" xmlns="http://www.w3.org/2000/svg" xmlns:xlink="http://www.w3.org/1999/xlink" x="0px" y="0px"
	 width="52px" height="53px" viewBox="0 0 52 53" enable-background="new 0 0 52 53" xml:space="preserve">
<g>
	<g>
		<path fill="#434343" d="M34.977,32.227H15.052c-1.101,0-1.996-0.893-1.996-1.986V17.244c0-1.094,0.896-1.984,1.996-1.984h19.925
			c1.102,0,1.996,0.893,1.996,1.984V30.24C36.973,31.334,36.078,32.227,34.977,32.227z M35.119,17.248l-20.143,0.01l-0.003,13.02
			l20.143-0.01c0.004,0,0.005,0,0.006-0.002L35.119,17.248z"/>
	</g>
	<rect x="14.921" y="20.309" fill="#434343" width="20.167" height="1.916"/>
	<rect x="14.921" y="25.309" fill="#434343" width="20.167" height="1.916"/>
	<rect x="20.025" y="25.258" fill="#434343" width="1.938" height="5.031"/>
	<rect x="29.025" y="25.258" fill="#434343" width="1.938" height="5.031"/>
	<rect x="26.025" y="21.258" fill="#434343" width="1.938" height="5.031"/>
	<rect x="17.025" y="21.258" fill="#434343" width="1.938" height="5.031"/>
	<rect x="22.025" y="16.258" fill="#434343" width="1.938" height="5.031"/>
	<rect x="30.025" y="16.258" fill="#434343" width="1.938" height="5.031"/>
</g>
</svg>
