<?xml version="1.0" encoding="utf-8"?>
<!-- Generator: Adobe Illustrator 15.0.0, SVG Export Plug-In . SVG Version: 6.00 Build 0)  -->
<!DOCTYPE svg PUBLIC "-//W3C//DTD SVG 1.0//EN" "http://www.w3.org/TR/2001/REC-SVG-20010904/DTD/svg10.dtd">
<svg version="1.0" id="Layer_1" xmlns="http://www.w3.org/2000/svg" xmlns:xlink="http://www.w3.org/1999/xlink" x="0px" y="0px"
	 width="52px" height="53px" viewBox="0 0 52 53" enable-background="new 0 0 52 53" xml:space="preserve">
<g>
	<g>
		<path fill="#414042" d="M42.98,33.953c0,2.008-1.195,3.305-3.045,3.305H22.078c-1.855,0-3.055-1.291-3.055-3.289
			c0-1.297,0.529-2.66,1.348-3.477l7.365-9.826c0.891-0.888,2.043-1.364,3.271-1.364s2.382,0.477,3.248,1.342l7.41,9.871
			C42.455,31.301,42.98,32.658,42.98,33.953z M21.023,34.018c0,1.303,0.766,1.303,1.055,1.303h17.857c0.287,0,1.045,0,1.045-1.316
			c0-0.771-0.311-1.617-0.752-2.061l-7.408-9.903c-0.469-0.467-1.119-0.737-1.812-0.737s-1.346,0.271-1.836,0.761l-7.363,9.855
			C21.338,32.391,21.023,33.244,21.023,34.018z"/>
	</g>
	<circle fill="#414042" cx="31.045" cy="33.29" r="0.938"/>
	<path fill="#414042" d="M31.982,30.26c0,0.513-0.439,0.928-0.98,0.928l0,0c-0.539,0-0.979-0.415-0.979-0.928v-5.938
		c0-0.512,0.438-0.927,0.979-0.927l0,0c0.541,0,0.98,0.415,0.98,0.927V30.26z"/>
</g>
</svg>
