<?xml version="1.0" encoding="utf-8"?>
<!-- Generator: Adobe Illustrator 15.0.0, SVG Export Plug-In . SVG Version: 6.00 Build 0)  -->
<!DOCTYPE svg PUBLIC "-//W3C//DTD SVG 1.0//EN" "http://www.w3.org/TR/2001/REC-SVG-20010904/DTD/svg10.dtd">
<svg version="1.0" id="Layer_1" xmlns="http://www.w3.org/2000/svg" xmlns:xlink="http://www.w3.org/1999/xlink" x="0px" y="0px"
	 width="52px" height="53px" viewBox="0 0 52 53" enable-background="new 0 0 52 53" xml:space="preserve">
<g>
	<path fill="#434343" d="M19.767,27.346c0.088-1.647-1.56-1.364-1.683,0.935c-0.165,3.146,2.459,5.821,5.863,5.976
		c1.623,0.074,2.6-0.893,1.683-0.935C22.226,33.168,19.602,30.491,19.767,27.346z"/>
	<g>
		<path fill="#434343" d="M23.516,38.258c-5.229,0-9.484-4.258-9.484-9.492c0-4.951,7.868-13.242,8.765-14.171
			c0.377-0.391,1.062-0.391,1.439,0c0.896,0.929,8.765,9.22,8.765,14.171C33,34,28.745,38.258,23.516,38.258z M23.516,16.75
			c-2.64,2.862-7.578,8.876-7.578,12.081c0,4.153,3.399,7.533,7.578,7.533s7.578-3.38,7.578-7.533
			C31.094,25.623,26.156,19.61,23.516,16.75z"/>
	</g>
</g>
</svg>
