<?xml version="1.0" encoding="utf-8"?>
<!-- Generator: Adobe Illustrator 15.0.0, SVG Export Plug-In . SVG Version: 6.00 Build 0)  -->
<!DOCTYPE svg PUBLIC "-//W3C//DTD SVG 1.0//EN" "http://www.w3.org/TR/2001/REC-SVG-20010904/DTD/svg10.dtd">
<svg version="1.0" id="Layer_1" xmlns="http://www.w3.org/2000/svg" xmlns:xlink="http://www.w3.org/1999/xlink" x="0px" y="0px"
	 width="52px" height="53px" viewBox="0 0 52 53" enable-background="new 0 0 52 53" xml:space="preserve">
<g>
	<path fill="#414042" d="M38.969,17.816c0-1.37-1.121-2.484-2.5-2.484c-0.941,0-1.752,0.525-2.179,1.291
		c-0.519-0.33-1.121-0.357-1.478-0.003l-1.508,1.511c-0.125,0.124-0.191,0.283-0.229,0.455c-4.134-2.158-9.366-1.502-12.836,1.969
		c-4.277,4.276-4.281,11.23-0.009,15.501c4.272,4.273,11.226,4.269,15.502-0.01c3.449-3.447,4.115-8.637,2.006-12.756
		c0.186-0.032,0.359-0.098,0.492-0.23l1.512-1.511c0.377-0.377,0.32-1.031-0.07-1.568C38.441,19.556,38.969,18.75,38.969,17.816z
		 M19.533,34.771c-2.283-2.283-3.076-5.494-2.401-8.439h2.858v3.958h4.021v4h3.979v2.875C25.04,37.85,21.82,37.059,19.533,34.771z
		 M28.927,36.895v-3.521h-3.979v-4h-4.021v-4.041h-3.503c0.187-0.529,0.424-1.043,0.712-1.537c0.162,0.303,0.469,0.517,0.833,0.517
		c0.528,0,0.958-0.435,0.958-0.969c0-0.478-0.35-0.856-0.799-0.937c0.141-0.161,0.278-0.324,0.432-0.478
		c0.605-0.605,1.279-1.101,1.992-1.499v0.902h3.438v3.959h3.979v4h4.021v4.041h0.537c-0.33,0.498-0.715,0.971-1.152,1.409
		C31.37,35.745,30.186,36.457,28.927,36.895z M33.99,32.555v-4.182h-4.021v-4h-4.041v-4.041h-4.211
		c3.438-1.834,7.803-1.314,10.688,1.568C35.277,24.774,35.803,29.123,33.99,32.555z M36.965,19.21l-1.9-1.9
		c0.211-0.568,0.759-0.979,1.404-0.979c0.827,0,1.5,0.666,1.5,1.484C37.969,18.461,37.547,19.007,36.965,19.21z"/>
	<ellipse fill="#414042" cx="26.969" cy="31.342" rx="0.958" ry="0.969"/>
	<ellipse fill="#414042" cx="26.969" cy="27.343" rx="0.958" ry="0.969"/>
	<ellipse fill="#414042" cx="22.969" cy="27.343" rx="0.958" ry="0.969"/>
	<ellipse fill="#414042" cx="22.969" cy="23.343" rx="0.958" ry="0.969"/>
	<ellipse fill="#414042" cx="30.969" cy="31.342" rx="0.958" ry="0.969"/>
	<ellipse fill="#414042" cx="30.969" cy="34.342" rx="0.958" ry="0.969"/>
</g>
</svg>
