<?xml version="1.0" encoding="utf-8"?>
<!-- Generator: Adobe Illustrator 15.0.0, SVG Export Plug-In . SVG Version: 6.00 Build 0)  -->
<!DOCTYPE svg PUBLIC "-//W3C//DTD SVG 1.0//EN" "http://www.w3.org/TR/2001/REC-SVG-20010904/DTD/svg10.dtd">
<svg version="1.0" id="Layer_1" xmlns="http://www.w3.org/2000/svg" xmlns:xlink="http://www.w3.org/1999/xlink" x="0px" y="0px"
	 width="52px" height="53px" viewBox="0 0 52 53" enable-background="new 0 0 52 53" xml:space="preserve">
<g>
	<g>
		<g>
			<g>
				<g>
					<path fill="#231F20" d="M24.421,36.932c-6.598,0-11.966-5.369-11.966-11.97c0-6.6,5.368-11.969,11.966-11.969
						c6.598,0,11.966,5.369,11.966,11.969C36.387,31.562,31.019,36.932,24.421,36.932z M24.4,14.91
						c-5.555,0-10.075,4.516-10.075,10.062c0,5.549,4.521,10.062,10.075,10.062c5.554,0,10.074-4.514,10.074-10.062
						C34.474,19.426,29.954,14.91,24.4,14.91z"/>
				</g>
			</g>
		</g>
	</g>
	<g>
		<path fill="#231F20" d="M22.45,21.932c-0.122,0-0.246-0.021-0.366-0.07l-2.175-0.855l-2.176,0.855
			c-0.514,0.205-1.095-0.051-1.297-0.564C16.234,20.784,16.487,20.203,17,20l2.542-1c0.235-0.092,0.497-0.092,0.732,0l2.541,1
			c0.514,0.203,0.767,0.783,0.564,1.297C23.226,21.691,22.848,21.932,22.45,21.932z"/>
	</g>
	<g>
		<path fill="#231F20" d="M26.366,21.932c-0.4,0-0.779-0.242-0.933-0.64c-0.199-0.516,0.057-1.096,0.572-1.295l2.583-1
			c0.236-0.09,0.498-0.09,0.732,0.006l2.5,1c0.513,0.205,0.762,0.787,0.557,1.3c-0.205,0.512-0.787,0.762-1.3,0.557l-2.134-0.854
			l-2.217,0.857C26.609,21.91,26.487,21.932,26.366,21.932z"/>
	</g>
	<g>
		<path fill="#231F20" d="M24.408,31.994c-2.89,0-5.644-1.188-7.366-3.174c-0.181-0.207-0.158-0.523,0.05-0.705
			c0.209-0.18,0.523-0.158,0.706,0.051c1.535,1.771,4.006,2.828,6.61,2.828s5.075-1.059,6.61-2.828
			c0.181-0.209,0.497-0.229,0.705-0.051c0.209,0.182,0.231,0.498,0.051,0.705C30.052,30.807,27.298,31.994,24.408,31.994z"/>
	</g>
	<g>
		<path fill="#231F20" d="M28.366,30.836c0,0-0.958,2.73-3.948,1.816c-2.971,1.049-3.989-1.816-3.989-1.816s1.511-2.051,3.979,0.199
			C26.908,28.754,28.366,30.836,28.366,30.836z"/>
	</g>
</g>
</svg>
