<?xml version="1.0" encoding="utf-8"?>
<!-- Generator: Adobe Illustrator 15.0.0, SVG Export Plug-In . SVG Version: 6.00 Build 0)  -->
<!DOCTYPE svg PUBLIC "-//W3C//DTD SVG 1.0//EN" "http://www.w3.org/TR/2001/REC-SVG-20010904/DTD/svg10.dtd">
<svg version="1.0" id="Layer_1" xmlns="http://www.w3.org/2000/svg" xmlns:xlink="http://www.w3.org/1999/xlink" x="0px" y="0px"
	 width="52px" height="53px" viewBox="0 0 52 53" enable-background="new 0 0 52 53" xml:space="preserve">
<g>
	<g>
		<g>
			<g>
				<path fill="#231F20" d="M24.938,38.869C18.355,38.869,13,33.516,13,26.939s5.355-11.93,11.938-11.93
					c6.582,0,11.938,5.354,11.938,11.93C36.875,33.518,31.52,38.869,24.938,38.869z M25,16.656c-5.641,0-10.23,4.568-10.23,10.189
					c0,5.619,4.589,10.189,10.23,10.189c5.641,0,10.23-4.57,10.23-10.189S30.641,16.656,25,16.656z"/>
			</g>
		</g>
		<g>
			<g>
				<path fill="#231F20" d="M22.979,23.471c0,1.334-0.653,2.416-1.458,2.416s-1.458-1.082-1.458-2.416
					C20.063,22.135,22.979,22.135,22.979,23.471z"/>
			</g>
		</g>
		<g>
			<g>
				<path fill="#231F20" d="M29.979,23.471c0,1.334-0.652,2.416-1.457,2.416c-0.806,0-1.459-1.082-1.459-2.416
					C27.062,22.135,29.979,22.135,29.979,23.471z"/>
			</g>
		</g>
	</g>
	<g>
		<g>
			<path fill="#231F20" d="M23.979,23.803h-7c-0.552,0-1-0.322-1-0.875c0-0.551,0.448-1,1-1h5v-1c0-0.551,0.448-1,1-1s1,0.449,1,1
				V23.803z"/>
		</g>
	</g>
	<g>
		<g>
			<path fill="#231F20" d="M32.979,23.803h-7v-2.875c0-0.551,0.448-1,1-1c0.553,0,1,0.449,1,1v1h5c0.553,0,1,0.449,1,1
				C33.979,23.48,33.532,23.803,32.979,23.803z"/>
		</g>
	</g>
	<g>
		<g>
			<path fill="#231F20" d="M26.158,36.795c-0.315,0-0.624-0.16-0.806-0.453c-0.881-1.422-0.158-3.465,1.646-4.65
				c0.807-0.527,1.714-0.807,2.562-0.771c0.965,0.033,1.776,0.469,2.228,1.193c0.284,0.457,0.153,1.064-0.291,1.357
				c-0.442,0.291-1.034,0.158-1.317-0.301c-0.152-0.244-0.529-0.283-0.685-0.289c-0.466-0.02-0.994,0.154-1.472,0.467
				c-0.905,0.596-1.315,1.531-1.062,1.938c0.283,0.457,0.153,1.062-0.292,1.354C26.512,36.746,26.334,36.795,26.158,36.795z"/>
		</g>
	</g>
</g>
</svg>
