<?xml version="1.0" encoding="utf-8"?>
<!-- Generator: Adobe Illustrator 15.0.0, SVG Export Plug-In . SVG Version: 6.00 Build 0)  -->
<!DOCTYPE svg PUBLIC "-//W3C//DTD SVG 1.0//EN" "http://www.w3.org/TR/2001/REC-SVG-20010904/DTD/svg10.dtd">
<svg version="1.0" id="Layer_1" xmlns="http://www.w3.org/2000/svg" xmlns:xlink="http://www.w3.org/1999/xlink" x="0px" y="0px"
	 width="52px" height="53px" viewBox="0 0 52 53" enable-background="new 0 0 52 53" xml:space="preserve">
<g>
	<g>
		<g>
			<path fill="#231F20" d="M27.662,39.238c-6.594,0-11.958-5.375-11.958-11.98s5.364-11.98,11.958-11.98
				c6.594,0,11.958,5.375,11.958,11.98C39.621,33.863,34.256,39.238,27.662,39.238z M27.766,17.172
				c-5.585,0-10.128,4.561-10.128,10.17c0,5.607,4.543,10.168,10.128,10.168c5.586,0,10.131-4.561,10.131-10.168
				S33.352,17.172,27.766,17.172z"/>
		</g>
	</g>
	<g>
		<g>
			<path fill="#231F20" d="M26.663,24.756c0,1.381-1.106-0.609-2.469-0.609c-1.363,0-2.469,1.99-2.469,0.609
				c0-1.379,1.106-2.498,2.469-2.498C25.557,22.258,26.663,23.377,26.663,24.756z"/>
		</g>
	</g>
	<g>
		<g>
			<path fill="#231F20" d="M33.602,24.723c0,1.314-1.096-0.518-2.443-0.518c-1.35,0-2.443,1.832-2.443,0.518
				c0-1.312,1.094-2.381,2.443-2.381C32.506,22.342,33.602,23.408,33.602,24.723z"/>
		</g>
	</g>
	<g>
		<g>
			<path fill="#231F20" d="M27.684,34.258c-2.496,0-4.884-1.207-6.726-3.4c-0.341-0.404-0.266-0.994,0.168-1.314
				c0.434-0.318,1.063-0.248,1.404,0.158c1.454,1.73,3.284,2.686,5.154,2.686c1.869,0,3.698-0.953,5.152-2.686
				c0.342-0.406,0.971-0.479,1.404-0.158s0.509,0.91,0.168,1.314C32.568,33.051,30.18,34.258,27.684,34.258z"/>
		</g>
	</g>
</g>
</svg>
