<?xml version="1.0" encoding="utf-8"?>
<!-- Generator: Adobe Illustrator 15.0.0, SVG Export Plug-In . SVG Version: 6.00 Build 0)  -->
<!DOCTYPE svg PUBLIC "-//W3C//DTD SVG 1.0//EN" "http://www.w3.org/TR/2001/REC-SVG-20010904/DTD/svg10.dtd">
<svg version="1.0" id="Layer_1" xmlns="http://www.w3.org/2000/svg" xmlns:xlink="http://www.w3.org/1999/xlink" x="0px" y="0px"
	 width="52px" height="53px" viewBox="0 0 52 53" enable-background="new 0 0 52 53" xml:space="preserve">
<g>
	<g>
		<g>
			<path fill="#231F20" d="M30.117,40.5c-6.594,0-11.958-5.383-11.958-12s5.364-12,11.958-12c6.594,0,11.958,5.383,11.958,12
				S36.711,40.5,30.117,40.5z M30.117,18.26c-5.626,0-10.205,4.594-10.205,10.24s4.578,10.24,10.205,10.24
				s10.205-4.594,10.205-10.24S35.744,18.26,30.117,18.26z"/>
		</g>
	</g>
	<g>
		<g>
			<path fill="#231F20" d="M27.118,24.718c0,1.515-0.653,2.741-1.458,2.741c-0.805,0-1.458-1.228-1.458-2.741
				C24.201,23.205,27.118,23.205,27.118,24.718z"/>
		</g>
	</g>
	<g>
		<g>
			<path fill="#231F20" d="M36.118,24.718c0,1.515-0.653,2.741-1.458,2.741c-0.805,0-1.458-1.228-1.458-2.741
				C33.201,23.205,36.118,23.205,36.118,24.718z"/>
		</g>
	</g>
	<g>
		<g>
			<path fill="#231F20" d="M30.16,37.5c-3.767,0-7.979-2.783-7.979-6.509c0-0.271,0.224-0.491,0.501-0.491h14.955
				c0.277,0,0.501,0.22,0.501,0.491C38.138,34.717,33.926,37.5,30.16,37.5z M23.214,31.482c0.366,2.933,3.891,5.143,6.945,5.143
				c3.054,0,6.577-2.21,6.944-5.143H23.214z"/>
		</g>
	</g>
</g>
</svg>
