<?xml version="1.0" encoding="utf-8"?>
<!-- Generator: Adobe Illustrator 15.0.0, SVG Export Plug-In . SVG Version: 6.00 Build 0)  -->
<!DOCTYPE svg PUBLIC "-//W3C//DTD SVG 1.0//EN" "http://www.w3.org/TR/2001/REC-SVG-20010904/DTD/svg10.dtd">
<svg version="1.0" id="Layer_1" xmlns="http://www.w3.org/2000/svg" xmlns:xlink="http://www.w3.org/1999/xlink" x="0px" y="0px"
	 width="52px" height="53px" viewBox="0 0 52 53" enable-background="new 0 0 52 53" xml:space="preserve">
<g>
	<g>
		<g>
			<path fill="#231F20" d="M26.096,40.283c-6.571,0-11.917-5.328-11.917-11.879c0-6.549,5.345-11.878,11.917-11.878
				c6.572,0,11.917,5.329,11.917,11.878C38.013,34.955,32.667,40.283,26.096,40.283z M26.081,18.268
				c-5.575,0-10.11,4.529-10.11,10.099c0,5.568,4.536,10.1,10.11,10.1c5.574,0,10.109-4.53,10.109-10.1
				C36.189,22.797,31.654,18.268,26.081,18.268z"/>
		</g>
	</g>
	<g>
		<g>
			<ellipse fill="#231F20" cx="22.638" cy="24.946" rx="1.458" ry="2.417"/>
		</g>
	</g>
	<g>
		<g>
			<ellipse fill="#231F20" cx="29.638" cy="24.946" rx="1.458" ry="2.417"/>
		</g>
	</g>
	<g>
		<g>
			<path fill="#231F20" d="M29.594,35.369c-1.02,0-2.287-0.289-3.813-1.13c-3.29-1.813-4.896-0.252-4.962-0.186
				c-0.385,0.388-1.015,0.4-1.408,0.023c-0.394-0.377-0.419-0.994-0.048-1.396c0.107-0.114,2.67-2.792,7.383-0.195
				c3.246,1.789,4.548,0.277,4.561,0.263c0.339-0.438,0.967-0.514,1.403-0.176s0.515,0.967,0.176,1.401
				C32.823,34.059,31.767,35.369,29.594,35.369z"/>
		</g>
	</g>
</g>
</svg>
