<?xml version="1.0" encoding="utf-8"?>
<!-- Generator: Adobe Illustrator 15.0.0, SVG Export Plug-In . SVG Version: 6.00 Build 0)  -->
<!DOCTYPE svg PUBLIC "-//W3C//DTD SVG 1.0//EN" "http://www.w3.org/TR/2001/REC-SVG-20010904/DTD/svg10.dtd">
<svg version="1.0" id="Layer_1" xmlns="http://www.w3.org/2000/svg" xmlns:xlink="http://www.w3.org/1999/xlink" x="0px" y="0px"
	 width="52px" height="53px" viewBox="0 0 52 53" enable-background="new 0 0 52 53" xml:space="preserve">
<g>
	<g>
		<path fill="#414042" d="M27.025,33.143V19.332c0-2.205,1.799-4,4.009-4h-0.142c2.209,0,4.008,1.795,4.008,4v13.811
			c0,2.207-1.799,4-4.008,4h0.142C28.824,37.143,27.025,35.348,27.025,33.143z M33.025,19.181c0-1.124-0.916-2.038-2.041-2.038
			h-0.106c-1.125,0-2.039,0.914-2.039,2.038v14.112c0,1.123,0.914,2.039,2.039,2.039h0.106c1.125,0,2.041-0.916,2.041-2.039V19.181z
			"/>
	</g>
	<g>
		<path fill="#414042" d="M21.651,15.3c2.006,0,3.303,1.195,3.303,3.044v15.858c0,1.854-1.291,3.056-3.288,3.056
			c-1.297,0-2.66-0.529-3.476-1.349l-5.826-6.364C11.476,28.654,11,27.5,11,26.273s0.477-2.381,1.342-3.249l5.872-6.409
			C18.999,15.825,20.356,15.3,21.651,15.3z M21.716,35.256c1.301,0,1.301-0.766,1.301-1.054V18.344c0-0.286,0-1.044-1.316-1.044
			c-0.771,0-1.617,0.309-2.06,0.751l-5.903,6.41c-0.467,0.469-0.737,1.119-0.737,1.812s0.271,1.345,0.761,1.835l5.856,6.364
			C20.089,34.943,20.942,35.256,21.716,35.256z"/>
	</g>
</g>
</svg>
