<?xml version="1.0" encoding="utf-8"?>
<!-- Generator: Adobe Illustrator 15.0.0, SVG Export Plug-In . SVG Version: 6.00 Build 0)  -->
<!DOCTYPE svg PUBLIC "-//W3C//DTD SVG 1.0//EN" "http://www.w3.org/TR/2001/REC-SVG-20010904/DTD/svg10.dtd">
<svg version="1.0" id="Layer_1" xmlns="http://www.w3.org/2000/svg" xmlns:xlink="http://www.w3.org/1999/xlink" x="0px" y="0px"
	 width="52px" height="53px" viewBox="0 0 52 53" enable-background="new 0 0 52 53" xml:space="preserve">
<g>
	<path fill="#414042" d="M38.943,15.257h-17.93c-1.662,0-3.014,1.368-3.014,3.05v12.857c0,1.684,1.352,3.051,3.014,3.051h17.932
		c1.662,0,3.016-1.367,3.016-3.051V18.307C41.959,16.625,40.605,15.257,38.943,15.257z M39.023,32.34H21.02
		c-0.562,0-1.021-0.476-1.021-1.06v-8.024h6.837v-1.957h-6.837v-2.981c0-0.584,0.459-1.061,1.021-1.061h18.004
		c0.563,0,1.022,0.477,1.022,1.061v2.981h-7.005v1.957h7.005v8.024C40.046,31.864,39.587,32.34,39.023,32.34z"/>
	<path fill="#414042" d="M30.02,20.299c-1.096,0-1.98,0.408-1.98,0.912v2.091c0,0.504,0.887,0.912,1.98,0.912S32,23.807,32,23.303
		v-2.091C32,20.708,31.113,20.299,30.02,20.299z"/>
	<path fill="#414042" d="M28.906,13.169h2.164c0.537,0,0.977,0.533,0.977,1.025h1.911c0-1.619-1.321-2.938-2.944-2.938h-2.025
		c-1.625,0-2.945,1.318-2.945,2.938h1.889C27.93,13.702,28.367,13.169,28.906,13.169z"/>
</g>
</svg>
