<?xml version="1.0" encoding="utf-8"?>
<!-- Generator: Adobe Illustrator 15.0.0, SVG Export Plug-In . SVG Version: 6.00 Build 0)  -->
<!DOCTYPE svg PUBLIC "-//W3C//DTD SVG 1.0//EN" "http://www.w3.org/TR/2001/REC-SVG-20010904/DTD/svg10.dtd">
<svg version="1.0" id="Layer_1" xmlns="http://www.w3.org/2000/svg" xmlns:xlink="http://www.w3.org/1999/xlink" x="0px" y="0px"
	 width="52px" height="53px" viewBox="0 0 52 53" enable-background="new 0 0 52 53" xml:space="preserve">
<g>
	<g>
		<path fill="#414042" d="M25.933,36.287c-6.601,0-11.97-5.371-11.97-11.969c0-6.601,5.369-11.97,11.97-11.97
			c6.6,0,11.969,5.369,11.969,11.97C37.901,30.916,32.532,36.287,25.933,36.287z M25.882,14.262
			c-5.572,0-10.105,4.543-10.105,10.129c0,5.584,4.533,10.127,10.105,10.127c5.573,0,10.107-4.543,10.107-10.127
			C35.99,18.805,31.455,14.262,25.882,14.262z"/>
	</g>
	<g>
		<path fill="#414042" d="M24.707,28.256c-0.118,0-0.237-0.029-0.345-0.092c-0.238-0.137-0.387-0.398-0.387-0.689v-6.248
			c0-0.289,0.148-0.555,0.387-0.689c0.236-0.135,0.525-0.12,0.75,0.039l4.388,3.126c0.203,0.146,0.325,0.39,0.325,0.648
			c0,0.262-0.122,0.506-0.325,0.648l-4.388,3.125C24.99,28.213,24.849,28.256,24.707,28.256z"/>
	</g>
</g>
</svg>
