<?xml version="1.0" encoding="utf-8"?>
<!-- Generator: Adobe Illustrator 15.0.0, SVG Export Plug-In . SVG Version: 6.00 Build 0)  -->
<!DOCTYPE svg PUBLIC "-//W3C//DTD SVG 1.0//EN" "http://www.w3.org/TR/2001/REC-SVG-20010904/DTD/svg10.dtd">
<svg version="1.0" id="Layer_1" xmlns="http://www.w3.org/2000/svg" xmlns:xlink="http://www.w3.org/1999/xlink" x="0px" y="0px"
	 width="52px" height="53px" viewBox="0 0 52 53" enable-background="new 0 0 52 53" xml:space="preserve">
<g>
	<g>
		<path fill="#434343" d="M23.783,36.258c-0.257,0-0.512-0.101-0.704-0.291c-0.327-0.324-0.389-0.832-0.151-1.228l2.046-3.394
			c-5.099-1.08-8.779-4.696-8.779-8.855c0-5.069,5.36-9.192,11.951-9.192c6.59,0,11.951,4.123,11.951,9.192
			c0,3.789-2.938,7.124-7.494,8.525l-8.299,5.095C24.143,36.209,23.962,36.258,23.783,36.258z M28.146,15.298
			c-5.488,0-9.954,3.227-9.954,7.192c0,3.536,3.658,6.592,8.51,7.105c0.339,0.037,0.637,0.244,0.788,0.552s0.138,0.668-0.04,0.961
			l-0.693,1.149l4.914-3.015c0.074-0.046,0.154-0.081,0.236-0.104c3.763-1.121,6.193-3.73,6.193-6.648
			C38.102,18.525,33.634,15.298,28.146,15.298z"/>
	</g>
</g>
</svg>
