<?xml version="1.0" encoding="utf-8"?>
<!-- Generator: Adobe Illustrator 15.0.0, SVG Export Plug-In . SVG Version: 6.00 Build 0)  -->
<!DOCTYPE svg PUBLIC "-//W3C//DTD SVG 1.0//EN" "http://www.w3.org/TR/2001/REC-SVG-20010904/DTD/svg10.dtd">
<svg version="1.0" id="Layer_1" xmlns="http://www.w3.org/2000/svg" xmlns:xlink="http://www.w3.org/1999/xlink" x="0px" y="0px"
	 width="52px" height="53px" viewBox="0 0 52 53" enable-background="new 0 0 52 53" xml:space="preserve">
<g>
	<g>
		<path fill="#414042" d="M22.5,33.5c-6.604,0-11.977-5.383-11.977-12s5.373-12,11.977-12s11.977,5.383,11.977,12
			S29.104,33.5,22.5,33.5z M22.523,11.458c-5.537,0-10.042,4.505-10.042,10.042s4.505,10.042,10.042,10.042
			S32.565,27.037,32.565,21.5S28.06,11.458,22.523,11.458z"/>
	</g>
	<circle fill="#414042" cx="22.523" cy="21.5" r="2"/>
	<path fill="#414042" d="M28.523,21.5c0,0.553-1.567,1-3.5,1s-2.5-0.447-2.5-1s0.567-1,2.5-1S28.523,20.947,28.523,21.5z"/>
	<path fill="#414042" d="M23.523,18c0,2.485-0.447,3.5-1,3.5c-0.553,0-1-1.015-1-3.5s0.447-4.5,1-4.5
		C23.076,13.5,23.523,15.515,23.523,18z"/>
</g>
</svg>
