<?xml version="1.0" encoding="utf-8"?>
<!-- Generator: Adobe Illustrator 15.0.0, SVG Export Plug-In . SVG Version: 6.00 Build 0)  -->
<!DOCTYPE svg PUBLIC "-//W3C//DTD SVG 1.0//EN" "http://www.w3.org/TR/2001/REC-SVG-20010904/DTD/svg10.dtd">
<svg version="1.0" id="Layer_1" xmlns="http://www.w3.org/2000/svg" xmlns:xlink="http://www.w3.org/1999/xlink" x="0px" y="0px"
	 width="52px" height="53px" viewBox="0 0 52 53" enable-background="new 0 0 52 53" xml:space="preserve">
<g>
	<rect x="25.501" y="22.542" fill="#434343" width="1.937" height="0.937"/>
	<rect x="25.501" y="28.542" fill="#434343" width="1.937" height="0.937"/>
	<rect x="24.5" y="23.542" fill="#434343" width="0.979" height="4.854"/>
	<rect x="27.5" y="23.542" fill="#434343" width="0.979" height="4.854"/>
	<rect x="19.501" y="22.542" fill="#434343" width="1.937" height="0.937"/>
	<rect x="19.501" y="28.542" fill="#434343" width="1.937" height="0.937"/>
	<rect x="18.5" y="23.542" fill="#434343" width="0.979" height="4.854"/>
	<rect x="22.501" y="28.542" fill="#434343" width="1.937" height="0.937"/>
	<rect x="22.5" y="22.542" fill="#434343" width="0.979" height="6.854"/>
	<rect x="34.501" y="22.542" fill="#434343" width="1.937" height="0.937"/>
	<rect x="34.501" y="28.542" fill="#434343" width="1.937" height="0.937"/>
	<rect x="34.501" y="25.542" fill="#434343" width="1.937" height="0.937"/>
	<rect x="33.5" y="23.584" fill="#434343" width="0.979" height="4.854"/>
	<g>
		<path fill="#434343" d="M36.5,33.5h-18c-1.654,0-3-1.359-3-3.033v-9.902c0-1.666,1.346-3.022,3-3.022h18c1.654,0,3,1.356,3,3.022
			v9.902C39.5,32.141,38.154,33.5,36.5,33.5z M18.5,19.458c-0.552,0-1,0.466-1,1.038v10.039c0,0.576,0.448,1.048,1,1.048h18
			c0.552,0,1-0.472,1-1.048V20.496c0-0.572-0.448-1.038-1-1.038H18.5z"/>
	</g>
	<path fill="#434343" d="M27.182,14.436c0.102,0.035,0.205,0.064,0.318,0.064c0.139,0,0.271-0.027,0.391-0.079l5.672,4.204h1.681
		l-6.765-5.014c0.004-0.036,0.021-0.067,0.021-0.104c0-0.548-0.447-0.991-1-0.991c-0.553,0-1,0.443-1,0.991
		c0,0.06,0.023,0.11,0.033,0.167l-5.804,4.95h1.541L27.182,14.436z"/>
	<rect x="30.5" y="22.547" fill="#434343" width="1.984" height="0.953"/>
	<rect x="29.505" y="23.521" fill="#434343" width="0.969" height="1.983"/>
	<rect x="31.505" y="26.521" fill="#434343" width="0.969" height="1.983"/>
	<rect x="29.5" y="28.547" fill="#434343" width="1.984" height="0.953"/>
	<rect x="30.5" y="25.547" fill="#434343" width="0.969" height="0.953"/>
</g>
</svg>
