<?xml version="1.0" encoding="utf-8"?>
<!-- Generator: Adobe Illustrator 15.0.0, SVG Export Plug-In . SVG Version: 6.00 Build 0)  -->
<!DOCTYPE svg PUBLIC "-//W3C//DTD SVG 1.0//EN" "http://www.w3.org/TR/2001/REC-SVG-20010904/DTD/svg10.dtd">
<svg version="1.0" id="Layer_1" xmlns="http://www.w3.org/2000/svg" xmlns:xlink="http://www.w3.org/1999/xlink" x="0px" y="0px"
	 width="52px" height="53px" viewBox="0 0 52 53" enable-background="new 0 0 52 53" xml:space="preserve">
<g>
	<g>
		<path fill="#434343" d="M32.491,26.188c-1.23,0-4.445-0.033-4.445-0.033c-0.545-0.006-0.983-0.443-0.987-0.986
			c0,0-0.018-3.207-0.018-4.443c0-3.014,2.443-5.465,5.45-5.465c3.005,0,5.448,2.451,5.448,5.465
			C37.939,23.737,35.496,26.188,32.491,26.188z M28.954,24.264c1.08,0.01,2.741,0.022,3.558,0.022c1.969,0,3.568-1.604,3.568-3.573
			c0-1.972-1.602-3.574-3.568-3.574c-1.97,0-3.57,1.604-3.57,3.574C28.941,21.528,28.948,23.188,28.954,24.264z"/>
	</g>
	<g>
		<path fill="#434343" d="M19.5,26.211c-3.011,0-5.461-2.457-5.461-5.478s2.45-5.478,5.461-5.478c3.01,0,5.459,2.457,5.459,5.478
			v4.446c0,0.548-0.439,0.99-0.985,0.996C23.975,26.178,20.782,26.211,19.5,26.211z M19.524,17.258
			c-1.921,0-3.484,1.565-3.484,3.492c0,1.926,1.563,3.491,3.484,3.491c0.823,0,2.436-0.014,3.483-0.022V20.75
			C23.007,18.823,21.444,17.258,19.524,17.258z"/>
	</g>
	<g>
		<path fill="#434343" d="M19.486,39.174c-2.999,0-5.438-2.422-5.438-5.4s2.439-5.398,5.438-5.398c1.258,0,4.488,0.031,4.488,0.031
			c0.55,0.006,0.991,0.449,0.985,0.992c0,0.002-0.033,3.188-0.033,4.375C24.926,36.752,22.486,39.174,19.486,39.174z M19.51,30.182
			c-1.935,0-3.509,1.586-3.509,3.535s1.574,3.535,3.509,3.535c1.935,0,3.509-1.586,3.509-3.535c0-0.791,0.015-2.438,0.024-3.51
			C21.973,30.195,20.329,30.182,19.51,30.182z"/>
	</g>
	<g>
		<path fill="#434343" d="M32.527,39.174c-3.016,0-5.471-2.424-5.471-5.402c0-1.213,0.025-4.408,0.025-4.408
			c0.004-0.541,0.447-0.979,0.996-0.979c0,0,3.207-0.014,4.449-0.014c3.018,0,5.472,2.424,5.472,5.4
			C38,36.75,35.546,39.174,32.527,39.174z M28.977,30.178c-0.008,1.078-0.02,2.736-0.02,3.545c0,1.959,1.59,3.553,3.545,3.553
			s3.546-1.594,3.546-3.553s-1.591-3.553-3.546-3.553C31.688,30.17,30.045,30.174,28.977,30.178z"/>
	</g>
</g>
</svg>
