<?xml version="1.0" encoding="utf-8"?>
<!-- Generator: Adobe Illustrator 15.0.0, SVG Export Plug-In . SVG Version: 6.00 Build 0)  -->
<!DOCTYPE svg PUBLIC "-//W3C//DTD SVG 1.0//EN" "http://www.w3.org/TR/2001/REC-SVG-20010904/DTD/svg10.dtd">
<svg version="1.0" id="Layer_1" xmlns="http://www.w3.org/2000/svg" xmlns:xlink="http://www.w3.org/1999/xlink" x="0px" y="0px"
	 width="52px" height="53px" viewBox="0 0 52 53" enable-background="new 0 0 52 53" xml:space="preserve">
<g>
	<g>
		<path fill="#414042" d="M22,31.258h-5c-1.103,0-2-0.896-2-2v-16c0-1.104,0.897-2,2-2h5c1.104,0,2,0.896,2,2v16
			C24,30.361,23.104,31.258,22,31.258z M17,13.258v16h5.001l-0.001-16H17z"/>
	</g>
	<g>
		<path fill="#414042" d="M37.027,31.258h-4.93c-1.088,0-1.973-0.896-1.973-2v-16c0-1.104,0.885-2,1.973-2h4.93
			c1.088,0,1.973,0.896,1.973,2v16C39,30.361,38.115,31.258,37.027,31.258z M32,13.258v16h5.001l-0.001-16H32z"/>
	</g>
	<g>
		<path fill="#414042" d="M29.898,31.258h-5.773c-1.062,0-1.925-0.896-1.925-2v-16c0-1.104,0.862-2,1.925-2h5.773
			c1.062,0,1.926,0.896,1.926,2v16C31.824,30.361,30.96,31.258,29.898,31.258z M23.924,13.258v16H30.1v-16H23.924z"/>
	</g>
</g>
</svg>
