<?xml version="1.0" encoding="utf-8"?>
<!-- Generator: Adobe Illustrator 15.0.0, SVG Export Plug-In . SVG Version: 6.00 Build 0)  -->
<!DOCTYPE svg PUBLIC "-//W3C//DTD SVG 1.0//EN" "http://www.w3.org/TR/2001/REC-SVG-20010904/DTD/svg10.dtd">
<svg version="1.0" id="Layer_1" xmlns="http://www.w3.org/2000/svg" xmlns:xlink="http://www.w3.org/1999/xlink" x="0px" y="0px"
	 width="52px" height="53px" viewBox="0 0 52 53" enable-background="new 0 0 52 53" xml:space="preserve">
<g>
	<path fill="#434343" d="M31.108,33.5c-0.803,0-1.558-0.312-2.125-0.878L23.5,27.153l-5.483,5.469c-1.134,1.133-3.113,1.133-4.248,0
		l-1.357-1.354c-0.567-0.565-0.879-1.318-0.879-2.118c0-0.8,0.312-1.553,0.879-2.118l5.484-5.47l-5.484-5.47
		c-1.171-1.168-1.171-3.068,0-4.237l1.357-1.354c1.135-1.132,3.113-1.131,4.248,0l5.483,5.47l5.484-5.469
		c1.136-1.132,3.114-1.135,4.249,0.001l1.356,1.353c0.567,0.565,0.88,1.317,0.88,2.117c0.001,0.802-0.312,1.554-0.88,2.12
		l-5.483,5.468l5.484,5.471c0.567,0.565,0.88,1.318,0.88,2.118c0,0.8-0.313,1.553-0.88,2.118l-1.357,1.354
		C32.665,33.188,31.91,33.5,31.108,33.5z M23.515,24.316l6.891,6.891c0.379,0.378,1.036,0.379,1.415,0l1.355-1.355
		c0.189-0.189,0.293-0.439,0.293-0.707s-0.104-0.518-0.293-0.707l-6.891-6.892l6.89-6.89c0.189-0.189,0.293-0.44,0.293-0.707
		c0-0.267-0.104-0.519-0.293-0.706l-1.355-1.356c-0.379-0.378-1.036-0.378-1.414,0.001l-6.891,6.889l-6.89-6.891
		c-0.377-0.377-1.036-0.377-1.415,0.001l-1.355,1.354c-0.39,0.391-0.39,1.025,0,1.415l6.89,6.891l-6.891,6.891
		c-0.188,0.189-0.292,0.439-0.292,0.707s0.104,0.518,0.292,0.707l1.355,1.355c0.378,0.379,1.037,0.377,1.415,0L23.515,24.316z"/>
</g>
</svg>
