<?xml version="1.0" encoding="utf-8"?>
<!-- Generator: Adobe Illustrator 15.0.0, SVG Export Plug-In . SVG Version: 6.00 Build 0)  -->
<!DOCTYPE svg PUBLIC "-//W3C//DTD SVG 1.1//EN" "http://www.w3.org/Graphics/SVG/1.1/DTD/svg11.dtd">
<svg version="1.1" id="Layer_1" xmlns="http://www.w3.org/2000/svg" xmlns:xlink="http://www.w3.org/1999/xlink" x="0px" y="0px"
	 width="52px" height="53px" viewBox="0 0 52 53" enable-background="new 0 0 52 53" xml:space="preserve">
<g>
	<g>
		<path fill="#444444" d="M34.248,35.94L34.248,35.94c-0.55,0-1.08-0.254-1.58-0.756L22.026,23.547
			c-0.355-0.39-0.344-0.987,0.029-1.36l2.819-2.828c0.384-0.385,1.003-0.385,1.386-0.002c3.258,3.256,10.354,11.311,10.656,11.651
			c0.459,0.457,0.712,0.99,0.711,1.541c-0.001,0.873-0.616,1.486-1.157,2.027l-0.202,0.204C35.729,35.325,35.119,35.94,34.248,35.94
			z M24.106,22.911l9.979,10.914c0.071,0.074,0.132,0.113,0.166,0.135c0.147-0.084,0.435-0.369,0.627-0.562l0.211-0.213
			c0.201-0.201,0.498-0.498,0.572-0.646c-0.021-0.01-0.066-0.078-0.17-0.184c-0.107-0.119-6.472-7.336-9.927-10.904L24.106,22.911z"
			/>
	</g>
	<g>
		<path fill="#444444" d="M17.835,27.991c-0.002,0-0.002,0-0.002,0c-0.633,0-1.29-0.334-1.9-0.967l-1.259-1.303
			c-1.319-1.363-1.039-2.63-0.396-3.298l1.145-1.185c0.268-0.276,0.661-0.375,1.02-0.258l0,0c0,0,0.369,0.117,0.742,0.117
			c0.256,0,0.342-0.059,0.342-0.059c0.07-0.119,0.029-0.66-0.092-1.02c-0.129-0.377-0.035-0.799,0.237-1.082
			c1.45-1.5,3.333-3.465,4.354-4.53l0.697-0.725c0.217-0.225,0.868-0.898,6.959-1.656c0.305-0.039,0.612,0.072,0.832,0.299
			l0.842,0.873c0.395,0.406,0.395,1.064,0.002,1.473c-0.271,0.279-0.861,0.623-2.758,1.666c-0.691,0.382-1.603,0.882-1.996,1.132
			c-0.031,0.338,0,1.03,0.08,1.622c0.045,0.33-0.065,0.664-0.3,0.896l-3.958,3.959c-0.271,0.271-0.66,0.359-1.015,0.24l0,0
			c0,0-0.242-0.076-0.521-0.076c-0.121,0-0.341,0.017-0.453,0.121c-0.092,0.084-0.086,0.574,0.047,0.959
			c0.129,0.381,0.035,0.812-0.242,1.097l-1.131,1.147C18.769,27.797,18.321,27.991,17.835,27.991z M15.778,23.819
			c0.043,0.088,0.136,0.238,0.316,0.428l1.262,1.303c0.184,0.191,0.33,0.287,0.416,0.33l0.646-0.656
			c-0.118-0.709-0.128-1.799,0.675-2.541c0.463-0.428,1.082-0.65,1.799-0.65c0.187,0,0.361,0.017,0.519,0.037l3.216-3.213
			c-0.211-2.118,0.254-2.6,0.436-2.788c0.252-0.26,0.778-0.565,2.594-1.563c0.062-0.035,0.127-0.07,0.193-0.107
			c-1.74,0.275-3.332,0.6-3.756,0.82l-0.638,0.666C22.526,16.854,20.883,18.567,19.5,20c0.128,0.707,0.16,1.782-0.56,2.526
			c-0.291,0.301-0.832,0.66-1.758,0.66c-0.264,0-0.516-0.029-0.729-0.065L15.778,23.819z"/>
	</g>
</g>
</svg>
