<?xml version="1.0" encoding="utf-8"?>
<!-- Generator: Adobe Illustrator 15.0.0, SVG Export Plug-In . SVG Version: 6.00 Build 0)  -->
<!DOCTYPE svg PUBLIC "-//W3C//DTD SVG 1.0//EN" "http://www.w3.org/TR/2001/REC-SVG-20010904/DTD/svg10.dtd">
<svg version="1.0" id="Layer_1" xmlns="http://www.w3.org/2000/svg" xmlns:xlink="http://www.w3.org/1999/xlink" x="0px" y="0px"
	 width="52px" height="53px" viewBox="0 0 52 53" enable-background="new 0 0 52 53" xml:space="preserve">
<g>
	<g>
		<path fill="#434343" d="M22.211,29.307h-3.475c-0.959,0-1.736,0.66-1.736,1.59v8.562c0,0.93,0.777,1.776,1.736,1.776h3.475
			c0.959,0,1.736-0.754,1.736-1.685v-8.562C23.947,30.061,23.17,29.307,22.211,29.307z"/>
		<path fill="#434343" d="M40.936,30.438c-0.271-1.203-1.371-2.105-2.68-2.105h-2.798c-1.351,0-2.427-0.34-2.021-0.74
			c0,0,1.771-1.584,1.856-3.571c0.088-1.986-1.317-2.677-2.469-2.677l-0.556,0.062c-1.771,0.67-4.363,5.254-5.117,6.613
			c0,0-0.696,1.191-1.276,1.43l-0.835,0.141V40.36l1.782-0.062c1.01,0,1.503,0.488,2.024,1.006c0.45,0.447,0.963,0.955,1.752,0.955
			l5.652-0.094c0.484,0,4.744-0.279,4.744-9.982L40.936,30.438z M36.341,40.268l-5.707,0.094c-0.104-0.07-0.29-0.256-0.418-0.381
			c-0.592-0.586-1.562-1.543-3.298-1.619v-7.395c0.873-0.537,1.541-1.521,1.887-2.107c1.842-3.322,3.413-5.344,4.077-5.809
			l0.048-0.006c0.321-0.043,0.573,0.125,0.615,0.832c-0.041,0.936-2.074,3.078-2.109,3.852c-0.037,0.771,0.238,0.998,0.597,1.355
			c0.555,0.555,1.866,0.973,3.509,0.973h2.866c0.348,0,0.602,0.209,0.704,0.445l0.06,1.668
			C39.167,38.643,37.134,40.213,36.341,40.268z"/>
	</g>
	<g>
		<path fill="#434343" d="M38.902,34.232h-3.889c-0.539,0-0.974-0.43-0.974-0.959s0.435-0.957,0.974-0.957h3.889
			c0.537,0,0.974,0.428,0.974,0.957S39.439,34.232,38.902,34.232z"/>
	</g>
	<g>
		<path fill="#434343" d="M38.938,38.252h-3.916c-0.541,0-0.979-0.435-0.979-0.97c0-0.534,0.438-0.969,0.979-0.969h3.916
			c0.543,0,0.979,0.435,0.979,0.969C39.917,37.819,39.479,38.252,38.938,38.252z"/>
	</g>
</g>
</svg>
