<?xml version="1.0" encoding="utf-8"?>
<!-- Generator: Adobe Illustrator 15.0.0, SVG Export Plug-In . SVG Version: 6.00 Build 0)  -->
<!DOCTYPE svg PUBLIC "-//W3C//DTD SVG 1.1//EN" "http://www.w3.org/Graphics/SVG/1.1/DTD/svg11.dtd">
<svg version="1.1" id="Layer_1" xmlns="http://www.w3.org/2000/svg" xmlns:xlink="http://www.w3.org/1999/xlink" x="0px" y="0px"
	 width="52px" height="53px" viewBox="0 0 52 53" enable-background="new 0 0 52 53" xml:space="preserve">
<g>
	<g>
		<path fill="#444444" d="M35.144,36.701H17.223c-1.658,0-3.008-1.359-3.008-3.029v-11.88c0-1.67,1.35-3.029,3.008-3.029h17.921
			c1.659,0,3.009,1.359,3.009,3.029v11.88C38.152,35.342,36.803,36.701,35.144,36.701z M17.111,20.675
			c-0.562,0-1.021,0.469-1.021,1.043v12.027c0,0.574,0.459,1.043,1.021,1.043h18.145c0.563,0,1.021-0.469,1.021-1.043V21.718
			c0-0.574-0.458-1.043-1.021-1.043H17.111z"/>
	</g>
	<g>
		<path fill="#444444" d="M26.176,29.669c-0.772,0-1.558-0.288-2.15-0.872l-6.441-5.289c-0.424-0.348-0.479-0.967-0.125-1.383
			c0.355-0.416,0.984-0.472,1.408-0.123l6.508,5.348c0.461,0.447,1.104,0.443,1.498,0.056L33.526,22
			c0.425-0.348,1.058-0.286,1.407,0.13c0.353,0.419,0.292,1.038-0.135,1.383l-6.582,5.344
			C27.672,29.395,26.928,29.669,26.176,29.669z"/>
	</g>
	<g>
		<path fill="#444444" d="M18.184,33.731c-0.256,0-0.51-0.099-0.705-0.291c-0.393-0.39-0.395-1.022-0.004-1.414l2.969-2.984
			c0.391-0.392,1.023-0.393,1.414-0.004c0.393,0.39,0.395,1.022,0.004,1.414l-2.969,2.983C18.697,33.635,18.44,33.731,18.184,33.731
			z"/>
	</g>
	<g>
		<path fill="#444444" d="M34.152,33.731c-0.26,0-0.52-0.101-0.715-0.302l-2.953-3.016C30.098,30.02,30.104,29.387,30.5,29
			c0.396-0.385,1.027-0.381,1.414,0.016l2.953,3.017c0.387,0.396,0.381,1.026-0.016,1.414
			C34.657,33.637,34.405,33.731,34.152,33.731z"/>
	</g>
</g>
</svg>
