<?xml version="1.0" encoding="utf-8"?>
<!-- Generator: Adobe Illustrator 15.0.0, SVG Export Plug-In . SVG Version: 6.00 Build 0)  -->
<!DOCTYPE svg PUBLIC "-//W3C//DTD SVG 1.0//EN" "http://www.w3.org/TR/2001/REC-SVG-20010904/DTD/svg10.dtd">
<svg version="1.0" id="Layer_1" xmlns="http://www.w3.org/2000/svg" xmlns:xlink="http://www.w3.org/1999/xlink" x="0px" y="0px"
	 width="52px" height="53px" viewBox="0 0 52 53" enable-background="new 0 0 52 53" xml:space="preserve">
<g>
	<g>
		<path fill="#434343" d="M27.882,22.232c-0.161,0-0.325-0.039-0.478-0.123c-0.911-0.496-1.922-0.506-2.843-0.02
			c-0.467,0.246-1.042,0.09-1.318-0.357l-4.089-6.246c-0.141-0.227-0.185-0.5-0.122-0.76c0.062-0.26,0.226-0.482,0.454-0.621
			c3.968-2.406,9.052-2.406,13.017,0c0.229,0.139,0.392,0.361,0.454,0.621c0.062,0.26,0.018,0.533-0.122,0.76l-4.103,6.271
			C28.545,22.062,28.218,22.232,27.882,22.232z M25.964,19.841c0.519,0,1.027,0.086,1.521,0.256l3.094-4.883
			c-2.877-1.467-6.288-1.467-9.167,0l3.085,4.865C24.975,19.921,25.465,19.841,25.964,19.841z"/>
	</g>
	<g>
		<path fill="#434343" d="M32.055,36.227c-0.074,0-0.15-0.008-0.225-0.025c-0.26-0.059-0.484-0.221-0.625-0.443l-4.062-6.526
			c-0.146-0.231-0.188-0.517-0.119-0.781c0.069-0.267,0.246-0.491,0.486-0.623c0.926-0.508,1.498-1.441,1.53-2.5
			c0.019-0.539,0.46-0.969,1-0.969h6.914c0.553,0,1,0.446,1,1c0,5.14-1.604,8.344-5.367,10.717
			C32.427,36.174,32.241,36.227,32.055,36.227z M29.359,28.877l3.002,4.936c2.354-1.799,3.408-4.051,3.57-7.604h-5.004
			C30.691,27.243,30.141,28.182,29.359,28.877z"/>
	</g>
	<g>
		<path fill="#434343" d="M19.885,36.258c-0.188,0-0.375-0.053-0.537-0.156c-3.746-2.381-5.344-5.596-5.344-10.746
			c0-0.553,0.448-1,1-1h6.835c0.541,0,0.983,0.43,1,0.969c0.033,1.064,0.627,2.033,1.553,2.529c0.243,0.131,0.422,0.355,0.493,0.621
			c0.071,0.268,0.03,0.551-0.115,0.785l-4.035,6.522c-0.141,0.229-0.367,0.392-0.627,0.449C20.035,36.25,19.96,36.258,19.885,36.258
			z M15.871,26.153c0.165,3.588,1.243,5.867,3.646,7.685l3.054-4.953c-0.82-0.707-1.398-1.666-1.643-2.73L15.871,26.153
			L15.871,26.153z"/>
	</g>
	<path fill="#434343" d="M26.954,23.536c-0.292-0.172-0.628-0.275-0.99-0.275c-0.343,0-0.661,0.096-0.941,0.248
		c-0.609,0.336-1.027,0.975-1.027,1.721c0,0.043,0.01,0.082,0.013,0.125c0.046,0.721,0.475,1.33,1.089,1.635
		c0.263,0.129,0.555,0.209,0.867,0.209c0.331,0,0.639-0.09,0.913-0.233c0.59-0.312,0.998-0.908,1.043-1.608
		c0.003-0.043,0.013-0.082,0.013-0.125C27.934,24.503,27.537,23.878,26.954,23.536z"/>
</g>
</svg>
