<?xml version="1.0" encoding="utf-8"?>
<!-- Generator: Adobe Illustrator 15.0.0, SVG Export Plug-In . SVG Version: 6.00 Build 0)  -->
<!DOCTYPE svg PUBLIC "-//W3C//DTD SVG 1.0//EN" "http://www.w3.org/TR/2001/REC-SVG-20010904/DTD/svg10.dtd">
<svg version="1.0" id="Layer_1" xmlns="http://www.w3.org/2000/svg" xmlns:xlink="http://www.w3.org/1999/xlink" x="0px" y="0px"
	 width="52px" height="53px" viewBox="0 0 52 53" enable-background="new 0 0 52 53" xml:space="preserve">
<g>
	<g>
		<path fill="#414042" d="M29.016,40.258c-6.602,0-11.972-5.383-11.972-12s5.37-12,11.972-12c6.603,0,11.971,5.383,11.971,12
			S35.616,40.258,29.016,40.258z M29.016,18.092c-5.596,0-10.146,4.561-10.146,10.166s4.551,10.166,10.146,10.166
			c5.596,0,10.146-4.561,10.146-10.166S34.609,18.092,29.016,18.092z"/>
	</g>
	<g>
		<path fill="#414042" d="M29.027,29.242c-0.125,0-0.25-0.023-0.369-0.07l-10-3.984c-0.514-0.205-0.764-0.787-0.559-1.301
			c0.202-0.512,0.782-0.762,1.299-0.559l8.315,3.312l-1.629-8.826c-0.103-0.543,0.261-1.064,0.804-1.166
			c0.545-0.104,1.062,0.26,1.163,0.803l1.96,10.607c0.064,0.357-0.068,0.725-0.352,0.955C29.48,29.164,29.256,29.242,29.027,29.242z
			"/>
	</g>
</g>
</svg>
