<?xml version="1.0" encoding="utf-8"?>
<!-- Generator: Adobe Illustrator 15.0.0, SVG Export Plug-In . SVG Version: 6.00 Build 0)  -->
<!DOCTYPE svg PUBLIC "-//W3C//DTD SVG 1.0//EN" "http://www.w3.org/TR/2001/REC-SVG-20010904/DTD/svg10.dtd">
<svg version="1.0" id="Layer_1" xmlns="http://www.w3.org/2000/svg" xmlns:xlink="http://www.w3.org/1999/xlink" x="0px" y="0px"
	 width="52px" height="53px" viewBox="0 0 52 53" enable-background="new 0 0 52 53" xml:space="preserve">
<g>
	<g>
		<path fill="#434343" d="M31.964,30.215c-4.401,0-7.985-3.579-7.985-7.979c0-4.398,3.584-7.979,7.985-7.979
			c2.871,0,3.892,4.298,3.892,7.979C35.854,25.917,34.835,30.215,31.964,30.215z M32.159,16.257c-3.522,0-6.388,2.684-6.388,5.979
			c0,3.297,2.865,5.979,6.388,5.979c0.45,0,0.946-0.57,1.321-1.527c0.449-1.142,0.707-2.764,0.707-4.451
			C34.188,18.713,33.118,16.257,32.159,16.257z"/>
	</g>
	<g>
		<path fill="#434343" d="M38.921,20.215h-3.967c-0.517,0-0.935-0.426-0.935-0.948c0-0.521,0.418-0.947,0.935-0.947h3.967
			c0.517,0,0.935,0.426,0.935,0.947C39.855,19.79,39.438,20.215,38.921,20.215z"/>
	</g>
	<g>
		<path fill="#434343" d="M38.938,26.215h-4.041c-0.554,0-1-0.435-1-0.969c0-0.534,0.446-0.97,1-0.97h4.041c0.554,0,1,0.436,1,0.97
			C39.938,25.78,39.49,26.215,38.938,26.215z"/>
	</g>
	<g>
		<path fill="#434343" d="M16.957,31.153c-0.46,0-0.866-0.353-0.943-0.849c-0.087-0.553,0.266-1.073,0.788-1.166
			c1.533-0.268,3.001-1.312,3.833-2.726c0.256-0.437,0.375-0.938,0.514-1.521c0.103-0.429,0.207-0.87,0.377-1.323
			c0.541-1.435,1.723-2.226,3.328-2.229h0.002c0.528,0,0.957,0.452,0.959,1.011c0,0.559-0.426,1.014-0.955,1.016
			c-1.053,0.002-1.377,0.483-1.553,0.953c-0.125,0.328-0.209,0.688-0.3,1.068c-0.155,0.652-0.331,1.391-0.745,2.094
			c-1.113,1.896-3.086,3.299-5.146,3.657C17.061,31.15,17.008,31.153,16.957,31.153z"/>
	</g>
</g>
</svg>
