<?xml version="1.0" encoding="utf-8"?>
<!-- Generator: Adobe Illustrator 15.0.0, SVG Export Plug-In . SVG Version: 6.00 Build 0)  -->
<!DOCTYPE svg PUBLIC "-//W3C//DTD SVG 1.0//EN" "http://www.w3.org/TR/2001/REC-SVG-20010904/DTD/svg10.dtd">
<svg version="1.0" id="Layer_1" xmlns="http://www.w3.org/2000/svg" xmlns:xlink="http://www.w3.org/1999/xlink" x="0px" y="0px"
	 width="52px" height="53px" viewBox="0 0 52 53" enable-background="new 0 0 52 53" xml:space="preserve">
<g>
	<g>
		<path fill="#414042" d="M23.925,18.371v13.811c0,2.205-1.798,4-4.008,4h0.142c-2.21,0-4.009-1.795-4.009-4V18.371
			c0-2.207,1.799-4,4.009-4h-0.142C22.127,14.371,23.925,16.164,23.925,18.371z M17.925,32.332c0,1.125,0.916,2.039,2.041,2.039
			h0.107c1.125,0,2.039-0.914,2.039-2.039V18.221c0-1.123-0.914-2.037-2.039-2.037h-0.107c-1.125,0-2.041,0.914-2.041,2.037V32.332z
			"/>
	</g>
	<g>
		<path fill="#414042" d="M36.646,14.258c2.006,0,3.304,1.195,3.304,3.045V33.16c0,1.854-1.291,3.055-3.288,3.055
			c-1.297,0-2.66-0.529-3.477-1.348l-5.826-6.365c-0.887-0.891-1.363-2.043-1.363-3.271c0-1.227,0.477-2.381,1.342-3.248
			l5.872-6.408C33.995,14.783,35.354,14.258,36.646,14.258z M36.712,34.215c1.302,0,1.302-0.766,1.302-1.055V17.303
			c0-0.287,0-1.045-1.316-1.045c-0.771,0-1.617,0.309-2.061,0.752l-5.902,6.408c-0.467,0.469-0.737,1.119-0.737,1.812
			s0.271,1.348,0.761,1.836l5.855,6.363C35.085,33.9,35.938,34.215,36.712,34.215z"/>
	</g>
</g>
</svg>
