<?xml version="1.0" encoding="utf-8"?>
<!-- Generator: Adobe Illustrator 15.0.0, SVG Export Plug-In . SVG Version: 6.00 Build 0)  -->
<!DOCTYPE svg PUBLIC "-//W3C//DTD SVG 1.0//EN" "http://www.w3.org/TR/2001/REC-SVG-20010904/DTD/svg10.dtd">
<svg version="1.0" id="Layer_1" xmlns="http://www.w3.org/2000/svg" xmlns:xlink="http://www.w3.org/1999/xlink" x="0px" y="0px"
	 width="52px" height="53px" viewBox="0 0 52 53" enable-background="new 0 0 52 53" xml:space="preserve">
<g>
	<path fill="#414042" d="M13.045,28.283c0,1.229,0.477,2.381,1.342,3.249l7.873,7.41c0.785,0.789,2.143,1.313,3.438,1.313
		c1.815,0,3.038-0.985,3.258-2.543l1.305,1.229c0.785,0.789,2.144,1.313,3.438,1.313c2.006,0,3.303-1.194,3.303-3.045V19.354
		c0-1.855-1.291-3.054-3.289-3.054c-1.297,0-2.66,0.529-3.475,1.347l-1.281,1.205c-0.217-1.562-1.436-2.552-3.244-2.552
		c-1.297,0-2.66,0.529-3.475,1.347l-7.826,7.365C13.521,25.902,13.045,27.057,13.045,28.283z M23.783,30.096
		c-0.467-0.469-0.738-1.119-0.738-1.812s0.271-1.345,0.762-1.835l7.855-7.365c0.473-0.471,1.326-0.784,2.1-0.784
		c1.301,0,1.301,0.766,1.301,1.054v17.857c0,0.285,0,1.045-1.314,1.045c-0.771,0-1.617-0.31-2.062-0.752L23.783,30.096z
		 M15.045,28.283c0-0.693,0.271-1.345,0.762-1.835l7.855-7.365c0.473-0.471,1.326-0.784,2.1-0.784c1.301,0,1.301,0.766,1.301,1.054
		v1.28l-4.65,4.378c-0.891,0.89-1.365,2.043-1.365,3.271s0.479,2.382,1.344,3.249l4.676,4.4v1.279c0,0.285,0,1.045-1.316,1.045
		c-0.771,0-1.617-0.31-2.061-0.752l-7.902-7.41C15.316,29.629,15.045,28.977,15.045,28.283z"/>
</g>
</svg>
