<?xml version="1.0" encoding="utf-8"?>
<!-- Generator: Adobe Illustrator 15.0.0, SVG Export Plug-In . SVG Version: 6.00 Build 0)  -->
<!DOCTYPE svg PUBLIC "-//W3C//DTD SVG 1.0//EN" "http://www.w3.org/TR/2001/REC-SVG-20010904/DTD/svg10.dtd">
<svg version="1.0" id="Layer_1" xmlns="http://www.w3.org/2000/svg" xmlns:xlink="http://www.w3.org/1999/xlink" x="0px" y="0px"
	 width="52px" height="53px" viewBox="0 0 52 53" enable-background="new 0 0 52 53" xml:space="preserve">
<g>
	<g>
		<path fill="#414042" d="M20.983,16.351v-0.76c0-0.253,0.207-0.459,0.462-0.459h3.232c0.253,0,0.462,0.206,0.462,0.459v0.76h1.875
			v-0.547c0-1.404-1.097-2.547-2.445-2.547h-3.047c-1.35,0-2.445,1.143-2.445,2.547v0.547H20.983z"/>
	</g>
	<g>
		<path fill="#414042" d="M27.046,37.186h-7.959c-1.631,0-2.962-1.309-2.999-2.932L14.087,18.31c0-1.254,0.678-2.003,1.813-2.003
			l0.123,0.001l14.023,0.002l0.194-0.003c1.131,0,1.806,0.749,1.806,2.003l-0.008,0.125l-1.993,15.819
			C30.009,35.877,28.677,37.186,27.046,37.186z M16.017,18.185l2.008,16.067c0,0.557,0.452,1.012,1.008,1.012h8.021
			c0.555,0,1.008-0.455,1.008-1.012l0.008-0.127l2-15.94H16.017z"/>
	</g>
	<g>
		<path fill="#414042" d="M32.982,18.164H13.045c-0.552,0-1-0.427-1-0.953c0-0.526,0.448-0.953,1-0.953h19.938
			c0.554,0,1,0.427,1,0.953C33.982,17.736,33.536,18.164,32.982,18.164z"/>
	</g>
	<g>
		<path fill="#414042" d="M25.068,34.164c-0.036,0-0.073-0.003-0.109-0.007c-0.55-0.062-0.945-0.562-0.886-1.116l0.958-8.866
			c0.06-0.555,0.559-0.957,1.103-0.896c0.55,0.061,0.945,0.562,0.886,1.117l-0.958,8.865C26.006,33.778,25.572,34.164,25.068,34.164
			z"/>
	</g>
	<g>
		<path fill="#414042" d="M21.024,34.205c-0.504,0-0.938-0.382-0.993-0.896l-0.959-8.928c-0.06-0.552,0.337-1.048,0.887-1.107
			c0.545-0.059,1.042,0.339,1.102,0.892l0.959,8.926c0.06,0.554-0.338,1.049-0.887,1.107C21.097,34.202,21.06,34.205,21.024,34.205z
			"/>
	</g>
	<g>
		<path fill="#414042" d="M28.796,21.2H17.234c-0.276,0-0.5-0.2-0.5-0.445c0-0.246,0.224-0.445,0.5-0.445h11.562
			c0.276,0,0.5,0.199,0.5,0.445C29.296,21,29.072,21.2,28.796,21.2z"/>
	</g>
</g>
</svg>
