<?xml version="1.0" encoding="utf-8"?>
<!-- Generator: Adobe Illustrator 15.0.0, SVG Export Plug-In . SVG Version: 6.00 Build 0)  -->
<!DOCTYPE svg PUBLIC "-//W3C//DTD SVG 1.0//EN" "http://www.w3.org/TR/2001/REC-SVG-20010904/DTD/svg10.dtd">
<svg version="1.0" id="Layer_1" xmlns="http://www.w3.org/2000/svg" xmlns:xlink="http://www.w3.org/1999/xlink" x="0px" y="0px"
	 width="52px" height="53px" viewBox="0 0 52 53" enable-background="new 0 0 52 53" xml:space="preserve">
<g>
	<path fill="#434343" d="M17.211,26.888h-3.475c-0.959,0-1.736-0.754-1.736-1.685v-8.562c0-0.93,0.777-1.686,1.736-1.686h3.475
		c0.959,0,1.736,0.756,1.736,1.686v8.562C18.947,26.135,18.17,26.888,17.211,26.888z"/>
	<path fill="#434343" d="M36,24.021C36,14.281,31.74,14,31.256,14h-5.652c-0.791,0-1.303,0.51-1.754,0.959
		c-0.521,0.521-1.016,1.01-2.023,1.01l-1.783-0.062V26.72l0.834,0.142c0.58,0.235,1.277,1.434,1.277,1.434
		c0.754,1.365,3.348,5.873,5.119,6.545l0.553,0.066c1.15,0,2.557-0.693,2.469-2.688c-0.088-1.996-1.857-3.586-1.857-3.586
		c-0.404-0.404,0.67-0.744,2.021-0.744h2.799c1.311,0,2.406-0.905,2.68-2.114L36,24.021z M34.084,23.931l-0.057,1.666
		c-0.104,0.238-0.355,0.447-0.701,0.447H30.48c-1.631,0-2.936,0.512-3.484,1.065c-0.355,0.354-0.629,0.584-0.594,1.354
		c0.035,0.771,2.057,2.822,2.098,3.756c-0.043,0.709-0.293,0.875-0.611,0.834l-0.049-0.006c-0.658-0.467-2.221-2.393-4.049-5.715
		c-0.344-0.588-1.006-1.57-1.873-2.107V17.83c1.725-0.076,2.688-1.033,3.275-1.619c0.127-0.125,0.311-0.309,0.414-0.381h5.668
		C32.064,15.888,34.084,17.459,34.084,23.931z"/>
	<g>
		<path fill="#434343" d="M33.943,21.953h-3.889c-0.537,0-0.975,0.424-0.975,0.947c0,0.522,0.438,0.946,0.975,0.946h3.889
			c0.539,0,0.973-0.424,0.973-0.946C34.916,22.377,34.482,21.953,33.943,21.953z"/>
	</g>
	<g>
		<path fill="#434343" d="M33.979,17.953h-3.916c-0.541,0-0.979,0.424-0.979,0.947c0,0.522,0.438,0.946,0.979,0.946h3.916
			c0.541,0,0.979-0.424,0.979-0.946C34.958,18.377,34.52,17.953,33.979,17.953z"/>
	</g>
</g>
</svg>
