<?xml version="1.0" encoding="utf-8"?>
<!-- Generator: Adobe Illustrator 15.0.0, SVG Export Plug-In . SVG Version: 6.00 Build 0)  -->
<!DOCTYPE svg PUBLIC "-//W3C//DTD SVG 1.0//EN" "http://www.w3.org/TR/2001/REC-SVG-20010904/DTD/svg10.dtd">
<svg version="1.0" id="Layer_1" xmlns="http://www.w3.org/2000/svg" xmlns:xlink="http://www.w3.org/1999/xlink" x="0px" y="0px"
	 width="134.013px" height="141.497px" viewBox="0 0 134.013 141.497" enable-background="new 0 0 134.013 141.497"
	 xml:space="preserve">
<g>
	<path fill="#434343" d="M67.063,61.647c0,0-0.014,6.688-0.014,8.406c0,1.545,0.618,2.305,1.968,2.445v3.057
		c0,0.533,0.652,0.967,1.456,0.967c0.803,0,1.457-0.434,1.457-0.967V72.53c0.684,0.002,1.399,0.004,2.087,0.006v3.02
		c0,0.533,0.652,0.967,1.456,0.967c0.803,0,1.457-0.434,1.457-0.967v-3.048c1.383-0.149,1.996-0.983,1.996-2.423
		c0-1.594-0.164-8.303-0.164-8.303L67.063,61.647z"/>
	<path fill="#434343" d="M81.474,60.669c-0.803,0-1.455,0.433-1.455,0.967v5.92c0,0.533,0.652,0.967,1.455,0.967
		c0.804,0,1.457-0.434,1.457-0.967v-5.92C82.931,61.101,82.276,60.669,81.474,60.669z"/>
	<path fill="#434343" d="M64.462,60.606c-0.808,0-1.465,0.441-1.465,0.987v6.003c0,0.546,0.657,0.988,1.465,0.988
		c0.812,0,1.469-0.442,1.469-0.988v-6.003C65.931,61.048,65.272,60.606,64.462,60.606z"/>
	<path fill="#434343" d="M75.962,56.389c0.016-0.019,0.04-0.027,0.053-0.049l1.879-2.975c0.15-0.238,0.062-0.545-0.2-0.684
		c-0.261-0.137-0.595-0.057-0.745,0.184l-1.877,2.975c-0.026,0.042-0.037,0.088-0.049,0.133c-0.635-0.219-1.315-0.347-2.028-0.347
		c-0.721,0-1.409,0.129-2.05,0.352c-0.013-0.047-0.022-0.094-0.051-0.138l-1.879-2.975c-0.149-0.24-0.483-0.32-0.743-0.184
		c-0.263,0.139-0.353,0.445-0.2,0.684l1.877,2.975c0.015,0.023,0.042,0.035,0.062,0.056c-1.577,0.866-2.718,2.388-3,4.188h11.968
		C78.692,58.779,77.546,57.255,75.962,56.389z M70.997,58.616h-1v-1h1V58.616z M75.997,58.616h-1v-1h1V58.616z"/>
</g>
</svg>
