<?xml version="1.0" encoding="utf-8"?>
<!-- Generator: Adobe Illustrator 15.0.0, SVG Export Plug-In . SVG Version: 6.00 Build 0)  -->
<!DOCTYPE svg PUBLIC "-//W3C//DTD SVG 1.0//EN" "http://www.w3.org/TR/2001/REC-SVG-20010904/DTD/svg10.dtd">
<svg version="1.0" id="Layer_1" xmlns="http://www.w3.org/2000/svg" xmlns:xlink="http://www.w3.org/1999/xlink" x="0px" y="0px"
	 width="134.013px" height="141.497px" viewBox="0 0 134.013 141.497" enable-background="new 0 0 134.013 141.497"
	 xml:space="preserve">
<g>
	<path fill="#434343" d="M73.879,59.757h-6.049l2.799-3.215c0.391-0.391,0.391-1.023,0-1.414s-1.023-0.391-1.414,0l-5.213,5.629
		l5.213,5.629c0.195,0.195,0.451,0.293,0.707,0.293s0.512-0.098,0.707-0.293c0.391-0.391,0.391-1.022,0-1.414l-2.799-3.215h6.049
		c0.553,0,1-0.446,1-1C74.879,60.204,74.432,59.757,73.879,59.757z"/>
	<path fill="#434343" d="M55.215,55.128c-0.391,0.391-0.391,1.023,0,1.414l2.834,3.215h-6.086c-0.553,0-1,0.447-1,1s0.447,1,1,1
		h6.086l-2.792,3.215c-0.391,0.391-0.391,1.023,0,1.414c0.195,0.195,0.451,0.293,0.707,0.293s0.512-0.098,0.707-0.293l5.206-5.629
		l-5.248-5.629C56.239,54.737,55.606,54.737,55.215,55.128z"/>
</g>
</svg>
