<?xml version="1.0" encoding="utf-8"?>
<!-- Generator: Adobe Illustrator 15.0.0, SVG Export Plug-In . SVG Version: 6.00 Build 0)  -->
<!DOCTYPE svg PUBLIC "-//W3C//DTD SVG 1.0//EN" "http://www.w3.org/TR/2001/REC-SVG-20010904/DTD/svg10.dtd">
<svg version="1.0" id="Layer_1" xmlns="http://www.w3.org/2000/svg" xmlns:xlink="http://www.w3.org/1999/xlink" x="0px" y="0px"
	 width="134.013px" height="141.497px" viewBox="0 0 134.013 141.497" enable-background="new 0 0 134.013 141.497"
	 xml:space="preserve">
<g>
	<path fill="#434343" d="M68.831,61.462c-0.966,0-1.012,1.458-1.012,1.458v6.396h6.938V67.37H69.77v-4.45
		C69.77,62.92,69.944,61.462,68.831,61.462z"/>
	<path fill="#434343" d="M56.046,67.36h2.159c-0.035-6.015,4.789-10.745,10.723-10.855c5.984-0.11,10.664,4.521,10.778,10.602
		s-4.463,11.119-10.447,11.23l-0.038-2.006c4.896-0.091,8.803-4.213,8.708-9.188c-0.094-4.976-4.151-8.948-9.048-8.858
		c-4.859,0.091-8.607,4.149-8.572,9.077h2.154c0.328,0.325,0.328,0.854,0,1.18l-2.614,2.595c-0.328,0.325-0.859,0.325-1.188,0
		l-2.615-2.595C55.717,68.214,55.717,67.687,56.046,67.36z"/>
</g>
</svg>
