<?xml version="1.0" encoding="utf-8"?>
<!-- Generator: Adobe Illustrator 15.0.0, SVG Export Plug-In . SVG Version: 6.00 Build 0)  -->
<!DOCTYPE svg PUBLIC "-//W3C//DTD SVG 1.0//EN" "http://www.w3.org/TR/2001/REC-SVG-20010904/DTD/svg10.dtd">
<svg version="1.0" id="Layer_1" xmlns="http://www.w3.org/2000/svg" xmlns:xlink="http://www.w3.org/1999/xlink" x="0px" y="0px"
	 width="134.013px" height="141.497px" viewBox="0 0 134.013 141.497" enable-background="new 0 0 134.013 141.497"
	 xml:space="preserve">
<path fill="#434343" d="M76.497,56.613l-2.226-1.93c-0.38-0.376-0.99-0.376-1.369,0v1.653h-3.196v-4c0-0.553-0.449-1-1.004-1h-3.949
	c-0.555,0-0.91,0.447-0.91,1v7h-2.102v-4.938c0-0.554-0.449-1-1.004-1h-3.902c-0.555,0-1.004,0.446-1.004,1v1.938h-2.027
	c-0.555,0-1.004,0.447-1.004,1s0.449,1,1.004,1h2.949c0.555,0,1.004-0.447,1.004-1v-2.031h2.07v5.031c0,0.553,0.354,1,0.91,1h4.016
	c0.555,0,1.004-0.447,1.004-1v-7h2.105v4c0,0.553,0.448,1,1.004,1h4.036v1.568c0.38,0.376,0.991,0.375,1.369,0l2.226-1.931
	C76.872,57.6,76.872,56.99,76.497,56.613z"/>
</svg>
