<?xml version="1.0" encoding="utf-8"?>
<!-- Generator: Adobe Illustrator 15.0.0, SVG Export Plug-In . SVG Version: 6.00 Build 0)  -->
<!DOCTYPE svg PUBLIC "-//W3C//DTD SVG 1.0//EN" "http://www.w3.org/TR/2001/REC-SVG-20010904/DTD/svg10.dtd">
<svg version="1.0" id="Layer_1" xmlns="http://www.w3.org/2000/svg" xmlns:xlink="http://www.w3.org/1999/xlink" x="0px" y="0px"
	 width="220px" height="227px" viewBox="0 0 220 227" enable-background="new 0 0 220 227" xml:space="preserve">
<g>
	<path fill="#434343" d="M118.02,110.428c0.564,0.564,1.408,0.564,1.973,0l0.001-23.174c-0.563-0.563-1.407-0.563-1.974,0
		l-13.563,10.564c-0.563,0.563-0.563,1.479,0,2.045L118.02,110.428z"/>
	<path fill="#434343" d="M98.126,88.174c0-0.787,0.856-1.426,1.918-1.426l0,0c1.059,0,1.916,0.639,1.916,1.426v20.98
		c0,0.787-0.857,1.426-1.916,1.426l0,0c-1.062,0-1.918-0.639-1.918-1.426V88.174L98.126,88.174z"/>
</g>
</svg>
