<?xml version="1.0" encoding="utf-8"?>
<!-- Generator: Adobe Illustrator 15.0.0, SVG Export Plug-In . SVG Version: 6.00 Build 0)  -->
<!DOCTYPE svg PUBLIC "-//W3C//DTD SVG 1.0//EN" "http://www.w3.org/TR/2001/REC-SVG-20010904/DTD/svg10.dtd">
<svg version="1.0" id="Layer_1" xmlns="http://www.w3.org/2000/svg" xmlns:xlink="http://www.w3.org/1999/xlink" x="0px" y="0px"
	 width="220px" height="227px" viewBox="0 0 220 227" enable-background="new 0 0 220 227" xml:space="preserve">
<g>
	<path fill="#434343" d="M114.321,121.821h5c1.099,0,2,0.896,2,2v2h2v-2c0-2.205-1.794-4-4-4h-5V121.821z"/>
	<path fill="#434343" d="M101.321,125.821v-2c0-1.104,0.896-2,2-2h5v-2h-5c-2.206,0-4,1.795-4,4v2H101.321z"/>
	<path fill="#434343" d="M121.321,130.821v2c0,1.104-0.897,2-2,2h-5v2h5c2.206,0,4-1.795,4-4v-2H121.321z"/>
	<path fill="#434343" d="M108.321,134.821h-5c-1.099,0-2-0.896-2-2v-2h-2v2c0,2.205,1.794,4,4,4h5V134.821z"/>
</g>
</svg>
