<?xml version="1.0" encoding="utf-8"?>
<!-- Generator: Adobe Illustrator 15.0.0, SVG Export Plug-In . SVG Version: 6.00 Build 0)  -->
<!DOCTYPE svg PUBLIC "-//W3C//DTD SVG 1.0//EN" "http://www.w3.org/TR/2001/REC-SVG-20010904/DTD/svg10.dtd">
<svg version="1.0" id="Layer_1" xmlns="http://www.w3.org/2000/svg" xmlns:xlink="http://www.w3.org/1999/xlink" x="0px" y="0px"
	 width="220px" height="227px" viewBox="0 0 220 227" enable-background="new 0 0 220 227" xml:space="preserve">
<g>
	<path fill="#434343" d="M101.878,119.634c0,0.707-0.506,1.282-1.13,1.282h-1.694c-0.621,0-1.128-0.575-1.128-1.282v-2.352
		c0-0.709,0.507-1.283,1.128-1.283h1.694c0.624,0,1.13,0.574,1.13,1.283V119.634z"/>
	<path fill="#434343" d="M89.347,123c1.854,0,7.527-1.979,7.527-3.938s0,0.979,0-1.062s-6.586-4-7.527-4
		C87.495,114,87.523,123,89.347,123z"/>
	<path fill="#434343" d="M110.5,123c-1.862,0-7.565-1.979-7.565-3.938s0,0.979,0-1.062s6.619-4,7.565-4
		C112.361,114,112.333,123,110.5,123z"/>
</g>
</svg>
