<?xml version="1.0" encoding="utf-8"?>
<!-- Generator: Adobe Illustrator 15.0.0, SVG Export Plug-In . SVG Version: 6.00 Build 0)  -->
<!DOCTYPE svg PUBLIC "-//W3C//DTD SVG 1.0//EN" "http://www.w3.org/TR/2001/REC-SVG-20010904/DTD/svg10.dtd">
<svg version="1.0" id="Layer_1" xmlns="http://www.w3.org/2000/svg" xmlns:xlink="http://www.w3.org/1999/xlink" x="0px" y="0px"
	 width="220px" height="227px" viewBox="0 0 220 227" enable-background="new 0 0 220 227" xml:space="preserve">
<g>
	<path fill="#434343" d="M129.774,109.437c0-6.604-5.354-11.957-11.958-11.957s-11.958,5.354-11.958,11.957
		c0,6.605,5.354,11.959,11.958,11.959c3.539,0,11.959-0.082,11.959-0.082S129.774,112.503,129.774,109.437z M117.816,117.98
		c-4.718,0-8.542-3.824-8.542-8.543c0-4.717,3.824-8.541,8.542-8.541c4.719,0,8.542,3.824,8.542,8.541
		C126.358,114.154,122.533,117.98,117.816,117.98z M127.275,120.439c-0.828,0-1.499-0.662-1.499-1.48
		c0-0.814,0.671-1.479,1.499-1.479c0.829,0,1.5,0.662,1.5,1.479S128.104,120.439,127.275,120.439z"/>
	<path fill="#434343" d="M118.32,103.819c1.504,0,1.012-1.008-1.006-1.008c-3.52,0-6.373,2.854-6.373,6.373
		c0,0.441,0.045,0.873,0.131,1.289c0.305,1.481,0.875,1.221,0.875-0.281C111.947,106.671,114.802,103.819,118.32,103.819z"/>
</g>
</svg>
