<?xml version="1.0" encoding="utf-8"?>
<!-- Generator: Adobe Illustrator 15.0.0, SVG Export Plug-In . SVG Version: 6.00 Build 0)  -->
<!DOCTYPE svg PUBLIC "-//W3C//DTD SVG 1.0//EN" "http://www.w3.org/TR/2001/REC-SVG-20010904/DTD/svg10.dtd">
<svg version="1.0" id="Layer_1" xmlns="http://www.w3.org/2000/svg" xmlns:xlink="http://www.w3.org/1999/xlink" x="0px" y="0px"
	 width="220px" height="227px" viewBox="0 0 220 227" enable-background="new 0 0 220 227" xml:space="preserve">
<g>
	<g>
		<path fill="#434343" d="M121.227,119.909c-1.633,0-2.961,1.317-2.961,2.94s1.328,2.94,2.961,2.94s2.96-1.317,2.96-2.94
			S122.859,119.909,121.227,119.909z M121.221,124.523c-0.93,0-1.688-0.754-1.688-1.684s0.758-1.684,1.688-1.684
			c0.932,0,1.686,0.754,1.686,1.684S122.15,124.523,121.221,124.523z"/>
		<path fill="#434343" d="M112.205,119.891c-1.64,0-2.971,1.326-2.971,2.967c0,1.637,1.332,2.967,2.971,2.967
			c1.641,0,2.973-1.33,2.973-2.967C115.177,121.219,113.845,119.891,112.205,119.891z M112.205,124.549
			c-0.936,0-1.692-0.759-1.692-1.69c0-0.937,0.759-1.693,1.692-1.693c0.937,0,1.695,0.759,1.695,1.693
			C113.9,123.79,113.141,124.549,112.205,124.549z"/>
	</g>
	<path fill="#434343" d="M106.229,114.329c0,1.904-2.743,3.447-4.893,3.447l1-6.896
		C104.485,110.882,106.229,112.425,106.229,114.329z"/>
	<polygon fill="#434343" points="110.606,117.777 103.668,115.081 104.287,113.048 111.226,115.743 	"/>
	<path fill="#434343" d="M124.15,116.645c0.047-0.201,0.075-0.408,0.075-0.623v-5.416c0-1.525-1.223-2.767-2.726-2.767h-6.405
		c-1.503,0-2.728,1.24-2.728,2.767l-1.002,5.416c0,0.008,0.002,0.014,0.002,0.02c-1.247,0.361-2.047,1.207-2.047,2.779
		c0,0.443,0.025,0.869,0.089,1.268c0.742-0.752,1.929-1.363,3.072-1.363c3.495,0,4,3.811,3.868,4.098h0.813
		c-0.002-0.033,0.535-3.643,3.67-4.031h0.666c0.062,0,0.117-0.014,0.179-0.018c1.44,0.104,2.662,0.971,3.284,2.184
		c0.228-0.617,0.265-1.348,0.265-2.135C125.229,117.818,124.805,117.12,124.15,116.645z M119.154,109.632h3.192v4.312h-3.192
		V109.632z M114.514,109.745h2.438c0.191,0,0.35,0.354,0.35,0.785v5.371h-3.135v-5.371
		C114.166,110.099,114.322,109.745,114.514,109.745z"/>
</g>
</svg>
