<?xml version="1.0" encoding="utf-8"?>
<!-- Generator: Adobe Illustrator 15.0.0, SVG Export Plug-In . SVG Version: 6.00 Build 0)  -->
<!DOCTYPE svg PUBLIC "-//W3C//DTD SVG 1.0//EN" "http://www.w3.org/TR/2001/REC-SVG-20010904/DTD/svg10.dtd">
<svg version="1.0" id="Layer_1" xmlns="http://www.w3.org/2000/svg" xmlns:xlink="http://www.w3.org/1999/xlink" x="0px" y="0px"
	 width="220px" height="227px" viewBox="0 0 220 227" enable-background="new 0 0 220 227" xml:space="preserve">
<g>
	<path fill="#434343" d="M104.832,106.152c-6.57,0-11.917,5.346-11.917,11.917c0,6.571,5.347,11.918,11.917,11.918
		s11.917-5.347,11.917-11.918C116.749,111.498,111.402,106.152,104.832,106.152z M104.832,127.986c-5.476,0-9.931-4.449-9.931-9.918
		c0-5.467,4.455-9.917,9.931-9.917s9.931,4.449,9.931,9.917C114.763,123.537,110.308,127.986,104.832,127.986z"/>
	<path fill="#434343" d="M108.867,116.045h-2.243v-2.351c0-0.688-0.642-1.583-1.887-1.583c-1.244,0-1.927,0.97-1.927,1.657v2.277
		h-2.313c-0.678,0-1.561,0.65-1.561,1.916s0.955,1.955,1.634,1.955h2.242v2.352c0,0.688,0.643,1.584,1.888,1.584
		c1.244,0,1.926-0.972,1.926-1.658v-2.277h2.313c0.678,0,1.561-0.65,1.561-1.916C110.499,116.736,109.544,116.045,108.867,116.045z"
		/>
</g>
</svg>
