<?xml version="1.0" encoding="utf-8"?>
<!-- Generator: Adobe Illustrator 15.0.0, SVG Export Plug-In . SVG Version: 6.00 Build 0)  -->
<!DOCTYPE svg PUBLIC "-//W3C//DTD SVG 1.0//EN" "http://www.w3.org/TR/2001/REC-SVG-20010904/DTD/svg10.dtd">
<svg version="1.0" id="Layer_1" xmlns="http://www.w3.org/2000/svg" xmlns:xlink="http://www.w3.org/1999/xlink" x="0px" y="0px"
	 width="220px" height="227px" viewBox="0 0 220 227" enable-background="new 0 0 220 227" xml:space="preserve">
<g>
	<path fill="#434343" d="M118.305,100.057h-8.833v10.938h10.833v-8.938C120.305,100.954,119.41,100.057,118.305,100.057z
		 M117.389,106.088h-5.031v-1.094h5.031V106.088z"/>
	<path fill="#434343" d="M109.472,123.973h8.833c1.105,0,2-0.895,2-2v-8.854h-10.833V123.973z M112.357,116.995h5.03v1.095h-5.03
		V116.995z M112.357,118.995h5.03v1.095h-5.03V118.995z"/>
	<path fill="#434343" d="M96.389,102.057v8.938h10.959v-10.938h-8.959C97.285,100.057,96.389,100.954,96.389,102.057z
		 M99.357,104.995h1.969v-1.969h1.095v1.969h1.968v1.095h-1.969v1.968h-1.094v-1.969h-1.97L99.357,104.995L99.357,104.995z"/>
	<path fill="#434343" d="M96.389,121.973c0,1.105,0.896,2,2,2h8.959v-10.854H96.389V121.973z M100.144,116.03l1.753,1.754
		l1.694-1.694l0.772,0.772l-1.693,1.694l1.745,1.744l-0.773,0.773l-1.745-1.744l-1.746,1.744l-0.772-0.773l1.746-1.744l-1.753-1.754
		L100.144,116.03z"/>
</g>
</svg>
