<?xml version="1.0" encoding="utf-8"?>
<!-- Generator: Adobe Illustrator 15.0.0, SVG Export Plug-In . SVG Version: 6.00 Build 0)  -->
<!DOCTYPE svg PUBLIC "-//W3C//DTD SVG 1.0//EN" "http://www.w3.org/TR/2001/REC-SVG-20010904/DTD/svg10.dtd">
<svg version="1.0" id="Layer_1" xmlns="http://www.w3.org/2000/svg" xmlns:xlink="http://www.w3.org/1999/xlink" x="0px" y="0px"
	 width="220px" height="227px" viewBox="0 0 220 227" enable-background="new 0 0 220 227" xml:space="preserve">
<g>
	<g>
		<path fill="#434343" d="M126.066,121h-18.124c-1.608,0-2.918-1.322-2.918-2.948v-11.104c0-1.626,1.31-2.947,2.918-2.947h18.124
			c1.607,0,2.917,1.321,2.917,2.947v11.104C128.983,119.678,127.674,121,126.066,121z M107.947,106c-0.51,0-0.924,0.426-0.924,0.947
			v11.104c0,0.522,0.414,0.948,0.924,0.948h18.153c0.509,0,0.923-0.426,0.923-0.948v-11.104c0-0.521-0.414-0.947-0.923-0.947
			H107.947z"/>
	</g>
	<rect x="110.045" y="104.969" fill="#434343" width="0.947" height="14.484"/>
	<rect x="117.045" y="104.969" fill="#434343" width="0.947" height="14.484"/>
	<rect x="123.045" y="104.969" fill="#434343" width="0.947" height="14.484"/>
	<ellipse fill="#434343" cx="110.5" cy="110.977" rx="2.479" ry="0.977"/>
	<ellipse fill="#434343" cx="110.5" cy="113.977" rx="2.479" ry="0.977"/>
	<ellipse fill="#434343" cx="110.5" cy="116.977" rx="2.479" ry="0.977"/>
	<ellipse fill="#434343" cx="117.5" cy="107.977" rx="2.479" ry="0.977"/>
	<ellipse fill="#434343" cx="117.5" cy="110.977" rx="2.479" ry="0.977"/>
	<ellipse fill="#434343" cx="117.5" cy="116.977" rx="2.479" ry="0.977"/>
	<ellipse fill="#434343" cx="123.5" cy="113.977" rx="2.479" ry="0.977"/>
	<ellipse fill="#434343" cx="123.5" cy="116.977" rx="2.479" ry="0.977"/>
</g>
</svg>
