<?xml version="1.0" encoding="utf-8"?>
<!-- Generator: Adobe Illustrator 15.0.0, SVG Export Plug-In . SVG Version: 6.00 Build 0)  -->
<!DOCTYPE svg PUBLIC "-//W3C//DTD SVG 1.0//EN" "http://www.w3.org/TR/2001/REC-SVG-20010904/DTD/svg10.dtd">
<svg version="1.0" id="Layer_1" xmlns="http://www.w3.org/2000/svg" xmlns:xlink="http://www.w3.org/1999/xlink" x="0px" y="0px"
	 width="220px" height="227px" viewBox="0 0 220 227" enable-background="new 0 0 220 227" xml:space="preserve">
<g>
	<circle fill="#434343" cx="110.5" cy="108.5" r="3.5"/>
	<path fill="#434343" d="M120,101h-3l-1-4h-9l-1,4h-1.708L103,104l-1.25-3H100c-1.104,0-2,0.896-2,2v11c0,1.104,0.896,2,2,2h20
		c1.104,0,2-0.896,2-2v-11C122,101.896,121.104,101,120,101z M109,98h5l1,2l-7,0.084L109,98z M110.5,114.125
		c-3.142,0-5.688-2.533-5.688-5.656s2.546-5.656,5.688-5.656c3.143,0,5.688,2.533,5.688,5.656S113.643,114.125,110.5,114.125z
		 M119,104h-2v-1h2V104z"/>
</g>
</svg>
