<?xml version="1.0" encoding="utf-8"?>
<!-- Generator: Adobe Illustrator 15.0.0, SVG Export Plug-In . SVG Version: 6.00 Build 0)  -->
<!DOCTYPE svg PUBLIC "-//W3C//DTD SVG 1.0//EN" "http://www.w3.org/TR/2001/REC-SVG-20010904/DTD/svg10.dtd">
<svg version="1.0" id="Layer_1" xmlns="http://www.w3.org/2000/svg" xmlns:xlink="http://www.w3.org/1999/xlink" x="0px" y="0px"
	 width="220px" height="227px" viewBox="0 0 220 227" enable-background="new 0 0 220 227" xml:space="preserve">
<path fill="none" d="M89.021,115.541h-0.043c-0.564,0-1.021,0.422-1.021,0.941v7.116c0,0.521,0.456,0.941,1.021,0.941h0.043
	c0.562,0,1.021-0.423,1.021-0.941v-7.116C90.042,115.963,89.584,115.541,89.021,115.541z"/>
<rect x="85.959" y="113.541" fill="none" width="1.041" height="1.082"/>
<path fill="#434343" d="M121.814,127.451c-0.482-0.074-0.856-0.387-0.856-0.853v-7.116c0-0.521,0.456-0.941,1.021-0.941h0.043
	c0.562,0,1.021,0.422,1.021,0.941v7.116c0,0.472-0.382,0.785-0.871,0.855l1.796,0.014l0.013-2.99h2.39l0.34-6.106h1.146
	c0.601,0,1.084-0.451,1.084-1.006v-0.818c0-0.555-0.483-1.006-1.084-1.006h-2.885l-2.602-5.441
	c-0.227-0.475-0.788-0.666-1.254-0.428l-0.105,0.055c-0.466,0.238-0.658,0.816-0.433,1.291l2.161,4.523h-11.451l2.207-4.517
	c0.23-0.471,0.042-1.051-0.422-1.295l-0.105-0.055c-0.464-0.242-1.025-0.058-1.258,0.416l-2.664,5.448h-2.959
	c-0.6,0-1.084,0.451-1.084,1.007v0.817c0,0.556,0.484,1.007,1.084,1.007h1.083l0.672,9.17c0,0,0.078,1.959,3.161,1.959
	c2.951,0,8.303,0,11.568,0l-1.988-2.059L121.814,127.451z M123.959,116.541H125v1.082h-1.041V116.541z M110,117.623h-1.041v-1.082
	H110V117.623z M113.042,126.6c0,0.521-0.458,0.941-1.021,0.941h-0.043c-0.564,0-1.021-0.422-1.021-0.941v-7.116
	c0-0.521,0.456-0.941,1.021-0.941h0.043c0.562,0,1.021,0.423,1.021,0.941V126.6z M118.042,126.6c0,0.521-0.458,0.941-1.021,0.941
	h-0.043c-0.564,0-1.021-0.422-1.021-0.941v-7.116c0-0.521,0.456-0.941,1.021-0.941h0.043c0.562,0,1.021,0.423,1.021,0.941V126.6z"/>
<polygon fill="#434343" points="125.99,131.493 128.912,128.543 126.943,128.549 126.943,125.523 125.023,125.523 125.037,128.556 
	123.053,128.54 "/>
</svg>
