<?xml version="1.0" encoding="utf-8"?>
<!-- Generator: Adobe Illustrator 15.0.0, SVG Export Plug-In . SVG Version: 6.00 Build 0)  -->
<!DOCTYPE svg PUBLIC "-//W3C//DTD SVG 1.0//EN" "http://www.w3.org/TR/2001/REC-SVG-20010904/DTD/svg10.dtd">
<svg version="1.0" id="Layer_1" xmlns="http://www.w3.org/2000/svg" xmlns:xlink="http://www.w3.org/1999/xlink" x="0px" y="0px"
	 width="220px" height="227px" viewBox="0 0 220 227" enable-background="new 0 0 220 227" xml:space="preserve">
<path fill="#434343" d="M101.552,132.518l0.048-0.047c-0.376-0.14-0.642-0.476-0.642-0.871v-7.117c0-0.52,0.456-0.94,1.021-0.94
	h0.044c0.562,0,1.021,0.422,1.021,0.94v6.554l3.411-3.396l0.255-4.27h1.146c0.6,0,1.084-0.451,1.084-1.006v-0.818
	c0-0.555-0.484-1.006-1.084-1.006h-2.886l-2.602-5.441c-0.228-0.475-0.788-0.666-1.254-0.428l-0.105,0.055
	c-0.466,0.238-0.659,0.816-0.433,1.291l2.162,4.523H91.286l2.207-4.517c0.229-0.471,0.042-1.051-0.422-1.295l-0.105-0.055
	c-0.464-0.242-1.025-0.058-1.258,0.416l-2.664,5.448h-2.959c-0.6,0-1.084,0.451-1.084,1.007v0.817c0,0.556,0.484,1.007,1.084,1.007
	h1.083l0.672,9.17c0,0,0.078,1.959,3.161,1.959s8.792,0,12,0c0.189,0,0.365-0.009,0.532-0.021L101.552,132.518z M103.959,121.541
	H105v1.082h-1.041V121.541z M90,122.623h-1.041v-1.082H90V122.623z M93.042,131.6c0,0.521-0.458,0.941-1.021,0.941h-0.044
	c-0.563,0-1.021-0.422-1.021-0.941v-7.116c0-0.521,0.456-0.941,1.021-0.941h0.044c0.562,0,1.021,0.423,1.021,0.941V131.6z
	 M98.042,131.6c0,0.521-0.458,0.941-1.021,0.941h-0.044c-0.563,0-1.021-0.422-1.021-0.941v-7.116c0-0.521,0.456-0.941,1.021-0.941
	h0.044c0.562,0,1.021,0.423,1.021,0.941V131.6z"/>
<polygon fill="#434343" points="103,132.516 105.95,135.438 105.944,133.469 108.969,133.469 108.969,131.549 105.938,131.562 
	105.953,129.578 "/>
</svg>
