<?xml version="1.0" encoding="utf-8"?>
<!-- Generator: Adobe Illustrator 15.0.0, SVG Export Plug-In . SVG Version: 6.00 Build 0)  -->
<!DOCTYPE svg PUBLIC "-//W3C//DTD SVG 1.0//EN" "http://www.w3.org/TR/2001/REC-SVG-20010904/DTD/svg10.dtd">
<svg version="1.0" id="Layer_1" xmlns="http://www.w3.org/2000/svg" xmlns:xlink="http://www.w3.org/1999/xlink" x="0px" y="0px"
	 width="220px" height="227px" viewBox="0 0 220 227" enable-background="new 0 0 220 227" xml:space="preserve">
<g>
	<path fill="#434343" d="M117.188,99.217c-6.597,0-11.947,4.003-11.947,8.941c0,4.508,4.463,8.226,10.259,8.842l-3.07,4.967
		l9.175-5.506c4.41-1.314,7.534-4.533,7.534-8.303C129.138,103.22,123.787,99.217,117.188,99.217z M112.74,110.654
		c-1.068,0-1.938-0.866-1.938-1.938s0.868-1.938,1.938-1.938c1.07,0,1.938,0.866,1.938,1.938S113.81,110.654,112.74,110.654z
		 M117.74,110.654c-1.068,0-1.938-0.866-1.938-1.938s0.868-1.938,1.938-1.938c1.07,0,1.938,0.866,1.938,1.938
		S118.81,110.654,117.74,110.654z M122.74,110.55c-1.012,0-1.833-0.821-1.833-1.833s0.821-1.833,1.833-1.833
		c1.013,0,1.833,0.821,1.833,1.833S123.752,110.55,122.74,110.55z"/>
</g>
</svg>
