<?xml version="1.0" encoding="utf-8"?>
<!-- Generator: Adobe Illustrator 15.0.0, SVG Export Plug-In . SVG Version: 6.00 Build 0)  -->
<!DOCTYPE svg PUBLIC "-//W3C//DTD SVG 1.0//EN" "http://www.w3.org/TR/2001/REC-SVG-20010904/DTD/svg10.dtd">
<svg version="1.0" id="Layer_1" xmlns="http://www.w3.org/2000/svg" xmlns:xlink="http://www.w3.org/1999/xlink" x="0px" y="0px"
	 width="220px" height="227px" viewBox="0 0 220 227" enable-background="new 0 0 220 227" xml:space="preserve">
<g>
	<path fill="#434343" d="M107.175,106.482h0.771c-0.728-2.69-3.425-14.873-3.464-15.095c0.021-0.674,0.613-1.921,1.036-2.36
		c0.457-0.475,1.146-1.189,1.146-2.488c0-1.215-0.409-4.039-4.194-4.039c-3.787,0-4.194,2.824-4.194,4.039
		c0,1.045,0.346,1.804,1.152,2.531c0.646,0.663,1.154,1.188,1.154,2.271c0,0.48-2.869,12.461-3.668,15.142h0.968
		c0.612-2.107,3.749-14.509,3.749-15.142c0-1.54-0.778-2.341-1.51-3.093c-0.581-0.523-0.799-0.987-0.799-1.71
		c0-1.956,1.06-2.947,3.146-2.947s3.146,0.991,3.146,2.947c0,0.785-0.348,1.207-0.836,1.715c-0.597,0.617-1.312,2.104-1.349,3.096
		C103.427,91.544,106.619,104.361,107.175,106.482z"/>
	<path fill="#434343" d="M102.133,95.524c-0.889,3.757-2.286,8.837-2.875,10.953h6.5c-0.534-2.131-1.986-7.255-2.875-10.953H102.133
		z"/>
	<path fill="#434343" d="M107.008,95.5c0.875,3.465,2.351,8.275,3.041,10.979H114V95.525L107.008,95.5z"/>
	<path fill="#434343" d="M91.029,95.545v10.893h3.918c0.771-2.677,2.121-7.414,3.021-10.893H91.029z"/>
</g>
</svg>
