<?xml version="1.0" encoding="utf-8"?>
<!-- Generator: Adobe Illustrator 15.0.0, SVG Export Plug-In . SVG Version: 6.00 Build 0)  -->
<!DOCTYPE svg PUBLIC "-//W3C//DTD SVG 1.0//EN" "http://www.w3.org/TR/2001/REC-SVG-20010904/DTD/svg10.dtd">
<svg version="1.0" id="Layer_1" xmlns="http://www.w3.org/2000/svg" xmlns:xlink="http://www.w3.org/1999/xlink" x="0px" y="0px"
	 width="220px" height="227px" viewBox="0 0 220 227" enable-background="new 0 0 220 227" xml:space="preserve">
<g>
	<path fill="#434343" d="M127.767,98.566l-7.319-5.424c0.004-0.036,0.021-0.067,0.021-0.104c0-0.548-0.447-0.992-1-0.992
		c-0.552,0-1,0.444-1,0.992c0,0.06,0.023,0.11,0.034,0.167l-6.421,5.477c-0.211,0.18-0.235,0.494-0.057,0.705
		c0.1,0.115,0.239,0.176,0.381,0.176c0.114,0,0.229-0.039,0.323-0.119l6.421-5.478c0.102,0.035,0.204,0.064,0.317,0.064
		c0.14,0,0.271-0.028,0.392-0.079l7.312,5.419c0.09,0.066,0.194,0.099,0.298,0.099c0.152,0,0.305-0.07,0.4-0.202
		C128.035,99.045,127.988,98.731,127.767,98.566z"/>
	<path fill="#434343" d="M129.469,98.031h-20c-1.104,0-2,1.913-2,3.039v8.922c0,1.126,0.896,2.039,2,2.039h20
		c1.104,0,2-0.913,2-2.039v-8.922C131.469,99.944,130.572,98.031,129.469,98.031z M112.516,104.068h-1.994v2.895h1.994v1.105h-2.094
		v-1.006h-1.005v-3.094h1.005v-1.007h2.094V104.068z M116.541,108.062h-3.104v-0.01h-0.01v-5.062h1.083v3.989h2.029v1.083H116.541z
		 M121.511,107.072h-0.99v0.99h-2.083v-0.99h-1.01v-3.104h1.01v-0.989h2.083v0.989h0.99V107.072z M125.511,104.047h-2.021V105h0.994
		v1h1.026v1.078h-1v0.969h-2.062v-1.03h1.99v-0.97h-0.99v-1h-1V104h1v-1h2.062V104.047z M129.484,104.078h-1.975v0.953h1.995v1.047
		h-1.974v0.906h1.953v1.094h-3.016v-5.047h3.016V104.078z"/>
	<rect x="118.5" y="104.062" fill="#434343" width="1.906" height="2.938"/>
</g>
</svg>
