<?xml version="1.0" encoding="utf-8"?>
<!-- Generator: Adobe Illustrator 15.0.0, SVG Export Plug-In . SVG Version: 6.00 Build 0)  -->
<!DOCTYPE svg PUBLIC "-//W3C//DTD SVG 1.0//EN" "http://www.w3.org/TR/2001/REC-SVG-20010904/DTD/svg10.dtd">
<svg version="1.0" id="Layer_1" xmlns="http://www.w3.org/2000/svg" xmlns:xlink="http://www.w3.org/1999/xlink" x="0px" y="0px"
	 width="220px" height="227px" viewBox="0 0 220 227" enable-background="new 0 0 220 227" xml:space="preserve">
<path fill="#434343" d="M117.521,116.979v-2.879c0-1.132,0.896-2.049,2.007-2.049H138.5v4.928H117.521z"/>
<rect x="129.5" y="101.047" fill="#434343" width="9" height="9.953"/>
<path fill="#434343" d="M121.536,107.052v0.991h-1v0.904h1c0,1.143,0.896,2.067,2,2.067h0.917c1.104,0,2-0.927,2-2.067v-1.896
	H121.536z"/>
<path fill="#434343" d="M117.583,96.099v1.834c0,1.076,1.851,1.947,2.917,1.991v2.05h2.042v3h0.958v0.917h0.959v-3.917h2.916v-2.041
	h9.125c1.104,0,2-0.896,2-2v-1.834H117.583z M123.542,100.1h-1.125v-2.168h1.125V100.1z M125.542,100.1h-1.125v-2.168h1.125V100.1z"
	/>
</svg>
