<?xml version="1.0" encoding="utf-8"?>
<!-- Generator: Adobe Illustrator 15.0.0, SVG Export Plug-In . SVG Version: 6.00 Build 0)  -->
<!DOCTYPE svg PUBLIC "-//W3C//DTD SVG 1.0//EN" "http://www.w3.org/TR/2001/REC-SVG-20010904/DTD/svg10.dtd">
<svg version="1.0" id="Layer_1" xmlns="http://www.w3.org/2000/svg" xmlns:xlink="http://www.w3.org/1999/xlink" x="0px" y="0px"
	 width="220px" height="227px" viewBox="0 0 220 227" enable-background="new 0 0 220 227" xml:space="preserve">
<g>
	<path fill="none" d="M107.235,102.282c-0.551-0.329-1.065-0.393-1.415-0.171c-0.702,0.44-0.624,1.904,0.168,3.188
		c0.549,0.886,1.375,1.5,2.048,1.629c0.266,0.054,0.51,0.036,0.697-0.084c0.199-0.127,0.327-0.339,0.401-0.6
		c0.193-0.662,0.001-1.668-0.568-2.589C108.203,103.068,107.73,102.58,107.235,102.282z"/>
	<path fill="none" d="M105.133,110.344c-0.509-0.303-1.175-0.492-1.876-0.535c-1.523-0.093-2.854,0.541-2.903,1.384
		c-0.049,0.793,1.235,1.623,2.705,1.709c1.019,0.06,1.938-0.205,2.461-0.64c0.259-0.214,0.425-0.466,0.442-0.743
		c0.013-0.216-0.067-0.436-0.222-0.643C105.601,110.686,105.396,110.504,105.133,110.344z"/>
	<path fill="#434343" d="M122.731,112.385c0,0-0.965-1.832-1.266-1.858l-9.821,0.093l-1.63-3.071
		c0.725-1.023,0.589-2.827-0.448-4.506c-0.511-0.825-1.186-1.517-1.898-1.945c-0.953-0.571-1.905-0.644-2.613-0.198
		c-1.278,0.809-1.309,3.015-0.065,5.023c0.508,0.825,1.182,1.518,1.897,1.945c0.535,0.32,1.063,0.466,1.556,0.47l1.2,2.303
		l-2.544,0.023c-0.227-0.461-0.612-0.888-1.179-1.226c-0.716-0.432-1.641-0.699-2.605-0.758c-2.333-0.141-4.231,0.922-4.322,2.422
		c-0.048,0.817,0.461,1.61,1.401,2.176c0.717,0.429,1.643,0.695,2.608,0.754c1.877,0.111,3.457-0.562,4.054-1.608l3.515-0.008
		l2.622,5.022h2.073l-2.669-5.027L122.731,112.385z M109.136,106.246c-0.073,0.261-0.202,0.473-0.401,0.6
		c-0.188,0.121-0.433,0.138-0.697,0.084c-0.673-0.129-1.499-0.743-2.048-1.629c-0.792-1.284-0.87-2.748-0.168-3.188
		c0.35-0.221,0.864-0.158,1.415,0.171c0.494,0.298,0.968,0.786,1.331,1.375C109.137,104.578,109.329,105.584,109.136,106.246z
		 M105.52,112.262c-0.521,0.435-1.442,0.698-2.461,0.639c-1.47-0.086-2.754-0.916-2.705-1.709c0.051-0.842,1.38-1.476,2.903-1.384
		c0.701,0.043,1.367,0.233,1.876,0.536c0.266,0.16,0.468,0.342,0.607,0.532c0.153,0.207,0.233,0.426,0.222,0.642
		C105.943,111.796,105.777,112.048,105.52,112.262z"/>
	<rect x="99.031" y="117.5" fill="#434343" width="2.938" height="0.938"/>
	<rect x="104.031" y="117.5" fill="#434343" width="2.906" height="0.938"/>
	<rect x="109.031" y="117.5" fill="#434343" width="2.906" height="0.938"/>
	<rect x="114.031" y="117.5" fill="#434343" width="2.906" height="0.938"/>
	<rect x="119.031" y="117.5" fill="#434343" width="2.906" height="0.938"/>
</g>
</svg>
