<?xml version="1.0" encoding="utf-8"?>
<!-- Generator: Adobe Illustrator 15.0.0, SVG Export Plug-In . SVG Version: 6.00 Build 0)  -->
<!DOCTYPE svg PUBLIC "-//W3C//DTD SVG 1.0//EN" "http://www.w3.org/TR/2001/REC-SVG-20010904/DTD/svg10.dtd">
<svg version="1.0" id="Layer_1" xmlns="http://www.w3.org/2000/svg" xmlns:xlink="http://www.w3.org/1999/xlink" x="0px" y="0px"
	 width="220px" height="227px" viewBox="0 0 220 227" enable-background="new 0 0 220 227" xml:space="preserve">
<path fill="#434343" d="M117.87,98.749c0,0-1.982-1.206-2.284-1.058l-9.383,5.746l-3.337-2.013c0.105-1.399-1.064-3.056-3.027-4.068
	c-0.964-0.5-2.01-0.774-2.943-0.774c-1.245,0-2.201,0.479-2.624,1.312c-0.765,1.515,0.479,3.649,2.828,4.865
	c0.965,0.5,2.011,0.774,2.945,0.774c0.698,0,1.29-0.165,1.764-0.443l2.48,1.521l-2.43,1.488c-0.483-0.312-1.102-0.498-1.838-0.498
	c-0.938,0-1.98,0.272-2.941,0.774c-2.321,1.209-3.533,3.323-2.757,4.815c0.425,0.812,1.372,1.281,2.6,1.281
	c0.937,0,1.979-0.275,2.941-0.777c1.868-0.976,2.997-2.531,2.968-3.881l3.371-2.031l9.383,5.747c0.302,0.146,2.284-1.06,2.284-1.06
	l-9.722-5.86L117.87,98.749z M101.231,101.49c-0.112,0.224-0.337,0.382-0.622,0.483c-0.721,0.264-1.869,0.148-2.906-0.387
	c-1.501-0.778-2.418-2.137-1.998-2.967c0.209-0.413,0.74-0.65,1.457-0.65c0.646,0,1.384,0.197,2.072,0.554
	c1.076,0.557,1.842,1.411,2.039,2.159C101.352,100.977,101.351,101.255,101.231,101.49z M99.269,110.578
	c-1.463,0.762-3.175,0.706-3.587-0.084c-0.436-0.837,0.479-2.212,1.994-3.002c0.699-0.363,1.448-0.564,2.111-0.564
	c0.346,0,0.646,0.058,0.892,0.16c0.268,0.11,0.471,0.274,0.581,0.488c0.145,0.278,0.129,0.616,0.004,0.971
	C101.012,109.263,100.279,110.049,99.269,110.578z"/>
</svg>
