<?xml version="1.0" encoding="utf-8"?>
<!-- Generator: Adobe Illustrator 15.0.0, SVG Export Plug-In . SVG Version: 6.00 Build 0)  -->
<!DOCTYPE svg PUBLIC "-//W3C//DTD SVG 1.0//EN" "http://www.w3.org/TR/2001/REC-SVG-20010904/DTD/svg10.dtd">
<svg version="1.0" id="Layer_1" xmlns="http://www.w3.org/2000/svg" xmlns:xlink="http://www.w3.org/1999/xlink" x="0px" y="0px"
	 width="220px" height="227px" viewBox="0 0 220 227" enable-background="new 0 0 220 227" xml:space="preserve">
<g>
	<polygon fill="#434343" points="115,116.578 117.984,119.5 120.938,116.578 118.953,116.578 118.953,113.594 117.016,113.594 
		117.016,116.578 	"/>
	<ellipse fill="#434343" cx="108.896" cy="99.562" rx="9.896" ry="3.938"/>
	<path fill="#434343" d="M115.887,115.469v-3.016h2.983V109.5c0,1.203-4.498,3.094-9.936,3.094S99,110.703,99,109.5v6
		c0,2.176,4.448,3.938,9.935,3.938c2.525,0,4.605-0.377,6.357-0.989l-2.679-2.979H115.887z"/>
	<path fill="#434343" d="M108.935,111.5c5.487,0,9.936-1.762,9.936-3.938v-6c0,1.202-4.498,3.094-9.936,3.094S99,102.765,99,101.562
		v6C99,109.738,103.448,111.5,108.935,111.5z"/>
</g>
</svg>
