<?xml version="1.0" encoding="utf-8"?>
<!-- Generator: Adobe Illustrator 15.0.0, SVG Export Plug-In . SVG Version: 6.00 Build 0)  -->
<!DOCTYPE svg PUBLIC "-//W3C//DTD SVG 1.0//EN" "http://www.w3.org/TR/2001/REC-SVG-20010904/DTD/svg10.dtd">
<svg version="1.0" id="Layer_1" xmlns="http://www.w3.org/2000/svg" xmlns:xlink="http://www.w3.org/1999/xlink" x="0px" y="0px"
	 width="220px" height="227px" viewBox="0 0 220 227" enable-background="new 0 0 220 227" xml:space="preserve">
<g>
	<path fill="#434343" d="M87.57,120.771h1.948v2.291H87.57v10.668h2.022v2.306H87.57v4.605h17.785v-23.763H87.57V120.771z
		 M93.029,123.577c0.041-0.036,0.397-0.304,0.522-0.399l-0.004-0.003c0.008-0.004,0.015-0.006,0.021-0.01
		c0.01-0.008,0.03-0.024,0.036-0.028l0.006,0.008c0.217-0.129,0.438-0.219,0.692-0.257c0.682-0.101,1.181,0.612,1.502,1.021
		c0.322,0.405,0.773,1.048,0.718,1.489c-0.033,0.266-0.334,0.51-0.62,0.75l-0.012-0.014c-0.077,0.084-0.424,0.439-0.452,0.487
		c-0.156,0.263-0.34,0.862-0.087,1.313c0.242,0.438,0.718,1.147,1.168,1.74c0.475,0.574,1.06,1.201,1.431,1.54
		c0.385,0.353,1.021,0.326,1.318,0.241c0.058-0.016,0.521-0.293,0.581-0.323c0.311-0.213,0.623-0.438,0.896-0.405
		c0.447,0.057,0.971,0.645,1.293,1.051s0.903,1.058,0.637,1.681c-0.102,0.236-0.247,0.425-0.43,0.603l0.005,0.006
		c0,0-0.023,0.019-0.032,0.023c-0.006,0.005-0.009,0.012-0.014,0.017l-0.003-0.004c-0.12,0.092-0.478,0.368-0.522,0.398
		c-0.496,0.321-1.573,0.727-3.086-0.172c-1.125-0.667-2.357-1.798-3.531-3.212l-0.008,0.005c-0.055-0.07-0.104-0.14-0.158-0.209
		c-0.057-0.068-0.112-0.133-0.168-0.203l0.007-0.005c-1.105-1.467-1.919-2.918-2.3-4.152
		C91.924,124.893,92.588,123.97,93.029,123.577z"/>
	<rect x="85.5" y="121" fill="#434343" width="1.957" height="1.792"/>
	<rect x="85.5" y="133.953" fill="#434343" width="1.914" height="1.797"/>
	<rect x="106.52" y="119.98" fill="#434343" width="1.938" height="4.858"/>
	<rect x="106.582" y="131.949" fill="#434343" width="1.875" height="4.843"/>
	<rect x="106.5" y="125.896" fill="#434343" width="1.957" height="4.982"/>
</g>
</svg>
