<?xml version="1.0" encoding="utf-8"?>
<!-- Generator: Adobe Illustrator 15.0.0, SVG Export Plug-In . SVG Version: 6.00 Build 0)  -->
<!DOCTYPE svg PUBLIC "-//W3C//DTD SVG 1.0//EN" "http://www.w3.org/TR/2001/REC-SVG-20010904/DTD/svg10.dtd">
<svg version="1.0" id="Layer_1" xmlns="http://www.w3.org/2000/svg" xmlns:xlink="http://www.w3.org/1999/xlink" x="0px" y="0px"
	 width="220px" height="227px" viewBox="0 0 220 227" enable-background="new 0 0 220 227" xml:space="preserve">
<g>
	<path fill="#434343" d="M93.981,108.533c-2.18,0-3.945,1.779-3.945,3.973c0,2.195,1.766,3.971,3.945,3.971
		c2.177,0,3.943-1.773,3.943-3.971C97.925,110.312,96.158,108.533,93.981,108.533z M93.981,114.771
		c-1.245,0-2.253-1.016-2.253-2.268s1.008-2.268,2.253-2.268c1.241,0,2.249,1.016,2.249,2.268S95.223,114.771,93.981,114.771z"/>
	<g>
		<path fill="#434343" d="M99.889,121.459l-1.563-1.562l3.111-3.109l1.563,1.562l1.584-1.584l0.412,0.412
			c0.635-1.453,1.004-3.049,1.004-4.734c0-6.596-5.373-11.939-12-11.939s-12,5.346-12,11.939c0,6.593,5.373,11.938,12,11.938
			c1.686,0,3.28-0.36,4.735-0.985l-0.39-0.392L99.889,121.459z M100.636,104.557l1.268,1.27l-2.682,2.682l-1.267-1.268
			L100.636,104.557z M87.322,120.404l-1.268-1.27l2.682-2.682l1.268,1.268L87.322,120.404z M94,117.543
			c-2.807,0-5.083-2.275-5.083-5.082c0-2.809,2.276-5.086,5.083-5.086s5.083,2.277,5.083,5.086
			C99.083,115.268,96.807,117.543,94,117.543z"/>
		<polygon fill="#434343" points="105.978,123.023 104.414,121.459 105.998,119.875 104.584,118.461 103,120.045 101.437,118.482 
			100.022,119.896 101.586,121.459 100.043,123.002 101.457,124.416 103,122.873 104.563,124.438 		"/>
	</g>
</g>
</svg>
