<?xml version="1.0" encoding="utf-8"?>
<!-- Generator: Adobe Illustrator 15.0.0, SVG Export Plug-In . SVG Version: 6.00 Build 0)  -->
<!DOCTYPE svg PUBLIC "-//W3C//DTD SVG 1.0//EN" "http://www.w3.org/TR/2001/REC-SVG-20010904/DTD/svg10.dtd">
<svg version="1.0" id="Layer_1" xmlns="http://www.w3.org/2000/svg" xmlns:xlink="http://www.w3.org/1999/xlink" x="0px" y="0px"
	 width="220px" height="227px" viewBox="0 0 220 227" enable-background="new 0 0 220 227" xml:space="preserve">
<g>
	<path fill="#434343" d="M109.951,105.452c0.826-0.826,1.955-1.16,3.055-1.021c0.66,0.084,0.592-0.409,0.066-0.602
		c-1.346-0.494-2.879-0.226-3.922,0.817c-1.039,1.038-1.311,2.562-0.826,3.897c0.189,0.533,0.701,0.633,0.609-0.018
		C108.787,107.423,109.119,106.284,109.951,105.452z"/>
	<path fill="#434343" d="M122.373,103.462c-0.66-1.194-1.516-1.795-2.826-2.453c-1.146-0.573-2.326-1.127-3.355-1.859
		c-0.957-0.686-1.094-1.311-1.479-2.264c-0.803-1.995-4.297-3.094-6.467-3.254c-0.842-0.062-1.66,0.074-2.496,0.072
		c-2.051-0.01-3.809,0.549-4.432,2.475c-0.146,0.453,0.027,0.957,0.072,1.416c0.061,0.568,0.08,1.141,0.062,1.709
		c-0.012,0.289-0.029,0.578-0.062,0.867c-0.111,1.119-0.277,2.398-0.768,3.443c-0.371,0.795-0.924,1.385-1.141,2.256
		c-0.531,2.115-0.607,4.529,0.781,6.406c0.83,1.12,2.314,1.875,3.773,1.984c1.553,0.117,2.891,1.287,4.238,1.879
		c1.217,0.535,2.402,0.93,3.73,1.18c2.332,0.438,4.479,0.148,5.895-1.666c0.719-0.923,0.995-2,1.327-3.062
		c0.351-1.119,1.089-2.365,2.106-3.113c0.988-0.725,1.492-1.729,1.621-2.887C123.084,105.485,122.924,104.462,122.373,103.462z
		 M108.297,103.794c1.797-1.797,4.719-1.793,6.525,0.014c1.806,1.809,1.812,4.73,0.016,6.527c-1.799,1.799-4.721,1.791-6.527-0.016
		C106.505,108.512,106.498,105.593,108.297,103.794z"/>
</g>
</svg>
