<?xml version="1.0" encoding="utf-8"?>
<!-- Generator: Adobe Illustrator 15.0.0, SVG Export Plug-In . SVG Version: 6.00 Build 0)  -->
<!DOCTYPE svg PUBLIC "-//W3C//DTD SVG 1.0//EN" "http://www.w3.org/TR/2001/REC-SVG-20010904/DTD/svg10.dtd">
<svg version="1.0" id="Layer_1" xmlns="http://www.w3.org/2000/svg" xmlns:xlink="http://www.w3.org/1999/xlink" x="0px" y="0px"
	 width="220px" height="227px" viewBox="0 0 220 227" enable-background="new 0 0 220 227" xml:space="preserve">
<g>
	<path fill="#434343" d="M119.932,99.5H97.975c-0.538,0-0.975,0.438-0.975,0.975v12.957c0,0.537,0.437,0.975,0.975,0.975h21.957
		c0.539,0,0.976-0.438,0.976-0.975v-12.957C120.906,99.938,120.471,99.5,119.932,99.5z M119.01,113.49l-4.979-6.021l-5.062,4.021
		l-4.959-4l-5.02,6h-0.98l4.98-7.021l-5.021-5l0.021-1.021l10.979,9.021l11-8.969v0.969l-4.938,5l4.938,7L119.01,113.49z"/>
</g>
</svg>
