<?xml version="1.0" encoding="utf-8"?>
<!-- Generator: Adobe Illustrator 15.0.0, SVG Export Plug-In . SVG Version: 6.00 Build 0)  -->
<!DOCTYPE svg PUBLIC "-//W3C//DTD SVG 1.0//EN" "http://www.w3.org/TR/2001/REC-SVG-20010904/DTD/svg10.dtd">
<svg version="1.0" id="Layer_1" xmlns="http://www.w3.org/2000/svg" xmlns:xlink="http://www.w3.org/1999/xlink" x="0px" y="0px"
	 width="220px" height="227px" viewBox="0 0 220 227" enable-background="new 0 0 220 227" xml:space="preserve">
<path fill="#434343" d="M111.938,94.561c-6.592,0-11.938,5.347-11.938,11.938s5.346,11.938,11.938,11.938
	c6.594,0,11.938-5.347,11.938-11.938S118.531,94.561,111.938,94.561z M103,106.497c0-4.928,4.01-8.938,8.938-8.938
	c2.027,0,3.896,0.688,5.396,1.829l-12.504,12.504C103.688,110.392,103,108.524,103,106.497z M111.938,115.436
	c-1.924,0-3.703-0.616-5.164-1.655l12.445-12.446c1.039,1.46,1.656,3.24,1.656,5.165
	C120.875,111.425,116.865,115.436,111.938,115.436z"/>
</svg>
