<?xml version="1.0" encoding="utf-8"?>
<!-- Generator: Adobe Illustrator 15.0.0, SVG Export Plug-In . SVG Version: 6.00 Build 0)  -->
<!DOCTYPE svg PUBLIC "-//W3C//DTD SVG 1.0//EN" "http://www.w3.org/TR/2001/REC-SVG-20010904/DTD/svg10.dtd">
<svg version="1.0" id="Layer_1" xmlns="http://www.w3.org/2000/svg" xmlns:xlink="http://www.w3.org/1999/xlink" x="0px" y="0px"
	 width="220px" height="227px" viewBox="0 0 220 227" enable-background="new 0 0 220 227" xml:space="preserve">
<path fill="#434343" d="M106,107.385c3.396-0.709,5.958-3.74,5.958-7.361c0-4.148-3.354-7.521-7.479-7.521
	c-4.121,0-7.479,3.373-7.479,7.521c0,3.638,2.583,6.68,6,7.369v3.125h-3.917v2.902H103v3.018h3v-3.018h3.854v-2.902H106V107.385z
	 M100.055,100.021c0-2.454,1.985-4.451,4.424-4.451c2.439,0,4.427,1.997,4.427,4.451c0,2.451-1.985,4.447-4.427,4.447
	C102.04,104.471,100.055,102.475,100.055,100.021z"/>
</svg>
