<?xml version="1.0" encoding="utf-8"?>
<!-- Generator: Adobe Illustrator 15.0.0, SVG Export Plug-In . SVG Version: 6.00 Build 0)  -->
<!DOCTYPE svg PUBLIC "-//W3C//DTD SVG 1.0//EN" "http://www.w3.org/TR/2001/REC-SVG-20010904/DTD/svg10.dtd">
<svg version="1.0" id="Layer_1" xmlns="http://www.w3.org/2000/svg" xmlns:xlink="http://www.w3.org/1999/xlink" x="0px" y="0px"
	 width="220px" height="227px" viewBox="0 0 220 227" enable-background="new 0 0 220 227" xml:space="preserve">
<g>
	<path fill="#434343" d="M116.958,117.417h-11.875v-0.875c0-0.552,0.448-1,1-1h9.875c0.552,0,1,0.448,1,1V117.417z"/>
	<rect x="107.042" y="102.583" fill="#434343" width="7.875" height="13.209"/>
	<rect x="106" y="99.583" fill="#434343" width="10" height="1.917"/>
	<path fill="#434343" d="M115,98.417h-8c0-2.14,1.791-3.875,4-3.875S115,96.277,115,98.417z"/>
	<rect x="110.083" y="93.5" fill="#434343" width="1.917" height="3"/>
	<rect x="106.083" y="104.542" fill="#434343" width="1.542" height="2.917"/>
	<rect x="114.083" y="104.542" fill="#434343" width="1.834" height="2.917"/>
	<rect x="104.042" y="104.583" fill="#434343" width="0.958" height="2.875"/>
	<rect x="117.083" y="104.625" fill="#434343" width="0.834" height="2.75"/>
	<rect x="103.042" y="105.542" fill="#434343" width="1.791" height="0.958"/>
	<rect x="117.042" y="105.542" fill="#434343" width="1.916" height="0.958"/>
</g>
</svg>
