<?xml version="1.0" encoding="utf-8"?>
<!-- Generator: Adobe Illustrator 15.0.0, SVG Export Plug-In . SVG Version: 6.00 Build 0)  -->
<!DOCTYPE svg PUBLIC "-//W3C//DTD SVG 1.0//EN" "http://www.w3.org/TR/2001/REC-SVG-20010904/DTD/svg10.dtd">
<svg version="1.0" id="Layer_1" xmlns="http://www.w3.org/2000/svg" xmlns:xlink="http://www.w3.org/1999/xlink" x="0px" y="0px"
	 width="220px" height="227px" viewBox="0 0 220 227" enable-background="new 0 0 220 227" xml:space="preserve">
<g>
	<path fill="#434343" d="M125.926,101.393h-5.863c-0.576,0-1.043,0.469-1.043,1.047l2.408,2.416l-2.908,2.908
		c-0.291,0.291-0.436,0.672-0.436,1.054s0.145,0.763,0.436,1.056c0.582,0.582,1.527,0.582,2.109,0l2.902-2.903l2.395,2.401
		c0.576,0,1.041-0.469,1.041-1.047v-5.885C126.967,101.861,126.502,101.393,125.926,101.393z"/>
	<path fill="#434343" d="M125.92,117.408l-2.455,2.445l-2.961-2.961c-0.582-0.583-1.525-0.583-2.109,0
		c-0.582,0.582-0.582,1.525,0,2.107l2.959,2.957l-2.365,2.355c0,0.576,0.47,1.042,1.048,1.042h5.885
		c0.578,0,1.047-0.466,1.047-1.042v-5.863C126.967,117.873,126.498,117.408,125.92,117.408z"/>
	<path fill="#434343" d="M108.58,104.844l2.402-2.394c0-0.576-0.47-1.042-1.047-1.042h-5.886c-0.578,0-1.047,0.466-1.047,1.042
		v5.863c0,0.576,0.469,1.042,1.047,1.042l2.418-2.407l2.986,2.985c0.291,0.292,0.672,0.438,1.053,0.438
		c0.384,0,0.765-0.146,1.056-0.438c0.582-0.582,0.582-1.524,0-2.106L108.58,104.844z"/>
	<path fill="#434343" d="M110.391,115.892l-3.928,3.928l-2.416-2.427c-0.576,0-1.043,0.469-1.043,1.047v5.885
		c0,0.578,0.467,1.047,1.043,1.047h5.863c0.576,0,1.041-0.469,1.041-1.047l-2.383-2.393L112.5,118c0.582-0.582,0.582-1.525,0-2.108
		C111.918,115.31,110.973,115.31,110.391,115.892z"/>
</g>
</svg>
