<?xml version="1.0" encoding="utf-8"?>
<!-- Generator: Adobe Illustrator 15.0.0, SVG Export Plug-In . SVG Version: 6.00 Build 0)  -->
<!DOCTYPE svg PUBLIC "-//W3C//DTD SVG 1.0//EN" "http://www.w3.org/TR/2001/REC-SVG-20010904/DTD/svg10.dtd">
<svg version="1.0" id="Layer_1" xmlns="http://www.w3.org/2000/svg" xmlns:xlink="http://www.w3.org/1999/xlink" x="0px" y="0px"
	 width="220px" height="227px" viewBox="0 0 220 227" enable-background="new 0 0 220 227" xml:space="preserve">
<path fill="#434343" d="M117.592,107.642c-0.527,0-2.934,0.709-5.934,1.232c2.139-2.471,4.16-4.306,4.449-4.781
	c0.865-1.435,0.354-3.269-1.146-4.095c-1.5-0.827-3.418-0.337-4.281,1.097c-0.287,0.475-0.936,3.043-2.09,6.027
	c-1.152-2.984-1.799-5.555-2.086-6.027c-0.865-1.434-2.783-1.924-4.281-1.097c-1.5,0.829-2.016,2.661-1.146,4.095
	c0.287,0.478,2.312,2.312,4.449,4.781c-3.002-0.523-5.406-1.232-5.936-1.232c-1.622,0-2.938,1.314-2.938,2.938
	c0,1.621,1.312,2.938,2.938,2.938c0.525,0,2.898-0.7,5.869-1.223c-2.113,2.432-4.102,4.232-4.387,4.707
	c-0.865,1.435-0.353,3.266,1.147,4.096c1.497,0.826,3.416,0.336,4.28-1.098c0.287-0.478,0.936-3.043,2.088-6.028
	c1.156,2.985,1.805,5.554,2.092,6.028c0.861,1.434,2.779,1.926,4.279,1.098s2.014-2.661,1.146-4.095
	c-0.283-0.476-2.271-2.276-4.385-4.708c2.971,0.521,5.344,1.223,5.865,1.223c1.623,0,2.938-1.314,2.938-2.938
	C120.529,108.956,119.215,107.642,117.592,107.642z"/>
</svg>
