<?xml version="1.0" encoding="utf-8"?>
<!-- Generator: Adobe Illustrator 15.0.0, SVG Export Plug-In . SVG Version: 6.00 Build 0)  -->
<!DOCTYPE svg PUBLIC "-//W3C//DTD SVG 1.0//EN" "http://www.w3.org/TR/2001/REC-SVG-20010904/DTD/svg10.dtd">
<svg version="1.0" id="Layer_1" xmlns="http://www.w3.org/2000/svg" xmlns:xlink="http://www.w3.org/1999/xlink" x="0px" y="0px"
	 width="220px" height="227px" viewBox="0 0 220 227" enable-background="new 0 0 220 227" xml:space="preserve">
<g>
	<path fill="#434343" d="M109,90.5l-2.348-4H100v2h-2v15h1.016l0.002,1h22.888l0.03-14H109z M103.938,102.562v-2.937
		c1.637,0,2.962,1.313,2.962,2.937H103.938z M109.186,102.562c0-2.886-2.354-5.23-5.248-5.23v-1.727
		c3.852,0,6.979,3.119,6.979,6.957H109.186z M113.238,102.593c0-5.137-4.154-9.314-9.261-9.314v-1.768
		c6.071,0,11.012,4.974,11.012,11.082H113.238L113.238,102.593z"/>
	<polygon fill="#434343" points="117.959,89.5 117.959,87.542 109.042,87.542 110.042,89.5 	"/>
</g>
</svg>
