<?xml version="1.0" encoding="utf-8"?>
<!-- Generator: Adobe Illustrator 15.0.0, SVG Export Plug-In . SVG Version: 6.00 Build 0)  -->
<!DOCTYPE svg PUBLIC "-//W3C//DTD SVG 1.0//EN" "http://www.w3.org/TR/2001/REC-SVG-20010904/DTD/svg10.dtd">
<svg version="1.0" id="Layer_1" xmlns="http://www.w3.org/2000/svg" xmlns:xlink="http://www.w3.org/1999/xlink" x="0px" y="0px"
	 width="220px" height="227px" viewBox="0 0 220 227" enable-background="new 0 0 220 227" xml:space="preserve">
<g>
	<rect x="92" y="98.583" fill="#434343" width="23.842" height="4.857"/>
	<path fill="#434343" d="M107.922,104.583l2.72,2.594c0.451,0.431,0.451,1.128,0,1.557c-0.447,0.431-1.182,0.431-1.633,0
		l-4.354-4.15h-1.429l-4.354,4.15c-0.451,0.431-1.184,0.431-1.633,0c-0.451-0.429-0.451-1.126,0-1.557l2.722-2.594h-5.953V116.5
		h19.866v-11.917H107.922z"/>
	<path fill="#434343" d="M111.188,94.324c-0.449-0.535-1.077-0.821-1.812-0.821c-1.439,0-3.259,1.081-4.921,2.905
		c-1.661-1.824-3.48-2.905-4.918-2.905c-0.735,0-1.365,0.286-1.816,0.821c-0.742,0.882-0.889,2.277-0.41,3.932l0.097,0.327h2.389
		l-0.253-0.678l-0.062-0.156c-0.024-0.061-0.051-0.117-0.067-0.174c-0.282-0.886-0.209-1.352-0.15-1.421
		c0.021-0.021,0.103-0.064,0.275-0.064c0.711,0,2.13,0.738,3.562,2.359l0.117,0.134h2.478l0.114-0.134
		c1.44-1.629,2.828-2.359,3.566-2.359c0.219,0,0.273,0.062,0.273,0.062c0.062,0.071,0.132,0.537-0.15,1.423
		c-0.019,0.06-0.044,0.119-0.068,0.179l-0.061,0.151l-0.255,0.678h2.394l0.092-0.327C112.076,96.602,111.93,95.206,111.188,94.324z"
		/>
</g>
</svg>
