<?xml version="1.0" encoding="utf-8"?>
<!-- Generator: Adobe Illustrator 15.0.0, SVG Export Plug-In . SVG Version: 6.00 Build 0)  -->
<!DOCTYPE svg PUBLIC "-//W3C//DTD SVG 1.0//EN" "http://www.w3.org/TR/2001/REC-SVG-20010904/DTD/svg10.dtd">
<svg version="1.0" id="Layer_1" xmlns="http://www.w3.org/2000/svg" xmlns:xlink="http://www.w3.org/1999/xlink" x="0px" y="0px"
	 width="220px" height="227px" viewBox="0 0 220 227" enable-background="new 0 0 220 227" xml:space="preserve">
<path fill="#434343" d="M124.959,106.5v-3.959H121v1.021h-16.041v-1.021H101v3.959h1.011v16.041H101v3.959h3.959v-1.021H121v1.021
	h3.959v-3.959h-1.031V106.5H124.959z M121.938,103.438h2.084v2.125h-2.084V103.438z M101.938,103.438h2.084v2.125h-2.084V103.438z
	 M104.021,125.562h-2.084v-2.125h0.071v0.011h1.917v-0.011h0.096V125.562z M124.021,123.438v2.125h-2.084v-2.125h0.071v0.013h1.917
	v-0.013H124.021z M122.011,122.541H121v1.021h-16.041v-1.021h-1.031V106.5h1.031v-1.021H121v1.021h1.011V122.541z"/>
</svg>
