<?xml version="1.0" encoding="utf-8"?>
<!-- Generator: Adobe Illustrator 15.0.0, SVG Export Plug-In . SVG Version: 6.00 Build 0)  -->
<!DOCTYPE svg PUBLIC "-//W3C//DTD SVG 1.0//EN" "http://www.w3.org/TR/2001/REC-SVG-20010904/DTD/svg10.dtd">
<svg version="1.0" id="Layer_1" xmlns="http://www.w3.org/2000/svg" xmlns:xlink="http://www.w3.org/1999/xlink" x="0px" y="0px"
	 width="220px" height="227px" viewBox="0 0 220 227" enable-background="new 0 0 220 227" xml:space="preserve">
<g>
	<g>
		<path fill="#434343" d="M92.046,117.18c0,5.491,10.188,4.847,10.917,4.847s10.916,0.896,10.916-4.847H92.046z"/>
		<rect x="91.046" y="114.109" fill="#434343" width="23.916" height="1.959"/>
		<g>
			<path fill="#434343" d="M91.547,113.119c-0.156,0-0.309-0.078-0.4-0.224c-0.146-0.23-0.087-0.541,0.138-0.692l2.867-1.969
				c0.156-0.11,0.365-0.111,0.527-0.002L97.285,112l2.584-1.766c0.16-0.11,0.363-0.111,0.523-0.004l2.627,1.752l2.592-1.75
				c0.158-0.107,0.361-0.107,0.521-0.002l2.626,1.752l2.609-1.771c0.161-0.107,0.37-0.106,0.527,0.002l2.851,1.97
				c0.222,0.152,0.282,0.464,0.134,0.691c-0.146,0.231-0.445,0.291-0.667,0.143l-2.585-1.786l-2.604,1.767
				c-0.157,0.107-0.361,0.109-0.522,0.003l-2.626-1.752l-2.589,1.75c-0.159,0.108-0.362,0.108-0.522,0.002l-2.626-1.751l-2.587,1.77
				c-0.161,0.107-0.368,0.108-0.528,0.002l-2.604-1.77l-2.604,1.787C91.73,113.093,91.639,113.119,91.547,113.119z"/>
		</g>
		<path fill="#434343" d="M103.004,99.193c-2.833,0-10,0.957-10.96,7.794c0,0.017,0.002,0.032,0.002,0.049h21.916
			c0-0.017,0.004-0.032,0.002-0.049C113.129,100.15,105.837,99.193,103.004,99.193z M105.921,101.068h1.166v1.082h-1.166V101.068z
			 M102.921,100.068h1.166v1.082h-1.166V100.068z M100.921,101.068h1.166v1.082h-1.166V101.068z M95.087,106.15h-1.166v-1.082h1.166
			V106.15z M96.087,104.15h-1.166v-1.082h1.166V104.15z M98.087,105.15h-1.166v-1.082h1.166V105.15z M99.087,103.15h-1.166v-1.082
			h1.166V103.15z M100.087,106.15h-1.166v-1.082h1.166V106.15z M101.087,104.15h-1.166v-1.082h1.166V104.15z M103.087,105.15h-1.166
			v-1.082h1.166V105.15z M105.087,104.15h-1.166v-1.082h1.166V104.15z M106.087,106.15h-1.166v-1.082h1.166V106.15z M108.087,105.15
			h-1.166v-1.082h1.166V105.15z M110.087,106.15h-1.166v-1.082h1.166V106.15z M109.087,103.15h-1.166v-1.082h1.166V103.15z
			 M111.087,104.15h-1.166v-1.082h1.166V104.15z M112.087,106.15h-1.166v-1.082h1.166V106.15z"/>
	</g>
	<rect x="91.004" y="108.164" fill="#434343" width="23.989" height="0.891"/>
</g>
</svg>
