<?xml version="1.0" encoding="utf-8"?>
<!-- Generator: Adobe Illustrator 15.0.0, SVG Export Plug-In . SVG Version: 6.00 Build 0)  -->
<!DOCTYPE svg PUBLIC "-//W3C//DTD SVG 1.0//EN" "http://www.w3.org/TR/2001/REC-SVG-20010904/DTD/svg10.dtd">
<svg version="1.0" id="Layer_1" xmlns="http://www.w3.org/2000/svg" xmlns:xlink="http://www.w3.org/1999/xlink" x="0px" y="0px"
	 width="220px" height="227px" viewBox="0 0 220 227" enable-background="new 0 0 220 227" xml:space="preserve">
<g>
	<g>
		<path fill="#434343" d="M104.415,115.5c-1.883,0-3.413-1.557-3.413-3.468c0-1.913,1.53-3.47,3.413-3.47
			c0.666,0,1.312,0.193,1.866,0.562l-0.546,0.816c-0.392-0.262-0.849-0.397-1.32-0.397c-1.339,0-2.429,1.115-2.429,2.486
			c0,1.37,1.09,2.483,2.429,2.483V115.5z"/>
	</g>
	<rect x="116.066" y="108.625" fill="#434343" width="1.805" height="2.75"/>
	<path fill="#434343" d="M116.938,107.67c0,0.391-6.904,0.708-6.904,0.708c-0.57,0-1.032-0.317-1.032-0.708v-0.398
		c0-0.393,0.462-0.709,1.032-0.709c0,0,6.904,0.316,6.904,0.709V107.67z"/>
	<path fill="#434343" d="M117,107.271c0-0.395,6.904-0.709,6.904-0.709c0.57,0,1.033,0.314,1.033,0.709v0.396
		c0,0.393-0.463,0.708-1.033,0.708c0,0-6.904-0.315-6.904-0.708"/>
	<g>
		<path fill="#434343" d="M121.833,122.438h-8.666c-1.776,0-4.167-1.291-4.167-2.312c0-0.246,0.225-0.445,0.498-0.445
			c0.275,0,0.498,0.199,0.498,0.445c0,0.44,1.928,1.423,3.171,1.423h8.666c1.243,0,2.171-0.975,2.171-1.415
			c0-0.246,0.225-0.444,0.498-0.444c0.275,0,0.498,0.198,0.498,0.444C125,121.154,123.609,122.438,121.833,122.438z"/>
	</g>
	<path fill="#434343" d="M117.693,110.5c-1.797,0-4.146,0.36-5.984,1.089h-7.818c-0.492,0-0.891,0.418-0.891,0.938l1,0.338
		c0,0.517,0.398,0.935,0.891,0.935l4.942,1.286c1.438,2.244,2.459,5.292,7.86,5.292c3.449,0,6.244-2.21,6.244-4.938
		C123.938,112.71,121.143,110.5,117.693,110.5z M119.501,115.562c-0.864,0-1.563-0.933-1.563-2.078c0-1.147-0.197-2.078,0.666-2.078
		s3.461,0.931,3.461,2.078C122.062,115.719,120.363,115.562,119.501,115.562z"/>
</g>
</svg>
