<?xml version="1.0" encoding="utf-8"?>
<!-- Generator: Adobe Illustrator 15.0.0, SVG Export Plug-In . SVG Version: 6.00 Build 0)  -->
<!DOCTYPE svg PUBLIC "-//W3C//DTD SVG 1.0//EN" "http://www.w3.org/TR/2001/REC-SVG-20010904/DTD/svg10.dtd">
<svg version="1.0" id="Layer_1" xmlns="http://www.w3.org/2000/svg" xmlns:xlink="http://www.w3.org/1999/xlink" x="0px" y="0px"
	 width="220px" height="227px" viewBox="0 0 220 227" enable-background="new 0 0 220 227" xml:space="preserve">
<path fill="#434343" d="M118,107.453v-1.891l-3.22,0.184c-0.159-1.875-0.905-3.584-2.059-4.943l2.452-2.105l-1.415-1.414
	l-2.069,2.484c-1.361-1.154-3.075-1.902-4.955-2.062l0.25-3.205l-1.949,0.051l0.266,3.15c-1.899,0.146-3.636,0.893-5.011,2.057
	l-2.063-2.432l-1.414,1.414l2.438,2.059c-1.16,1.369-1.908,3.095-2.062,4.986l-3.153-0.271v2l3.158-0.256
	c0.16,1.894,0.921,3.611,2.09,4.978l-2.423,2.038l1.412,1.413l2.055-2.414c1.373,1.147,3.099,1.883,4.986,2.024l-0.265,3.17h1.956
	l-0.255-3.174c1.891-0.163,3.611-0.924,4.975-2.093l2.082,2.439l1.414-1.414l-2.465-2.063c1.146-1.364,1.879-3.005,2.028-4.883
	L118,107.453z M113.203,105.891l-5.295,0.481c-0.028-0.401-0.188-0.765-0.438-1.056l4.056-3.483
	C112.466,102.949,113.074,104.352,113.203,105.891z M110.676,100.982l-3.427,4.111c-0.29-0.242-0.653-0.4-1.058-0.446l0.42-5.366
	C108.154,99.414,109.561,100.032,110.676,100.982z M105.433,99.277l0.45,5.354c-0.424,0.018-0.81,0.16-1.123,0.396l-3.445-4.063
	C102.443,100.008,103.869,99.396,105.433,99.277z M100.457,101.819l4.055,3.427c-0.285,0.302-0.466,0.691-0.498,1.122l-5.25-0.448
	C98.888,104.363,99.502,102.945,100.457,101.819z M98.767,107.132l5.257-0.427c0.049,0.423,0.234,0.803,0.527,1.094l-4.062,3.418
	C99.527,110.098,98.901,108.686,98.767,107.132z M101.348,112.067l3.453-4.062c0.31,0.218,0.684,0.351,1.091,0.363l-0.446,5.354
	C103.893,113.607,102.476,113.008,101.348,112.067z M106.621,113.718l-0.432-5.364c0.393-0.045,0.745-0.195,1.031-0.43l3.477,4.074
	C109.58,112.957,108.171,113.582,106.621,113.718z M111.541,111.148l-4.098-3.436c0.255-0.284,0.419-0.639,0.459-1.031l5.303,0.404
	C113.08,108.626,112.479,110.029,111.541,111.148z"/>
</svg>
