<?xml version="1.0" encoding="utf-8"?>
<!-- Generator: Adobe Illustrator 15.0.0, SVG Export Plug-In . SVG Version: 6.00 Build 0)  -->
<!DOCTYPE svg PUBLIC "-//W3C//DTD SVG 1.0//EN" "http://www.w3.org/TR/2001/REC-SVG-20010904/DTD/svg10.dtd">
<svg version="1.0" id="Layer_1" xmlns="http://www.w3.org/2000/svg" xmlns:xlink="http://www.w3.org/1999/xlink" x="0px" y="0px"
	 width="220px" height="227px" viewBox="0 0 220 227" enable-background="new 0 0 220 227" xml:space="preserve">
<path fill="#434343" d="M108.062,104.5c-6.693,0-10.938,6.365-10.938,14.216c0,3.615,2.244,8.345,3.309,9.413
	c1.065,1.068,3.427-1.234,3.021-1.988c-0.887-1.658-1.495-3.723-1.495-5.963c0-5.479,2.367-9.924,6.104-9.924
	c3.734,0,6.103,4.443,6.103,9.924c0,2.233-0.604,4.29-1.486,5.945c-0.403,0.762,2.162,3.033,3.014,2.006
	c0.85-1.027,3.309-5.798,3.309-9.413C119,110.865,114.758,104.5,108.062,104.5z M99.614,122.646c-0.863,0-1.562-0.734-1.562-1.642
	s0.699-1.642,1.562-1.642c0.861,0,1.562,0.734,1.562,1.642S100.479,122.646,99.614,122.646z M100.489,115.646
	c-0.863,0-1.562-0.734-1.562-1.642s0.699-1.641,1.562-1.641c0.861,0,1.562,0.734,1.562,1.641S101.354,115.646,100.489,115.646z
	 M104.614,109.646c-0.863,0-1.562-0.734-1.562-1.641c0-0.907,0.699-1.641,1.562-1.641c0.861,0,1.562,0.734,1.562,1.641
	C106.176,108.912,105.479,109.646,104.614,109.646z M111.614,109.584c-0.863,0-1.562-0.734-1.562-1.641
	c0-0.907,0.699-1.641,1.562-1.641c0.861,0,1.562,0.734,1.562,1.641C113.176,108.85,112.479,109.584,111.614,109.584z
	 M114.052,113.943c0-0.906,0.699-1.642,1.562-1.642c0.861,0,1.562,0.734,1.562,1.642c0,0.906-0.699,1.641-1.562,1.641
	C114.751,115.584,114.052,114.85,114.052,113.943z M116.614,122.646c-0.863,0-1.562-0.734-1.562-1.642s0.699-1.642,1.562-1.642
	c0.861,0,1.562,0.734,1.562,1.642S117.479,122.646,116.614,122.646z"/>
</svg>
