<?xml version="1.0" encoding="utf-8"?>
<!-- Generator: Adobe Illustrator 15.0.0, SVG Export Plug-In . SVG Version: 6.00 Build 0)  -->
<!DOCTYPE svg PUBLIC "-//W3C//DTD SVG 1.0//EN" "http://www.w3.org/TR/2001/REC-SVG-20010904/DTD/svg10.dtd">
<svg version="1.0" id="Layer_1" xmlns="http://www.w3.org/2000/svg" xmlns:xlink="http://www.w3.org/1999/xlink" x="0px" y="0px"
	 width="220px" height="227px" viewBox="0 0 220 227" enable-background="new 0 0 220 227" xml:space="preserve">
<g>
	<path fill="#434343" d="M122.022,106.5h-5.893l-5.048,5.135l-6.132-5.135h-4.912c-0.541,0-0.979,0.438-0.979,0.975v12.947
		c0,0.538,0.438,0.975,0.979,0.975h21.981c0.541,0,0.979-0.437,0.979-0.975v-12.947C123,106.938,122.562,106.5,122.022,106.5z
		 M122.062,108.459l-4.938,5l4.938,7l-0.961,0.021l-4.979-6.021L111,118.48l-4.896-4l-5.02,6h-0.98l4.98-7.021l-5.021-5l0.021-1.021
		L111,116.459l11.062-8.969V108.459z"/>
	<polygon fill="#434343" points="111.083,109.438 116.018,104.521 113,104.521 113,100.5 109.104,100.5 109.104,104.521 
		106.111,104.521 	"/>
</g>
</svg>
