<?xml version="1.0" encoding="utf-8"?>
<!-- Generator: Adobe Illustrator 15.0.0, SVG Export Plug-In . SVG Version: 6.00 Build 0)  -->
<!DOCTYPE svg PUBLIC "-//W3C//DTD SVG 1.0//EN" "http://www.w3.org/TR/2001/REC-SVG-20010904/DTD/svg10.dtd">
<svg version="1.0" id="Layer_1" xmlns="http://www.w3.org/2000/svg" xmlns:xlink="http://www.w3.org/1999/xlink" x="0px" y="0px"
	 width="220px" height="227px" viewBox="0 0 220 227" enable-background="new 0 0 220 227" xml:space="preserve">
<g>
	<path fill="#434343" d="M114,118.61h-6.052v-2.194H114V118.61z M113,104.375h5.078l1.005,10.209h-16.208l1.25-10.209H109
		l-0.054-1.812h-6.7l-3.132,12.985c0,0,0,4.749,0,6.749c0,2.001,0.716,3.043,2.732,3.043c2.02,0,16.404,0,18.295,0
		c1.892,0,2.856-0.792,2.856-3.167s0-6.625,0-6.625l-3.083-12.985H113V104.375z"/>
	<path fill="#434343" d="M113.917,106.561l-2.335,2.588c-0.293,0.283-0.768,0.283-1.061,0l-2.335-2.588
		c-0.293-0.285-0.293-0.752,0-1.037h1.865v-3.01c0-0.559,0.414-1.014,0.924-1.014c0.513,0,0.928,0.455,0.928,1.014v3.01h2.014
		C114.21,105.809,114.21,106.273,113.917,106.561z"/>
</g>
</svg>
