<?xml version="1.0" encoding="utf-8"?>
<!-- Generator: Adobe Illustrator 15.0.0, SVG Export Plug-In . SVG Version: 6.00 Build 0)  -->
<!DOCTYPE svg PUBLIC "-//W3C//DTD SVG 1.0//EN" "http://www.w3.org/TR/2001/REC-SVG-20010904/DTD/svg10.dtd">
<svg version="1.0" id="Layer_1" xmlns="http://www.w3.org/2000/svg" xmlns:xlink="http://www.w3.org/1999/xlink" x="0px" y="0px"
	 width="220px" height="227px" viewBox="0 0 220 227" enable-background="new 0 0 220 227" xml:space="preserve">
<g>
	<path fill="#434343" d="M113.5,107.5c-2.443,0-5.093-0.749-6.493-2.352c-1.414,1.611-4.051,2.352-6.483,2.352
		c-3.796,0-5.521-2.587-5.521-4.99c0-2.402,1.729-4.99,5.521-4.99c2.45,0,5.108,0.75,6.515,2.354
		c1.409-1.613,4.038-2.354,6.464-2.354c3.8,0,5.5,2.508,5.5,4.99C119.001,104.994,117.3,107.5,113.5,107.5z M107.898,102.812
		c0.174,1.787,2.964,2.771,5.629,2.771c2.253,0,3.598-1.149,3.598-3.074s-1.345-3.073-3.598-3.073c-2.658,0-5.443,0.979-5.634,2.855
		L107.898,102.812z M100.503,99.438c-2.644,0-3.586,1.588-3.586,3.072c0,1.485,0.942,3.073,3.586,3.073
		c2.646,0,5.419-0.979,5.606-2.854l-0.003-0.521C105.934,100.421,103.155,99.438,100.503,99.438z"/>
</g>
</svg>
