<?xml version="1.0" encoding="utf-8"?>
<!-- Generator: Adobe Illustrator 15.0.0, SVG Export Plug-In . SVG Version: 6.00 Build 0)  -->
<!DOCTYPE svg PUBLIC "-//W3C//DTD SVG 1.0//EN" "http://www.w3.org/TR/2001/REC-SVG-20010904/DTD/svg10.dtd">
<svg version="1.0" id="Layer_1" xmlns="http://www.w3.org/2000/svg" xmlns:xlink="http://www.w3.org/1999/xlink" x="0px" y="0px"
	 width="220px" height="227px" viewBox="0 0 220 227" enable-background="new 0 0 220 227" xml:space="preserve">
<g>
	<path fill="#434343" d="M119.757,109.32l-2.586-2.573c-0.325-0.322-0.853-0.322-1.177,0l-2.586,2.573
		c-0.325,0.321-0.325,0.847,0,1.17h2.396c-0.734,2.766-2.906,4.994-5.742,5.742c-3.284,0.865-6.797-0.424-8.735-3.212l-1.653,1.14
		c1.917,2.757,5.065,4.34,8.331,4.34c0.856,0,1.722-0.109,2.573-0.334c3.714-0.979,6.52-3.989,7.293-7.676h1.887
		C120.081,110.167,120.081,109.645,119.757,109.32z"/>
	<path fill="#434343" d="M102.791,107.738c0.325-0.323,0.325-0.849,0-1.17h-2.515c0.756-2.729,2.907-4.922,5.714-5.664
		c3.288-0.869,6.798,0.424,8.736,3.213l1.653-1.139c-2.419-3.479-6.797-5.092-10.906-4.01c-3.686,0.977-6.477,3.948-7.273,7.6
		h-1.759c-0.324,0.321-0.324,0.847,0,1.17l2.586,2.572c0.325,0.321,0.852,0.321,1.177,0L102.791,107.738z"/>
</g>
</svg>
