<?xml version="1.0" encoding="utf-8"?>
<!-- Generator: Adobe Illustrator 15.0.0, SVG Export Plug-In . SVG Version: 6.00 Build 0)  -->
<!DOCTYPE svg PUBLIC "-//W3C//DTD SVG 1.0//EN" "http://www.w3.org/TR/2001/REC-SVG-20010904/DTD/svg10.dtd">
<svg version="1.0" id="Layer_1" xmlns="http://www.w3.org/2000/svg" xmlns:xlink="http://www.w3.org/1999/xlink" x="0px" y="0px"
	 width="220px" height="227px" viewBox="0 0 220 227" enable-background="new 0 0 220 227" xml:space="preserve">
<g>
	<path fill="#434343" d="M106.841,110.685l-2.395,2.395c-0.369,0.369-0.369,0.969,0,1.338l14.754-0.08
		c0.369-0.369,0.369-0.969,0-1.338l-2.344-2.343c-1.385,0.816-3.133,1.307-5.033,1.307
		C109.942,111.963,108.216,111.483,106.841,110.685z"/>
	<path fill="#434343" d="M121.916,99.518h-1.934v-1.954h-1.812v6.189c0,2.762-2.979,5-6.656,5c-3.675,0-6.653-2.238-6.653-5v-6.189
		h-1.76v1.954h-1.964v0.934h1.964v3.893c0,3.307,4.015,5.987,8.413,5.987c4.4,0,8.469-2.681,8.469-5.987v-3.893h1.934V99.518
		L121.916,99.518z"/>
	<rect x="107.185" y="98.542" fill="#434343" width="8.724" height="2.748"/>
	<path fill="#434343" d="M107.102,104.152c0,1.711,1.952,3.099,4.361,3.099c2.408,0,4.36-1.388,4.36-3.099v-1.489H107.1
		L107.102,104.152L107.102,104.152z"/>
	<path fill="#434343" d="M115.823,93.943c0-1.855-1.952-3.36-4.36-3.36c-2.409,0-4.361,1.505-4.361,3.36v3.546h8.724L115.823,93.943
		L115.823,93.943z"/>
</g>
</svg>
