<?xml version="1.0" encoding="utf-8"?>
<!-- Generator: Adobe Illustrator 15.0.0, SVG Export Plug-In . SVG Version: 6.00 Build 0)  -->
<!DOCTYPE svg PUBLIC "-//W3C//DTD SVG 1.0//EN" "http://www.w3.org/TR/2001/REC-SVG-20010904/DTD/svg10.dtd">
<svg version="1.0" id="Layer_1" xmlns="http://www.w3.org/2000/svg" xmlns:xlink="http://www.w3.org/1999/xlink" x="0px" y="0px"
	 width="220px" height="227px" viewBox="0 0 220 227" enable-background="new 0 0 220 227" xml:space="preserve">
<g>
	<g>
		<path fill="#434343" d="M116.561,115.5H99.48c-1.345,0-2.438-1.066-2.438-2.379v-10.242c0-1.311,1.095-2.379,2.438-2.379h17.08
			c1.347,0,2.439,1.068,2.439,2.379v10.242C119,114.434,117.905,115.5,116.561,115.5z M98.875,104.5v7.062l2.062,1.938H115l2-1.875
			v-7.062l-2-2.062h-14.062L98.875,104.5z"/>
	</g>
	<g>
		<path fill="#434343" d="M107.009,112.479v-1.092c-0.75-0.012-1.515-0.209-1.967-0.48l0.311-0.732
			c0.453,0.252,1.128,0.471,1.854,0.471c0.919,0,1.54-0.445,1.54-1.068c0-0.604-0.505-0.975-1.463-1.303
			c-1.319-0.438-2.138-0.949-2.138-1.898c0-0.908,0.765-1.596,1.941-1.76v-1.094h0.815v1.061c0.764,0.021,1.295,0.196,1.684,0.383
			l-0.325,0.721c-0.271-0.131-0.803-0.383-1.631-0.383c-0.997,0-1.371,0.504-1.371,0.951c0,0.557,0.479,0.842,1.604,1.246
			c1.334,0.459,2.006,1.016,2.006,1.987c0,0.875-0.711,1.683-2.045,1.856v1.137L107.009,112.479L107.009,112.479z"/>
	</g>
	<circle fill="#434343" cx="101.458" cy="108" r="1.333"/>
	<circle fill="#434343" cx="114.417" cy="108.041" r="1.417"/>
	<path fill="#434343" d="M118.561,97.5h-17.08c-1.166,0-2.144,0.805-2.382,1.875h2.945l0.894-0.875H117l3,3.062v7.062l0.021,3.873
		c0.65-0.428,0.979-1.154,0.979-1.978V99.876C121,98.568,119.905,97.5,118.561,97.5z"/>
</g>
</svg>
