<?xml version="1.0" encoding="utf-8"?>
<!-- Generator: Adobe Illustrator 15.0.0, SVG Export Plug-In . SVG Version: 6.00 Build 0)  -->
<!DOCTYPE svg PUBLIC "-//W3C//DTD SVG 1.0//EN" "http://www.w3.org/TR/2001/REC-SVG-20010904/DTD/svg10.dtd">
<svg version="1.0" id="Layer_1" xmlns="http://www.w3.org/2000/svg" xmlns:xlink="http://www.w3.org/1999/xlink" x="0px" y="0px"
	 width="220px" height="227px" viewBox="0 0 220 227" enable-background="new 0 0 220 227" xml:space="preserve">
<g>
	<g>
		<path fill="#434343" d="M112.053,119.285c-6.622-1.239-11.021-7.514-9.812-13.984c1.211-6.47,7.586-10.726,14.208-9.483
			l-0.678,3.608c-4.586-0.856-8.996,2.088-9.837,6.568c-0.839,4.479,2.208,8.822,6.796,9.681c1.615,0.304,3.269,0.146,4.776-0.464
			l1.45,3.403C116.778,119.49,114.39,119.723,112.053,119.285z"/>
	</g>
	<g>
		<polygon fill="#434343" points="112.998,106.483 99.04,106.483 100.04,103.515 113.998,103.515 		"/>
	</g>
	<g>
		<polygon fill="#434343" points="112.965,111.462 99.031,111.462 100.031,108.546 113.965,108.546 		"/>
	</g>
</g>
</svg>
