<?xml version="1.0" encoding="utf-8"?>
<!-- Generator: Adobe Illustrator 15.0.0, SVG Export Plug-In . SVG Version: 6.00 Build 0)  -->
<!DOCTYPE svg PUBLIC "-//W3C//DTD SVG 1.0//EN" "http://www.w3.org/TR/2001/REC-SVG-20010904/DTD/svg10.dtd">
<svg version="1.0" id="Layer_1" xmlns="http://www.w3.org/2000/svg" xmlns:xlink="http://www.w3.org/1999/xlink" x="0px" y="0px"
	 width="220px" height="227px" viewBox="0 0 220 227" enable-background="new 0 0 220 227" xml:space="preserve">
<g>
	<path fill="#434343" d="M124,103.625c0-1.104-0.896-2-2-2h-19.938c-1.104,0-2,0.896-2,2v3.875H124V103.625z"/>
	<rect x="100.062" y="111.625" fill="#434343" width="3.875" height="1.844"/>
	<rect x="100.062" y="117.625" fill="#434343" width="3.875" height="1.844"/>
	<rect x="100.062" y="120.625" fill="#434343" width="3.875" height="1.844"/>
	<path fill="#434343" d="M102.062,125.5h1.875v-1.875h-3.862C100.141,124.67,101.001,125.5,102.062,125.5z"/>
	<rect x="100.062" y="108.625" fill="#434343" width="3.875" height="1.844"/>
	<rect x="100.062" y="114.625" fill="#434343" width="3.875" height="1.844"/>
	<rect x="106.062" y="108.625" fill="#434343" width="17.938" height="1.844"/>
	<rect x="106.062" y="114.625" fill="#434343" width="17.938" height="1.844"/>
	<rect x="106.062" y="120.625" fill="#434343" width="17.938" height="1.844"/>
	<rect x="106.062" y="117.625" fill="#434343" width="17.938" height="1.844"/>
	<path fill="#434343" d="M106.062,125.5H122c1.062,0,1.922-0.83,1.987-1.875h-17.925V125.5z"/>
	<rect x="106.062" y="111.625" fill="#434343" width="17.938" height="1.844"/>
</g>
</svg>
