<?xml version="1.0" encoding="utf-8"?>
<!-- Generator: Adobe Illustrator 15.0.0, SVG Export Plug-In . SVG Version: 6.00 Build 0)  -->
<!DOCTYPE svg PUBLIC "-//W3C//DTD SVG 1.0//EN" "http://www.w3.org/TR/2001/REC-SVG-20010904/DTD/svg10.dtd">
<svg version="1.0" id="Layer_1" xmlns="http://www.w3.org/2000/svg" xmlns:xlink="http://www.w3.org/1999/xlink" x="0px" y="0px"
	 width="220px" height="227px" viewBox="0 0 220 227" enable-background="new 0 0 220 227" xml:space="preserve">
<g>
	<path fill="#434343" d="M107.88,100.628H97.084v23.705h18.833v-14.707h-8.037V100.628z M104.031,116.562h-0.992v0.975h-2v2.01
		h-1.07v-6.078l3.07,0.021v0.975h0.992V116.562z M109.961,113.453h3.07v1.078h-1.992v0.922h1.992v1.078h-1.992v3.016h-1.078V113.453
		z M108.037,113.469v0.984h0.994l0.021,4.109h-1.037v0.982h-3.077v-6.094L108.037,113.469z"/>
	<polygon fill="#434343" points="109.083,100.501 109.083,108.438 115.917,108.438 	"/>
	<rect x="101.016" y="114.526" fill="#434343" width="1.953" height="1.958"/>
	<rect x="106.037" y="114.526" fill="#434343" width="1.9" height="3.945"/>
</g>
</svg>
