<?xml version="1.0" encoding="utf-8"?>
<!-- Generator: Adobe Illustrator 15.0.0, SVG Export Plug-In . SVG Version: 6.00 Build 0)  -->
<!DOCTYPE svg PUBLIC "-//W3C//DTD SVG 1.0//EN" "http://www.w3.org/TR/2001/REC-SVG-20010904/DTD/svg10.dtd">
<svg version="1.0" id="Layer_1" xmlns="http://www.w3.org/2000/svg" xmlns:xlink="http://www.w3.org/1999/xlink" x="0px" y="0px"
	 width="220px" height="227px" viewBox="0 0 220 227" enable-background="new 0 0 220 227" xml:space="preserve">
<g>
	<path fill="#434343" d="M133.18,105.337l-3-2.977c-0.804-0.805-2.066-0.848-2.816-0.098l-13.637,13.658
		c0,0-3.458,7.957-3.692,8.601c-0.187,0.509,0.457,1.151,0.901,0.935c0.719-0.355,8.584-3.769,8.584-3.769l13.672-13.717
		C133.939,107.222,133.982,106.14,133.18,105.337z M111.779,122.243l2.507-5.607l13.912-13.92c0.187-0.271,0.924-0.103,1.337,0.312
		l-13.637,13.611l0.002,1.434l1.388-0.021l13.603-13.604l0.784,1.054l-13.588,13.251l-0.001,1.459l0.727,0.729l-5.528,2.681
		L111.779,122.243z"/>
</g>
</svg>
