<?xml version="1.0" encoding="utf-8"?>
<!-- Generator: Adobe Illustrator 15.0.0, SVG Export Plug-In . SVG Version: 6.00 Build 0)  -->
<!DOCTYPE svg PUBLIC "-//W3C//DTD SVG 1.0//EN" "http://www.w3.org/TR/2001/REC-SVG-20010904/DTD/svg10.dtd">
<svg version="1.0" id="Layer_1" xmlns="http://www.w3.org/2000/svg" xmlns:xlink="http://www.w3.org/1999/xlink" x="0px" y="0px"
	 width="220px" height="227px" viewBox="0 0 220 227" enable-background="new 0 0 220 227" xml:space="preserve">
<path fill="#434343" d="M119.82,112.554c0-1.088-0.912-1.971-2.037-1.971h-2.577c0.476-0.531,0.772-1.228,0.772-1.998
	c0-1.655-1.336-2.996-2.979-2.996c-1.646,0-2.982,1.341-2.982,2.996c0,0.771,0.297,1.467,0.773,1.998h-2.66
	c-1.125,0-2.114,0.883-2.114,1.971L103,127.528c0,1.09,0.912,1.972,2.039,1.972h15.758c1.125,0,2.037-0.882,2.037-1.972
	L119.82,112.554z M112.999,106.521c1.133,0,2.053,0.924,2.053,2.062s-0.92,2.064-2.053,2.064c-1.136,0-2.058-0.926-2.058-2.064
	S111.863,106.521,112.999,106.521z M111.927,120.457v-3.979h2.13v3.957l2.154,0.021l-3.201,4.376l-3.156-4.376L111.927,120.457
	L111.927,120.457z"/>
</svg>
