<?xml version="1.0" encoding="utf-8"?>
<!-- Generator: Adobe Illustrator 15.0.0, SVG Export Plug-In . SVG Version: 6.00 Build 0)  -->
<!DOCTYPE svg PUBLIC "-//W3C//DTD SVG 1.0//EN" "http://www.w3.org/TR/2001/REC-SVG-20010904/DTD/svg10.dtd">
<svg version="1.0" id="Layer_1" xmlns="http://www.w3.org/2000/svg" xmlns:xlink="http://www.w3.org/1999/xlink" x="0px" y="0px"
	 width="220px" height="227px" viewBox="0 0 220 227" enable-background="new 0 0 220 227" xml:space="preserve">
<g>
	<path fill="#434343" d="M115,93.5h-13c0-2.762,6.5-5,6.5-5S115,90.738,115,93.5z"/>
	<path fill="#434343" d="M116,94.969c0,0.256-0.214,0.465-0.477,0.465h-14.049c-0.263,0-0.477-0.209-0.477-0.465l0,0
		c0-0.257,0.214-0.465,0.477-0.465h14.049C115.786,94.504,116,94.712,116,94.969L116,94.969z"/>
	<g>
		<path fill="#434343" d="M122.521,106.407c-0.276,0-0.479-0.226-0.479-0.499V87.846c0-3.006-3.354-4.431-6.573-4.431
			c-3.672,0-6.469,3.646-6.469,5.428c0,0.275-0.224,0.499-0.5,0.499s-0.5-0.224-0.5-0.499c0-2.446,3.418-6.345,7.469-6.345
			c4.469,0,7.469,2.146,7.469,5.348v18.062C122.938,106.184,122.797,106.407,122.521,106.407z"/>
	</g>
	<rect x="106.021" y="95.5" fill="#434343" width="0.959" height="0.979"/>
	<rect x="102.021" y="95.5" fill="#434343" width="0.959" height="0.979"/>
	<rect x="104.021" y="96.5" fill="#434343" width="0.959" height="1.995"/>
	<rect x="108.021" y="96.5" fill="#434343" width="0.959" height="1.995"/>
	<rect x="112.021" y="96.5" fill="#434343" width="0.959" height="1.995"/>
	<rect x="109.021" y="98.5" fill="#434343" width="0.959" height="1.995"/>
	<rect x="105.021" y="98.5" fill="#434343" width="0.959" height="1.995"/>
	<rect x="113.021" y="98.5" fill="#434343" width="0.959" height="1.995"/>
	<rect x="107.021" y="100.5" fill="#434343" width="0.959" height="1.995"/>
	<rect x="103.021" y="100.5" fill="#434343" width="0.959" height="1.995"/>
	<rect x="111.021" y="100.5" fill="#434343" width="0.959" height="1.995"/>
	<rect x="110.021" y="95.5" fill="#434343" width="0.959" height="0.979"/>
	<rect x="114.021" y="95.5" fill="#434343" width="0.959" height="0.979"/>
</g>
</svg>
