<?xml version="1.0" encoding="utf-8"?>
<!-- Generator: Adobe Illustrator 15.0.0, SVG Export Plug-In . SVG Version: 6.00 Build 0)  -->
<!DOCTYPE svg PUBLIC "-//W3C//DTD SVG 1.0//EN" "http://www.w3.org/TR/2001/REC-SVG-20010904/DTD/svg10.dtd">
<svg version="1.0" id="Layer_1" xmlns="http://www.w3.org/2000/svg" xmlns:xlink="http://www.w3.org/1999/xlink" x="0px" y="0px"
	 width="220px" height="227px" viewBox="0 0 220 227" enable-background="new 0 0 220 227" xml:space="preserve">
<g>
	<path fill="#434343" d="M135.852,99.402h9.276c0.438,0,0.789-0.354,0.789-0.791v-2.32c0-0.438-0.353-0.791-0.789-0.791h-9.276
		c-0.438,0-0.789,0.354-0.789,0.791v2.32C135.062,99.048,135.414,99.402,135.852,99.402z"/>
	<path fill="#434343" d="M141.964,115.282c0,0.54,0.107,1.054,0.3,1.521c2.45-0.616,2.766-3.053,2.599-5.296
		C143.204,111.91,141.964,113.445,141.964,115.282z"/>
	<path fill="#434343" d="M128,116.711c0,2.047,1.835,2.607,3.579,2.734c0.787-0.726,1.289-1.754,1.289-2.905
		c0-1.538-0.892-2.86-2.173-3.515C128.137,114.521,128,115.584,128,116.711z"/>
	<path fill="#434343" d="M144.757,110.5c-0.15-1.184-0.371-2.211-0.373-2.739c-0.022-4.565,0.451-7.239,0.451-7.239l-8.694,0.062
		c0,0,0.452,2.331,0.452,4.918s0.432,4.438-3.855,6.487c-0.282,0.135-0.544,0.266-0.792,0.395c1.271,0.908,2.105,2.416,2.105,4.125
		c0,1.095-0.351,2.1-0.928,2.924c1.42-0.264,5.064-1.639,8.107-2.334c-0.206-0.549-0.332-1.14-0.332-1.762
		C140.898,112.955,142.558,110.963,144.757,110.5z"/>
</g>
</svg>
