<?xml version="1.0" encoding="utf-8"?>
<!-- Generator: Adobe Illustrator 15.0.0, SVG Export Plug-In . SVG Version: 6.00 Build 0)  -->
<!DOCTYPE svg PUBLIC "-//W3C//DTD SVG 1.0//EN" "http://www.w3.org/TR/2001/REC-SVG-20010904/DTD/svg10.dtd">
<svg version="1.0" id="Layer_1" xmlns="http://www.w3.org/2000/svg" xmlns:xlink="http://www.w3.org/1999/xlink" x="0px" y="0px"
	 width="220px" height="227px" viewBox="0 0 220 227" enable-background="new 0 0 220 227" xml:space="preserve">
<g>
	<ellipse fill="#434343" cx="110.657" cy="109.971" rx="2.916" ry="2.908"/>
	<path fill="#434343" d="M115.615,93.1h-9.875c-1.104,0-2,0.892-2,1.994v19.822c0,1.103,0.896,1.994,2,1.994h9.875
		c1.104,0,2-0.894,2-1.994V95.094C117.615,93.991,116.72,93.1,115.615,93.1z M110.625,94.887c2.279,0,4.128,1.844,4.128,4.113
		c0,2.271-1.849,4.114-4.128,4.114c-2.275,0-4.125-1.843-4.125-4.114C106.5,96.729,108.348,94.887,110.625,94.887z M110.657,115.124
		c-2.854,0-5.166-2.307-5.166-5.153c0-2.845,2.312-5.149,5.166-5.149c2.854,0,5.165,2.307,5.165,5.149
		C115.822,112.817,113.511,115.124,110.657,115.124z"/>
	<ellipse fill="#434343" cx="110.625" cy="99" rx="1.938" ry="1.932"/>
</g>
</svg>
