<?xml version="1.0" encoding="utf-8"?>
<!-- Generator: Adobe Illustrator 15.0.0, SVG Export Plug-In . SVG Version: 6.00 Build 0)  -->
<!DOCTYPE svg PUBLIC "-//W3C//DTD SVG 1.0//EN" "http://www.w3.org/TR/2001/REC-SVG-20010904/DTD/svg10.dtd">
<svg version="1.0" id="Layer_1" xmlns="http://www.w3.org/2000/svg" xmlns:xlink="http://www.w3.org/1999/xlink" x="0px" y="0px"
	 width="220px" height="227px" viewBox="0 0 220 227" enable-background="new 0 0 220 227" xml:space="preserve">
<g>
	<path fill="#434343" d="M124.083,122.583c-4.373,0-7.918,3.545-7.918,7.917c0,4.373,3.545,7.918,7.918,7.918
		s7.918-3.545,7.918-7.918C132.001,126.128,128.456,122.583,124.083,122.583z M124.083,136.335c-3.223,0-5.835-2.612-5.835-5.835
		c0-3.222,2.612-5.834,5.835-5.834s5.835,2.612,5.835,5.834C129.918,133.723,127.306,136.335,124.083,136.335z"/>
	<rect x="123.125" y="118.625" fill="#434343" width="1.875" height="2.875"/>
	<rect x="123.125" y="139.625" fill="#434343" width="1.875" height="2.875"/>
	<rect x="133.166" y="129.625" fill="#434343" width="2.834" height="1.875"/>
	<rect x="112.166" y="129.625" fill="#434343" width="2.834" height="1.875"/>
	
		<rect x="131.243" y="121.024" transform="matrix(0.7068 0.7074 -0.7074 0.7068 125.3744 -57.6003)" fill="#434343" width="1.875" height="2.875"/>
	
		<rect x="114.981" y="137.287" transform="matrix(0.7071 0.7071 -0.7071 0.7071 132.0452 -41.3351)" fill="#434343" width="1.875" height="2.875"/>
	
		<rect x="130.672" y="137.757" transform="matrix(0.7069 0.7073 -0.7073 0.7069 136.823 -52.8213)" fill="#434343" width="2.959" height="1.875"/>
	
		<rect x="114.409" y="121.495" transform="matrix(0.7069 0.7073 -0.7073 0.7069 120.555 -46.0854)" fill="#434343" width="2.96" height="1.875"/>
</g>
</svg>
