<?xml version="1.0" encoding="utf-8"?>
<!-- Generator: Adobe Illustrator 15.0.0, SVG Export Plug-In . SVG Version: 6.00 Build 0)  -->
<!DOCTYPE svg PUBLIC "-//W3C//DTD SVG 1.0//EN" "http://www.w3.org/TR/2001/REC-SVG-20010904/DTD/svg10.dtd">
<svg version="1.0" id="Layer_1" xmlns="http://www.w3.org/2000/svg" xmlns:xlink="http://www.w3.org/1999/xlink" x="0px" y="0px"
	 width="220px" height="227px" viewBox="0 0 220 227" enable-background="new 0 0 220 227" xml:space="preserve">
<path fill="#434343" d="M128.008,108.892l-0.135,0.136l-0.053-0.054c-1.273-1.274-3.396-1.224-4.736,0.118l-0.383,0.381
	c-1.34,1.34-1.393,3.461-0.115,4.736l0.053,0.052l-0.246,0.246c-1.154,1.153-1.195,2.985-0.09,4.089l12.436,12.438
	c1.105,1.104,2.938,1.062,4.094-0.09l5.611-5.613c1.154-1.154,1.195-2.984,0.09-4.09l-12.438-12.438
	C130.99,107.699,129.16,107.738,128.008,108.892z M126.855,115.379c-1.039,0-1.881-0.857-1.881-1.916s0.842-1.916,1.881-1.916
	c1.041,0.001,1.881,0.858,1.883,1.916C128.736,114.521,127.896,115.379,126.855,115.379z"/>
</svg>
