<?xml version="1.0" encoding="utf-8"?>
<!-- Generator: Adobe Illustrator 15.0.0, SVG Export Plug-In . SVG Version: 6.00 Build 0)  -->
<!DOCTYPE svg PUBLIC "-//W3C//DTD SVG 1.0//EN" "http://www.w3.org/TR/2001/REC-SVG-20010904/DTD/svg10.dtd">
<svg version="1.0" id="Layer_1" xmlns="http://www.w3.org/2000/svg" xmlns:xlink="http://www.w3.org/1999/xlink" x="0px" y="0px"
	 width="220px" height="227px" viewBox="0 0 220 227" enable-background="new 0 0 220 227" xml:space="preserve">
<g>
	<path fill="#434343" d="M120.522,97.982c-3.024,0-5.479,2.453-5.479,5.479c0,3.024,2.454,5.479,5.479,5.479
		s5.479-2.453,5.479-5.479C126.002,100.436,123.548,97.982,120.522,97.982z M120.522,107.024c-1.967,0-3.562-1.595-3.562-3.562
		s1.596-3.562,3.562-3.562s3.563,1.598,3.563,3.562C124.086,105.43,122.489,107.024,120.522,107.024z"/>
	<path fill="#434343" d="M107.564,85.024c-3.025,0-5.479,2.453-5.479,5.479c0,3.024,2.453,5.479,5.479,5.479
		c3.026,0,5.479-2.453,5.479-5.479C113.043,87.478,110.59,85.024,107.564,85.024z M107.564,94.106c-1.989,0-3.604-1.614-3.604-3.604
		c0-1.99,1.612-3.604,3.604-3.604s3.604,1.614,3.604,3.604C111.168,92.492,109.554,94.106,107.564,94.106z"/>
	<polygon fill="#434343" points="113.019,99.48 111.587,98.049 107.543,102.094 103.5,98.049 102.067,99.48 106.111,103.525 
		102.067,107.568 103.5,109 107.543,104.957 111.587,109 113.019,107.568 108.976,103.525 	"/>
	<polygon fill="#434343" points="126.019,86.48 124.587,85.049 120.543,89.094 116.5,85.049 115.067,86.48 119.111,90.525 
		115.067,94.568 116.5,96 120.543,91.957 124.587,96 126.019,94.568 121.976,90.525 	"/>
</g>
</svg>
