<?xml version="1.0" encoding="utf-8"?>
<!-- Generator: Adobe Illustrator 15.0.0, SVG Export Plug-In . SVG Version: 6.00 Build 0)  -->
<!DOCTYPE svg PUBLIC "-//W3C//DTD SVG 1.0//EN" "http://www.w3.org/TR/2001/REC-SVG-20010904/DTD/svg10.dtd">
<svg version="1.0" id="Layer_1" xmlns="http://www.w3.org/2000/svg" xmlns:xlink="http://www.w3.org/1999/xlink" x="0px" y="0px"
	 width="220px" height="227px" viewBox="0 0 220 227" enable-background="new 0 0 220 227" xml:space="preserve">
<g>
	<path fill="#434343" d="M125.255,122.11c0.794,0.795,1.283,0.229,1.936-0.421c0.649-0.65,1.217-1.143,0.424-1.937
		c0,0-11.406-11.396-14.139-14.116l-2.354,2.354L125.255,122.11z"/>
	<path fill="#434343" d="M107.085,110.262l0.918-0.902c0,0-0.406-1.107,0.188-1.641c0.594-0.532,1.594-0.203,1.594-0.203
		l3.219-3.107c0,0-0.227-1.617,0.072-1.916c0.299-0.301,3.635-1.928,3.959-2.25l-0.688-0.688c0,0-4.67,0.562-5.176,1.065
		c-0.299,0.3-2.521,2.544-4.105,4.13c0,0,0.396,1.133-0.125,1.656c-0.523,0.521-1.703,0.146-1.703,0.146
		c-0.559,0.559-0.932,0.93-0.932,0.93c-0.393,0.396-0.161,0.951,0.32,1.436l1.023,1.021
		C106.136,110.426,106.692,110.655,107.085,110.262z"/>
</g>
<ellipse transform="matrix(0.7071 0.7071 -0.7071 0.7071 115.8807 -41.8927)" fill="none" cx="108.509" cy="118.934" rx="1.778" ry="1.8"/>
<path fill="#434343" d="M110.039,115.391c-0.111,0.111-0.189,0.236-0.249,0.367c-1.22-0.479-2.681-0.233-3.677,0.762
	c-1.333,1.332-1.36,3.676-0.043,4.991c1.314,1.316,3.569,1.201,4.902-0.131c0.981-0.981,1.195-2.452,0.738-3.661
	c0.142-0.059,0.276-0.139,0.396-0.258l2.831-2.832l-2.068-2.07L110.039,115.391z M109.755,120.16
	c-0.703,0.703-1.835,0.711-2.529,0.016c-0.692-0.693-0.688-1.828,0.017-2.529c0.703-0.702,1.837-0.709,2.531-0.016
	C110.466,118.325,110.458,119.457,109.755,120.16z"/>
<path fill="#434343" d="M121.548,108.021c1.608,0.763,3.625,0.527,4.961-0.809c1.03-1.03,1.438-2.445,1.222-3.779l-2.271,2.27
	l-1.934,0.479l-2.184-2.152l0.511-1.996l2.25-2.225c-1.333-0.218-2.84,0.1-3.868,1.129c-1.337,1.336-1.52,3.404-0.758,5.013
	l-1.481,1.483c0.65,0.648,1.351,1.348,2.072,2.068L121.548,108.021z"/>
</svg>
