<?xml version="1.0" encoding="utf-8"?>
<!-- Generator: Adobe Illustrator 15.0.0, SVG Export Plug-In . SVG Version: 6.00 Build 0)  -->
<!DOCTYPE svg PUBLIC "-//W3C//DTD SVG 1.0//EN" "http://www.w3.org/TR/2001/REC-SVG-20010904/DTD/svg10.dtd">
<svg version="1.0" id="Layer_1" xmlns="http://www.w3.org/2000/svg" xmlns:xlink="http://www.w3.org/1999/xlink" x="0px" y="0px"
	 width="220px" height="227px" viewBox="0 0 220 227" enable-background="new 0 0 220 227" xml:space="preserve">
<g>
	<path fill="#434343" d="M103.934,109.582h-3.742c-1.131,0-2.044,0.902-2.044,2.016v15.806c0,1.11,0.913,2.015,2.044,2.015h3.742
		c1.131,0,2.045-0.902,2.045-2.015v-15.806C105.979,110.484,105.062,109.582,103.934,109.582z M102.078,127.375
		c-1.078,0-1.953-0.875-1.953-1.953s0.875-1.953,1.953-1.953c1.08,0,1.953,0.875,1.953,1.953S103.158,127.375,102.078,127.375z
		 M102.078,121.375c-1.078,0-1.953-0.875-1.953-1.953s0.875-1.953,1.953-1.953c1.08,0,1.953,0.875,1.953,1.953
		S103.158,121.375,102.078,121.375z M102.078,115.375c-1.078,0-1.953-0.875-1.953-1.953s0.875-1.953,1.953-1.953
		c1.08,0,1.953,0.875,1.953,1.953S103.158,115.375,102.078,115.375z"/>
	<path fill="#434343" d="M108.109,115.469h0.875c0.561,0,3.016-2.944,3.016-2.944c0-0.564-0.455-1.022-1.016-1.022h-2.875
		c-0.562,0-1.018,0.458-1.018,1.022v1.924C107.094,115.011,107.549,115.469,108.109,115.469z"/>
	<path fill="#434343" d="M110.984,117.5h-2.875c-0.562,0-1.018,0.458-1.018,1.021v1.925c0,0.562,0.455,1.021,1.018,1.021h0.875
		c0.561,0,3.016-2.945,3.016-2.945C112,117.958,111.545,117.5,110.984,117.5z"/>
	<path fill="#434343" d="M110.984,123.5h-2.875c-0.562,0-1.018,0.458-1.018,1.021v1.925c0,0.562,0.455,1.021,1.018,1.021h0.875
		c0.561,0,3.016-2.945,3.016-2.945C112,123.958,111.545,123.5,110.984,123.5z"/>
	<path fill="#434343" d="M95.984,111.5h-2.875c-0.562,0-1.018,0.458-1.018,1.021c0,0,2.455,2.945,3.018,2.945h0.875
		c0.562,0,1.016-0.458,1.016-1.021v-1.924C97,111.958,96.547,111.5,95.984,111.5z"/>
	<path fill="#434343" d="M95.984,117.5h-2.875c-0.562,0-1.018,0.458-1.018,1.021c0,0,2.455,2.945,3.018,2.945h0.875
		c0.562,0,1.016-0.458,1.016-1.021v-1.924C97,117.958,96.547,117.5,95.984,117.5z"/>
	<path fill="#434343" d="M95.984,123.5h-2.875c-0.562,0-1.018,0.458-1.018,1.021c0,0,2.455,2.945,3.018,2.945h0.875
		c0.562,0,1.016-0.458,1.016-1.021v-1.924C97,123.958,96.547,123.5,95.984,123.5z"/>
	<rect x="100.062" y="129.583" fill="#434343" width="3.875" height="3.917"/>
</g>
</svg>
