<?xml version="1.0" encoding="utf-8"?>
<!-- Generator: Adobe Illustrator 15.0.0, SVG Export Plug-In . SVG Version: 6.00 Build 0)  -->
<!DOCTYPE svg PUBLIC "-//W3C//DTD SVG 1.0//EN" "http://www.w3.org/TR/2001/REC-SVG-20010904/DTD/svg10.dtd">
<svg version="1.0" id="Layer_1" xmlns="http://www.w3.org/2000/svg" xmlns:xlink="http://www.w3.org/1999/xlink" x="0px" y="0px"
	 width="220px" height="227px" viewBox="0 0 220 227" enable-background="new 0 0 220 227" xml:space="preserve">
<g>
	<ellipse fill="#434343" cx="98.062" cy="120.5" rx="1.938" ry="1.916"/>
	<ellipse fill="#434343" cx="107.062" cy="120.5" rx="1.938" ry="1.916"/>
	<path fill="#434343" d="M113.062,101.5c-1.07,0-1.938,0.896-1.938,2l-0.258,2.008H91.945c-0.479,0-0.863,0.443-0.863,0.992
		c0,0.207,0.067,0.388,0.162,0.547l1.811,7.771c0.062,0.257,0.251,0.444,0.495,0.552c0.12,0.073,0.25,0.124,0.396,0.124h15.643
		l-0.259,2.016H94.946c-0.479,0-0.863,0.443-0.863,0.992s0.387,0.992,0.863,0.992h15.271c0.084,0,0.159-0.029,0.236-0.055h0.563
		l1.788-13.966c0.084,0.013,0.169,0.026,0.256,0.026c1.067,0,1.937-0.896,1.937-2C115,102.396,114.133,101.5,113.062,101.5z
		 M110.355,109.508h-1.358v-2.016h1.616L110.355,109.508z M94.787,113.508l-0.47-2.016h1.789v2.016H94.787z M102.106,109.508h-2.109
		v-2.016h2.109V109.508z M102.997,107.492h2.109v2.016h-2.109V107.492z M99.106,109.508h-2.109v-2.016h2.109V109.508z
		 M96.106,109.508h-2.251l-0.473-2.016h2.724V109.508L96.106,109.508z M96.997,111.492h2.109v2.016h-2.109V111.492z M99.997,111.492
		h2.109v2.016h-2.109V111.492z M102.997,111.492h2.109v2.016h-2.109V111.492z M105.997,111.492h2.109v2.016h-2.109V111.492z
		 M105.997,109.508v-2.016h2.109v2.016H105.997z M108.997,113.508v-2.016h1.104l-0.258,2.016H108.997z"/>
</g>
</svg>
