<?xml version="1.0" encoding="utf-8"?>
<!-- Generator: Adobe Illustrator 15.0.0, SVG Export Plug-In . SVG Version: 6.00 Build 0)  -->
<!DOCTYPE svg PUBLIC "-//W3C//DTD SVG 1.0//EN" "http://www.w3.org/TR/2001/REC-SVG-20010904/DTD/svg10.dtd">
<svg version="1.0" id="Layer_1" xmlns="http://www.w3.org/2000/svg" xmlns:xlink="http://www.w3.org/1999/xlink" x="0px" y="0px"
	 width="220px" height="227px" viewBox="0 0 220 227" enable-background="new 0 0 220 227" xml:space="preserve">
<g>
	<rect x="123" y="123.5" fill="#434343" width="2" height="12"/>
	<polygon fill="#434343" points="124,111.5 112,120.5 112,122.5 113,122.5 113,121.5 115,121.5 115,122.5 117,122.5 117,121.5 
		119,121.5 119,122.5 121,122.5 121,121.5 123,121.5 123,122.5 125,122.5 125,121.5 127,121.5 127,122.5 129,122.5 129,121.5 
		131,121.5 131,122.5 133,122.5 133,121.5 135,121.5 135,122.5 136,122.5 136,120.5 	"/>
	<rect x="121" y="133.5" fill="#434343" width="6" height="1"/>
	<rect x="117" y="134.5" fill="#434343" width="14" height="1"/>
</g>
</svg>
