<?xml version="1.0" encoding="utf-8"?>
<!-- Generator: Adobe Illustrator 15.0.0, SVG Export Plug-In . SVG Version: 6.00 Build 0)  -->
<!DOCTYPE svg PUBLIC "-//W3C//DTD SVG 1.0//EN" "http://www.w3.org/TR/2001/REC-SVG-20010904/DTD/svg10.dtd">
<svg version="1.0" id="Layer_1" xmlns="http://www.w3.org/2000/svg" xmlns:xlink="http://www.w3.org/1999/xlink" x="0px" y="0px"
	 width="220px" height="227px" viewBox="0 0 220 227" enable-background="new 0 0 220 227" xml:space="preserve">
<g>
	<path fill="#434343" d="M112.882,120.389c0,2.699-2.19,7.861-4.896,7.861c-2.705,0-4.896-5.162-4.896-7.861
		s2.192-4.889,4.896-4.889S112.882,117.688,112.882,120.389z"/>
	<polygon fill="#434343" points="120,131.035 118.408,129.443 116.02,131.832 113.631,129.443 112.039,131.035 114.428,133.424 
		112.039,135.812 113.631,137.404 116.02,135.016 118.408,137.404 120,135.812 117.611,133.424 	"/>
	<path fill="#434343" d="M109.048,130.416l-1.062,0.229c0,0-4.351-0.43-5.632-2.15c-6.14,0-6.325,8.914-6.325,8.914h13.998
		l-0.942-0.99l2.922-2.98L109.048,130.416z"/>
</g>
</svg>
