<?xml version="1.0" encoding="utf-8"?>
<!-- Generator: Adobe Illustrator 15.0.0, SVG Export Plug-In . SVG Version: 6.00 Build 0)  -->
<!DOCTYPE svg PUBLIC "-//W3C//DTD SVG 1.0//EN" "http://www.w3.org/TR/2001/REC-SVG-20010904/DTD/svg10.dtd">
<svg version="1.0" id="Layer_1" xmlns="http://www.w3.org/2000/svg" xmlns:xlink="http://www.w3.org/1999/xlink" x="0px" y="0px"
	 width="220px" height="227px" viewBox="0 0 220 227" enable-background="new 0 0 220 227" xml:space="preserve">
<g>
	<path fill="#434343" d="M100.032,97.542v4.875h18.884v-4.875H100.032z M102.519,100.893c-0.521,0-0.945-0.388-0.945-0.869
		c0-0.479,0.424-0.869,0.945-0.869c0.522,0,0.946,0.391,0.946,0.869C103.465,100.505,103.041,100.893,102.519,100.893z
		 M105.527,100.805c-0.537,0-0.976-0.369-0.976-0.825c0-0.455,0.438-0.825,0.976-0.825c0.538,0,0.973,0.37,0.973,0.825
		C106.5,100.436,106.065,100.805,105.527,100.805z"/>
	<path fill="#434343" d="M100.115,121.5h18.801v-17.792h-18.801V121.5z M109.512,107.416c3.067,0,5.556,2.5,5.556,5.584
		c0,3.083-2.486,5.583-5.556,5.583c-3.066,0-5.555-2.5-5.555-5.583C103.957,109.916,106.443,107.416,109.512,107.416z"/>
	<path fill="#434343" d="M109.516,117.417c2.454,0,4.442-1.979,4.442-4.418c0-2.438-1.988-4.416-4.442-4.416
		c-2.453,0-4.439,1.979-4.439,4.416C105.074,115.438,107.062,117.417,109.516,117.417z M109.516,109.483
		c1.789,0,3.268,1.321,3.501,3.036c-0.065-0.028-0.139-0.048-0.218-0.048c-0.292,0-0.53,0.237-0.53,0.527
		c0,0.291,0.238,0.529,0.53,0.529c0.079,0,0.15-0.021,0.218-0.048c-0.233,1.716-1.712,3.037-3.501,3.037
		c-1.953,0-3.537-1.574-3.537-3.519C105.979,111.059,107.562,109.483,109.516,109.483z"/>
</g>
</svg>
