<?xml version="1.0" encoding="utf-8"?>
<!-- Generator: Adobe Illustrator 15.0.0, SVG Export Plug-In . SVG Version: 6.00 Build 0)  -->
<!DOCTYPE svg PUBLIC "-//W3C//DTD SVG 1.0//EN" "http://www.w3.org/TR/2001/REC-SVG-20010904/DTD/svg10.dtd">
<svg version="1.0" id="Layer_1" xmlns="http://www.w3.org/2000/svg" xmlns:xlink="http://www.w3.org/1999/xlink" x="0px" y="0px"
	 width="220px" height="227px" viewBox="0 0 220 227" enable-background="new 0 0 220 227" xml:space="preserve">
<g>
	<path fill="#434343" d="M127.941,99.008c0,0.255-0.271,0.459-0.604,0.459h-13.719c-0.332,0-0.604-0.204-0.604-0.459l0,0
		c0-0.251,0.271-0.457,0.604-0.457h13.719C127.672,98.551,127.941,98.757,127.941,99.008L127.941,99.008z"/>
	<path fill="#434343" d="M123.355,104.469l-6.768-1.182c-0.87-0.256-2.54-2.877-2.54-3.566c0-0.688,0.582-1.182,1.302-1.182h10.305
		c0.723,0,1.303,0.402,1.303,1.182C126.957,100.501,124.074,104.469,123.355,104.469z"/>
	<path fill="#434343" d="M128.5,102.547c-1.354,0-2.453,1.101-2.453,2.453c0,1.355,1.098,2.453,2.453,2.453s2.453-1.098,2.453-2.453
		S129.855,102.547,128.5,102.547z"/>
	<g>
		<path fill="#434343" d="M127.012,105.477l-13.434-2.305c-0.145-0.021-0.271-0.108-0.348-0.236l-2.469-3.188l-3.401-1.229
			c-0.259-0.094-0.394-0.379-0.301-0.64c0.093-0.26,0.381-0.39,0.637-0.302l3.569,1.288c0.109,0.039,0.2,0.115,0.26,0.214
			l2.442,3.146l13.046,2.238L127.012,105.477z"/>
	</g>
	<g>
		<path fill="#434343" d="M118.508,107.406c-1.41,0-2.473-1.715-2.473-3.987c0-0.219,0.216-0.396,0.482-0.396
			c0.266,0,0.482,0.177,0.482,0.396c0,1.981,0.879,3.196,1.508,3.196s1.508-1.215,1.508-3.196c0-0.219,0.217-0.396,0.482-0.396
			s0.482,0.177,0.482,0.396C120.98,105.691,119.918,107.406,118.508,107.406z"/>
	</g>
</g>
</svg>
