<?xml version="1.0" encoding="utf-8"?>
<!-- Generator: Adobe Illustrator 15.0.0, SVG Export Plug-In . SVG Version: 6.00 Build 0)  -->
<!DOCTYPE svg PUBLIC "-//W3C//DTD SVG 1.0//EN" "http://www.w3.org/TR/2001/REC-SVG-20010904/DTD/svg10.dtd">
<svg version="1.0" id="Layer_1" xmlns="http://www.w3.org/2000/svg" xmlns:xlink="http://www.w3.org/1999/xlink" x="0px" y="0px"
	 width="220px" height="227px" viewBox="0 0 220 227" enable-background="new 0 0 220 227" xml:space="preserve">
<g>
	<path fill="#434343" d="M120.428,96.283H101.54c-0.269,0-0.485-0.377-0.485-0.84c0-0.468,0.217-0.845,0.485-0.845h18.888
		c0.268,0,0.484,0.377,0.484,0.845C120.912,95.906,120.695,96.283,120.428,96.283z"/>
	<path fill="#434343" d="M120.391,99.413h-18.913c-0.269,0-0.485-0.417-0.485-0.929c0-0.518,0.217-0.934,0.485-0.934h18.913
		c0.269,0,0.484,0.416,0.484,0.934C120.875,98.996,120.658,99.413,120.391,99.413z"/>
	<path fill="#434343" d="M120.457,102.406h-18.978c-0.27,0-0.487-0.402-0.487-0.896c0-0.496,0.218-0.896,0.487-0.896h18.978
		c0.27,0,0.486,0.4,0.486,0.896C120.943,102.004,120.727,102.406,120.457,102.406z"/>
	<path fill="#434343" d="M120.057,106.355h-18.145c-0.514,0-0.931-0.61-0.931-1.363c0-0.758,0.417-1.368,0.931-1.368h18.145
		c0.514,0,0.93,0.61,0.93,1.368C120.986,105.745,120.568,106.355,120.057,106.355z"/>
	<path fill="#434343" d="M122.503,111.52c-0.251,0-0.454-0.159-0.454-0.358V92.542c0-0.199,0.203-0.36,0.454-0.36
		c0.25,0,0.453,0.161,0.453,0.36v18.619C122.956,111.357,122.753,111.52,122.503,111.52z"/>
	<ellipse fill="#434343" cx="122.52" cy="112.484" rx="1.449" ry="2.017"/>
	<path fill="#434343" d="M104.476,106.355c-0.241,0-0.437-0.125-0.437-0.283V91.943c0-0.158,0.195-0.283,0.437-0.283
		c0.242,0,0.437,0.125,0.437,0.283v14.129C104.912,106.23,104.717,106.355,104.476,106.355z"/>
	<path fill="#434343" d="M111.499,106.323c-0.249,0-0.45-0.127-0.45-0.283V91.874c0-0.156,0.201-0.283,0.45-0.283
		s0.449,0.127,0.449,0.283v14.166C111.948,106.196,111.748,106.323,111.499,106.323z"/>
	<path fill="#434343" d="M118.505,106.396c-0.231,0-0.419-0.127-0.419-0.284V91.876c0-0.157,0.188-0.284,0.419-0.284
		s0.419,0.127,0.419,0.284v14.236C118.924,106.27,118.736,106.396,118.505,106.396z"/>
	<path fill="#434343" d="M124,91.532c0,1.062-0.411,1.926-0.919,1.926h-22.162c-0.508,0-0.919-0.862-0.919-1.926l0,0
		c0-1.064,0.411-1.927,0.919-1.927h22.162C123.589,89.605,124,90.468,124,91.532L124,91.532z"/>
</g>
</svg>
