<?xml version="1.0" encoding="utf-8"?>
<!-- Generator: Adobe Illustrator 15.0.0, SVG Export Plug-In . SVG Version: 6.00 Build 0)  -->
<!DOCTYPE svg PUBLIC "-//W3C//DTD SVG 1.0//EN" "http://www.w3.org/TR/2001/REC-SVG-20010904/DTD/svg10.dtd">
<svg version="1.0" id="Layer_1" xmlns="http://www.w3.org/2000/svg" xmlns:xlink="http://www.w3.org/1999/xlink" x="0px" y="0px"
	 width="220px" height="227px" viewBox="0 0 220 227" enable-background="new 0 0 220 227" xml:space="preserve">
<g>
	<path fill="#434343" d="M129,128.395c0-4.911-3.999-8.895-8.932-8.895c-4.935,0-8.934,3.98-8.934,8.895
		c0,4.912,3.999,8.896,8.934,8.896C125.001,137.289,129,133.307,129,128.395z M113.393,128.395c0-3.672,2.988-6.646,6.676-6.646
		s6.676,2.975,6.676,6.646c0,3.673-2.988,6.646-6.676,6.646S113.393,132.066,113.393,128.395z"/>
	<path fill="#434343" d="M107.898,143.407l-2.729-2.729l6.213-6.213c0,0,0.132,1.158,0.854,1.881c0.725,0.727,1.875,0.85,1.875,0.85
		L107.898,143.407z"/>
	<path fill="#434343" d="M124,128.5c0,0.553-0.443,1-0.99,1h-6.02c-0.547,0-0.99-0.447-0.99-1l0,0c0-0.553,0.443-1,0.99-1h6.02
		C123.557,127.5,124,127.947,124,128.5L124,128.5z"/>
</g>
</svg>
