<?xml version="1.0" encoding="utf-8"?>
<!-- Generator: Adobe Illustrator 15.0.0, SVG Export Plug-In . SVG Version: 6.00 Build 0)  -->
<!DOCTYPE svg PUBLIC "-//W3C//DTD SVG 1.0//EN" "http://www.w3.org/TR/2001/REC-SVG-20010904/DTD/svg10.dtd">
<svg version="1.0" id="Layer_1" xmlns="http://www.w3.org/2000/svg" xmlns:xlink="http://www.w3.org/1999/xlink" x="0px" y="0px"
	 width="52px" height="53px" viewBox="0 0 52 53" enable-background="new 0 0 52 53" xml:space="preserve">
<g>
	<g>
		<g>
			<g>
				<g>
					<path fill="#231F20" d="M31.645,41.91c-6.582,0-11.938-5.369-11.938-11.971c0-6.6,5.354-11.969,11.938-11.969
						c6.582,0,11.938,5.369,11.938,11.969C43.582,36.541,38.227,41.91,31.645,41.91z M31.55,19.826
						c-5.612,0-10.181,4.543-10.181,10.125c0,5.584,4.566,10.125,10.181,10.125S41.73,35.535,41.73,29.951
						C41.73,24.369,37.164,19.826,31.55,19.826z"/>
				</g>
			</g>
		</g>
	</g>
	<g>
		<g>
			<rect x="24.604" y="24.025" fill="#231F20" width="1" height="2.873"/>
		</g>
	</g>
	<g>
		<g>
			<rect x="26.604" y="24.025" fill="#231F20" width="1" height="2.873"/>
		</g>
	</g>
	<g>
		<g>
			<rect x="24.604" y="27.982" fill="#231F20" width="1" height="2.875"/>
		</g>
	</g>
	<g>
		<g>
			<rect x="26.604" y="27.982" fill="#231F20" width="1" height="2.875"/>
		</g>
	</g>
	<g>
		<g>
			<rect x="26.637" y="27.973" fill="#231F20" width="2.965" height="0.969"/>
		</g>
	</g>
	<g>
		<g>
			<rect x="22.688" y="25.973" fill="#231F20" width="2.873" height="0.938"/>
		</g>
	</g>
	<g>
		<g>
			<rect x="26.614" y="25.982" fill="#231F20" width="2.965" height="0.938"/>
		</g>
	</g>
	<g>
		<g>
			<rect x="22.645" y="27.951" fill="#231F20" width="2.916" height="0.938"/>
		</g>
	</g>
	<g>
		<g>
			<ellipse fill="#231F20" cx="34.598" cy="26.451" rx="1.973" ry="1.459"/>
		</g>
	</g>
	<g>
		<g>
			<path fill="#231F20" d="M41.562,25.848h-9.938c-0.552,0-1-0.42-1-0.938c0-0.52,0.448-0.939,1-0.939h9.938c0.552,0,1,0.42,1,0.939
				C42.562,25.428,42.114,25.848,41.562,25.848z"/>
		</g>
	</g>
	<g>
		<g>
			<path fill="#231F20" d="M32.602,37.91c-0.451,0-0.861-0.311-0.972-0.77c-0.128-0.537,0.204-1.078,0.741-1.205l8.042-1.918
				c0.539-0.125,1.077,0.203,1.205,0.742c0.128,0.537-0.204,1.076-0.741,1.203l-8.042,1.918C32.757,37.9,32.68,37.91,32.602,37.91z"
				/>
		</g>
	</g>
</g>
</svg>
