<?xml version="1.0" encoding="utf-8"?>
<!-- Generator: Adobe Illustrator 15.0.0, SVG Export Plug-In . SVG Version: 6.00 Build 0)  -->
<!DOCTYPE svg PUBLIC "-//W3C//DTD SVG 1.0//EN" "http://www.w3.org/TR/2001/REC-SVG-20010904/DTD/svg10.dtd">
<svg version="1.0" id="Layer_1" xmlns="http://www.w3.org/2000/svg" xmlns:xlink="http://www.w3.org/1999/xlink" x="0px" y="0px"
	 width="52px" height="53px" viewBox="0 0 52 53" enable-background="new 0 0 52 53" xml:space="preserve">
<g>
	<g>
		<g>
			<g>
				<g>
					<path fill="#231F20" d="M28.5,41.121c-6.565,0-11.906-5.355-11.906-11.938S21.935,17.245,28.5,17.245
						S40.406,22.6,40.406,29.183S35.065,41.121,28.5,41.121z M28.406,19.158c-5.599,0-10.154,4.553-10.154,10.149
						s4.555,10.148,10.154,10.148c5.599,0,10.154-4.553,10.154-10.148C38.56,23.711,34.005,19.158,28.406,19.158z"/>
				</g>
			</g>
		</g>
	</g>
	<g>
		<g>
			<ellipse fill="#231F20" cx="24.428" cy="26.234" rx="2" ry="1.969"/>
		</g>
	</g>
	<g>
		<g>
			<ellipse fill="#231F20" cx="32.428" cy="26.234" rx="2" ry="1.969"/>
		</g>
	</g>
	<g>
		<g>
			<rect x="18.428" y="23.225" fill="#231F20" width="8.917" height="2"/>
		</g>
	</g>
	<g>
		<g>
			<rect x="29.428" y="23.225" fill="#231F20" width="9.917" height="2"/>
		</g>
	</g>
	<g>
		<g>
			<path fill="#231F20" d="M28.426,34.225c-2.992,0-5.878-0.578-8.579-1.717c-0.275-0.117-0.42-0.479-0.323-0.809
				c0.098-0.328,0.398-0.498,0.676-0.385c2.587,1.092,5.354,2.034,8.226,2.034c2.901,0,5.693-0.955,8.297-2.067
				c0.273-0.119,0.578,0.053,0.677,0.383c0.099,0.328-0.044,0.69-0.32,0.809C34.36,33.635,31.449,34.225,28.426,34.225z"/>
		</g>
	</g>
	<g>
		<g>
			<rect x="25.428" y="33.652" fill="#231F20" width="2" height="2.446"/>
		</g>
	</g>
	<g>
		<g>
			<rect x="29.428" y="33.652" fill="#231F20" width="2" height="2.446"/>
		</g>
	</g>
</g>
</svg>
