<?xml version="1.0" encoding="utf-8"?>
<!-- Generator: Adobe Illustrator 15.0.0, SVG Export Plug-In . SVG Version: 6.00 Build 0)  -->
<!DOCTYPE svg PUBLIC "-//W3C//DTD SVG 1.0//EN" "http://www.w3.org/TR/2001/REC-SVG-20010904/DTD/svg10.dtd">
<svg version="1.0" id="Layer_1" xmlns="http://www.w3.org/2000/svg" xmlns:xlink="http://www.w3.org/1999/xlink" x="0px" y="0px"
	 width="52px" height="53px" viewBox="0 0 52 53" enable-background="new 0 0 52 53" xml:space="preserve">
<g>
	<g>
		<g>
			<path fill="#414042" d="M22.98,14.321c0.001,0,0.002,0,0.003,0l8.027,0.022c0.475,0.002,0.883,0.338,0.975,0.804l1.625,8.215
				l4.053-0.021c0.002,0,0.003,0,0.005,0c0.276,0,0.542,0.117,0.731,0.32c0.351,0.377,0.543,0.866,0.543,1.375
				c0,0.579-0.25,1.135-0.689,1.52l-9.762,9.167c-0.818,0.722-2.04,0.695-2.815,0.019l-9.951-9.197
				c-0.385-0.336-0.635-0.852-0.664-1.4c-0.029-0.547,0.166-1.088,0.533-1.481c0.188-0.203,0.451-0.318,0.726-0.318l4.118-0.017
				l1.564-8.196C22.091,14.661,22.502,14.321,22.98,14.321z M30.243,16.155l-6.407-0.021l-1.568,8.269
				c-0.09,0.475-0.5,0.815-0.979,0.817L17.4,25.235l9.681,9.032l9.636-9.022l-3.855,0.018c-0.002,0-0.002,0-0.004,0
				c-0.479,0-0.889-0.34-0.981-0.811L30.243,16.155z"/>
		</g>
	</g>
</g>
</svg>
