<?xml version="1.0" encoding="utf-8"?>
<!-- Generator: Adobe Illustrator 15.0.0, SVG Export Plug-In . SVG Version: 6.00 Build 0)  -->
<!DOCTYPE svg PUBLIC "-//W3C//DTD SVG 1.0//EN" "http://www.w3.org/TR/2001/REC-SVG-20010904/DTD/svg10.dtd">
<svg version="1.0" id="Layer_1" xmlns="http://www.w3.org/2000/svg" xmlns:xlink="http://www.w3.org/1999/xlink" x="0px" y="0px"
	 width="52px" height="53px" viewBox="0 0 52 53" enable-background="new 0 0 52 53" xml:space="preserve">
<g>
	<path fill="#434343" d="M33,42.195c-0.338,0-0.652-0.17-0.837-0.453L27.107,37l-5.281,4.76c-0.186,0.271-0.496,0.438-0.827,0.438
		c-1.653,0-3-1.354-3-3.02V21.275C18,19.611,19.346,18.257,21,18.257h12c1.654,0,2.875,1.354,2.875,3.018v17.902
		C35.875,40.842,34.654,42.195,33,42.195z M21,20.257c-0.551,0-1,0.457-1,1.018v17.902c0,0.395,0.223,0.738,0.546,0.906l5.751-5.451
		c0.188-0.273,0.496-0.438,0.827-0.438c0.003,0,0.007,0,0.01,0c0.334,0.004,0.646,0.174,0.827,0.453l5.503,5.43
		c0.318-0.17,0.535-0.51,0.535-0.899V21.275C34,20.714,33.552,20.257,33,20.257H21z"/>
</g>
</svg>
