<?xml version="1.0" encoding="utf-8"?>
<!-- Generator: Adobe Illustrator 15.0.0, SVG Export Plug-In . SVG Version: 6.00 Build 0)  -->
<!DOCTYPE svg PUBLIC "-//W3C//DTD SVG 1.0//EN" "http://www.w3.org/TR/2001/REC-SVG-20010904/DTD/svg10.dtd">
<svg version="1.0" id="Layer_1" xmlns="http://www.w3.org/2000/svg" xmlns:xlink="http://www.w3.org/1999/xlink" x="0px" y="0px"
	 width="52px" height="53px" viewBox="0 0 52 53" enable-background="new 0 0 52 53" xml:space="preserve">
<g>
	<g>
		<path fill="#414042" d="M22.531,36.5c-6.6,0-11.969-5.37-11.969-11.97c0-6.599,5.369-11.967,11.969-11.967S34.5,17.932,34.5,24.53
			C34.5,31.13,29.131,36.5,22.531,36.5z M22.531,14.37c-5.604,0-10.162,4.559-10.162,10.16c0,5.604,4.559,10.162,10.162,10.162
			c5.603,0,10.162-4.558,10.162-10.162C32.693,18.929,28.135,14.37,22.531,14.37z"/>
	</g>
	<path fill="#414042" d="M27.5,24.562c0,0.534-0.463,0.969-1.036,0.969H18.6c-0.574,0-1.037-0.435-1.037-0.969l0,0
		c0-0.534,0.463-0.969,1.037-0.969h7.864C27.037,23.594,27.5,24.028,27.5,24.562L27.5,24.562z"/>
</g>
</svg>
