<?xml version="1.0" encoding="utf-8"?>
<!-- Generator: Adobe Illustrator 15.0.0, SVG Export Plug-In . SVG Version: 6.00 Build 0)  -->
<!DOCTYPE svg PUBLIC "-//W3C//DTD SVG 1.0//EN" "http://www.w3.org/TR/2001/REC-SVG-20010904/DTD/svg10.dtd">
<svg version="1.0" id="Layer_1" xmlns="http://www.w3.org/2000/svg" xmlns:xlink="http://www.w3.org/1999/xlink" x="0px" y="0px"
	 width="52px" height="53px" viewBox="0 0 52 53" enable-background="new 0 0 52 53" xml:space="preserve">
<g>
	<g>
		<path fill="#414042" d="M28.5,33.5h-12c-1.654,0-3-1.346-3-3v-7c-0.003,0.021-0.066,0.008-0.104-0.002
			C11.79,23.443,10.5,22.119,10.5,20.5c0-1.654,1.346-3,3-3h18c1.654,0,3,1.346,3,3c0,1.619-1.29,2.943-2.896,2.998
			c-0.049,0.016-0.116,0.044-0.139,0.064L31.5,30.5C31.5,32.154,30.154,33.5,28.5,33.5z M13.5,19.5c-0.551,0-1,0.449-1,1
			s0.449,1,1,1l0.132,0.009c0.9,0.12,1.868,0.794,1.868,1.991v7c0,0.551,0.449,1,1,1h12c0.552,0,1-0.449,1-1v-7
			c0-1.197,0.969-1.871,1.868-1.991L31.5,21.5c0.552,0,1-0.449,1-1s-0.448-1-1-1H13.5z"/>
	</g>
	<g>
		<path fill="#414042" d="M18.5,29.5c-0.552,0-1-0.447-1-1v-4c0-0.553,0.448-1,1-1s1,0.447,1,1v4C19.5,29.053,19.052,29.5,18.5,29.5
			z"/>
	</g>
	<g>
		<path fill="#414042" d="M22.5,29.5c-0.553,0-1-0.447-1-1v-4c0-0.553,0.447-1,1-1s1,0.447,1,1v4C23.5,29.053,23.053,29.5,22.5,29.5
			z"/>
	</g>
	<g>
		<path fill="#414042" d="M26.5,29.5c-0.553,0-1-0.447-1-1v-4c0-0.553,0.447-1,1-1s1,0.447,1,1v4C27.5,29.053,27.053,29.5,26.5,29.5
			z"/>
	</g>
	<g>
		<path fill="#414042" d="M17.501,21.5c-0.347,0-0.685-0.182-0.869-0.504l-4-7c-0.274-0.479-0.107-1.09,0.372-1.364
			s1.09-0.106,1.364,0.372l4,7c0.274,0.479,0.107,1.09-0.372,1.364C17.84,21.457,17.669,21.5,17.501,21.5z"/>
	</g>
	<g>
		<path fill="#414042" d="M27.499,21.5c-0.168,0-0.339-0.043-0.495-0.132c-0.479-0.274-0.646-0.886-0.372-1.364l4-7
			c0.273-0.48,0.885-0.646,1.364-0.372s0.646,0.886,0.372,1.364l-4,7C28.184,21.318,27.847,21.5,27.499,21.5z"/>
	</g>
</g>
</svg>
