<?xml version="1.0" encoding="utf-8"?>
<!-- Generator: Adobe Illustrator 15.0.0, SVG Export Plug-In . SVG Version: 6.00 Build 0)  -->
<!DOCTYPE svg PUBLIC "-//W3C//DTD SVG 1.0//EN" "http://www.w3.org/TR/2001/REC-SVG-20010904/DTD/svg10.dtd">
<svg version="1.0" id="Layer_1" xmlns="http://www.w3.org/2000/svg" xmlns:xlink="http://www.w3.org/1999/xlink" x="0px" y="0px"
	 width="52px" height="53px" viewBox="0 0 52 53" enable-background="new 0 0 52 53" xml:space="preserve">
<g>
	<g>
		<g>
			<path fill="#434343" d="M20.651,35.217c-0.257,0-0.512-0.101-0.704-0.291c-0.327-0.324-0.389-0.832-0.151-1.228l2.047-3.394
				c-5.099-1.08-8.779-4.696-8.779-8.855c0-5.069,5.36-9.192,11.95-9.192c6.589,0,11.951,4.123,11.951,9.192
				c0,3.789-2.938,7.124-7.492,8.525l-8.301,5.095C21.011,35.168,20.83,35.217,20.651,35.217z M25.014,14.257
				c-5.488,0-9.953,3.227-9.953,7.192c0,3.536,3.658,6.592,8.51,7.105c0.339,0.037,0.637,0.244,0.788,0.552
				c0.152,0.308,0.138,0.668-0.04,0.961l-0.693,1.149l4.914-3.015c0.074-0.046,0.153-0.081,0.235-0.104
				c3.764-1.121,6.193-3.73,6.193-6.648C34.969,17.484,30.502,14.257,25.014,14.257z"/>
		</g>
	</g>
	<g>
		<path fill="#434343" d="M30.959,21.226H20.97c-0.555,0-1.005-0.434-1.005-0.969s0.45-0.969,1.005-0.969h9.989
			c0.555,0,1.005,0.434,1.005,0.969S31.516,21.226,30.959,21.226z"/>
	</g>
	<g>
		<path fill="#434343" d="M27.956,24.257h-6.967c-0.557,0-1.009-0.447-1.009-1s0.452-1,1.009-1h6.967c0.558,0,1.009,0.447,1.009,1
			S28.514,24.257,27.956,24.257z"/>
	</g>
</g>
</svg>
