<?xml version="1.0" encoding="utf-8"?>
<!-- Generator: Adobe Illustrator 15.0.0, SVG Export Plug-In . SVG Version: 6.00 Build 0)  -->
<!DOCTYPE svg PUBLIC "-//W3C//DTD SVG 1.0//EN" "http://www.w3.org/TR/2001/REC-SVG-20010904/DTD/svg10.dtd">
<svg version="1.0" id="Layer_1" xmlns="http://www.w3.org/2000/svg" xmlns:xlink="http://www.w3.org/1999/xlink" x="0px" y="0px"
	 width="52px" height="53px" viewBox="0 0 52 53" enable-background="new 0 0 52 53" xml:space="preserve">
<g>
	<g>
		<path fill="#434343" d="M36.765,25.607H14.236c-0.405,0-0.735,0.424-0.735,0.944c0,0.523,0.33,0.947,0.735,0.947h22.529
			c0.405,0,0.735-0.424,0.735-0.947C37.5,26.031,37.17,25.607,36.765,25.607z"/>
		<g>
			<path fill="#434343" d="M34.499,24.467H16.521c-0.552,0-1-0.447-1-1c0-5.512,4.481-9.996,9.988-9.996
				c5.626,0,9.989,5.374,9.989,9.996C35.499,24.02,35.052,24.467,34.499,24.467z M17.396,22.551h16.205
				c-0.581-3.459-3.971-7.162-8.091-7.162C21.347,15.389,17.901,18.518,17.396,22.551z"/>
		</g>
	</g>
	<ellipse fill="#434343" cx="25.506" cy="13.006" rx="0.961" ry="1.465"/>
</g>
</svg>
