<?xml version="1.0" encoding="utf-8"?>
<!-- Generator: Adobe Illustrator 15.0.0, SVG Export Plug-In . SVG Version: 6.00 Build 0)  -->
<!DOCTYPE svg PUBLIC "-//W3C//DTD SVG 1.0//EN" "http://www.w3.org/TR/2001/REC-SVG-20010904/DTD/svg10.dtd">
<svg version="1.0" id="Layer_1" xmlns="http://www.w3.org/2000/svg" xmlns:xlink="http://www.w3.org/1999/xlink" x="0px" y="0px"
	 width="52px" height="53px" viewBox="0 0 52 53" enable-background="new 0 0 52 53" xml:space="preserve">
<g>
	<g>
		<path fill="#434343" d="M32.928,36.375h-10.93c-1.93,0-3.498-1.562-3.498-3.486V21.996c0-1.924,1.568-3.486,3.498-3.486h10.93
			c1.93,0,3.498,1.562,3.498,3.486v10.893C36.426,34.812,34.855,36.375,32.928,36.375z M22.012,20.385
			c-0.834,0-1.512,0.686-1.512,1.529v11.15c0,0.844,0.678,1.528,1.512,1.528h11.027c0.834,0,1.512-0.686,1.512-1.528v-11.15
			c0-0.844-0.678-1.529-1.512-1.529H22.012z"/>
	</g>
	<g>
		<path fill="#434343" d="M38.966,30.344h-1.403v-1.889h1.403c0.829,0,1.597-0.678,1.597-1.512v-11.01
			c0-0.834-0.768-1.513-1.597-1.513h-10.95c-0.828,0-1.608,0.679-1.608,1.513v1.342h-1.896v-1.342c0-1.941,1.571-3.435,3.504-3.435
			h10.95c1.933,0,3.503,1.492,3.503,3.435v11.01C42.469,28.885,40.896,30.344,38.966,30.344z"/>
	</g>
</g>
</svg>
