<?xml version="1.0" encoding="utf-8"?>
<!-- Generator: Adobe Illustrator 15.0.0, SVG Export Plug-In . SVG Version: 6.00 Build 0)  -->
<!DOCTYPE svg PUBLIC "-//W3C//DTD SVG 1.0//EN" "http://www.w3.org/TR/2001/REC-SVG-20010904/DTD/svg10.dtd">
<svg version="1.0" id="Layer_1" xmlns="http://www.w3.org/2000/svg" xmlns:xlink="http://www.w3.org/1999/xlink" x="0px" y="0px"
	 width="52px" height="53px" viewBox="0 0 52 53" enable-background="new 0 0 52 53" xml:space="preserve">
<path fill="#434343" d="M22.457,20.521v-1.054h3.031v-0.94h-3.031v-0.965h-0.906c-0.005-0.027-0.022-0.051-0.025-0.078
	c0.06-0.584,0.616-1.043,1.291-1.043h2.672V15.5h-2.672c-1.188,0-2.168,0.826-2.285,1.879L20.525,17.5h-2.609
	c-1.51,0.064-4.354,1.002-4.385,4.078l-1.011,9.828h2.938l-0.927-9.824c0.033-2.887,3.289-3.076,3.406-3.082h2.583v2.025
	c-2.27,0.176-3.987,1.477-3.987,3.123v12.924c0,1.724,1.851,2.928,4.502,2.928h0.945c2.65,0,4.501-1.204,4.501-2.928V23.648
	C26.48,21.992,24.744,20.688,22.457,20.521z M24.543,36.684c0,0.394-0.971,0.941-2.554,0.941h-0.965
	c-1.583,0-2.555-0.549-2.555-0.941v-13.11c0-0.47,1.02-1.177,2.555-1.177h0.965c1.535,0,2.554,0.707,2.554,1.177V36.684z"/>
</svg>
