<?xml version="1.0" encoding="utf-8"?>
<!-- Generator: Adobe Illustrator 15.0.0, SVG Export Plug-In . SVG Version: 6.00 Build 0)  -->
<!DOCTYPE svg PUBLIC "-//W3C//DTD SVG 1.0//EN" "http://www.w3.org/TR/2001/REC-SVG-20010904/DTD/svg10.dtd">
<svg version="1.0" id="Layer_1" xmlns="http://www.w3.org/2000/svg" xmlns:xlink="http://www.w3.org/1999/xlink" x="0px" y="0px"
	 width="52px" height="53px" viewBox="0 0 52 53" enable-background="new 0 0 52 53" xml:space="preserve">
<g>
	<g>
		<path fill="#434343" d="M30.07,34.258c-0.262,0-0.514-0.102-0.7-0.285l-3.345-3.277l-3.266,3.25
			c-0.203,0.203-0.484,0.311-0.771,0.289c-0.287-0.02-0.551-0.16-0.727-0.387L18.9,30.789l-3.186,3.102
			c-0.289,0.281-0.717,0.359-1.086,0.205c-0.371-0.156-0.611-0.52-0.611-0.922V22.166c0-6.511,5.375-11.806,11.982-11.806
			c6.606,0,11.981,5.295,11.981,11.806v11.008c0,0.404-0.242,0.77-0.616,0.924c-0.373,0.154-0.804,0.07-1.091-0.217l-3.092-3.092
			l-2.313,3.07c-0.175,0.229-0.438,0.373-0.724,0.395C30.12,34.256,30.096,34.258,30.07,34.258z M26.021,28.318
			c0.254,0,0.51,0.098,0.703,0.289l3.258,3.201l2.334-3.109c0.177-0.23,0.443-0.379,0.733-0.396
			c0.279-0.021,0.574,0.086,0.781,0.293l2.213,2.221v-8.678c0-5.459-4.506-9.899-10.045-9.899c-5.538,0-10.044,4.44-10.044,9.899
			v8.723l2.307-2.252c0.206-0.201,0.486-0.303,0.773-0.285c0.286,0.02,0.549,0.162,0.725,0.391l2.369,3.08l3.184-3.18
			C25.507,28.416,25.766,28.318,26.021,28.318z"/>
	</g>
	<ellipse fill="#434343" cx="21" cy="21.299" rx="2" ry="1.959"/>
	<ellipse fill="#434343" cx="31" cy="21.299" rx="2" ry="1.959"/>
</g>
</svg>
