<?xml version="1.0" encoding="utf-8"?>
<!-- Generator: Adobe Illustrator 15.0.0, SVG Export Plug-In . SVG Version: 6.00 Build 0)  -->
<!DOCTYPE svg PUBLIC "-//W3C//DTD SVG 1.1//EN" "http://www.w3.org/Graphics/SVG/1.1/DTD/svg11.dtd">
<svg version="1.1" id="Layer_1" xmlns="http://www.w3.org/2000/svg" xmlns:xlink="http://www.w3.org/1999/xlink" x="0px" y="0px"
	 width="52px" height="53px" viewBox="0 0 52 53" enable-background="new 0 0 52 53" xml:space="preserve">
<g>
	<g>
		<path fill="#444444" d="M26.889,33.037c-6.75,0-12.242-5.365-12.242-11.958c0-6.594,5.492-11.958,12.242-11.958
			c2.699,0,5.266,0.852,7.422,2.462c0.215,0.161,0.355,0.401,0.393,0.669c0.035,0.266-0.037,0.536-0.203,0.748l-5.937,7.598
			l9.306,2.938c0.256,0.082,0.469,0.262,0.592,0.502c0.121,0.237,0.142,0.516,0.057,0.771C36.861,29.73,32.188,33.037,26.889,33.037
			z M26.889,11.121c-5.647,0-10.242,4.467-10.242,9.958c0,5.492,4.595,9.958,10.242,9.958c4.089,0,7.729-2.34,9.357-5.916
			l-9.658-3.051c-0.312-0.099-0.559-0.345-0.654-0.656c-0.096-0.312-0.035-0.654,0.167-0.912l6.164-7.889
			C30.647,11.635,28.808,11.121,26.889,11.121z"/>
	</g>
	<circle fill="#444444" cx="24.621" cy="14.996" r="1.917"/>
</g>
</svg>
