<?xml version="1.0" encoding="utf-8"?>
<!-- Generator: Adobe Illustrator 15.0.0, SVG Export Plug-In . SVG Version: 6.00 Build 0)  -->
<!DOCTYPE svg PUBLIC "-//W3C//DTD SVG 1.0//EN" "http://www.w3.org/TR/2001/REC-SVG-20010904/DTD/svg10.dtd">
<svg version="1.0" id="Layer_1" xmlns="http://www.w3.org/2000/svg" xmlns:xlink="http://www.w3.org/1999/xlink" x="0px" y="0px"
	 width="52px" height="53px" viewBox="0 0 52 53" enable-background="new 0 0 52 53" xml:space="preserve">
<g>
	<g>
		<path fill="#434343" d="M18,21.258h4c1.104,0,2,0.896,2,2v9h2c0.553,0,1,0.447,1,1v2c0,1.104-0.896,2-2,2h-8c-1.104,0-2-0.896-2-2
			v-2c0-0.553,0.447-1,1-1h2v-6h-1c-0.553,0-1-0.447-1-1v-2C16,22.153,16.896,21.258,18,21.258z M19,24.258c0.553,0,1,0.447,1,1v8
			c0,0.553-0.447,1-1,1h-2v1h8v-1h-2c-0.553,0-1-0.447-1-1v-10l-4-0.002v1.002H19z"/>
	</g>
	<g>
		<path fill="#434343" d="M20.477,20.258c-1.916,0-3.477-1.57-3.477-3.5c0-1.931,1.561-3.5,3.477-3.5c1.918,0,3.478,1.569,3.478,3.5
			C23.954,18.688,22.395,20.258,20.477,20.258z M20.5,14.693c-1.129,0-2.047,0.926-2.047,2.064c0,1.138,0.918,2.063,2.047,2.063
			s2.047-0.926,2.047-2.063C22.547,15.619,21.629,14.693,20.5,14.693z"/>
	</g>
</g>
</svg>
