<?xml version="1.0" encoding="utf-8"?>
<!-- Generator: Adobe Illustrator 15.0.0, SVG Export Plug-In . SVG Version: 6.00 Build 0)  -->
<!DOCTYPE svg PUBLIC "-//W3C//DTD SVG 1.0//EN" "http://www.w3.org/TR/2001/REC-SVG-20010904/DTD/svg10.dtd">
<svg version="1.0" id="Layer_1" xmlns="http://www.w3.org/2000/svg" xmlns:xlink="http://www.w3.org/1999/xlink" x="0px" y="0px"
	 width="52px" height="53px" viewBox="0 0 52 53" enable-background="new 0 0 52 53" xml:space="preserve">
<g>
	<path fill="#434343" d="M31.025,38.258c-1.659,0-2.959-1.322-2.959-3.012V33.23h-2.588c-1.119,0-2.427-0.771-2.427-2.941
		c0-2.094,1.22-3.031,2.427-3.031h2.539l-6.316-8.104c-0.495-0.605-0.73-1.391-0.649-2.189s0.47-1.52,1.093-2.027
		c0.537-0.438,1.213-0.68,1.904-0.68c0.909,0,1.76,0.402,2.335,1.105l4.61,6.021l4.641-6.006c1.051-1.275,3.022-1.455,4.26-0.438
		c0.621,0.512,1.006,1.23,1.086,2.031c0.078,0.803-0.16,1.584-0.672,2.205l-6.277,8.08h2.545c1.208,0,2.427,0.938,2.427,3.031
		c0,2.172-1.308,2.941-2.427,2.941h-2.545v2.016C34.031,36.906,32.684,38.258,31.025,38.258z M25.479,29.195
		c-0.414,0-0.678,0.619-0.678,1.047c0,0.43,0.203,1.078,0.678,1.078h4.517v3.926c0,0.568,0.493,1.014,1.03,1.014
		c0.556,0,1.072-0.453,1.072-1.014V31.32h4.479c0.429,0,0.679-0.357,0.679-1.094c0-0.734-0.271-1.031-0.679-1.031h-4.479v-2.66
		l6.649-8.604c0.188-0.229,0.269-0.49,0.241-0.76c-0.026-0.271-0.156-0.514-0.365-0.684c-0.23-0.189-0.477-0.229-0.643-0.229
		c-0.306,0-0.59,0.135-0.783,0.369l-6.213,8.041l-6.17-8.062c-0.174-0.213-0.461-0.348-0.769-0.348
		c-0.165,0-0.407,0.039-0.642,0.229c-0.209,0.17-0.34,0.412-0.365,0.68c-0.025,0.271,0.052,0.531,0.223,0.74l6.729,8.727v2.562
		h-4.515v-0.002H25.479z"/>
</g>
</svg>
