<?xml version="1.0" encoding="utf-8"?>
<!-- Generator: Adobe Illustrator 15.0.0, SVG Export Plug-In . SVG Version: 6.00 Build 0)  -->
<!DOCTYPE svg PUBLIC "-//W3C//DTD SVG 1.0//EN" "http://www.w3.org/TR/2001/REC-SVG-20010904/DTD/svg10.dtd">
<svg version="1.0" id="Layer_1" xmlns="http://www.w3.org/2000/svg" xmlns:xlink="http://www.w3.org/1999/xlink" x="0px" y="0px"
	 width="52px" height="53px" viewBox="0 0 52 53" enable-background="new 0 0 52 53" xml:space="preserve">
<g>
	<g>
		<path fill="#414042" d="M22.593,16.668l-0.198,0.198c-3.035,3.035-3.162,7.849-0.283,10.728l6.587,6.584
			c2.879,2.881,7.69,2.754,10.728-0.281l0.199-0.199c3.034-3.035,3.161-7.848,0.281-10.727l-6.586-6.584
			C30.439,13.506,25.628,13.633,22.593,16.668z M23.738,18.217l0.205-0.205c2.326-2.326,5.937-2.502,8.047-0.394l0.369,0.371
			c-0.305,0.781-0.688,1.563-1.166,2.33c-1.287,2.049-3.18,3.942-5.229,5.235c-0.728,0.457-1.469,0.82-2.209,1.119l-0.411-0.412
			C21.234,24.153,21.411,20.545,23.738,18.217z M38.212,32.278l-0.206,0.205c-2.326,2.328-5.938,2.504-8.046,0.396l-4.733-4.732
			c0.59-0.277,1.178-0.586,1.752-0.947c1.149-0.725,2.239-1.6,3.242-2.604c1.01-1.01,1.894-2.109,2.616-3.264
			c0.386-0.615,0.706-1.242,0.995-1.871l4.773,4.772C40.715,26.344,40.538,29.952,38.212,32.278z"/>
		<path fill="#414042" d="M27.348,21.635c0.394-0.392,0.393-1.023,0-1.414l-1.324-1.324c-0.392-0.393-1.022-0.393-1.414,0
			c-0.393,0.391-0.392,1.021,0,1.412l1.324,1.326C26.324,22.025,26.957,22.027,27.348,21.635z"/>
	</g>
	<g>
		<path fill="#414042" d="M22.995,18.262c-0.052,0-0.104-0.004-0.157-0.014c-1.667-0.275-4.818-1.669-4.818-4.955
			c0-0.535,0.433-0.97,0.963-0.97c0.531,0,0.963,0.435,0.963,0.97c0,2.481,3.176,3.037,3.207,3.043
			c0.523,0.086,0.881,0.586,0.793,1.112C23.866,17.924,23.458,18.262,22.995,18.262z"/>
	</g>
</g>
</svg>
