<?xml version="1.0" encoding="utf-8"?>
<!-- Generator: Adobe Illustrator 15.0.0, SVG Export Plug-In . SVG Version: 6.00 Build 0)  -->
<!DOCTYPE svg PUBLIC "-//W3C//DTD SVG 1.0//EN" "http://www.w3.org/TR/2001/REC-SVG-20010904/DTD/svg10.dtd">
<svg version="1.0" id="Layer_1" xmlns="http://www.w3.org/2000/svg" xmlns:xlink="http://www.w3.org/1999/xlink" x="0px" y="0px"
	 width="52px" height="53px" viewBox="0 0 52 53" enable-background="new 0 0 52 53" xml:space="preserve">
<g>
	<g>
		<path fill="#414042" d="M39.305,38.258c-0.021,0-0.039,0-0.06-0.002c-11.267-0.662-12.086-1.482-12.356-1.754
			c-0.068-0.068-0.129-0.148-0.176-0.236l-3.398-6.287c-1.098-1.225-1.039-3.135,0.158-4.336l4.869-4.881
			c1.158-1.164,3.137-1.229,4.322-0.158l6.271,3.406c0.088,0.047,0.166,0.106,0.234,0.178c0.27,0.27,1.088,1.09,1.795,12.338
			c0.02,0.295-0.09,0.582-0.298,0.791l-0.642,0.643C39.835,38.15,39.576,38.258,39.305,38.258z M28.366,35.02
			c1.149,0.393,6.127,0.889,10.528,1.16c-0.291-4.396-0.807-9.363-1.199-10.512l-6.125-3.326c-0.086-0.049-0.166-0.105-0.235-0.178
			c-0.397-0.4-1.119-0.38-1.547,0.047l-4.868,4.881c-0.439,0.44-0.462,1.141-0.048,1.555c0.069,0.068,0.129,0.148,0.176,0.236
			L28.366,35.02z"/>
	</g>
	
		<rect x="35.855" y="29.42" transform="matrix(0.7071 -0.7071 0.7071 0.7071 -13.1406 35.5532)" fill="#414042" width="0.983" height="8.438"/>
	<circle fill="#414042" cx="32.965" cy="30.258" r="1.92"/>
	<g>
		<path fill="#414042" d="M21.417,25.239c-1.175,0-2.449-1.187-2.812-1.551c-1.515-1.519-1.959-3.029-1.14-3.854l5.083-5.096
			c0.186-0.188,0.516-0.408,1.031-0.408c1.175,0,2.447,1.186,2.812,1.549c1.514,1.519,1.961,3.029,1.139,3.854l-5.083,5.099
			C22.264,25.018,21.934,25.239,21.417,25.239z M19.111,21.025c0.104,0.256,0.382,0.721,0.908,1.248
			c0.525,0.527,0.988,0.807,1.244,0.91l4.625-4.637c-0.105-0.256-0.385-0.72-0.91-1.248c-0.525-0.525-0.988-0.808-1.244-0.912
			L19.111,21.025z"/>
	</g>
</g>
</svg>
