<?xml version="1.0" encoding="utf-8"?>
<!-- Generator: Adobe Illustrator 15.0.0, SVG Export Plug-In . SVG Version: 6.00 Build 0)  -->
<!DOCTYPE svg PUBLIC "-//W3C//DTD SVG 1.0//EN" "http://www.w3.org/TR/2001/REC-SVG-20010904/DTD/svg10.dtd">
<svg version="1.0" id="Layer_1" xmlns="http://www.w3.org/2000/svg" xmlns:xlink="http://www.w3.org/1999/xlink" x="0px" y="0px"
	 width="52px" height="53px" viewBox="0 0 52 53" enable-background="new 0 0 52 53" xml:space="preserve">
<g>
	<g>
		<path fill="#414042" d="M29,39.258h-7c-1.654,0-3-1.346-3-3v-18c0-1.654,1.346-3,3-3h7c1.654,0,2.906,1.346,2.906,3v18
			C31.906,37.912,30.654,39.258,29,39.258z M22,17.258c-0.551,0-1,0.449-1,1v18c0,0.551,0.449,1,1,1h7c0.552,0,1-0.449,1-1v-18
			c0-0.551-0.448-1-1-1H22z"/>
	</g>
	<rect x="19" y="20.258" fill="#414042" width="5" height="2"/>
	<rect x="20" y="24.258" fill="#414042" width="5" height="2"/>
	<rect x="19" y="28.258" fill="#414042" width="5" height="2"/>
	<rect x="20" y="32.258" fill="#414042" width="5" height="2"/>
</g>
</svg>
