<?xml version="1.0" encoding="utf-8"?>
<!-- Generator: Adobe Illustrator 15.0.0, SVG Export Plug-In . SVG Version: 6.00 Build 0)  -->
<!DOCTYPE svg PUBLIC "-//W3C//DTD SVG 1.0//EN" "http://www.w3.org/TR/2001/REC-SVG-20010904/DTD/svg10.dtd">
<svg version="1.0" id="Layer_1" xmlns="http://www.w3.org/2000/svg" xmlns:xlink="http://www.w3.org/1999/xlink" x="0px" y="0px"
	 width="52px" height="53px" viewBox="0 0 52 53" enable-background="new 0 0 52 53" xml:space="preserve">
<g>
	<g>
		<path fill="#434343" d="M27.986,34.258c-1.266,0-2.166-0.334-2.77-0.816c-0.49,0.418-1.131,0.701-1.849,0.783
			c-0.058,0.006-0.203,0.012-0.374,0.012l-0.539-0.004c-1.408-0.049-2.557-1.059-2.75-2.398c-0.031-0.127-0.051-0.301-0.051-0.471
			c-0.023-0.428-0.25-1.85-0.46-2.176c-0.146-0.227-0.307-0.469-0.476-0.721c-1.131-1.693-2.681-4.012-2.681-6.607
			c0-5.611,5.593-10.537,11.97-10.537c6.376,0,11.97,4.926,11.97,10.537c0,2.904-1.861,5.506-3.094,7.229l-0.113,0.158
			c-0.205,0.309-0.422,1.672-0.445,2.121c0.002,0.023,0.003,0.051,0.003,0.074c0,1.445-1.164,2.668-2.649,2.779l-0.627,0.008
			c-0.154,0-0.279-0.006-0.311-0.008c-0.764-0.059-1.449-0.342-1.973-0.773C30.164,33.93,29.259,34.258,27.986,34.258z
			 M25.206,30.564c0.004,0,0.008,0,0.012,0c0.507,0.006,0.929,0.393,0.979,0.895c0.051,0.492,0.753,0.812,1.789,0.812
			c1.022,0,1.725-0.309,1.787-0.787c0.064-0.486,0.478-0.854,0.971-0.861c0.471,0.008,0.919,0.344,1.001,0.824
			c0.069,0.408,0.562,0.75,1.147,0.795l0.703-0.002c0.352-0.027,0.678-0.324,0.73-0.691c-0.008-0.059-0.01-0.115-0.006-0.174
			c0.004-0.037,0.013-0.107,0.02-0.148c0.041-0.491,0.23-2.321,0.807-3.129l0.114-0.159c1.149-1.606,2.724-3.808,2.724-6.078
			c0-4.476-4.756-8.55-9.977-8.55c-5.222,0-9.977,4.074-9.977,8.55c0,1.998,1.302,3.942,2.347,5.51
			c0.176,0.263,0.344,0.515,0.496,0.75c0.618,0.964,0.773,3.228,0.773,3.246s0.003,0.052,0.018,0.117
			c0.068,0.459,0.417,0.752,0.841,0.767l0.488,0.004l0.184-0.002c0.534-0.062,0.987-0.404,1.039-0.812
			C24.279,30.938,24.704,30.564,25.206,30.564z"/>
	</g>
	<ellipse fill="#434343" cx="23.525" cy="20.811" rx="2.479" ry="2.447"/>
	<path fill="#434343" d="M28.021,27.039c-1.09,0-1.975,0.586-1.975-0.234c0-0.816,0.885-2.504,1.975-2.504s1.973,1.688,1.973,2.504
		C29.994,27.625,29.111,27.039,28.021,27.039z"/>
	<ellipse fill="#434343" cx="32.495" cy="20.796" rx="2.472" ry="2.413"/>
</g>
</svg>
