<?xml version="1.0" encoding="utf-8"?>
<!-- Generator: Adobe Illustrator 15.0.0, SVG Export Plug-In . SVG Version: 6.00 Build 0)  -->
<!DOCTYPE svg PUBLIC "-//W3C//DTD SVG 1.0//EN" "http://www.w3.org/TR/2001/REC-SVG-20010904/DTD/svg10.dtd">
<svg version="1.0" id="Layer_1" xmlns="http://www.w3.org/2000/svg" xmlns:xlink="http://www.w3.org/1999/xlink" x="0px" y="0px"
	 width="52px" height="53px" viewBox="0 0 52 53" enable-background="new 0 0 52 53" xml:space="preserve">
<g>
	<g>
		<path fill="#414042" d="M33.939,36.217H15.977c-1.642,0-2.977-1.365-2.977-3.043V21.301c0-1.678,1.335-3.043,2.977-3.043h17.962
			c1.642,0,2.978,1.365,2.978,3.043v11.873C36.917,34.852,35.581,36.217,33.939,36.217z M15.904,20.133
			c-0.55,0-0.998,0.475-0.998,1.059v12.062c0,0.584,0.447,1.061,0.998,1.061h18.141c0.55,0,0.997-0.477,0.997-1.061V21.191
			c0-0.584-0.447-1.059-0.997-1.059H15.904z"/>
	</g>
	<g>
		<path fill="#414042" d="M28.917,17.195h-1.911c0-0.492-0.438-1.025-0.977-1.025h-2.164c-0.539,0-0.978,0.533-0.978,1.025h-1.888
			c0-1.619,1.322-2.938,2.946-2.938h2.025C27.594,14.258,28.917,15.575,28.917,17.195z"/>
	</g>
	<g>
		<rect x="23.99" y="23.299" fill="#414042" width="1.938" height="7.918"/>
		<polyline fill="#414042" points="21,26.289 28.918,26.289 28.918,28.227 21,28.227 		"/>
	</g>
</g>
</svg>
