<?xml version="1.0" encoding="utf-8"?>
<!-- Generator: Adobe Illustrator 15.0.0, SVG Export Plug-In . SVG Version: 6.00 Build 0)  -->
<!DOCTYPE svg PUBLIC "-//W3C//DTD SVG 1.0//EN" "http://www.w3.org/TR/2001/REC-SVG-20010904/DTD/svg10.dtd">
<svg version="1.0" id="Layer_1" xmlns="http://www.w3.org/2000/svg" xmlns:xlink="http://www.w3.org/1999/xlink" x="0px" y="0px"
	 width="52px" height="53px" viewBox="0 0 52 53" enable-background="new 0 0 52 53" xml:space="preserve">
<g>
	<g>
		<path fill="#434343" d="M40,27.205H18.008c-0.552,0-1-0.445-1-0.994c0-6.578,7.125-9.947,12.032-9.947
			c0.101,0,0.198,0.016,0.29,0.041c5.553,0,11.67,3.912,11.67,9.906C41,26.76,40.553,27.205,40,27.205z M19.118,25.268h19.772
			c-1-4.553-5.695-6.99-9.949-6.99c-0.021,0-0.045-0.002-0.065-0.002C24.695,18.275,20.08,20.859,19.118,25.268z"/>
	</g>
	<rect x="17.008" y="25.486" fill="#434343" width="1.958" height="2.73"/>
	<rect x="21.008" y="25.486" fill="#434343" width="1.958" height="2.73"/>
	<rect x="25.008" y="25.486" fill="#434343" width="1.958" height="2.73"/>
	<rect x="31.008" y="25.486" fill="#434343" width="1.959" height="2.73"/>
	<rect x="35.027" y="25.508" fill="#434343" width="1.959" height="2.729"/>
	<rect x="39.008" y="25.486" fill="#434343" width="1.959" height="2.73"/>
	<g>
		<path fill="#434343" d="M27.008,38.217c-1.643,0-2.979-1.191-2.979-2.656c0-0.553,0.447-1,1-1c0.552,0,1,0.676,1,1.229
			c0,0.311,0.402,0.656,0.979,0.656c0.577,0,1.062-0.348,1.062-0.656v-6.5c0-0.553,0.363-1,0.916-1c0.554,0,1,0.447,1,1v6.271
			C29.986,37.025,28.65,38.217,27.008,38.217z"/>
	</g>
	<rect x="28.039" y="14.32" fill="#434343" width="1.969" height="2.938"/>
</g>
</svg>
