<?xml version="1.0" encoding="utf-8"?>
<!-- Generator: Adobe Illustrator 15.0.0, SVG Export Plug-In . SVG Version: 6.00 Build 0)  -->
<!DOCTYPE svg PUBLIC "-//W3C//DTD SVG 1.0//EN" "http://www.w3.org/TR/2001/REC-SVG-20010904/DTD/svg10.dtd">
<svg version="1.0" id="Layer_1" xmlns="http://www.w3.org/2000/svg" xmlns:xlink="http://www.w3.org/1999/xlink" x="0px" y="0px"
	 width="109.753px" height="99.815px" viewBox="0 0 109.753 99.815" enable-background="new 0 0 109.753 99.815"
	 xml:space="preserve">
<path fill="none" stroke="#414042" stroke-width="2" stroke-miterlimit="10" d="M81.479,37v19c0,1.656-1.342,3-3,3h-51
	c-1.655,0-3-1.344-3-2V43"/>
<path fill="none" stroke="#414042" stroke-width="2" stroke-miterlimit="10" d="M48.479,37.932c0,1.144,1.009,2.068,2.25,2.068h4.5
	c1.244,0,2.25-0.926,2.25-2.068V32.07c0-1.144-1.006-2.069-2.25-2.069h-4.5c-1.241,0-2.25,0.927-2.25,2.069V34h-23
	c-1.655,0-3-1.344-3-3v-8c0-1.656,1.345-3,3-3h55c1.658,0,3,1.344,3,3v8c0,1.656-1.342,3-3,3h-20"/>
<path fill="none" stroke="#414042" stroke-width="2" stroke-miterlimit="10" d="M59.479,16.959V15c0-1.104-0.895-2-2-2h-8.957
	c-1.104,0-2,0.896-2,2v1.959"/>
</svg>
