<?xml version="1.0" encoding="utf-8"?>
<!-- Generator: Adobe Illustrator 15.0.0, SVG Export Plug-In . SVG Version: 6.00 Build 0)  -->
<!DOCTYPE svg PUBLIC "-//W3C//DTD SVG 1.0//EN" "http://www.w3.org/TR/2001/REC-SVG-20010904/DTD/svg10.dtd">
<svg version="1.0" id="Layer_1" xmlns="http://www.w3.org/2000/svg" xmlns:xlink="http://www.w3.org/1999/xlink" x="0px" y="0px"
	 width="109.753px" height="99.815px" viewBox="0 0 109.753 99.815" enable-background="new 0 0 109.753 99.815"
	 xml:space="preserve">
<g>
	<path fill="none" stroke="#414042" stroke-width="2" stroke-miterlimit="10" d="M36.58,28.895c12.104-12.106,31.732-12.106,43.84,0
		c12.105,12.105,12.105,31.734,0,43.84c-12.107,12.106-31.735,12.106-43.84,0c-6.053-6.053-9.08-13.986-9.08-21.92"/>
	<path fill="none" stroke="#414042" stroke-width="2" stroke-miterlimit="10" d="M70.521,62.836c-6.64,6.639-17.402,6.639-24.041,0
		c-6.64-6.64-6.64-17.402,0-24.043c6.639-6.639,17.402-6.639,24.041,0c4.873,4.872,6.168,11.967,3.89,18.021"/>
	<line fill="none" stroke="#414042" stroke-width="2" stroke-miterlimit="10" x1="37.994" y1="30.309" x2="45.064" y2="37.379"/>
	<line fill="none" stroke="#414042" stroke-width="2" stroke-miterlimit="10" x1="71.936" y1="64.25" x2="79.006" y2="71.321"/>
	<line fill="none" stroke="#414042" stroke-width="2" stroke-miterlimit="10" x1="79.006" y1="30.308" x2="71.936" y2="37.379"/>
	<line fill="none" stroke="#414042" stroke-width="2" stroke-miterlimit="10" x1="45.064" y1="64.25" x2="37.995" y2="71.32"/>
</g>
</svg>
