<?xml version="1.0" encoding="utf-8"?>
<!-- Generator: Adobe Illustrator 15.0.0, SVG Export Plug-In . SVG Version: 6.00 Build 0)  -->
<!DOCTYPE svg PUBLIC "-//W3C//DTD SVG 1.0//EN" "http://www.w3.org/TR/2001/REC-SVG-20010904/DTD/svg10.dtd">
<svg version="1.0" id="Layer_1" xmlns="http://www.w3.org/2000/svg" xmlns:xlink="http://www.w3.org/1999/xlink" x="0px" y="0px"
	 width="109.753px" height="99.815px" viewBox="0 0 109.753 99.815" enable-background="new 0 0 109.753 99.815"
	 xml:space="preserve">
<g>
	<polyline fill="none" stroke="#414042" stroke-width="2" stroke-miterlimit="10" points="28.5,53.053 37.277,45.688 38.262,40.099 
		39.266,34.404 50.723,34.404 59.5,27.04 68.277,34.404 79.734,34.404 81.723,45.688 90.5,53.053 84.771,62.975 86.761,74.258 
		75.994,78.176 70.266,88.099 59.5,84.18 48.734,88.099 43.005,78.176 32.238,74.258 34.229,62.975 	"/>
	<polyline fill="none" stroke="#414042" stroke-width="2" stroke-miterlimit="10" points="50.5,55.04 45.5,55.04 45.5,65.04 
		50.5,65.04 	"/>
	<line fill="none" stroke="#414042" stroke-width="2" stroke-miterlimit="10" x1="50.5" y1="60.04" x2="45.5" y2="60.04"/>
	<polyline fill="none" stroke="#414042" stroke-width="2" stroke-miterlimit="10" points="66.5,54.04 70.5,62.04 74.5,54.04 	"/>
	<line fill="none" stroke="#414042" stroke-width="2" stroke-miterlimit="10" x1="51.5" y1="55.267" x2="51.5" y2="65.04"/>
	<polyline fill="none" stroke="#414042" stroke-width="2" stroke-miterlimit="10" points="62.5,54.29 62.5,65.04 55.5,65.04 
		55.5,54.29 	"/>
	<line fill="none" stroke="#414042" stroke-width="2" stroke-miterlimit="10" x1="70.5" y1="62.04" x2="70.5" y2="66.04"/>
</g>
</svg>
