<?xml version="1.0" encoding="utf-8"?>
<!-- Generator: Adobe Illustrator 15.0.0, SVG Export Plug-In . SVG Version: 6.00 Build 0)  -->
<!DOCTYPE svg PUBLIC "-//W3C//DTD SVG 1.0//EN" "http://www.w3.org/TR/2001/REC-SVG-20010904/DTD/svg10.dtd">
<svg version="1.0" id="Layer_1" xmlns="http://www.w3.org/2000/svg" xmlns:xlink="http://www.w3.org/1999/xlink" x="0px" y="0px"
	 width="109.753px" height="99.815px" viewBox="0 0 109.753 99.815" enable-background="new 0 0 109.753 99.815"
	 xml:space="preserve">
<g>
	<path fill="none" stroke="#414042" stroke-width="2" stroke-miterlimit="10" d="M80.479,45.188V87c0,1.104-0.895,2-2,2h-43
		c-1.104,0-2-0.896-2-2V28c0-1.104,0.896-2,2-2h43c1.105,0,2,0.896,2,2v5.812"/>
	<path fill="none" stroke="#414042" stroke-width="2" stroke-miterlimit="10" d="M46.479,63h-5c-1.104,0-2-0.896-2-2v-1"/>
	<path fill="none" stroke="#414042" stroke-width="2" stroke-miterlimit="10" d="M60.479,63h-5c-1.104,0-2-0.896-2-2v-1"/>
	<path fill="none" stroke="#414042" stroke-width="2" stroke-miterlimit="10" d="M74.479,63h-5c-1.104,0-2-0.896-2-2v-1"/>
	<path fill="none" stroke="#414042" stroke-width="2" stroke-miterlimit="10" d="M46.479,73h-5c-1.104,0-2-0.896-2-2v-1"/>
	<path fill="none" stroke="#414042" stroke-width="2" stroke-miterlimit="10" d="M60.479,73h-5c-1.104,0-2-0.896-2-2v-1"/>
	<path fill="none" stroke="#414042" stroke-width="2" stroke-miterlimit="10" d="M74.479,83h-5c-1.104,0-2-0.896-2-2V69"/>
	<path fill="none" stroke="#414042" stroke-width="2" stroke-miterlimit="10" d="M46.479,83h-5c-1.104,0-2-0.896-2-2v-1"/>
	<path fill="none" stroke="#414042" stroke-width="2" stroke-miterlimit="10" d="M60.479,83h-5c-1.104,0-2-0.896-2-2v-1"/>
	<path fill="none" stroke="#414042" stroke-width="2" stroke-miterlimit="10" d="M75.583,33.102v14.881
		c0,1.16-0.911,2.101-2.036,2.101H40.62c-1.125,0-2.037-0.94-2.037-2.101V33.102"/>
</g>
</svg>
