<?xml version="1.0" encoding="utf-8"?>
<!-- Generator: Adobe Illustrator 15.0.0, SVG Export Plug-In . SVG Version: 6.00 Build 0)  -->
<!DOCTYPE svg PUBLIC "-//W3C//DTD SVG 1.0//EN" "http://www.w3.org/TR/2001/REC-SVG-20010904/DTD/svg10.dtd">
<svg version="1.0" id="Layer_1" xmlns="http://www.w3.org/2000/svg" xmlns:xlink="http://www.w3.org/1999/xlink" x="0px" y="0px"
	 width="109.753px" height="99.815px" viewBox="0 0 109.753 99.815" enable-background="new 0 0 109.753 99.815"
	 xml:space="preserve">
<g>
	<path fill="none" stroke="#414042" stroke-width="2" stroke-miterlimit="10" d="M40.697,37.445v-3c0-0.553,0.447-1,1-1
		c0,0,6,3.875,11,6s13,3,13,3c0.553,0,1,0.447,1,1v33c0,0.553-0.447,1-1,1h-24c-0.553,0-1-0.447-1-1v-30"/>
	<path fill="none" stroke="#414042" stroke-width="2" stroke-miterlimit="10" d="M54.83,34.445v-4c0,0,2,1,3-2s-5-7-4-11
		c0,0-5,5-4,11"/>
</g>
</svg>
