<?xml version="1.0" encoding="utf-8"?>
<!-- Generator: Adobe Illustrator 15.0.0, SVG Export Plug-In . SVG Version: 6.00 Build 0)  -->
<!DOCTYPE svg PUBLIC "-//W3C//DTD SVG 1.0//EN" "http://www.w3.org/TR/2001/REC-SVG-20010904/DTD/svg10.dtd">
<svg version="1.0" id="Layer_1" xmlns="http://www.w3.org/2000/svg" xmlns:xlink="http://www.w3.org/1999/xlink" x="0px" y="0px"
	 width="109.753px" height="99.815px" viewBox="0 0 109.753 99.815" enable-background="new 0 0 109.753 99.815"
	 xml:space="preserve">
<g>
	<g>
		<path fill="none" stroke="#414042" stroke-width="2" stroke-miterlimit="10" d="M33.5,22c-0.553,0-1-0.448-1-1v-1
			c0-0.552,0.447-1,1-1h60c0.553,0,1,0.448,1,1v1c0,0.552-0.447,1-1,1"/>
		<path fill="none" stroke="#414042" stroke-width="2" stroke-miterlimit="10" d="M52.5,60h-14c-0.553,0-1-0.448-1-1V25
			c0-0.552,0.447-1,1-1h50c0.553,0,1,0.448,1,1v34c0,0.552-0.447,1-1,1h-25v18"/>
		<line fill="none" stroke="#414042" stroke-width="2" stroke-miterlimit="10" x1="60.699" y1="66.739" x2="52.302" y2="75.136"/>
		<line fill="none" stroke="#414042" stroke-width="2" stroke-miterlimit="10" x1="74.698" y1="75.136" x2="66.301" y2="66.739"/>
	</g>
	<g>
		<polyline fill="none" stroke="#414042" stroke-width="2" stroke-miterlimit="10" points="44.5,54.5 57,42 64.5,49.5 82.5,32 		"/>
		<polyline fill="none" stroke="#414042" stroke-width="2" stroke-miterlimit="10" points="78.5,31 83.5,31 83.5,36 		"/>
	</g>
</g>
</svg>
