<?xml version="1.0" encoding="utf-8"?>
<!-- Generator: Adobe Illustrator 15.0.0, SVG Export Plug-In . SVG Version: 6.00 Build 0)  -->
<!DOCTYPE svg PUBLIC "-//W3C//DTD SVG 1.0//EN" "http://www.w3.org/TR/2001/REC-SVG-20010904/DTD/svg10.dtd">
<svg version="1.0" id="Layer_1" xmlns="http://www.w3.org/2000/svg" xmlns:xlink="http://www.w3.org/1999/xlink" x="0px" y="0px"
	 width="109.753px" height="99.815px" viewBox="0 0 109.753 99.815" enable-background="new 0 0 109.753 99.815"
	 xml:space="preserve">
<path fill="none" stroke="#414042" stroke-width="2" stroke-miterlimit="10" d="M109.753,26"/>
<g>
	<path fill="none" stroke="#414042" stroke-width="2" stroke-miterlimit="10" d="M81.093,60.137c0,3.646-10.969,6.604-24.5,6.604
		s-24.5-2.956-24.5-6.604"/>
	<path fill="none" stroke="#414042" stroke-width="2" stroke-miterlimit="10" d="M81.093,43.497c0,3.448-10.969,6.244-24.5,6.244
		s-24.5-2.795-24.5-6.244"/>
	<path fill="none" stroke="#414042" stroke-width="2" stroke-miterlimit="10" d="M65.043,81.367c-2.634,0.242-5.48,0.374-8.45,0.374
		c-3.369,0-6.578-0.169-9.5-0.477c-8.812-0.926-15-3.101-15-5.635c0-0.211,0-21.323,0-36.89"/>
	<path fill="none" stroke="#414042" stroke-width="2" stroke-miterlimit="10" d="M81.093,27.958c0,3.194-10.969,5.782-24.5,5.782
		s-24.5-2.588-24.5-5.782v-2.106c0-3.375,10.969-6.111,24.5-6.111s24.5,2.736,24.5,6.111c0,0.117,0,49.459,0,49.777
		c0,1.032-1.025,2.003-2.834,2.856"/>
	<line fill="none" stroke="#333333" stroke-width="2" stroke-miterlimit="10" x1="71.081" y1="81.741" x2="71.081" y2="69.741"/>
	<polyline fill="none" stroke="#333333" stroke-width="2" stroke-miterlimit="10" points="75.946,77.741 71.081,81.678 
		66.093,77.741 	"/>
</g>
</svg>
