<?xml version="1.0" encoding="utf-8"?>
<!-- Generator: Adobe Illustrator 15.0.0, SVG Export Plug-In . SVG Version: 6.00 Build 0)  -->
<!DOCTYPE svg PUBLIC "-//W3C//DTD SVG 1.0//EN" "http://www.w3.org/TR/2001/REC-SVG-20010904/DTD/svg10.dtd">
<svg version="1.0" id="Layer_1" xmlns="http://www.w3.org/2000/svg" xmlns:xlink="http://www.w3.org/1999/xlink" x="0px" y="0px"
	 width="109.753px" height="99.815px" viewBox="0 0 109.753 99.815" enable-background="new 0 0 109.753 99.815"
	 xml:space="preserve">
<path fill="none" stroke="#414042" stroke-width="2" stroke-miterlimit="10" d="M109.753,26"/>
<path fill="none" stroke="#414042" stroke-width="2" stroke-miterlimit="10" d="M88.573,56.508c0,3.646-10.969,6.604-24.5,6.604
	s-24.5-2.956-24.5-6.604"/>
<path fill="none" stroke="#414042" stroke-width="2" stroke-miterlimit="10" d="M88.573,39.867c0,3.448-10.969,6.244-24.5,6.244
	s-24.5-2.795-24.5-6.244"/>
<path fill="none" stroke="#414042" stroke-width="2" stroke-miterlimit="10" d="M70.559,77.896c-2.065,0.141-4.24,0.216-6.485,0.216
	c-3.369,0-6.578-0.169-9.5-0.477c-8.812-0.926-15-3.101-15-5.635c0-0.211,0-21.323,0-36.89"/>
<path fill="none" stroke="#414042" stroke-width="2" stroke-miterlimit="10" d="M88.573,24.329c0,3.194-10.969,5.782-24.5,5.782
	s-24.5-2.588-24.5-5.782v-2.106c0-3.375,10.969-6.111,24.5-6.111s24.5,2.736,24.5,6.111c0,0.117,0,49.459,0,49.777
	c0,0.844-0.686,1.646-1.922,2.377"/>
<line fill="none" stroke="#333333" stroke-width="2" stroke-miterlimit="10" x1="73.291" y1="77.395" x2="84.573" y2="66.111"/>
<line fill="none" stroke="#333333" stroke-width="2" stroke-miterlimit="10" x1="73.292" y1="66.111" x2="84.573" y2="77.394"/>
</svg>
