<?xml version="1.0" encoding="utf-8"?>
<!-- Generator: Adobe Illustrator 15.0.0, SVG Export Plug-In . SVG Version: 6.00 Build 0)  -->
<!DOCTYPE svg PUBLIC "-//W3C//DTD SVG 1.0//EN" "http://www.w3.org/TR/2001/REC-SVG-20010904/DTD/svg10.dtd">
<svg version="1.0" id="Layer_1" xmlns="http://www.w3.org/2000/svg" xmlns:xlink="http://www.w3.org/1999/xlink" x="0px" y="0px"
	 width="109.753px" height="99.815px" viewBox="0 0 109.753 99.815" enable-background="new 0 0 109.753 99.815"
	 xml:space="preserve">
<path fill="none" stroke="#414042" stroke-width="2" stroke-miterlimit="10" d="M109.753,26"/>
<g>
	<path fill="none" stroke="#414042" stroke-width="2" stroke-miterlimit="10" d="M34.835,58.74c-0.683-1.614-1.061-3.388-1.061-5.25
		c0-7.45,6.039-13.489,13.489-13.489S60.753,46.04,60.753,53.49c0,7.45-6.039,13.489-13.489,13.489
		c-1.217,0-2.396-0.162-3.518-0.464"/>
	<path fill="none" stroke="#414042" stroke-width="2" stroke-miterlimit="10" d="M46.69,62.906c-4.85,0-8.78-3.932-8.78-8.781"/>
	<path fill="none" stroke="#414042" stroke-width="2" stroke-miterlimit="10" d="M81.69,62.906c-4.85,0-8.78-3.932-8.78-8.781"/>
	<path fill="none" stroke="#414042" stroke-width="2" stroke-miterlimit="10" d="M69.856,58.792
		c-0.695-1.628-1.082-3.42-1.082-5.302c0-7.45,6.039-13.489,13.489-13.489S95.753,46.04,95.753,53.49
		c0,7.45-6.039,13.489-13.489,13.489c-1.196,0-2.355-0.157-3.46-0.449"/>
	<path fill="none" stroke="#414042" stroke-width="2" stroke-miterlimit="10" d="M60.845,47.402
		c1.227-0.287,2.609-0.448,4.075-0.448c1.374,0,2.675,0.143,3.842,0.396"/>
	<path fill="none" stroke="#414042" stroke-width="2" stroke-miterlimit="10" d="M33.67,51c0,0,5.083-20.5,7.083-24s9-2.916,9-2.916
		"/>
	<path fill="none" stroke="#414042" stroke-width="2" stroke-miterlimit="10" d="M95.753,51c0,0-5.083-20.5-7.083-24
		s-9-2.916-9-2.916"/>
</g>
</svg>
