<?xml version="1.0" encoding="utf-8"?>
<!-- Generator: Adobe Illustrator 15.0.0, SVG Export Plug-In . SVG Version: 6.00 Build 0)  -->
<!DOCTYPE svg PUBLIC "-//W3C//DTD SVG 1.0//EN" "http://www.w3.org/TR/2001/REC-SVG-20010904/DTD/svg10.dtd">
<svg version="1.0" id="Layer_1" xmlns="http://www.w3.org/2000/svg" xmlns:xlink="http://www.w3.org/1999/xlink" x="0px" y="0px"
	 width="109.753px" height="99.815px" viewBox="0 0 109.753 99.815" enable-background="new 0 0 109.753 99.815"
	 xml:space="preserve">
<path fill="none" stroke="#414042" stroke-width="2" stroke-miterlimit="10" d="M109.753,26"/>
<path fill="none" stroke="#414042" stroke-width="2" stroke-miterlimit="10" d="M36.06,53.518c0-16.95,12.692-28.131,29.701-28.131
	c17.01,0,29.79,11.181,29.79,28.131"/>
<path fill="none" stroke="#414042" stroke-width="2" stroke-miterlimit="10" d="M39.929,51.113c2.801,0,3.79,3.99,3.79,8.915
	c0,4.923-0.989,8.914-3.79,8.914s-5.071-3.991-5.071-8.914"/>
<path fill="none" stroke="#414042" stroke-width="2" stroke-miterlimit="10" d="M73.669,81.958c0-2.37-0.253-3.916-3.666-3.916
	c-3.41,0-6.284,0.313-6.284,2.683c0,2.371,2.765,4.291,6.176,4.291l0.016-0.053c16.175,0,26.843-7.183,26.843-23.732"/>
<path fill="none" stroke="#414042" stroke-width="2" stroke-miterlimit="10" d="M91.628,51.113c-2.801,0-3.79,3.99-3.79,8.915
	c0,4.923,0.989,8.914,3.79,8.914s5.071-3.991,5.071-8.914"/>
</svg>
