<?xml version="1.0" encoding="utf-8"?>
<!-- Generator: Adobe Illustrator 15.0.0, SVG Export Plug-In . SVG Version: 6.00 Build 0)  -->
<!DOCTYPE svg PUBLIC "-//W3C//DTD SVG 1.0//EN" "http://www.w3.org/TR/2001/REC-SVG-20010904/DTD/svg10.dtd">
<svg version="1.0" id="Layer_1" xmlns="http://www.w3.org/2000/svg" xmlns:xlink="http://www.w3.org/1999/xlink" x="0px" y="0px"
	 width="109.753px" height="99.815px" viewBox="0 0 109.753 99.815" enable-background="new 0 0 109.753 99.815"
	 xml:space="preserve">
<path fill="none" stroke="#414042" stroke-width="2" stroke-miterlimit="10" d="M109.753,26"/>
<path fill="none" stroke="#414042" stroke-width="2" stroke-miterlimit="10" d="M88.354,42.579c-0.662,1.693-1.68,3.281-3.048,4.65
	c-5.313,5.314-13.929,5.314-19.242,0c-5.314-5.314-5.315-13.929,0-19.244c5.312-5.314,13.929-5.313,19.242,0
	c1.368,1.368,2.385,2.956,3.048,4.648"/>
<line fill="none" stroke="#414042" stroke-width="2" stroke-miterlimit="10" x1="66.062" y1="47.229" x2="29.5" y2="83.792"/>
<path fill="none" stroke="#414042" stroke-width="2" stroke-miterlimit="10" d="M48.743,72.246l1.924,1.924
	c0.531,0.531,0.531,1.393-0.001,1.925l-1.923,1.924c-0.532,0.532-1.394,0.531-1.925,0l-1.924-1.925l-2.772,2.772l1.924,1.925
	c0.531,0.531,0.531,1.393,0,1.924l-2.887,2.887c-0.531,0.532-1.395,0.531-1.924,0l-1.927-1.925c-0.528-0.531-2.455,0.532-1.924,0"/>
</svg>
