<?xml version="1.0" encoding="utf-8"?>
<!-- Generator: Adobe Illustrator 15.0.0, SVG Export Plug-In . SVG Version: 6.00 Build 0)  -->
<!DOCTYPE svg PUBLIC "-//W3C//DTD SVG 1.0//EN" "http://www.w3.org/TR/2001/REC-SVG-20010904/DTD/svg10.dtd">
<svg version="1.0" id="Layer_1" xmlns="http://www.w3.org/2000/svg" xmlns:xlink="http://www.w3.org/1999/xlink" x="0px" y="0px"
	 width="109.753px" height="99.815px" viewBox="0 0 109.753 99.815" enable-background="new 0 0 109.753 99.815"
	 xml:space="preserve">
<path fill="none" stroke="#414042" stroke-width="2" stroke-miterlimit="10" d="M109.753,26"/>
<path fill="none" stroke="#414042" stroke-width="2" stroke-miterlimit="10" d="M61.479,56v7.748c0,3.959-3.296,7.17-7.359,7.17
	H48.84c-4.063,0-7.361-3.211-7.361-7.17V56"/>
<line fill="none" stroke="#414042" stroke-width="2" stroke-miterlimit="10" x1="41.354" y1="57" x2="61.104" y2="57"/>
<line fill="none" stroke="#414042" stroke-width="2" stroke-miterlimit="10" x1="41.479" y1="62" x2="61.479" y2="62"/>
<rect x="46.583" y="71" fill="none" stroke="#414042" stroke-width="2" stroke-miterlimit="10" width="9.958" height="4.062"/>
<rect x="46.583" y="75" fill="none" stroke="#414042" stroke-width="2" stroke-miterlimit="10" width="9.958" height="4.062"/>
<path fill="none" stroke="#414042" stroke-width="2" stroke-miterlimit="10" d="M51.562,83.062c-4.398,0-4.979-4.062-4.979-4.062
	h9.958C56.542,79,55.96,83.062,51.562,83.062z"/>
<path fill="none" stroke="#414042" stroke-width="2" stroke-miterlimit="10" d="M42.552,48.875V28.802
	c0-3.312,3.011-6.802,6.941-6.802h3.953c3.93,0,7.116,3.688,7.116,7v27.334"/>
<path fill="none" stroke="#414042" stroke-width="2" stroke-miterlimit="10" d="M42.552,56.136"/>
<path fill="none" stroke="#414042" stroke-width="2" stroke-miterlimit="10" d="M48.438,56.334V32.305
	c0-1.824,0.422-3.305,1.936-3.305h2.195c1.596,0,1.933,1.48,1.933,3.305v24.029"/>
</svg>
