<?xml version="1.0" encoding="utf-8"?>
<!-- Generator: Adobe Illustrator 15.0.0, SVG Export Plug-In . SVG Version: 6.00 Build 0)  -->
<!DOCTYPE svg PUBLIC "-//W3C//DTD SVG 1.0//EN" "http://www.w3.org/TR/2001/REC-SVG-20010904/DTD/svg10.dtd">
<svg version="1.0" id="Layer_1" xmlns="http://www.w3.org/2000/svg" xmlns:xlink="http://www.w3.org/1999/xlink" x="0px" y="0px"
	 width="109.753px" height="99.815px" viewBox="0 0 109.753 99.815" enable-background="new 0 0 109.753 99.815"
	 xml:space="preserve">
<path fill="none" stroke="#414042" stroke-width="2" stroke-miterlimit="10" d="M109.753,26"/>
<g>
	<line fill="none" stroke="#414042" stroke-width="2" stroke-miterlimit="10" x1="41.5" y1="65" x2="37.5" y2="65"/>
	<line fill="none" stroke="#414042" stroke-width="2" stroke-miterlimit="10" x1="49.5" y1="65" x2="45.5" y2="65"/>
	<line fill="none" stroke="#414042" stroke-width="2" stroke-miterlimit="10" x1="57.5" y1="65" x2="53.5" y2="65"/>
	<line fill="none" stroke="#414042" stroke-width="2" stroke-miterlimit="10" x1="41.5" y1="71" x2="37.5" y2="71"/>
	<line fill="none" stroke="#414042" stroke-width="2" stroke-miterlimit="10" x1="49.5" y1="71" x2="45.5" y2="71"/>
	<line fill="none" stroke="#414042" stroke-width="2" stroke-miterlimit="10" x1="57.5" y1="71" x2="53.5" y2="71"/>
	<line fill="none" stroke="#414042" stroke-width="2" stroke-miterlimit="10" x1="41.5" y1="77" x2="37.5" y2="77"/>
	<line fill="none" stroke="#414042" stroke-width="2" stroke-miterlimit="10" x1="49.5" y1="77" x2="45.5" y2="77"/>
	<line fill="none" stroke="#414042" stroke-width="2" stroke-miterlimit="10" x1="57.5" y1="77" x2="53.5" y2="77"/>
	<path fill="none" stroke="#414042" stroke-width="2" stroke-miterlimit="10" d="M59.5,31h1c1.104,0,2,0.896,2,2v18v4v26
		c0,1.104-0.896,2-2,2h-26c-1.104,0-2-0.896-2-2V33c0-1.104,0.896-2,2-2h21V21h4v2"/>
	<path fill="none" stroke="#414042" stroke-width="2" stroke-miterlimit="10" d="M58.5,36v15c0,1.104-0.896,2-2,2h-18
		c-1.104,0-2-0.896-2-2V36"/>
	<polyline fill="none" stroke="#414042" stroke-width="2" stroke-miterlimit="10" points="44.5,56 44.5,60 51.5,60 	"/>
	<line fill="none" stroke="#414042" stroke-width="2" stroke-miterlimit="10" x1="35.5" y1="59" x2="40.5" y2="59"/>
	<line fill="none" stroke="#414042" stroke-width="2" stroke-miterlimit="10" x1="54.5" y1="59" x2="59.5" y2="59"/>
</g>
</svg>
