<?xml version="1.0" encoding="utf-8"?>
<!-- Generator: Adobe Illustrator 15.0.0, SVG Export Plug-In . SVG Version: 6.00 Build 0)  -->
<!DOCTYPE svg PUBLIC "-//W3C//DTD SVG 1.0//EN" "http://www.w3.org/TR/2001/REC-SVG-20010904/DTD/svg10.dtd">
<svg version="1.0" id="Layer_1" xmlns="http://www.w3.org/2000/svg" xmlns:xlink="http://www.w3.org/1999/xlink" x="0px" y="0px"
	 width="109.753px" height="99.815px" viewBox="0 0 109.753 99.815" enable-background="new 0 0 109.753 99.815"
	 xml:space="preserve">
<path fill="none" stroke="#414042" stroke-width="2" stroke-miterlimit="10" d="M109.753,26"/>
<g>
	<path fill="none" stroke="#414042" stroke-width="2" stroke-miterlimit="10" d="M43.998,29l9.834,29.266
		C51.025,59.992,47.643,61,43.998,61c-3.643,0-7.025-1.007-9.832-2.732L40.975,38"/>
	<path fill="none" stroke="#414042" stroke-width="2" stroke-miterlimit="10" d="M87.689,38L94.5,58.266
		C91.693,59.992,88.309,61,84.664,61c-3.641,0-7.025-1.007-9.832-2.732L84.664,29"/>
	<line fill="none" stroke="#414042" stroke-width="2" stroke-miterlimit="10" x1="64.541" y1="25" x2="64.541" y2="67"/>
	<path fill="none" stroke="#414042" stroke-width="2" stroke-miterlimit="10" d="M39.832,24c0,4.418,11.193,8,25,8
		c13.809,0,25-3.582,25-8"/>
	<path fill="none" stroke="#414042" stroke-width="2" stroke-miterlimit="10" d="M51.582,71v-2c0-0.552,0.449-1,1-1h24
		c0.553,0,1,0.448,1,1v2"/>
</g>
</svg>
