<?xml version="1.0" encoding="utf-8"?>
<!-- Generator: Adobe Illustrator 15.0.0, SVG Export Plug-In . SVG Version: 6.00 Build 0)  -->
<!DOCTYPE svg PUBLIC "-//W3C//DTD SVG 1.0//EN" "http://www.w3.org/TR/2001/REC-SVG-20010904/DTD/svg10.dtd">
<svg version="1.0" id="Layer_1" xmlns="http://www.w3.org/2000/svg" xmlns:xlink="http://www.w3.org/1999/xlink" x="0px" y="0px"
	 width="109.753px" height="99.815px" viewBox="0 0 109.753 99.815" enable-background="new 0 0 109.753 99.815"
	 xml:space="preserve">
<path fill="none" stroke="#414042" stroke-width="2" stroke-miterlimit="10" d="M109.753,26"/>
<path fill="none" stroke="#414042" stroke-width="2" stroke-miterlimit="10" d="M73.154,65H51.844
	c-6.337,0-11.475-7.835-11.475-17.5l0,0c0-9.665,5.138-17.5,11.475-17.5h21.311c6.338,0,11.476,7.835,11.476,17.5l0,0
	c0,4.385-1.058,8.393-2.804,11.463"/>
<polyline fill="none" stroke="#414042" stroke-width="2" stroke-miterlimit="10" points="49.5,47 49.5,40 55.5,40 "/>
<polyline fill="none" stroke="#414042" stroke-width="2" stroke-miterlimit="10" points="70.5,47 70.5,40 76.5,40 "/>
<path fill="none" stroke="#414042" stroke-width="2" stroke-miterlimit="10" d="M67.5,61c0-2.761-2.238-5-5-5s-5,2.239-5,5"/>
<polyline fill="none" stroke="#414042" stroke-width="2" stroke-miterlimit="10" points="31.5,27 31.5,21 93.5,21 93.5,73 31.5,73 
	31.5,43 "/>
</svg>
