<?xml version="1.0" encoding="utf-8"?>
<!-- Generator: Adobe Illustrator 15.0.0, SVG Export Plug-In . SVG Version: 6.00 Build 0)  -->
<!DOCTYPE svg PUBLIC "-//W3C//DTD SVG 1.0//EN" "http://www.w3.org/TR/2001/REC-SVG-20010904/DTD/svg10.dtd">
<svg version="1.0" id="Layer_1" xmlns="http://www.w3.org/2000/svg" xmlns:xlink="http://www.w3.org/1999/xlink" x="0px" y="0px"
	 width="109.753px" height="99.815px" viewBox="0 0 109.753 99.815" enable-background="new 0 0 109.753 99.815"
	 xml:space="preserve">
<path fill="none" stroke="#414042" stroke-width="2" stroke-miterlimit="10" d="M109.753,26"/>
<path fill="none" stroke="#414042" stroke-width="2" stroke-miterlimit="10" d="M83.479,44v9c0,1.656-1.342,3-3,3h-51
	c-1.655,0-3-1.344-3-3v-4"/>
<path fill="none" stroke="#414042" stroke-width="2" stroke-miterlimit="10" d="M61.479,27.959V26c0-1.104-0.895-2-2-2h-8.957
	c-1.104,0-2,0.896-2,2v1.959"/>
<path fill="none" stroke="#414042" stroke-width="2" stroke-miterlimit="10" d="M70.479,44.932c0,1.144-1.006,2.068-2.25,2.068h-1.5
	c-1.241,0-2.25-0.926-2.25-2.068V39.07c0-1.144,1.009-2.069,2.25-2.069h4.5c1.244,0,2.25,0.927,2.25,2.069V41h9c1.658,0,2-1.344,2-3
	v-4c0-1.656-0.342-3-2-3h-55c-1.655,0-2,1.344-2,3v4c0,1.656,0.345,3,2,3h9v-1.931c0-1.144,1.009-2.069,2.25-2.069h4.5
	c1.244,0,2.25,0.927,2.25,2.069v5.862c0,1.143-1.006,2.067-2.25,2.067h-1.5c-1.241,0-2.25-0.926-2.25-2.067"/>
<line fill="none" stroke="#414042" stroke-width="2" stroke-miterlimit="10" x1="47.646" y1="41.062" x2="62.479" y2="41.062"/>
<line fill="none" stroke="#414042" stroke-width="2" stroke-miterlimit="10" x1="39.562" y1="41.084" x2="39.562" y2="45.166"/>
<line fill="none" stroke="#414042" stroke-width="2" stroke-miterlimit="10" x1="70.479" y1="41.166" x2="70.479" y2="45.25"/>
</svg>
