<?xml version="1.0" encoding="utf-8"?>
<!-- Generator: Adobe Illustrator 15.0.0, SVG Export Plug-In . SVG Version: 6.00 Build 0)  -->
<!DOCTYPE svg PUBLIC "-//W3C//DTD SVG 1.0//EN" "http://www.w3.org/TR/2001/REC-SVG-20010904/DTD/svg10.dtd">
<svg version="1.0" id="Layer_1" xmlns="http://www.w3.org/2000/svg" xmlns:xlink="http://www.w3.org/1999/xlink" x="0px" y="0px"
	 width="109.753px" height="99.815px" viewBox="0 0 109.753 99.815" enable-background="new 0 0 109.753 99.815"
	 xml:space="preserve">
<path fill="none" stroke="#414042" stroke-width="2" stroke-miterlimit="10" d="M109.753,26"/>
<path fill="none" stroke="#414042" stroke-width="2" stroke-miterlimit="10" d="M36.5,23.959V19c0-0.552,0.504-1,1.125-1h20.812"/>
<path fill="none" stroke="#414042" stroke-width="2" stroke-miterlimit="10" d="M61.625,18h17.75c0.621,0,1.125,0.448,1.125,1v60
	c0,0.553-0.504,1-1.125,1h-41.75c-0.621,0-1.125-0.447-1.125-1V38.084"/>
<line fill="none" stroke="#414042" stroke-width="2" stroke-miterlimit="10" x1="54.5" y1="18.062" x2="58.438" y2="18.062"/>
<path fill="none" stroke="#414042" stroke-width="2" stroke-miterlimit="10" d="M62.5,50.009c0,2.2-1.791,3.983-4,3.983
	s-4-1.783-4-3.983c0-1.474,0.804-2.761,1.998-3.448l0.027-0.122v-5.563c0-0.482,0.381-0.874,0.85-0.874h2.394
	c0.47,0,0.851,0.392,0.851,0.874v6.063"/>
<line fill="none" stroke="#414042" stroke-width="2" stroke-miterlimit="10" x1="61.5" y1="20" x2="58.625" y2="20"/>
<line fill="none" stroke="#414042" stroke-width="2" stroke-miterlimit="10" x1="58.5" y1="22" x2="55.625" y2="22"/>
<line fill="none" stroke="#414042" stroke-width="2" stroke-miterlimit="10" x1="61.5" y1="24" x2="58.625" y2="24"/>
<line fill="none" stroke="#414042" stroke-width="2" stroke-miterlimit="10" x1="58.5" y1="26" x2="55.625" y2="26"/>
<line fill="none" stroke="#414042" stroke-width="2" stroke-miterlimit="10" x1="61.5" y1="28" x2="58.625" y2="28"/>
<line fill="none" stroke="#414042" stroke-width="2" stroke-miterlimit="10" x1="58.5" y1="30" x2="55.625" y2="30"/>
<line fill="none" stroke="#414042" stroke-width="2" stroke-miterlimit="10" x1="61.5" y1="32" x2="58.625" y2="32"/>
<line fill="none" stroke="#414042" stroke-width="2" stroke-miterlimit="10" x1="58.5" y1="34" x2="55.625" y2="34"/>
<line fill="none" stroke="#414042" stroke-width="2" stroke-miterlimit="10" x1="61.5" y1="36" x2="58.625" y2="36"/>
<line fill="none" stroke="#414042" stroke-width="2" stroke-miterlimit="10" x1="58.5" y1="38" x2="55.625" y2="38"/>
</svg>
