<?xml version="1.0" encoding="utf-8"?>
<!-- Generator: Adobe Illustrator 15.0.0, SVG Export Plug-In . SVG Version: 6.00 Build 0)  -->
<!DOCTYPE svg PUBLIC "-//W3C//DTD SVG 1.0//EN" "http://www.w3.org/TR/2001/REC-SVG-20010904/DTD/svg10.dtd">
<svg version="1.0" id="Layer_1" xmlns="http://www.w3.org/2000/svg" xmlns:xlink="http://www.w3.org/1999/xlink" x="0px" y="0px"
	 width="134.013px" height="141.497px" viewBox="0 0 134.013 141.497" enable-background="new 0 0 134.013 141.497"
	 xml:space="preserve">
<g>
	<path fill="#434343" d="M79.514,54.431c0,0.519-0.42,0.938-0.938,0.938H56.494c-0.519,0-0.938-0.42-0.938-0.938l0,0
		c0-0.518,0.42-0.938,0.938-0.938h22.082C79.094,53.494,79.514,53.914,79.514,54.431L79.514,54.431z"/>
	<path fill="#434343" d="M79.514,58.431c0,0.519-0.42,0.938-0.938,0.938H56.494c-0.519,0-0.938-0.42-0.938-0.938l0,0
		c0-0.518,0.42-0.938,0.938-0.938h22.082C79.094,57.494,79.514,57.914,79.514,58.431L79.514,58.431z"/>
	<path fill="#434343" d="M79.514,62.431c0,0.519-0.42,0.938-0.938,0.938H56.494c-0.519,0-0.938-0.42-0.938-0.938l0,0
		c0-0.518,0.42-0.938,0.938-0.938h22.082C79.094,61.494,79.514,61.914,79.514,62.431L79.514,62.431z"/>
	<path fill="#434343" d="M79.514,66.431c0,0.519-0.42,0.938-0.938,0.938H56.494c-0.519,0-0.938-0.42-0.938-0.938l0,0
		c0-0.518,0.42-0.938,0.938-0.938h22.082C79.094,65.494,79.514,65.914,79.514,66.431L79.514,66.431z"/>
	<path fill="#434343" d="M79.514,70.431c0,0.519-0.42,0.938-0.938,0.938H56.494c-0.519,0-0.938-0.42-0.938-0.938l0,0
		c0-0.518,0.42-0.938,0.938-0.938h22.082C79.094,69.494,79.514,69.914,79.514,70.431L79.514,70.431z"/>
	<path fill="#434343" d="M79.514,74.431c0,0.519-0.42,0.938-0.938,0.938H63.494c-0.519,0-0.938-0.42-0.938-0.938l0,0
		c0-0.518,0.42-0.938,0.938-0.938h15.081C79.094,73.494,79.514,73.914,79.514,74.431L79.514,74.431z"/>
</g>
</svg>
