<?xml version="1.0" encoding="utf-8"?>
<!-- Generator: Adobe Illustrator 15.0.0, SVG Export Plug-In . SVG Version: 6.00 Build 0)  -->
<!DOCTYPE svg PUBLIC "-//W3C//DTD SVG 1.0//EN" "http://www.w3.org/TR/2001/REC-SVG-20010904/DTD/svg10.dtd">
<svg version="1.0" id="Layer_1" xmlns="http://www.w3.org/2000/svg" xmlns:xlink="http://www.w3.org/1999/xlink" x="0px" y="0px"
	 width="134.013px" height="141.497px" viewBox="0 0 134.013 141.497" enable-background="new 0 0 134.013 141.497"
	 xml:space="preserve">
<g>
	<path fill="#434343" d="M74.825,61.393H61.229l-2.041-1.726c-0.378-0.374-0.987-0.374-1.363,0v1.726h-3.071
		c-1.06,0-1.923,0.917-1.923,2.045v5.766c0,1.128,0.863,2.045,1.923,2.045h13.782l1.843,1.559c0.378,0.374,0.987,0.374,1.363,0
		v-1.559h3.083c1.061,0,1.923-0.917,1.923-2.045v-5.766C76.748,62.31,75.885,61.393,74.825,61.393z M74.915,63.305l-0.025,6.183
		h-3.146V67.79c-0.377-0.387-0.987-0.386-1.363,0l-1.94,1.697H54.718c0.012-0.006,0.017-0.022,0.01-0.062l0.025-6.181h3.072v1.689
		c0.377,0.387,0.987,0.387,1.363,0l1.933-1.689h13.804C74.913,63.249,74.908,63.265,74.915,63.305z"/>
</g>
</svg>
