<?xml version="1.0" encoding="utf-8"?>
<!-- Generator: Adobe Illustrator 15.0.0, SVG Export Plug-In . SVG Version: 6.00 Build 0)  -->
<!DOCTYPE svg PUBLIC "-//W3C//DTD SVG 1.0//EN" "http://www.w3.org/TR/2001/REC-SVG-20010904/DTD/svg10.dtd">
<svg version="1.0" id="Layer_1" xmlns="http://www.w3.org/2000/svg" xmlns:xlink="http://www.w3.org/1999/xlink" x="0px" y="0px"
	 width="134.013px" height="141.497px" viewBox="0 0 134.013 141.497" enable-background="new 0 0 134.013 141.497"
	 xml:space="preserve">
<g>
	<path fill="#434343" d="M72.007,79.656l-3.213-4.976c-0.3-0.465-0.92-0.599-1.382-0.298c-0.465,0.299-0.598,0.918-0.298,1.382
		l2.216,3.517h-4.13l0.001-1.934c-0.189-0.193-0.489-0.204-0.67-0.025l-3.232,2.515c-0.18,0.18-0.169,0.479,0.021,0.672l3.208,2.487
		c0.192,0.189,0.492,0.199,0.67,0.021L65.2,81.2h5.967c0.366,0,0.703-0.2,0.879-0.521C72.221,80.355,72.207,79.964,72.007,79.656z"
		/>
	<path fill="#434343" d="M56.208,79.283h-5.161l2.591-3.982l1.36,0.951c0.268-0.045,0.448-0.285,0.404-0.535l-0.208-4.09
		c-0.045-0.25-0.297-0.414-0.563-0.367l-3.877,1.205c-0.266,0.049-0.445,0.289-0.4,0.537l1.653,1.156l-3.55,5.498
		c-0.199,0.308-0.214,0.699-0.038,1.021c0.175,0.321,0.512,0.521,0.878,0.521h6.997c0.553,0,1-0.447,1-1
		C57.294,79.645,56.76,79.283,56.208,79.283z"/>
	<path fill="#434343" d="M61.417,70.533l3.897,1.256c0.25,0.047,0.492-0.131,0.543-0.396l0.249-4.052
		c0.049-0.267-0.111-0.521-0.36-0.565l-1.427,0.972l-3.247-5.028c-0.367-0.57-1.312-0.571-1.68,0.001l-3.019,4.675
		c-0.3,0.465-0.167,1.082,0.298,1.383c0.463,0.3,1.083,0.166,1.382-0.299l2.179-3.373l2.434,3.769l-1.604,1.093
		C61.007,70.231,61.167,70.486,61.417,70.533z"/>
</g>
</svg>
