<?xml version="1.0" encoding="utf-8"?>
<!-- Generator: Adobe Illustrator 15.0.0, SVG Export Plug-In . SVG Version: 6.00 Build 0)  -->
<!DOCTYPE svg PUBLIC "-//W3C//DTD SVG 1.0//EN" "http://www.w3.org/TR/2001/REC-SVG-20010904/DTD/svg10.dtd">
<svg version="1.0" id="Layer_1" xmlns="http://www.w3.org/2000/svg" xmlns:xlink="http://www.w3.org/1999/xlink" x="0px" y="0px"
	 width="134.013px" height="141.497px" viewBox="0 0 134.013 141.497" enable-background="new 0 0 134.013 141.497"
	 xml:space="preserve">
<g>
	<path fill="#434343" d="M58.921,77.215v-6.049l3.215,2.799c0.392,0.392,1.023,0.392,1.414,0c0.391-0.391,0.391-1.022,0-1.414
		l-5.629-5.213l-5.629,5.213C52.097,72.746,52,73.002,52,73.258s0.098,0.513,0.293,0.707c0.391,0.392,1.022,0.392,1.414,0
		l3.215-2.799v6.049c0,0.554,0.447,1,1,1S58.921,77.768,58.921,77.215z"/>
	<path fill="#434343" d="M63.55,58.551c-0.391-0.391-1.023-0.391-1.414,0l-3.215,2.834v-6.086c0-0.553-0.447-1-1-1s-1,0.447-1,1
		v6.086l-3.215-2.791c-0.392-0.391-1.023-0.391-1.414,0C52.097,58.789,52,59.045,52,59.301s0.098,0.512,0.293,0.707l5.629,5.205
		l5.629-5.248C63.941,59.574,63.941,58.94,63.55,58.551z"/>
</g>
</svg>
