<?xml version="1.0" encoding="utf-8"?>
<!-- Generator: Adobe Illustrator 15.0.0, SVG Export Plug-In . SVG Version: 6.00 Build 0)  -->
<!DOCTYPE svg PUBLIC "-//W3C//DTD SVG 1.0//EN" "http://www.w3.org/TR/2001/REC-SVG-20010904/DTD/svg10.dtd">
<svg version="1.0" id="Layer_1" xmlns="http://www.w3.org/2000/svg" xmlns:xlink="http://www.w3.org/1999/xlink" x="0px" y="0px"
	 width="134.013px" height="141.497px" viewBox="0 0 134.013 141.497" enable-background="new 0 0 134.013 141.497"
	 xml:space="preserve">
<g>
	<g>
		<path fill="#434343" d="M75.154,59.878L67.205,52l-7.883,7.881l4.933-0.001l0.008,8.375c0,1.097,0.932,1.641,2.965,1.641
			s2.963-0.544,2.963-1.641l-0.008-8.375L75.154,59.878z"/>
	</g>
	<path fill="#434343" d="M58.312,47.891c0-1.087,0.941-1.969,2.102-1.969h13.711c1.162,0,2.104,0.882,2.104,1.969l0,0
		c0,1.087-0.941,1.969-2.104,1.969H60.414C59.253,49.859,58.312,48.978,58.312,47.891L58.312,47.891z"/>
</g>
</svg>
