<?xml version="1.0" encoding="utf-8"?>
<!-- Generator: Adobe Illustrator 15.0.0, SVG Export Plug-In . SVG Version: 6.00 Build 0)  -->
<!DOCTYPE svg PUBLIC "-//W3C//DTD SVG 1.0//EN" "http://www.w3.org/TR/2001/REC-SVG-20010904/DTD/svg10.dtd">
<svg version="1.0" id="Layer_1" xmlns="http://www.w3.org/2000/svg" xmlns:xlink="http://www.w3.org/1999/xlink" x="0px" y="0px"
	 width="134.013px" height="141.497px" viewBox="0 0 134.013 141.497" enable-background="new 0 0 134.013 141.497"
	 xml:space="preserve">
<g>
	<path fill="#434343" d="M76.805,57.847c2.555-2.483,4.099-5.055,3.204-6.744c-0.3-0.565-1.015-1.241-2.721-1.241
		c-1.185,0-2.683,0.337-4.323,0.932c-0.732-2.854-1.945-4.918-3.604-4.918c-1.67,0-2.889,2.094-3.619,4.982
		c-1.639-0.597-3.135-0.935-4.317-0.935c-1.7,0-2.413,0.676-2.714,1.241c-0.882,1.671,0.614,4.202,3.113,6.663
		c-2.538,2.476-4.065,5.031-3.175,6.715c0.302,0.566,1.016,1.24,2.722,1.24c1.197,0,2.715-0.343,4.377-0.949
		c0.73,2.875,1.947,4.957,3.613,4.957c1.652,0,2.863-2.047,3.596-4.887c1.647,0.602,3.151,0.941,4.339,0.941
		c1.7,0,2.414-0.676,2.714-1.241c0.644-1.215,0.061-2.983-1.684-5.112C77.88,58.947,77.367,58.396,76.805,57.847z M77.289,50.94
		c0.962,0,1.623,0.25,1.863,0.701c0.521,0.985-0.638,3.121-3.102,5.495c-0.729-0.655-1.526-1.307-2.381-1.937
		c-0.094-1.165-0.249-2.303-0.466-3.363C74.764,51.266,76.18,50.94,77.289,50.94z M71.024,61.019
		c-0.579,0.365-1.159,0.697-1.737,1.017c-0.537-0.299-1.076-0.612-1.614-0.952c-0.583-0.368-1.131-0.742-1.658-1.118
		c-0.044-0.684-0.07-1.393-0.07-2.132c0-0.733,0.026-1.438,0.069-2.118c0.517-0.366,1.053-0.729,1.622-1.09
		c0.551-0.346,1.103-0.665,1.652-0.97c0.586,0.322,1.174,0.661,1.762,1.031c0.574,0.361,1.128,0.738,1.664,1.121
		c0.04,0.651,0.064,1.324,0.064,2.024c0,0.71-0.025,1.392-0.065,2.051C72.176,60.265,71.619,60.646,71.024,61.019z M72.603,61.243
		c-0.086,0.801-0.202,1.547-0.34,2.243c-0.611-0.256-1.233-0.535-1.871-0.858c0.376-0.218,0.753-0.438,1.128-0.674
		C71.884,61.726,72.245,61.487,72.603,61.243z M68.183,62.619c-0.591,0.296-1.17,0.556-1.738,0.794
		c-0.126-0.649-0.232-1.345-0.313-2.085c0.346,0.235,0.695,0.468,1.048,0.689C67.513,62.228,67.848,62.423,68.183,62.619z
		 M64.976,59.194c-0.589-0.457-1.135-0.912-1.638-1.363c0.503-0.447,1.049-0.899,1.638-1.353c-0.019,0.451-0.031,0.902-0.031,1.354
		C64.944,58.285,64.957,58.739,64.976,59.194z M66.128,54.351c0.08-0.735,0.186-1.43,0.311-2.075
		c0.568,0.235,1.148,0.498,1.74,0.793c-0.347,0.202-0.693,0.403-1.039,0.62C66.801,53.902,66.462,54.124,66.128,54.351z
		 M70.396,53.062c0.639-0.321,1.262-0.601,1.874-0.854c0.136,0.694,0.25,1.44,0.335,2.239c-0.347-0.236-0.7-0.469-1.061-0.696
		C71.163,53.509,70.78,53.284,70.396,53.062z M73.751,56.577c0.539,0.418,1.049,0.843,1.529,1.271
		c-0.473,0.421-0.982,0.844-1.53,1.268c0.017-0.429,0.027-0.855,0.027-1.282C73.778,57.415,73.768,56.996,73.751,56.577z
		 M69.361,46.835c0.968,0,1.999,1.629,2.673,4.319c-0.892,0.364-1.812,0.8-2.746,1.298c-0.89-0.473-1.766-0.883-2.616-1.232
		C67.346,48.489,68.386,46.835,69.361,46.835z M59.568,51.704c0.238-0.451,0.897-0.7,1.856-0.7c1.106,0,2.522,0.325,4.081,0.899
		c-0.203,1.014-0.352,2.094-0.443,3.203c-0.877,0.645-1.717,1.32-2.485,2.014C60.177,54.777,59.054,52.679,59.568,51.704z
		 M61.372,64.702c-0.963,0-1.623-0.248-1.862-0.7c-0.52-0.98,0.626-3.103,3.068-5.465c0.768,0.698,1.607,1.381,2.485,2.03
		c0.094,1.113,0.243,2.201,0.449,3.219C63.928,64.372,62.493,64.702,61.372,64.702z M69.361,68.829c-0.973,0-2.01-1.646-2.684-4.362
		c0.849-0.349,1.722-0.761,2.609-1.229c0.932,0.499,1.85,0.936,2.74,1.301C71.353,67.212,70.327,68.829,69.361,68.829z
		 M79.155,64.063c-0.239,0.451-0.898,0.699-1.858,0.699c-1.11,0-2.532-0.327-4.099-0.904c0.218-1.062,0.375-2.203,0.47-3.373
		c0.837-0.618,1.642-1.267,2.379-1.931c0.573,0.556,1.097,1.109,1.545,1.657C78.96,61.885,79.543,63.324,79.155,64.063z"/>
	<ellipse fill="#434343" cx="69.331" cy="57.837" rx="1.969" ry="1.984"/>
</g>
</svg>
