<?xml version="1.0" encoding="utf-8"?>
<!-- Generator: Adobe Illustrator 15.0.0, SVG Export Plug-In . SVG Version: 6.00 Build 0)  -->
<!DOCTYPE svg PUBLIC "-//W3C//DTD SVG 1.0//EN" "http://www.w3.org/TR/2001/REC-SVG-20010904/DTD/svg10.dtd">
<svg version="1.0" id="Layer_1" xmlns="http://www.w3.org/2000/svg" xmlns:xlink="http://www.w3.org/1999/xlink" x="0px" y="0px"
	 width="134.013px" height="141.497px" viewBox="0 0 134.013 141.497" enable-background="new 0 0 134.013 141.497"
	 xml:space="preserve">
<path fill="#434343" d="M55.515,61.832c-1.004,1.004-3.153,0.976-6.277-2.147c-3.123-3.123-3.062-5.365-2.148-6.277
	c0.912-0.912,1.32,0.682,3.532-0.704c2.212-1.386,2.69-2.853,3.464-2.079l4.213,4.213c0.773,0.772-1.193,1.754-2.079,3.464
	C55.396,59.89,56.519,60.83,55.515,61.832z"/>
<path fill="#434343" d="M69.26,71.354c-0.261,0.261-0.778,0.164-1.158-0.215L57.696,60.733c-0.379-0.379-0.475-0.896-0.214-1.157
	l1.061-1.062c0.26-0.261,0.778-0.164,1.157,0.215l10.406,10.406c0.38,0.379,0.475,0.897,0.215,1.157L69.26,71.354z"/>
<rect x="49.482" y="49.482" transform="matrix(-0.7079 -0.7063 0.7063 -0.7079 49.3599 122.2542)" fill="#434343" width="0.958" height="2.875"/>
</svg>
