<?xml version="1.0" encoding="utf-8"?>
<!-- Generator: Adobe Illustrator 15.0.0, SVG Export Plug-In . SVG Version: 6.00 Build 0)  -->
<!DOCTYPE svg PUBLIC "-//W3C//DTD SVG 1.0//EN" "http://www.w3.org/TR/2001/REC-SVG-20010904/DTD/svg10.dtd">
<svg version="1.0" id="Layer_1" xmlns="http://www.w3.org/2000/svg" xmlns:xlink="http://www.w3.org/1999/xlink" x="0px" y="0px"
	 width="220px" height="227px" viewBox="0 0 220 227" enable-background="new 0 0 220 227" xml:space="preserve">
<path fill="#434343" d="M115.32,109.819c0.591-0.452,1.167-0.917,1.727-1.405c4.406-3.854,4.635-4.311,5.152-4.832
	c1.229-1.229,1.303-3.146,0.164-4.285c-1.141-1.139-3.059-1.065-4.287,0.162c-0.521,0.521-0.979,0.746-4.83,5.154
	c-3.788,4.334-6.659,9.688-12.229,14.762l-0.412-0.414c-0.204-0.201-0.645-0.09-0.987,0.252c-0.341,0.344-0.454,0.783-0.251,0.986
	l2.064,2.062c0.202,0.205,0.645,0.093,0.984-0.25c0.345-0.342,0.457-0.782,0.253-0.985l-0.412-0.414
	C106.682,115.333,111.33,112.869,115.32,109.819"/>
</svg>
