<?xml version="1.0" encoding="utf-8"?>
<!-- Generator: Adobe Illustrator 15.0.0, SVG Export Plug-In . SVG Version: 6.00 Build 0)  -->
<!DOCTYPE svg PUBLIC "-//W3C//DTD SVG 1.0//EN" "http://www.w3.org/TR/2001/REC-SVG-20010904/DTD/svg10.dtd">
<svg version="1.0" id="Layer_1" xmlns="http://www.w3.org/2000/svg" xmlns:xlink="http://www.w3.org/1999/xlink" x="0px" y="0px"
	 width="220px" height="227px" viewBox="0 0 220 227" enable-background="new 0 0 220 227" xml:space="preserve">
<path fill="#434343" d="M121.046,101.85h-15.992c-1.088,0-1.97,0.882-1.97,1.97l0.016,20.944c0,0.56,0.43,1.014,0.958,1.014
	c0.53,0,0.96-0.454,0.96-1.014v-1.036c0.013,0,0.023,0.004,0.036,0.004h15.992c0.019,0,0.034-0.005,0.054-0.006v1.038
	c0,0.56,0.421,1.014,0.938,1.014c0.518,0,0.938-0.454,0.938-1.014l0.041-20.944C123.017,102.731,122.135,101.85,121.046,101.85z
	 M120.018,103.819h1.083v4h-1.083V103.819z M118.018,103.819h1.083v4h-1.083V103.819z M116.018,103.819h1.083v4h-1.083V103.819z
	 M122.084,116.881h-18.181v-1.125h18.181V116.881z M104.976,114.86v-4.042h1.125v4.042H104.976z M106.976,114.86v-4.042h1.125v4.042
	H106.976z M108.976,114.86v-4.042h1.125v4.042H108.976z M122.084,109.881h-18.181v-1.125h18.181V109.881z"/>
</svg>
