<?xml version="1.0" encoding="utf-8"?>
<!-- Generator: Adobe Illustrator 15.0.0, SVG Export Plug-In . SVG Version: 6.00 Build 0)  -->
<!DOCTYPE svg PUBLIC "-//W3C//DTD SVG 1.0//EN" "http://www.w3.org/TR/2001/REC-SVG-20010904/DTD/svg10.dtd">
<svg version="1.0" id="Layer_1" xmlns="http://www.w3.org/2000/svg" xmlns:xlink="http://www.w3.org/1999/xlink" x="0px" y="0px"
	 width="220px" height="227px" viewBox="0 0 220 227" enable-background="new 0 0 220 227" xml:space="preserve">
<g>
	<path fill="#434343" d="M124.361,106.25c-1.438,0-9.78-0.349-11-0.349c-1.219,0-2.938,1.485-2.938,3.863l0,0
		c0,2.378,1.604,4.012,2.958,4.012s9.823-0.444,10.979-0.444s4-0.578,4-3.566C128.361,106.777,125.8,106.25,124.361,106.25z"/>
	<path fill="#434343" d="M109.362,106.809c0,0.553-0.269,1-0.6,1h-1.8c-0.331,0-0.6-0.447-0.6-1v-3c0-0.553,0.269-1,0.6-1l2.4,3
		V106.809z"/>
	<path fill="#434343" d="M109.362,113.809l-2.4,3c-0.331,0-0.6-0.447-0.6-1v-3c0-0.553,0.269-1,0.6-1h1.801c0.331,0,0.6,0.447,0.6,1
		L109.362,113.809L109.362,113.809z"/>
	<path fill="#434343" d="M109.32,109.819c0,0.546-0.445,0.988-0.994,0.988h-2.928c-0.549,0-0.994-0.441-0.994-0.988l0,0
		c0-0.547,0.445-0.99,0.994-0.99h2.928C108.875,108.83,109.32,109.272,109.32,109.819L109.32,109.819z"/>
</g>
</svg>
