<?xml version="1.0" encoding="utf-8"?>
<!-- Generator: Adobe Illustrator 15.0.0, SVG Export Plug-In . SVG Version: 6.00 Build 0)  -->
<!DOCTYPE svg PUBLIC "-//W3C//DTD SVG 1.0//EN" "http://www.w3.org/TR/2001/REC-SVG-20010904/DTD/svg10.dtd">
<svg version="1.0" id="Layer_1" xmlns="http://www.w3.org/2000/svg" xmlns:xlink="http://www.w3.org/1999/xlink" x="0px" y="0px"
	 width="220px" height="227px" viewBox="0 0 220 227" enable-background="new 0 0 220 227" xml:space="preserve">
<path fill="#434343" d="M111.859,108.648l-8.004,3.299l-3.965-1.824l6.965-3.037L111.859,108.648z M123.762,109.96l-6.969-3.812
	l-3.939,2.443l7.377,3.512L123.762,109.96z M109.037,120.362l-5.171-2.385v1.733l7.892,3.365v-5.336L109.037,120.362z
	 M103.753,113.13l-2.742,2.742l8.004,3.244l2.742-2.741L103.753,113.13z M112.83,117.471v5.606l7.982-3.364v-1.734l-5.23,2.113
	L112.83,117.471z M112.861,116.361l2.782,2.742l8.12-3.244l-2.782-2.742L112.861,116.361z"/>
</svg>
