<?xml version="1.0" encoding="utf-8"?>
<!-- Generator: Adobe Illustrator 15.0.0, SVG Export Plug-In . SVG Version: 6.00 Build 0)  -->
<!DOCTYPE svg PUBLIC "-//W3C//DTD SVG 1.0//EN" "http://www.w3.org/TR/2001/REC-SVG-20010904/DTD/svg10.dtd">
<svg version="1.0" id="Layer_1" xmlns="http://www.w3.org/2000/svg" xmlns:xlink="http://www.w3.org/1999/xlink" x="0px" y="0px"
	 width="220px" height="227px" viewBox="0 0 220 227" enable-background="new 0 0 220 227" xml:space="preserve">
<path fill="#434343" d="M121.823,113.021c2.302-0.758,3.698-1.513,3.601-2.066c-0.101-0.554-1.678-0.795-4.104-0.733
	c1.896-1.484,2.948-2.664,2.661-3.15c-0.286-0.488-1.852-0.185-4.109,0.688c1.266-2.03,1.842-3.491,1.402-3.854
	c-0.438-0.361-1.805,0.449-3.623,2.027c0.48-2.334,0.516-3.9-0.023-4.095c-0.537-0.192-1.537,1.027-2.695,3.119
	c-0.361-2.354-0.877-3.84-1.449-3.84s-1.089,1.484-1.449,3.84c-1.158-2.092-2.159-3.313-2.698-3.123
	c-0.539,0.193-0.506,1.763-0.024,4.097c-1.816-1.576-3.185-2.39-3.624-2.027c-0.438,0.362,0.14,1.824,1.404,3.854
	c-2.259-0.87-3.826-1.176-4.113-0.688c-0.287,0.488,0.767,1.668,2.664,3.152c-2.426-0.062-4.004,0.178-4.104,0.733
	c-0.102,0.553,1.3,1.31,3.601,2.066c-2.301,0.758-3.7,1.514-3.601,2.067c0.099,0.555,1.679,0.795,4.104,0.733
	c-1.896,1.483-2.951,2.662-2.663,3.149c0.287,0.487,1.854,0.185,4.111-0.687c-1.268,2.031-1.844,3.492-1.404,3.854
	c0.441,0.361,1.808-0.449,3.624-2.025c-0.48,2.334-0.515,3.902,0.024,4.094c0.54,0.193,1.542-1.027,2.701-3.123
	c0.359,2.355,0.877,3.842,1.448,3.842c0.572,0,1.088-1.484,1.449-3.842c1.159,2.094,2.159,3.314,2.698,3.121
	c0.539-0.189,0.506-1.76,0.022-4.094c1.817,1.576,3.185,2.389,3.623,2.025c0.438-0.361-0.137-1.822-1.403-3.854
	c2.258,0.871,3.823,1.174,4.11,0.688c0.287-0.488-0.767-1.668-2.662-3.15c2.425,0.059,4.002-0.182,4.103-0.736
	C125.522,114.533,124.123,113.778,121.823,113.021z"/>
</svg>
