<?xml version="1.0" encoding="utf-8"?>
<!-- Generator: Adobe Illustrator 15.0.0, SVG Export Plug-In . SVG Version: 6.00 Build 0)  -->
<!DOCTYPE svg PUBLIC "-//W3C//DTD SVG 1.0//EN" "http://www.w3.org/TR/2001/REC-SVG-20010904/DTD/svg10.dtd">
<svg version="1.0" id="Layer_1" xmlns="http://www.w3.org/2000/svg" xmlns:xlink="http://www.w3.org/1999/xlink" x="0px" y="0px"
	 width="220px" height="227px" viewBox="0 0 220 227" enable-background="new 0 0 220 227" xml:space="preserve">
<g>
	<g>
		<path fill="#434343" d="M116.673,130.148c-6.571,0-11.917-5.346-11.917-11.916c0-6.569,5.346-11.917,11.917-11.917
			c6.571,0,11.917,5.347,11.917,11.917C128.59,124.803,123.244,130.148,116.673,130.148z M116.673,108.302
			c-5.468,0-9.917,4.454-9.917,9.931s4.449,9.931,9.917,9.931s9.917-4.454,9.917-9.931S122.141,108.302,116.673,108.302z"/>
	</g>
	<g>
		<path fill="#434343" d="M111.676,118.348l4.928,5.846l4.875-5.848H118.5V114c0-0.689-0.648-1.589-1.909-1.589
			c-1.259,0-1.948,0.974-1.948,1.664v4.271L111.676,118.348z"/>
	</g>
</g>
</svg>
