<?xml version="1.0" encoding="utf-8"?>
<!-- Generator: Adobe Illustrator 15.0.0, SVG Export Plug-In . SVG Version: 6.00 Build 0)  -->
<!DOCTYPE svg PUBLIC "-//W3C//DTD SVG 1.0//EN" "http://www.w3.org/TR/2001/REC-SVG-20010904/DTD/svg10.dtd">
<svg version="1.0" id="Layer_1" xmlns="http://www.w3.org/2000/svg" xmlns:xlink="http://www.w3.org/1999/xlink" x="0px" y="0px"
	 width="220px" height="227px" viewBox="0 0 220 227" enable-background="new 0 0 220 227" xml:space="preserve">
<g>
	<path fill="#434343" d="M115.279,108.053l-7.813,1l-7.933-1c-2.243,0-4.063,1.855-4.063,4.145v7.587
		c0,2.288,1.82,4.145,4.063,4.145l7.933-1l7.813,1c2.244,0,4.063-1.854,4.063-4.145v-7.587
		C119.344,109.908,117.523,108.053,115.279,108.053z M106.531,120.178h-2.188v-3.031h-3.812v3.031h-2.188v-8.25h2.188v3.031h3.812
		v-3.031h2.188V120.178z M111.619,120.219h-3.275v-8.259l3.275-0.001c3.682,0,4.912,1.314,4.912,4.132
		C116.531,118.903,115.469,120.219,111.619,120.219z"/>
	<path fill="#434343" d="M112.055,114.146H110.5V118h1.555c1.289-0.02,2.33-0.32,2.33-1.927
		C114.385,114.469,113.344,114.165,112.055,114.146z"/>
</g>
</svg>
