<?xml version="1.0" encoding="utf-8"?>
<!-- Generator: Adobe Illustrator 15.0.0, SVG Export Plug-In . SVG Version: 6.00 Build 0)  -->
<!DOCTYPE svg PUBLIC "-//W3C//DTD SVG 1.0//EN" "http://www.w3.org/TR/2001/REC-SVG-20010904/DTD/svg10.dtd">
<svg version="1.0" id="Layer_1" xmlns="http://www.w3.org/2000/svg" xmlns:xlink="http://www.w3.org/1999/xlink" x="0px" y="0px"
	 width="220px" height="227px" viewBox="0 0 220 227" enable-background="new 0 0 220 227" xml:space="preserve">
<g>
	<path fill="#434343" d="M113.133,118.805l-1.746-1.74c0,0-1.346-2.03-3.401-0.082l5.122,5.108
		C114.984,120.219,113.133,118.805,113.133,118.805z"/>
	<path fill="#434343" d="M91.375,102.396c-4.404,4.396,3.431,11.915,6.125,14.604c2.693,2.688,10.272,10.467,14.68,6.072
		l-5.145-5.129c-0.031,0.031-1.22,1.205-0.943,0.935c-0.508,0.505-2.117-0.36-2.577-0.817l-7.146-7.128
		c-0.455-0.455-1.271-2.01-0.765-2.515l0,0c0.177-0.178,0.896-0.915,0.929-0.948l-5.117-5.106
		C91.4,102.374,91.389,102.385,91.375,102.396z"/>
	<path fill="#434343" d="M97.507,106.53c1.726-1.845-0.093-3.4-0.093-3.4l-1.723-1.719c0,0-1.645-1.678-3.321-0.004L97.507,106.53z"
		/>
	<path fill="#434343" d="M111.234,111.377l2.513-2.14c0.315-0.309,0.315-0.807,0-1.115l-2.513-2.139
		c-0.34-0.331-1.19-0.452-1.19-0.048v1.761h-3.922c-0.559,0-1.01,0.424-1.01,0.946s0.451,0.946,1.01,0.946h3.922v1.739
		C110.043,111.606,110.861,111.636,111.234,111.377z"/>
</g>
</svg>
