<?xml version="1.0" encoding="utf-8"?>
<!-- Generator: Adobe Illustrator 15.0.0, SVG Export Plug-In . SVG Version: 6.00 Build 0)  -->
<!DOCTYPE svg PUBLIC "-//W3C//DTD SVG 1.0//EN" "http://www.w3.org/TR/2001/REC-SVG-20010904/DTD/svg10.dtd">
<svg version="1.0" id="Layer_1" xmlns="http://www.w3.org/2000/svg" xmlns:xlink="http://www.w3.org/1999/xlink" x="0px" y="0px"
	 width="220px" height="227px" viewBox="0 0 220 227" enable-background="new 0 0 220 227" xml:space="preserve">
<path fill="#434343" d="M117.854,118.541h-2.885l-2.602-5.441c-0.227-0.475-0.788-0.666-1.254-0.428l-0.105,0.055
	c-0.466,0.238-0.659,0.816-0.433,1.291l2.161,4.523h-11.451l2.207-4.516c0.23-0.472,0.042-1.052-0.422-1.295l-0.105-0.056
	c-0.464-0.242-1.026-0.057-1.258,0.416l-2.664,5.449h-2.959c-0.6,0-1.084,0.451-1.084,1.006v0.818c0,0.555,0.484,1.006,1.084,1.006
	h1.083l0.672,9.17c0,0,0.078,1.959,3.161,1.959s8.792,0,12,0s3.164-2,3.164-2l0.544-9.129h1.146c0.601,0,1.084-0.451,1.084-1.006
	v-0.818C118.938,118.992,118.453,118.541,117.854,118.541z M100,120.623h-1.041v-1.082H100V120.623z M103.042,129.6
	c0,0.521-0.458,0.941-1.021,0.941h-0.043c-0.564,0-1.021-0.422-1.021-0.941v-7.116c0-0.521,0.456-0.941,1.021-0.941h0.043
	c0.562,0,1.021,0.422,1.021,0.941V129.6z M108.042,129.6c0,0.521-0.458,0.941-1.021,0.941h-0.043c-0.564,0-1.021-0.422-1.021-0.941
	v-7.116c0-0.521,0.456-0.941,1.021-0.941h0.043c0.562,0,1.021,0.422,1.021,0.941V129.6z M113.042,129.6
	c0,0.521-0.458,0.941-1.021,0.941h-0.043c-0.564,0-1.021-0.422-1.021-0.941v-7.116c0-0.521,0.456-0.941,1.021-0.941h0.043
	c0.562,0,1.021,0.422,1.021,0.941V129.6z M115,120.623h-1.041v-1.082H115V120.623z"/>
</svg>
