<?xml version="1.0" encoding="utf-8"?>
<!-- Generator: Adobe Illustrator 15.0.0, SVG Export Plug-In . SVG Version: 6.00 Build 0)  -->
<!DOCTYPE svg PUBLIC "-//W3C//DTD SVG 1.0//EN" "http://www.w3.org/TR/2001/REC-SVG-20010904/DTD/svg10.dtd">
<svg version="1.0" id="Layer_1" xmlns="http://www.w3.org/2000/svg" xmlns:xlink="http://www.w3.org/1999/xlink" x="0px" y="0px"
	 width="220px" height="227px" viewBox="0 0 220 227" enable-background="new 0 0 220 227" xml:space="preserve">
<rect x="85.959" y="113.541" fill="none" width="1.041" height="1.082"/>
<g>
	<polygon fill="#434343" points="123.136,123.142 118.979,127.298 116.908,125.227 115.542,126.593 118.986,130.03 124.505,124.512 
			"/>
	<rect x="104.417" y="117.059" fill="#434343" width="1.041" height="1.083"/>
	<rect x="119.417" y="117.059" fill="#434343" width="1.041" height="1.083"/>
	<rect x="104.417" y="117.059" fill="#434343" width="1.041" height="1.083"/>
	<rect x="119.417" y="117.059" fill="#434343" width="1.041" height="1.083"/>
	<rect x="104.417" y="117.059" fill="#434343" width="1.041" height="1.083"/>
	<rect x="119.417" y="117.059" fill="#434343" width="1.041" height="1.083"/>
	<rect x="104.417" y="117.059" fill="#434343" width="1.041" height="1.083"/>
	<rect x="119.417" y="117.059" fill="#434343" width="1.041" height="1.083"/>
	<path fill="#434343" d="M123.312,116.059h-2.885l-2.602-5.441c-0.228-0.475-0.788-0.666-1.254-0.427l-0.105,0.054
		c-0.466,0.238-0.659,0.816-0.433,1.291l2.162,4.523h-11.452l2.207-4.516c0.229-0.472,0.042-1.052-0.422-1.295l-0.105-0.055
		c-0.464-0.243-1.025-0.059-1.258,0.415l-2.664,5.449h-2.959c-0.6,0-1.084,0.45-1.084,1.006v0.817c0,0.557,0.484,1.007,1.084,1.007
		h1.083l0.672,9.17c0,0,0.078,1.959,3.161,1.959c2.816,0,7.678,0,10.969,0l-3.483-3.554l2.474-2.469v-3.996
		c0-0.52,0.456-0.94,1.021-0.94h0.043c0.562,0,1.021,0.422,1.021,0.94v5.312l0.411,0.309l3.037-3.08l0.218-3.651h1.146
		c0.601,0,1.084-0.45,1.084-1.007v-0.817C124.396,116.509,123.911,116.059,123.312,116.059z M105.458,118.142h-1.041v-1.083h1.041
		V118.142z M108.5,127.117c0,0.521-0.458,0.941-1.021,0.941h-0.043c-0.564,0-1.021-0.423-1.021-0.941V120
		c0-0.52,0.456-0.94,1.021-0.94h0.043c0.562,0,1.021,0.422,1.021,0.94V127.117z M113.5,127.117c0,0.521-0.458,0.941-1.021,0.941
		h-0.043c-0.564,0-1.021-0.423-1.021-0.941V120c0-0.52,0.456-0.94,1.021-0.94h0.043c0.562,0,1.021,0.422,1.021,0.94V127.117z
		 M120.458,118.142h-1.041v-1.083h1.041V118.142z"/>
</g>
</svg>
