<?xml version="1.0" encoding="utf-8"?>
<!-- Generator: Adobe Illustrator 15.0.0, SVG Export Plug-In . SVG Version: 6.00 Build 0)  -->
<!DOCTYPE svg PUBLIC "-//W3C//DTD SVG 1.0//EN" "http://www.w3.org/TR/2001/REC-SVG-20010904/DTD/svg10.dtd">
<svg version="1.0" id="Layer_1" xmlns="http://www.w3.org/2000/svg" xmlns:xlink="http://www.w3.org/1999/xlink" x="0px" y="0px"
	 width="220px" height="227px" viewBox="0 0 220 227" enable-background="new 0 0 220 227" xml:space="preserve">
<g>
	<path fill="#434343" d="M108.151,95.937v-3.081H93.359v3.081h-3.992v7.153c0,3.193,2.459,5.819,5.582,6.095
		c1.027,1.229,2.842,2.123,4.452,2.504v2.158c-1.538,0.527-3.424,1.488-3.581,2.84h3.179h3.473h3.18
		c-0.158-1.352-1.96-2.312-3.499-2.84v-2.158c1.611-0.381,3.341-1.274,4.369-2.504c3.123-0.274,5.581-2.901,5.581-6.095v-7.153
		H108.151z M91.109,103.366v-5.595h2.146v6.777c0,1.034,0.222,2.014,0.609,2.899C92.259,106.829,91.109,105.233,91.109,103.366z
		 M103.495,105.073l-2.76-1.451l-2.76,1.451L98.5,102l-2.23-2.177l3.085-0.448l1.381-2.796l1.38,2.796l3.085,0.448L102.97,102
		L103.495,105.073z M110.359,103.349c0,1.875-1.148,3.478-2.754,4.1c0.387-0.889,0.608-1.873,0.608-2.911V97.73h2.146V103.349z"/>
</g>
</svg>
