<?xml version="1.0" encoding="utf-8"?>
<!-- Generator: Adobe Illustrator 15.0.0, SVG Export Plug-In . SVG Version: 6.00 Build 0)  -->
<!DOCTYPE svg PUBLIC "-//W3C//DTD SVG 1.0//EN" "http://www.w3.org/TR/2001/REC-SVG-20010904/DTD/svg10.dtd">
<svg version="1.0" id="Layer_1" xmlns="http://www.w3.org/2000/svg" xmlns:xlink="http://www.w3.org/1999/xlink" x="0px" y="0px"
	 width="220px" height="227px" viewBox="0 0 220 227" enable-background="new 0 0 220 227" xml:space="preserve">
<path fill="#434343" d="M89.868,87.748c-6.598,0-11.947,4.002-11.947,8.941c0,4.508,4.462,8.225,10.258,8.842l-3.176,5.133
	l9.28-5.672c4.41-1.314,7.534-4.533,7.534-8.303C101.817,91.75,96.467,87.748,89.868,87.748z M89.139,97.402
	c0,1.127-0.266,2.135-0.796,3.02c-0.531,0.887-1.4,1.396-2.609,1.529v-1.336c0.582-0.086,1.025-0.379,1.327-0.883
	c0.302-0.502,0.454-1.08,0.454-1.732c0-0.059-1.781-0.047-1.781-0.047v-3.408h3.405V97.402L89.139,97.402z M94.112,97.402
	c0,1.127-0.264,2.135-0.79,3.02c-0.526,0.887-1.391,1.396-2.591,1.529v-1.336c0.579-0.086,1.021-0.379,1.318-0.883
	c0.3-0.502,0.45-1.08,0.45-1.732c0-0.059-1.77-0.047-1.77-0.047v-3.408h3.381L94.112,97.402L94.112,97.402z"/>
</svg>
