<?xml version="1.0" encoding="utf-8"?>
<!-- Generator: Adobe Illustrator 15.0.0, SVG Export Plug-In . SVG Version: 6.00 Build 0)  -->
<!DOCTYPE svg PUBLIC "-//W3C//DTD SVG 1.0//EN" "http://www.w3.org/TR/2001/REC-SVG-20010904/DTD/svg10.dtd">
<svg version="1.0" id="Layer_1" xmlns="http://www.w3.org/2000/svg" xmlns:xlink="http://www.w3.org/1999/xlink" x="0px" y="0px"
	 width="220px" height="227px" viewBox="0 0 220 227" enable-background="new 0 0 220 227" xml:space="preserve">
<path fill="#434343" d="M103.083,107.518c-0.33,0.058-2.157,0.602-4.416,1.582c0.451,0.679,0.573,1.381,0.239,1.849
	c-0.521,0.729-1.945,0.607-3.184-0.273c-0.078-0.055-0.146-0.116-0.218-0.175c-4.171,1.87-8.506,3.895-8.506,3.895v3.784
	c1.812,0.184,3.231,1.641,3.247,3.437l11.64,1.019c0.218-1.423,1.099-2.488,2.154-2.488c1.149,0,2.082,1.262,2.188,2.868
	l3.646,0.318l0.365-3.27c-1.093-0.096-1.929-0.58-1.929-1.168c0-0.636,0.973-1.148,2.191-1.183c0,0,0.163-1.401,0.371-3.317
	C111.333,111.809,105.041,107.184,103.083,107.518z M107.015,110.83c0.837,0,1.518,0.498,1.518,1.109
	c0,0.61-0.681,1.108-1.518,1.108c-0.835,0-1.515-0.498-1.515-1.108C105.5,111.328,106.18,110.83,107.015,110.83z M103.656,109.018
	c1.019,0,1.844,0.42,1.844,0.938c0,0.518-0.825,0.938-1.844,0.938c-1.02,0-1.844-0.42-1.844-0.938
	C101.812,109.438,102.638,109.018,103.656,109.018z M94.953,111.955c0.854,0,1.547,0.42,1.547,0.938
	c0,0.519-0.692,0.938-1.547,0.938c-0.855,0-1.547-0.42-1.547-0.938C93.406,112.375,94.099,111.955,94.953,111.955z M95.812,119.018
	c-1.277,0-2.312-0.53-2.312-1.188s1.035-1.188,2.312-1.188c1.276,0,2.312,0.531,2.312,1.188S97.09,119.018,95.812,119.018z
	 M110.083,115.542h-5.082c-0.341,0.704-1.337,1.216-2.526,1.216c-1.19,0-2.187-0.512-2.526-1.216H87.969v-1.137h12.025
	c0.383-0.652,1.346-1.117,2.479-1.117c1.135,0,2.097,0.465,2.479,1.117h5.13V115.542L110.083,115.542z"/>
</svg>
