<?xml version="1.0" encoding="utf-8"?>
<!-- Generator: Adobe Illustrator 15.0.0, SVG Export Plug-In . SVG Version: 6.00 Build 0)  -->
<!DOCTYPE svg PUBLIC "-//W3C//DTD SVG 1.0//EN" "http://www.w3.org/TR/2001/REC-SVG-20010904/DTD/svg10.dtd">
<svg version="1.0" id="Layer_1" xmlns="http://www.w3.org/2000/svg" xmlns:xlink="http://www.w3.org/1999/xlink" x="0px" y="0px"
	 width="220px" height="227px" viewBox="0 0 220 227" enable-background="new 0 0 220 227" xml:space="preserve">
<path fill="#434343" d="M121.19,105.99c-0.18-0.445-0.374-0.875-0.553-1.269c-1.018-2.234-2.327-4.125-3.473-5.682
	c-1.185-1.605-2.533-3.06-4.126-4.445l-0.292-0.256c-0.644-0.568-1.25-1.106-2.112-1.452l-0.373,0.928
	c0.702,0.282,1.222,0.741,1.823,1.273l0.298,0.263c0.251,0.218,0.587,1.472,0.583,1.678c-0.005,0.148-0.006,0.282,0,0.384
	c0.039,0.885-0.11,1.855-0.459,2.969c-0.714,2.276-2.336,4.164-4.002,5.655c-0.294-0.05-0.593-0.081-0.9-0.081
	c-2.996,0-5.427,2.43-5.427,5.428s2.431,5.428,5.427,5.428c2.998,0,5.429-2.43,5.429-5.428c0-2.261-1.384-4.197-3.35-5.014
	c1.596-1.519,3.098-3.404,3.809-5.67c0.386-1.233,0.551-2.324,0.505-3.338c-0.005-0.082,1.648,1.305,2.362,2.272
	c1.116,1.514,2.39,3.352,3.403,5.58c0.108,0.238,0.227,0.497,0.343,0.766c-2.717,0.257-4.845,2.576-4.845,5.402
	c0,2.998,2.393,5.428,5.344,5.428s5.345-2.43,5.345-5.428C125.949,108.585,123.865,106.285,121.19,105.99z M104.686,114.759
	c-0.96-0.566-1.633-1.896-1.633-3.441c0-1.444,0.588-2.696,1.447-3.317c0.367-0.267,0.797,0.221,0.436,0.75
	c-0.455,0.668-0.733,1.572-0.733,2.567c0,1.068,0.32,2.029,0.835,2.709C105.383,114.483,105.006,114.949,104.686,114.759z
	 M117.686,114.759c-0.96-0.566-1.633-1.896-1.633-3.441c0-1.444,0.588-2.696,1.447-3.317c0.366-0.267,0.798,0.221,0.436,0.75
	c-0.455,0.668-0.733,1.572-0.733,2.567c0,1.068,0.32,2.029,0.835,2.709C118.383,114.483,118.006,114.949,117.686,114.759z"/>
</svg>
