<?xml version="1.0" encoding="utf-8"?>
<!-- Generator: Adobe Illustrator 15.0.0, SVG Export Plug-In . SVG Version: 6.00 Build 0)  -->
<!DOCTYPE svg PUBLIC "-//W3C//DTD SVG 1.0//EN" "http://www.w3.org/TR/2001/REC-SVG-20010904/DTD/svg10.dtd">
<svg version="1.0" id="Layer_1" xmlns="http://www.w3.org/2000/svg" xmlns:xlink="http://www.w3.org/1999/xlink" x="0px" y="0px"
	 width="220px" height="227px" viewBox="0 0 220 227" enable-background="new 0 0 220 227" xml:space="preserve">
<g>
	<rect x="97.021" y="101.541" fill="#434343" width="17.979" height="10.938"/>
	<rect x="94.021" y="98.521" fill="#434343" width="0.959" height="0.957"/>
	<rect x="94.083" y="114.604" fill="#434343" width="0.792" height="0.834"/>
	<path fill="#434343" d="M117.938,106.469V105.5h-0.976v-1.062l1.038,0.051v-0.957h-1.038v-1.094H118v-0.906h-1.038v-1.094H118
		v-0.906l-1.083-0.032v-0.984h-0.901V99.5h-1.03v-0.984h-0.981v1.016h-1.034v-1.016h-0.959v1.016h-1.034v-1.016h-0.959v1.016h-1.033
		v-1.016h-0.958v1.016h-1.046v-1.016h-0.948v1.016h-1.046v-1.016h-0.97V99.5h-1.086v-0.984h-0.906V99.5h-1.085v-0.984h-0.908V99.5
		h-1.086v-0.984h-0.906V99.5h-1.086v-0.984h-0.908V99.5h-1.036v1.031H94v0.906h1.007v1.094H94v0.906h1.007v1.094H94v0.906h1.007
		v1.166h-0.924v0.834h0.924v1.166h-0.924v0.834h0.924v1.166h-0.924v0.834h0.924v1.167h-0.924v0.834h0.924v0.979l1.087,0.068
		l-0.011,1.016h0.886l0.012-1.016h1.113l-0.011,1.016h0.886l0.012-1.016h1.113l-0.011,1.016h0.886l0.012-1.016h1.113l-0.011,1.016
		h0.886l0.012-1.016h1.113l-0.011,1.016h0.886l0.012-1.016h1.113l-0.011,1.016h0.886l0.012-1.016h1.087l-0.012,1.016h0.902
		l0.011-1.016h1.09l-0.011,1.016h0.903l0.012-1.016h1.089l-0.011,1.016h0.903l0.011-1.016h1.09l-0.011,1.016h0.903l0.01-1.016h1.09
		l-0.011,1.016h0.911v-1.031l0,0h1.016l-0.016-0.969h-0.976v-1.031h0.976V111.5h-0.976v-1.031h0.976V109.5h-0.976v-1.031h0.976
		V107.5h-0.976v-1.031H117.938z M116,113.531H95.969v-13.062H116V113.531z"/>
</g>
</svg>
