<?xml version="1.0" encoding="utf-8"?>
<!-- Generator: Adobe Illustrator 15.0.0, SVG Export Plug-In . SVG Version: 6.00 Build 0)  -->
<!DOCTYPE svg PUBLIC "-//W3C//DTD SVG 1.0//EN" "http://www.w3.org/TR/2001/REC-SVG-20010904/DTD/svg10.dtd">
<svg version="1.0" id="Layer_1" xmlns="http://www.w3.org/2000/svg" xmlns:xlink="http://www.w3.org/1999/xlink" x="0px" y="0px"
	 width="220px" height="227px" viewBox="0 0 220 227" enable-background="new 0 0 220 227" xml:space="preserve">
<g>
	<path fill="#434343" d="M102.954,93.525c0.971-0.307,2.004-0.473,3.075-0.473c1.098,0,2.152,0.178,3.145,0.498l0.676-1.641
		c-1.184-0.39-2.443-0.607-3.757-0.607c-1.33,0-2.606,0.225-3.805,0.625L102.954,93.525z"/>
	<path fill="#434343" d="M95.8,103.24c0-0.946,0.141-1.86,0.385-2.733l-1.616-0.664c-0.332,1.096-0.516,2.258-0.516,3.461
		c0,1.383,0.247,2.705,0.681,3.939l1.637-0.683C96.007,105.52,95.8,104.404,95.8,103.24z"/>
	<path fill="#434343" d="M117.469,107.199c0.423-1.224,0.664-2.531,0.664-3.896c0-1.221-0.188-2.4-0.528-3.512l-1.729,0.721
		c0.243,0.871,0.384,1.783,0.384,2.729c0,1.134-0.194,2.222-0.539,3.238L117.469,107.199z"/>
	<path fill="#434343" d="M110.937,94.305c1.832,1.002,3.314,2.551,4.248,4.418l1.699-0.707c-1.139-2.299-2.986-4.184-5.267-5.363
		L110.937,94.305z"/>
	<path fill="#434343" d="M96.877,98.719c0.943-1.889,2.45-3.449,4.311-4.449l-0.665-1.596c-2.272,1.189-4.112,3.082-5.242,5.387
		L96.877,98.719z"/>
	<path fill="#434343" d="M108.986,112.99c-0.938,0.283-1.929,0.438-2.956,0.438c-0.975,0-1.912-0.146-2.806-0.397l-0.713,1.731
		c1.132,0.353,2.335,0.541,3.581,0.541c1.263,0,2.479-0.197,3.624-0.557L108.986,112.99z"/>
	<path fill="#434343" d="M114.938,108.23c-0.972,1.713-2.426,3.119-4.179,4.033l0.729,1.752c2.216-1.113,4.045-2.881,5.217-5.057
		L114.938,108.23z"/>
	<path fill="#434343" d="M101.438,112.332c-1.788-0.898-3.274-2.303-4.271-4.025L95.5,109c1.181,2.172,3.018,3.93,5.238,5.035
		L101.438,112.332z"/>
</g>
</svg>
