<?xml version="1.0" encoding="utf-8"?>
<!-- Generator: Adobe Illustrator 15.0.0, SVG Export Plug-In . SVG Version: 6.00 Build 0)  -->
<!DOCTYPE svg PUBLIC "-//W3C//DTD SVG 1.0//EN" "http://www.w3.org/TR/2001/REC-SVG-20010904/DTD/svg10.dtd">
<svg version="1.0" id="Layer_1" xmlns="http://www.w3.org/2000/svg" xmlns:xlink="http://www.w3.org/1999/xlink" x="0px" y="0px"
	 width="220px" height="227px" viewBox="0 0 220 227" enable-background="new 0 0 220 227" xml:space="preserve">
<g>
	<path fill="#434343" d="M116.634,102.412c-5.262,5.262-8.943,9.993-7.142,11.795c2.52,2.52,5.121,4.025,6.559,3.598l-3.481-3.48
		c-0.47-0.469-0.488-1.208-0.045-1.652l14.52-14.52c0.445-0.443,1.184-0.425,1.652,0.045l3.464,3.464
		c0.411-1.413-1.04-3.937-3.612-6.507C126.745,93.352,121.896,97.148,116.634,102.412z"/>
	<path fill="#434343" d="M122.475,110.936c0.332,0.332,0.314,0.889-0.039,1.242l0,0c-0.354,0.354-0.909,0.371-1.242,0.039
		l-4.407-4.406c-0.334-0.336-0.316-0.892,0.037-1.246l0,0c0.354-0.354,0.91-0.371,1.244-0.037L122.475,110.936z"/>
	<path fill="#434343" d="M120.353,113.057c0.333,0.332,0.315,0.889-0.037,1.242l0,0c-0.355,0.354-0.91,0.371-1.244,0.039
		l-4.406-4.407c-0.334-0.334-0.317-0.89,0.037-1.245l0,0c0.354-0.354,0.91-0.371,1.244-0.037L120.353,113.057z"/>
	<path fill="#434343" d="M118.231,115.178c0.333,0.332,0.314,0.889-0.039,1.242l0,0c-0.354,0.354-0.909,0.372-1.243,0.039
		l-4.406-4.407c-0.334-0.334-0.317-0.89,0.037-1.243l0,0c0.354-0.354,0.91-0.373,1.244-0.037L118.231,115.178z"/>
	<path fill="#434343" d="M124.596,108.812c0.332,0.334,0.314,0.89-0.039,1.243l0,0c-0.354,0.354-0.909,0.371-1.242,0.039
		l-4.407-4.407c-0.334-0.334-0.316-0.891,0.037-1.244l0,0c0.354-0.354,0.909-0.371,1.245-0.037L124.596,108.812z"/>
	<path fill="#434343" d="M126.717,106.691c0.332,0.334,0.315,0.889-0.039,1.243l0,0c-0.354,0.354-0.91,0.371-1.242,0.038
		l-4.407-4.406c-0.334-0.334-0.316-0.892,0.037-1.244l0,0c0.354-0.354,0.909-0.371,1.244-0.037L126.717,106.691z"/>
	<path fill="#434343" d="M128.838,104.57c0.332,0.333,0.315,0.889-0.039,1.242l0,0c-0.354,0.354-0.91,0.373-1.242,0.039
		l-4.406-4.406c-0.335-0.334-0.317-0.892,0.036-1.244l0,0c0.354-0.354,0.91-0.371,1.245-0.037L128.838,104.57z"/>
	<path fill="#434343" d="M130.959,102.449c0.333,0.333,0.316,0.889-0.039,1.242l0,0c-0.354,0.354-0.91,0.373-1.242,0.039
		l-4.406-4.406c-0.335-0.334-0.317-0.892,0.036-1.244l0,0c0.354-0.354,0.911-0.372,1.245-0.037L130.959,102.449z"/>
</g>
</svg>
