<?xml version="1.0" encoding="utf-8"?>
<!-- Generator: Adobe Illustrator 15.0.0, SVG Export Plug-In . SVG Version: 6.00 Build 0)  -->
<!DOCTYPE svg PUBLIC "-//W3C//DTD SVG 1.0//EN" "http://www.w3.org/TR/2001/REC-SVG-20010904/DTD/svg10.dtd">
<svg version="1.0" id="Layer_1" xmlns="http://www.w3.org/2000/svg" xmlns:xlink="http://www.w3.org/1999/xlink" x="0px" y="0px"
	 width="220px" height="227px" viewBox="0 0 220 227" enable-background="new 0 0 220 227" xml:space="preserve">
<g>
	<path fill="#434343" d="M125.521,107.489c-0.259,0-0.497,0.072-0.709,0.19l-5.541-5.593l0.377-0.341l-1.579-1.743l-1.007,1.805
		l1.135,1.254l0.357-0.325l5.607,5.66c-0.076,0.183-0.121,0.383-0.121,0.594c0,0.374,0.141,0.712,0.364,0.975l-3.229,5.93
		c-0.67-0.229-1.385-0.361-2.137-0.361c-2.72,0-5.038,1.625-5.974,3.916h11.946c-0.543-1.33-1.562-2.424-2.844-3.116l3.19-5.859
		c0.053,0.006,0.104,0.017,0.16,0.017c0.21,0,0.409-0.046,0.59-0.126c0.303-0.134,0.548-0.37,0.704-0.662
		c0.114-0.212,0.186-0.452,0.186-0.711C127,108.161,126.337,107.489,125.521,107.489z"/>
	<polygon fill="#434343" points="118.133,97.756 116.091,95.5 110.113,98.099 114.958,103.45 	"/>
	<path fill="#434343" d="M110.832,102.009c1.142,1.262,2.15,0.536,2.15,0.536l-2.488-2.75
		C110.494,99.795,109.688,100.747,110.832,102.009z"/>
</g>
</svg>
