<?xml version="1.0" encoding="utf-8"?>
<!-- Generator: Adobe Illustrator 15.0.0, SVG Export Plug-In . SVG Version: 6.00 Build 0)  -->
<!DOCTYPE svg PUBLIC "-//W3C//DTD SVG 1.0//EN" "http://www.w3.org/TR/2001/REC-SVG-20010904/DTD/svg10.dtd">
<svg version="1.0" id="Layer_1" xmlns="http://www.w3.org/2000/svg" xmlns:xlink="http://www.w3.org/1999/xlink" x="0px" y="0px"
	 width="220px" height="227px" viewBox="0 0 220 227" enable-background="new 0 0 220 227" xml:space="preserve">
<g>
	<g>
		<rect x="107.125" y="109.559" fill="#434343" width="1.875" height="4.812"/>
		<rect x="104.125" y="109.559" fill="#434343" width="1.875" height="4.812"/>
		<path fill="#434343" d="M107.188,108.434c1.039-1.768,1.646-3.818,1.646-6.02c0-6.58-5.336-11.914-11.917-11.914
			c-6.58,0-11.916,5.334-11.916,11.914s5.336,11.916,11.916,11.916c2.199,0,4.253-0.607,6.021-1.646v-4.25H107.188z M90.322,110.441
			l-1.268-1.27l2.682-2.682l1.268,1.268L90.322,110.441z M97,107.663c-2.867,0-5.191-2.299-5.191-5.132
			c0-2.834,2.324-5.133,5.191-5.133s5.191,2.299,5.191,5.133C102.191,105.364,99.867,107.663,97,107.663z M100.955,97.274
			l2.681-2.684l1.268,1.27l-2.682,2.682L100.955,97.274z"/>
	</g>
	<path fill="#434343" d="M97.065,98.658c-2.133,0-3.861,1.723-3.861,3.848c0,2.123,1.729,3.844,3.861,3.844
		c2.13,0,3.859-1.721,3.859-3.844C100.925,100.381,99.195,98.658,97.065,98.658z M97.065,104.699c-1.218,0-2.204-0.982-2.204-2.193
		c0-1.213,0.986-2.195,2.204-2.195c1.216,0,2.202,0.982,2.202,2.195C99.268,103.717,98.281,104.699,97.065,104.699z"/>
</g>
</svg>
