<?xml version="1.0" encoding="utf-8"?>
<!-- Generator: Adobe Illustrator 15.0.0, SVG Export Plug-In . SVG Version: 6.00 Build 0)  -->
<!DOCTYPE svg PUBLIC "-//W3C//DTD SVG 1.0//EN" "http://www.w3.org/TR/2001/REC-SVG-20010904/DTD/svg10.dtd">
<svg version="1.0" id="Layer_1" xmlns="http://www.w3.org/2000/svg" xmlns:xlink="http://www.w3.org/1999/xlink" x="0px" y="0px"
	 width="220px" height="227px" viewBox="0 0 220 227" enable-background="new 0 0 220 227" xml:space="preserve">
<g>
	<path fill="#434343" d="M121.21,97.071h-13.685c-2.853,0-5.166,2.129-5.166,4.754v2.438c0,2.625,1.313,4.754,4.166,4.754h2.809
		c2.174,0,4.027-1.233,4.792-2.979c0.109-0.25,0.402-0.267,0.508-0.022c0.754,1.759,2.606,3.003,4.776,3.003h2.8
		c2.842,0,4.144-2.129,4.144-4.754v-2.438C126.352,99.2,124.05,97.071,121.21,97.071z M124.413,104.363
		c0,1.566-0.416,2.841-2.157,2.841h-2.811c-1.496,0-2.797-0.958-3.092-2.278c0,0-0.288-0.877-1.985-0.877
		c-1.693,0-1.932,0.873-1.932,0.873c-0.298,1.324-1.613,2.282-3.118,2.282H106.5c-1.756,0-2.183-1.272-2.183-2.841v-2.521
		c0-1.566,1.427-2.842,3.183-2.842h13.756c1.741,0,3.157,1.273,3.157,2.842V104.363z"/>
	<path fill="#434343" d="M119.882,105.985h2.04l1.059-5.23c-0.527-0.376-1.188-0.608-1.913-0.623L119.882,105.985z"/>
	<path fill="#434343" d="M119.153,110.103l-0.812,3.722c-0.158,0.788-1.285,1.38-2.062,1.225c-0.756-0.151-1.423-0.962-1.304-1.726
		c1.394-0.42,2.402-1.604,2.387-3.002c-0.006-0.461-0.424-0.83-0.936-0.824c-0.513,0.007-0.924,0.387-0.914,0.85
		c0.009,0.806-0.709,1.471-1.603,1.479c-0.892,0.013-1.625-0.635-1.636-1.439c-0.006-0.461-0.424-0.83-0.936-0.824
		c-0.513,0.007-0.921,0.387-0.914,0.848c0.018,1.425,1.096,2.604,2.543,2.964c-0.092,1.696,1.242,3.254,2.935,3.595
		c1.857,0.374,4.021-0.861,4.398-2.746l0.893-4.107C121.192,110.11,119.188,110.104,119.153,110.103z"/>
	<path fill="#434343" d="M124.232,94.241c0.11-0.548-0.238-1.081-0.781-1.19c-0.541-0.106-1.067,0.25-1.18,0.799l-0.302,1.66
		c0.693,0.062,1.346,0.246,1.932,0.538L124.232,94.241z"/>
</g>
</svg>
