<?xml version="1.0" encoding="utf-8"?>
<!-- Generator: Adobe Illustrator 15.0.0, SVG Export Plug-In . SVG Version: 6.00 Build 0)  -->
<!DOCTYPE svg PUBLIC "-//W3C//DTD SVG 1.0//EN" "http://www.w3.org/TR/2001/REC-SVG-20010904/DTD/svg10.dtd">
<svg version="1.0" id="Layer_1" xmlns="http://www.w3.org/2000/svg" xmlns:xlink="http://www.w3.org/1999/xlink" x="0px" y="0px"
	 width="220px" height="227px" viewBox="0 0 220 227" enable-background="new 0 0 220 227" xml:space="preserve">
<path fill="#434343" d="M113.485,108.45c-2.456,0-4.454-2.003-4.454-4.466c0-2.461,1.998-4.464,4.454-4.464
	c2.454,0,4.45,2.003,4.45,4.464C117.938,106.447,115.939,108.45,113.485,108.45L113.485,108.45z M113.485,101.133
	c-1.568,0-2.848,1.28-2.848,2.852c0,1.573,1.277,2.851,2.848,2.851c1.565,0,2.844-1.277,2.844-2.851
	C116.329,102.413,115.053,101.133,113.485,101.133L113.485,101.133z M116,114.5h-4.939v3H116V114.5z M115.969,110.531h-4.938v2.938
	h4.938V110.531z M107.947,95.705l-3.027,4.418l1.814,1.244l3.025-4.418L107.947,95.705z M105.027,93.703L102,98.123l1.814,1.242
	l3.027-4.418L105.027,93.703z M125.971,98.23l-3.127-4.73l-4.83,3.194l3.127,4.729L125.971,98.23z"/>
</svg>
