<?xml version="1.0" encoding="utf-8"?>
<!-- Generator: Adobe Illustrator 15.0.0, SVG Export Plug-In . SVG Version: 6.00 Build 0)  -->
<!DOCTYPE svg PUBLIC "-//W3C//DTD SVG 1.0//EN" "http://www.w3.org/TR/2001/REC-SVG-20010904/DTD/svg10.dtd">
<svg version="1.0" id="Layer_1" xmlns="http://www.w3.org/2000/svg" xmlns:xlink="http://www.w3.org/1999/xlink" x="0px" y="0px"
	 width="220px" height="227px" viewBox="0 0 220 227" enable-background="new 0 0 220 227" xml:space="preserve">
<g>
	<path fill="#434343" d="M108.926,105.344c0,1.535-0.428,6.156-0.957,6.156c-0.527,0-0.959-4.621-0.959-6.156
		c0-1.537,0.432-2.781,0.959-2.781C108.498,102.562,108.926,103.807,108.926,105.344z"/>
	<path fill="#434343" d="M107.01,123.721c0-1.537,0.432-6.158,0.959-6.158c0.529,0,0.957,4.621,0.957,6.158
		c0,1.535-0.428,2.779-0.957,2.779C107.44,126.5,107.01,125.256,107.01,123.721z"/>
	<path fill="#434343" d="M104.205,106.096c0.768,1.33,2.707,5.547,2.248,5.812s-3.141-3.523-3.908-4.854
		c-0.767-1.331-1.02-2.621-0.561-2.887C102.443,103.902,103.436,104.766,104.205,106.096z"/>
	<path fill="#434343" d="M111.734,122.969c-0.771-1.33-2.709-5.547-2.25-5.812c0.459-0.266,3.141,3.521,3.906,4.854
		c0.769,1.331,1.021,2.623,0.562,2.888C113.494,125.162,112.502,124.297,111.734,122.969z"/>
	<path fill="#434343" d="M100.492,109.107c1.328,0.768,5.117,3.447,4.852,3.906c-0.264,0.459-4.479-1.479-5.812-2.248
		c-1.328-0.77-2.191-1.762-1.93-2.221C97.869,108.088,99.16,108.34,100.492,109.107z"/>
	<path fill="#434343" d="M115.449,119.955c-1.332-0.768-5.119-3.449-4.855-3.908c0.268-0.459,4.48,1.48,5.812,2.25
		c1.332,0.766,2.193,1.76,1.93,2.219S116.777,120.723,115.449,119.955z"/>
	<path fill="#434343" d="M98.781,113.572c1.535,0,6.156,0.43,6.156,0.959c0.002,0.529-4.621,0.957-6.156,0.959
		c-1.537-0.002-2.781-0.432-2.781-0.959C96,114.002,97.244,113.574,98.781,113.572z"/>
	<path fill="#434343" d="M117.158,115.488c-1.537,0-6.158-0.428-6.158-0.957s4.621-0.957,6.158-0.957
		c1.535-0.002,2.779,0.428,2.779,0.957S118.693,115.488,117.158,115.488z"/>
	<path fill="#434343" d="M99.533,118.293c1.328-0.766,5.547-2.705,5.811-2.246c0.268,0.457-3.521,3.139-4.852,3.908
		c-1.332,0.768-2.625,1.018-2.889,0.561C97.34,120.057,98.203,119.064,99.533,118.293z"/>
	<path fill="#434343" d="M116.406,110.764c-1.332,0.771-5.549,2.709-5.812,2.252c-0.264-0.459,3.523-3.141,4.855-3.906
		c1.328-0.771,2.621-1.021,2.885-0.562C118.598,109.004,117.734,109.998,116.406,110.764z"/>
	<path fill="#434343" d="M102.545,122.008c0.768-1.328,3.451-5.117,3.908-4.852c0.459,0.264-1.482,4.479-2.248,5.811
		c-0.771,1.33-1.764,2.193-2.221,1.932C101.525,124.631,101.777,123.34,102.545,122.008z"/>
	<path fill="#434343" d="M113.393,107.051c-0.77,1.332-3.449,5.119-3.906,4.855c-0.459-0.268,1.479-4.48,2.25-5.812
		c0.766-1.33,1.76-2.191,2.219-1.928C114.41,104.43,114.16,105.723,113.393,107.051z"/>
</g>
</svg>
