<?xml version="1.0" encoding="utf-8"?>
<!-- Generator: Adobe Illustrator 15.0.0, SVG Export Plug-In . SVG Version: 6.00 Build 0)  -->
<!DOCTYPE svg PUBLIC "-//W3C//DTD SVG 1.0//EN" "http://www.w3.org/TR/2001/REC-SVG-20010904/DTD/svg10.dtd">
<svg version="1.0" id="Layer_1" xmlns="http://www.w3.org/2000/svg" xmlns:xlink="http://www.w3.org/1999/xlink" x="0px" y="0px"
	 width="220px" height="227px" viewBox="0 0 220 227" enable-background="new 0 0 220 227" xml:space="preserve">
<g>
	<g>
		<path fill="#434343" d="M107,101.5l-2.348-4H98v2h-2v15h1.016l0.002,1h22.888l0.03-14H107z M113.949,112.5H103.1
			c-0.129-0.146-0.127-0.383,0-0.527l5.182-8.396c0.131-0.146,0.34-0.146,0.471,0l5.197,8.396
			C114.079,112.117,114.079,112.354,113.949,112.5z"/>
		<polygon fill="#434343" points="115.959,100.5 115.959,98.543 107.042,98.543 108.042,100.5 		"/>
	</g>
	<rect x="108.049" y="106.5" fill="#434343" width="0.889" height="2.928"/>
	<rect x="108" y="110.5" fill="#434343" width="1" height="1"/>
</g>
</svg>
