<?xml version="1.0" encoding="utf-8"?>
<!-- Generator: Adobe Illustrator 15.0.0, SVG Export Plug-In . SVG Version: 6.00 Build 0)  -->
<!DOCTYPE svg PUBLIC "-//W3C//DTD SVG 1.0//EN" "http://www.w3.org/TR/2001/REC-SVG-20010904/DTD/svg10.dtd">
<svg version="1.0" id="Layer_1" xmlns="http://www.w3.org/2000/svg" xmlns:xlink="http://www.w3.org/1999/xlink" x="0px" y="0px"
	 width="220px" height="227px" viewBox="0 0 220 227" enable-background="new 0 0 220 227" xml:space="preserve">
<g>
	<path fill="#434343" d="M117.938,108.27c0,4.781-3.463,0.373-7.834,0.373c-4.369,0-7.997,4.408-7.997-0.373
		c0-2.232,1.823-4.584,3.093-6.592c1.447-2.29,2.493-4.094,4.822-4.094c2.338,0,3.499,1.916,4.95,4.221
		C116.229,103.806,117.938,106.045,117.938,108.27z"/>
	<ellipse fill="#434343" cx="106.459" cy="91.442" rx="2.458" ry="3.94"/>
	<ellipse fill="#434343" cx="113.449" cy="91.474" rx="2.427" ry="3.909"/>
	<path fill="#434343" d="M102.611,97.632c0.335,1.824-0.368,3.485-1.574,3.709c-1.205,0.224-2.459-1.073-2.799-2.896
		c-0.338-1.825,0.365-3.487,1.57-3.713C101.018,94.508,102.27,95.807,102.611,97.632z"/>
	<path fill="#434343" d="M117.249,97.568c-0.373,1.826,0.326,3.476,1.562,3.682c1.236,0.206,2.545-1.107,2.92-2.934
		c0.375-1.829-0.323-3.479-1.561-3.687C118.934,94.425,117.626,95.74,117.249,97.568z"/>
</g>
</svg>
