<?xml version="1.0" encoding="utf-8"?>
<!-- Generator: Adobe Illustrator 15.0.0, SVG Export Plug-In . SVG Version: 6.00 Build 0)  -->
<!DOCTYPE svg PUBLIC "-//W3C//DTD SVG 1.0//EN" "http://www.w3.org/TR/2001/REC-SVG-20010904/DTD/svg10.dtd">
<svg version="1.0" id="Layer_1" xmlns="http://www.w3.org/2000/svg" xmlns:xlink="http://www.w3.org/1999/xlink" x="0px" y="0px"
	 width="220px" height="227px" viewBox="0 0 220 227" enable-background="new 0 0 220 227" xml:space="preserve">
<path fill="#434343" d="M121.344,100.938H103.49c-1.674,0-3.03,1.363-3.03,3.043v17.915c0,1.68,1.356,3.042,3.03,3.042h17.854
	c1.675,0,3.031-1.362,3.031-3.042V103.98C124.375,102.301,123.019,100.938,121.344,100.938z M106.438,121.938
	c-1.646,0-2.979-1.334-2.979-2.979c0-1.646,1.334-2.98,2.979-2.98s2.979,1.334,2.979,2.98
	C109.418,120.604,108.084,121.938,106.438,121.938z M112.479,116.021c-1.668,0-3.021-1.354-3.021-3.021
	c0-1.665,1.353-3.021,3.021-3.021c1.671,0,3.021,1.354,3.021,3.021C115.5,114.668,114.148,116.021,112.479,116.021z
	 M118.418,109.979c-1.658,0-3.001-1.343-3.001-3s1.343-3.001,3.001-3.001c1.656,0,3,1.344,3,3.001S120.074,109.979,118.418,109.979z
	"/>
</svg>
