<?xml version="1.0" encoding="utf-8"?>
<!-- Generator: Adobe Illustrator 15.0.0, SVG Export Plug-In . SVG Version: 6.00 Build 0)  -->
<!DOCTYPE svg PUBLIC "-//W3C//DTD SVG 1.0//EN" "http://www.w3.org/TR/2001/REC-SVG-20010904/DTD/svg10.dtd">
<svg version="1.0" id="Layer_1" xmlns="http://www.w3.org/2000/svg" xmlns:xlink="http://www.w3.org/1999/xlink" x="0px" y="0px"
	 width="220px" height="227px" viewBox="0 0 220 227" enable-background="new 0 0 220 227" xml:space="preserve">
<path fill="#434343" d="M123.305,107c0,0-0.375-3-3-3s-2.813,2-2.813,2H113.5c-0.199-1.299,0.337-2.422,1.61-3.334
	c1.055-0.75,2.217-0.834,3.444-0.922c0.754-0.055,1.535-0.109,2.332-0.318c0.811-0.217,2.758-0.85,3.334-2.078
	c0.229-0.494,0.222-1.035-0.028-1.564c-0.355-0.756-1.267-2.145-1.978-2.68c-0.223-0.166-0.537-0.123-0.703,0.096
	c-0.169,0.221-0.124,0.535,0.098,0.701c0.524,0.396,1.363,1.652,1.673,2.307c0.124,0.266,0.133,0.492,0.027,0.721
	c-0.323,0.689-1.598,1.246-2.683,1.531c-0.704,0.188-1.438,0.238-2.146,0.289c-1.312,0.096-2.673,0.191-3.956,1.107
	c-1.521,1.088-2.229,2.545-2.044,4.146h-2.992c0,0-0.497-2-2.997-2s-3,3-3,3l-2,8.938c0,1.656,1.25,3,3,3
	c1.557,0,2.782-2.564,3.447-4.342c0.344,0.213,0.744,0.342,1.178,0.342c1.156,0,2.101-0.877,2.227-2h4.111
	c0.126,1.123,1.068,2,2.227,2c0.472,0,0.909-0.146,1.271-0.396c0.653,1.777,1.866,4.396,3.354,4.396c2.25,0,3-1.344,3-3L123.305,107
	z"/>
</svg>
