<?xml version="1.0" encoding="utf-8"?>
<!-- Generator: Adobe Illustrator 15.0.0, SVG Export Plug-In . SVG Version: 6.00 Build 0)  -->
<!DOCTYPE svg PUBLIC "-//W3C//DTD SVG 1.0//EN" "http://www.w3.org/TR/2001/REC-SVG-20010904/DTD/svg10.dtd">
<svg version="1.0" id="Layer_1" xmlns="http://www.w3.org/2000/svg" xmlns:xlink="http://www.w3.org/1999/xlink" x="0px" y="0px"
	 width="220px" height="227px" viewBox="0 0 220 227" enable-background="new 0 0 220 227" xml:space="preserve">
<path fill="#434343" d="M127.025,108.5c-1.08,0.008-1.951,0.912-1.941,2.016c0.004,0.529,0.213,1.009,0.545,1.362l-4.035,6.716
	c-0.18-0.056-0.365-0.094-0.562-0.094c-0.144,0-0.281,0.018-0.416,0.047l-5.279-10.594c0.404-0.361,0.664-0.885,0.664-1.475
	c0-1.094-0.877-1.979-1.959-1.979c-1.08,0-1.957,0.887-1.957,1.979c0,0.446,0.151,0.855,0.399,1.188l-4.664,6.002
	c-0.242-0.105-0.508-0.17-0.789-0.17c-1.088,0-1.969,0.896-1.969,2s0.881,2,1.969,2c1.086,0,1.969-0.896,1.969-2
	c0-0.452-0.154-0.865-0.404-1.2l4.668-6.006c0.237,0.104,0.502,0.164,0.776,0.164c0.142,0,0.274-0.016,0.405-0.044l5.283,10.596
	c-0.405,0.367-0.668,0.896-0.668,1.49c0,1.104,0.881,2,1.969,2c1.087,0,1.97-0.896,1.97-2c0-0.538-0.213-1.025-0.554-1.385
	l4.031-6.709c0.187,0.057,0.377,0.096,0.578,0.094c1.082-0.008,1.951-0.912,1.943-2.016
	C128.99,109.381,128.107,108.491,127.025,108.5z"/>
</svg>
