<?xml version="1.0" encoding="utf-8"?>
<!-- Generator: Adobe Illustrator 15.0.0, SVG Export Plug-In . SVG Version: 6.00 Build 0)  -->
<!DOCTYPE svg PUBLIC "-//W3C//DTD SVG 1.0//EN" "http://www.w3.org/TR/2001/REC-SVG-20010904/DTD/svg10.dtd">
<svg version="1.0" id="Layer_1" xmlns="http://www.w3.org/2000/svg" xmlns:xlink="http://www.w3.org/1999/xlink" x="0px" y="0px"
	 width="220px" height="227px" viewBox="0 0 220 227" enable-background="new 0 0 220 227" xml:space="preserve">
<path fill="#434343" d="M112.951,111.582v-2.207c5.09-0.652,9.049-4.275,9.049-10.234c0-4.155-2.373-7.883-6.217-9.503l-0.4,0.942
	c0.479,0.201,0.928,0.447,1.357,0.718l-0.697,1.163c-1.158-0.652-2.494-0.904-3.918-0.904c-4.418,0-8,3.457-8,7.875
	c0,2.828,1.473,5.311,3.688,6.73l-0.648,1.084c-0.472-0.267-0.92-0.569-1.342-0.914l-0.65,0.79c1.707,1.399,3.711,2.208,5.914,2.323
	v2.137c-3.406,0.124-6.035,0.916-6.035,1.879c0,0.013,0.006,0.025,0.008,0.039h13.922c0.004-0.014,0.01-0.026,0.01-0.039
	C118.986,112.498,116.357,111.706,112.951,111.582z M108.062,107.64l0.617-1.04c1.037,0.5,2.193,0.787,3.418,0.787
	c4.393,0,7.826-3.59,7.826-8.02c0-2.645-1.146-4.979-3.104-6.439l0.674-1.131c2.178,1.74,3.588,4.396,3.588,7.285
	c0,5.299-3.725,9.476-9.359,9.476C110.459,108.558,109.213,108.135,108.062,107.64z"/>
</svg>
