<?xml version="1.0" encoding="utf-8"?>
<!-- Generator: Adobe Illustrator 15.0.0, SVG Export Plug-In . SVG Version: 6.00 Build 0)  -->
<!DOCTYPE svg PUBLIC "-//W3C//DTD SVG 1.0//EN" "http://www.w3.org/TR/2001/REC-SVG-20010904/DTD/svg10.dtd">
<svg version="1.0" id="Layer_1" xmlns="http://www.w3.org/2000/svg" xmlns:xlink="http://www.w3.org/1999/xlink" x="0px" y="0px"
	 width="220px" height="227px" viewBox="0 0 220 227" enable-background="new 0 0 220 227" xml:space="preserve">
<g>
	<path fill="#434343" d="M120.255,128.11c0.795,0.795,1.283,0.229,1.935-0.421c0.65-0.65,1.217-1.143,0.424-1.937
		c0,0-11.406-11.396-14.137-14.118l-2.355,2.355L120.255,128.11z"/>
	<path fill="#434343" d="M102.085,116.262l0.918-0.9c0,0-0.406-1.109,0.188-1.643c0.594-0.531,1.594-0.203,1.594-0.203l3.219-3.107
		c0,0-0.227-1.617,0.072-1.916c0.299-0.301,3.635-1.928,3.959-2.25l-0.686-0.688c0,0-4.67,0.562-5.177,1.065
		c-0.299,0.3-2.521,2.544-4.107,4.13c0,0,0.398,1.133-0.125,1.656c-0.523,0.521-1.703,0.146-1.703,0.146
		c-0.557,0.559-0.93,0.932-0.93,0.932c-0.393,0.395-0.162,0.949,0.32,1.434l1.023,1.021
		C101.136,116.426,101.692,116.655,102.085,116.262z"/>
</g>
</svg>
