<?xml version="1.0" encoding="utf-8"?>
<!-- Generator: Adobe Illustrator 15.0.0, SVG Export Plug-In . SVG Version: 6.00 Build 0)  -->
<!DOCTYPE svg PUBLIC "-//W3C//DTD SVG 1.0//EN" "http://www.w3.org/TR/2001/REC-SVG-20010904/DTD/svg10.dtd">
<svg version="1.0" id="Layer_1" xmlns="http://www.w3.org/2000/svg" xmlns:xlink="http://www.w3.org/1999/xlink" x="0px" y="0px"
	 width="220px" height="227px" viewBox="0 0 220 227" enable-background="new 0 0 220 227" xml:space="preserve">
<g>
	<path fill="#434343" d="M112.076,104.727v-2.476c0-0.958-0.754-1.736-1.686-1.736h-7.562c-0.93,0-1.685,0.778-1.685,1.736v2.476
		c0,0.959,0.755,1.735,1.685,1.735h7.562C111.322,106.462,112.076,105.686,112.076,104.727z"/>
	<path fill="#434343" d="M109.027,120.65c0.002-0.024,0.016-2.198,0.016-2.198h1.108l-0.018,4.452c0,0-0.125,1.577,0.875,1.577
		c1.109,0,1.065-0.75,1.065-1.713c0,0,0-4.36,0-5.798c0-3.489,2.049-2.996,2.049-2.996l1.886,1.335c1.757,0,1.989-0.405,1.989-1.325
		c-0.594-1.563-5-4.438-5-4.438c-1.688-0.5-1.938-1.988-1.938-1.988h-7.934l0.027,0.782c0,2.337-1.97,2.812-1.97,3.777v5.651
		c0,0.963,0.763,1.744,1.699,1.744h0.142v-1.062h1.14v1.127c0,0.129,0.031,0.25,0.083,0.36c0.146,0.312,0.473,0.532,0.854,0.532
		c0.489,0,0.93-0.364,0.969-0.824c0.002-0.022,0.015-1.195,0.015-1.195h1.078v2.127c0,0.129,0.032,0.252,0.084,0.36
		c0.146,0.312,0.473,0.532,0.854,0.532C108.596,121.473,108.987,121.109,109.027,120.65z"/>
</g>
</svg>
