<?xml version="1.0" encoding="utf-8"?>
<!-- Generator: Adobe Illustrator 15.0.0, SVG Export Plug-In . SVG Version: 6.00 Build 0)  -->
<!DOCTYPE svg PUBLIC "-//W3C//DTD SVG 1.0//EN" "http://www.w3.org/TR/2001/REC-SVG-20010904/DTD/svg10.dtd">
<svg version="1.0" id="Layer_1" xmlns="http://www.w3.org/2000/svg" xmlns:xlink="http://www.w3.org/1999/xlink" x="0px" y="0px"
	 width="220px" height="227px" viewBox="0 0 220 227" enable-background="new 0 0 220 227" xml:space="preserve">
<path fill="#434343" d="M115.011,113.583h-0.188c-0.517-5.632-5.181-10.041-10.865-10.041c-6.03,0-10.917,4.958-10.917,11.075
	c0,3.867,1.786,6.883,7.816,6.883c4.713,0,2.967-4.204,7.962-6.041h6.189c1.052,0,1.906-0.403,1.906-0.9v-0.073
	C116.917,113.986,116.062,113.583,115.011,113.583z M100,118c-0.852,0-1.542-0.672-1.542-1.5s0.69-1.5,1.542-1.5
	s1.542,0.672,1.542,1.5S100.852,118,100,118z"/>
</svg>
