<?xml version="1.0" encoding="utf-8"?>
<!-- Generator: Adobe Illustrator 15.0.0, SVG Export Plug-In . SVG Version: 6.00 Build 0)  -->
<!DOCTYPE svg PUBLIC "-//W3C//DTD SVG 1.0//EN" "http://www.w3.org/TR/2001/REC-SVG-20010904/DTD/svg10.dtd">
<svg version="1.0" id="Layer_1" xmlns="http://www.w3.org/2000/svg" xmlns:xlink="http://www.w3.org/1999/xlink" x="0px" y="0px"
	 width="220px" height="227px" viewBox="0 0 220 227" enable-background="new 0 0 220 227" xml:space="preserve">
<g>
	<path fill="#434343" d="M112.798,106.866c0.012,0.01,2.794,2.812,2.805,2.821l2.112-2.12c5.707,6.59,3.398,10.779,3.644,10.538
		c3.053-3.054,1.729-9.325-2.952-14.011c-4.687-4.684-10.958-6.006-14.013-2.953c-0.235,0.236,3.949-2.113,10.544,3.604
		L112.798,106.866z"/>
	
		<rect x="118.719" y="101.622" transform="matrix(0.7069 0.7074 -0.7074 0.7069 107.6214 -54.6141)" fill="#434343" width="1.969" height="1.835"/>
	<path fill="#434343" d="M112.643,108.436l-13.166,13.168c-0.392,0.392-0.396,1.021-0.014,1.403
		c0.384,0.386,1.014,0.379,1.406-0.014l13.166-13.166L112.643,108.436z"/>
</g>
</svg>
