<?xml version="1.0" encoding="utf-8"?>
<!-- Generator: Adobe Illustrator 15.0.0, SVG Export Plug-In . SVG Version: 6.00 Build 0)  -->
<!DOCTYPE svg PUBLIC "-//W3C//DTD SVG 1.0//EN" "http://www.w3.org/TR/2001/REC-SVG-20010904/DTD/svg10.dtd">
<svg version="1.0" id="Layer_1" xmlns="http://www.w3.org/2000/svg" xmlns:xlink="http://www.w3.org/1999/xlink" x="0px" y="0px"
	 width="220px" height="227px" viewBox="0 0 220 227" enable-background="new 0 0 220 227" xml:space="preserve">
<path fill="#434343" d="M122.917,102.584h-2v-4.011c0-0.546-0.447-0.989-1-0.989H104c-0.553,0-1,0.443-1,0.989v4.011h-2
	c-0.553,0-1,0.443-1,0.989v12.802c0,0.547,0.447,0.989,1,0.989h7.906v-6.938c0-0.546,0.466-0.988,1.042-0.988H114
	c0.576,0,1.042,0.442,1.042,0.988v6.938h7.875c0.553,0,1-0.442,1-0.989v-12.802C123.917,103.027,123.47,102.584,122.917,102.584z
	 M104.031,114.532H101v-2.062h3.031V114.532z M104.031,110.532H101v-2.062h3.031V110.532z M104.031,106.532H101v-2.062h3.031
	V106.532z M108.031,114.532H105v-2.062h3.031V114.532z M108.031,110.532H105v-2.062h3.031V110.532z M108.031,106.532H105v-2.062
	h3.031V106.532z M108.125,102.667h-4.25v-2.25h4.25V102.667z M115.086,103.546h-2.039v2.038h-2.089v-2.038h-2.038v-2.09h2.038
	v-2.038h2.089v2.038h2.039V103.546z M115.875,100.417h4.25v2.25h-4.25V100.417z M119.031,114.532H116v-2.062h3.031V114.532z
	 M119.031,110.532H116v-2.062h3.031V110.532z M119.031,106.532H116v-2.062h3.031V106.532z M123.031,114.532H120v-2.062h3.031
	V114.532z M123.031,110.532H120v-2.062h3.031V110.532z M123.031,106.532H120v-2.062h3.031V106.532z"/>
</svg>
