<?xml version="1.0" encoding="utf-8"?>
<!-- Generator: Adobe Illustrator 15.0.0, SVG Export Plug-In . SVG Version: 6.00 Build 0)  -->
<!DOCTYPE svg PUBLIC "-//W3C//DTD SVG 1.0//EN" "http://www.w3.org/TR/2001/REC-SVG-20010904/DTD/svg10.dtd">
<svg version="1.0" id="Layer_1" xmlns="http://www.w3.org/2000/svg" xmlns:xlink="http://www.w3.org/1999/xlink" x="0px" y="0px"
	 width="220px" height="227px" viewBox="0 0 220 227" enable-background="new 0 0 220 227" xml:space="preserve">
<path fill="#434343" d="M118.399,100.502h-0.772c-2.96-0.084-5.627,2.553-5.627,5.689v2.445c-1.182-0.689-2.553-1.096-4.021-1.096
	c-4.406,0-7.979,3.573-7.979,7.979c0,4.406,3.571,7.979,7.979,7.979c4.408,0,7.979-3.572,7.979-7.979
	c0-2.002-0.742-3.824-1.959-5.227v-4.104c0-2.043,1.627-3.705,3.627-3.705h0.772c1.999,0,3.626,1.662,3.626,3.705v4.283h1.892
	v-4.283C123.917,103.055,121.502,100.502,118.399,100.502z M107.979,120.695c-2.855,0-5.173-2.316-5.173-5.174
	c0-2.856,2.315-5.174,5.173-5.174c2.765,0,5,2.174,5.146,4.897l-3.761-1.144c-0.357-0.351-0.845-0.565-1.386-0.565
	c-1.098,0-1.983,0.89-1.983,1.983c0,1.097,0.888,1.984,1.983,1.984c0.531,0,1.015-0.213,1.369-0.555l3.771-1.1
	C112.943,118.555,110.723,120.695,107.979,120.695z"/>
</svg>
