<?xml version="1.0" encoding="utf-8"?>
<!-- Generator: Adobe Illustrator 15.0.0, SVG Export Plug-In . SVG Version: 6.00 Build 0)  -->
<!DOCTYPE svg PUBLIC "-//W3C//DTD SVG 1.0//EN" "http://www.w3.org/TR/2001/REC-SVG-20010904/DTD/svg10.dtd">
<svg version="1.0" id="Layer_1" xmlns="http://www.w3.org/2000/svg" xmlns:xlink="http://www.w3.org/1999/xlink" x="0px" y="0px"
	 width="220px" height="227px" viewBox="0 0 220 227" enable-background="new 0 0 220 227" xml:space="preserve">
<g>
	<path fill="#434343" d="M107.915,103.468c0,1.658-1.326,3-2.958,3c-1.63,0-2.958-1.342-2.958-3c0-1.657,1.328-3,2.958-3
		C106.589,100.468,107.915,101.811,107.915,103.468z"/>
	<path fill="#434343" d="M102.208,96.455c-0.215-0.216-0.212-0.567,0.006-0.786l2.383-4.004c0.221-0.219,0.57-0.221,0.785-0.004
		l2.493,4.016c0.215,0.215,0.174,0.558-0.045,0.775L102.208,96.455z"/>
	<path fill="#434343" d="M107.875,110.558c0.212,0.214,0.211,0.561,0,0.771l-2.5,3.93c-0.214,0.213-0.559,0.213-0.77,0l-2.397-3.912
		c-0.212-0.213-0.213-0.559,0.001-0.771L107.875,110.558z"/>
	<path fill="#434343" d="M112.046,100.626c0.215-0.215,0.567-0.212,0.786,0.006l4.003,2.383c0.219,0.221,0.221,0.57,0.005,0.785
		l-4.016,2.493c-0.215,0.215-0.559,0.174-0.775-0.045L112.046,100.626z"/>
	<path fill="#434343" d="M97.942,106.293c-0.215,0.212-0.56,0.211-0.771,0l-3.931-2.5c-0.213-0.214-0.212-0.559,0.001-0.77
		l3.912-2.397c0.212-0.212,0.558-0.213,0.771,0.001L97.942,106.293z"/>
</g>
</svg>
