<?xml version="1.0" encoding="utf-8"?>
<!-- Generator: Adobe Illustrator 15.0.0, SVG Export Plug-In . SVG Version: 6.00 Build 0)  -->
<!DOCTYPE svg PUBLIC "-//W3C//DTD SVG 1.0//EN" "http://www.w3.org/TR/2001/REC-SVG-20010904/DTD/svg10.dtd">
<svg version="1.0" id="Layer_1" xmlns="http://www.w3.org/2000/svg" xmlns:xlink="http://www.w3.org/1999/xlink" x="0px" y="0px"
	 width="220px" height="227px" viewBox="0 0 220 227" enable-background="new 0 0 220 227" xml:space="preserve">
<g>
	<path fill="#434343" d="M117.41,114.09l-8.35-9.617c-0.729,1.806-2.281,3.264-4.057,4.082l9.621,8.283
		c0.768,0.76,2.016,0.76,2.783,0C118.18,116.079,118.18,114.85,117.41,114.09z"/>
	<g>
		<path fill="#434343" d="M105.803,95.469c-1.254-1.217-2.961-1.969-4.846-1.969c-3.844,0-6.957,3.115-6.957,6.958
			c0,1.884,0.75,3.59,1.967,4.843c1.93-1.129,3.818-2.575,5.527-4.285C103.221,99.289,104.672,97.406,105.803,95.469z"/>
		<path fill="#434343" d="M102.342,101.864c-1.689,1.689-3.521,3.129-5.396,4.271c1.135,0.806,2.518,1.28,4.014,1.28
			c3.844,0,6.961-3.116,6.961-6.959c0-1.501-0.479-2.889-1.289-4.025C105.477,98.332,104.033,100.173,102.342,101.864z"/>
	</g>
</g>
</svg>
