<?xml version="1.0" encoding="utf-8"?>
<!-- Generator: Adobe Illustrator 15.0.0, SVG Export Plug-In . SVG Version: 6.00 Build 0)  -->
<!DOCTYPE svg PUBLIC "-//W3C//DTD SVG 1.0//EN" "http://www.w3.org/TR/2001/REC-SVG-20010904/DTD/svg10.dtd">
<svg version="1.0" id="Layer_1" xmlns="http://www.w3.org/2000/svg" xmlns:xlink="http://www.w3.org/1999/xlink" x="0px" y="0px"
	 width="220px" height="227px" viewBox="0 0 220 227" enable-background="new 0 0 220 227" xml:space="preserve">
<g>
	<path fill="#434343" d="M109.896,117.521l-0.911,0.011l-0.048-1.97h-4.875l-0.017,1.952l-0.976-0.003
		c-1.729,1.215-3.044,3.316-3.044,4.594c0,1.846,12.958,1.875,12.958,0C112.985,121.425,111.783,118.916,109.896,117.521z
		 M106.479,121.669c-0.911,0-1.648-0.728-1.648-1.627c0-0.896,0.737-1.625,1.648-1.625c0.913,0,1.651,0.729,1.651,1.625
		C108.13,120.941,107.392,121.669,106.479,121.669z"/>
	<path fill="#434343" d="M110.823,102.562c0.112-0.769,0.177-1.312,0.177-1.488c0-1.971-9-1.938-9,0
		c0,1.968,1.979,13.363,3.938,13.363c0.12,0,0.918,0,1.062,0c0.65,0,1.295-1.265,1.867-3.013c4.688-0.62,5.127-4.854,5.133-4.94
		v-3.922H110.823z M109.194,110.358c0.632-2.214,1.151-4.877,1.472-6.796H113l0.002,2.875
		C112.988,106.582,112.645,109.652,109.194,110.358z"/>
</g>
</svg>
