<?xml version="1.0" encoding="utf-8"?>
<!-- Generator: Adobe Illustrator 15.0.0, SVG Export Plug-In . SVG Version: 6.00 Build 0)  -->
<!DOCTYPE svg PUBLIC "-//W3C//DTD SVG 1.0//EN" "http://www.w3.org/TR/2001/REC-SVG-20010904/DTD/svg10.dtd">
<svg version="1.0" id="Layer_1" xmlns="http://www.w3.org/2000/svg" xmlns:xlink="http://www.w3.org/1999/xlink" x="0px" y="0px"
	 width="220px" height="227px" viewBox="0 0 220 227" enable-background="new 0 0 220 227" xml:space="preserve">
<g>
	<circle fill="#434343" cx="110" cy="111.458" r="3.917"/>
	<g>
		<path fill="#434343" d="M115.997,123.441c-3.626,0-8.188-2.307-11.899-6.02c-5.788-5.79-7.722-12.927-4.399-16.248
			c1.059-1.061,2.562-1.618,4.348-1.618c3.628,0,8.188,2.308,11.9,6.021c5.789,5.788,7.723,12.924,4.399,16.246
			C119.287,122.883,117.783,123.441,115.997,123.441z M104.044,101.559c-1.262,0-2.248,0.348-2.934,1.031
			c-2.442,2.443-0.429,8.59,4.399,13.42c3.354,3.354,7.37,5.435,10.485,5.435c1.262,0,2.249-0.349,2.935-1.032
			c2.443-2.444,0.43-8.589-4.399-13.418C111.179,103.64,107.16,101.559,104.044,101.559z"/>
	</g>
	<g>
		<path fill="#434343" d="M104.044,123.441c-1.785,0-3.289-0.561-4.348-1.617c-3.321-3.321-1.39-10.458,4.399-16.248
			c3.714-3.713,8.273-6.021,11.899-6.021c1.786,0,3.289,0.562,4.348,1.618c3.321,3.32,1.39,10.458-4.398,16.248
			C112.23,121.136,107.671,123.441,104.044,123.441z M115.997,101.557c-3.115,0-7.133,2.082-10.485,5.436
			c-4.829,4.83-6.845,10.976-4.399,13.42c0.686,0.685,1.672,1.031,2.934,1.031c3.116,0,7.134-2.082,10.486-5.435
			c4.829-4.831,6.844-10.978,4.398-13.42C118.245,101.904,117.259,101.557,115.997,101.557z"/>
	</g>
</g>
</svg>
