<?xml version="1.0" encoding="utf-8"?>
<!-- Generator: Adobe Illustrator 15.0.0, SVG Export Plug-In . SVG Version: 6.00 Build 0)  -->
<!DOCTYPE svg PUBLIC "-//W3C//DTD SVG 1.0//EN" "http://www.w3.org/TR/2001/REC-SVG-20010904/DTD/svg10.dtd">
<svg version="1.0" id="Layer_1" xmlns="http://www.w3.org/2000/svg" xmlns:xlink="http://www.w3.org/1999/xlink" x="0px" y="0px"
	 width="220px" height="227px" viewBox="0 0 220 227" enable-background="new 0 0 220 227" xml:space="preserve">
<path fill="#434343" d="M107.111,94.5c-6.566,0-11.891,5.323-11.891,11.889V118.5l1.999-4l1.916,4l2.085-4l1.916,4l2.084-4l1.916,4
	l2.084-4l1.999,4l1.916-4l2.001,4l2-4l1.863,4v-12.111C119,99.823,113.676,94.5,107.111,94.5z M102.14,106.666
	c-1.168,0-2.112-0.961-2.112-2.146s0.944-2.146,2.112-2.146c1.167,0,2.113,0.961,2.113,2.146S103.307,106.666,102.14,106.666z
	 M112.139,106.625c-1.174,0-2.125-0.951-2.125-2.125s0.951-2.125,2.125-2.125c1.177,0,2.125,0.951,2.125,2.125
	S113.312,106.625,112.139,106.625z"/>
</svg>
