<?xml version="1.0" encoding="utf-8"?>
<!-- Generator: Adobe Illustrator 15.0.0, SVG Export Plug-In . SVG Version: 6.00 Build 0)  -->
<!DOCTYPE svg PUBLIC "-//W3C//DTD SVG 1.0//EN" "http://www.w3.org/TR/2001/REC-SVG-20010904/DTD/svg10.dtd">
<svg version="1.0" id="Layer_1" xmlns="http://www.w3.org/2000/svg" xmlns:xlink="http://www.w3.org/1999/xlink" x="0px" y="0px"
	 width="220px" height="227px" viewBox="0 0 220 227" enable-background="new 0 0 220 227" xml:space="preserve">
<path fill="#434343" d="M100,113.531v5.969h20.958v-5.969H100z M103.025,118.073c-0.821,0-1.489-0.695-1.489-1.552
	c0-0.857,0.668-1.551,1.489-1.551c0.82,0,1.486,0.692,1.486,1.551C104.514,117.378,103.848,118.073,103.025,118.073z
	 M107.021,117.938c-0.852,0-1.539-0.66-1.539-1.475c0-0.812,0.688-1.473,1.539-1.473c0.851,0,1.538,0.66,1.538,1.473
	S107.871,117.938,107.021,117.938z"/>
<g>
	<path fill="#434343" d="M116.969,106.625h-5.982V100.5H105v10.875h11.969V106.625z M114.191,110.667h-6.258v-1.226h6.258V110.667z
		 M107.914,108.625v-1.266h6.256v1.266H107.914z"/>
	<polygon fill="#434343" points="112.111,100.5 112.111,105.438 116.969,105.438 	"/>
</g>
<rect x="105.031" y="120.553" fill="#434343" width="0.906" height="4.916"/>
<rect x="107.031" y="120.553" fill="#434343" width="0.906" height="4.916"/>
<rect x="109.031" y="120.553" fill="#434343" width="0.906" height="4.916"/>
<rect x="111.031" y="120.553" fill="#434343" width="0.906" height="4.916"/>
<rect x="113.031" y="120.553" fill="#434343" width="0.906" height="4.916"/>
<rect x="115.031" y="120.553" fill="#434343" width="0.906" height="4.916"/>
</svg>
