<?xml version="1.0" encoding="utf-8"?>
<!-- Generator: Adobe Illustrator 15.0.0, SVG Export Plug-In . SVG Version: 6.00 Build 0)  -->
<!DOCTYPE svg PUBLIC "-//W3C//DTD SVG 1.0//EN" "http://www.w3.org/TR/2001/REC-SVG-20010904/DTD/svg10.dtd">
<svg version="1.0" id="Layer_1" xmlns="http://www.w3.org/2000/svg" xmlns:xlink="http://www.w3.org/1999/xlink" x="0px" y="0px"
	 width="220px" height="227px" viewBox="0 0 220 227" enable-background="new 0 0 220 227" xml:space="preserve">
<polygon fill="#434343" points="116.615,93.621 116.615,99.525 122.448,99.525 "/>
<g>
	<polygon fill="#434343" points="105.498,116.368 104.573,117.278 104.573,117.568 106.718,117.568 	"/>
	<polygon fill="#434343" points="115.375,100.674 115.375,93.725 104.573,93.725 104.573,109.973 105.498,110.883 108.164,108.259 
		110.955,110.999 108.286,113.626 110.955,116.25 109.614,117.568 122.417,117.568 122.417,100.674 	"/>
</g>
<polygon fill="#434343" points="108.165,109.689 109.5,111 106.832,113.627 109.5,116.25 108.166,117.562 105.498,114.938 
	102.847,117.547 101.513,116.236 104.164,113.627 101.47,110.975 102.804,109.662 105.498,112.314 "/>
</svg>
