<?xml version="1.0" encoding="utf-8"?>
<!-- Generator: Adobe Illustrator 15.0.0, SVG Export Plug-In . SVG Version: 6.00 Build 0)  -->
<!DOCTYPE svg PUBLIC "-//W3C//DTD SVG 1.0//EN" "http://www.w3.org/TR/2001/REC-SVG-20010904/DTD/svg10.dtd">
<svg version="1.0" id="Layer_1" xmlns="http://www.w3.org/2000/svg" xmlns:xlink="http://www.w3.org/1999/xlink" x="0px" y="0px"
	 width="220px" height="227px" viewBox="0 0 220 227" enable-background="new 0 0 220 227" xml:space="preserve">
<g>
	<path fill="#434343" d="M121,113.971c0-0.794-2.74-1.427-2.887-1.411c-1.502-2.861-4.791-4.84-8.609-5.035
		c-3.049-0.156-5.108,0.538-6.56,1.501c-0.528-0.073-1.065-0.097-1.62,0.001c-0.702,0.12-1.208,0.388-1.763,0.869
		c-0.318,0.277-0.882,0.871-0.347,1.184c0.387,0.225,0.946-0.164,1.357-0.188c0.12-0.008,0.229,0.016,0.338,0.034
		c-1.043,1.36-1.44,2.608-1.89,2.608c-1.917,0-1.938,1.084-1.938,1.959c0,0.475,0,1.32,0,2c0,0.57,0.719,1.93,1,2.25
		c1.556,1.771,2.444,3.086,5.023,3.947c0.045,0.994,0.692,1.785,1.492,1.785c0.624,0,2.505-1.065,4.067-1.065
		s4.293,1.065,4.933,1.065c1.672,0,1.489-2.033,1.482-2.104c2.926-1.409,3.908-4.135,3.908-7.317c0-0.227-0.02-0.447-0.038-0.668
		C120.111,115.274,121,114.688,121,113.971z M103.072,115.21c-0.971,0-1.76-0.788-1.76-1.76s0.789-1.76,1.76-1.76
		c0.973,0,1.761,0.788,1.761,1.76S104.045,115.21,103.072,115.21z M113.965,111.543c-0.65-0.604-1.688-0.904-2.701-1.196
		c-1.016-0.292-1.855-0.533-2.729-0.365c-1.128,0.217-1.494-0.34-0.595-0.699c1.039-0.418,2.434-0.629,3.805-0.234
		c1.304,0.375,2.331,1.241,2.998,2.088C115.383,111.95,114.807,112.325,113.965,111.543z"/>
</g>
</svg>
