<?xml version="1.0" encoding="utf-8"?>
<!-- Generator: Adobe Illustrator 15.0.0, SVG Export Plug-In . SVG Version: 6.00 Build 0)  -->
<!DOCTYPE svg PUBLIC "-//W3C//DTD SVG 1.0//EN" "http://www.w3.org/TR/2001/REC-SVG-20010904/DTD/svg10.dtd">
<svg version="1.0" id="Layer_1" xmlns="http://www.w3.org/2000/svg" xmlns:xlink="http://www.w3.org/1999/xlink" x="0px" y="0px"
	 width="220px" height="227px" viewBox="0 0 220 227" enable-background="new 0 0 220 227" xml:space="preserve">
<g>
	<rect x="113.02" y="112.5" fill="#434343" width="1.815" height="2.906"/>
	<path fill="#434343" d="M124.854,116.469c0-0.5-0.477-0.906-1.063-0.906h-19.726c-0.589,0-1.064,0.406-1.064,0.906v0.906h1.002
		v13.104h6.627l-3.433,4.099c-0.242,0.242-0.151,0.727,0.202,1.08l0.644,0.641l4.978-5.64v5.779h1.938v-5.934l5.114,5.793
		l0.643-0.641c0.354-0.354,0.445-0.838,0.202-1.08l-3.538-4.098h6.536v-13.104h0.939L124.854,116.469L124.854,116.469z
		 M123.059,128.648h-18.199v-11.273h18.199V128.648z"/>
</g>
</svg>
