<?xml version="1.0" encoding="utf-8"?>
<!-- Generator: Adobe Illustrator 15.0.0, SVG Export Plug-In . SVG Version: 6.00 Build 0)  -->
<!DOCTYPE svg PUBLIC "-//W3C//DTD SVG 1.0//EN" "http://www.w3.org/TR/2001/REC-SVG-20010904/DTD/svg10.dtd">
<svg version="1.0" id="Layer_1" xmlns="http://www.w3.org/2000/svg" xmlns:xlink="http://www.w3.org/1999/xlink" x="0px" y="0px"
	 width="220px" height="227px" viewBox="0 0 220 227" enable-background="new 0 0 220 227" xml:space="preserve">
<g>
	<path fill="#434343" d="M109.994,90.5h-6.936c-1.107,0-2.006,0.9-2.006,2.012v6.956c0,1.11,0.898,2.011,2.006,2.011H109v0.646
		c0,2.431-2.019,4.407-4.5,4.407c-0.828,0-1.5,0.657-1.5,1.469s0.672,1.469,1.5,1.469c4.136,0,7.5-3.295,7.5-7.345v-2.656v-0.343
		v-6.613C112,91.4,111.104,90.5,109.994,90.5z"/>
	<path fill="#434343" d="M122.988,90.5h-6.955c-1.111,0-2.012,0.898-2.012,2.006v6.938c0,1.106,0.899,2.006,2.012,2.006H122v0.677
		c0,2.431-2.02,4.407-4.5,4.407c-0.828,0-1.5,0.656-1.5,1.469s0.672,1.469,1.5,1.469c4.137,0,7.5-3.295,7.5-7.345v-2.683v-0.316
		v-6.619C125,91.398,124.102,90.5,122.988,90.5z"/>
</g>
</svg>
