<?xml version="1.0" encoding="utf-8"?>
<!-- Generator: Adobe Illustrator 15.0.0, SVG Export Plug-In . SVG Version: 6.00 Build 0)  -->
<!DOCTYPE svg PUBLIC "-//W3C//DTD SVG 1.0//EN" "http://www.w3.org/TR/2001/REC-SVG-20010904/DTD/svg10.dtd">
<svg version="1.0" id="Layer_1" xmlns="http://www.w3.org/2000/svg" xmlns:xlink="http://www.w3.org/1999/xlink" x="0px" y="0px"
	 width="220px" height="227px" viewBox="0 0 220 227" enable-background="new 0 0 220 227" xml:space="preserve">
<g>
	<path fill="#434343" d="M109.747,125.984l-2.153-0.613c0.011-0.189,0.022-0.381,0.022-0.572c0-5.086-3.615-9.498-8.601-10.489
		l-0.391,1.962c4.051,0.807,6.989,4.395,6.989,8.527c0,0,0,0.006,0,0.012l-1.944-0.557c-0.398,0.225-0.542,0.729-0.319,1.126
		l1.771,3.182c0.223,0.396,0.725,0.541,1.125,0.318l3.18-1.771C109.825,126.887,109.968,126.384,109.747,125.984z"/>
	<path fill="#434343" d="M88.05,124.383c0-3.392,1.982-6.418,4.935-7.84l0.916,2.389c0.451,0.199,0.979-0.002,1.182-0.451l1.6-3.59
		c0.199-0.449-0.003-0.979-0.452-1.18l-3.59-1.6c-0.451-0.201-0.979,0.002-1.182,0.452l0.812,2.109
		c-3.709,1.722-6.218,5.481-6.218,9.708c0,1.188,0.203,2.371,0.604,3.521l1.891-0.658C88.216,126.308,88.05,125.344,88.05,124.383z"
		/>
	<path fill="#434343" d="M96.5,133c-1.564,0-3.091-0.434-4.419-1.223l1.686-1.711c-0.005-0.494-0.406-0.893-0.901-0.889
		l-3.928,0.029c-0.494,0.004-0.889,0.406-0.887,0.9l0.025,3.93c0.007,0.494,0.407,0.891,0.902,0.887l1.67-1.693
		c1.729,1.135,3.757,1.77,5.85,1.77c3.012,0,5.901-1.289,7.936-3.535l-1.484-1.342C101.296,131.951,98.945,133,96.5,133z"/>
</g>
</svg>
