<?xml version="1.0" encoding="utf-8"?>
<!-- Generator: Adobe Illustrator 15.0.0, SVG Export Plug-In . SVG Version: 6.00 Build 0)  -->
<!DOCTYPE svg PUBLIC "-//W3C//DTD SVG 1.0//EN" "http://www.w3.org/TR/2001/REC-SVG-20010904/DTD/svg10.dtd">
<svg version="1.0" id="Layer_1" xmlns="http://www.w3.org/2000/svg" xmlns:xlink="http://www.w3.org/1999/xlink" x="0px" y="0px"
	 width="220px" height="227px" viewBox="0 0 220 227" enable-background="new 0 0 220 227" xml:space="preserve">
<g>
	<path fill="#434343" d="M119.586,114.084c0.792-0.793,2.067-0.809,2.842-0.035c0,0-0.633-1.043-1.039-1.561
		c-0.893-0.102-1.828,0.186-2.521,0.877c-0.691,0.691-0.979,1.629-0.877,2.521c0.518,0.406,1.559,1.039,1.559,1.039
		C118.776,116.152,118.793,114.877,119.586,114.084z"/>
	<path fill="#434343" d="M123.633,113.984c-0.099-0.185-2.762-8.709-6.395-14.41c-1.081-1.695-2.247-3.143-3.458-4.043l-0.599,0.597
		c6.126,5.993,9.244,17.921,9.244,17.921c0.769,0.768,0.743,2.035-0.05,2.828c-0.792,0.791-2.062,0.814-2.829,0.049
		c0,0-1.031-0.623-1.545-1.025c-2.005-1.572-8.979-7.66-13.104-11.479c0.197-0.526,0.396-0.976,0.605-1.368
		c0.097-0.182-0.06-0.572-0.224-0.639c-0.751-0.299-1.283-1.039-1.283-1.912c0-1.139,0.901-2.062,2.015-2.062
		c0.907,0,1.67,0.61,1.923,1.452c0.055,0.177,0.494,0.301,0.719,0.17c0.598-0.354,1.291-0.735,2.109-1.22L107.62,95.7
		c-1.624-1.623-4.377-1.502-6.148,0.268c-1.771,1.771-1.892,4.525-0.268,6.15c0,0,2.979,2.875,3.364,3.231
		c4.399,4.096,11.688,10.421,14.642,12.618c0.035,0.023,0.069,0.053,0.104,0.076c0.65,0.414,1.438,0.545,2.185,0.396
		c0.58-0.115,1.136-0.4,1.59-0.854c0.453-0.453,0.736-1.01,0.854-1.59C124.08,115.311,123.971,114.6,123.633,113.984z"/>
</g>
</svg>
