<?xml version="1.0" encoding="utf-8"?>
<!-- Generator: Adobe Illustrator 15.0.0, SVG Export Plug-In . SVG Version: 6.00 Build 0)  -->
<!DOCTYPE svg PUBLIC "-//W3C//DTD SVG 1.0//EN" "http://www.w3.org/TR/2001/REC-SVG-20010904/DTD/svg10.dtd">
<svg version="1.0" id="Layer_1" xmlns="http://www.w3.org/2000/svg" xmlns:xlink="http://www.w3.org/1999/xlink" x="0px" y="0px"
	 width="220px" height="227px" viewBox="0 0 220 227" enable-background="new 0 0 220 227" xml:space="preserve">
<g>
	<path fill="#434343" d="M129.251,96.94l-2.104-3.52c-0.387-0.387-1.008-0.396-1.385-0.018l0.03,1.403l-4.95,4.95l-1.402-0.031
		c-0.379,0.377-0.369,0.998,0.019,1.386l3.519,2.104c0.389,0.388,1.01,0.396,1.388,0.019l4.907-4.908
		C129.646,97.949,129.639,97.328,129.251,96.94z M124.37,101.765c-0.261,0.261-0.739,0.203-1.071-0.127l-0.967,0.01
		c-0.331-0.33-0.388-0.81-0.127-1.07l4.362-4.363c0.262-0.261,0.739-0.203,1.069,0.127l-0.009,0.967
		c0.331,0.33,0.39,0.81,0.128,1.07L124.37,101.765z"/>
	<polygon fill="#434343" points="139.2,115.384 138.542,116.04 143.131,113.513 129.5,100 125.973,103.528 126.621,104.181 
		127.309,103.493 128.786,104.968 128.098,105.655 128.706,106.263 129.393,105.575 130.867,107.05 130.18,107.737 130.788,108.346 
		131.477,107.659 132.95,109.134 132.264,109.821 132.87,110.429 133.559,109.741 135.036,111.216 134.348,111.903 134.955,112.512 
		135.643,111.823 137.119,113.3 136.432,113.986 137.039,114.594 137.727,113.907 	"/>
</g>
</svg>
