<?xml version="1.0" encoding="utf-8"?>
<!-- Generator: Adobe Illustrator 15.0.0, SVG Export Plug-In . SVG Version: 6.00 Build 0)  -->
<!DOCTYPE svg PUBLIC "-//W3C//DTD SVG 1.0//EN" "http://www.w3.org/TR/2001/REC-SVG-20010904/DTD/svg10.dtd">
<svg version="1.0" id="Layer_1" xmlns="http://www.w3.org/2000/svg" xmlns:xlink="http://www.w3.org/1999/xlink" x="0px" y="0px"
	 width="220px" height="227px" viewBox="0 0 220 227" enable-background="new 0 0 220 227" xml:space="preserve">
<g>
	<polygon fill="#434343" points="115,121.5 107,121.5 107,122.5 105,122.5 105,124.5 117,124.5 117,122.5 115,122.5 	"/>
	<polygon fill="#434343" points="110,106.5 110,120.5 112,120.5 112,106.5 119,106.5 112,104.75 112,103.5 111,100.5 110,103.5 
		110,104.75 103,106.5 	"/>
	<polygon fill="#434343" points="117,119.5 121,119.5 123,117.5 115,117.5 	"/>
	<polygon fill="#434343" points="107,117.5 99,117.5 101,119.5 105,119.5 	"/>
	<path fill="#434343" d="M103.02,109.256l3.066,7.229L107,116.11l-3.59-8.318c-0.084-0.174-0.254-0.288-0.48-0.273
		c-0.207,0.011-0.385,0.136-0.451,0.314l-3.459,8.318l0.949,0.293L103.02,109.256z"/>
	<path fill="#434343" d="M118.479,107.832l-3.459,8.318l0.949,0.293l3.051-7.188l3.066,7.229l0.914-0.375l-3.59-8.318
		c-0.084-0.174-0.258-0.288-0.48-0.273C118.723,107.526,118.545,107.651,118.479,107.832z"/>
</g>
</svg>
