<?xml version="1.0" encoding="utf-8"?>
<!-- Generator: Adobe Illustrator 15.0.0, SVG Export Plug-In . SVG Version: 6.00 Build 0)  -->
<!DOCTYPE svg PUBLIC "-//W3C//DTD SVG 1.0//EN" "http://www.w3.org/TR/2001/REC-SVG-20010904/DTD/svg10.dtd">
<svg version="1.0" id="Layer_1" xmlns="http://www.w3.org/2000/svg" xmlns:xlink="http://www.w3.org/1999/xlink" x="0px" y="0px"
	 width="220px" height="227px" viewBox="0 0 220 227" enable-background="new 0 0 220 227" xml:space="preserve">
<g>
	<path fill="#434343" d="M119.048,137.375c-0.234,0-0.473-0.09-0.65-0.271c-0.36-0.358-0.36-0.942,0-1.305l22.027-22.029
		c0.36-0.358,0.944-0.358,1.307,0c0.359,0.36,0.358,0.944,0,1.307l-22.03,22.028C119.52,137.285,119.284,137.375,119.048,137.375z"
		/>
	<path fill="#434343" d="M127.082,137.25c-0.229,0-0.459-0.088-0.634-0.264c-0.353-0.352-0.353-0.918,0-1.271l13.972-13.971
		c0.352-0.354,0.918-0.354,1.271,0c0.351,0.35,0.351,0.918,0,1.27l-13.974,13.973C127.541,137.162,127.312,137.25,127.082,137.25z"
		/>
	<path fill="#434343" d="M134.029,137.26c-0.229,0-0.456-0.088-0.631-0.262c-0.349-0.348-0.349-0.912,0-1.26l7.018-7.019
		c0.349-0.349,0.912-0.349,1.261,0c0.349,0.351,0.349,0.912,0,1.261l-7.018,7.018C134.485,137.172,134.257,137.26,134.029,137.26z"
		/>
</g>
</svg>
