<?xml version="1.0" encoding="utf-8"?>
<!-- Generator: Adobe Illustrator 15.0.0, SVG Export Plug-In . SVG Version: 6.00 Build 0)  -->
<!DOCTYPE svg PUBLIC "-//W3C//DTD SVG 1.0//EN" "http://www.w3.org/TR/2001/REC-SVG-20010904/DTD/svg10.dtd">
<svg version="1.0" id="Layer_1" xmlns="http://www.w3.org/2000/svg" xmlns:xlink="http://www.w3.org/1999/xlink" x="0px" y="0px"
	 width="220px" height="227px" viewBox="0 0 220 227" enable-background="new 0 0 220 227" xml:space="preserve">
<path fill="#434343" d="M141.361,106.363l3.121,0.001l-0.002-3.667h-3.107c-0.229-1.125-0.676-2.171-1.283-3.1l2.197-2.197
	l-2.594-2.592L137.5,97c-0.93-0.609-1.975-1.059-3.102-1.289v-3.098h-3.668v3.107c-1.119,0.234-2.162,0.684-3.086,1.295
	l-2.209-2.209l-2.594,2.593l2.225,2.224c-0.6,0.922-1.039,1.957-1.266,3.072l-3.152-0.001v3.668h3.162
	c0.23,1.108,0.67,2.14,1.27,3.056l-2.236,2.239l2.594,2.594l2.232-2.233c0.92,0.604,1.951,1.045,3.062,1.277v3.15h3.668v-3.139
	c1.117-0.23,2.154-0.672,3.076-1.274l2.221,2.22l2.592-2.594l-2.213-2.213C140.684,108.523,141.127,107.482,141.361,106.363z
	 M132.586,109.521c-2.764,0-5.004-2.243-5.004-5.011c0-2.769,2.24-5.012,5.004-5.012c2.766,0,5.006,2.243,5.006,5.012
	C137.59,107.277,135.35,109.521,132.586,109.521z"/>
</svg>
