<?xml version="1.0" encoding="utf-8"?>
<!-- Generator: Adobe Illustrator 15.0.0, SVG Export Plug-In . SVG Version: 6.00 Build 0)  -->
<!DOCTYPE svg PUBLIC "-//W3C//DTD SVG 1.0//EN" "http://www.w3.org/TR/2001/REC-SVG-20010904/DTD/svg10.dtd">
<svg version="1.0" id="Layer_1" xmlns="http://www.w3.org/2000/svg" xmlns:xlink="http://www.w3.org/1999/xlink" x="0px" y="0px"
	 width="220px" height="227px" viewBox="0 0 220 227" enable-background="new 0 0 220 227" xml:space="preserve">
<g>
	<path fill="#434343" d="M105.195,134.309c0.224,0.9,1.307,1.587,2.615,1.587c0.885,0,1.664-0.315,2.147-0.796
		c0.482,0.48,1.263,0.796,2.146,0.796c1.312,0,2.396-0.687,2.615-1.587c1.247-0.16,2.195-0.944,2.195-1.893
		c0-0.947-0.948-1.73-2.195-1.893c-0.222-0.902-1.305-1.588-2.615-1.588c-0.886,0-1.664,0.314-2.146,0.797
		c-0.483-0.479-1.265-0.797-2.147-0.797c-1.312,0-2.394,0.688-2.615,1.588c-1.247,0.16-2.193,0.941-2.193,1.893
		C103.002,133.365,103.948,134.148,105.195,134.309z"/>
	<path fill="#434343" d="M115.545,135.613c-0.256-0.074-0.712,1.532-3.438,1.532c-0.886,0-1.664-0.565-2.146-1.046
		c-0.483,0.48-1.265,1.046-2.147,1.046c-2.478,0-3.152-1.604-3.396-1.532c-1.52,0.443-2.559,1.459-2.322,2.268
		c0.236,0.807,1.658,1.1,3.176,0.658c0.235-0.068,0.49-0.173,0.752-0.297c-1.214,2.246-1.98,5.273-1.98,7.932
		c0,4.959,2.658,6.724,5.94,6.724s5.943-1.765,5.943-6.724c0-2.656-0.771-5.688-1.983-7.932c0.263,0.123,0.52,0.229,0.754,0.297
		c1.52,0.439,2.939,0.146,3.177-0.658C118.102,137.072,117.062,136.057,115.545,135.613z M109.042,151.021h-1.084v-1.125h1.084
		V151.021z M107.979,143.312c-0.759,0-1.374-0.616-1.374-1.374s0.615-1.374,1.374-1.374s1.374,0.616,1.374,1.374
		S108.738,143.312,107.979,143.312z M112.042,151.021h-1.084v-1.125h1.084V151.021z M113.083,141.406
		c0,0.881-0.709,1.594-1.583,1.594c-0.873,0-1.583-0.713-1.583-1.594c0-0.88,0.71-1.594,1.583-1.594
		C112.374,139.812,113.083,140.526,113.083,141.406z"/>
</g>
</svg>
