<?xml version="1.0" encoding="utf-8"?>
<!-- Generator: Adobe Illustrator 15.0.0, SVG Export Plug-In . SVG Version: 6.00 Build 0)  -->
<!DOCTYPE svg PUBLIC "-//W3C//DTD SVG 1.0//EN" "http://www.w3.org/TR/2001/REC-SVG-20010904/DTD/svg10.dtd">
<svg version="1.0" id="Layer_1" xmlns="http://www.w3.org/2000/svg" xmlns:xlink="http://www.w3.org/1999/xlink" x="0px" y="0px"
	 width="220px" height="227px" viewBox="0 0 220 227" enable-background="new 0 0 220 227" xml:space="preserve">
<g>
	<path fill="#434343" d="M133.97,123.115v-2.67h3.139c0.51,0,0.926,0.416,0.926,0.93l0.02,2.732c0,0,1.164,0.338,1.936,0.635v-4.161
		c0-1.132-0.92-2.052-2.052-2.052h-8.821c-1.133,0-2.054,0.92-2.054,2.052v4.161c0.771-0.297,1.952-0.674,1.952-0.674v-2.693
		c0-0.514,0.416-0.93,0.93-0.93h3.123v2.67C133.444,123.029,133.589,123.029,133.97,123.115z"/>
	<path fill="#434343" d="M126.253,135.711c0.695,0.05,1.131,0.564,1.269,0.749c0.103,0.097,0.331,0.263,0.517,0.252
		c0.115-0.003,0.244-0.087,0.377-0.246c0.434-0.526,0.91-0.808,1.418-0.836c0.777-0.048,1.361,0.513,1.646,0.782
		c0.386,0.363,0.55,0.395,0.604,0.386c0.066-0.006,0.189-0.086,0.342-0.282c0.018-0.035,0.037-0.068,0.061-0.098
		c0.031-0.04,0.209-0.249,0.494-0.438v-8.924v-2.47c0,0-0.225,0.044-0.602,0.123c-0.678,0.146-1.857,0.415-3.151,0.779
		c-0.765,0.217-1.563,0.466-2.325,0.743c-1.74,0.634-3.259,1.414-3.584,2.279c-0.65,1.711,0.453,4.758,1.84,7.553
		C125.577,135.749,125.97,135.689,126.253,135.711z"/>
	<path fill="#434343" d="M135.946,136.396c0.184,0.207,0.379,0.321,0.48,0.319c0.131-0.007,0.295-0.171,0.355-0.258
		c0.016-0.022,0.037-0.054,0.059-0.074c0.066-0.069,0.678-0.69,1.506-0.671c0.35,0.01,0.861,0.137,1.326,0.695
		c0.199,0.238,0.392,0.382,0.527,0.39c0.227,0.019,0.559-0.306,0.703-0.442c0.32-0.303,0.738-0.631,1.254-0.707
		c1.295-2.676,2.27-5.51,1.646-7.137c-0.33-0.863-1.859-1.646-3.609-2.279c-0.77-0.276-1.574-0.525-2.346-0.742
		c-1.303-0.364-2.492-0.635-3.178-0.779c-0.379-0.079-0.602-0.123-0.602-0.123v2.471v8.647c0.111-0.028,0.23-0.049,0.359-0.053
		C134.812,135.65,135.388,135.766,135.946,136.396z"/>
	<path fill="#434343" d="M142.974,137.977c-0.359-0.535-0.779-0.83-1.252-0.875c-0.119-0.01-0.229-0.002-0.34,0.017
		c-0.496,0.079-0.898,0.418-1.211,0.729c-0.139,0.139-0.459,0.475-0.68,0.454c-0.131-0.008-0.316-0.153-0.508-0.399
		c-0.449-0.574-0.945-0.707-1.281-0.715c-0.801-0.021-1.393,0.614-1.455,0.688c-0.021,0.021-0.041,0.051-0.058,0.076
		c-0.058,0.09-0.218,0.258-0.345,0.266c-0.1,0.002-0.287-0.116-0.465-0.332c-0.539-0.646-1.094-0.764-1.461-0.762
		c-0.123,0.004-0.238,0.024-0.348,0.053c-0.234,0.062-0.438,0.168-0.602,0.283c-0.275,0.194-0.446,0.408-0.479,0.451
		c-0.021,0.028-0.041,0.062-0.061,0.098c-0.146,0.205-0.268,0.287-0.33,0.293c-0.055,0.009-0.213-0.022-0.588-0.397
		c-0.273-0.275-0.844-0.853-1.6-0.805c-0.494,0.03-0.959,0.319-1.381,0.858c-0.129,0.166-0.254,0.252-0.367,0.256
		c-0.178,0.009-0.402-0.162-0.5-0.26c-0.133-0.191-0.561-0.72-1.234-0.771c-0.273-0.021-0.657,0.039-1.07,0.363
		c-0.133,0.104-0.27,0.232-0.402,0.396c-0.129,0.151-0.33,0.326-0.506,0.332c-0.217-0.004-0.443-0.232-0.506-0.312
		c-0.201-0.262-0.572-0.314-0.838-0.115s-0.316,0.574-0.119,0.838c0.059,0.08,0.598,0.767,1.428,0.787
		c0.371,0.01,0.922-0.115,1.461-0.762c0.01-0.014,0.021-0.023,0.033-0.037c0.168-0.189,0.334-0.301,0.434-0.295
		c0.125,0.008,0.285,0.178,0.338,0.26c0.02,0.029,0.039,0.057,0.062,0.082c0.062,0.072,0.653,0.732,1.455,0.691
		c0.336-0.01,0.832-0.143,1.278-0.717c0.192-0.246,0.38-0.394,0.511-0.4c0.219-0.006,0.539,0.314,0.68,0.455
		c0.354,0.354,0.83,0.75,1.422,0.75c0.043,0,0.086-0.002,0.129-0.006c0.271-0.025,0.521-0.143,0.754-0.33
		c0.178-0.141,0.344-0.316,0.496-0.547c0.009-0.01,0.016-0.021,0.021-0.033c0.021-0.023,0.049-0.051,0.082-0.078
		c0.1-0.088,0.241-0.182,0.383-0.184h0.004c0.187,0,0.375,0.18,0.5,0.33c0.564,0.676,1.111,0.785,1.478,0.76
		c0.677-0.051,1.103-0.578,1.233-0.77c0.074-0.074,0.312-0.283,0.498-0.261c0.115,0.002,0.238,0.091,0.369,0.257
		c0.422,0.538,0.887,0.827,1.381,0.856c0.348,0.022,0.66-0.095,0.922-0.25c0.297-0.179,0.531-0.406,0.681-0.554
		c0.372-0.375,0.534-0.405,0.587-0.397c0.068,0.006,0.201,0.103,0.369,0.351c0.186,0.274,0.559,0.348,0.832,0.164
		C143.083,138.623,143.157,138.252,142.974,137.977z"/>
	<rect x="131.046" y="115.531" fill="#434343" width="1.908" height="2.906"/>
	<rect x="134.017" y="115.5" fill="#434343" width="1.947" height="3"/>
</g>
</svg>
