<?xml version="1.0" encoding="utf-8"?>
<!-- Generator: Adobe Illustrator 15.0.0, SVG Export Plug-In . SVG Version: 6.00 Build 0)  -->
<!DOCTYPE svg PUBLIC "-//W3C//DTD SVG 1.0//EN" "http://www.w3.org/TR/2001/REC-SVG-20010904/DTD/svg10.dtd">
<svg version="1.0" id="Layer_1" xmlns="http://www.w3.org/2000/svg" xmlns:xlink="http://www.w3.org/1999/xlink" x="0px" y="0px"
	 width="220px" height="227px" viewBox="0 0 220 227" enable-background="new 0 0 220 227" xml:space="preserve">
<path fill="#434343" d="M99.204,105.846c1.327-1.865,3.296-4.536,3.296-7.459c0-5.771-5.911-10.449-11.969-10.449
	c-6.059,0-11.969,4.681-11.969,10.449c0,2.912,2.08,5.576,3.271,7.438c0.459,0.717,0.673,2.802,0.673,2.968
	c0,0.123,0.02,0.242,0.044,0.359c0.136,0.936,0.943,1.66,1.941,1.693c0,0,0.741,0.014,0.854-0.001
	c1.131-0.131,2.01-0.888,2.129-1.841c0.096,0.943,0.998,1.869,3.032,1.869s2.907-0.896,3.027-1.808
	c0.159,0.945,1.082,1.683,2.239,1.771c0.078,0.006,0.858,0,0.858,0c1.054-0.08,1.886-0.922,1.886-1.96c0,0-0.009-0.004-0.016-0.007
	c0.002-0.033,0.012-0.062,0.012-0.096C98.516,108.595,98.732,106.509,99.204,105.846z M85.5,100.031c-1.727,0-3.125-1.41-3.125-3.15
	s1.398-3.15,3.125-3.15s3.125,1.41,3.125,3.15S87.227,100.031,85.5,100.031z M90.5,103.905c-1.234,0-2.234,0.659-2.234-0.267
	c0-0.922,1-2.826,2.234-2.826c1.236,0,2.234,1.904,2.234,2.826C92.734,104.564,91.736,103.905,90.5,103.905z M95.5,100
	c-1.709,0-3.094-1.396-3.094-3.119s1.385-3.119,3.094-3.119s3.094,1.396,3.094,3.119S97.209,100,95.5,100z"/>
</svg>
