<?xml version="1.0" encoding="utf-8"?>
<!-- Generator: Adobe Illustrator 15.0.0, SVG Export Plug-In . SVG Version: 6.00 Build 0)  -->
<!DOCTYPE svg PUBLIC "-//W3C//DTD SVG 1.0//EN" "http://www.w3.org/TR/2001/REC-SVG-20010904/DTD/svg10.dtd">
<svg version="1.0" id="Layer_1" xmlns="http://www.w3.org/2000/svg" xmlns:xlink="http://www.w3.org/1999/xlink" x="0px" y="0px"
	 width="220px" height="227px" viewBox="0 0 220 227" enable-background="new 0 0 220 227" xml:space="preserve">
<g>
	<g>
		<path fill="#434343" d="M106.939,110.105c-0.544-0.003-0.98-0.452-0.979-1.004l0.022-4.59l-3.747-4.312
			c-0.332-0.438-0.25-1.066,0.182-1.402l5.747-4.442c0.207-0.161,0.472-0.234,0.728-0.198c0.261,0.033,0.494,0.172,0.653,0.381
			l2.339,2.735l3.469,1.661c0.509,0.196,0.765,0.773,0.57,1.29c-0.191,0.517-0.762,0.777-1.271,0.58l-3.729-1.763
			c-0.171-0.065-0.317-0.178-0.432-0.324l-1.908-2.166l-4.023,3.223l3.19,3.791c0.132,0.176,0.138,0.324,0.137,0.546l-0.021,4.931
			C107.862,109.594,107.484,110.107,106.939,110.105L106.939,110.105z"/>
	</g>
	<g>
		<path fill="#434343" d="M114.51,102.125c-2.456,0-4.445,2.015-4.445,4.5s1.989,4.5,4.445,4.5c2.457,0,4.448-2.015,4.448-4.5
			S116.967,102.125,114.51,102.125z M114.5,109.25c-1.449,0-2.625-1.176-2.625-2.625S113.051,104,114.5,104s2.625,1.176,2.625,2.625
			S115.949,109.25,114.5,109.25z"/>
		<path fill="#434343" d="M99.5,102.187c-2.451,0-4.438,1.986-4.438,4.438s1.986,4.438,4.438,4.438s4.438-1.986,4.438-4.438
			S101.951,102.187,99.5,102.187z M99.5,109.25c-1.449,0-2.625-1.176-2.625-2.625S98.051,104,99.5,104s2.625,1.176,2.625,2.625
			S100.949,109.25,99.5,109.25z"/>
	</g>
	<ellipse fill="#434343" cx="111.958" cy="92.125" rx="1.958" ry="2"/>
</g>
</svg>
