<?xml version="1.0" encoding="utf-8"?>
<!-- Generator: Adobe Illustrator 15.0.0, SVG Export Plug-In . SVG Version: 6.00 Build 0)  -->
<!DOCTYPE svg PUBLIC "-//W3C//DTD SVG 1.0//EN" "http://www.w3.org/TR/2001/REC-SVG-20010904/DTD/svg10.dtd">
<svg version="1.0" id="Layer_1" xmlns="http://www.w3.org/2000/svg" xmlns:xlink="http://www.w3.org/1999/xlink" x="0px" y="0px"
	 width="220px" height="227px" viewBox="0 0 220 227" enable-background="new 0 0 220 227" xml:space="preserve">
<g>
	<path fill="#434343" d="M125.906,89.625c-4.361,0-7.897,3.452-7.897,7.711c0,1.101,0.24,2.146,0.663,3.092l7.234,13.03l7.231-13.03
		c0.427-0.945,0.663-1.991,0.663-3.092C133.803,93.077,130.27,89.625,125.906,89.625z M126,102.601
		c-2.797,0-5.062-2.278-5.062-5.092c0-2.812,2.267-5.09,5.062-5.09c2.795,0,5.062,2.278,5.062,5.09
		C131.062,100.322,128.795,102.601,126,102.601z"/>
	<ellipse fill="#434343" cx="126" cy="97.481" rx="2.875" ry="2.856"/>
</g>
</svg>
