<?xml version="1.0" encoding="utf-8"?>
<!-- Generator: Adobe Illustrator 15.0.0, SVG Export Plug-In . SVG Version: 6.00 Build 0)  -->
<!DOCTYPE svg PUBLIC "-//W3C//DTD SVG 1.0//EN" "http://www.w3.org/TR/2001/REC-SVG-20010904/DTD/svg10.dtd">
<svg version="1.0" id="Layer_1" xmlns="http://www.w3.org/2000/svg" xmlns:xlink="http://www.w3.org/1999/xlink" x="0px" y="0px"
	 width="220px" height="227px" viewBox="0 0 220 227" enable-background="new 0 0 220 227" xml:space="preserve">
<path fill="#434343" d="M117.074,69.5c-4.379,0-7.928,3.768-7.928,8.416c0,2.375,7.928,15.416,7.928,15.416S125,80.416,125,77.916
	C125,73.268,121.451,69.5,117.074,69.5z M119.051,80.996l-1.953-1.969l-1.943,1.96c-0.457,0.462-1.189,0.473-1.637,0.022
	c-0.444-0.448-0.434-1.188,0.023-1.646l1.945-1.96l-1.955-1.971c-0.457-0.463-0.463-1.204-0.016-1.656
	c0.449-0.452,1.188-0.446,1.645,0.015l1.955,1.97l1.945-1.96c0.455-0.461,1.188-0.473,1.635-0.021
	c0.443,0.447,0.434,1.187-0.023,1.646l-1.945,1.959l1.955,1.971c0.457,0.461,0.465,1.203,0.016,1.655
	C120.246,81.464,119.508,81.457,119.051,80.996z"/>
</svg>
