<?xml version="1.0" encoding="utf-8"?>
<!-- Generator: Adobe Illustrator 15.0.0, SVG Export Plug-In . SVG Version: 6.00 Build 0)  -->
<!DOCTYPE svg PUBLIC "-//W3C//DTD SVG 1.0//EN" "http://www.w3.org/TR/2001/REC-SVG-20010904/DTD/svg10.dtd">
<svg version="1.0" id="Layer_1" xmlns="http://www.w3.org/2000/svg" xmlns:xlink="http://www.w3.org/1999/xlink" x="0px" y="0px"
	 width="220px" height="227px" viewBox="0 0 220 227" enable-background="new 0 0 220 227" xml:space="preserve">
<g>
	<g>
		<ellipse fill="#434343" cx="117.49" cy="120.043" rx="2.403" ry="2.458"/>
		<ellipse fill="#434343" cx="130.552" cy="120.084" rx="2.365" ry="2.417"/>
		<path fill="#434343" d="M127.213,103.197c0,0.859,0,5.443,0,5.443c0,0.541-0.452,0.981-1.011,0.981c0,0-10.403,0-11.119,0
			c-0.715,0-1.041,0.858-1.041,1.842c0,2.793,2.115,4.867,10.433,4.867c8.318,0,10.4-3.04,10.4-6.792
			c0-2.59-2.223-5.408-5.488-6.554C128.704,102.749,127.213,102.336,127.213,103.197z"/>
		<path fill="none" stroke="#434343" stroke-width="2" stroke-linecap="round" stroke-linejoin="round" stroke-miterlimit="10" d="
			M134.042,109.251v-5.667c0-1.104,0.896-2,2-2h1"/>
	</g>
	<rect x="118.5" y="119.625" fill="#434343" width="10.625" height="0.812"/>
	<polygon fill="#434343" points="124.951,119.931 124.383,119.281 130.049,114.068 130.617,114.718 	"/>
	<polygon fill="#434343" points="123.049,119.931 123.617,119.281 117.951,114.068 117.383,114.718 	"/>
</g>
</svg>
