<?xml version="1.0" encoding="utf-8"?>
<!-- Generator: Adobe Illustrator 15.0.0, SVG Export Plug-In . SVG Version: 6.00 Build 0)  -->
<!DOCTYPE svg PUBLIC "-//W3C//DTD SVG 1.0//EN" "http://www.w3.org/TR/2001/REC-SVG-20010904/DTD/svg10.dtd">
<svg version="1.0" id="Layer_1" xmlns="http://www.w3.org/2000/svg" xmlns:xlink="http://www.w3.org/1999/xlink" x="0px" y="0px"
	 width="220px" height="227px" viewBox="0 0 220 227" enable-background="new 0 0 220 227" xml:space="preserve">
<g>
	<path fill="#434343" d="M113.009,112.521c-1.639,0-2.966,1.339-2.966,2.987c0,1.651,1.327,2.99,2.966,2.99
		c1.636,0,2.966-1.339,2.966-2.99C115.975,113.859,114.645,112.521,113.009,112.521z M113.009,117.373
		c-1.021,0-1.849-0.834-1.849-1.863c0-1.027,0.826-1.861,1.849-1.861c1.019,0,1.849,0.834,1.849,1.861
		C114.857,116.539,114.027,117.373,113.009,117.373z"/>
	<path fill="#434343" d="M124.009,112.521c-1.639,0-2.966,1.339-2.966,2.987c0,1.651,1.327,2.99,2.966,2.99
		c1.636,0,2.966-1.339,2.966-2.99C126.975,113.859,125.645,112.521,124.009,112.521z M124.009,117.375
		c-1.022,0-1.85-0.836-1.85-1.865c0-1.027,0.827-1.862,1.85-1.862c1.021,0,1.851,0.835,1.851,1.862
		C125.859,116.539,125.027,117.375,124.009,117.375z"/>
	<g>
		<path fill="#434343" d="M118.986,102.459h10.962c0-7.976-4.041-6.861-6.933-6.861C123.018,95.598,119.439,100.307,118.986,102.459
			z"/>
		<path fill="#434343" d="M107.013,103.553c0.099,4.352-1.084,7.947,10.989,7.947c12.624,0,11.979-3.555,11.997-7.947H107.013z"/>
	</g>
	<g>
		<path fill="#434343" d="M120.491,108.5c-0.13,0-0.259-0.045-0.358-0.136l-6.461-5.896h-7.163c-0.28,0-0.508-0.207-0.508-0.463
			c0-0.257,0.228-0.465,0.508-0.465h7.584l6.759,6.167c0.199,0.181,0.199,0.476,0,0.656
			C120.753,108.455,120.622,108.5,120.491,108.5z"/>
	</g>
</g>
</svg>
