<?xml version="1.0" encoding="utf-8"?>
<!-- Generator: Adobe Illustrator 15.0.0, SVG Export Plug-In . SVG Version: 6.00 Build 0)  -->
<!DOCTYPE svg PUBLIC "-//W3C//DTD SVG 1.0//EN" "http://www.w3.org/TR/2001/REC-SVG-20010904/DTD/svg10.dtd">
<svg version="1.0" id="Layer_1" xmlns="http://www.w3.org/2000/svg" xmlns:xlink="http://www.w3.org/1999/xlink" x="0px" y="0px"
	 width="220px" height="227px" viewBox="0 0 220 227" enable-background="new 0 0 220 227" xml:space="preserve">
<g>
	
		<rect x="92.22" y="108.647" transform="matrix(-0.7071 0.7071 -0.7071 -0.7071 241.5346 118.5049)" fill="#434343" width="8.009" height="1.257"/>
	<path fill="#434343" d="M96.442,111.042l-1.24,1.241c0.032,0.576-0.163,1.167-0.605,1.607c-0.82,0.823-2.161,0.825-2.984,0
		c-0.823-0.824-0.824-2.164,0-2.986c0.438-0.44,1.024-0.637,1.604-0.604l1.242-1.241l-0.677-0.681c0,0-6.447-0.526-7.112,0.146
		L76,119.186c-0.666,0.67-0.666,1.752,0,2.42l7.896,7.896c0.666,0.668,1.747,0.667,2.418-0.001l10.664-10.664
		c0.67-0.669,0.428-6.827,0.428-6.827L96.442,111.042z M81.5,119.445l1.42-1.424l-1.306-1.306l1.35-1.348l1.306,1.307l1.425-1.423
		l1.373,1.373l-1.425,1.422l1.307,1.309l-1.351,1.348l-1.305-1.307l-1.422,1.422L81.5,119.445z M85.213,126.109l-1.452-1.453
		l5.991-5.992l-1.123-1.122l1.32-1.321l2.575,2.574L85.213,126.109z"/>
</g>
</svg>
