<?xml version="1.0" encoding="utf-8"?>
<!-- Generator: Adobe Illustrator 15.0.0, SVG Export Plug-In . SVG Version: 6.00 Build 0)  -->
<!DOCTYPE svg PUBLIC "-//W3C//DTD SVG 1.0//EN" "http://www.w3.org/TR/2001/REC-SVG-20010904/DTD/svg10.dtd">
<svg version="1.0" id="Layer_1" xmlns="http://www.w3.org/2000/svg" xmlns:xlink="http://www.w3.org/1999/xlink" x="0px" y="0px"
	 width="220px" height="227px" viewBox="0 0 220 227" enable-background="new 0 0 220 227" xml:space="preserve">
<g>
	<path fill="#434343" d="M126.557,86.156h-8.899l4.122-5.814L120.255,80l-4.354,6.156h-0.012L111.536,80l-1.524,0.342l4.122,5.814
		h-9.739c-0.493,0-0.895,0.393-0.895,0.877v15.016c0,0.484,0.399,0.876,0.895,0.876h22.163c0.493,0,0.895-0.392,0.895-0.876V87.033
		C127.449,86.549,127.05,86.156,126.557,86.156z M120.633,99.477c0,0.326-0.239,0.591-0.534,0.591h-13.27
		c-0.295,0-0.534-0.265-0.534-0.591V89.365c0-0.326,0.239-0.592,0.534-0.592h13.27c0.295,0,0.534,0.266,0.534,0.592V99.477z
		 M124.445,101.567c-0.911,0-1.646-0.699-1.646-1.563c0-0.865,0.735-1.566,1.646-1.566c0.907,0,1.646,0.701,1.646,1.566
		C126.091,100.866,125.353,101.567,124.445,101.567z"/>
</g>
</svg>
