<?xml version="1.0" encoding="utf-8"?>
<!-- Generator: Adobe Illustrator 15.0.0, SVG Export Plug-In . SVG Version: 6.00 Build 0)  -->
<!DOCTYPE svg PUBLIC "-//W3C//DTD SVG 1.0//EN" "http://www.w3.org/TR/2001/REC-SVG-20010904/DTD/svg10.dtd">
<svg version="1.0" id="Layer_1" xmlns="http://www.w3.org/2000/svg" xmlns:xlink="http://www.w3.org/1999/xlink" x="0px" y="0px"
	 width="220px" height="227px" viewBox="0 0 220 227" enable-background="new 0 0 220 227" xml:space="preserve">
<g>
	<polygon fill="#434343" points="112.406,125 112.406,123.969 98.449,123.969 98.449,125 96.355,125 96.355,123.969 93.5,123.969 
		93.5,130.969 117.418,130.969 117.418,123.969 114.449,123.969 114.449,125 	"/>
	<polygon fill="#434343" points="98.449,121.906 98.449,122.969 112.406,122.969 112.406,121.906 114.449,121.906 114.449,122.969 
		117.418,122.969 117.418,119.135 93.5,119.135 93.5,122.969 96.355,122.969 96.355,121.906 	"/>
	<g>
		<polygon fill="#434343" points="104.293,117.912 102.428,117.912 102.428,115 109.387,115 109.387,117.822 107.482,117.822 
			107.482,116.789 104.293,116.789 		"/>
	</g>
</g>
</svg>
