<?xml version="1.0" encoding="utf-8"?>
<!-- Generator: Adobe Illustrator 15.0.0, SVG Export Plug-In . SVG Version: 6.00 Build 0)  -->
<!DOCTYPE svg PUBLIC "-//W3C//DTD SVG 1.0//EN" "http://www.w3.org/TR/2001/REC-SVG-20010904/DTD/svg10.dtd">
<svg version="1.0" id="Layer_1" xmlns="http://www.w3.org/2000/svg" xmlns:xlink="http://www.w3.org/1999/xlink" x="0px" y="0px"
	 width="220px" height="227px" viewBox="0 0 220 227" enable-background="new 0 0 220 227" xml:space="preserve">
<g>
	<ellipse fill="#434343" cx="120.979" cy="116.5" rx="1.938" ry="1.916"/>
	<ellipse fill="#434343" cx="128.979" cy="116.5" rx="1.938" ry="1.916"/>
	<polygon fill="#434343" points="137.959,112.541 135.959,112.541 135.959,110.541 134.021,110.541 134.021,112.541 
		132.021,112.541 132.021,114.479 134.021,114.479 134.021,116.479 135.959,116.479 135.959,114.479 137.959,114.479 	"/>
	<path fill="#434343" d="M135.98,98.5c-1.072,0-1.939,0.896-1.939,2l-0.256,2.008h-18.922c-0.479,0-0.863,0.443-0.863,0.992
		c0,0.207,0.068,0.388,0.162,0.547l1.811,7.771c0.061,0.257,0.25,0.444,0.494,0.552c0.121,0.073,0.252,0.124,0.396,0.124h14.104
		v-1.023H133v-2h1.822l0.902-6.995c0.084,0.013,0.166,0.026,0.256,0.026c1.068,0,1.936-0.896,1.936-2
		C137.916,99.398,137.051,98.5,135.98,98.5z M119.023,110.508h-1.32l-0.469-2.016h1.789V110.508z M119.023,106.508h-2.252
		l-0.471-2.016h2.723V106.508z M122.023,110.508h-2.109v-2.016h2.109V110.508z M122.023,106.508h-2.109v-2.016h2.109V106.508z
		 M125.023,110.508h-2.109v-2.016h2.109V110.508z M125.023,106.508h-2.109v-2.016h2.109V106.508z M128.023,110.508h-2.049v-2.016
		h2.049V110.508z M128.023,106.508h-2.049v-2.016h2.049V106.508z M131.023,110.508h-2.049v-2.016h2.049V110.508z M131.023,106.508
		h-2.049v-2.016h2.049V106.508z M132.822,110.508h-0.848v-2.016h1.104L132.822,110.508z M133.281,106.508h-1.307v-2.016h1.555
		L133.281,106.508z"/>
	<path fill="#434343" d="M130.969,115.531v-1.023h-13.104c-0.479,0-0.863,0.443-0.863,0.992s0.387,0.992,0.863,0.992H133v-0.961
		H130.969z"/>
</g>
</svg>
