<?xml version="1.0" encoding="utf-8"?>
<!-- Generator: Adobe Illustrator 15.0.0, SVG Export Plug-In . SVG Version: 6.00 Build 0)  -->
<!DOCTYPE svg PUBLIC "-//W3C//DTD SVG 1.0//EN" "http://www.w3.org/TR/2001/REC-SVG-20010904/DTD/svg10.dtd">
<svg version="1.0" id="Layer_1" xmlns="http://www.w3.org/2000/svg" xmlns:xlink="http://www.w3.org/1999/xlink" x="0px" y="0px"
	 width="220px" height="227px" viewBox="0 0 220 227" enable-background="new 0 0 220 227" xml:space="preserve">
<g>
	<path fill="#434343" d="M116.042,108.473c0,2.699-2.229,7.861-4.979,7.861c-2.749,0-4.979-5.162-4.979-7.861
		s2.23-4.889,4.979-4.889C113.812,103.584,116.042,105.772,116.042,108.473z"/>
	<path fill="#434343" d="M115.979,122.451h6.614c-0.669-2.378-2.381-5.936-6.069-5.936c-1.276,1.74-5.523,2.187-5.523,2.187
		s-4.343-0.429-5.621-2.146c-6.129,0-6.314,8.893-6.314,8.893h16.916v-2.997H115.979z"/>
	<rect x="117.062" y="123.5" fill="#434343" width="5.938" height="2"/>
</g>
</svg>
