<?xml version="1.0" encoding="utf-8"?>
<!-- Generator: Adobe Illustrator 15.0.0, SVG Export Plug-In . SVG Version: 6.00 Build 0)  -->
<!DOCTYPE svg PUBLIC "-//W3C//DTD SVG 1.0//EN" "http://www.w3.org/TR/2001/REC-SVG-20010904/DTD/svg10.dtd">
<svg version="1.0" id="Layer_1" xmlns="http://www.w3.org/2000/svg" xmlns:xlink="http://www.w3.org/1999/xlink" x="0px" y="0px"
	 width="220px" height="227px" viewBox="0 0 220 227" enable-background="new 0 0 220 227" xml:space="preserve">
<g>
	<g>
		<rect x="124" y="98.584" fill="#434343" width="5.834" height="2.75"/>
		<rect x="120" y="102.584" fill="#434343" width="5.834" height="2.75"/>
		<rect x="127.078" y="102.584" fill="#434343" width="2.822" height="2.812"/>
		<rect x="106.084" y="106.584" fill="#434343" width="3.854" height="2.791"/>
		<rect x="111.084" y="106.584" fill="#434343" width="5.916" height="2.75"/>
		<rect x="118.084" y="106.584" fill="#434343" width="5.916" height="2.75"/>
		<rect x="125.084" y="106.584" fill="#434343" width="4.916" height="2.75"/>
		<rect x="113" y="102.584" fill="#434343" width="5.834" height="2.75"/>
		<rect x="106" y="102.584" fill="#434343" width="5.834" height="2.75"/>
		<rect x="117" y="98.584" fill="#434343" width="5.834" height="2.75"/>
		<rect x="110" y="98.584" fill="#434343" width="5.834" height="2.75"/>
		<rect x="106" y="98.584" fill="#434343" width="3" height="2.75"/>
	</g>
	<rect x="106" y="110.584" fill="#434343" width="4.834" height="2.75"/>
	<rect x="112" y="110.584" fill="#434343" width="3.834" height="2.75"/>
	<rect x="117" y="110.584" fill="#434343" width="4.834" height="2.75"/>
	<rect x="123" y="110.584" fill="#434343" width="6.896" height="2.916"/>
</g>
</svg>
