<?xml version="1.0" encoding="utf-8"?>
<!-- Generator: Adobe Illustrator 15.0.0, SVG Export Plug-In . SVG Version: 6.00 Build 0)  -->
<!DOCTYPE svg PUBLIC "-//W3C//DTD SVG 1.0//EN" "http://www.w3.org/TR/2001/REC-SVG-20010904/DTD/svg10.dtd">
<svg version="1.0" id="Layer_1" xmlns="http://www.w3.org/2000/svg" xmlns:xlink="http://www.w3.org/1999/xlink" x="0px" y="0px"
	 width="220px" height="227px" viewBox="0 0 220 227" enable-background="new 0 0 220 227" xml:space="preserve">
<g>
	<ellipse fill="#434343" cx="125.053" cy="95.506" rx="1.916" ry="1.857"/>
	<path fill="#434343" d="M114.953,95.573c0-3.577,2.011-6.698,4.976-8.349l-0.931-1.687C115.422,87.512,113,91.267,113,95.571
		c0,4.19,2.303,7.854,5.726,9.87l0.971-1.666C116.859,102.101,114.953,99.055,114.953,95.573z"/>
	<path fill="#434343" d="M137,95.571c0-4.251-2.433-7.956-6.012-9.875l-0.957,1.628c3,1.593,5.04,4.691,5.04,8.247
		c0,3.614-2.11,6.752-5.19,8.321l0.919,1.647C134.482,103.654,137,99.896,137,95.571z"/>
	<path fill="#434343" d="M118.083,95.503c0,2.987,1.567,5.597,3.884,6.998l0.965-1.767c-1.731-1.049-2.902-3.001-2.902-5.231
		c0-2.251,1.187-4.21,2.939-5.253l-0.927-1.791C119.682,89.847,118.083,92.48,118.083,95.503z"/>
	<path fill="#434343" d="M130.114,95.445c0,2.303-1.261,4.299-3.092,5.277l0.899,1.757c2.417-1.318,4.076-3.976,4.076-7.034
		c0-2.966-1.556-5.55-3.85-6.908l-0.938,1.729C128.942,91.284,130.114,93.222,130.114,95.445z"/>
</g>
</svg>
