<?xml version="1.0" encoding="utf-8"?>
<!-- Generator: Adobe Illustrator 15.0.0, SVG Export Plug-In . SVG Version: 6.00 Build 0)  -->
<!DOCTYPE svg PUBLIC "-//W3C//DTD SVG 1.0//EN" "http://www.w3.org/TR/2001/REC-SVG-20010904/DTD/svg10.dtd">
<svg version="1.0" id="Layer_1" xmlns="http://www.w3.org/2000/svg" xmlns:xlink="http://www.w3.org/1999/xlink" x="0px" y="0px"
	 width="220px" height="227px" viewBox="0 0 220 227" enable-background="new 0 0 220 227" xml:space="preserve">
<g>
	<path fill="#434343" d="M105.1,103.229l1.372-9.036c-0.426-0.187-0.854-0.392-1.28-0.64c-3.197-1.856-6.534-1.791-9.021-1.297
		l-1.506,9.521C96.999,101.274,101.107,100.929,105.1,103.229z"/>
	<path fill="#434343" d="M115.824,103.03l1.175-8.898c-1.592,0.685-5.242,1.873-9.183,0.587l-1.365,8.965
		C110.263,105.612,114.056,104.024,115.824,103.03z"/>
	<path fill="#434343" d="M104.775,104.588c-3.924-2.407-8.139-1.888-10.26-1.386l-1.388,8.71c1.775-0.735,6.199-1.146,10.613,0.74
		l1.101-8.026C104.82,104.612,104.799,104.602,104.775,104.588z"/>
	<path fill="#434343" d="M114.38,114.517l1.234-9.771c-1.314,0.654-3.248,1.369-5.432,1.369c-1.254,0-2.592-0.244-3.934-0.867
		l-1.083,7.91c0.104,0.057,0.21,0.1,0.316,0.162C108.751,115.226,112.043,115.062,114.38,114.517z"/>
</g>
</svg>
