<?xml version="1.0" encoding="utf-8"?>
<!-- Generator: Adobe Illustrator 15.0.0, SVG Export Plug-In . SVG Version: 6.00 Build 0)  -->
<!DOCTYPE svg PUBLIC "-//W3C//DTD SVG 1.0//EN" "http://www.w3.org/TR/2001/REC-SVG-20010904/DTD/svg10.dtd">
<svg version="1.0" id="Layer_1" xmlns="http://www.w3.org/2000/svg" xmlns:xlink="http://www.w3.org/1999/xlink" x="0px" y="0px"
	 width="220px" height="227px" viewBox="0 0 220 227" enable-background="new 0 0 220 227" xml:space="preserve">
<g>
	<circle fill="#434343" cx="132.021" cy="117.499" r="2"/>
	<circle fill="#434343" cx="136.963" cy="116.53" r="1.979"/>
	<ellipse fill="#434343" cx="132.972" cy="112.553" rx="1.958" ry="1.98"/>
	<path fill="#434343" d="M130.615,107.541c-0.111,0.037-0.21,0.131-0.3,0.216c-0.358,0.339-0.806,0.554-1.281,0.665
		c-0.628,0.148-1.736-0.316-2.281-0.76c-0.747,1.808-3.226,2.169-4.318,0.676c0.153,0.857,0.226,1.236-0.407,1.838
		c-0.617,0.585-1.26,0.931-2.01,1.224c0.252-0.101,0.487-0.177,0.762-0.185c1.088-0.043,2.223,0.616,2.857,1.502
		c0.305,0.422,0.508,0.939,0.46,1.479c-0.007,0.093-0.092,0.312-0.011,0.365c0.117,0.072,0.415-0.176,0.521-0.223
		c0.392-0.176,0.834-0.241,1.257-0.211c0.663,0.045,1.097,0.461,1.473,0.98c0.225,0.307,0.528,1.906,1.182,1.271
		c0.229-0.223,0.293-0.725,0.48-1.014c0.223-0.342,0.562-0.551,0.791-0.854c0.284-0.375,0.028-0.922-0.144-1.286
		c-0.124-0.267-0.169-0.548-0.188-0.833c-0.512-0.336-1.782-0.946-4.281-0.928h-0.003c-0.266,0-0.479-0.217-0.48-0.487
		c-0.002-0.27,0.211-0.493,0.479-0.495c0.042-0.001,0.084-0.001,0.127-0.001c2.137,0,3.485,0.45,4.265,0.849
		c0.068-0.271,0.157-0.54,0.262-0.787c0.143-0.349,0.411-0.537,0.701-0.732c0.242-0.164,0.481-0.371,0.425-0.715
		C130.855,108.572,130.638,108.082,130.615,107.541z"/>
	<path fill="#434343" d="M144,104.244c-0.792,0.258-1.528,0.41-2.401,0.371c-0.896-0.041-1.085-0.363-1.511-1.086
		c0.08,1.78-2.146,3.082-3.912,2.229c-0.152,0.67-0.748,1.709-1.348,1.998c-0.456,0.219-0.953,0.342-1.46,0.32
		c-0.126-0.005-0.267-0.015-0.378,0.031c-0.107,0.041,0.788,1.003,0.951,1.084c0.487,0.242,1.006,0.278,1.343,0.721
		c0.119,0.156,0.237,0.338,0.343,0.522c0.656-0.917,1.865-2.381,3.723-3.785c0.219-0.161,0.533-0.134,0.711,0.067
		c0.177,0.199,0.145,0.494-0.071,0.658c-2.391,1.805-3.651,3.729-3.974,4.258c0.039,0.197,0.103,0.387,0.264,0.558
		c0.436,0.464,1.006,0.257,1.566,0.411c0.349,0.098,0.678,0.242,0.979,0.426c0.283,0.171,0.46,0.453,0.812,0.477
		c0.465,0.027,0.81-0.182,0.982-0.576c0.234-0.534-0.093-0.836-0.121-1.349c-0.032-0.618,0.05-1.197,0.555-1.649
		c0.321-0.287,0.721-0.518,1.147-0.637c0.112-0.031,0.513-0.038,0.559-0.165c0.034-0.091-0.177-0.198-0.241-0.262
		c-0.385-0.364-0.555-0.872-0.58-1.372c-0.059-1.051,0.434-2.249,1.336-2.906C143.497,104.424,143.734,104.33,144,104.244z"/>
</g>
</svg>
