<?xml version="1.0" encoding="utf-8"?>
<!-- Generator: Adobe Illustrator 15.0.0, SVG Export Plug-In . SVG Version: 6.00 Build 0)  -->
<!DOCTYPE svg PUBLIC "-//W3C//DTD SVG 1.0//EN" "http://www.w3.org/TR/2001/REC-SVG-20010904/DTD/svg10.dtd">
<svg version="1.0" id="Layer_1" xmlns="http://www.w3.org/2000/svg" xmlns:xlink="http://www.w3.org/1999/xlink" x="0px" y="0px"
	 width="220px" height="227px" viewBox="0 0 220 227" enable-background="new 0 0 220 227" xml:space="preserve">
<g>
	<path fill="#434343" d="M106.938,126.5c-6.592,0-11.938,5.354-11.938,11.959c0,6.604,5.346,11.958,11.938,11.958
		c6.596,0,11.938-5.354,11.938-11.958C118.876,131.854,113.531,126.5,106.938,126.5z M106.876,130.46
		c1.15,0,2.083,0.933,2.083,2.083c0,1.149-0.933,2.082-2.083,2.082c-1.151,0-2.083-0.933-2.083-2.082
		C104.793,131.393,105.725,130.46,106.876,130.46z M106.938,149.416c-4.812,0-8.979-6.291,0.104-10.915
		c8.287-4.22,4.417-11.417-0.104-10.999c6.896,0,10.938,4.905,10.938,10.957C117.876,144.51,112.979,149.416,106.938,149.416z"/>
	<circle fill="#434343" cx="106.876" cy="144.542" r="1.833"/>
</g>
</svg>
