<?xml version="1.0" encoding="utf-8"?>
<!-- Generator: Adobe Illustrator 15.0.0, SVG Export Plug-In . SVG Version: 6.00 Build 0)  -->
<!DOCTYPE svg PUBLIC "-//W3C//DTD SVG 1.0//EN" "http://www.w3.org/TR/2001/REC-SVG-20010904/DTD/svg10.dtd">
<svg version="1.0" id="Layer_1" xmlns="http://www.w3.org/2000/svg" xmlns:xlink="http://www.w3.org/1999/xlink" x="0px" y="0px"
	 width="109.753px" height="99.815px" viewBox="0 0 109.753 99.815" enable-background="new 0 0 109.753 99.815"
	 xml:space="preserve">
<g>
	<g>
		<path fill="none" stroke="#333333" stroke-width="2" stroke-miterlimit="10" d="M47.46,78.076
			c2.384,1.887,4.384,2.997,5.572,2.997c5.259,0,26.45-21.771,26.45-36.396c0-14.12-11.869-25.604-26.45-25.604
			c-14.586,0-26.451,11.484-26.451,25.604c0,8.021,6.374,18.191,12.998,25.741 M68.998,56.334c-1.125,1.107-5.031,4.726-8.188,4.726
			c-1.248,0-2.05-0.527-2.492-0.972c-3.195-3.158,2.093-8.875,3.793-10.551c1.124-1.107,5.022-4.721,8.184-4.721
			c1.254,0,2.06,0.53,2.506,0.975 M44.039,49.472c1.121,1.113,4.781,4.98,4.779,8.102c-0.004,1.239-0.539,2.03-0.991,2.475
			c-0.447,0.441-1.246,0.97-2.491,0.97c-3.152,0-7.057-3.624-8.176-4.732c-1.631-1.611-2.982-3.354-3.812-4.897
			c-1.638-3.049-0.895-4.765,0.021-5.67"/>
	</g>
</g>
</svg>
