<?xml version="1.0" encoding="utf-8"?>
<!-- Generator: Adobe Illustrator 15.0.0, SVG Export Plug-In . SVG Version: 6.00 Build 0)  -->
<!DOCTYPE svg PUBLIC "-//W3C//DTD SVG 1.0//EN" "http://www.w3.org/TR/2001/REC-SVG-20010904/DTD/svg10.dtd">
<svg version="1.0" id="Layer_1" xmlns="http://www.w3.org/2000/svg" xmlns:xlink="http://www.w3.org/1999/xlink" x="0px" y="0px"
	 width="109.753px" height="99.815px" viewBox="0 0 109.753 99.815" enable-background="new 0 0 109.753 99.815"
	 xml:space="preserve">
<path fill="none" stroke="#414042" stroke-width="2" stroke-miterlimit="10" d="M60.246,24.675c0.295,0.726,0.459,1.52,0.459,2.351
	c0,3.431-2.772,6.211-6.193,6.211c-3.419,0-6.191-2.78-6.191-6.211c0-3.431,2.771-6.211,6.191-6.211
	c0.396,0,0.781,0.037,1.155,0.107"/>
<line fill="none" stroke="#414042" stroke-width="2" stroke-miterlimit="10" x1="54.576" y1="33.392" x2="54.576" y2="69.336"/>
<path fill="none" stroke="#414042" stroke-width="2" stroke-miterlimit="10" d="M74.416,59.689c0,7.39-8.918,14.626-19.917,14.626
	c-11,0-19.917-7.236-19.917-14.626"/>
<line fill="none" stroke="#414042" stroke-width="2" stroke-miterlimit="10" x1="54.499" y1="74.315" x2="54.499" y2="80.539"/>
<polyline fill="none" stroke="#414042" stroke-width="2" stroke-miterlimit="10" points="58.071,79.294 54.55,82.815 51.03,79.294 
	"/>
<polyline fill="none" stroke="#414042" stroke-width="2" stroke-miterlimit="10" points="70.53,60.627 74.305,56.834 78.101,60.61 
	"/>
<polyline fill="none" stroke="#414042" stroke-width="2" stroke-miterlimit="10" points="30.911,60.575 34.576,56.892 
	38.261,60.558 "/>
<line fill="none" stroke="#414042" stroke-width="2" stroke-miterlimit="10" x1="46.615" y1="39.918" x2="63.462" y2="39.918"/>
</svg>
