<?xml version="1.0" encoding="utf-8"?>
<!-- Generator: Adobe Illustrator 15.0.0, SVG Export Plug-In . SVG Version: 6.00 Build 0)  -->
<!DOCTYPE svg PUBLIC "-//W3C//DTD SVG 1.0//EN" "http://www.w3.org/TR/2001/REC-SVG-20010904/DTD/svg10.dtd">
<svg version="1.0" id="Layer_1" xmlns="http://www.w3.org/2000/svg" xmlns:xlink="http://www.w3.org/1999/xlink" x="0px" y="0px"
	 width="109.753px" height="99.814px" viewBox="0 0 109.753 99.814" enable-background="new 0 0 109.753 99.814"
	 xml:space="preserve">
<path fill="none" stroke="#414042" stroke-width="2" stroke-miterlimit="10" d="M44.886,35.151v-3.456
	c0-0.802,0.667-1.45,1.489-1.45h45.977c0.823,0,1.49,0.648,1.49,1.45v59.1c0,0.801-0.667,1.45-1.49,1.45H46.375
	c-0.822,0-1.489-0.65-1.489-1.45V47.276"/>
<path fill="none" stroke="#414042" stroke-width="2" stroke-miterlimit="10" d="M87.814,57.573v0.857
	c0,0.539-0.448,0.977-1.002,0.977H51.88c-0.555,0-1.004-0.438-1.004-0.977V37.447c0-0.539,0.449-0.977,1.004-0.977h34.932
	c0.554,0,1.002,0.438,1.002,0.977v12.961"/>
<path fill="none" stroke="#414042" stroke-width="2" stroke-miterlimit="10" d="M87.814,85.574v0.856
	c0,0.538-0.448,0.977-1.002,0.977H51.88c-0.555,0-1.004-0.438-1.004-0.977V65.447c0-0.539,0.449-0.978,1.004-0.978h34.932
	c0.554,0,1.002,0.438,1.002,0.978v13.961"/>
<polyline fill="none" stroke="#414042" stroke-width="2" stroke-miterlimit="10" points="74.824,42.345 64.876,42.345 
	64.876,39.407 "/>
<polyline fill="none" stroke="#414042" stroke-width="2" stroke-miterlimit="10" points="74.824,71.345 64.876,71.345 
	64.876,68.407 "/>
</svg>
