<?xml version="1.0" encoding="utf-8"?>
<!-- Generator: Adobe Illustrator 15.0.0, SVG Export Plug-In . SVG Version: 6.00 Build 0)  -->
<!DOCTYPE svg PUBLIC "-//W3C//DTD SVG 1.0//EN" "http://www.w3.org/TR/2001/REC-SVG-20010904/DTD/svg10.dtd">
<svg version="1.0" id="Layer_1" xmlns="http://www.w3.org/2000/svg" xmlns:xlink="http://www.w3.org/1999/xlink" x="0px" y="0px"
	 width="109.753px" height="99.815px" viewBox="0 0 109.753 99.815" enable-background="new 0 0 109.753 99.815"
	 xml:space="preserve">
<g>
	<path fill="none" stroke="#414042" stroke-width="2" stroke-miterlimit="10" d="M39.562,55V24L69.4,23.979V13.197
		c0.147-0.144,0.534-0.279,0.686-0.137l17.376,16.011c0.149,0.144,0.149,0.375,0,0.517L70.084,45.602
		c-0.148,0.142-0.534,0.276-0.684,0.135l0.162-11.734H50.477l0.022,21h10.599c0.143,0.148,0.279,0.528,0.137,0.678l-16.01,17.213
		c-0.144,0.146-0.375,0.146-0.519,0L28.696,55.68c-0.145-0.147-0.279-0.529-0.138-0.678"/>
</g>
</svg>
