<?xml version="1.0" encoding="utf-8"?>
<!-- Generator: Adobe Illustrator 15.0.0, SVG Export Plug-In . SVG Version: 6.00 Build 0)  -->
<!DOCTYPE svg PUBLIC "-//W3C//DTD SVG 1.0//EN" "http://www.w3.org/TR/2001/REC-SVG-20010904/DTD/svg10.dtd">
<svg version="1.0" id="Layer_1" xmlns="http://www.w3.org/2000/svg" xmlns:xlink="http://www.w3.org/1999/xlink" x="0px" y="0px"
	 width="109.753px" height="99.815px" viewBox="0 0 109.753 99.815" enable-background="new 0 0 109.753 99.815"
	 xml:space="preserve">
<g>
	<path fill="none" stroke="#414042" stroke-width="2" stroke-miterlimit="10" d="M30.562,35.988
		c-0.111-0.107-0.397-0.211-0.51-0.104L16.73,47.918c-0.11,0.107-0.11,0.281,0,0.389l13.322,12.034
		c0.111,0.107,0.398,0.209,0.51,0.104V51h13.896v14.908h-9.272c-0.106,0.109-0.005,0.396,0.104,0.509l12.033,12.481
		c0.106,0.11,0.281,0.11,0.389,0l12.033-12.481c0.107-0.112,0.006-0.397-0.103-0.509h-8.104V51h14.045v9.182
		c0.112,0.106,0.397,0.006,0.51-0.102l12.472-12.035c0.11-0.105,0.111-0.28,0-0.389L66.093,35.623
		c-0.11-0.107-0.397-0.005-0.51,0.103v8.366H51.538V30.009h8.366c0.105-0.11,0.21-0.396,0.103-0.509L47.973,17.064
		c-0.106-0.111-0.281-0.11-0.388,0L35.55,29.5c-0.106,0.111-0.209,0.396-0.102,0.509h9.01v14.083H30.562"/>
</g>
</svg>
