<?xml version="1.0" encoding="utf-8"?>
<!-- Generator: Adobe Illustrator 15.0.0, SVG Export Plug-In . SVG Version: 6.00 Build 0)  -->
<!DOCTYPE svg PUBLIC "-//W3C//DTD SVG 1.0//EN" "http://www.w3.org/TR/2001/REC-SVG-20010904/DTD/svg10.dtd">
<svg version="1.0" id="Layer_1" xmlns="http://www.w3.org/2000/svg" xmlns:xlink="http://www.w3.org/1999/xlink" x="0px" y="0px"
	 width="109.753px" height="99.815px" viewBox="0 0 109.753 99.815" enable-background="new 0 0 109.753 99.815"
	 xml:space="preserve">
<path fill="none" stroke="#414042" stroke-width="2" stroke-miterlimit="10" d="M85.075,49.134c0.205,0.004,0.571,0.177,0.575,0.383
	l0.85,23.492c0.004,0.206-0.16,0.369-0.365,0.365l-23.492-0.849c-0.205-0.006-0.571-0.179-0.574-0.385l8.283-8.282L37.703,30.716
	l-8.283,8.283c-0.206-0.003-0.379-0.369-0.384-0.575l-0.826-23.47c-0.004-0.206,0.16-0.369,0.365-0.365l23.47,0.827
	c0.206,0.004,0.379,0.37,0.383,0.575l-7.623,7.624l32.647,33.142"/>
</svg>
