<?xml version="1.0" encoding="utf-8"?>
<!-- Generator: Adobe Illustrator 15.0.0, SVG Export Plug-In . SVG Version: 6.00 Build 0)  -->
<!DOCTYPE svg PUBLIC "-//W3C//DTD SVG 1.0//EN" "http://www.w3.org/TR/2001/REC-SVG-20010904/DTD/svg10.dtd">
<svg version="1.0" id="Layer_1" xmlns="http://www.w3.org/2000/svg" xmlns:xlink="http://www.w3.org/1999/xlink" x="0px" y="0px"
	 width="109.753px" height="99.815px" viewBox="0 0 109.753 99.815" enable-background="new 0 0 109.753 99.815"
	 xml:space="preserve">
<path fill="none" stroke="#414042" stroke-width="2" stroke-miterlimit="10" d="M21.925,54.134
	c-0.205,0.004-0.571,0.177-0.575,0.383L20.5,78.009c-0.004,0.206,0.16,0.369,0.365,0.365l23.492-0.849
	c0.205-0.006,0.571-0.179,0.574-0.385l-8.283-8.282l12.996-13.192l12.996,13.192l-8.283,8.282c0.004,0.206,0.369,0.379,0.576,0.385
	l23.491,0.849c0.205,0.003,0.368-0.16,0.365-0.365l-0.851-23.492c-0.004-0.207-0.371-0.379-0.575-0.383l-7.623,7.624l-13.05-13.246
	l12.604-12.795L77.579,44c0.206-0.003,0.379-0.369,0.384-0.575l0.826-23.47c0.004-0.206-0.16-0.369-0.365-0.365l-23.47,0.827
	c-0.206,0.004-0.379,0.37-0.384,0.575l7.625,7.624L49.643,41.358L37.091,28.616l7.623-7.624c-0.004-0.205-0.176-0.571-0.383-0.575
	l-23.47-0.827c-0.205-0.004-0.368,0.159-0.364,0.365l0.825,23.47c0.004,0.206,0.179,0.571,0.384,0.575l8.282-8.283l12.605,12.795
	L29.545,61.758"/>
</svg>
