<?xml version="1.0" encoding="utf-8"?>
<!-- Generator: Adobe Illustrator 15.0.0, SVG Export Plug-In . SVG Version: 6.00 Build 0)  -->
<!DOCTYPE svg PUBLIC "-//W3C//DTD SVG 1.0//EN" "http://www.w3.org/TR/2001/REC-SVG-20010904/DTD/svg10.dtd">
<svg version="1.0" id="Layer_1" xmlns="http://www.w3.org/2000/svg" xmlns:xlink="http://www.w3.org/1999/xlink" x="0px" y="0px"
	 width="109.753px" height="99.815px" viewBox="0 0 109.753 99.815" enable-background="new 0 0 109.753 99.815"
	 xml:space="preserve">
<path fill="none" stroke="#414042" stroke-width="2" stroke-miterlimit="10" d="M37.258,57.758l32.648-33.142l-7.623-7.624
	c0.004-0.205,0.176-0.571,0.383-0.575l23.469-0.827c0.206-0.004,0.369,0.159,0.365,0.365l-0.826,23.47
	c-0.004,0.206-0.178,0.571-0.383,0.575l-8.283-8.283L44.36,64.859l8.282,8.282c-0.004,0.206-0.368,0.379-0.575,0.384l-23.492,0.85
	c-0.205,0.003-0.368-0.16-0.365-0.365l0.851-23.492c0.004-0.207,0.371-0.379,0.576-0.383"/>
</svg>
