<?xml version="1.0" encoding="utf-8"?>
<!-- Generator: Adobe Illustrator 15.0.0, SVG Export Plug-In . SVG Version: 6.00 Build 0)  -->
<!DOCTYPE svg PUBLIC "-//W3C//DTD SVG 1.0//EN" "http://www.w3.org/TR/2001/REC-SVG-20010904/DTD/svg10.dtd">
<svg version="1.0" id="Layer_1" xmlns="http://www.w3.org/2000/svg" xmlns:xlink="http://www.w3.org/1999/xlink" x="0px" y="0px"
	 width="109.753px" height="99.815px" viewBox="0 0 109.753 99.815" enable-background="new 0 0 109.753 99.815"
	 xml:space="preserve">
<g>
	<path fill="none" stroke="#414042" stroke-width="2" stroke-miterlimit="10" d="M65.027,80.08c0.205-0.004,0.379-0.369,0.383-0.574
		l0.826-23.471c0.004-0.205-0.158-0.369-0.365-0.365l-23.469,0.827c-0.206,0.004-0.379,0.37-0.383,0.575l7.623,7.624L39.337,75.158
		l7.102,7.1l10.306-10.461"/>
	<path fill="none" stroke="#414042" stroke-width="2" stroke-miterlimit="10" d="M96.454,57.072
		c-0.004-0.205-0.177-0.571-0.383-0.575l-23.47-0.827c-0.207-0.004-0.369,0.16-0.365,0.365l0.826,23.471
		c0.004,0.205,0.178,0.57,0.384,0.574l8.282-8.283l10.162,10.315l7.102-7.102L88.83,64.696"/>
	<path fill="none" stroke="#414042" stroke-width="2" stroke-miterlimit="10" d="M41.805,48.812
		c0.003,0.205,0.369,0.379,0.574,0.383l23.492,0.85c0.206,0.003,0.369-0.16,0.365-0.365l-0.85-23.491
		c-0.005-0.207-0.37-0.379-0.576-0.384l-7.624,7.623L45.93,22l-7.1,7.101l11.258,11.43"/>
	<path fill="none" stroke="#414042" stroke-width="2" stroke-miterlimit="10" d="M73.662,25.805
		c-0.205,0.004-0.572,0.177-0.576,0.384l-0.85,23.491c-0.003,0.205,0.16,0.368,0.365,0.365l23.491-0.85
		c0.207-0.004,0.572-0.178,0.576-0.383l-8.283-8.283l11.113-11.282l-7.101-7.101l-11.114,11.28"/>
</g>
</svg>
