<?xml version="1.0" encoding="utf-8"?>
<!-- Generator: Adobe Illustrator 15.0.0, SVG Export Plug-In . SVG Version: 6.00 Build 0)  -->
<!DOCTYPE svg PUBLIC "-//W3C//DTD SVG 1.0//EN" "http://www.w3.org/TR/2001/REC-SVG-20010904/DTD/svg10.dtd">
<svg version="1.0" id="Layer_1" xmlns="http://www.w3.org/2000/svg" xmlns:xlink="http://www.w3.org/1999/xlink" x="0px" y="0px"
	 width="109.753px" height="99.815px" viewBox="0 0 109.753 99.815" enable-background="new 0 0 109.753 99.815"
	 xml:space="preserve">
<g>
	<path fill="none" stroke="#414042" stroke-width="2" stroke-miterlimit="10" d="M72.5,34h4c0.552,0,1,0.448,1,1v46
		c0,0.552-0.448,1-1,1h-54c-0.552,0-1-0.448-1-1V35c0-0.552,0.448-1,1-1h45v46"/>
	<path fill="none" stroke="#414042" stroke-width="2" stroke-miterlimit="10" d="M34.5,31c0-6.075,4.925-11,11-11s11,4.925,11,11"/>
	<path fill="none" stroke="#414042" stroke-width="2" stroke-miterlimit="10" d="M54.5,20.182c0.648-0.119,1.317-0.182,2-0.182
		c6.075,0,11,4.925,11,11"/>
</g>
</svg>
