<?xml version="1.0" encoding="utf-8"?>
<!-- Generator: Adobe Illustrator 15.0.0, SVG Export Plug-In . SVG Version: 6.00 Build 0)  -->
<!DOCTYPE svg PUBLIC "-//W3C//DTD SVG 1.0//EN" "http://www.w3.org/TR/2001/REC-SVG-20010904/DTD/svg10.dtd">
<svg version="1.0" id="Layer_1" xmlns="http://www.w3.org/2000/svg" xmlns:xlink="http://www.w3.org/1999/xlink" x="0px" y="0px"
	 width="109.753px" height="99.815px" viewBox="0 0 109.753 99.815" enable-background="new 0 0 109.753 99.815"
	 xml:space="preserve">
<path fill="none" stroke="#414042" stroke-width="2" stroke-miterlimit="10" d="M83.479,43c0,1.104-0.895,2-2,2h-59
	c-1.104,0-2-0.896-2-2V31c0-1.104,0.896-2,2-2h59c1.105,0,2,0.896,2,2V43z"/>
<line fill="none" stroke="#414042" stroke-width="2" stroke-miterlimit="10" x1="24.541" y1="51.875" x2="24.541" y2="46"/>
<line fill="none" stroke="#414042" stroke-width="2" stroke-miterlimit="10" x1="32.479" y1="46" x2="32.479" y2="51.875"/>
<line fill="none" stroke="#414042" stroke-width="2" stroke-miterlimit="10" x1="79.479" y1="46" x2="79.479" y2="51.875"/>
<line fill="none" stroke="#414042" stroke-width="2" stroke-miterlimit="10" x1="71.541" y1="51.875" x2="71.541" y2="46"/>
<path fill="none" stroke="#414042" stroke-width="2" stroke-miterlimit="10" d="M24.541,64"/>
<polyline fill="none" stroke="#414042" stroke-width="2" stroke-miterlimit="10" points="32.479,64 32.479,80 24.541,80 
	24.541,76.333 "/>
<polyline fill="none" stroke="#414042" stroke-width="2" stroke-miterlimit="10" points="79.479,64 79.479,80 71.541,80 71.541,64 
	"/>
<polygon fill="none" stroke="#414042" stroke-width="2" stroke-miterlimit="10" points="33.479,45.062 24.541,45.062 31.541,28.938 
	40.479,28.938 "/>
<polygon fill="none" stroke="#414042" stroke-width="2" stroke-miterlimit="10" points="53.479,45.062 44.541,45.062 51.541,28.938 
	60.479,28.938 "/>
<polygon fill="none" stroke="#414042" stroke-width="2" stroke-miterlimit="10" points="72.479,45.062 63.541,45.062 70.541,28.938 
	79.479,28.938 "/>
<path fill="none" stroke="#414042" stroke-width="2" stroke-miterlimit="10" d="M83.479,62c0,1.104-0.895,2-2,2h-59
	c-1.104,0-2-0.896-2-2v-8c0-1.104,0.896-2,2-2h59c1.105,0,2,0.896,2,2V62z"/>
<polygon fill="none" stroke="#414042" stroke-width="2" stroke-miterlimit="10" points="33.479,64.062 24.541,64.062 31.541,51.938 
	40.479,51.938 "/>
<polygon fill="none" stroke="#414042" stroke-width="2" stroke-miterlimit="10" points="53.479,64.062 44.541,64.062 51.541,51.938 
	60.479,51.938 "/>
<polygon fill="none" stroke="#414042" stroke-width="2" stroke-miterlimit="10" points="72.479,64.062 63.541,64.062 70.541,51.938 
	79.479,51.938 "/>
<path fill="none" stroke="#414042" stroke-width="2" stroke-miterlimit="10" d="M48.445,29.128v-4.2c0-1.06,0.858-1.918,1.918-1.918
	h3.197c1.059,0,1.918,0.858,1.918,1.918v4.2"/>
</svg>
