<?xml version="1.0" encoding="utf-8"?>
<!-- Generator: Adobe Illustrator 15.0.0, SVG Export Plug-In . SVG Version: 6.00 Build 0)  -->
<!DOCTYPE svg PUBLIC "-//W3C//DTD SVG 1.0//EN" "http://www.w3.org/TR/2001/REC-SVG-20010904/DTD/svg10.dtd">
<svg version="1.0" id="Layer_1" xmlns="http://www.w3.org/2000/svg" xmlns:xlink="http://www.w3.org/1999/xlink" x="0px" y="0px"
	 width="109.753px" height="99.815px" viewBox="0 0 109.753 99.815" enable-background="new 0 0 109.753 99.815"
	 xml:space="preserve">
<g>
	<g>
		<path fill="none" stroke="#414042" stroke-width="2" stroke-miterlimit="10" d="M46.5,43h-18c-0.553,0-1,0.448-1,1v3
			c0,0.552,1.447,1,2,1l1.034,6L34.5,77c0,0.552,0.447,1,1,1h46c0.553,0,1-0.448,1-1l5-29c1.553,0,2-0.448,2-1v-3
			c0-0.552-0.447-1-1-1h-30l-10-17"/>
		<line fill="none" stroke="#414042" stroke-width="2" stroke-miterlimit="10" x1="52.5" y1="56" x2="53.5" y2="73"/>
		<line fill="none" stroke="#414042" stroke-width="2" stroke-miterlimit="10" x1="39.5" y1="56" x2="41.5" y2="73"/>
		<line fill="none" stroke="#414042" stroke-width="2" stroke-miterlimit="10" x1="65.5" y1="56" x2="64.5" y2="73"/>
		<line fill="none" stroke="#414042" stroke-width="2" stroke-miterlimit="10" x1="77.5" y1="56" x2="75.5" y2="73"/>
	</g>
	<line fill="none" stroke="#414042" stroke-width="2" stroke-miterlimit="10" x1="67.5" y1="31" x2="83.5" y2="31"/>
	<line fill="none" stroke="#414042" stroke-width="2" stroke-miterlimit="10" x1="75.5" y1="23" x2="75.5" y2="39"/>
</g>
</svg>
