<?xml version="1.0" encoding="utf-8"?>
<!-- Generator: Adobe Illustrator 15.0.0, SVG Export Plug-In . SVG Version: 6.00 Build 0)  -->
<!DOCTYPE svg PUBLIC "-//W3C//DTD SVG 1.0//EN" "http://www.w3.org/TR/2001/REC-SVG-20010904/DTD/svg10.dtd">
<svg version="1.0" id="Layer_1" xmlns="http://www.w3.org/2000/svg" xmlns:xlink="http://www.w3.org/1999/xlink" x="0px" y="0px"
	 width="109.753px" height="99.815px" viewBox="0 0 109.753 99.815" enable-background="new 0 0 109.753 99.815"
	 xml:space="preserve">
<g>
	<g>
		<path fill="none" stroke="#414042" stroke-width="2" stroke-miterlimit="10" d="M42.5,34h-18c-0.552,0-1,0.448-1,1v3
			c0,0.552,1.448,1,2,1l1.034,6L30.5,68c0,0.552,0.448,1,1,1h46c0.552,0,1-0.448,1-1l5-29c1.552,0,2-0.448,2-1v-3
			c0-0.552-0.448-1-1-1h-30l-10-17"/>
		<line fill="none" stroke="#414042" stroke-width="2" stroke-miterlimit="10" x1="48.5" y1="47" x2="49.5" y2="64"/>
		<line fill="none" stroke="#414042" stroke-width="2" stroke-miterlimit="10" x1="35.5" y1="47" x2="37.5" y2="64"/>
		<line fill="none" stroke="#414042" stroke-width="2" stroke-miterlimit="10" x1="61.5" y1="47" x2="60.5" y2="64"/>
		<line fill="none" stroke="#414042" stroke-width="2" stroke-miterlimit="10" x1="73.5" y1="47" x2="71.5" y2="64"/>
	</g>
	<line fill="none" stroke="#414042" stroke-width="2" stroke-miterlimit="10" x1="63.5" y1="24" x2="79.5" y2="24"/>
</g>
<polyline fill="none" stroke="#333333" stroke-width="2" stroke-miterlimit="10" points="75.5,17 80.5,24 75.5,30 "/>
</svg>
