<?xml version="1.0" encoding="utf-8"?>
<!-- Generator: Adobe Illustrator 15.0.0, SVG Export Plug-In . SVG Version: 6.00 Build 0)  -->
<!DOCTYPE svg PUBLIC "-//W3C//DTD SVG 1.0//EN" "http://www.w3.org/TR/2001/REC-SVG-20010904/DTD/svg10.dtd">
<svg version="1.0" id="Layer_1" xmlns="http://www.w3.org/2000/svg" xmlns:xlink="http://www.w3.org/1999/xlink" x="0px" y="0px"
	 width="109.753px" height="99.815px" viewBox="0 0 109.753 99.815" enable-background="new 0 0 109.753 99.815"
	 xml:space="preserve">
<path fill="none" stroke="#414042" stroke-width="2" stroke-miterlimit="10" d="M40.376,76.679c0,0.553,0.448,1,1,1h25
	c0.552,0,1-0.447,1-1v-57c0-0.553-0.448-1-1-1h-8v-2c0-0.553-0.403-1-0.9-1h-7.199c-0.497,0-0.9,0.447-0.9,1v2h-8
	c-0.552,0-1,0.447-1,1v46"/>
<line fill="none" stroke="#414042" stroke-width="2" stroke-miterlimit="10" x1="45.376" y1="46.679" x2="62.376" y2="46.679"/>
<line fill="none" stroke="#414042" stroke-width="2" stroke-miterlimit="10" x1="45.376" y1="57.679" x2="62.376" y2="57.679"/>
<line fill="none" stroke="#414042" stroke-width="2" stroke-miterlimit="10" x1="45.376" y1="69.679" x2="62.376" y2="69.679"/>
</svg>
