<?xml version="1.0" encoding="utf-8"?>
<!-- Generator: Adobe Illustrator 15.0.0, SVG Export Plug-In . SVG Version: 6.00 Build 0)  -->
<!DOCTYPE svg PUBLIC "-//W3C//DTD SVG 1.0//EN" "http://www.w3.org/TR/2001/REC-SVG-20010904/DTD/svg10.dtd">
<svg version="1.0" id="Layer_1" xmlns="http://www.w3.org/2000/svg" xmlns:xlink="http://www.w3.org/1999/xlink" x="0px" y="0px"
	 width="109.753px" height="99.815px" viewBox="0 0 109.753 99.815" enable-background="new 0 0 109.753 99.815"
	 xml:space="preserve">
<g>
	<path fill="none" stroke="#414042" stroke-width="2" stroke-miterlimit="10" d="M33.813,52.985l-7.776-7.776
		c1.528-1.717,4.215-3.022,8.449-3.691c6.498-1.026,29.092-26.722,42.512-13.301C90.42,41.638,64.667,64.209,63.699,70.73
		c-0.629,4.223-1.887,6.922-3.557,8.476l-8.457-8.457"/>
	<path fill="none" stroke="#414042" stroke-width="2" stroke-miterlimit="10" d="M46.537,65.716
		c-1.975,1.977-5.162,1.991-7.117,0.035c-1.956-1.955-1.94-5.144,0.034-7.119"/>
	<path fill="none" stroke="#414042" stroke-width="2" stroke-miterlimit="10" d="M80.479,28.947l3.534-3.535
		c1.173-1.172,1.879-2.364,0.709-3.536l-1.356-1.354c-1.171-1.171-2.363-0.465-3.535,0.707l-3.536,3.536"/>
</g>
</svg>
