<?xml version="1.0" encoding="utf-8"?>
<!-- Generator: Adobe Illustrator 15.0.0, SVG Export Plug-In . SVG Version: 6.00 Build 0)  -->
<!DOCTYPE svg PUBLIC "-//W3C//DTD SVG 1.0//EN" "http://www.w3.org/TR/2001/REC-SVG-20010904/DTD/svg10.dtd">
<svg version="1.0" id="Layer_1" xmlns="http://www.w3.org/2000/svg" xmlns:xlink="http://www.w3.org/1999/xlink" x="0px" y="0px"
	 width="109.753px" height="99.815px" viewBox="0 0 109.753 99.815" enable-background="new 0 0 109.753 99.815"
	 xml:space="preserve">
<path fill="none" stroke="#333333" stroke-width="2" stroke-miterlimit="10" d="M28.777,20.705v56.755
	c0,1.334,1.082,2.415,2.415,2.415h42.265c1.334,0,2.415-1.081,2.415-2.415V21.913H31.193c-1.333,0-2.415-1.081-2.415-2.415v-1.209
	c0-1.332,1.082-2.414,2.415-2.414h47.095c1.334,0,2.415,1.082,2.415,2.414v1.209v54.34"/>
<line fill="none" stroke="#333333" stroke-width="2" stroke-miterlimit="10" x1="34.815" y1="25.536" x2="34.815" y2="73.837"/>
<g>
	<path fill="#333333" d="M60.701,61.713c-1.583,0.829-3.195,1.146-5.123,1.146c-4.723,0-8.724-3.428-8.724-8.939
		c0-5.878,4.117-10.99,10.508-10.99c5.008,0,8.349,3.515,8.349,8.28c0,4.282-2.42,6.794-5.096,6.794
		c-1.151,0-2.217-0.744-2.159-2.512h-0.087c-1.007,1.685-2.331,2.512-4.059,2.512c-1.67,0-3.109-1.341-3.109-3.598
		c0-3.54,2.821-6.766,6.822-6.766c1.209,0,2.332,0.256,3.081,0.601l-0.979,5.166c-0.433,2.172-0.087,3.17,0.862,3.198
		c1.47,0.058,3.109-1.913,3.109-5.195c0-4.168-2.504-7.167-6.966-7.167c-4.692,0-8.637,3.712-8.637,9.507
		c0,4.77,3.14,7.736,7.399,7.736c1.642,0,3.166-0.342,4.346-0.999L60.701,61.713z M59.118,49.382
		c-0.288-0.113-0.777-0.228-1.438-0.228c-2.534,0-4.577,2.369-4.577,5.137c0,1.259,0.634,2.171,1.899,2.171
		c1.668,0,3.195-2.113,3.513-3.884L59.118,49.382z"/>
</g>
</svg>
