<?xml version="1.0" encoding="utf-8"?>
<!-- Generator: Adobe Illustrator 15.0.0, SVG Export Plug-In . SVG Version: 6.00 Build 0)  -->
<!DOCTYPE svg PUBLIC "-//W3C//DTD SVG 1.0//EN" "http://www.w3.org/TR/2001/REC-SVG-20010904/DTD/svg10.dtd">
<svg version="1.0" id="Layer_1" xmlns="http://www.w3.org/2000/svg" xmlns:xlink="http://www.w3.org/1999/xlink" x="0px" y="0px"
	 width="109.753px" height="99.815px" viewBox="0 0 109.753 99.815" enable-background="new 0 0 109.753 99.815"
	 xml:space="preserve">
<path fill="none" stroke="#414042" stroke-width="2" stroke-miterlimit="10" d="M25.5,34.5v-2.143c0-0.749,0.562-1.357,1.258-1.357
	h24.484c0.693,0,1.258,0.608,1.258,1.357v41.286c0,0.749-0.562,1.356-1.258,1.356H26.758c-0.693,0-1.258-0.607-1.258-1.356V42.25"/>
<path fill="none" stroke="#414042" stroke-width="2" stroke-miterlimit="10" d="M69.5,73.644c0,0.749-0.562,1.356-1.258,1.356
	H43.758c-0.693,0-1.258-0.607-1.258-1.356V32.358c0-0.749,0.562-1.357,1.258-1.357h24.484c0.693,0,1.258,0.608,1.258,1.357V73.644z"
	/>
<path fill="none" stroke="#414042" stroke-width="2" stroke-miterlimit="10" d="M87.5,73.644c0,0.749-0.562,1.356-1.258,1.356
	H61.758c-0.693,0-1.258-0.607-1.258-1.356V32.358c0-0.749,0.562-1.357,1.258-1.357h24.484c0.693,0,1.258,0.608,1.258,1.357V73.644z"
	/>
<path fill="none" stroke="#414042" stroke-width="2" stroke-miterlimit="10" d="M47.5,27v-6c0-0.552,0.447-1,1-1h16
	c0.553,0,1,0.448,1,1v6"/>
</svg>
