<?xml version="1.0" encoding="utf-8"?>
<!-- Generator: Adobe Illustrator 15.0.0, SVG Export Plug-In . SVG Version: 6.00 Build 0)  -->
<!DOCTYPE svg PUBLIC "-//W3C//DTD SVG 1.0//EN" "http://www.w3.org/TR/2001/REC-SVG-20010904/DTD/svg10.dtd">
<svg version="1.0" id="Layer_1" xmlns="http://www.w3.org/2000/svg" xmlns:xlink="http://www.w3.org/1999/xlink" x="0px" y="0px"
	 width="109.753px" height="99.815px" viewBox="0 0 109.753 99.815" enable-background="new 0 0 109.753 99.815"
	 xml:space="preserve">
<g>
	<path fill="none" stroke="#414042" stroke-width="2" stroke-miterlimit="10" d="M44.816,22.227c0.622-0.62,1.63-0.62,2.252,0
		l26.761,26.761c0.621,0.623,0.621,1.63,0,2.252l-4.781,4.913c-0.621,0.621-1.63,0.619-2.251,0L40.346,29.701L26.993,44.18
		c0,0-1.974,2.445,3.518,10.523c2.27,3.339,6.024,4.104,8.609,9.879c1.808,4.038,16.391,2.871,17.611,2.123l7.661-8.791"/>
	<path fill="none" stroke="#414042" stroke-width="2" stroke-miterlimit="10" d="M66.927,37.525
		C76.965,28.74,82.63,24.082,84.255,22.457c4.12-4.121,3.073-7.821,0.145-10.75c-2.928-2.93-6.629-3.977-10.75,0.146
		c-1.625,1.623-6.55,7.021-15.335,17.059"/>
</g>
</svg>
