<?xml version="1.0" encoding="utf-8"?>
<!-- Generator: Adobe Illustrator 15.0.0, SVG Export Plug-In . SVG Version: 6.00 Build 0)  -->
<!DOCTYPE svg PUBLIC "-//W3C//DTD SVG 1.0//EN" "http://www.w3.org/TR/2001/REC-SVG-20010904/DTD/svg10.dtd">
<svg version="1.0" id="Layer_1" xmlns="http://www.w3.org/2000/svg" xmlns:xlink="http://www.w3.org/1999/xlink" x="0px" y="0px"
	 width="109.753px" height="99.815px" viewBox="0 0 109.753 99.815" enable-background="new 0 0 109.753 99.815"
	 xml:space="preserve">
<g>
	<path fill="none" stroke="#414042" stroke-width="2" stroke-miterlimit="10" d="M56.803,76.11
		c-4.461,2.526-11.424,6.344-24.54,2.086c-0.782-0.256-1.057-1.731-0.389-2.023c12.343-5.379,7.418-11.235,9.642-16.514
		c2.511-5.954,8.376-7.538,12.521-5.655l8.188,8.215c0.218,1.349,0.216,2.977-0.036,4.656"/>
	<path fill="none" stroke="#414042" stroke-width="2" stroke-miterlimit="10" d="M85.705,22.748
		c1.123-1.124,2.794-1.276,3.729-0.337l3.446,3.446c0.938,0.938,0.787,2.608-0.337,3.732L62.567,60.527
		c-1.123,1.122-1.803,0.279-2.74-0.659l-3.444-3.445c-0.938-0.938-1.781-1.616-0.657-2.74L85.705,22.748z"/>
	<line fill="none" stroke="#414042" stroke-width="2" stroke-miterlimit="10" x1="60.311" y1="48.688" x2="66.861" y2="55.239"/>
</g>
</svg>
