<?xml version="1.0" encoding="utf-8"?>
<!-- Generator: Adobe Illustrator 15.0.0, SVG Export Plug-In . SVG Version: 6.00 Build 0)  -->
<!DOCTYPE svg PUBLIC "-//W3C//DTD SVG 1.0//EN" "http://www.w3.org/TR/2001/REC-SVG-20010904/DTD/svg10.dtd">
<svg version="1.0" id="Layer_1" xmlns="http://www.w3.org/2000/svg" xmlns:xlink="http://www.w3.org/1999/xlink" x="0px" y="0px"
	 width="109.753px" height="99.815px" viewBox="0 0 109.753 99.815" enable-background="new 0 0 109.753 99.815"
	 xml:space="preserve">
<g>
	<polyline fill="none" stroke="#414042" stroke-width="2" stroke-miterlimit="10" points="29.852,37.901 38.629,30.535 
		39.613,24.947 40.617,18.951 52.074,18.951 60.852,11.888 69.629,18.951 81.086,18.951 83.074,30.535 91.852,37.901 86.123,47.824 
		88.112,59.106 77.346,63.024 71.617,72.947 60.852,69.028 50.086,72.947 44.356,63.024 33.59,59.106 35.58,47.824 	"/>
	<polyline fill="none" stroke="#414042" stroke-width="2" stroke-miterlimit="10" points="43.852,50.888 43.852,39.888 
		51.852,49.888 51.852,38.888 	"/>
	<polyline fill="none" stroke="#414042" stroke-width="2" stroke-miterlimit="10" points="62.852,39.888 56.852,39.888 
		56.852,49.888 62.852,49.888 	"/>
	<line fill="none" stroke="#414042" stroke-width="2" stroke-miterlimit="10" x1="62.852" y1="44.888" x2="56.852" y2="44.888"/>
	<polyline fill="none" stroke="#414042" stroke-width="2" stroke-miterlimit="10" points="65.852,38.888 67.852,49.888 
		71.852,43.888 75.852,49.888 77.852,38.888 	"/>
</g>
</svg>
