<?xml version="1.0" encoding="utf-8"?>
<!-- Generator: Adobe Illustrator 15.0.0, SVG Export Plug-In . SVG Version: 6.00 Build 0)  -->
<!DOCTYPE svg PUBLIC "-//W3C//DTD SVG 1.0//EN" "http://www.w3.org/TR/2001/REC-SVG-20010904/DTD/svg10.dtd">
<svg version="1.0" id="Layer_1" xmlns="http://www.w3.org/2000/svg" xmlns:xlink="http://www.w3.org/1999/xlink" x="0px" y="0px"
	 width="109.753px" height="99.815px" viewBox="0 0 109.753 99.815" enable-background="new 0 0 109.753 99.815"
	 xml:space="preserve">
<g>
	<polyline fill="none" stroke="#414042" stroke-width="2" stroke-miterlimit="10" points="24.981,34.176 33.759,26.811 
		34.743,21.222 35.747,15.16 47.204,15.16 55.981,8.164 64.759,15.16 76.216,15.16 78.204,26.811 86.981,34.176 81.253,44.098 
		83.242,55.381 72.476,59.299 66.747,69.222 55.981,65.303 45.216,69.222 39.486,59.299 28.72,55.381 30.71,44.098 	"/>
	<polyline fill="none" stroke="#414042" stroke-width="2" stroke-miterlimit="10" points="73.981,36.164 67.981,36.164 
		67.981,46.164 73.981,46.164 	"/>
	<line fill="none" stroke="#414042" stroke-width="2" stroke-miterlimit="10" x1="73.981" y1="41.164" x2="67.981" y2="41.164"/>
	<polyline fill="none" stroke="#414042" stroke-width="2" stroke-miterlimit="10" points="60.981,35.289 60.981,46.164 
		64.981,46.164 	"/>
	<polyline fill="none" stroke="#414042" stroke-width="2" stroke-miterlimit="10" points="56.981,47.164 52.981,36.164 
		48.981,47.164 	"/>
	<polyline fill="none" stroke="#414042" stroke-width="2" stroke-miterlimit="10" points="45.981,35.164 39.981,35.164 
		39.981,40.164 44.981,41.164 44.981,46.164 38.981,46.164 	"/>
	<line fill="none" stroke="#414042" stroke-width="2" stroke-miterlimit="10" x1="50.981" y1="44.164" x2="54.981" y2="44.164"/>
</g>
</svg>
