<?xml version="1.0" encoding="utf-8"?>
<!-- Generator: Adobe Illustrator 15.0.0, SVG Export Plug-In . SVG Version: 6.00 Build 0)  -->
<!DOCTYPE svg PUBLIC "-//W3C//DTD SVG 1.0//EN" "http://www.w3.org/TR/2001/REC-SVG-20010904/DTD/svg10.dtd">
<svg version="1.0" id="Layer_1" xmlns="http://www.w3.org/2000/svg" xmlns:xlink="http://www.w3.org/1999/xlink" x="0px" y="0px"
	 width="109.753px" height="99.815px" viewBox="0 0 109.753 99.815" enable-background="new 0 0 109.753 99.815"
	 xml:space="preserve">
<path fill="none" stroke="#414042" stroke-width="2" stroke-miterlimit="10" d="M50.188,60.443c0,3.869-3.144,7.002-7.021,7.002
	c-3.878,0-7.022-3.133-7.022-7.002c0-3.864,3.145-6.998,7.022-6.998C47.043,53.445,50.188,56.579,50.188,60.443z"/>
<ellipse fill="none" stroke="#414042" stroke-width="2" stroke-miterlimit="10" cx="74.171" cy="58.486" rx="9.027" ry="8.959"/>
<line fill="none" stroke="#414042" stroke-width="2" stroke-miterlimit="10" x1="52.145" y1="61.445" x2="62.979" y2="61.445"/>
<path fill="none" stroke="#414042" stroke-width="2" stroke-miterlimit="10" d="M45.229,45.542l12-24.193
	c0-0.545,0.435-0.986,0.971-0.986h17.976c0.537,0,0.971,0.441,0.971,0.986v19.064"/>
<polyline fill="none" stroke="#414042" stroke-width="2" stroke-miterlimit="10" points="85.145,51.398 85.145,43.46 68.645,43.46 
	61.395,54.57 53.645,54.57 48.895,49.512 35.313,49.512 31.145,57.445 "/>
<path fill="none" stroke="#414042" stroke-width="2" stroke-miterlimit="10" d="M72.188,41.382v-9.905c0-0.554,0.447-1,1-1h1.896"/>
<line fill="none" stroke="#414042" stroke-width="2" stroke-miterlimit="10" x1="39.811" y1="46.445" x2="30.811" y2="36.112"/>
<path fill="none" stroke="#414042" stroke-width="2" stroke-miterlimit="10" d="M19.283,36.794c0,0,14.967,7.045,12.785-8.098"/>
</svg>
