<?xml version="1.0" encoding="utf-8"?>
<!-- Generator: Adobe Illustrator 15.0.0, SVG Export Plug-In . SVG Version: 6.00 Build 0)  -->
<!DOCTYPE svg PUBLIC "-//W3C//DTD SVG 1.0//EN" "http://www.w3.org/TR/2001/REC-SVG-20010904/DTD/svg10.dtd">
<svg version="1.0" id="Layer_1" xmlns="http://www.w3.org/2000/svg" xmlns:xlink="http://www.w3.org/1999/xlink" x="0px" y="0px"
	 width="109.753px" height="99.815px" viewBox="0 0 109.753 99.815" enable-background="new 0 0 109.753 99.815"
	 xml:space="preserve">
<path fill="none" stroke="#414042" stroke-width="2" stroke-miterlimit="10" d="M84.643,32.083c0,1.667-1.069,3.019-2.39,3.019
	H43.809c-1.319,0-2.392-1.352-2.392-3.019l0,0c0-1.669,1.072-3.021,2.392-3.021h38.444C83.573,29.062,84.643,30.415,84.643,32.083
	L84.643,32.083z"/>
<path fill="none" stroke="#414042" stroke-width="2" stroke-miterlimit="10" d="M38.77,70.243L38.77,70.243
	c0-2.86,1.202-5.176,2.684-5.176h43.155c1.48,0,2.683,2.315,2.683,5.176l0,0"/>
<path fill="none" stroke="#414042" stroke-width="2" stroke-miterlimit="10" d="M35.043,73.577c0-1.421,1.112-2.571,2.483-2.571
	H88.43c1.372,0,2.483,1.15,2.483,2.571l1.242,8.785c0,1.419-1.111,2.57-2.483,2.57H36.285c-1.371,0-2.483-1.151-2.483-2.57"/>
<polyline fill="none" stroke="#414042" stroke-width="2" stroke-miterlimit="10" points="53.667,35.374 46.217,40.236 
	79.947,51.514 46.217,64.964 "/>
<polyline fill="none" stroke="#414042" stroke-width="2" stroke-miterlimit="10" points="72.499,35.374 79.948,40.236 
	46.219,51.514 79.948,64.964 "/>
<path fill="none" stroke="#414042" stroke-width="2" stroke-miterlimit="10" d="M49.916,84.932c0,3.387-2.485,6.13-5.548,6.13
	c-3.063,0-5.548-2.744-5.548-6.13"/>
<path fill="none" stroke="#414042" stroke-width="2" stroke-miterlimit="10" d="M87.163,84.932c0,3.387-2.485,6.13-5.548,6.13
	c-3.063,0-5.548-2.744-5.548-6.13"/>
</svg>
