<?xml version="1.0" encoding="utf-8"?>
<!-- Generator: Adobe Illustrator 15.0.0, SVG Export Plug-In . SVG Version: 6.00 Build 0)  -->
<!DOCTYPE svg PUBLIC "-//W3C//DTD SVG 1.0//EN" "http://www.w3.org/TR/2001/REC-SVG-20010904/DTD/svg10.dtd">
<svg version="1.0" id="Layer_1" xmlns="http://www.w3.org/2000/svg" xmlns:xlink="http://www.w3.org/1999/xlink" x="0px" y="0px"
	 width="109.753px" height="99.815px" viewBox="0 0 109.753 99.815" enable-background="new 0 0 109.753 99.815"
	 xml:space="preserve">
<g>
	<path fill="none" stroke="#414042" stroke-width="2" stroke-miterlimit="10" d="M76.479,61c0,2.208-1.791,4-4,4h-31
		c-2.207,0-4-1.792-4-4v-4c0-2.209,1.793-4,4-4h31c2.209,0,4,1.791,4,4V61z"/>
	<path fill="none" stroke="#414042" stroke-width="2" stroke-miterlimit="10" d="M90.479,44c0-0.335,0.012-0.668,0.026-1h-4.026
		c-1.104,0-2,0.896-2,2c0,0,0,4.998,0,8.999s1,10.001,5,10.001c2.306,0,6.153,0,9,0c2.095,0,1.125-1.602,0-2.572
		C93.581,57.211,90.479,50.969,90.479,44z"/>
	<path fill="none" stroke="#414042" stroke-width="2" stroke-miterlimit="10" d="M37.479,48c0,1.104,0.896,2,2,2h35
		c1.105,0,2-0.896,2-2l-7-26c0-1.104-0.895-2-2-2h-18c-1.104,0-2,0.896-2,2v12h-8c-1.104,0-2,0.896-2,2"/>
	<path fill="none" stroke="#414042" stroke-width="2" stroke-miterlimit="10" d="M65.479,32c0,1.104-0.895,2-2,2h-7
		c-1.104,0-2-0.896-2-2v-5c0-1.104,0.896-2,2-2h7c1.105,0,2,0.896,2,2V32z"/>
	<line fill="none" stroke="#414042" stroke-width="2" stroke-miterlimit="10" x1="41.479" y1="38" x2="41.479" y2="46"/>
	<line fill="none" stroke="#414042" stroke-width="2" stroke-miterlimit="10" x1="45.479" y1="38" x2="45.479" y2="46"/>
	<line fill="none" stroke="#414042" stroke-width="2" stroke-miterlimit="10" x1="49.479" y1="38" x2="49.479" y2="46"/>
	<polyline fill="none" stroke="#414042" stroke-width="2" stroke-miterlimit="10" points="76.479,44.926 84.479,48.275 
		84.479,53.999 75.482,50 	"/>
	<circle fill="none" stroke="#414042" stroke-width="2" stroke-miterlimit="10" cx="43.479" cy="59" r="3"/>
	<circle fill="none" stroke="#414042" stroke-width="2" stroke-miterlimit="10" cx="52.479" cy="59" r="3"/>
	<circle fill="none" stroke="#414042" stroke-width="2" stroke-miterlimit="10" cx="61.479" cy="59" r="3"/>
	<circle fill="none" stroke="#414042" stroke-width="2" stroke-miterlimit="10" cx="70.479" cy="59" r="3"/>
</g>
</svg>
