<?xml version="1.0" encoding="utf-8"?>
<!-- Generator: Adobe Illustrator 15.0.0, SVG Export Plug-In . SVG Version: 6.00 Build 0)  -->
<!DOCTYPE svg PUBLIC "-//W3C//DTD SVG 1.0//EN" "http://www.w3.org/TR/2001/REC-SVG-20010904/DTD/svg10.dtd">
<svg version="1.0" id="Layer_1" xmlns="http://www.w3.org/2000/svg" xmlns:xlink="http://www.w3.org/1999/xlink" x="0px" y="0px"
	 width="109.753px" height="99.815px" viewBox="0 0 109.753 99.815" enable-background="new 0 0 109.753 99.815"
	 xml:space="preserve">
<g>
	<path fill="none" stroke="#414042" stroke-width="2" stroke-miterlimit="10" d="M82.425,47.858l-11.781-21.72
		c-0.303-0.561-1.288-0.616-2.196-0.125l-6.798,3.688c-0.909,0.493-1.4,1.35-1.098,1.911L72.54,53.717
		c0.304,0.561,1.29,0.616,2.198,0.122l6.796-3.685c0.193-0.105,0.369-0.229,0.521-0.359"/>
	<path fill="none" stroke="#414042" stroke-width="2" stroke-miterlimit="10" d="M72.542,53.716L60.554,31.612l-0.484-0.897
		c-3.982,2.666-6.172,5.72-6.972,8.871l8.808,16.237c3.077,1.048,6.83,0.879,11.235-1.004L72.542,53.716z"/>
	<path fill="none" stroke="#414042" stroke-width="2" stroke-miterlimit="10" d="M88.023,42.261c1.121-1.769,1.958-3.56,2.435-5.288
		l-5.985-11.039c-3.8-1.206-8.822-1.096-13.844,0.172l0.016,0.032l11.989,22.104"/>
	<path fill="none" stroke="#414042" stroke-width="2" stroke-miterlimit="10" d="M37.562,57h51.916c1.105,0,2,0.896,2,2v4
		c0,1.104-0.895,2-2,2h-2.875"/>
	<path fill="none" stroke="#414042" stroke-width="2" stroke-miterlimit="10" d="M33.479,65h-3c-1.104,0-2-0.896-2-2v-4
		c0-1.104,0.896-2,2-2V46l5.75-9.958h15.25v19.875"/>
	<line fill="none" stroke="#414042" stroke-width="2" stroke-miterlimit="10" x1="65.438" y1="65" x2="54.562" y2="65"/>
	<path fill="none" stroke="#414042" stroke-width="2" stroke-miterlimit="10" d="M88.479,55c0,1.104-0.895,2-2,2h-3
		c-1.104,0-2-0.896-2-2l2-12c0-1.104,0.896-1,2-1h1c1.105,0,2-0.104,2,1V55z"/>
	<ellipse fill="none" stroke="#414042" stroke-width="2" stroke-miterlimit="10" cx="76.041" cy="68.458" rx="8.521" ry="8.458"/>
	<ellipse fill="none" stroke="#414042" stroke-width="2" stroke-miterlimit="10" cx="44.041" cy="68.458" rx="8.521" ry="8.458"/>
	<polyline fill="none" stroke="#414042" stroke-width="2" stroke-miterlimit="10" points="44.438,37.042 44.5,47.02 30.667,47.083 	
		"/>
</g>
</svg>
