<?xml version="1.0" encoding="utf-8"?>
<!-- Generator: Adobe Illustrator 15.0.0, SVG Export Plug-In . SVG Version: 6.00 Build 0)  -->
<!DOCTYPE svg PUBLIC "-//W3C//DTD SVG 1.0//EN" "http://www.w3.org/TR/2001/REC-SVG-20010904/DTD/svg10.dtd">
<svg version="1.0" id="Layer_1" xmlns="http://www.w3.org/2000/svg" xmlns:xlink="http://www.w3.org/1999/xlink" x="0px" y="0px"
	 width="109.753px" height="99.815px" viewBox="0 0 109.753 99.815" enable-background="new 0 0 109.753 99.815"
	 xml:space="preserve">
<g>
	<path fill="none" stroke="#414042" stroke-width="2" stroke-miterlimit="10" d="M35.414,63.876v-6l2-12l12-2v4h19l6.125,6h9.875
		c0.553,0,1,0.466,1,1.042v2.998c0,0.576-0.447,1.043-1,1.043h-3"/>
	<polyline fill="none" stroke="#414042" stroke-width="2" stroke-miterlimit="10" points="45.414,40.876 45.414,28.876 
		66.414,28.876 70.914,42.376 	"/>
	<circle fill="none" stroke="#414042" stroke-width="2" stroke-miterlimit="10" cx="46.914" cy="63.376" r="7.5"/>
	<polyline fill="none" stroke="#414042" stroke-width="2" stroke-miterlimit="10" points="50.414,35.876 53.414,35.876 
		53.414,44.876 	"/>
	<line fill="none" stroke="#414042" stroke-width="2" stroke-miterlimit="10" x1="55.539" y1="64.939" x2="67.289" y2="64.939"/>
	<path fill="none" stroke="#414042" stroke-width="2" stroke-miterlimit="10" d="M75.468,43.987
		c2.177-1.302,4.726-2.048,7.449-2.048c8.01,0,14.503,6.464,14.503,14.438s-6.494,14.438-14.503,14.438
		c-8.01,0-14.503-6.464-14.503-14.438"/>
</g>
</svg>
