<?xml version="1.0" encoding="utf-8"?>
<!-- Generator: Adobe Illustrator 15.0.0, SVG Export Plug-In . SVG Version: 6.00 Build 0)  -->
<!DOCTYPE svg PUBLIC "-//W3C//DTD SVG 1.0//EN" "http://www.w3.org/TR/2001/REC-SVG-20010904/DTD/svg10.dtd">
<svg version="1.0" id="Layer_1" xmlns="http://www.w3.org/2000/svg" xmlns:xlink="http://www.w3.org/1999/xlink" x="0px" y="0px"
	 width="109.753px" height="99.815px" viewBox="0 0 109.753 99.815" enable-background="new 0 0 109.753 99.815"
	 xml:space="preserve">
<g>
	<line fill="none" stroke="#414042" stroke-width="2" stroke-miterlimit="10" x1="26.105" y1="66.814" x2="88.105" y2="66.814"/>
	<path fill="none" stroke="#414042" stroke-width="2" stroke-miterlimit="10" d="M53.167,62.835c-0.554,0-1-0.45-1-1.007V9.968
		c0-0.557,0.446-1.008,1-1.008h12c0.553,0,1,0.451,1,1.008"/>
	<path fill="none" stroke="#414042" stroke-width="2" stroke-miterlimit="10" d="M32.167,62.835c-0.554,0-1-0.45-1-1.007V22.904
		c0-0.556,0.446-1.007,1-1.007h12c0.553,0,1,0.451,1,1.007"/>
	<path fill="none" stroke="#414042" stroke-width="2" stroke-miterlimit="10" d="M72.167,62.835c-0.554,0-1-0.45-1-1.007v-24.86
		c0-0.557,0.446-1.008,1-1.008h12c0.553,0,1,0.451,1,1.008"/>
</g>
</svg>
