<?xml version="1.0" encoding="utf-8"?>
<!-- Generator: Adobe Illustrator 15.0.0, SVG Export Plug-In . SVG Version: 6.00 Build 0)  -->
<!DOCTYPE svg PUBLIC "-//W3C//DTD SVG 1.0//EN" "http://www.w3.org/TR/2001/REC-SVG-20010904/DTD/svg10.dtd">
<svg version="1.0" id="Layer_1" xmlns="http://www.w3.org/2000/svg" xmlns:xlink="http://www.w3.org/1999/xlink" x="0px" y="0px"
	 width="109.753px" height="99.815px" viewBox="0 0 109.753 99.815" enable-background="new 0 0 109.753 99.815"
	 xml:space="preserve">
<path fill="none" stroke="#414042" stroke-width="2" stroke-miterlimit="10" d="M40.526,64c0,0.552,0.38,1,0.847,1H75.62
	c0.469,0,0.848-0.448,0.848-1V43.891c0.461,0.065,0.772,0.108,1.251,0.108c5.955,0,10.781-5.148,10.781-11.5
	c0-6.353-4.826-11.5-10.781-11.5c-1.772,0-3.44,0.465-4.917,1.274c-3.245-3.195-8.434-5.274-14.302-5.274
	c-5.867,0-11.056,2.08-14.301,5.274c-1.477-0.81-3.145-1.274-4.917-1.274c-5.955,0-10.782,5.647-10.782,12
	c0,6.352,4.827,11,10.782,11c0.478,0,0.784-0.043,1.245-0.108V59h4.004h27.938"/>
</svg>
