<?xml version="1.0" encoding="utf-8"?>
<!-- Generator: Adobe Illustrator 15.0.0, SVG Export Plug-In . SVG Version: 6.00 Build 0)  -->
<!DOCTYPE svg PUBLIC "-//W3C//DTD SVG 1.0//EN" "http://www.w3.org/TR/2001/REC-SVG-20010904/DTD/svg10.dtd">
<svg version="1.0" id="Layer_1" xmlns="http://www.w3.org/2000/svg" xmlns:xlink="http://www.w3.org/1999/xlink" x="0px" y="0px"
	 width="109.753px" height="99.815px" viewBox="0 0 109.753 99.815" enable-background="new 0 0 109.753 99.815"
	 xml:space="preserve">
<polyline fill="none" stroke="#414042" stroke-width="2" stroke-miterlimit="10" points="62.513,48.062 62.513,56.958 
	62.495,56.995 46.625,56.995 "/>
<path fill="none" stroke="#414042" stroke-width="2" stroke-miterlimit="10" d="M40.732,69.335
	c-2.083-3.649-3.275-7.874-3.275-12.377c0-13.807,11.194-24.999,25.001-25c13.807,0,24.999,11.193,25,25
	c0,13.808-11.193,25-25.001,25c-5.489,0-10.564-1.769-14.689-4.771l-10.185,9.729"/>
<line fill="none" stroke="#414042" stroke-width="2" stroke-miterlimit="10" x1="62.495" y1="32.5" x2="62.495" y2="36.938"/>
<line fill="none" stroke="#414042" stroke-width="2" stroke-miterlimit="10" x1="62.495" y1="77" x2="62.495" y2="81.688"/>
<line fill="none" stroke="#414042" stroke-width="2" stroke-miterlimit="10" x1="86.875" y1="57.04" x2="82.562" y2="57.04"/>
<line fill="none" stroke="#414042" stroke-width="2" stroke-miterlimit="10" x1="42.5" y1="57.039" x2="37.938" y2="57.039"/>
<path fill="none" stroke="#414042" stroke-width="2" stroke-miterlimit="10" d="M36.102,42.523
	c-3.123-3.124-2.658-8.654,1.039-12.353c3.698-3.698,9.229-4.163,12.353-1.039"/>
<path fill="none" stroke="#414042" stroke-width="2" stroke-miterlimit="10" d="M89.422,42.523
	c3.124-3.124,2.659-8.654-1.039-12.353c-3.697-3.698-9.228-4.163-12.352-1.039"/>
<line fill="none" stroke="#414042" stroke-width="2" stroke-miterlimit="10" x1="77.417" y1="76.917" x2="87.583" y2="87.084"/>
</svg>
