<?xml version="1.0" encoding="utf-8"?>
<!-- Generator: Adobe Illustrator 15.0.0, SVG Export Plug-In . SVG Version: 6.00 Build 0)  -->
<!DOCTYPE svg PUBLIC "-//W3C//DTD SVG 1.0//EN" "http://www.w3.org/TR/2001/REC-SVG-20010904/DTD/svg10.dtd">
<svg version="1.0" id="Layer_1" xmlns="http://www.w3.org/2000/svg" xmlns:xlink="http://www.w3.org/1999/xlink" x="0px" y="0px"
	 width="109.753px" height="99.815px" viewBox="0 0 109.753 99.815" enable-background="new 0 0 109.753 99.815"
	 xml:space="preserve">
<g>
	<path fill="none" stroke="#333333" stroke-width="2" stroke-linejoin="round" stroke-miterlimit="10" d="M35.176,59.955
		l4.691-37.158c0-0.43,0.346-0.775,0.772-0.775h48.72c0.428,0,0.772,0.347,0.772,0.775l6.367,50.428c0,0.43-0.347,0.775-0.773,0.775
		H68.479l-3.866-21.067L59.973,74H34.273c-0.429,0-0.773-0.347-0.773-0.775"/>
	<line fill="none" stroke="#333333" stroke-width="2" stroke-miterlimit="10" x1="43.732" y1="33.014" x2="86.268" y2="33.014"/>
	
		<line fill="none" stroke="#333333" stroke-width="2" stroke-linejoin="round" stroke-miterlimit="10" x1="44.5" y1="26" x2="44.5" y2="30"/>
	
		<line fill="none" stroke="#333333" stroke-width="2" stroke-linejoin="round" stroke-miterlimit="10" x1="51.5" y1="26" x2="51.5" y2="30"/>
	
		<line fill="none" stroke="#333333" stroke-width="2" stroke-linejoin="round" stroke-miterlimit="10" x1="85.5" y1="26" x2="85.5" y2="30"/>
	
		<line fill="none" stroke="#333333" stroke-width="2" stroke-linejoin="round" stroke-miterlimit="10" x1="76.5" y1="26" x2="76.5" y2="30"/>
	
		<line fill="none" stroke="#333333" stroke-width="2" stroke-linejoin="round" stroke-miterlimit="10" x1="64.5" y1="26" x2="64.5" y2="30"/>
</g>
</svg>
