<?xml version="1.0" encoding="utf-8"?>
<!-- Generator: Adobe Illustrator 15.0.0, SVG Export Plug-In . SVG Version: 6.00 Build 0)  -->
<!DOCTYPE svg PUBLIC "-//W3C//DTD SVG 1.0//EN" "http://www.w3.org/TR/2001/REC-SVG-20010904/DTD/svg10.dtd">
<svg version="1.0" id="Layer_1" xmlns="http://www.w3.org/2000/svg" xmlns:xlink="http://www.w3.org/1999/xlink" x="0px" y="0px"
	 width="109.753px" height="99.815px" viewBox="0 0 109.753 99.815" enable-background="new 0 0 109.753 99.815"
	 xml:space="preserve">
<path fill="none" stroke="#414042" stroke-width="2" stroke-miterlimit="10" d="M55.9,41.514c1.369,2.782,2.16,5.944,2.2,9.302
	c2.216,0.544,4.517,0.841,6.879,0.841c2.361,0,4.661-0.297,6.877-0.841c0.129-11.187,8.617-20.214,19.082-20.214
	c1.695,0,3.634-1.383,3.953-2.242c0.83-2.24,1.586-4.346,1.604-7.021C96.504,20.605,96.548,19,93.162,19c-3.176,0-46.106,0-54.153,0
	c-0.535,0-0.916,0-1.12,0c-3.28,0-3.391,1.565-3.391,2.266c0.002,2.763,0.078,4.765,0.754,7.161
	c0.216,0.762,2.261,2.175,3.765,2.175c4.213,0,8.104,1.463,11.262,3.938"/>
</svg>
