<?xml version="1.0" encoding="utf-8"?>
<!-- Generator: Adobe Illustrator 15.0.0, SVG Export Plug-In . SVG Version: 6.00 Build 0)  -->
<!DOCTYPE svg PUBLIC "-//W3C//DTD SVG 1.0//EN" "http://www.w3.org/TR/2001/REC-SVG-20010904/DTD/svg10.dtd">
<svg version="1.0" id="Layer_1" xmlns="http://www.w3.org/2000/svg" xmlns:xlink="http://www.w3.org/1999/xlink" x="0px" y="0px"
	 width="109.753px" height="99.815px" viewBox="0 0 109.753 99.815" enable-background="new 0 0 109.753 99.815"
	 xml:space="preserve">
<path fill="none" stroke="#414042" stroke-width="2" stroke-miterlimit="10" d="M43.958,47.971C47.253,47.971,60.283,48,67.25,48
	c10.072,0,12.25-3.644,12.25-8.358c0-3.81-1.059-7.035-7.387-8.135c-0.604-4.146-3.491-7.476-7.738-7.476
	c-1.159,0-2.264,0.237-3.269,0.666c-1.833-1.885-4.983-2.62-7.795-2.62c-4.951,0-9.074,3.333-9.94,8.109
	c-0.252-0.022-0.506-0.039-0.764-0.039c-4.479,0-8.107,3.689-8.107,8.239c0,1.521,0.171,3.096,0.694,4.519"/>
<path fill="none" stroke="#414042" stroke-width="2" stroke-miterlimit="10" d="M83.555,42C93.651,42,95.5,38.356,95.5,33.642
	c0-3.81-1.062-7.035-7.405-8.135c-0.605-4.146-3.5-7.476-7.756-7.476c-1.163,0-2.27,0.237-3.278,0.666
	c-1.837-1.885-4.994-2.62-7.813-2.62c-3.087,0-5.854,1.29-7.712,3.415"/>
</svg>
