<?xml version="1.0" encoding="utf-8"?>
<!-- Generator: Adobe Illustrator 15.0.0, SVG Export Plug-In . SVG Version: 6.00 Build 0)  -->
<!DOCTYPE svg PUBLIC "-//W3C//DTD SVG 1.0//EN" "http://www.w3.org/TR/2001/REC-SVG-20010904/DTD/svg10.dtd">
<svg version="1.0" id="Layer_1" xmlns="http://www.w3.org/2000/svg" xmlns:xlink="http://www.w3.org/1999/xlink" x="0px" y="0px"
	 width="109.753px" height="99.815px" viewBox="0 0 109.753 99.815" enable-background="new 0 0 109.753 99.815"
	 xml:space="preserve">
<path fill="none" stroke="#414042" stroke-width="2" stroke-miterlimit="10" d="M33.402,72.687c4.539,0,22.492,0.04,32.092,0.04
	c13.877,0,16.877-4.938,16.877-11.331c0-5.165-1.459-9.536-10.178-11.026c-0.834-5.619-5.664-9.657-11.516-9.657
	c-1.598,0-3.118,0.322-4.504,0.904c-2.524-2.557-6.013-4.029-9.888-4.029c-6.819,0-12.502,4.518-13.694,10.993
	c-0.347-0.032-0.696-0.054-1.052-0.054c-6.17,0-11.17,5.002-11.17,11.17c0,2.062,0.235,4.196,0.956,6.125"/>
<path fill="none" stroke="#414042" stroke-width="2" stroke-miterlimit="10" d="M46.717,33.398c2.815-4.6,7.885-7.67,13.67-7.67
	c8.846,0,16.017,7.176,16.017,16.023c0,1.498-0.205,2.949-0.591,4.324"/>
<line fill="none" stroke="#414042" stroke-width="2" stroke-miterlimit="10" x1="60.371" y1="13.795" x2="60.371" y2="21.67"/>
<line fill="none" stroke="#414042" stroke-width="2" stroke-miterlimit="10" x1="60.371" y1="13.795" x2="60.371" y2="21.67"/>
<line fill="none" stroke="#414042" stroke-width="2" stroke-miterlimit="10" x1="60.371" y1="13.795" x2="60.371" y2="21.67"/>
<line fill="none" stroke="#414042" stroke-width="2" stroke-miterlimit="10" x1="60.371" y1="13.795" x2="60.371" y2="21.67"/>
<line fill="none" stroke="#414042" stroke-width="2" stroke-miterlimit="10" x1="88.309" y1="41.732" x2="80.434" y2="41.732"/>
<line fill="none" stroke="#414042" stroke-width="2" stroke-miterlimit="10" x1="88.309" y1="41.732" x2="80.434" y2="41.732"/>
<line fill="none" stroke="#414042" stroke-width="2" stroke-miterlimit="10" x1="88.309" y1="41.732" x2="80.434" y2="41.732"/>
<line fill="none" stroke="#414042" stroke-width="2" stroke-miterlimit="10" x1="88.309" y1="41.732" x2="80.434" y2="41.732"/>
<line fill="none" stroke="#414042" stroke-width="2" stroke-miterlimit="10" x1="80.125" y1="21.977" x2="74.557" y2="27.545"/>
<line fill="none" stroke="#414042" stroke-width="2" stroke-miterlimit="10" x1="80.125" y1="21.977" x2="74.557" y2="27.545"/>
<line fill="none" stroke="#414042" stroke-width="2" stroke-miterlimit="10" x1="80.125" y1="21.977" x2="74.557" y2="27.545"/>
<line fill="none" stroke="#414042" stroke-width="2" stroke-miterlimit="10" x1="80.125" y1="21.977" x2="74.557" y2="27.545"/>
<line fill="none" stroke="#414042" stroke-width="2" stroke-miterlimit="10" x1="46.184" y1="27.545" x2="40.616" y2="21.977"/>
<line fill="none" stroke="#414042" stroke-width="2" stroke-miterlimit="10" x1="46.184" y1="27.545" x2="40.616" y2="21.977"/>
<line fill="none" stroke="#414042" stroke-width="2" stroke-miterlimit="10" x1="46.184" y1="27.545" x2="40.616" y2="21.977"/>
<line fill="none" stroke="#414042" stroke-width="2" stroke-miterlimit="10" x1="46.184" y1="27.545" x2="40.616" y2="21.977"/>
</svg>
