<?xml version="1.0" encoding="utf-8"?>
<!-- Generator: Adobe Illustrator 15.0.0, SVG Export Plug-In . SVG Version: 6.00 Build 0)  -->
<!DOCTYPE svg PUBLIC "-//W3C//DTD SVG 1.0//EN" "http://www.w3.org/TR/2001/REC-SVG-20010904/DTD/svg10.dtd">
<svg version="1.0" id="Layer_1" xmlns="http://www.w3.org/2000/svg" xmlns:xlink="http://www.w3.org/1999/xlink" x="0px" y="0px"
	 width="109.753px" height="99.815px" viewBox="0 0 109.753 99.815" enable-background="new 0 0 109.753 99.815"
	 xml:space="preserve">
<path fill="none" stroke="#414042" stroke-width="2" stroke-miterlimit="10" d="M35.272,57.481c4.539,0,22.492,0.04,32.092,0.04
	c13.877,0,16.877-4.938,16.877-11.331c0-5.165-1.459-9.536-10.178-11.026c-0.834-5.619-5.664-9.657-11.516-9.657
	c-1.598,0-3.118,0.322-4.504,0.904c-2.524-2.557-6.013-4.029-9.888-4.029c-6.819,0-12.502,4.518-13.694,10.993
	c-0.347-0.032-0.696-0.054-1.052-0.054c-6.17,0-11.17,5.002-11.17,11.17c0,2.062,0.235,4.196,0.956,6.125"/>
<line fill="none" stroke="#414042" stroke-width="2" stroke-miterlimit="10" x1="31.241" y1="61.506" x2="31.241" y2="71.484"/>
<line fill="none" stroke="#414042" stroke-width="2" stroke-miterlimit="10" x1="36.2" y1="66.505" x2="26.282" y2="66.505"/>
<line fill="none" stroke="#414042" stroke-width="2" stroke-miterlimit="10" x1="34.069" y1="63.678" x2="28.413" y2="69.334"/>
<line fill="none" stroke="#414042" stroke-width="2" stroke-miterlimit="10" x1="34.069" y1="69.334" x2="28.413" y2="63.677"/>
<line fill="none" stroke="#414042" stroke-width="2" stroke-miterlimit="10" x1="52.241" y1="69.506" x2="52.241" y2="79.484"/>
<line fill="none" stroke="#414042" stroke-width="2" stroke-miterlimit="10" x1="57.2" y1="74.505" x2="47.282" y2="74.505"/>
<line fill="none" stroke="#414042" stroke-width="2" stroke-miterlimit="10" x1="55.069" y1="71.678" x2="49.413" y2="77.334"/>
<line fill="none" stroke="#414042" stroke-width="2" stroke-miterlimit="10" x1="55.069" y1="77.334" x2="49.413" y2="71.677"/>
<line fill="none" stroke="#414042" stroke-width="2" stroke-miterlimit="10" x1="73.241" y1="61.506" x2="73.241" y2="71.484"/>
<line fill="none" stroke="#414042" stroke-width="2" stroke-miterlimit="10" x1="78.2" y1="66.505" x2="68.282" y2="66.505"/>
<line fill="none" stroke="#414042" stroke-width="2" stroke-miterlimit="10" x1="76.069" y1="63.678" x2="70.413" y2="69.334"/>
<line fill="none" stroke="#414042" stroke-width="2" stroke-miterlimit="10" x1="76.069" y1="69.334" x2="70.413" y2="63.677"/>
</svg>
