<?xml version="1.0" encoding="utf-8"?>
<!-- Generator: Adobe Illustrator 15.0.0, SVG Export Plug-In . SVG Version: 6.00 Build 0)  -->
<!DOCTYPE svg PUBLIC "-//W3C//DTD SVG 1.0//EN" "http://www.w3.org/TR/2001/REC-SVG-20010904/DTD/svg10.dtd">
<svg version="1.0" id="Layer_1" xmlns="http://www.w3.org/2000/svg" xmlns:xlink="http://www.w3.org/1999/xlink" x="0px" y="0px"
	 width="109.753px" height="99.815px" viewBox="0 0 109.753 99.815" enable-background="new 0 0 109.753 99.815"
	 xml:space="preserve">
<g>
	<path fill="none" stroke="#414042" stroke-width="2" stroke-miterlimit="10" d="M32.559,71.126
		c-1.611,3.748,5.334,9.576,6.718,10.96c3.71,3.711,17.956-4.521,31.819-18.386C84.96,49.838,93.192,35.592,89.481,31.882
		c-1.383-1.384-7.919-7.622-11.666-6.012"/>
	<line fill="none" stroke="#414042" stroke-width="2" stroke-miterlimit="10" x1="35.387" y1="66.884" x2="45.288" y2="76.782"/>
	<line fill="none" stroke="#414042" stroke-width="2" stroke-miterlimit="10" x1="39.63" y1="62.641" x2="49.53" y2="72.538"/>
	<line fill="none" stroke="#414042" stroke-width="2" stroke-miterlimit="10" x1="43.874" y1="58.398" x2="53.772" y2="68.297"/>
	<line fill="none" stroke="#414042" stroke-width="2" stroke-miterlimit="10" x1="48.116" y1="54.155" x2="58.014" y2="64.055"/>
	<line fill="none" stroke="#414042" stroke-width="2" stroke-miterlimit="10" x1="52.358" y1="49.913" x2="62.257" y2="59.812"/>
	<line fill="none" stroke="#414042" stroke-width="2" stroke-miterlimit="10" x1="56.601" y1="45.67" x2="66.5" y2="55.569"/>
	<line fill="none" stroke="#414042" stroke-width="2" stroke-miterlimit="10" x1="60.844" y1="41.428" x2="70.743" y2="51.326"/>
	<line fill="none" stroke="#414042" stroke-width="2" stroke-miterlimit="10" x1="65.086" y1="37.185" x2="74.985" y2="47.084"/>
	<line fill="none" stroke="#414042" stroke-width="2" stroke-miterlimit="10" x1="69.329" y1="32.942" x2="79.228" y2="42.841"/>
	<line fill="none" stroke="#414042" stroke-width="2" stroke-miterlimit="10" x1="73.572" y1="28.699" x2="83.471" y2="38.599"/>
</g>
</svg>
