<?xml version="1.0" encoding="utf-8"?>
<!-- Generator: Adobe Illustrator 15.0.0, SVG Export Plug-In . SVG Version: 6.00 Build 0)  -->
<!DOCTYPE svg PUBLIC "-//W3C//DTD SVG 1.0//EN" "http://www.w3.org/TR/2001/REC-SVG-20010904/DTD/svg10.dtd">
<svg version="1.0" id="Layer_1" xmlns="http://www.w3.org/2000/svg" xmlns:xlink="http://www.w3.org/1999/xlink" x="0px" y="0px"
	 width="109.753px" height="99.815px" viewBox="0 0 109.753 99.815" enable-background="new 0 0 109.753 99.815"
	 xml:space="preserve">
<g>
	<path fill="none" stroke="#414042" stroke-width="2" stroke-miterlimit="10" d="M57.5,44.443c0,5.186-6.707,18.604-14.979,18.604
		c-8.274,0-14.98-13.418-14.98-18.604c0-2.439,1.484-4.662,3.917-6.332c2.74-1.879,6.682-3.059,11.063-3.059
		c4.314,0,8.202,1.144,10.935,2.974C55.965,39.706,57.5,41.962,57.5,44.443z"/>
	<line fill="none" stroke="#414042" stroke-width="2" stroke-miterlimit="10" x1="27.458" y1="21.261" x2="27.458" y2="44.261"/>
	<line fill="none" stroke="#414042" stroke-width="2" stroke-miterlimit="10" x1="31.458" y1="21.261" x2="31.458" y2="38"/>
	<line fill="none" stroke="#414042" stroke-width="2" stroke-miterlimit="10" x1="53.458" y1="21.261" x2="53.458" y2="38"/>
	<line fill="none" stroke="#414042" stroke-width="2" stroke-miterlimit="10" x1="57.458" y1="21.261" x2="57.458" y2="44.261"/>
	<line fill="none" stroke="#414042" stroke-width="2" stroke-miterlimit="10" x1="41.292" y1="35.761" x2="28.792" y2="48.094"/>
	<line fill="none" stroke="#414042" stroke-width="2" stroke-miterlimit="10" x1="48.292" y1="35.761" x2="30.792" y2="53.094"/>
	<line fill="none" stroke="#414042" stroke-width="2" stroke-miterlimit="10" x1="55.292" y1="39.761" x2="35.792" y2="59.094"/>
	<line fill="none" stroke="#414042" stroke-width="2" stroke-miterlimit="10" x1="57.292" y1="44.761" x2="39.792" y2="62.094"/>
	<g>
		<path fill="none" stroke="#414042" stroke-width="2" stroke-miterlimit="10" d="M38.857,66.538"/>
		<path fill="none" stroke="#414042" stroke-width="2" stroke-miterlimit="10" d="M39.536,63.094h5.978
			c-0.001,0.021-0.025,0.759-0.025,3.021c0,4.362-3.419,5.631-4.542,6.048c-0.097,0.036-0.188,0.066-0.263,0.1
			c-1.371,0.616-2.225,1.853-2.225,3.228c0,1.986,1.5,4.603,4,4.603c6.042,0,10-4.603,10-4.603c0,5.295-4.486,9.603-10,9.603
			c-5.513,0-10-4.308-10-9.603"/>
	</g>
</g>
</svg>
