<?xml version="1.0" encoding="utf-8"?>
<!-- Generator: Adobe Illustrator 15.0.0, SVG Export Plug-In . SVG Version: 6.00 Build 0)  -->
<!DOCTYPE svg PUBLIC "-//W3C//DTD SVG 1.0//EN" "http://www.w3.org/TR/2001/REC-SVG-20010904/DTD/svg10.dtd">
<svg version="1.0" id="Layer_1" xmlns="http://www.w3.org/2000/svg" xmlns:xlink="http://www.w3.org/1999/xlink" x="0px" y="0px"
	 width="109.753px" height="99.815px" viewBox="0 0 109.753 99.815" enable-background="new 0 0 109.753 99.815"
	 xml:space="preserve">
<path fill="none" stroke="#414042" stroke-width="2" stroke-miterlimit="10" d="M109.753,26"/>
<g>
	<path fill="none" stroke="#414042" stroke-width="2" stroke-miterlimit="10" d="M36.541,58H36.5c-0.553,0-10,8-10,8
		c0,0.552,0.447,1,1,1h23.938c0.554,0,1-0.448,1-1c0,0-9.066-7.677-9.938-7.972V47.742c7.967-1.312,14.021-7.745,14.021-15.503V14
		H22.5v18.239c0,7.764,6.064,14.202,14.041,15.506"/>
	<path fill="none" stroke="#414042" stroke-width="2" stroke-miterlimit="10" d="M60.538,40.242c3.968-0.825,6.983-4.876,6.983-9.76
		V19h-7.938"/>
	<path fill="none" stroke="#414042" stroke-width="2" stroke-miterlimit="10" d="M18.484,40.242
		c-3.969-0.825-6.984-4.876-6.984-9.76V19h7.938"/>
</g>
</svg>
