<?xml version="1.0" encoding="utf-8"?>
<!-- Generator: Adobe Illustrator 15.0.0, SVG Export Plug-In . SVG Version: 6.00 Build 0)  -->
<!DOCTYPE svg PUBLIC "-//W3C//DTD SVG 1.0//EN" "http://www.w3.org/TR/2001/REC-SVG-20010904/DTD/svg10.dtd">
<svg version="1.0" id="Layer_1" xmlns="http://www.w3.org/2000/svg" xmlns:xlink="http://www.w3.org/1999/xlink" x="0px" y="0px"
	 width="109.753px" height="99.815px" viewBox="0 0 109.753 99.815" enable-background="new 0 0 109.753 99.815"
	 xml:space="preserve">
<path fill="none" stroke="#414042" stroke-width="2" stroke-miterlimit="10" d="M109.753,26"/>
<path fill="none" stroke="#414042" stroke-width="2" stroke-miterlimit="10" d="M78.5,62.396C78.5,66.043,67.531,69,54,69
	s-24.5-2.956-24.5-6.604"/>
<path fill="none" stroke="#414042" stroke-width="2" stroke-miterlimit="10" d="M78.5,45.756C78.5,49.204,67.531,52,54,52
	s-24.5-2.795-24.5-6.244"/>
<path fill="none" stroke="#414042" stroke-width="2" stroke-miterlimit="10" d="M65.412,83.298C62.004,83.746,58.121,84,54,84
	c-3.369,0-6.578-0.169-9.5-0.477c-8.812-0.926-15-3.101-15-5.635c0-0.211,0-21.323,0-36.89"/>
<path fill="none" stroke="#414042" stroke-width="2" stroke-miterlimit="10" d="M78.5,30.218C78.5,33.412,67.531,36,54,36
	s-24.5-2.588-24.5-5.782v-2.106C29.5,24.736,40.469,22,54,22s24.5,2.736,24.5,6.111c0,0.117,0,49.459,0,49.777
	c0,1.51-2.193,2.892-5.829,3.957"/>
<line fill="none" stroke="#333333" stroke-width="2" stroke-miterlimit="10" x1="68.5" y1="72" x2="68.5" y2="84"/>
<polyline fill="none" stroke="#333333" stroke-width="2" stroke-miterlimit="10" points="63.562,76 68.5,72.062 73.562,76 "/>
</svg>
