<?xml version="1.0" encoding="utf-8"?>
<!-- Generator: Adobe Illustrator 15.0.0, SVG Export Plug-In . SVG Version: 6.00 Build 0)  -->
<!DOCTYPE svg PUBLIC "-//W3C//DTD SVG 1.0//EN" "http://www.w3.org/TR/2001/REC-SVG-20010904/DTD/svg10.dtd">
<svg version="1.0" id="Layer_1" xmlns="http://www.w3.org/2000/svg" xmlns:xlink="http://www.w3.org/1999/xlink" x="0px" y="0px"
	 width="109.753px" height="99.815px" viewBox="0 0 109.753 99.815" enable-background="new 0 0 109.753 99.815"
	 xml:space="preserve">
<path fill="none" stroke="#414042" stroke-width="2" stroke-miterlimit="10" d="M109.753,26"/>
<path fill="none" stroke="#414042" stroke-width="2" stroke-miterlimit="10" d="M32.5,42c0,15.564,0,36.678,0,36.889
	c0,2.535,6.188,4.709,15,5.636c2.921,0.307,6.131,0.477,9.5,0.477c13.531,0,24.5-2.735,24.5-6.11c0-0.318,0-49.661,0-49.777
	c0-3.375-10.969-6.111-24.5-6.111s-24.5,2.736-24.5,6.111"/>
<path fill="none" stroke="#414042" stroke-width="2" stroke-miterlimit="10" d="M81.5,63.396C81.5,67.043,70.531,70,57,70
	s-24.5-2.956-24.5-6.604"/>
<path fill="none" stroke="#414042" stroke-width="2" stroke-miterlimit="10" d="M81.5,46.756C81.5,50.205,70.531,53,57,53
	s-24.5-2.795-24.5-6.244"/>
<path fill="none" stroke="#414042" stroke-width="2" stroke-miterlimit="10" d="M81.5,31.218C81.5,34.412,70.531,37,57,37
	s-24.5-2.588-24.5-5.782"/>
</svg>
