<?xml version="1.0" encoding="utf-8"?>
<!-- Generator: Adobe Illustrator 15.0.0, SVG Export Plug-In . SVG Version: 6.00 Build 0)  -->
<!DOCTYPE svg PUBLIC "-//W3C//DTD SVG 1.0//EN" "http://www.w3.org/TR/2001/REC-SVG-20010904/DTD/svg10.dtd">
<svg version="1.0" id="Layer_1" xmlns="http://www.w3.org/2000/svg" xmlns:xlink="http://www.w3.org/1999/xlink" x="0px" y="0px"
	 width="109.753px" height="99.815px" viewBox="0 0 109.753 99.815" enable-background="new 0 0 109.753 99.815"
	 xml:space="preserve">
<path fill="none" stroke="#414042" stroke-width="2" stroke-miterlimit="10" d="M109.753,26"/>
<g>
	<g>
		<path fill="none" stroke="#414042" stroke-width="2" stroke-miterlimit="10" d="M62.556,34.34L42.278,14.188
			c-0.732-0.732-4.828,0.85-5.873,1.895l-4.845,4.844c-1.044,1.045-2.626,5.142-1.894,5.874l19.942,19.819"/>
		<path fill="none" stroke="#414042" stroke-width="2" stroke-miterlimit="10" d="M62.858,59.787l9.887,9.826
			c0.73,0.73,18.733,6.785,18.733,6.785S86.089,57.732,85.357,57l-10.014-9.943"/>
		<line fill="none" stroke="#414042" stroke-width="2" stroke-miterlimit="10" x1="47.01" y1="18.754" x2="34.233" y2="31.532"/>
		<line fill="none" stroke="#414042" stroke-width="2" stroke-miterlimit="10" x1="71.487" y1="51.153" x2="78.286" y2="57.895"/>
		<line fill="none" stroke="#414042" stroke-width="2" stroke-miterlimit="10" x1="42.944" y1="22.82" x2="58.487" y2="38.236"/>
		<line fill="none" stroke="#414042" stroke-width="2" stroke-miterlimit="10" x1="66.502" y1="55.483" x2="76.958" y2="65.86"/>
		<line fill="none" stroke="#414042" stroke-width="2" stroke-miterlimit="10" x1="38.299" y1="27.466" x2="54.045" y2="43.104"/>
		<polyline fill="none" stroke="#414042" stroke-width="2" stroke-miterlimit="10" points="84.924,57.729 78.12,57.729 
			76.875,65.943 69.325,66.358 		"/>
	</g>
	<g>
		<path fill="none" stroke="#414042" stroke-width="2" stroke-miterlimit="10" d="M54.803,72.11
			c-4.461,2.525-11.424,6.344-24.54,2.086c-0.782-0.256-1.057-1.731-0.389-2.023c12.343-5.379,7.418-11.235,9.642-16.514
			c2.511-5.954,8.376-7.538,12.521-5.655l8.188,8.215C60.913,62.467,59.414,69.498,54.803,72.11z"/>
		<path fill="none" stroke="#414042" stroke-width="2" stroke-miterlimit="10" d="M84.688,17.952
			c1.123-1.123,2.794-1.275,3.73-0.337l3.446,3.445c0.938,0.938,0.787,2.608-0.337,3.732L60.568,56.525
			c-1.123,1.122-1.803,0.278-2.74-0.659l-3.444-3.445c-0.938-0.938-1.781-1.616-0.657-2.74L84.688,17.952z"/>
		<line fill="none" stroke="#414042" stroke-width="2" stroke-miterlimit="10" x1="58.311" y1="44.688" x2="64.861" y2="51.239"/>
	</g>
</g>
</svg>
