<?xml version="1.0" encoding="utf-8"?>
<!-- Generator: Adobe Illustrator 15.0.0, SVG Export Plug-In . SVG Version: 6.00 Build 0)  -->
<!DOCTYPE svg PUBLIC "-//W3C//DTD SVG 1.0//EN" "http://www.w3.org/TR/2001/REC-SVG-20010904/DTD/svg10.dtd">
<svg version="1.0" id="Layer_1" xmlns="http://www.w3.org/2000/svg" xmlns:xlink="http://www.w3.org/1999/xlink" x="0px" y="0px"
	 width="109.753px" height="99.815px" viewBox="0 0 109.753 99.815" enable-background="new 0 0 109.753 99.815"
	 xml:space="preserve">
<path fill="none" stroke="#414042" stroke-width="2" stroke-miterlimit="10" d="M109.753,26"/>
<g>
	<g>
		<path fill="none" stroke="#333333" stroke-width="2" stroke-miterlimit="10" d="M49.025,11.056
			c17.054-1.512,32.102,11.067,33.609,28.099c1.511,17.031-11.089,32.063-28.143,33.575S22.39,61.662,20.881,44.63
			c-1.145-12.896,5.804-24.646,16.648-30.247"/>
		<path fill="none" stroke="#333333" stroke-width="2" stroke-miterlimit="10" d="M51.635,52.915
			c-6.04-0.052-10.922-4.961-10.922-11.012c0-6.08,4.932-11.01,11.015-11.01c6.084,0,11.015,4.93,11.015,11.01
			c0,3.801-1.926,7.152-4.854,9.13"/>
		<ellipse fill="none" stroke="#333333" stroke-width="2" stroke-miterlimit="10" cx="51.728" cy="41.878" rx="5.02" ry="5.026"/>
		<line fill="none" stroke="#333333" stroke-width="2" stroke-miterlimit="10" x1="72.125" y1="21.422" x2="61.652" y2="31.896"/>
		<line fill="none" stroke="#333333" stroke-width="2" stroke-miterlimit="10" x1="41.72" y1="51.829" x2="31.246" y2="62.302"/>
	</g>
	<line fill="none" stroke="#333333" stroke-width="2" stroke-miterlimit="10" x1="73.717" y1="57.003" x2="60.717" y2="57.003"/>
	<polyline fill="none" stroke="#333333" stroke-width="2" stroke-miterlimit="10" points="68.717,50.893 74.717,56.893 
		68.717,62.893 	"/>
</g>
</svg>
