<?xml version="1.0" encoding="utf-8"?>
<!-- Generator: Adobe Illustrator 15.0.0, SVG Export Plug-In . SVG Version: 6.00 Build 0)  -->
<!DOCTYPE svg PUBLIC "-//W3C//DTD SVG 1.0//EN" "http://www.w3.org/TR/2001/REC-SVG-20010904/DTD/svg10.dtd">
<svg version="1.0" id="Layer_1" xmlns="http://www.w3.org/2000/svg" xmlns:xlink="http://www.w3.org/1999/xlink" x="0px" y="0px"
	 width="109.753px" height="99.815px" viewBox="0 0 109.753 99.815" enable-background="new 0 0 109.753 99.815"
	 xml:space="preserve">
<path fill="none" stroke="#414042" stroke-width="2" stroke-miterlimit="10" d="M109.753,26"/>
<g>
	<g>
		<path fill="none" stroke="#333333" stroke-width="2" stroke-miterlimit="10" d="M46.767,30.163
			c17.054-1.512,32.102,11.067,33.61,28.099c1.511,17.031-11.089,32.063-28.142,33.575c-17.054,1.512-32.104-11.068-33.612-28.1
			c-1.145-12.896,5.804-24.646,16.648-30.247"/>
		<path fill="none" stroke="#333333" stroke-width="2" stroke-miterlimit="10" d="M49.376,72.021
			c-6.04-0.052-10.921-4.961-10.921-11.012c0-6.08,4.932-11.01,11.015-11.01c6.084,0,11.016,4.93,11.016,11.01
			c0,3.801-1.927,7.152-4.856,9.13"/>
		<ellipse fill="none" stroke="#333333" stroke-width="2" stroke-miterlimit="10" cx="49.47" cy="60.985" rx="5.02" ry="5.026"/>
		<line fill="none" stroke="#333333" stroke-width="2" stroke-miterlimit="10" x1="69.867" y1="40.529" x2="59.395" y2="51.003"/>
		<line fill="none" stroke="#333333" stroke-width="2" stroke-miterlimit="10" x1="39.462" y1="70.936" x2="28.988" y2="81.409"/>
	</g>
	<line fill="none" stroke="#333333" stroke-width="2" stroke-miterlimit="10" x1="72.125" y1="76.016" x2="59.502" y2="76.016"/>
</g>
</svg>
