<?xml version="1.0" encoding="utf-8"?>
<!-- Generator: Adobe Illustrator 15.0.0, SVG Export Plug-In . SVG Version: 6.00 Build 0)  -->
<!DOCTYPE svg PUBLIC "-//W3C//DTD SVG 1.0//EN" "http://www.w3.org/TR/2001/REC-SVG-20010904/DTD/svg10.dtd">
<svg version="1.0" id="Layer_1" xmlns="http://www.w3.org/2000/svg" xmlns:xlink="http://www.w3.org/1999/xlink" x="0px" y="0px"
	 width="109.753px" height="99.815px" viewBox="0 0 109.753 99.815" enable-background="new 0 0 109.753 99.815"
	 xml:space="preserve">
<path fill="none" stroke="#414042" stroke-width="2" stroke-miterlimit="10" d="M109.753,26"/>
<g>
	<g>
		<path fill="none" stroke="#333333" stroke-width="2" stroke-miterlimit="10" d="M60.809,23.163
			C77.862,21.651,92.91,34.23,94.418,51.262c1.511,17.031-11.088,32.063-28.143,33.575c-17.054,1.512-32.103-11.068-33.611-28.1
			C31.52,43.841,38.468,32.091,49.312,26.49"/>
		<path fill="none" stroke="#333333" stroke-width="2" stroke-miterlimit="10" d="M63.418,65.021
			c-6.04-0.052-10.922-4.961-10.922-11.012c0-6.08,4.932-11.01,11.015-11.01c6.084,0,11.016,4.93,11.016,11.01
			c0,3.801-1.927,7.152-4.855,9.13"/>
		<ellipse fill="none" stroke="#333333" stroke-width="2" stroke-miterlimit="10" cx="63.511" cy="53.985" rx="5.02" ry="5.026"/>
		<line fill="none" stroke="#333333" stroke-width="2" stroke-miterlimit="10" x1="83.908" y1="33.529" x2="73.436" y2="44.003"/>
		<line fill="none" stroke="#333333" stroke-width="2" stroke-miterlimit="10" x1="53.503" y1="63.936" x2="43.029" y2="74.409"/>
	</g>
	<polyline fill="none" stroke="#333333" stroke-width="2" stroke-miterlimit="10" points="84.5,64.016 76.543,64.016 76.521,64.037 
		76.521,72.994 76.543,73.016 84.5,73.016 	"/>
</g>
</svg>
