<?xml version="1.0" encoding="utf-8"?>
<!-- Generator: Adobe Illustrator 15.0.0, SVG Export Plug-In . SVG Version: 6.00 Build 0)  -->
<!DOCTYPE svg PUBLIC "-//W3C//DTD SVG 1.0//EN" "http://www.w3.org/TR/2001/REC-SVG-20010904/DTD/svg10.dtd">
<svg version="1.0" id="Layer_1" xmlns="http://www.w3.org/2000/svg" xmlns:xlink="http://www.w3.org/1999/xlink" x="0px" y="0px"
	 width="109.753px" height="99.815px" viewBox="0 0 109.753 99.815" enable-background="new 0 0 109.753 99.815"
	 xml:space="preserve">
<path fill="none" stroke="#414042" stroke-width="2" stroke-miterlimit="10" d="M109.753,26"/>
<g>
	<g>
		<path fill="none" stroke="#333333" stroke-width="2" stroke-miterlimit="10" d="M39.809,12.163
			C56.862,10.651,71.91,23.23,73.418,40.262c1.511,17.031-11.089,32.063-28.143,33.575s-32.103-11.068-33.611-28.1
			C10.52,32.841,17.468,21.091,28.312,15.49"/>
		<path fill="none" stroke="#333333" stroke-width="2" stroke-miterlimit="10" d="M42.418,54.021
			c-6.04-0.052-10.922-4.961-10.922-11.012c0-6.08,4.932-11.01,11.015-11.01c6.084,0,11.016,4.93,11.016,11.01
			c0,3.801-1.927,7.152-4.855,9.13"/>
		<ellipse fill="none" stroke="#333333" stroke-width="2" stroke-miterlimit="10" cx="42.511" cy="42.985" rx="5.02" ry="5.026"/>
		<line fill="none" stroke="#333333" stroke-width="2" stroke-miterlimit="10" x1="62.908" y1="22.529" x2="52.436" y2="33.003"/>
		<line fill="none" stroke="#333333" stroke-width="2" stroke-miterlimit="10" x1="32.503" y1="52.936" x2="22.029" y2="63.409"/>
	</g>
	<line fill="none" stroke="#333333" stroke-width="2" stroke-miterlimit="10" x1="58.61" y1="52" x2="58.61" y2="65"/>
	<polyline fill="none" stroke="#333333" stroke-width="2" stroke-miterlimit="10" points="52.5,57 58.5,51 64.5,57 	"/>
</g>
</svg>
