<?xml version="1.0" encoding="utf-8"?>
<!-- Generator: Adobe Illustrator 15.0.0, SVG Export Plug-In . SVG Version: 6.00 Build 0)  -->
<!DOCTYPE svg PUBLIC "-//W3C//DTD SVG 1.0//EN" "http://www.w3.org/TR/2001/REC-SVG-20010904/DTD/svg10.dtd">
<svg version="1.0" id="Layer_1" xmlns="http://www.w3.org/2000/svg" xmlns:xlink="http://www.w3.org/1999/xlink" x="0px" y="0px"
	 width="109.753px" height="99.815px" viewBox="0 0 109.753 99.815" enable-background="new 0 0 109.753 99.815"
	 xml:space="preserve">
<path fill="none" stroke="#414042" stroke-width="2" stroke-miterlimit="10" d="M109.753,26"/>
<g>
	<path fill="none" stroke="#414042" stroke-width="2" stroke-miterlimit="10" d="M51.808,17.163
		c17.054-1.512,32.102,11.068,33.611,28.1c1.51,17.031-11.089,32.063-28.143,33.574c-17.053,1.512-32.103-11.068-33.612-28.1
		c-1.143-12.896,5.804-24.646,16.649-30.247"/>
	<path fill="none" stroke="#414042" stroke-width="2" stroke-miterlimit="10" d="M54.417,59.021
		c-6.04-0.052-10.921-4.961-10.921-11.012c0-6.08,4.932-11.01,11.015-11.01c6.084,0,11.015,4.93,11.015,11.01
		c0,3.801-1.926,7.152-4.856,9.13"/>
	<ellipse fill="none" stroke="#414042" stroke-width="2" stroke-miterlimit="10" cx="54.511" cy="47.985" rx="5.019" ry="5.026"/>
	<line fill="none" stroke="#414042" stroke-width="2" stroke-miterlimit="10" x1="74.908" y1="27.529" x2="64.435" y2="38.003"/>
	<line fill="none" stroke="#414042" stroke-width="2" stroke-miterlimit="10" x1="44.503" y1="57.935" x2="34.029" y2="68.409"/>
</g>
</svg>
