<?xml version="1.0" encoding="utf-8"?>
<!-- Generator: Adobe Illustrator 15.0.0, SVG Export Plug-In . SVG Version: 6.00 Build 0)  -->
<!DOCTYPE svg PUBLIC "-//W3C//DTD SVG 1.0//EN" "http://www.w3.org/TR/2001/REC-SVG-20010904/DTD/svg10.dtd">
<svg version="1.0" id="Layer_1" xmlns="http://www.w3.org/2000/svg" xmlns:xlink="http://www.w3.org/1999/xlink" x="0px" y="0px"
	 width="109.753px" height="99.815px" viewBox="0 0 109.753 99.815" enable-background="new 0 0 109.753 99.815"
	 xml:space="preserve">
<path fill="none" stroke="#414042" stroke-width="2" stroke-miterlimit="10" d="M109.753,26"/>
<g>
	<g>
		<path fill="none" stroke="#333333" stroke-width="2" stroke-miterlimit="10" d="M53.809,22.163
			C70.862,20.651,85.91,33.23,87.418,50.262c1.511,17.031-11.089,32.063-28.143,33.575s-32.103-11.068-33.611-28.1
			C24.52,42.841,31.468,31.091,42.312,25.49"/>
		<path fill="none" stroke="#333333" stroke-width="2" stroke-miterlimit="10" d="M56.418,64.021
			c-6.04-0.052-10.922-4.961-10.922-11.012c0-6.08,4.932-11.01,11.015-11.01c6.084,0,11.016,4.93,11.016,11.01
			c0,3.801-1.927,7.152-4.855,9.13"/>
		<ellipse fill="none" stroke="#333333" stroke-width="2" stroke-miterlimit="10" cx="56.511" cy="52.985" rx="5.02" ry="5.026"/>
		<line fill="none" stroke="#333333" stroke-width="2" stroke-miterlimit="10" x1="76.908" y1="32.529" x2="66.436" y2="43.003"/>
		<line fill="none" stroke="#333333" stroke-width="2" stroke-miterlimit="10" x1="46.503" y1="62.936" x2="36.029" y2="73.409"/>
	</g>
	<line fill="none" stroke="#333333" stroke-width="2" stroke-miterlimit="10" x1="66.5" y1="67.89" x2="79.5" y2="67.89"/>
	<polyline fill="none" stroke="#333333" stroke-width="2" stroke-miterlimit="10" points="71.5,74 65.5,68 71.5,62 	"/>
</g>
</svg>
