<?xml version="1.0" encoding="utf-8"?>
<!-- Generator: Adobe Illustrator 15.0.0, SVG Export Plug-In . SVG Version: 6.00 Build 0)  -->
<!DOCTYPE svg PUBLIC "-//W3C//DTD SVG 1.0//EN" "http://www.w3.org/TR/2001/REC-SVG-20010904/DTD/svg10.dtd">
<svg version="1.0" id="Layer_1" xmlns="http://www.w3.org/2000/svg" xmlns:xlink="http://www.w3.org/1999/xlink" x="0px" y="0px"
	 width="109.753px" height="99.815px" viewBox="0 0 109.753 99.815" enable-background="new 0 0 109.753 99.815"
	 xml:space="preserve">
<path fill="none" stroke="#414042" stroke-width="2" stroke-miterlimit="10" d="M109.753,26"/>
<g>
	<path fill="none" stroke="#414042" stroke-width="2" stroke-miterlimit="10" d="M59.654,74.975h-2.462
		c-0.906,0-1.642-0.733-1.642-1.641V24.641c0-0.905,0.734-1.641,1.642-1.641h39.667c0.905,0,1.641,0.734,1.641,1.641"/>
	<path fill="none" stroke="#414042" stroke-width="2" stroke-miterlimit="10" d="M98.5,24.641v47.872
		c0,0.906-0.729,1.643-1.627,1.643l-32.797,9.846c-0.898,0-1.627-0.734-1.627-1.642V36.488c0-0.905,0.729-1.642,1.627-1.642
		L92.873,27"/>
	<ellipse fill="none" stroke="#414042" stroke-width="2" stroke-miterlimit="10" cx="70.109" cy="59.5" rx="2.416" ry="2.333"/>
	<line fill="none" stroke="#414042" stroke-width="2" stroke-miterlimit="10" x1="50.5" y1="49" x2="40.5" y2="49"/>
	<polyline fill="none" stroke="#414042" stroke-width="2" stroke-miterlimit="10" points="43.5,54 39.5,49 43.5,44 	"/>
</g>
</svg>
