<?xml version="1.0" encoding="utf-8"?>
<!-- Generator: Adobe Illustrator 15.0.0, SVG Export Plug-In . SVG Version: 6.00 Build 0)  -->
<!DOCTYPE svg PUBLIC "-//W3C//DTD SVG 1.0//EN" "http://www.w3.org/TR/2001/REC-SVG-20010904/DTD/svg10.dtd">
<svg version="1.0" id="Layer_1" xmlns="http://www.w3.org/2000/svg" xmlns:xlink="http://www.w3.org/1999/xlink" x="0px" y="0px"
	 width="109.753px" height="99.815px" viewBox="0 0 109.753 99.815" enable-background="new 0 0 109.753 99.815"
	 xml:space="preserve">
<path fill="none" stroke="#414042" stroke-width="2" stroke-miterlimit="10" d="M109.753,26"/>
<g>
	<path fill="none" stroke="#414042" stroke-width="2" stroke-miterlimit="10" d="M46.368,35.489c-0.781,0.78-0.781,2.048,0,2.829
		l6.954,6.953l1.531,4.358l7.136,7.137l-5.903,7.334c-0.781,0.779-0.781,2.048,0,2.827l8.485,8.485c0.781,0.781,2.047,0.781,2.828,0
		L85.966,49.63c0.781-0.78,0.781-2.047,0-2.828L72.531,33.367l-4.199-1.37l-7.823-7.822c-0.78-0.781-2.047-0.781-2.828,0"/>
	<polyline fill="none" stroke="#414042" stroke-width="2" stroke-miterlimit="10" points="55.517,53.389 52.732,57.41 
		55.561,60.238 	"/>
	<line fill="none" stroke="#414042" stroke-width="2" stroke-miterlimit="10" x1="37.5" y1="15" x2="42.125" y2="19.934"/>
	<line fill="none" stroke="#414042" stroke-width="2" stroke-miterlimit="10" x1="71.028" y1="40.527" x2="68.376" y2="46.008"/>
	<line fill="none" stroke="#414042" stroke-width="2" stroke-miterlimit="10" x1="74.562" y1="44.062" x2="71.912" y2="49.543"/>
	<line fill="none" stroke="#414042" stroke-width="2" stroke-miterlimit="10" x1="78.1" y1="47.599" x2="75.448" y2="53.078"/>
	<path fill="none" stroke="#414042" stroke-width="2" stroke-miterlimit="10" d="M50.529,32.742
		c-0.768,0.769-2.024,0.758-2.805-0.023l-3.536-3.535c-0.78-0.78-0.791-2.037-0.023-2.805l4.288-4.289
		c0.769-0.768,2.024-0.758,2.806,0.023l3.535,3.535c0.781,0.782,0.792,2.036,0.023,2.807L50.529,32.742z"/>
	<line fill="none" stroke="#414042" stroke-width="2" stroke-miterlimit="10" x1="46.338" y1="19.963" x2="42.125" y2="24.176"/>
</g>
</svg>
