<?xml version="1.0" encoding="utf-8"?>
<!-- Generator: Adobe Illustrator 15.0.0, SVG Export Plug-In . SVG Version: 6.00 Build 0)  -->
<!DOCTYPE svg PUBLIC "-//W3C//DTD SVG 1.0//EN" "http://www.w3.org/TR/2001/REC-SVG-20010904/DTD/svg10.dtd">
<svg version="1.0" id="Layer_1" xmlns="http://www.w3.org/2000/svg" xmlns:xlink="http://www.w3.org/1999/xlink" x="0px" y="0px"
	 width="109.753px" height="99.815px" viewBox="0 0 109.753 99.815" enable-background="new 0 0 109.753 99.815"
	 xml:space="preserve">
<path fill="none" stroke="#414042" stroke-width="2" stroke-miterlimit="10" d="M109.753,26"/>
<g>
	<path fill="none" stroke="#414042" stroke-width="2" stroke-miterlimit="10" d="M33.5,26v-4.004c0-0.55,0.453-0.997,1.012-0.997
		h59.976c0.559,0,1.012,0.446,1.012,0.997v48.006c0,0.551-0.454,0.997-1.012,0.997H34.512c-0.56,0-1.012-0.446-1.012-0.997V39"/>
	<line fill="none" stroke="#414042" stroke-width="2" stroke-miterlimit="10" x1="54.583" y1="31.083" x2="54.583" y2="46"/>
	<line fill="none" stroke="#414042" stroke-width="2" stroke-miterlimit="10" x1="73.583" y1="31.083" x2="73.583" y2="46"/>
	<line fill="none" stroke="#414042" stroke-width="2" stroke-miterlimit="10" x1="49.5" y1="56" x2="49.5" y2="64"/>
	<line fill="none" stroke="#414042" stroke-width="2" stroke-miterlimit="10" x1="59.5" y1="56" x2="59.5" y2="64"/>
	<line fill="none" stroke="#414042" stroke-width="2" stroke-miterlimit="10" x1="69.5" y1="56" x2="69.5" y2="64"/>
	<line fill="none" stroke="#414042" stroke-width="2" stroke-miterlimit="10" x1="79.5" y1="56" x2="79.5" y2="64"/>
	<rect x="49.5" y="56" fill="none" stroke="#414042" stroke-width="2" stroke-miterlimit="10" width="30" height="8"/>
</g>
</svg>
