<?xml version="1.0" encoding="utf-8"?>
<!-- Generator: Adobe Illustrator 15.0.0, SVG Export Plug-In . SVG Version: 6.00 Build 0)  -->
<!DOCTYPE svg PUBLIC "-//W3C//DTD SVG 1.0//EN" "http://www.w3.org/TR/2001/REC-SVG-20010904/DTD/svg10.dtd">
<svg version="1.0" id="Layer_1" xmlns="http://www.w3.org/2000/svg" xmlns:xlink="http://www.w3.org/1999/xlink" x="0px" y="0px"
	 width="109.753px" height="99.815px" viewBox="0 0 109.753 99.815" enable-background="new 0 0 109.753 99.815"
	 xml:space="preserve">
<path fill="none" stroke="#414042" stroke-width="2" stroke-miterlimit="10" d="M109.753,26"/>
<path fill="none" stroke="#414042" stroke-width="2" stroke-miterlimit="10" d="M34.5,19c0-0.552,0.448-1,1-1l11,6v16v10l17-10v10
	l17-10v10l15-10c0.552,0,1,0.448,1,1v33c0,0.552-0.448,1-1,1h-60c-0.552,0-1-0.448-1-1V37"/>
<path fill="none" stroke="#414042" stroke-width="2" stroke-miterlimit="10" d="M50.5,58.75c0-0.414,0.336-0.75,0.75-0.75h7.5
	c0.414,0,0.75,0.336,0.75,0.75v4.5c0,0.414-0.336,0.75-0.75,0.75"/>
<path fill="none" stroke="#414042" stroke-width="2" stroke-miterlimit="10" d="M67.5,58.75c0-0.414,0.336-0.75,0.75-0.75h7.5
	c0.414,0,0.75,0.336,0.75,0.75v4.5c0,0.414-0.336,0.75-0.75,0.75"/>
<path fill="none" stroke="#414042" stroke-width="2" stroke-miterlimit="10" d="M83.5,58.75c0-0.414,0.336-0.75,0.75-0.75h7.5
	c0.414,0,0.75,0.336,0.75,0.75v4.5c0,0.414-0.336,0.75-0.75,0.75"/>
</svg>
