<?xml version="1.0" encoding="utf-8"?>
<!-- Generator: Adobe Illustrator 15.0.0, SVG Export Plug-In . SVG Version: 6.00 Build 0)  -->
<!DOCTYPE svg PUBLIC "-//W3C//DTD SVG 1.0//EN" "http://www.w3.org/TR/2001/REC-SVG-20010904/DTD/svg10.dtd">
<svg version="1.0" id="Layer_1" xmlns="http://www.w3.org/2000/svg" xmlns:xlink="http://www.w3.org/1999/xlink" x="0px" y="0px"
	 width="109.753px" height="99.815px" viewBox="0 0 109.753 99.815" enable-background="new 0 0 109.753 99.815"
	 xml:space="preserve">
<path fill="none" stroke="#414042" stroke-width="2" stroke-miterlimit="10" d="M109.753,26"/>
<path fill="none" stroke="#333333" stroke-width="2" stroke-miterlimit="10" d="M52.766,66.035c3.213-1.595,6.836-4.039,10.56-7.631
	c0.785-0.757-3.976-1.78-3.187-2.642c0.789-0.863,8.132-2.562,8.926-3.532c2.832-3.479,4.32-5.986,6.47-9.375
	c0.565-0.889-5.877,0.726-5.361-0.146c0.507-0.85,8.972-5.183,9.431-6.007c5.952-10.674,7.233-18.245,5.996-19.454
	c-0.992-0.966-9.164,2.121-13.119,5.229c-0.76,0.599-6.06,10.156-7.024,10.549c-0.829,0.347,0.96-7.376,0.066-6.917
	c-3.439,1.766-9.41,8.09-12.237,10.699c-0.277,0.259-0.996,8.262-1.33,8.612c-0.672,0.703-2.925-4.337-3.531-3.604
	c-8.895,10.688-11.19,19.275-8.142,25.092c-4.091,6.693-7.143,11.157-7.143,11.157"/>
</svg>
