<?xml version="1.0" encoding="utf-8"?>
<!-- Generator: Adobe Illustrator 15.0.0, SVG Export Plug-In . SVG Version: 6.00 Build 0)  -->
<!DOCTYPE svg PUBLIC "-//W3C//DTD SVG 1.0//EN" "http://www.w3.org/TR/2001/REC-SVG-20010904/DTD/svg10.dtd">
<svg version="1.0" id="Layer_1" xmlns="http://www.w3.org/2000/svg" xmlns:xlink="http://www.w3.org/1999/xlink" x="0px" y="0px"
	 width="109.753px" height="99.815px" viewBox="0 0 109.753 99.815" enable-background="new 0 0 109.753 99.815"
	 xml:space="preserve">
<path fill="none" stroke="#414042" stroke-width="2" stroke-miterlimit="10" d="M109.753,26"/>
<path fill="none" stroke="#414042" stroke-width="2" stroke-miterlimit="10" d="M42.903,48.344C42.036,46.062,41.56,43.586,41.56,41
	c0-11.412,9.251-20.664,20.664-20.664c11.412,0,20.664,9.252,20.664,20.664c0,11.413-9.251,20.664-20.664,20.664
	c-2.402,0-4.708-0.41-6.852-1.164c-1.617-0.568-3.144-1.332-4.549-2.263"/>
<path fill="none" stroke="#414042" stroke-width="2" stroke-miterlimit="10" d="M41.56,41c0,0,13.422,2.121,20.71-5.904
	c4.06,4.428,23.569,4.428,23.569,4.428s6.639,0.726,4.304,14.386c-2.335,13.659,16.606-40.706-14.437-28.562"/>
<path fill="none" stroke="#414042" stroke-width="2" stroke-miterlimit="10" d="M41.56,41c0,0,13.422,2.121,20.71-5.904
	c4.06,4.428,23.569,4.428,23.569,4.428s6.639,0.726,4.304,14.386c-2.335,13.659,16.606-40.706-14.437-28.562"/>
<path fill="none" stroke="#414042" stroke-width="2" stroke-miterlimit="10" d="M41.625,39.421c-2.369,0.104-3.96,0.104-3.96,0.104
	s-6.64,0.725-4.305,14.385c2.336,13.659-16.604-40.706,14.438-28.562"/>
</svg>
