<?xml version="1.0" encoding="utf-8"?>
<!-- Generator: Adobe Illustrator 15.0.0, SVG Export Plug-In . SVG Version: 6.00 Build 0)  -->
<!DOCTYPE svg PUBLIC "-//W3C//DTD SVG 1.0//EN" "http://www.w3.org/TR/2001/REC-SVG-20010904/DTD/svg10.dtd">
<svg version="1.0" id="Layer_1" xmlns="http://www.w3.org/2000/svg" xmlns:xlink="http://www.w3.org/1999/xlink" x="0px" y="0px"
	 width="109.753px" height="99.815px" viewBox="0 0 109.753 99.815" enable-background="new 0 0 109.753 99.815"
	 xml:space="preserve">
<path fill="none" stroke="#414042" stroke-width="2" stroke-miterlimit="10" d="M109.753,26"/>
<path fill="none" stroke="#414042" stroke-width="2" stroke-miterlimit="10" d="M70.457,57.738H51.776
	c0,3.291-3.611,3.916-6.903,3.916s-7.404-0.625-7.404-3.916H14.815c-0.658,0-1.192,0.533-1.192,1.191v18.436
	c0,0.659,0.534,1.193,1.192,1.193H74.43c0.658,0,1.192-0.534,1.192-1.193V57.097l-7.154-38.153c0-0.659-0.535-1.193-1.192-1.193
	H21.968c-0.659,0-1.192,0.534-1.192,1.193l-5.938,33.291"/>
<polyline fill="none" stroke="#414042" stroke-width="2" stroke-miterlimit="10" points="65.624,36.738 65.624,39.654 
	23.624,39.654 23.624,36.738 "/>
<polyline fill="none" stroke="#414042" stroke-width="2" stroke-miterlimit="10" points="63.629,25.738 63.629,28.654 
	25.624,28.654 25.624,25.738 "/>
<polyline fill="none" stroke="#414042" stroke-width="2" stroke-miterlimit="10" points="66.624,47.82 66.624,50.654 21.624,50.654 
	21.624,47.82 "/>
</svg>
