<?xml version="1.0" encoding="utf-8"?>
<!-- Generator: Adobe Illustrator 15.0.0, SVG Export Plug-In . SVG Version: 6.00 Build 0)  -->
<!DOCTYPE svg PUBLIC "-//W3C//DTD SVG 1.0//EN" "http://www.w3.org/TR/2001/REC-SVG-20010904/DTD/svg10.dtd">
<svg version="1.0" id="Layer_1" xmlns="http://www.w3.org/2000/svg" xmlns:xlink="http://www.w3.org/1999/xlink" x="0px" y="0px"
	 width="109.753px" height="99.815px" viewBox="0 0 109.753 99.815" enable-background="new 0 0 109.753 99.815"
	 xml:space="preserve">
<path fill="none" stroke="#414042" stroke-width="2" stroke-miterlimit="10" d="M109.753,26"/>
<path fill="none" stroke="#414042" stroke-width="2" stroke-miterlimit="10" d="M90.334,66.083H71.652
	c0,3.292-3.611,3.917-6.902,3.917c-3.293,0-7.404-0.625-7.404-3.917H34.691c-0.657,0-1.19,0.534-1.19,1.192v18.436
	c0,0.659,0.533,1.192,1.19,1.192h59.616c0.658,0,1.192-0.534,1.192-1.192V65.442l-7.154-38.154c0-0.659-0.534-1.192-1.191-1.192
	H41.846c-0.658,0-1.191,0.534-1.191,1.192L34.716,60.58"/>
<polyline fill="none" stroke="#414042" stroke-width="2" stroke-miterlimit="10" points="85.5,45.083 85.5,48 43.5,48 43.5,45.083 
	"/>
<polyline fill="none" stroke="#414042" stroke-width="2" stroke-miterlimit="10" points="83.506,34.083 83.506,37 45.5,37 
	45.5,34.083 "/>
<polyline fill="none" stroke="#414042" stroke-width="2" stroke-miterlimit="10" points="86.5,56.167 86.5,59 41.5,59 41.5,56.167 
	"/>
<line fill="none" stroke="#414042" stroke-width="2" stroke-miterlimit="10" x1="81.5" y1="72" x2="81.5" y2="81"/>
<polyline fill="none" stroke="#414042" stroke-width="2" stroke-miterlimit="10" points="86.5,78 81.5,82 76.5,78 "/>
</svg>
