<?xml version="1.0" encoding="utf-8"?>
<!-- Generator: Adobe Illustrator 15.0.0, SVG Export Plug-In . SVG Version: 6.00 Build 0)  -->
<!DOCTYPE svg PUBLIC "-//W3C//DTD SVG 1.0//EN" "http://www.w3.org/TR/2001/REC-SVG-20010904/DTD/svg10.dtd">
<svg version="1.0" id="Layer_1" xmlns="http://www.w3.org/2000/svg" xmlns:xlink="http://www.w3.org/1999/xlink" x="0px" y="0px"
	 width="109.753px" height="99.815px" viewBox="0 0 109.753 99.815" enable-background="new 0 0 109.753 99.815"
	 xml:space="preserve">
<path fill="none" stroke="#414042" stroke-width="2" stroke-miterlimit="10" d="M109.753,26"/>
<path fill="none" stroke="#414042" stroke-width="2" stroke-miterlimit="10" d="M33.278,35.555l49.895-8l-1-6.894
	c0-0.577-0.453-1.044-1.014-1.044l-50.93,9c-0.561,0-1.015,0.467-1.015,1.044v15.87c0,0.577,0.454,1.044,1.015,1.044h50.93
	c0.561,0,1.014-0.467,1.014-1.044v-5.945L33.278,39.68"/>
<path fill="none" stroke="#414042" stroke-width="2" stroke-miterlimit="10" d="M81.22,49.617c0.55,0,0.996,0.438,0.996,0.978
	v24.044c0,0.54-0.446,0.979-0.996,0.979H30.211c-0.55,0-0.995-0.438-0.995-0.979V60.617"/>
<line fill="none" stroke="#414042" stroke-width="2" stroke-miterlimit="10" x1="33.3" y1="46.7" x2="37.3" y2="39.617"/>
<line fill="none" stroke="#414042" stroke-width="2" stroke-miterlimit="10" x1="42.3" y1="46.7" x2="46.3" y2="39.617"/>
<line fill="none" stroke="#414042" stroke-width="2" stroke-miterlimit="10" x1="51.3" y1="46.7" x2="55.3" y2="39.617"/>
<line fill="none" stroke="#414042" stroke-width="2" stroke-miterlimit="10" x1="59.3" y1="46.7" x2="63.3" y2="39.617"/>
<line fill="none" stroke="#414042" stroke-width="2" stroke-miterlimit="10" x1="67.3" y1="46.7" x2="71.3" y2="39.617"/>
<line fill="none" stroke="#414042" stroke-width="2" stroke-miterlimit="10" x1="76.3" y1="46.7" x2="80.3" y2="39.617"/>
<line fill="none" stroke="#414042" stroke-width="2" stroke-miterlimit="10" x1="34.228" y1="35.595" x2="36.981" y2="27.94"/>
<line fill="none" stroke="#414042" stroke-width="2" stroke-miterlimit="10" x1="43.099" y1="34.084" x2="45.854" y2="26.429"/>
<line fill="none" stroke="#414042" stroke-width="2" stroke-miterlimit="10" x1="51.972" y1="32.573" x2="54.726" y2="24.919"/>
<line fill="none" stroke="#414042" stroke-width="2" stroke-miterlimit="10" x1="59.858" y1="31.231" x2="62.612" y2="23.577"/>
<line fill="none" stroke="#414042" stroke-width="2" stroke-miterlimit="10" x1="67.744" y1="29.888" x2="70.499" y2="22.233"/>
<line fill="none" stroke="#414042" stroke-width="2" stroke-miterlimit="10" x1="76.616" y1="28.378" x2="79.371" y2="20.722"/>
<line fill="none" stroke="#414042" stroke-width="2" stroke-miterlimit="10" x1="34.341" y1="56.617" x2="77.091" y2="56.617"/>
<line fill="none" stroke="#414042" stroke-width="2" stroke-miterlimit="10" x1="34.341" y1="66.617" x2="77.091" y2="66.617"/>
</svg>
