<?xml version="1.0" encoding="utf-8"?>
<!-- Generator: Adobe Illustrator 15.0.0, SVG Export Plug-In . SVG Version: 6.00 Build 0)  -->
<!DOCTYPE svg PUBLIC "-//W3C//DTD SVG 1.0//EN" "http://www.w3.org/TR/2001/REC-SVG-20010904/DTD/svg10.dtd">
<svg version="1.0" id="Layer_1" xmlns="http://www.w3.org/2000/svg" xmlns:xlink="http://www.w3.org/1999/xlink" x="0px" y="0px"
	 width="109.753px" height="99.815px" viewBox="0 0 109.753 99.815" enable-background="new 0 0 109.753 99.815"
	 xml:space="preserve">
<path fill="none" stroke="#414042" stroke-width="2" stroke-miterlimit="10" d="M109.753,26"/>
<g>
	<line fill="none" stroke="#414042" stroke-width="2" stroke-miterlimit="10" x1="27.445" y1="10.957" x2="40.111" y2="10.957"/>
	<path fill="none" stroke="#414042" stroke-width="2" stroke-miterlimit="10" d="M17.278,70.037c0,1.679,1.269,3.038,2.833,3.038
		h28.341c1.565,0,2.834-1.359,2.834-3.038l0.034-1.982h25.105c1.598,0,2.894-1.288,2.894-2.877V47.216
		c-8.443-2.028-12.192-16.985-14.725-25.173H51.32l-0.034-3.012c0-1.639-1.268-2.969-2.834-2.969h-28.34
		c-1.565,0-2.833,1.33-2.833,2.969"/>
	<line fill="none" stroke="#414042" stroke-width="2" stroke-miterlimit="10" x1="53.34" y1="61.037" x2="53.34" y2="64.037"/>
	<line fill="none" stroke="#414042" stroke-width="2" stroke-miterlimit="10" x1="59.278" y1="61.199" x2="59.278" y2="63.954"/>
	<line fill="none" stroke="#414042" stroke-width="2" stroke-miterlimit="10" x1="65.278" y1="61.199" x2="65.278" y2="63.954"/>
	<line fill="none" stroke="#414042" stroke-width="2" stroke-miterlimit="10" x1="71.278" y1="61.199" x2="71.278" y2="63.954"/>
	<line fill="none" stroke="#414042" stroke-width="2" stroke-miterlimit="10" x1="53.34" y1="26.107" x2="53.34" y2="28.862"/>
	<line fill="none" stroke="#414042" stroke-width="2" stroke-miterlimit="10" x1="59.278" y1="26.079" x2="59.278" y2="28.988"/>
	<path fill="none" stroke="#414042" stroke-width="2" stroke-miterlimit="10" d="M29.278,26.142h15.878
		c1.694,0,3.066,1.287,3.066,2.873v34.158c0,1.587-1.372,2.874-3.066,2.874H29.278"/>
	<line fill="none" stroke="#414042" stroke-width="2" stroke-miterlimit="10" x1="20.31" y1="21.215" x2="20.31" y2="68.037"/>
</g>
</svg>
