<?xml version="1.0" encoding="utf-8"?>
<!-- Generator: Adobe Illustrator 15.0.0, SVG Export Plug-In . SVG Version: 6.00 Build 0)  -->
<!DOCTYPE svg PUBLIC "-//W3C//DTD SVG 1.0//EN" "http://www.w3.org/TR/2001/REC-SVG-20010904/DTD/svg10.dtd">
<svg version="1.0" id="Layer_1" xmlns="http://www.w3.org/2000/svg" xmlns:xlink="http://www.w3.org/1999/xlink" x="0px" y="0px"
	 width="109.753px" height="99.815px" viewBox="0 0 109.753 99.815" enable-background="new 0 0 109.753 99.815"
	 xml:space="preserve">
<path fill="none" stroke="#414042" stroke-width="2" stroke-miterlimit="10" d="M109.753,26"/>
<path fill="none" stroke="#414042" stroke-width="2" stroke-miterlimit="10" d="M67.999,14.124v11c0,1.104-0.868,2-1.939,2H41.938
	c-1.069,0-1.938-0.896-1.938-2v-11"/>
<path fill="none" stroke="#414042" stroke-width="2" stroke-miterlimit="10" d="M39.999,74.04v-9.924
	c0-1.101,0.867-1.992,1.939-1.992h24.119c1.071,0,1.94,0.893,1.94,1.992v9.924"/>
<line fill="none" stroke="#414042" stroke-width="2" stroke-miterlimit="10" x1="29.997" y1="74.052" x2="29.997" y2="14.195"/>
<line fill="none" stroke="#414042" stroke-width="2" stroke-miterlimit="10" x1="77.934" y1="14.195" x2="77.934" y2="74.052"/>
<path fill="none" stroke="#414042" stroke-width="2" stroke-miterlimit="10" d="M66.997,53.108c0,1.112-0.938,2.016-2.097,2.016
	H42.094c-1.158,0-2.099-0.902-2.099-2.016V36.14c0-1.112,0.939-2.017,2.099-2.017H64.9c1.157,0,2.097,0.902,2.097,2.017V53.108z"/>
<line fill="none" stroke="#414042" stroke-width="2" stroke-miterlimit="10" x1="33.163" y1="17.166" x2="36.829" y2="17.166"/>
<line fill="none" stroke="#414042" stroke-width="2" stroke-miterlimit="10" x1="33.163" y1="26.166" x2="36.829" y2="26.166"/>
<line fill="none" stroke="#414042" stroke-width="2" stroke-miterlimit="10" x1="33.163" y1="35.166" x2="36.829" y2="35.166"/>
<line fill="none" stroke="#414042" stroke-width="2" stroke-miterlimit="10" x1="33.163" y1="44.166" x2="36.829" y2="44.166"/>
<line fill="none" stroke="#414042" stroke-width="2" stroke-miterlimit="10" x1="33.163" y1="53.166" x2="36.829" y2="53.166"/>
<line fill="none" stroke="#414042" stroke-width="2" stroke-miterlimit="10" x1="33.163" y1="62.166" x2="36.829" y2="62.166"/>
<line fill="none" stroke="#414042" stroke-width="2" stroke-miterlimit="10" x1="71.163" y1="17.166" x2="74.829" y2="17.166"/>
<line fill="none" stroke="#414042" stroke-width="2" stroke-miterlimit="10" x1="71.163" y1="26.166" x2="74.829" y2="26.166"/>
<line fill="none" stroke="#414042" stroke-width="2" stroke-miterlimit="10" x1="71.163" y1="35.166" x2="74.829" y2="35.166"/>
<line fill="none" stroke="#414042" stroke-width="2" stroke-miterlimit="10" x1="71.163" y1="44.166" x2="74.829" y2="44.166"/>
<line fill="none" stroke="#414042" stroke-width="2" stroke-miterlimit="10" x1="71.163" y1="53.166" x2="74.829" y2="53.166"/>
<line fill="none" stroke="#414042" stroke-width="2" stroke-miterlimit="10" x1="71.163" y1="62.166" x2="74.829" y2="62.166"/>
</svg>
