<?xml version="1.0" encoding="utf-8"?>
<!-- Generator: Adobe Illustrator 15.0.0, SVG Export Plug-In . SVG Version: 6.00 Build 0)  -->
<!DOCTYPE svg PUBLIC "-//W3C//DTD SVG 1.0//EN" "http://www.w3.org/TR/2001/REC-SVG-20010904/DTD/svg10.dtd">
<svg version="1.0" id="Layer_1" xmlns="http://www.w3.org/2000/svg" xmlns:xlink="http://www.w3.org/1999/xlink" x="0px" y="0px"
	 width="109.753px" height="99.815px" viewBox="0 0 109.753 99.815" enable-background="new 0 0 109.753 99.815"
	 xml:space="preserve">
<path fill="none" stroke="#414042" stroke-width="2" stroke-miterlimit="10" d="M109.753,26"/>
<g>
	<line fill="none" stroke="#414042" stroke-width="2" stroke-miterlimit="10" x1="39.199" y1="36.908" x2="53.674" y2="84.276"/>
	<path fill="none" stroke="#414042" stroke-width="2" stroke-miterlimit="10" d="M48.285,63.447
		c-0.494,0.151-1.016-0.127-1.166-0.621l-7.647-25.025c-0.149-0.494,0.128-1.017,0.62-1.167c0,0,6.132-8.714,20.558-6.282
		c14.424,2.433,20.557-6.282,20.557-6.282c0.493-0.15,1.016,0.127,1.166,0.621l7.647,25.025c0.15,0.494-0.127,1.016-0.62,1.167
		c0,0-9.599,9.367-20.558,6.282"/>
</g>
<line fill="none" stroke="#333333" stroke-width="2" stroke-miterlimit="10" x1="64.218" y1="84.283" x2="75.5" y2="73"/>
<line fill="none" stroke="#333333" stroke-width="2" stroke-miterlimit="10" x1="64.219" y1="73" x2="75.5" y2="84.282"/>
</svg>
