<?xml version="1.0" encoding="utf-8"?>
<!-- Generator: Adobe Illustrator 15.0.0, SVG Export Plug-In . SVG Version: 6.00 Build 0)  -->
<!DOCTYPE svg PUBLIC "-//W3C//DTD SVG 1.0//EN" "http://www.w3.org/TR/2001/REC-SVG-20010904/DTD/svg10.dtd">
<svg version="1.0" id="Layer_1" xmlns="http://www.w3.org/2000/svg" xmlns:xlink="http://www.w3.org/1999/xlink" x="0px" y="0px"
	 width="109.753px" height="99.815px" viewBox="0 0 109.753 99.815" enable-background="new 0 0 109.753 99.815"
	 xml:space="preserve">
<path fill="none" stroke="#414042" stroke-width="2" stroke-miterlimit="10" d="M109.753,26"/>
<g>
	<line fill="none" stroke="#414042" stroke-width="2" stroke-miterlimit="10" x1="33.403" y1="52.289" x2="54.339" y2="52.289"/>
	<line fill="none" stroke="#414042" stroke-width="2" stroke-miterlimit="10" x1="33.403" y1="60.193" x2="54.339" y2="60.193"/>
	<line fill="none" stroke="#414042" stroke-width="2" stroke-miterlimit="10" x1="62.473" y1="60.193" x2="83.242" y2="60.193"/>
	<line fill="none" stroke="#414042" stroke-width="2" stroke-miterlimit="10" x1="62.473" y1="52.289" x2="83.242" y2="52.289"/>
	<polyline fill="none" stroke="#414042" stroke-width="2" stroke-miterlimit="10" points="37.406,74.018 37.406,68.271 
		48.322,68.26 48.322,74.018 	"/>
	<polyline fill="none" stroke="#414042" stroke-width="2" stroke-miterlimit="10" points="68.406,74.018 68.406,68.271 
		79.322,68.26 79.322,74.018 	"/>
	<polyline fill="none" stroke="#414042" stroke-width="2" stroke-miterlimit="10" points="48.341,26.227 48.341,34.701 
		56.229,40.725 	"/>
	<path fill="none" stroke="#414042" stroke-width="2" stroke-miterlimit="10" d="M30.446,63.852V46.98
		c0-1.181,0.967-2.139,2.161-2.139c0,0,4.841-1.602,4.841-10.142c0-8.538,1.589-14.275,1.589-14.275c0-1.18,1.244-2.136,2.208-2.136
		c3.036,0,2.527,3.979,17.203,3.979s13.701-3.979,17.037-3.979c0.963,0,2.209,0.956,2.209,2.136c0,0,1.671,5.024,1.671,14.275
		s4.759,10.142,4.759,10.142c1.193,0,2.161,0.958,2.161,2.139v31.17c0,1.182-0.968,2.141-2.161,2.141H32.607
		c-1.193,0-2.161-0.959-2.161-2.141"/>
	<polyline fill="none" stroke="#414042" stroke-width="2" stroke-miterlimit="10" points="58.364,77.143 58.364,43.707 
		68.364,33.633 68.364,26.227 	"/>
</g>
</svg>
