<?xml version="1.0" encoding="utf-8"?>
<!-- Generator: Adobe Illustrator 15.0.0, SVG Export Plug-In . SVG Version: 6.00 Build 0)  -->
<!DOCTYPE svg PUBLIC "-//W3C//DTD SVG 1.0//EN" "http://www.w3.org/TR/2001/REC-SVG-20010904/DTD/svg10.dtd">
<svg version="1.0" id="Layer_1" xmlns="http://www.w3.org/2000/svg" xmlns:xlink="http://www.w3.org/1999/xlink" x="0px" y="0px"
	 width="109.753px" height="99.815px" viewBox="0 0 109.753 99.815" enable-background="new 0 0 109.753 99.815"
	 xml:space="preserve">
<path fill="none" stroke="#414042" stroke-width="2" stroke-miterlimit="10" d="M109.753,26"/>
<g>
	<path fill="none" stroke="#333333" stroke-width="2" stroke-miterlimit="10" d="M40.48,55.833v-24.5
		c0-0.737,0.596-1.333,1.332-1.333h55.375c0.735,0,1.334,0.596,1.334,1.333v31.292c0,0.736-0.599,1.333-1.334,1.333H35.833
		c-0.736,0-1.334-0.597-1.334-1.333V19.333c0-0.737,0.598-1.333,1.334-1.333h21.979c0.735,0,1.334,0.596,1.334,1.333l5.334,5.333"/>
	<g>
		<line fill="none" stroke="#333333" stroke-width="2" stroke-miterlimit="10" x1="68.5" y1="57.958" x2="68.5" y2="45.125"/>
		<line fill="none" stroke="#333333" stroke-width="2" stroke-miterlimit="10" x1="75.5" y1="45.958" x2="68.5" y2="39.958"/>
		<line fill="none" stroke="#333333" stroke-width="2" stroke-miterlimit="10" x1="61.5" y1="45.957" x2="68.5" y2="39.958"/>
	</g>
</g>
</svg>
