<?xml version="1.0" encoding="utf-8"?>
<!-- Generator: Adobe Illustrator 15.0.0, SVG Export Plug-In . SVG Version: 6.00 Build 0)  -->
<!DOCTYPE svg PUBLIC "-//W3C//DTD SVG 1.0//EN" "http://www.w3.org/TR/2001/REC-SVG-20010904/DTD/svg10.dtd">
<svg version="1.0" id="Layer_1" xmlns="http://www.w3.org/2000/svg" xmlns:xlink="http://www.w3.org/1999/xlink" x="0px" y="0px"
	 width="109.753px" height="99.815px" viewBox="0 0 109.753 99.815" enable-background="new 0 0 109.753 99.815"
	 xml:space="preserve">
<path fill="none" stroke="#414042" stroke-width="2" stroke-miterlimit="10" d="M109.753,26"/>
<g>
	<g>
		<path fill="none" stroke="#333333" stroke-width="2" stroke-miterlimit="10" d="M38.459,55.833v-24.5
			c0-0.737,0.596-1.333,1.332-1.333h55.375c0.736,0,1.334,0.596,1.334,1.333v31.292c0,0.736-0.598,1.333-1.334,1.333H33.812
			c-0.735,0-1.334-0.597-1.334-1.333V19.333c0-0.737,0.599-1.333,1.334-1.333h21.979c0.736,0,1.334,0.596,1.334,1.333l5.334,5.333"
			/>
	</g>
	<path fill="none" stroke="#333333" stroke-width="2" stroke-miterlimit="10" d="M60.5,46.977v-0.731
		c0-0.136,0.107-0.244,0.24-0.244h1.025h10.338h1.067c0.132,0,0.239,0.108,0.239,0.244v10.496c0,0.135-0.107,0.244-0.239,0.244
		H60.738c-0.133,0-0.239-0.109-0.239-0.244v-6.646"/>
	<path fill="none" stroke="#333333" stroke-width="2" stroke-miterlimit="10" d="M62.5,44v-3.525c0-2.472,2.02-4.475,4.511-4.475
		l0,0c2.491,0,4.511,2.003,4.511,4.475V44"/>
</g>
</svg>
