<?xml version="1.0" encoding="utf-8"?>
<!-- Generator: Adobe Illustrator 15.0.0, SVG Export Plug-In . SVG Version: 6.00 Build 0)  -->
<!DOCTYPE svg PUBLIC "-//W3C//DTD SVG 1.0//EN" "http://www.w3.org/TR/2001/REC-SVG-20010904/DTD/svg10.dtd">
<svg version="1.0" id="Layer_1" xmlns="http://www.w3.org/2000/svg" xmlns:xlink="http://www.w3.org/1999/xlink" x="0px" y="0px"
	 width="109.753px" height="99.815px" viewBox="0 0 109.753 99.815" enable-background="new 0 0 109.753 99.815"
	 xml:space="preserve">
<path fill="none" stroke="#414042" stroke-width="2" stroke-miterlimit="10" d="M109.753,26"/>
<path fill="none" stroke="#414042" stroke-width="2" stroke-miterlimit="10" d="M40.5,63.812v-24.5c0-0.737,0.596-1.334,1.332-1.334
	h53.375c0.736,0,1.334,0.597,1.334,1.334v31.291c0,0.736-0.598,1.334-1.334,1.334H35.853c-0.736,0-1.333-0.598-1.333-1.334V27.312
	c0-0.737,0.598-1.334,1.333-1.334h21.979c0.736,0,1.334,0.597,1.334,1.334l5.334,5.332"/>
<g>
	<path fill="#414042" d="M72.424,63.996c-1.583,0.836-3.196,1.154-5.123,1.154c-4.723,0-8.724-3.456-8.724-9.015
		c0-5.928,4.117-11.082,10.508-11.082c5.008,0,8.349,3.543,8.349,8.351c0,4.316-2.42,6.851-5.096,6.851
		c-1.152,0-2.217-0.75-2.159-2.533h-0.087c-1.007,1.699-2.331,2.533-4.059,2.533c-1.67,0-3.109-1.353-3.109-3.628
		c0-3.57,2.821-6.821,6.822-6.821c1.209,0,2.332,0.259,3.081,0.604l-0.979,5.209c-0.433,2.189-0.087,3.196,0.862,3.225
		c1.469,0.059,3.109-1.93,3.109-5.238c0-4.203-2.504-7.227-6.966-7.227c-4.692,0-8.636,3.743-8.636,9.587
		c0,4.808,3.139,7.801,7.399,7.801c1.641,0,3.166-0.345,4.346-1.008L72.424,63.996z M70.841,51.562
		c-0.288-0.115-0.778-0.229-1.439-0.229c-2.534,0-4.577,2.389-4.577,5.18c0,1.271,0.634,2.189,1.899,2.189
		c1.669,0,3.196-2.131,3.513-3.917L70.841,51.562z"/>
</g>
</svg>
