<?xml version="1.0" encoding="utf-8"?>
<!-- Generator: Adobe Illustrator 15.0.0, SVG Export Plug-In . SVG Version: 6.00 Build 0)  -->
<!DOCTYPE svg PUBLIC "-//W3C//DTD SVG 1.0//EN" "http://www.w3.org/TR/2001/REC-SVG-20010904/DTD/svg10.dtd">
<svg version="1.0" id="Layer_1" xmlns="http://www.w3.org/2000/svg" xmlns:xlink="http://www.w3.org/1999/xlink" x="0px" y="0px"
	 width="109.753px" height="99.815px" viewBox="0 0 109.753 99.815" enable-background="new 0 0 109.753 99.815"
	 xml:space="preserve">
<path fill="none" stroke="#414042" stroke-width="2" stroke-miterlimit="10" d="M109.753,26"/>
<path fill="none" stroke="#414042" stroke-width="2" stroke-miterlimit="10" d="M42.712,59.812v-24.5
	c0-0.737,0.596-1.334,1.332-1.334h53.375c0.736,0,1.334,0.597,1.334,1.334v31.291c0,0.736-0.598,1.334-1.334,1.334H38.065
	c-0.736,0-1.334-0.598-1.334-1.334V23.312c0-0.737,0.598-1.334,1.334-1.334h21.979c0.736,0,1.334,0.597,1.334,1.334l5.334,5.332"/>
<line fill="none" stroke="#414042" stroke-width="2" stroke-miterlimit="10" x1="76.69" y1="53.041" x2="62.856" y2="53.042"/>
<line fill="none" stroke="#414042" stroke-width="2" stroke-miterlimit="10" x1="69.71" y1="46.073" x2="69.708" y2="60"/>
</svg>
