<?xml version="1.0" encoding="utf-8"?>
<!-- Generator: Adobe Illustrator 15.0.0, SVG Export Plug-In . SVG Version: 6.00 Build 0)  -->
<!DOCTYPE svg PUBLIC "-//W3C//DTD SVG 1.0//EN" "http://www.w3.org/TR/2001/REC-SVG-20010904/DTD/svg10.dtd">
<svg version="1.0" id="Layer_1" xmlns="http://www.w3.org/2000/svg" xmlns:xlink="http://www.w3.org/1999/xlink" x="0px" y="0px"
	 width="109.753px" height="99.815px" viewBox="0 0 109.753 99.815" enable-background="new 0 0 109.753 99.815"
	 xml:space="preserve">
<path fill="none" stroke="#414042" stroke-width="2" stroke-miterlimit="10" d="M109.753,26"/>
<g>
	<path fill="none" stroke="#333333" stroke-width="2" stroke-linejoin="round" stroke-miterlimit="10" d="M63.328,52.992
		c-1.018-0.181-2.146,0.133-2.729,0.468c-2.091,1.208-2.703,2.691-1.819,4.223c0.884,1.53,3.294,1.792,5.386,0.585
		c1.665-0.963,2.355-2.555,2.355-3.994l-0.018-0.116V37.803c0,0,14.651,3.604,6.516,14.057"/>
	<path fill="none" stroke="#333333" stroke-width="2" stroke-miterlimit="10" d="M39.5,56.812v-24.5
		c0-0.737,0.596-1.334,1.332-1.334h53.375c0.736,0,1.334,0.597,1.334,1.334v31.291c0,0.736-0.598,1.334-1.334,1.334H34.854
		c-0.736,0-1.334-0.598-1.334-1.334V20.312c0-0.737,0.599-1.334,1.334-1.334h20.979c0.736,0,1.334,0.597,1.334,1.334l5.334,5.332"/>
</g>
</svg>
