<?xml version="1.0" encoding="utf-8"?>
<!-- Generator: Adobe Illustrator 15.0.0, SVG Export Plug-In . SVG Version: 6.00 Build 0)  -->
<!DOCTYPE svg PUBLIC "-//W3C//DTD SVG 1.0//EN" "http://www.w3.org/TR/2001/REC-SVG-20010904/DTD/svg10.dtd">
<svg version="1.0" id="Layer_1" xmlns="http://www.w3.org/2000/svg" xmlns:xlink="http://www.w3.org/1999/xlink" x="0px" y="0px"
	 width="109.753px" height="99.815px" viewBox="0 0 109.753 99.815" enable-background="new 0 0 109.753 99.815"
	 xml:space="preserve">
<path fill="none" stroke="#414042" stroke-width="2" stroke-miterlimit="10" d="M109.753,26"/>
<path fill="none" stroke="#414042" stroke-width="2" stroke-miterlimit="10" d="M43.979,63.198
	c-2.247,3.726-0.913,8.479,2.981,10.636c3.89,2.146,8.871,0.872,11.118-2.851c0.746-1.235,2.425-7.902,5.422-15.655
	c3.002,7.752,4.682,14.422,5.427,15.655c2.242,3.723,7.224,5.001,11.118,2.851c3.896-2.151,5.225-6.911,2.978-10.634
	c-0.735-1.23-5.894-5.911-11.386-12.226c7.714,1.359,13.877,3.175,15.235,3.175c4.215,0,7.628-3.418,7.628-7.628
	c0-4.215-3.414-7.628-7.628-7.628c-1.37,0-7.613,1.841-15.404,3.2c5.555-6.411,10.804-11.176,11.555-12.416
	c2.247-3.723,0.918-8.486-2.978-10.634c-3.895-2.148-8.876-0.875-11.123,2.848c-0.746,1.232-2.424,7.902-5.422,15.652
	c-2.998-7.75-4.671-14.42-5.417-15.652c-2.251-3.723-7.232-4.996-11.123-2.848c-3.896,2.153-5.229,6.911-2.978,10.634
	c0.746,1.24,6,6.005,11.555,12.416c-7.795-1.359-14.039-3.2-15.409-3.2c-4.215,0-7.628,3.413-7.628,7.628
	c0,4.21,3.413,7.628,7.628,7.628c1.364,0,7.526-1.818,15.241-3.175"/>
</svg>
