<?xml version="1.0" encoding="utf-8"?>
<!-- Generator: Adobe Illustrator 15.0.0, SVG Export Plug-In . SVG Version: 6.00 Build 0)  -->
<!DOCTYPE svg PUBLIC "-//W3C//DTD SVG 1.0//EN" "http://www.w3.org/TR/2001/REC-SVG-20010904/DTD/svg10.dtd">
<svg version="1.0" id="Layer_1" xmlns="http://www.w3.org/2000/svg" xmlns:xlink="http://www.w3.org/1999/xlink" x="0px" y="0px"
	 width="109.753px" height="99.815px" viewBox="0 0 109.753 99.815" enable-background="new 0 0 109.753 99.815"
	 xml:space="preserve">
<path fill="none" stroke="#414042" stroke-width="2" stroke-miterlimit="10" d="M109.753,26"/>
<g>
	<g>
		<path fill="none" stroke="#333333" stroke-width="2" stroke-miterlimit="10" d="M31.5,66.85v-9.319
			c0-16.84,13.906-30.541,31-30.541s31,13.701,31,30.541V86.01c0,1.046-0.629,1.991-1.596,2.391
			c-0.966,0.399-2.078,0.183-2.82-0.562l-8.002-7.999l-5.984,7.943c-0.449,0.597-1.133,0.965-1.873,1.021
			c-0.064,0.005-0.131,0.01-0.193,0.01c-0.675,0-1.326-0.263-1.812-0.737l-8.649-8.479l-8.449,8.408
			c-0.527,0.524-1.252,0.799-1.993,0.748c-0.741-0.052-1.427-0.414-1.88-1.001l-6.11-7.913l-8.242,8.023
			c-0.747,0.729-1.854,0.931-2.812,0.531c-0.959-0.404-1.582-1.345-1.582-2.386"/>
	</g>
	<path fill="none" stroke="#333333" stroke-width="2" stroke-miterlimit="10" d="M54.536,54.831c0,2.755-2.253,4.992-5.036,4.992
		c-2.778,0-5.033-2.237-5.033-4.992c0-2.759,2.255-4.994,5.033-4.994C52.283,49.836,54.536,52.073,54.536,54.831z"/>
	<path fill="none" stroke="#333333" stroke-width="2" stroke-miterlimit="10" d="M80.422,54.831c0,2.755-2.204,4.992-4.924,4.992
		c-2.717,0-4.924-2.237-4.924-4.992c0-2.759,2.207-4.994,4.924-4.994C78.218,49.836,80.422,52.073,80.422,54.831z"/>
</g>
</svg>
