<?xml version="1.0" encoding="utf-8"?>
<!-- Generator: Adobe Illustrator 15.0.0, SVG Export Plug-In . SVG Version: 6.00 Build 0)  -->
<!DOCTYPE svg PUBLIC "-//W3C//DTD SVG 1.0//EN" "http://www.w3.org/TR/2001/REC-SVG-20010904/DTD/svg10.dtd">
<svg version="1.0" id="Layer_1" xmlns="http://www.w3.org/2000/svg" xmlns:xlink="http://www.w3.org/1999/xlink" x="0px" y="0px"
	 width="109.753px" height="99.815px" viewBox="0 0 109.753 99.815" enable-background="new 0 0 109.753 99.815"
	 xml:space="preserve">
<path fill="none" stroke="#414042" stroke-width="2" stroke-miterlimit="10" d="M109.753,26"/>
<path fill="none" stroke="#414042" stroke-width="2" stroke-miterlimit="10" d="M41.5,22v-5.896c0-0.552,0.448-1,1-1h50
	c0.552,0,1,0.448,1,1V76c0,0.552-0.448,1-1,1h-50c-0.552,0-1-0.448-1-1V33.125"/>
<line fill="none" stroke="#414042" stroke-width="2" stroke-miterlimit="10" x1="46.5" y1="46.052" x2="88.417" y2="46.052"/>
<polyline fill="none" stroke="#414042" stroke-width="2" stroke-miterlimit="10" points="74.5,18 74.5,22 60.5,22 60.5,18 "/>
<polyline fill="none" stroke="#414042" stroke-width="2" stroke-miterlimit="10" points="60.5,73 60.5,69 74.5,69 74.5,73 "/>
<path fill="none" stroke="#414042" stroke-width="2" stroke-miterlimit="10" d="M78.061,49.089C76.727,53.66,72.503,57,67.5,57
	c-4.997,0-9.216-3.332-10.556-7.896"/>
<path fill="none" stroke="#414042" stroke-width="2" stroke-miterlimit="10" d="M56.932,42.938C58.258,38.353,62.488,35,67.5,35
	c5.017,0,9.249,3.358,10.571,7.95"/>
</svg>
