<?xml version="1.0" encoding="utf-8"?>
<!-- Generator: Adobe Illustrator 15.0.0, SVG Export Plug-In . SVG Version: 6.00 Build 0)  -->
<!DOCTYPE svg PUBLIC "-//W3C//DTD SVG 1.0//EN" "http://www.w3.org/TR/2001/REC-SVG-20010904/DTD/svg10.dtd">
<svg version="1.0" id="Layer_1" xmlns="http://www.w3.org/2000/svg" xmlns:xlink="http://www.w3.org/1999/xlink" x="0px" y="0px"
	 width="109.753px" height="99.815px" viewBox="0 0 109.753 99.815" enable-background="new 0 0 109.753 99.815"
	 xml:space="preserve">
<path fill="none" stroke="#414042" stroke-width="2" stroke-miterlimit="10" d="M109.753,26"/>
<g>
	<path fill="none" stroke="#414042" stroke-width="2" stroke-miterlimit="10" d="M42.073,86c-1.423,0-2.573-1.155-2.573-2.583
		c0-3.351,2.409-5.636,4.738-7.844c1.27-1.203,2.584-2.449,3.426-3.802c2.229-3.703,4.811-8.988,4.811-16.771
		c0-5.47-0.325-7.447-0.483-8.083c-3.04-2.473-4.579-6.08-4.579-10c0-0.967,0.13-1.968,0.396-3.063
		C49.221,28.052,54.158,24,60.086,24c5.979,0,11.116,4.087,12.496,9.945c0.249,1.054,0.37,2.026,0.37,2.972
		c0,3.859-1.694,7.437-4.667,9.906c-0.163,0.639-0.479,2.597-0.479,8.177c0,8.075,2.693,13.451,4.719,16.794
		c0.523,0.803,1.663,1.899,2.768,2.96c2.521,2.429,5.381,5.182,5.381,8.663c0,1.428-1.15,2.583-2.573,2.583H58.5"/>
</g>
</svg>
