<?xml version="1.0" encoding="utf-8"?>
<!-- Generator: Adobe Illustrator 15.0.0, SVG Export Plug-In . SVG Version: 6.00 Build 0)  -->
<!DOCTYPE svg PUBLIC "-//W3C//DTD SVG 1.0//EN" "http://www.w3.org/TR/2001/REC-SVG-20010904/DTD/svg10.dtd">
<svg version="1.0" id="Layer_1" xmlns="http://www.w3.org/2000/svg" xmlns:xlink="http://www.w3.org/1999/xlink" x="0px" y="0px"
	 width="109.753px" height="99.815px" viewBox="0 0 109.753 99.815" enable-background="new 0 0 109.753 99.815"
	 xml:space="preserve">
<path fill="none" stroke="#414042" stroke-width="2" stroke-miterlimit="10" d="M109.753,26"/>
<g>
	<path fill="none" stroke="#414042" stroke-width="2" stroke-miterlimit="10" d="M37.753,39V29c0-0.553,0.448-1,1-1h58
		c0.552,0,1,0.447,1,1v10"/>
	<path fill="none" stroke="#414042" stroke-width="2" stroke-miterlimit="10" d="M95.753,37.083v30.875c0,0.553-0.448,1-1,1h-54
		c-0.552,0-1-0.447-1-1V49"/>
	<line fill="none" stroke="#414042" stroke-width="2" stroke-miterlimit="10" x1="41.878" y1="48.979" x2="93.628" y2="48.979"/>
	<line fill="none" stroke="#414042" stroke-width="2" stroke-miterlimit="10" x1="67.753" y1="30.167" x2="67.753" y2="69.958"/>
	<path fill="none" stroke="#414042" stroke-width="2" stroke-miterlimit="10" d="M79.432,15.82c-1.7,3.196-7.112,10.187-8.684,9.203
		c-1.569-0.98,1.297-9.562,2.998-12.76c1.7-3.194,4.352-4.993,5.921-4.011C81.237,9.237,81.132,12.624,79.432,15.82z M56.016,15.82
		c1.7,3.196,7.113,10.187,8.685,9.203c1.568-0.98-1.297-9.562-2.998-12.76c-1.701-3.194-4.353-4.993-5.922-4.011
		C54.211,9.237,54.315,12.624,56.016,15.82z"/>
</g>
</svg>
