<?xml version="1.0" encoding="utf-8"?>
<!-- Generator: Adobe Illustrator 15.0.0, SVG Export Plug-In . SVG Version: 6.00 Build 0)  -->
<!DOCTYPE svg PUBLIC "-//W3C//DTD SVG 1.0//EN" "http://www.w3.org/TR/2001/REC-SVG-20010904/DTD/svg10.dtd">
<svg version="1.0" id="Layer_1" xmlns="http://www.w3.org/2000/svg" xmlns:xlink="http://www.w3.org/1999/xlink" x="0px" y="0px"
	 width="109.753px" height="99.815px" viewBox="0 0 109.753 99.815" enable-background="new 0 0 109.753 99.815"
	 xml:space="preserve">
<path fill="none" stroke="#414042" stroke-width="2" stroke-miterlimit="10" d="M109.753,26"/>
<g>
	<path fill="none" stroke="#414042" stroke-width="2" stroke-miterlimit="10" d="M36.537,47.667c0,0.552-0.447,1-1,1h-2
		c-0.553,0-1-0.448-1-1v-18c0-0.552,0.447-1,1-1h2c0.553,0,1,0.448,1,1"/>
	<path fill="none" stroke="#414042" stroke-width="2" stroke-miterlimit="10" d="M29.537,44.667c0,0.552-0.447,1-1,1h-1
		c-0.553,0-1-0.448-1-1v-12c0-0.552,0.447-1,1-1h1c0.553,0,1,0.448,1,1"/>
	<path fill="none" stroke="#414042" stroke-width="2" stroke-miterlimit="10" d="M72.537,29.667c0-0.552,0.447-1,1-1h2
		c0.553,0,1,0.448,1,1v18c0,0.552-0.447,1-1,1h-2c-0.553,0-1-0.448-1-1"/>
	<path fill="none" stroke="#414042" stroke-width="2" stroke-miterlimit="10" d="M79.537,32.667c0-0.552,0.447-1,1-1h1
		c0.553,0,1,0.448,1,1v12c0,0.552-0.447,1-1,1h-1c-0.553,0-1-0.448-1-1"/>
	<line fill="none" stroke="#414042" stroke-width="2" stroke-miterlimit="10" x1="36.621" y1="38.667" x2="72.537" y2="38.667"/>
	<line fill="none" stroke="#414042" stroke-width="2" stroke-miterlimit="10" x1="82.662" y1="38.667" x2="85.349" y2="38.667"/>
	<line fill="none" stroke="#414042" stroke-width="2" stroke-miterlimit="10" x1="23.662" y1="38.667" x2="26.349" y2="38.667"/>
</g>
</svg>
