<?xml version="1.0" encoding="utf-8"?>
<!-- Generator: Adobe Illustrator 15.0.0, SVG Export Plug-In . SVG Version: 6.00 Build 0)  -->
<!DOCTYPE svg PUBLIC "-//W3C//DTD SVG 1.0//EN" "http://www.w3.org/TR/2001/REC-SVG-20010904/DTD/svg10.dtd">
<svg version="1.0" id="Layer_1" xmlns="http://www.w3.org/2000/svg" xmlns:xlink="http://www.w3.org/1999/xlink" x="0px" y="0px"
	 width="109.753px" height="99.815px" viewBox="0 0 109.753 99.815" enable-background="new 0 0 109.753 99.815"
	 xml:space="preserve">
<path fill="none" stroke="#414042" stroke-width="2" stroke-miterlimit="10" d="M109.753,26"/>
<path fill="none" stroke="#414042" stroke-width="2" stroke-miterlimit="10" d="M51.024,33.917c0,0-3.803,3.271-9.9,12.728
	c-6.099,9.459-14.459,11.171-12.338,13.291c2.122,2.121,6.01,6.011,7.689,7.689c1.68,1.68,6.55-0.165,13.061-18.078
	c5.431-14.941,14.982-14.982,14.982-14.982l0.24,0.23C68.688,38.724,68.51,49.9,68.51,49.9c0.867,0.866,8.991-4.277,12.919-8.205
	c3.93-3.93,9.161-12.142,8.294-13.009c0,0-11.784,0.785-15.714-3.144c-3.928-3.929-7.855-7.856-7.855-7.856
	c-0.867-0.868-2.274-0.868-3.144,0l-6.107,6.108c-0.869,0.868-1.045,2.049-0.177,2.917"/>
</svg>
