<?xml version="1.0" encoding="utf-8"?>
<!-- Generator: Adobe Illustrator 15.0.0, SVG Export Plug-In . SVG Version: 6.00 Build 0)  -->
<!DOCTYPE svg PUBLIC "-//W3C//DTD SVG 1.0//EN" "http://www.w3.org/TR/2001/REC-SVG-20010904/DTD/svg10.dtd">
<svg version="1.0" id="Layer_1" xmlns="http://www.w3.org/2000/svg" xmlns:xlink="http://www.w3.org/1999/xlink" x="0px" y="0px"
	 width="109.753px" height="99.815px" viewBox="0 0 109.753 99.815" enable-background="new 0 0 109.753 99.815"
	 xml:space="preserve">
<path fill="none" stroke="#414042" stroke-width="2" stroke-miterlimit="10" d="M109.753,26"/>
<g>
	<path fill="none" stroke="#414042" stroke-width="2" stroke-miterlimit="10" d="M40.969,31.424
		c-5.824,5.277-9.584,12.813-9.848,20.644H27.92c-2.178,0,4.268,10.002,4.268,10.002c4.456,6.866,15.771,12.998,27.283,12.998
		c11.514,0,22.826-6.132,27.282-12.998c0,0,6.446-10.002,4.269-10.002H87.82c-0.389-11.516-8.338-22.396-19.294-26.391"/>
	<path fill="none" stroke="#414042" stroke-width="2" stroke-miterlimit="10" d="M83.657,56.697c0,4.01-11.054,7.259-24.687,7.259
		s-24.686-3.249-24.686-7.259"/>
	<path fill="none" stroke="#414042" stroke-width="2" stroke-miterlimit="10" d="M53.49,45.984V24.597
		c0-1.434,1.54-2.598,3.438-2.598h5.165c1.898,0,3.439,1.164,3.439,2.598v21.388"/>
	<path fill="none" stroke="#414042" stroke-width="2" stroke-miterlimit="10" d="M69.479,61.551c0,1.298-0.989,2.353-2.211,2.353
		H51.692c-1.223,0-2.212-1.054-2.212-2.353v-3.133c0-1.298,0.99-2.351,2.212-2.351h15.575c1.223,0,2.211,1.053,2.211,2.351V61.551z"
		/>
	<ellipse fill="none" stroke="#414042" stroke-width="2" stroke-miterlimit="10" cx="33.951" cy="55.484" rx="2.39" ry="2.5"/>
	<ellipse fill="none" stroke="#414042" stroke-width="2" stroke-miterlimit="10" cx="83.951" cy="55.484" rx="2.39" ry="2.5"/>
</g>
</svg>
