<?xml version="1.0" encoding="utf-8"?>
<!-- Generator: Adobe Illustrator 15.0.0, SVG Export Plug-In . SVG Version: 6.00 Build 0)  -->
<!DOCTYPE svg PUBLIC "-//W3C//DTD SVG 1.0//EN" "http://www.w3.org/TR/2001/REC-SVG-20010904/DTD/svg10.dtd">
<svg version="1.0" id="Layer_1" xmlns="http://www.w3.org/2000/svg" xmlns:xlink="http://www.w3.org/1999/xlink" x="0px" y="0px"
	 width="109.753px" height="99.815px" viewBox="0 0 109.753 99.815" enable-background="new 0 0 109.753 99.815"
	 xml:space="preserve">
<path fill="none" stroke="#414042" stroke-width="2" stroke-miterlimit="10" d="M109.753,26"/>
<g>
	<path fill="none" stroke="#333333" stroke-width="2" stroke-miterlimit="10" d="M65.5,81.998h20.83c4.129,0,7.17-2.994,7.17-6.676
		l-1-4.264c0-2.834-0.676-5.256-3.479-6.223c0.795-2.104-0.037-4.439-0.849-6.71c-0.444-1.247-0.904-2.54-1.16-3.852l-0.231-1.212
		c-0.5-2.641-1.017-5.369-2.01-8.004c-0.229-0.609-0.556-1.345-0.914-2.151c-0.64-1.444-0.881-6.461-0.449-6.466
		c0.053,0.146,0.107,0.314,0.149,0.458c0.912,2.804,1.694,6.04,8.167,7.651c0.487,0.124,1.727,0.076,2.225,0.076
		c2.051,0,4.049-1.068,5.481-2.931c1.265-1.642,1.986-3.761,1.986-5.812c0-3.64-2.229-6.908-5.524-8.12
		c-0.816-0.308-1.666-0.458-2.595-0.458l-0.332,0.006c-0.979,0.036-1.857,0.312-2.637,0.556c-0.49,0.153-1.049,0.325-1.291,0.355
		c-3.582-2.051-8.422-3.227-13.279-3.227c-7.625,0-13.919,2.728-17.268,7.481c-1.82,2.582-2.425,5.502-2.957,8.076
		c-0.444,2.146-0.864,4.179-1.912,5.754c-1.001,1.505-2.132,2.742-3.226,3.938c-2.843,3.116-5.783,6.335-5.596,13.203
		c0.009,0.328,0.049,0.745,0.148,1.199c-3.117,0.809-4.404,3.372-4.404,6.406l-1,4.264c0,3.682,3.36,6.676,7.494,6.676h1.625"/>
	<line fill="none" stroke="#333333" stroke-width="2" stroke-miterlimit="10" x1="49.625" y1="65.031" x2="84.438" y2="65.031"/>
</g>
</svg>
