<?xml version="1.0" encoding="utf-8"?>
<!-- Generator: Adobe Illustrator 15.0.0, SVG Export Plug-In . SVG Version: 6.00 Build 0)  -->
<!DOCTYPE svg PUBLIC "-//W3C//DTD SVG 1.0//EN" "http://www.w3.org/TR/2001/REC-SVG-20010904/DTD/svg10.dtd">
<svg version="1.0" id="Layer_1" xmlns="http://www.w3.org/2000/svg" xmlns:xlink="http://www.w3.org/1999/xlink" x="0px" y="0px"
	 width="109.753px" height="99.815px" viewBox="0 0 109.753 99.815" enable-background="new 0 0 109.753 99.815"
	 xml:space="preserve">
<path fill="none" stroke="#414042" stroke-width="2" stroke-miterlimit="10" d="M109.753,26"/>
<g>
	<path fill="none" stroke="#414042" stroke-width="2" stroke-miterlimit="10" d="M63.621,51.102L29.014,85.707
		c-0.389,0.391-1.021,0.391-1.414,0l-2.827-2.828c-0.392-0.391-0.392-1.023,0-1.414l23.097-23.097"/>
	<path fill="none" stroke="#414042" stroke-width="2" stroke-miterlimit="10" d="M72.105,34.131l0.707-0.708
		c0.391-0.391,1.022-0.391,1.414,0l2.83,2.829c0.391,0.392,0.391,1.023,0,1.414l-0.707,0.707"/>
	<path fill="none" stroke="#414042" stroke-width="2" stroke-miterlimit="10" d="M68.57,48.979
		c-0.392,0.392-0.971,0.443-1.295,0.119l-5.896-5.894c-0.323-0.325-0.271-0.905,0.119-1.296l6.363-6.364
		c0.391-0.39,0.971-0.442,1.297-0.117l5.894,5.894c0.325,0.324,0.272,0.906-0.117,1.296L68.57,48.979z"/>
	<path fill="none" stroke="#414042" stroke-width="2" stroke-miterlimit="10" d="M72.012,51.194
		c17.152,18.751,11.797,24.974,12.428,24.343c5.412-5.412,2.777-17.041-7.559-29.212"/>
	<path fill="none" stroke="#414042" stroke-width="2" stroke-miterlimit="10" d="M64.154,33.598
		c-12.17-10.336-23.801-12.971-29.213-7.557c-0.631,0.629,5.592-4.727,24.344,12.426"/>
</g>
</svg>
