<?xml version="1.0" encoding="utf-8"?>
<!-- Generator: Adobe Illustrator 15.0.0, SVG Export Plug-In . SVG Version: 6.00 Build 0)  -->
<!DOCTYPE svg PUBLIC "-//W3C//DTD SVG 1.0//EN" "http://www.w3.org/TR/2001/REC-SVG-20010904/DTD/svg10.dtd">
<svg version="1.0" id="Layer_1" xmlns="http://www.w3.org/2000/svg" xmlns:xlink="http://www.w3.org/1999/xlink" x="0px" y="0px"
	 width="109.753px" height="99.815px" viewBox="0 0 109.753 99.815" enable-background="new 0 0 109.753 99.815"
	 xml:space="preserve">
<path fill="none" stroke="#414042" stroke-width="2" stroke-miterlimit="10" d="M109.753,26"/>
<path fill="none" stroke="#414042" stroke-width="2" stroke-miterlimit="10" d="M75.5,42v39c0,1.104-0.896,2-2,2h-41
	c-1.104,0-2-0.896-2-2V23c0-1.104,0.896-2,2-2h41c1.104,0,2,0.896,2,2"/>
<path fill="none" stroke="#414042" stroke-width="2" stroke-miterlimit="10" d="M45.5,72h-7.061c-1.071,0-1.939-0.896-1.939-2V28"/>
<path fill="none" stroke="#414042" stroke-width="2" stroke-miterlimit="10" d="M69.5,28v42c0,1.104-0.868,2-1.939,2h-6.894"/>
<path fill="none" stroke="#414042" stroke-width="2" stroke-miterlimit="10" d="M36.5,72V30c0-1.104,0.868-2,1.939-2h29.121
	c1.071,0,1.939,0.896,1.939,2v42"/>
<path fill="none" stroke="#414042" stroke-width="2" stroke-miterlimit="10" d="M56.9,78.801c-1.564,1.564-3.975,1.688-5.385,0.277
	c-1.409-1.41-1.285-3.82,0.278-5.384"/>
</svg>
