<?xml version="1.0" encoding="utf-8"?>
<!-- Generator: Adobe Illustrator 15.0.0, SVG Export Plug-In . SVG Version: 6.00 Build 0)  -->
<!DOCTYPE svg PUBLIC "-//W3C//DTD SVG 1.0//EN" "http://www.w3.org/TR/2001/REC-SVG-20010904/DTD/svg10.dtd">
<svg version="1.0" id="Layer_1" xmlns="http://www.w3.org/2000/svg" xmlns:xlink="http://www.w3.org/1999/xlink" x="0px" y="0px"
	 width="109.753px" height="99.815px" viewBox="0 0 109.753 99.815" enable-background="new 0 0 109.753 99.815"
	 xml:space="preserve">
<path fill="none" stroke="#414042" stroke-width="2" stroke-miterlimit="10" d="M109.753,26"/>
<path fill="none" stroke="#414042" stroke-width="2" stroke-miterlimit="10" d="M45.5,29v-3c0-1.104,0.896-2,2-2h33
	c1.104,0,2,0.896,2,2v58c0,1.104-0.896,2-2,2h-33c-1.104,0-2-0.896-2-2V37.125"/>
<polyline fill="none" stroke="#414042" stroke-width="2" stroke-miterlimit="10" points="58.438,74.042 49.5,74.042 49.5,34.042 
	78.542,34.042 78.542,74.042 70.688,74.042 "/>
<path fill="none" stroke="#414042" stroke-width="2" stroke-miterlimit="10" d="M67.9,81.801c-1.564,1.564-3.975,1.688-5.385,0.277
	c-1.409-1.41-1.285-3.82,0.278-5.384"/>
<line fill="none" stroke="#414042" stroke-width="2" stroke-miterlimit="10" x1="60.5" y1="29.917" x2="68.417" y2="29.917"/>
</svg>
