<?xml version="1.0" encoding="utf-8"?>
<!-- Generator: Adobe Illustrator 15.0.0, SVG Export Plug-In . SVG Version: 6.00 Build 0)  -->
<!DOCTYPE svg PUBLIC "-//W3C//DTD SVG 1.0//EN" "http://www.w3.org/TR/2001/REC-SVG-20010904/DTD/svg10.dtd">
<svg version="1.0" id="Layer_1" xmlns="http://www.w3.org/2000/svg" xmlns:xlink="http://www.w3.org/1999/xlink" x="0px" y="0px"
	 width="109.753px" height="99.815px" viewBox="0 0 109.753 99.815" enable-background="new 0 0 109.753 99.815"
	 xml:space="preserve">
<path fill="none" stroke="#414042" stroke-width="2" stroke-miterlimit="10" d="M109.753,26"/>
<g>
	<path fill="none" stroke="#414042" stroke-width="2" stroke-miterlimit="10" d="M33.521,36.938V21.056
		c0-0.56,0.427-1.014,0.95-1.014H94.59c0.525,0,0.951,0.454,0.951,1.014v23.016c0,0.56-0.426,1.014-0.951,1.014H34.472
		c-0.523,0-0.95-0.454-0.95-1.014v-0.882"/>
	<line fill="none" stroke="#414042" stroke-width="2" stroke-miterlimit="10" x1="53.688" y1="41.062" x2="75.375" y2="41.062"/>
	<line fill="none" stroke="#414042" stroke-width="2" stroke-miterlimit="10" x1="36.562" y1="24" x2="39.438" y2="24"/>
	<line fill="none" stroke="#414042" stroke-width="2" stroke-miterlimit="10" x1="45.562" y1="24" x2="48.438" y2="24"/>
	<line fill="none" stroke="#414042" stroke-width="2" stroke-miterlimit="10" x1="51.562" y1="24" x2="54.438" y2="24"/>
	<line fill="none" stroke="#414042" stroke-width="2" stroke-miterlimit="10" x1="57.562" y1="24" x2="60.438" y2="24"/>
	<line fill="none" stroke="#414042" stroke-width="2" stroke-miterlimit="10" x1="63.562" y1="24" x2="66.438" y2="24"/>
	<line fill="none" stroke="#414042" stroke-width="2" stroke-miterlimit="10" x1="69.562" y1="24" x2="72.438" y2="24"/>
	<line fill="none" stroke="#414042" stroke-width="2" stroke-miterlimit="10" x1="75.562" y1="24" x2="78.438" y2="24"/>
	<line fill="none" stroke="#414042" stroke-width="2" stroke-miterlimit="10" x1="81.562" y1="24" x2="84.438" y2="24"/>
	<line fill="none" stroke="#414042" stroke-width="2" stroke-miterlimit="10" x1="87.562" y1="24" x2="90.438" y2="24"/>
	<line fill="none" stroke="#414042" stroke-width="2" stroke-miterlimit="10" x1="36.562" y1="29" x2="39.438" y2="29"/>
	<line fill="none" stroke="#414042" stroke-width="2" stroke-miterlimit="10" x1="42.562" y1="29" x2="45.438" y2="29"/>
	<line fill="none" stroke="#414042" stroke-width="2" stroke-miterlimit="10" x1="48.562" y1="29" x2="51.438" y2="29"/>
	<line fill="none" stroke="#414042" stroke-width="2" stroke-miterlimit="10" x1="54.562" y1="29" x2="57.438" y2="29"/>
	<line fill="none" stroke="#414042" stroke-width="2" stroke-miterlimit="10" x1="60.562" y1="29" x2="63.438" y2="29"/>
	<line fill="none" stroke="#414042" stroke-width="2" stroke-miterlimit="10" x1="66.562" y1="29" x2="69.438" y2="29"/>
	<line fill="none" stroke="#414042" stroke-width="2" stroke-miterlimit="10" x1="72.562" y1="29" x2="75.438" y2="29"/>
	<line fill="none" stroke="#414042" stroke-width="2" stroke-miterlimit="10" x1="78.562" y1="29" x2="81.438" y2="29"/>
	<line fill="none" stroke="#414042" stroke-width="2" stroke-miterlimit="10" x1="84.562" y1="29" x2="87.438" y2="29"/>
	<line fill="none" stroke="#414042" stroke-width="2" stroke-miterlimit="10" x1="90.562" y1="29" x2="93.438" y2="29"/>
	<line fill="none" stroke="#414042" stroke-width="2" stroke-miterlimit="10" x1="36.562" y1="37" x2="39.438" y2="37"/>
	<line fill="none" stroke="#414042" stroke-width="2" stroke-miterlimit="10" x1="42.562" y1="37" x2="45.438" y2="37"/>
	<line fill="none" stroke="#414042" stroke-width="2" stroke-miterlimit="10" x1="48.562" y1="37" x2="51.438" y2="37"/>
	<line fill="none" stroke="#414042" stroke-width="2" stroke-miterlimit="10" x1="36.562" y1="41" x2="39.438" y2="41"/>
	<line fill="none" stroke="#414042" stroke-width="2" stroke-miterlimit="10" x1="42.562" y1="41" x2="45.438" y2="41"/>
	<line fill="none" stroke="#414042" stroke-width="2" stroke-miterlimit="10" x1="48.562" y1="41" x2="51.438" y2="41"/>
	<line fill="none" stroke="#414042" stroke-width="2" stroke-miterlimit="10" x1="77.562" y1="41" x2="80.438" y2="41"/>
	<line fill="none" stroke="#414042" stroke-width="2" stroke-miterlimit="10" x1="83.562" y1="41" x2="86.438" y2="41"/>
	<line fill="none" stroke="#414042" stroke-width="2" stroke-miterlimit="10" x1="89.562" y1="41" x2="92.438" y2="41"/>
	<line fill="none" stroke="#414042" stroke-width="2" stroke-miterlimit="10" x1="54.562" y1="37" x2="57.438" y2="37"/>
	<line fill="none" stroke="#414042" stroke-width="2" stroke-miterlimit="10" x1="60.562" y1="37" x2="63.438" y2="37"/>
	<line fill="none" stroke="#414042" stroke-width="2" stroke-miterlimit="10" x1="66.562" y1="37" x2="69.438" y2="37"/>
	<line fill="none" stroke="#414042" stroke-width="2" stroke-miterlimit="10" x1="72.562" y1="37" x2="75.438" y2="37"/>
	<line fill="none" stroke="#414042" stroke-width="2" stroke-miterlimit="10" x1="78.562" y1="37" x2="81.438" y2="37"/>
	<line fill="none" stroke="#414042" stroke-width="2" stroke-miterlimit="10" x1="84.562" y1="37" x2="87.438" y2="37"/>
	<line fill="none" stroke="#414042" stroke-width="2" stroke-miterlimit="10" x1="90.562" y1="37" x2="93.438" y2="37"/>
	<line fill="none" stroke="#414042" stroke-width="2" stroke-miterlimit="10" x1="39.562" y1="33" x2="42.438" y2="33"/>
	<line fill="none" stroke="#414042" stroke-width="2" stroke-miterlimit="10" x1="45.562" y1="33" x2="48.438" y2="33"/>
	<line fill="none" stroke="#414042" stroke-width="2" stroke-miterlimit="10" x1="51.562" y1="33" x2="54.438" y2="33"/>
	<line fill="none" stroke="#414042" stroke-width="2" stroke-miterlimit="10" x1="57.562" y1="33" x2="60.438" y2="33"/>
	<line fill="none" stroke="#414042" stroke-width="2" stroke-miterlimit="10" x1="63.562" y1="33" x2="66.438" y2="33"/>
	<line fill="none" stroke="#414042" stroke-width="2" stroke-miterlimit="10" x1="69.562" y1="33" x2="72.438" y2="33"/>
	<line fill="none" stroke="#414042" stroke-width="2" stroke-miterlimit="10" x1="75.562" y1="33" x2="78.438" y2="33"/>
	<line fill="none" stroke="#414042" stroke-width="2" stroke-miterlimit="10" x1="81.562" y1="33" x2="84.438" y2="33"/>
	<line fill="none" stroke="#414042" stroke-width="2" stroke-miterlimit="10" x1="87.562" y1="33" x2="90.438" y2="33"/>
</g>
</svg>
