<?xml version="1.0" encoding="utf-8"?>
<!-- Generator: Adobe Illustrator 15.0.0, SVG Export Plug-In . SVG Version: 6.00 Build 0)  -->
<!DOCTYPE svg PUBLIC "-//W3C//DTD SVG 1.0//EN" "http://www.w3.org/TR/2001/REC-SVG-20010904/DTD/svg10.dtd">
<svg version="1.0" id="Layer_1" xmlns="http://www.w3.org/2000/svg" xmlns:xlink="http://www.w3.org/1999/xlink" x="0px" y="0px"
	 width="109.753px" height="99.815px" viewBox="0 0 109.753 99.815" enable-background="new 0 0 109.753 99.815"
	 xml:space="preserve">
<path fill="none" stroke="#414042" stroke-width="2" stroke-miterlimit="10" d="M109.753,26"/>
<g>
	<path fill="none" stroke="#414042" stroke-width="2" stroke-miterlimit="10" d="M83.859,61.139
		c-0.348-6.938-2.106-22.905-10.686-38.527c0,0-5.754,6.595-4.25,25.101"/>
	<path fill="none" stroke="#414042" stroke-width="2" stroke-miterlimit="10" d="M82.381,75.149c0,0,13.346-13.992,17.246-26.667
		c3.899-12.677-16.264-2.507-9.275-3.157c6.32-0.586-1.367,16.615-7.414,7.855"/>
	<path fill="none" stroke="#414042" stroke-width="2" stroke-miterlimit="10" d="M67.814,72.445h-4.875c0,0-0.652,2.927-2.926,2.927
		s-2.926-2.927-2.926-2.927s0.324-2.925-2.844-2.925s-3.007,2.925-3.007,2.925s-0.649,2.927-2.926,2.927
		c-2.272,0-2.924-2.927-2.924-2.927s-0.488-2.925-2.927-2.925c-2.438,0-2.981,2.925-2.981,2.925"/>
	<path fill="none" stroke="#414042" stroke-width="2" stroke-miterlimit="10" d="M57.771,63.272l12.324,12.324
		c3.047,3.045,8.604,2.428,12.41-1.381c3.809-3.808,4.426-9.363,1.379-12.41L63.768,41.688c-0.273,0.023-0.549,0.041-0.828,0.041
		c-4.979,0-8.02-3.037-8.02-8.02c0-0.279,0.018-0.556,0.043-0.828l-1.105-1.104c-3.045-3.046-8.604-2.429-12.41,1.379
		c-3.809,3.809-4.426,9.365-1.379,12.411l4.703,4.704"/>
	<path fill="none" stroke="#414042" stroke-width="2" stroke-miterlimit="10" d="M74.641,34.416c0,0,2.438,4.388,3.17,10.482"/>
	<circle fill="none" stroke="#414042" stroke-width="2" stroke-miterlimit="10" cx="84.636" cy="76.591" r="2.925"/>
</g>
</svg>
