<?xml version="1.0" encoding="utf-8"?>
<!-- Generator: Adobe Illustrator 15.0.0, SVG Export Plug-In . SVG Version: 6.00 Build 0)  -->
<!DOCTYPE svg PUBLIC "-//W3C//DTD SVG 1.0//EN" "http://www.w3.org/TR/2001/REC-SVG-20010904/DTD/svg10.dtd">
<svg version="1.0" id="Layer_1" xmlns="http://www.w3.org/2000/svg" xmlns:xlink="http://www.w3.org/1999/xlink" x="0px" y="0px"
	 width="109.753px" height="99.815px" viewBox="0 0 109.753 99.815" enable-background="new 0 0 109.753 99.815"
	 xml:space="preserve">
<path fill="none" stroke="#414042" stroke-width="2" stroke-miterlimit="10" d="M109.753,26"/>
<path fill="none" stroke="#414042" stroke-width="2" stroke-miterlimit="10" d="M58.537,39c1.9-1.9,2.134-4.86,0.984-8.056
	l5.271-6.687c0.772-0.771,0.746-2.049-0.057-2.853l-5.517-5.518c-0.804-0.803-2.081-0.941-2.853-0.171l-6.664,5.25
	c-3.218-1.178-6.267-0.897-8.181,1.019"/>
<path fill="none" stroke="#414042" stroke-width="2" stroke-miterlimit="10" d="M53.499,35.641
	c-2.306,2.308-6.085,2.269-8.441-0.088c-2.356-2.355-2.395-6.135-0.088-8.439"/>
<path fill="none" stroke="#414042" stroke-width="2" stroke-miterlimit="10" d="M43.5,76.833c0-4.396,6.259-7.958,13.979-7.958
	c7.721,0,13.98,3.562,13.98,7.958"/>
<line fill="none" stroke="#414042" stroke-width="2" stroke-miterlimit="10" x1="66.25" y1="66.375" x2="76" y2="49.5"/>
<line fill="none" stroke="#414042" stroke-width="2" stroke-miterlimit="10" x1="64.5" y1="31.137" x2="75.75" y2="43.625"/>
<circle fill="none" stroke="#414042" stroke-width="2" stroke-miterlimit="10" cx="77.5" cy="46.875" r="2.875"/>
</svg>
