<?xml version="1.0" encoding="utf-8"?>
<!-- Generator: Adobe Illustrator 15.0.0, SVG Export Plug-In . SVG Version: 6.00 Build 0)  -->
<!DOCTYPE svg PUBLIC "-//W3C//DTD SVG 1.0//EN" "http://www.w3.org/TR/2001/REC-SVG-20010904/DTD/svg10.dtd">
<svg version="1.0" id="Layer_1" xmlns="http://www.w3.org/2000/svg" xmlns:xlink="http://www.w3.org/1999/xlink" x="0px" y="0px"
	 width="109.753px" height="99.815px" viewBox="0 0 109.753 99.815" enable-background="new 0 0 109.753 99.815"
	 xml:space="preserve">
<path fill="none" stroke="#414042" stroke-width="2" stroke-miterlimit="10" d="M109.753,26"/>
<g>
	<path fill="none" stroke="#414042" stroke-width="2" stroke-miterlimit="10" d="M40.439,31v-2.547c0-1.354,1.026-2.453,2.295-2.453
		h44.414c1.268,0,2.295,1.1,2.295,2.453v26.979c0,1.353-1.027,2.45-2.295,2.45H42.734c-1.269,0-2.295-1.099-2.295-2.45V39"/>
	<path fill="none" stroke="#414042" stroke-width="2" stroke-miterlimit="10" d="M96.479,77.684c0,1.285-1.022,2.33-2.284,2.33
		H35.499c-1.262,0-2.285-1.045-2.285-2.33l6-17.472c0-1.287,1.023-2.33,2.285-2.33h46.553c1.263,0,2.285,1.043,2.285,2.33
		L96.479,77.684z"/>
	<path fill="none" stroke="#414042" stroke-width="2" stroke-miterlimit="10" d="M85.531,72.525c0,0.819-0.654,1.487-1.459,1.487
		H45.318c-0.805,0-1.459-0.668-1.459-1.487l2.83-9.156c0-0.82,0.654-1.487,1.461-1.487h33c0.807,0,1.459,0.667,1.459,1.487
		L85.531,72.525z"/>
	<polygon fill="none" stroke="#414042" stroke-width="2" stroke-miterlimit="10" points="75.213,73.924 54.213,73.924 
		55.213,69.924 74.213,69.924 	"/>
	<line fill="none" stroke="#414042" stroke-width="2" stroke-miterlimit="10" x1="48.213" y1="73.924" x2="52.213" y2="61.924"/>
	<line fill="none" stroke="#414042" stroke-width="2" stroke-miterlimit="10" x1="46.213" y1="65.924" x2="82.213" y2="65.924"/>
	<line fill="none" stroke="#414042" stroke-width="2" stroke-miterlimit="10" x1="57.213" y1="61.924" x2="55.213" y2="69.924"/>
	<line fill="none" stroke="#414042" stroke-width="2" stroke-miterlimit="10" x1="45.213" y1="69.924" x2="84.213" y2="69.924"/>
	<line fill="none" stroke="#414042" stroke-width="2" stroke-miterlimit="10" x1="77.213" y1="61.924" x2="81.213" y2="73.924"/>
	<line fill="none" stroke="#414042" stroke-width="2" stroke-miterlimit="10" x1="72.213" y1="61.924" x2="74.213" y2="69.924"/>
	<line fill="none" stroke="#414042" stroke-width="2" stroke-miterlimit="10" x1="61.463" y1="61.924" x2="61.463" y2="69.924"/>
	<line fill="none" stroke="#414042" stroke-width="2" stroke-miterlimit="10" x1="67.525" y1="61.924" x2="67.525" y2="69.924"/>
	<path fill="none" stroke="#414042" stroke-width="2" stroke-miterlimit="10" d="M85.588,50v1.924c0,1.104-0.896,2-2.006,2H46.469
		c-1.107,0-2.006-0.896-2.006-2v-20c0-1.104,0.897-2,2.006-2h37.113c1.108,0,2.006,0.896,2.006,2V45"/>
</g>
<polyline fill="none" stroke="#414042" stroke-width="2" stroke-miterlimit="10" points="78.354,37.125 68.604,45.125 
	59.479,41.375 51.604,48.125 "/>
</svg>
