<?xml version="1.0" encoding="utf-8"?>
<!-- Generator: Adobe Illustrator 15.0.0, SVG Export Plug-In . SVG Version: 6.00 Build 0)  -->
<!DOCTYPE svg PUBLIC "-//W3C//DTD SVG 1.0//EN" "http://www.w3.org/TR/2001/REC-SVG-20010904/DTD/svg10.dtd">
<svg version="1.0" id="Layer_1" xmlns="http://www.w3.org/2000/svg" xmlns:xlink="http://www.w3.org/1999/xlink" x="0px" y="0px"
	 width="109.753px" height="99.815px" viewBox="0 0 109.753 99.815" enable-background="new 0 0 109.753 99.815"
	 xml:space="preserve">
<path fill="none" stroke="#414042" stroke-width="2" stroke-miterlimit="10" d="M109.753,26"/>
<path fill="none" stroke="#333333" stroke-width="2" stroke-miterlimit="10" d="M35.727,40.421
	c1.684,4.988,4.605,9.521,9.677,10.724c4.592,0.648,8.766,2.519,12.121,4.018c2.776,1.248,5.181,2.32,6.938,2.32
	c1.705,0,3.525-0.837,6.043-1.993c3.277-1.507,7.361-3.382,13.42-4.423c8.979-1.23,11.355-19.219,11.531-26.057
	c-0.017,0-0.033,0-0.052,0c-1.842-0.02-4.622-0.046-8.575-1.277c-1.856-0.59-6.001,0.907-9.797,2.379
	c-4.168,1.617-8.476,3.287-12.609,3.287c-4.153,0-8.461-1.666-12.622-3.276c-3.8-1.469-7.937-2.955-9.8-2.366
	c-3.947,1.242-6.824,1.266-8.545,1.278 M58.753,41.712c-0.675-0.266-1.597-0.908-2.837-0.526c-2.009,0.616-4.939,0.463-7.943-0.582
	c-4.869-1.686-7.453-9.254-7.453-9.254s7.049-0.523,11.92,1.163c2.263,0.783,2.836,1.149,4.205,2.291
	C59.414,37.114,59.418,41.98,58.753,41.712z M81.092,40.604c-3.01,1.045-5.936,1.198-7.945,0.582
	c-1.241-0.382-2.164,0.262-2.838,0.526c-0.666,0.271-0.659-4.598,2.107-6.908c1.369-1.142,1.947-1.508,4.206-2.291
	c4.872-1.688,11.919-1.163,11.919-1.163S85.961,38.918,81.092,40.604z"/>
</svg>
