<?xml version="1.0" encoding="utf-8"?>
<!-- Generator: Adobe Illustrator 15.0.0, SVG Export Plug-In . SVG Version: 6.00 Build 0)  -->
<!DOCTYPE svg PUBLIC "-//W3C//DTD SVG 1.0//EN" "http://www.w3.org/TR/2001/REC-SVG-20010904/DTD/svg10.dtd">
<svg version="1.0" id="Layer_1" xmlns="http://www.w3.org/2000/svg" xmlns:xlink="http://www.w3.org/1999/xlink" x="0px" y="0px"
	 width="109.753px" height="99.815px" viewBox="0 0 109.753 99.815" enable-background="new 0 0 109.753 99.815"
	 xml:space="preserve">
<path fill="none" stroke="#414042" stroke-width="2" stroke-miterlimit="10" d="M109.753,26"/>
<path fill="none" stroke="#414042" stroke-width="2" stroke-miterlimit="10" d="M36.408,65.538
	c-2.276,0.044-8.752,0.72-11.082,2.064c-5.697,3.29-7.364,7.334-4.957,11.503c2.406,4.168,8.975,4.881,14.672,1.591
	c4.537-2.619,6.418-6.958,6.418-10.876l-0.047-0.322V22c0,0,33.666,12.507,21.396,37.739"/>
<path fill="none" stroke="#333333" stroke-width="2" stroke-miterlimit="10" d="M51.744,76.581c-1.287-1.61-2.244-3.453-2.244-5.22
	c0-5.613,7.062-6.142,8.312-0.903c0.021,0.08,0.354,0.088,0.377,0c1.25-5.233,8.312-4.778,8.312,0.903
	c0,4.694-6.752,10.379-8.5,10.379c-0.446,0-1.219-0.34-2.123-0.926"/>
</svg>
