<?xml version="1.0" encoding="utf-8"?>
<!-- Generator: Adobe Illustrator 15.0.0, SVG Export Plug-In . SVG Version: 6.00 Build 0)  -->
<!DOCTYPE svg PUBLIC "-//W3C//DTD SVG 1.0//EN" "http://www.w3.org/TR/2001/REC-SVG-20010904/DTD/svg10.dtd">
<svg version="1.0" id="Layer_1" xmlns="http://www.w3.org/2000/svg" xmlns:xlink="http://www.w3.org/1999/xlink" x="0px" y="0px"
	 width="109.753px" height="99.815px" viewBox="0 0 109.753 99.815" enable-background="new 0 0 109.753 99.815"
	 xml:space="preserve">
<path fill="none" stroke="#414042" stroke-width="2" stroke-miterlimit="10" d="M109.753,26"/>
<path fill="none" stroke="#414042" stroke-width="2" stroke-miterlimit="10" d="M42.567,54.799
	c-2.277,0.044-8.752,0.721-11.082,2.064c-5.697,3.29-7.365,7.334-4.958,11.504c2.408,4.168,8.976,4.881,14.673,1.591
	c4.537-2.619,6.418-6.958,6.418-10.876l-0.047-0.322V20.761l37.923-7.467v37.999l0.053,0.393c0,3.772-1.948,8.629-6.458,11.231
	c-5.697,3.289-12.265,2.575-14.673-1.593c-2.407-4.168-0.739-8.213,4.958-11.503c2.284-1.317,7.707-1.992,9.947-2.061"/>
<line fill="none" stroke="#414042" stroke-width="2" stroke-miterlimit="10" x1="56.5" y1="34.493" x2="79.095" y2="29.16"/>
</svg>
