<?xml version="1.0" encoding="utf-8"?>
<!-- Generator: Adobe Illustrator 15.0.0, SVG Export Plug-In . SVG Version: 6.00 Build 0)  -->
<!DOCTYPE svg PUBLIC "-//W3C//DTD SVG 1.0//EN" "http://www.w3.org/TR/2001/REC-SVG-20010904/DTD/svg10.dtd">
<svg version="1.0" id="Layer_1" xmlns="http://www.w3.org/2000/svg" xmlns:xlink="http://www.w3.org/1999/xlink" x="0px" y="0px"
	 width="109.753px" height="99.815px" viewBox="0 0 109.753 99.815" enable-background="new 0 0 109.753 99.815"
	 xml:space="preserve">
<path fill="none" stroke="#414042" stroke-width="2" stroke-miterlimit="10" d="M109.753,26"/>
<polyline fill="none" stroke="#414042" stroke-width="2" stroke-miterlimit="10" points="81.479,58 29.479,58 29.479,13 81.479,13 
	81.479,40 "/>
<rect x="41.479" y="18" fill="none" stroke="#414042" stroke-width="2" stroke-miterlimit="10" width="27" height="4"/>
<polyline fill="none" stroke="#414042" stroke-width="2" stroke-miterlimit="10" points="34.479,30 76.479,30 76.479,54 34.479,54 
	34.479,42 "/>
<line fill="none" stroke="#414042" stroke-width="2" stroke-miterlimit="10" x1="37.479" y1="40" x2="48.479" y2="40"/>
<line fill="none" stroke="#414042" stroke-width="2" stroke-miterlimit="10" x1="37.479" y1="45" x2="53.479" y2="45"/>
<line fill="none" stroke="#414042" stroke-width="2" stroke-miterlimit="10" x1="37.479" y1="50" x2="53.479" y2="50"/>
<rect x="58.479" y="35" fill="none" stroke="#414042" stroke-width="2" stroke-miterlimit="10" width="14" height="15"/>
<rect x="20.479" y="22" fill="none" stroke="#414042" stroke-width="2" stroke-miterlimit="10" width="9" height="36"/>
<rect x="24.479" y="28" fill="none" stroke="#414042" stroke-width="2" stroke-miterlimit="10" width="5" height="30"/>
<line fill="none" stroke="#414042" stroke-width="2" stroke-miterlimit="10" x1="33.479" y1="26" x2="47.479" y2="26"/>
<line fill="none" stroke="#414042" stroke-width="2" stroke-miterlimit="10" x1="63.479" y1="26" x2="76.479" y2="26"/>
</svg>
