<?xml version="1.0" encoding="utf-8"?>
<!-- Generator: Adobe Illustrator 15.0.0, SVG Export Plug-In . SVG Version: 6.00 Build 0)  -->
<!DOCTYPE svg PUBLIC "-//W3C//DTD SVG 1.0//EN" "http://www.w3.org/TR/2001/REC-SVG-20010904/DTD/svg10.dtd">
<svg version="1.0" id="Layer_1" xmlns="http://www.w3.org/2000/svg" xmlns:xlink="http://www.w3.org/1999/xlink" x="0px" y="0px"
	 width="109.753px" height="99.815px" viewBox="0 0 109.753 99.815" enable-background="new 0 0 109.753 99.815"
	 xml:space="preserve">
<path fill="none" stroke="#414042" stroke-width="2" stroke-miterlimit="10" d="M109.753,26"/>
<path fill="none" stroke="#414042" stroke-width="2" stroke-miterlimit="10" d="M36.5,21v-4.514
	c0.287-0.277,1.029-0.543,1.318-0.267l32.369,30.164c0.289,0.277,0.287,0.729,0,1.006L37.818,76.716
	c-0.289,0.277-1.03,0.543-1.318,0.267V31.14"/>
<path fill="none" stroke="#414042" stroke-width="2" stroke-miterlimit="10" d="M78.493,21v-3.836c0-0.645,0.657-1.164,1.468-1.164
	h13.062c0.811,0,1.47,0.521,1.47,1.164V76c0,0.645-0.659,1.164-1.47,1.164H79.961c-0.811,0-1.468-0.521-1.468-1.164V33"/>
</svg>
