<?xml version="1.0" encoding="utf-8"?>
<!-- Generator: Adobe Illustrator 15.0.0, SVG Export Plug-In . SVG Version: 6.00 Build 0)  -->
<!DOCTYPE svg PUBLIC "-//W3C//DTD SVG 1.0//EN" "http://www.w3.org/TR/2001/REC-SVG-20010904/DTD/svg10.dtd">
<svg version="1.0" id="Layer_1" xmlns="http://www.w3.org/2000/svg" xmlns:xlink="http://www.w3.org/1999/xlink" x="0px" y="0px"
	 width="109.753px" height="99.815px" viewBox="0 0 109.753 99.815" enable-background="new 0 0 109.753 99.815"
	 xml:space="preserve">
<path fill="none" stroke="#414042" stroke-width="2" stroke-miterlimit="10" d="M109.753,26"/>
<path fill="none" stroke="#414042" stroke-width="2" stroke-miterlimit="10" d="M37.579,23.938v-2.791
	c0-0.609,0.49-1.104,1.093-1.104H64.5L81.42,42v38.938c0,0.609-0.489,1.104-1.094,1.104H38.672c-0.604,0-1.093-0.495-1.093-1.104
	v-48.75"/>
<path fill="none" stroke="#414042" stroke-width="2" stroke-miterlimit="10" d="M77.5,42H64.594c-0.604,0-1.094-0.496-1.094-1.105
	V27"/>
<g>
	<path fill="#414042" d="M64.424,67.996c-1.582,0.836-3.195,1.154-5.123,1.154c-4.723,0-8.723-3.456-8.723-9.015
		c0-5.928,4.117-11.082,10.508-11.082c5.008,0,8.348,3.542,8.348,8.35c0,4.316-2.42,6.851-5.096,6.851
		c-1.15,0-2.217-0.75-2.158-2.533h-0.088c-1.006,1.699-2.33,2.533-4.059,2.533c-1.67,0-3.109-1.353-3.109-3.628
		c0-3.569,2.822-6.821,6.822-6.821c1.209,0,2.332,0.259,3.082,0.604l-0.979,5.209c-0.435,2.189-0.088,3.197,0.861,3.225
		c1.469,0.06,3.108-1.929,3.108-5.237c0-4.203-2.504-7.228-6.966-7.228c-4.692,0-8.637,3.743-8.637,9.587
		c0,4.81,3.14,7.801,7.398,7.801c1.641,0,3.166-0.344,4.346-1.008L64.424,67.996z M62.842,55.562
		c-0.289-0.115-0.777-0.229-1.438-0.229c-2.535,0-4.578,2.389-4.578,5.18c0,1.271,0.635,2.189,1.899,2.189
		c1.67,0,3.195-2.131,3.513-3.917L62.842,55.562z"/>
</g>
</svg>
