<?xml version="1.0" encoding="utf-8"?>
<!-- Generator: Adobe Illustrator 15.0.0, SVG Export Plug-In . SVG Version: 6.00 Build 0)  -->
<!DOCTYPE svg PUBLIC "-//W3C//DTD SVG 1.0//EN" "http://www.w3.org/TR/2001/REC-SVG-20010904/DTD/svg10.dtd">
<svg version="1.0" id="Layer_1" xmlns="http://www.w3.org/2000/svg" xmlns:xlink="http://www.w3.org/1999/xlink" x="0px" y="0px"
	 width="109.753px" height="99.815px" viewBox="0 0 109.753 99.815" enable-background="new 0 0 109.753 99.815"
	 xml:space="preserve">
<path fill="none" stroke="#414042" stroke-width="2" stroke-miterlimit="10" d="M109.753,26"/>
<path fill="none" stroke="#414042" stroke-width="2" stroke-miterlimit="10" d="M40.667,32.416C40.427,40.488,37.174,47,31.5,47
	c-5.83,0-11.083-6.455-11.083-14.834C20.417,23.789,25.138,16,30.968,16h35.616c5.83,0,10.779,7.292,10.779,15.67
	c0,8.379-3.406,20.447-9.234,20.447H29.874c0,0-7.123,17.133-0.544,25.799h38.255c0,0-5.172-6.122,0.544-20.521"/>
<path fill="none" stroke="#414042" stroke-width="2" stroke-miterlimit="10" d="M27.586,30.924c0.186-2.736,1.677-4.871,3.489-4.871
	c1.937,0,3.508,2.438,3.508,5.444c0,2.729-1.297,4.993-2.987,5.383"/>
</svg>
