<?xml version="1.0" encoding="utf-8"?>
<!-- Generator: Adobe Illustrator 15.0.0, SVG Export Plug-In . SVG Version: 6.00 Build 0)  -->
<!DOCTYPE svg PUBLIC "-//W3C//DTD SVG 1.0//EN" "http://www.w3.org/TR/2001/REC-SVG-20010904/DTD/svg10.dtd">
<svg version="1.0" id="Layer_1" xmlns="http://www.w3.org/2000/svg" xmlns:xlink="http://www.w3.org/1999/xlink" x="0px" y="0px"
	 width="109.753px" height="99.815px" viewBox="0 0 109.753 99.815" enable-background="new 0 0 109.753 99.815"
	 xml:space="preserve">
<path fill="none" stroke="#414042" stroke-width="2" stroke-miterlimit="10" d="M109.753,26"/>
<g>
	<g>
		<path fill="none" stroke="#414042" stroke-width="2" stroke-miterlimit="10" d="M46.499,60c-0.551,0-0.999-0.463-0.999-1.035
			v-7.888c0-0.571,0.447-1.035,0.999-1.035H73.46c0.552,0,0.999,0.464,0.999,1.035v7.888c0,0.572-0.447,1.035-0.999,1.035"/>
		<path fill="none" stroke="#414042" stroke-width="2" stroke-miterlimit="10" d="M78.562,56h10.896
			c0.552,0,0.999-0.463,0.999-1.035V34.077c0-0.571-0.447-1.035-0.999-1.035H76.458V22.077c0-0.571-0.447-1.035-0.999-1.035H44.498
			c-0.551,0-0.999,0.464-0.999,1.035v10.965H29.498c-0.551,0-0.999,0.464-0.999,1.035v20.888c0,0.572,0.447,1.035,0.999,1.035
			h11.876"/>
		<line fill="none" stroke="#414042" stroke-width="2" stroke-miterlimit="10" x1="47.542" y1="33.021" x2="72.458" y2="33.021"/>
		<line fill="none" stroke="#414042" stroke-width="2" stroke-miterlimit="10" x1="39.479" y1="23.084" x2="39.479" y2="33.916"/>
		<line fill="none" stroke="#414042" stroke-width="2" stroke-miterlimit="10" x1="80.479" y1="23.084" x2="80.479" y2="33.916"/>
		<line fill="none" stroke="#414042" stroke-width="2" stroke-miterlimit="10" x1="78.5" y1="38.042" x2="86.416" y2="38.042"/>
	</g>
	<line fill="none" stroke="#414042" stroke-width="2" stroke-miterlimit="10" x1="49.562" y1="53" x2="49.562" y2="68.938"/>
	<line fill="none" stroke="#414042" stroke-width="2" stroke-miterlimit="10" x1="54.562" y1="53" x2="54.562" y2="68.938"/>
	<line fill="none" stroke="#414042" stroke-width="2" stroke-miterlimit="10" x1="59.562" y1="53" x2="59.562" y2="68.938"/>
	<line fill="none" stroke="#414042" stroke-width="2" stroke-miterlimit="10" x1="64.562" y1="53" x2="64.562" y2="68.938"/>
	<path fill="none" stroke="#414042" stroke-width="2" stroke-miterlimit="10" d="M69.562,53v10c0,0-0.281,5.938,2.812,5.938"/>
</g>
</svg>
