<?xml version="1.0" encoding="utf-8"?>
<!-- Generator: Adobe Illustrator 15.0.0, SVG Export Plug-In . SVG Version: 6.00 Build 0)  -->
<!DOCTYPE svg PUBLIC "-//W3C//DTD SVG 1.0//EN" "http://www.w3.org/TR/2001/REC-SVG-20010904/DTD/svg10.dtd">
<svg version="1.0" id="Layer_1" xmlns="http://www.w3.org/2000/svg" xmlns:xlink="http://www.w3.org/1999/xlink" x="0px" y="0px"
	 width="109.753px" height="99.815px" viewBox="0 0 109.753 99.815" enable-background="new 0 0 109.753 99.815"
	 xml:space="preserve">
<path fill="none" stroke="#414042" stroke-width="2" stroke-miterlimit="10" d="M109.753,26"/>
<g>
	<g>
		<path fill="none" stroke="#333333" stroke-width="2" stroke-miterlimit="10" d="M28.538,22.938v-2.791
			c0-0.609,0.49-1.104,1.093-1.104h25.828l16.92,21.959v38.938c0,0.608-0.489,1.104-1.094,1.104H29.631
			c-0.603,0-1.093-0.495-1.093-1.104v-48.75"/>
		<path fill="none" stroke="#333333" stroke-width="2" stroke-miterlimit="10" d="M68.459,41H55.552
			c-0.604,0-1.094-0.496-1.094-1.105V26"/>
	</g>
	<g>
		<path fill="none" stroke="#333333" stroke-width="2" stroke-miterlimit="10" d="M44.459,60.977v-0.731
			c0-0.136,0.107-0.244,0.24-0.244h1.025h10.338h1.067c0.132,0,0.24,0.108,0.24,0.244v10.496c0,0.135-0.107,0.244-0.24,0.244H44.699
			c-0.133,0-0.24-0.109-0.24-0.244v-6.646"/>
		<path fill="none" stroke="#333333" stroke-width="2" stroke-miterlimit="10" d="M46.459,58v-3.525c0-2.472,2.02-4.475,4.511-4.475
			l0,0c2.491,0,4.511,2.003,4.511,4.475V58"/>
	</g>
</g>
</svg>
