<?xml version="1.0" encoding="utf-8"?>
<!-- Generator: Adobe Illustrator 15.0.0, SVG Export Plug-In . SVG Version: 6.00 Build 0)  -->
<!DOCTYPE svg PUBLIC "-//W3C//DTD SVG 1.0//EN" "http://www.w3.org/TR/2001/REC-SVG-20010904/DTD/svg10.dtd">
<svg version="1.0" id="Layer_1" xmlns="http://www.w3.org/2000/svg" xmlns:xlink="http://www.w3.org/1999/xlink" x="0px" y="0px"
	 width="109.753px" height="99.815px" viewBox="0 0 109.753 99.815" enable-background="new 0 0 109.753 99.815"
	 xml:space="preserve">
<path fill="none" stroke="#414042" stroke-width="2" stroke-miterlimit="10" d="M109.753,26"/>
<g>
	<g>
		<path fill="none" stroke="#333333" stroke-width="2" stroke-miterlimit="10" d="M25.579,27.938v-2.791
			c0-0.609,0.49-1.104,1.093-1.104H52.5l16.92,21.959v38.938c0,0.608-0.489,1.104-1.094,1.104H26.672
			c-0.603,0-1.093-0.495-1.093-1.104v-48.75"/>
		<path fill="none" stroke="#333333" stroke-width="2" stroke-miterlimit="10" d="M65.5,46H52.593c-0.604,0-1.094-0.496-1.094-1.105
			V31"/>
	</g>
</g>
<g>
	<g>
		<path fill="none" stroke="#434343" stroke-width="2" stroke-miterlimit="10" d="M59.5,75.875l-6.674-5.122
			c-2.38,2.696-6.475,2.969-9.143,0.612c-2.671-2.356-2.904-6.453-0.525-9.147c2.381-2.694,6.475-2.972,9.144-0.611
			c1,0.883,1.659,2.012,1.966,3.218"/>
	</g>
</g>
</svg>
