<?xml version="1.0" encoding="utf-8"?>
<!-- Generator: Adobe Illustrator 15.0.0, SVG Export Plug-In . SVG Version: 6.00 Build 0)  -->
<!DOCTYPE svg PUBLIC "-//W3C//DTD SVG 1.0//EN" "http://www.w3.org/TR/2001/REC-SVG-20010904/DTD/svg10.dtd">
<svg version="1.0" id="Layer_1" xmlns="http://www.w3.org/2000/svg" xmlns:xlink="http://www.w3.org/1999/xlink" x="0px" y="0px"
	 width="109.753px" height="99.815px" viewBox="0 0 109.753 99.815" enable-background="new 0 0 109.753 99.815"
	 xml:space="preserve">
<path fill="none" stroke="#414042" stroke-width="2" stroke-miterlimit="10" d="M109.753,26"/>
<path fill="none" stroke="#414042" stroke-width="2" stroke-miterlimit="10" d="M43.5,28.896v-2.793c0-0.608,0.493-1.104,1.1-1.104
	h23.972l17.021,18.959v34.896c0,0.608-0.492,1.104-1.1,1.104H44.6c-0.605,0-1.1-0.495-1.1-1.104V37.146"/>
<path fill="none" stroke="#414042" stroke-width="2" stroke-miterlimit="10" d="M81.421,43.959H68.514
	c-0.604,0-1.094-0.496-1.094-1.105V31.959"/>
<path fill="none" stroke="#414042" stroke-width="2" stroke-miterlimit="10" d="M62.5,18c0-0.553-0.447-1-1-1h-24
	c-0.553,0-1,0.447-1,1v56.959c0,0.553,0.447,1,1,1h3"/>
</svg>
