<?xml version="1.0" encoding="utf-8"?>
<!-- Generator: Adobe Illustrator 15.0.0, SVG Export Plug-In . SVG Version: 6.00 Build 0)  -->
<!DOCTYPE svg PUBLIC "-//W3C//DTD SVG 1.0//EN" "http://www.w3.org/TR/2001/REC-SVG-20010904/DTD/svg10.dtd">
<svg version="1.0" id="Layer_1" xmlns="http://www.w3.org/2000/svg" xmlns:xlink="http://www.w3.org/1999/xlink" x="0px" y="0px"
	 width="109.753px" height="99.815px" viewBox="0 0 109.753 99.815" enable-background="new 0 0 109.753 99.815"
	 xml:space="preserve">
<path fill="none" stroke="#414042" stroke-width="2" stroke-miterlimit="10" d="M109.753,26"/>
<path fill="none" stroke="#414042" stroke-width="2" stroke-miterlimit="10" d="M32.575,23v-3.836c0-0.644,0.657-1.164,1.468-1.164
	H56.08c0.812,0,1.471,0.521,1.471,1.164v59.672c0,0.643-0.658,1.164-1.471,1.164H34.043c-0.811,0-1.468-0.521-1.468-1.164V35"/>
<path fill="none" stroke="#414042" stroke-width="2" stroke-miterlimit="10" d="M68.575,23v-3.836c0-0.644,0.657-1.164,1.468-1.164
	H92.08c0.812,0,1.471,0.521,1.471,1.164v59.672c0,0.643-0.658,1.164-1.471,1.164H70.043c-0.811,0-1.468-0.521-1.468-1.164V35"/>
</svg>
