<?xml version="1.0" encoding="utf-8"?>
<!-- Generator: Adobe Illustrator 15.0.0, SVG Export Plug-In . SVG Version: 6.00 Build 0)  -->
<!DOCTYPE svg PUBLIC "-//W3C//DTD SVG 1.0//EN" "http://www.w3.org/TR/2001/REC-SVG-20010904/DTD/svg10.dtd">
<svg version="1.0" id="Layer_1" xmlns="http://www.w3.org/2000/svg" xmlns:xlink="http://www.w3.org/1999/xlink" x="0px" y="0px"
	 width="109.753px" height="99.815px" viewBox="0 0 109.753 99.815" enable-background="new 0 0 109.753 99.815"
	 xml:space="preserve">
<path fill="none" stroke="#414042" stroke-width="2" stroke-miterlimit="10" d="M109.753,26"/>
<g>
	<path fill="none" stroke="#414042" stroke-width="2" stroke-miterlimit="10" d="M80.686,75.01
		c-8.556-0.786-15.812-1.711-18.127-2.501l-10.42-19.27c-0.147-0.273-0.332-0.524-0.553-0.742c-1.301-1.304-1.232-3.493,0.15-4.879
		l15.285-15.327c1.344-1.337,3.609-1.407,4.857-0.146c0.222,0.221,0.47,0.404,0.742,0.559l19.229,10.443
		c1.17,3.401,2.677,17.505,3.606,30.686L82.193,60.565c1.338-2.31,1.041-5.3-0.936-7.273c-2.354-2.354-6.17-2.354-8.523,0
		c-2.355,2.355-2.354,6.173,0,8.528c1.975,1.969,4.967,2.269,7.272,0.932"/>
	<path fill="none" stroke="#414042" stroke-width="2" stroke-miterlimit="10" d="M57.414,14.002c1.324,0.54,3.719,1.972,6.441,4.676
		c2.725,2.714,4.158,5.085,4.705,6.397L44.63,48.846c-1.312-0.541-3.707-1.963-6.437-4.676c-2.723-2.704-4.153-5.088-4.698-6.393"/>
</g>
</svg>
