<?xml version="1.0" encoding="utf-8"?>
<!-- Generator: Adobe Illustrator 15.0.0, SVG Export Plug-In . SVG Version: 6.00 Build 0)  -->
<!DOCTYPE svg PUBLIC "-//W3C//DTD SVG 1.0//EN" "http://www.w3.org/TR/2001/REC-SVG-20010904/DTD/svg10.dtd">
<svg version="1.0" id="Layer_1" xmlns="http://www.w3.org/2000/svg" xmlns:xlink="http://www.w3.org/1999/xlink" x="0px" y="0px"
	 width="109.753px" height="99.815px" viewBox="0 0 109.753 99.815" enable-background="new 0 0 109.753 99.815"
	 xml:space="preserve">
<path fill="none" stroke="#414042" stroke-width="2" stroke-miterlimit="10" d="M109.753,26"/>
<g>
	<g>
		<g>
			<g>
				<path fill="none" stroke="#414042" stroke-width="2" stroke-miterlimit="10" d="M34.514,46.938v-5.24
					c0-1.645,6.082-0.863,6.082-5.921c0.146-0.226,0.314-0.507,0.48-0.786c-0.142-0.059-0.277-0.128-0.412-0.205
					c-1.004-0.576-1.639-1.525-1.742-2.598c-0.133-1.388,0.59-2.772,2.15-4.12c1.672-1.448,3.248-2.212,5.271-2.562
					c1.14-0.194,2.371-0.225,3.562-0.122c4.254-2.529,9.42-3.662,15.802-3.336c9.118,0.468,17.155,4.938,21.29,11.762
					c2.621,0.56,7.518,2.064,7.518,5.422c0,2.356-1.813,4.324-4.624,5.229c-0.112,8.36-3.138,14.307-9.007,17.707
					c-0.123,1.22-0.523,2.792-1.663,4.028c-0.737,0.797-2.067,1.75-4.228,1.75c-0.886,0-2.035-0.315-4.164-0.919
					c-2.254-0.641-5.338-1.516-7.179-1.516c-1.748,0-3.948,0.812-5.718,1.464c-1.523,0.566-2.625,0.971-3.633,0.971
					c-2.639,0-4.891-1.968-5.661-4.716c-4.902-1.946-7.294-4.703-10.026-7.855"/>
			</g>
		</g>
		<path fill="none" stroke="#414042" stroke-width="2" stroke-miterlimit="10" d="M54.482,38.993c0,2.185-1.785,3.959-3.985,3.959
			c-2.203,0-3.988-1.774-3.988-3.959s1.785-3.956,3.988-3.956"/>
		<path fill="none" stroke="#414042" stroke-width="2" stroke-miterlimit="10" d="M73.477,29.798
			c3.439,1.343,6.152,2.442,7.914,5.474"/>
	</g>
	<path fill="none" stroke="#414042" stroke-width="2" stroke-miterlimit="10" d="M82.507,18.033c0-3.319,2.691-6.01,6.011-6.01
		c3.316,0,6.01,2.689,6.01,6.01c0,1.085-0.288,2.104-0.791,2.981c-1.036,1.81-2.985,3.027-5.219,3.027"/>
</g>
</svg>
