<?xml version="1.0" encoding="utf-8"?>
<!-- Generator: Adobe Illustrator 15.0.0, SVG Export Plug-In . SVG Version: 6.00 Build 0)  -->
<!DOCTYPE svg PUBLIC "-//W3C//DTD SVG 1.0//EN" "http://www.w3.org/TR/2001/REC-SVG-20010904/DTD/svg10.dtd">
<svg version="1.0" id="Layer_1" xmlns="http://www.w3.org/2000/svg" xmlns:xlink="http://www.w3.org/1999/xlink" x="0px" y="0px"
	 width="109.753px" height="99.815px" viewBox="0 0 109.753 99.815" enable-background="new 0 0 109.753 99.815"
	 xml:space="preserve">
<path fill="none" stroke="#414042" stroke-width="2" stroke-miterlimit="10" d="M109.753,26"/>
<g>
	<path fill="none" stroke="#333333" stroke-width="2" stroke-miterlimit="10" d="M50.609,67.598l13.435,13.437
		c0.392,0.391,1.022,0.391,1.415,0l2.828-2.829c0.391-0.391,0.391-1.023,0-1.414l-0.707-6.364l16.264-16.263l2.828,2.828
		c0.39,0.391,1.022,0.391,1.414,0l2.121-2.121c0.391-0.391,0.391-1.024,0-1.414L64.044,27.294c-0.39-0.391-1.023-0.391-1.414,0
		l-2.121,2.121c-0.393,0.392-0.392,1.023,0,1.414l2.827,2.828L47.073,49.921l-6.364-0.707c-0.391-0.391-1.023-0.391-1.414,0
		l-2.828,2.828c-0.392,0.392-0.392,1.024,0,1.415l2.828,2.828"/>
	<line fill="none" stroke="#333333" stroke-width="2" stroke-miterlimit="10" x1="52.023" y1="67.598" x2="30.811" y2="88.811"/>
</g>
</svg>
