<?xml version="1.0" encoding="utf-8"?>
<!-- Generator: Adobe Illustrator 15.0.0, SVG Export Plug-In . SVG Version: 6.00 Build 0)  -->
<!DOCTYPE svg PUBLIC "-//W3C//DTD SVG 1.0//EN" "http://www.w3.org/TR/2001/REC-SVG-20010904/DTD/svg10.dtd">
<svg version="1.0" id="Layer_1" xmlns="http://www.w3.org/2000/svg" xmlns:xlink="http://www.w3.org/1999/xlink" x="0px" y="0px"
	 width="109.753px" height="99.815px" viewBox="0 0 109.753 99.815" enable-background="new 0 0 109.753 99.815"
	 xml:space="preserve">
<path fill="none" stroke="#414042" stroke-width="2" stroke-miterlimit="10" d="M109.753,26"/>
<path fill="none" stroke="#414042" stroke-width="2" stroke-miterlimit="10" d="M43.153,39.964c0.021-1.975-0.719-3.956-2.226-5.462
	c-2.971-2.972-7.789-2.972-10.76,0c-2.972,2.971-2.972,7.789,0,10.76c1.506,1.508,3.488,2.246,5.462,2.226L24.852,58.265
	c-0.425,0.426-0.425,1.115,0,1.541l29.911,29.911c0.426,0.425,1.115,0.425,1.541,0l29.911-29.912c0.426-0.425,0.426-1.113,0-1.54
	L75.438,47.487c0.02,1.974-0.72,3.956-2.226,5.462c-2.971,2.972-7.789,2.972-10.76,0c-2.972-2.971-2.972-7.789,0-10.76
	c1.506-1.508,3.488-2.246,5.462-2.227l-11.61-11.609c-0.425-0.425-1.114-0.426-1.539,0l-1.957,1.957"/>
</svg>
