<?xml version="1.0" encoding="utf-8"?>
<!-- Generator: Adobe Illustrator 15.0.0, SVG Export Plug-In . SVG Version: 6.00 Build 0)  -->
<!DOCTYPE svg PUBLIC "-//W3C//DTD SVG 1.0//EN" "http://www.w3.org/TR/2001/REC-SVG-20010904/DTD/svg10.dtd">
<svg version="1.0" id="Layer_1" xmlns="http://www.w3.org/2000/svg" xmlns:xlink="http://www.w3.org/1999/xlink" x="0px" y="0px"
	 width="109.753px" height="99.815px" viewBox="0 0 109.753 99.815" enable-background="new 0 0 109.753 99.815"
	 xml:space="preserve">
<path fill="none" stroke="#414042" stroke-width="2" stroke-miterlimit="10" d="M109.753,26"/>
<g>
	<path fill="none" stroke="#414042" stroke-width="2" stroke-miterlimit="10" d="M21.5,21c-0.553,0-1-0.448-1-1v-1
		c0-0.552,0.447-1,1-1h60c0.553,0,1,0.448,1,1v1c0,0.552-0.447,1-1,1"/>
	<path fill="none" stroke="#414042" stroke-width="2" stroke-miterlimit="10" d="M40.5,59h-14c-0.553,0-1-0.448-1-1V24
		c0-0.552,0.447-1,1-1h50c0.553,0,1,0.448,1,1v34c0,0.552-0.447,1-1,1h-25v18"/>
	<line fill="none" stroke="#414042" stroke-width="2" stroke-miterlimit="10" x1="48.699" y1="65.739" x2="40.302" y2="74.136"/>
	<line fill="none" stroke="#414042" stroke-width="2" stroke-miterlimit="10" x1="62.698" y1="74.136" x2="54.301" y2="65.739"/>
</g>
</svg>
