<?xml version="1.0" encoding="utf-8"?>
<!-- Generator: Adobe Illustrator 15.0.0, SVG Export Plug-In . SVG Version: 6.00 Build 0)  -->
<!DOCTYPE svg PUBLIC "-//W3C//DTD SVG 1.0//EN" "http://www.w3.org/TR/2001/REC-SVG-20010904/DTD/svg10.dtd">
<svg version="1.0" id="Layer_1" xmlns="http://www.w3.org/2000/svg" xmlns:xlink="http://www.w3.org/1999/xlink" x="0px" y="0px"
	 width="109.753px" height="99.815px" viewBox="0 0 109.753 99.815" enable-background="new 0 0 109.753 99.815"
	 xml:space="preserve">
<path fill="none" stroke="#414042" stroke-width="2" stroke-miterlimit="10" d="M109.753,26"/>
<g>
	<path fill="none" stroke="#414042" stroke-width="2" stroke-miterlimit="10" d="M47.5,50.077c0-0.571,0.447-1.035,0.998-1.035
		H73.46c0.552,0,0.999,0.464,0.999,1.035l4,14.888c0,0.572-0.447,1.035-0.999,1.035H44.498c-0.551,0-0.998-0.463-0.998-1.035
		l1.752-6.52"/>
	<path fill="none" stroke="#414042" stroke-width="2" stroke-miterlimit="10" d="M79.562,55h10.896c0.552,0,0.999-0.463,0.999-1.035
		V33.077c0-0.571-0.447-1.035-0.999-1.035H77.458V21.077c0-0.571-0.447-1.035-0.999-1.035H45.497c-0.551,0-0.998,0.464-0.998,1.035
		v10.965H30.497c-0.551,0-0.998,0.464-0.998,1.035v20.888c0,0.572,0.447,1.035,0.998,1.035h11.877"/>
	<line fill="none" stroke="#414042" stroke-width="2" stroke-miterlimit="10" x1="48.541" y1="32.021" x2="73.459" y2="32.021"/>
	<line fill="none" stroke="#414042" stroke-width="2" stroke-miterlimit="10" x1="40.479" y1="22.084" x2="40.479" y2="32.916"/>
	<line fill="none" stroke="#414042" stroke-width="2" stroke-miterlimit="10" x1="81.479" y1="22.084" x2="81.479" y2="32.916"/>
	<line fill="none" stroke="#414042" stroke-width="2" stroke-miterlimit="10" x1="48.5" y1="61.042" x2="62.334" y2="61.042"/>
	<line fill="none" stroke="#414042" stroke-width="2" stroke-miterlimit="10" x1="50.5" y1="56.042" x2="69.334" y2="56.042"/>
	<line fill="none" stroke="#414042" stroke-width="2" stroke-miterlimit="10" x1="79.5" y1="37.042" x2="87.416" y2="37.042"/>
</g>
</svg>
