<?xml version="1.0" encoding="utf-8"?>
<!-- Generator: Adobe Illustrator 15.0.0, SVG Export Plug-In . SVG Version: 6.00 Build 0)  -->
<!DOCTYPE svg PUBLIC "-//W3C//DTD SVG 1.0//EN" "http://www.w3.org/TR/2001/REC-SVG-20010904/DTD/svg10.dtd">
<svg version="1.0" id="Layer_1" xmlns="http://www.w3.org/2000/svg" xmlns:xlink="http://www.w3.org/1999/xlink" x="0px" y="0px"
	 width="109.753px" height="99.815px" viewBox="0 0 109.753 99.815" enable-background="new 0 0 109.753 99.815"
	 xml:space="preserve">
<path fill="none" stroke="#414042" stroke-width="2" stroke-miterlimit="10" d="M109.753,26"/>
<g>
	<path fill="none" stroke="#414042" stroke-width="2" stroke-miterlimit="10" d="M60.625,77h19.846c3.599,0,6.154-2.755,6.154-6.152
		l-1.949-25.165c0-3.76,4.824-7.342,4.824-10.266C89.5,28.007,78.066,22,63.961,22c-14.104,0-25.538,6.007-25.538,13.417
		c0,2.981,5.006,6.81,5.006,10.396l-2.007,25.328c0,3.397,2.625,5.859,6.224,5.859H48.5"/>
	<path fill="none" stroke="#414042" stroke-width="2" stroke-miterlimit="10" d="M58.186,17.331
		c-1.662-0.179-3.384-0.272-5.146-0.272c-14.104,0-25.539,6.018-25.539,13.438c0,2.985,5.006,6.82,5.006,10.41l-2.3,25.076
		c0,3.401,3.571,6.079,7.168,6.079"/>
</g>
</svg>
