<?xml version="1.0" encoding="utf-8"?>
<!-- Generator: Adobe Illustrator 15.0.0, SVG Export Plug-In . SVG Version: 6.00 Build 0)  -->
<!DOCTYPE svg PUBLIC "-//W3C//DTD SVG 1.0//EN" "http://www.w3.org/TR/2001/REC-SVG-20010904/DTD/svg10.dtd">
<svg version="1.0" id="Layer_1" xmlns="http://www.w3.org/2000/svg" xmlns:xlink="http://www.w3.org/1999/xlink" x="0px" y="0px"
	 width="109.753px" height="99.815px" viewBox="0 0 109.753 99.815" enable-background="new 0 0 109.753 99.815"
	 xml:space="preserve">
<path fill="none" stroke="#414042" stroke-width="2" stroke-miterlimit="10" d="M109.753,26"/>
<path fill="none" stroke="#414042" stroke-width="2" stroke-miterlimit="10" d="M57.316,27.22l10.605-10.606
	c0.781-0.782,2.048-0.782,2.829,0l1.414,1.414l-0.707,0.707c-0.781,0.781-0.781,2.048,0,2.828l9.192,9.192
	c0.779,0.781,2.047,0.781,2.828,0l0.706-0.707l0.708,0.707c0.781,0.781,0.781,2.048,0,2.829l-7.777,7.778
	c-0.78,0.78-2.047,0.78-2.828,0L57.316,30.048C56.535,29.268,56.535,28,57.316,27.22z"/>
<path fill="none" stroke="#414042" stroke-width="2" stroke-miterlimit="10" d="M56.989,33.586c-0.781-0.781-2.047-0.781-2.828,0
	L26.064,61.699c-0.78,0.78-0.78,2.046,0,2.828l3.536,6.364c0.78,0.78,2.047,0.78,2.828,0L69.01,44.193
	c0.781-0.781,0.781-2.047,0-2.828"/>
<path fill="none" stroke="#414042" stroke-width="2" stroke-miterlimit="10" d="M72.873,35.706c0.781,0.781,1.81,1.018,2.298,0.53
	l1.767-1.767c0.489-0.489,0.252-1.518-0.529-2.3l-6.363-6.363c-0.781-0.781-1.811-1.019-2.299-0.53l-1.769,1.767
	c-0.487,0.489-0.25,1.517,0.531,2.298L72.873,35.706z"/>
</svg>
