<?xml version="1.0" encoding="utf-8"?>
<!-- Generator: Adobe Illustrator 15.0.0, SVG Export Plug-In . SVG Version: 6.00 Build 0)  -->
<!DOCTYPE svg PUBLIC "-//W3C//DTD SVG 1.0//EN" "http://www.w3.org/TR/2001/REC-SVG-20010904/DTD/svg10.dtd">
<svg version="1.0" id="Layer_1" xmlns="http://www.w3.org/2000/svg" xmlns:xlink="http://www.w3.org/1999/xlink" x="0px" y="0px"
	 width="109.753px" height="99.815px" viewBox="0 0 109.753 99.815" enable-background="new 0 0 109.753 99.815"
	 xml:space="preserve">
<path fill="none" stroke="#414042" stroke-width="2" stroke-miterlimit="10" d="M109.753,26"/>
<path fill="none" stroke="#414042" stroke-width="2" stroke-miterlimit="10" d="M69.573,21.029
	c-12.617,0-22.847,10.228-22.847,22.846c0,4.57,1.356,8.818,3.668,12.389L32.859,74c-0.449,0.449-0.482,1.148-0.072,1.557
	l6.492,6.492c0.408,0.41,1.106,0.378,1.557-0.071l17.826-18.025c3.241,1.766,6.959,2.77,10.91,2.77
	c12.618,0,22.848-10.229,22.848-22.846C92.42,31.257,82.191,21.029,69.573,21.029z"/>
<path fill="none" stroke="#414042" stroke-width="2" stroke-miterlimit="10" d="M85.332,44.059
	c0.002,8.888-7.104,16.095-15.871,16.094c-8.764-0.001-15.869-7.206-15.871-16.092c0.004-8.891,7.107-16.094,15.871-16.094"/>
</svg>
