<?xml version="1.0" encoding="utf-8"?>
<!-- Generator: Adobe Illustrator 15.0.0, SVG Export Plug-In . SVG Version: 6.00 Build 0)  -->
<!DOCTYPE svg PUBLIC "-//W3C//DTD SVG 1.0//EN" "http://www.w3.org/TR/2001/REC-SVG-20010904/DTD/svg10.dtd">
<svg version="1.0" id="Layer_1" xmlns="http://www.w3.org/2000/svg" xmlns:xlink="http://www.w3.org/1999/xlink" x="0px" y="0px"
	 width="109.753px" height="99.815px" viewBox="0 0 109.753 99.815" enable-background="new 0 0 109.753 99.815"
	 xml:space="preserve">
<path fill="none" stroke="#414042" stroke-width="2" stroke-miterlimit="10" d="M109.753,26"/>
<g>
	<path fill="none" stroke="#414042" stroke-width="2" stroke-miterlimit="10" d="M37.554,41.994L29.95,34.39
		c-0.311-0.309-0.651-0.473,0.134-1.258l0,0c0.785-0.785,1.674-1.17,1.984-0.859l7.29,7.29"/>
	<path fill="none" stroke="#414042" stroke-width="2" stroke-miterlimit="10" d="M45.37,45.515l7.511,7.512
		c0.309,0.308-0.089,1.201-0.886,1.997l0,0c-0.796,0.796-0.953,0.458-1.262,0.15l-7.512-7.512"/>
	<path fill="none" stroke="#414042" stroke-width="2" stroke-miterlimit="10" d="M29.886,33.377"/>
	<path fill="none" stroke="#414042" stroke-width="2" stroke-miterlimit="10" d="M52,55.493c-8.213,8.21-25,15.089-31.112,8.976
		c-3.913-3.912-2.505-12.195,1.169-19.806"/>
	<path fill="none" stroke="#414042" stroke-width="2" stroke-miterlimit="10" d="M43.344,36.823l14.258-14.259
		c0.887-0.886,1.658,0.125,2.751,1.219l0.998,0.998c1.095,1.093,2.104,1.865,1.22,2.75L48.311,41.79"/>
	<path fill="none" stroke="#414042" stroke-width="2" stroke-miterlimit="10" d="M37.137,52.363
		c-0.931,0.932-2.565,0.802-3.652-0.285l-0.444-0.443c-1.086-1.086-1.216-2.723-0.285-3.654l8.377-10.348
		c0.93-0.929,1.581-1.786,2.669-0.698l4.383,4.384c1.088,1.088,0.231,1.739-0.697,2.668L37.137,52.363z"/>
	<g>
		<path fill="none" stroke="#414042" stroke-width="2" stroke-miterlimit="10" d="M60.807,24.31
			c-5.313-5.313-4.537-14.42-1.152-17.803c0.885-0.884,2.37-0.827,3.321,0.124c0.952,0.952,1.01,2.438,0.125,3.322
			c-1.341,1.339-2.845,8.031,0.608,11.485c3.454,3.453,10.114,1.918,11.454,0.577c0.884-0.883,2.371-0.826,3.323,0.126
			c0.95,0.952,1.008,2.438,0.124,3.321C75.229,28.846,66.122,29.624,60.807,24.31z"/>
	</g>
	<polygon fill="none" stroke="#414042" stroke-width="2" stroke-miterlimit="10" points="72.582,22.351 62.826,12.595 63.713,9.417 
		75.759,21.462 	"/>
</g>
</svg>
