<?xml version="1.0" encoding="utf-8"?>
<!-- Generator: Adobe Illustrator 15.0.0, SVG Export Plug-In . SVG Version: 6.00 Build 0)  -->
<!DOCTYPE svg PUBLIC "-//W3C//DTD SVG 1.0//EN" "http://www.w3.org/TR/2001/REC-SVG-20010904/DTD/svg10.dtd">
<svg version="1.0" id="Layer_1" xmlns="http://www.w3.org/2000/svg" xmlns:xlink="http://www.w3.org/1999/xlink" x="0px" y="0px"
	 width="109.753px" height="99.815px" viewBox="0 0 109.753 99.815" enable-background="new 0 0 109.753 99.815"
	 xml:space="preserve">
<path fill="none" stroke="#414042" stroke-width="2" stroke-miterlimit="10" d="M109.753,26"/>
<g>
	<g>
		<path fill="none" stroke="#414042" stroke-width="2" stroke-miterlimit="10" d="M20.5,56.166
			c0-14.438,14.485-27.104,31.002-27.104c16.514,0,30.998,12.666,30.998,27.104c0,7.474-4.82,14.167-8.01,18.598l-0.297,0.407
			c-0.527,0.794-1.093,4.301-1.152,5.458c0.005,0.064,0.008,0.129,0.008,0.19c0,3.723-3.016,6.862-6.862,7.153l-1.624,0.016
			c-0.398,0-0.723-0.01-0.805-0.016c-1.979-0.15-3.753-0.879-5.109-1.994c-1.563,1.241-3.906,2.084-7.202,2.084
			c-3.277,0-5.609-0.858-7.173-2.1c-1.272,1.075-2.93,1.803-4.789,2.016c-0.147,0.016-0.524,0.029-0.969,0.029l-1.396-0.009
			c-3.647-0.126-6.622-2.724-7.122-6.175c-0.082-0.327-0.133-0.771-0.133-1.206c-0.062-1.102-0.646-4.759-1.19-5.598
			c-0.377-0.583-0.794-1.206-1.231-1.854"/>
	</g>
	<path fill="none" stroke="#414042" stroke-width="2" stroke-miterlimit="10" d="M44.5,58.376c0,3.528-2.898,6.381-6.479,6.381
		c-3.577,0-6.479-2.853-6.479-6.381c0-3.521,2.902-6.376,6.479-6.376"/>
	<path fill="none" stroke="#414042" stroke-width="2" stroke-miterlimit="10" d="M51.534,80.477c-2.823,0-5.111,1.516-5.111-0.606
		c0-2.117,2.288-8,5.111-8c2.825,0,5.108,5.883,5.108,8C56.645,81.991,54.359,80.477,51.534,80.477z"/>
	<path fill="none" stroke="#414042" stroke-width="2" stroke-miterlimit="10" d="M71.47,58.504c0,3.59-2.903,6.5-6.485,6.5
		c-3.578,0-6.483-2.91-6.483-6.5c0-3.591,2.905-6.504,6.483-6.504"/>
</g>
</svg>
