<?xml version="1.0" encoding="utf-8"?>
<!-- Generator: Adobe Illustrator 15.0.0, SVG Export Plug-In . SVG Version: 6.00 Build 0)  -->
<!DOCTYPE svg PUBLIC "-//W3C//DTD SVG 1.0//EN" "http://www.w3.org/TR/2001/REC-SVG-20010904/DTD/svg10.dtd">
<svg version="1.0" id="Layer_1" xmlns="http://www.w3.org/2000/svg" xmlns:xlink="http://www.w3.org/1999/xlink" x="0px" y="0px"
	 width="109.753px" height="99.815px" viewBox="0 0 109.753 99.815" enable-background="new 0 0 109.753 99.815"
	 xml:space="preserve">
<path fill="none" stroke="#414042" stroke-width="2" stroke-miterlimit="10" d="M109.753,26"/>
<path fill="none" stroke="#414042" stroke-width="2" stroke-miterlimit="10" d="M65.143,77.47c-2.828,0.925-5.839,1.454-8.968,1.522
	C39.058,79.365,24.881,65.79,24.508,48.674s13.201-31.295,30.318-31.667c17.117-0.373,31.295,13.201,31.667,30.318
	c0.077,3.497-0.431,6.873-1.431,10.032"/>
<path fill="none" stroke="#414042" stroke-width="2" stroke-miterlimit="10" d="M29.5,67c7.396-1.986,16.351-3.148,26-3.148
	s18.604,1.162,26,3.148"/>
<path fill="none" stroke="#414042" stroke-width="2" stroke-miterlimit="10" d="M80.5,30.112C73.302,31.939,64.718,33,55.5,33
	s-17.803-1.061-25-2.888"/>
<ellipse fill="none" stroke="#414042" stroke-width="2" stroke-miterlimit="10" cx="55.5" cy="48" rx="15" ry="31"/>
</svg>
