<?xml version="1.0" encoding="utf-8"?>
<!-- Generator: Adobe Illustrator 15.0.0, SVG Export Plug-In . SVG Version: 6.00 Build 0)  -->
<!DOCTYPE svg PUBLIC "-//W3C//DTD SVG 1.0//EN" "http://www.w3.org/TR/2001/REC-SVG-20010904/DTD/svg10.dtd">
<svg version="1.0" id="Layer_1" xmlns="http://www.w3.org/2000/svg" xmlns:xlink="http://www.w3.org/1999/xlink" x="0px" y="0px"
	 width="109.753px" height="99.815px" viewBox="0 0 109.753 99.815" enable-background="new 0 0 109.753 99.815"
	 xml:space="preserve">
<path fill="none" stroke="#414042" stroke-width="2" stroke-miterlimit="10" d="M109.753,26"/>
<path fill="none" stroke="#414042" stroke-width="2" stroke-miterlimit="10" d="M78.466,36.028C77.905,44.942,70.523,52,61.5,52
	c-4.199,0-8.042-1.527-11.008-4.06"/>
<path fill="none" stroke="#414042" stroke-width="2" stroke-miterlimit="10" d="M45.516,40.762
	c-0.657-1.817-1.016-3.779-1.016-5.824c0-9.423,7.611-17.062,17-17.062c6.938,0,12.904,4.171,15.547,10.15"/>
<path fill="none" stroke="#414042" stroke-width="2" stroke-miterlimit="10" d="M75.559,18.175c8.946-2.241,15.465-2.3,16.583,0.319
	C93.903,22.62,81.59,31.828,64.641,39.06c-16.947,7.233-32.115,9.753-33.876,5.628c-0.998-2.339,2.524-6.311,8.851-10.628"/>
</svg>
