<?xml version="1.0" encoding="utf-8"?>
<!-- Generator: Adobe Illustrator 15.0.0, SVG Export Plug-In . SVG Version: 6.00 Build 0)  -->
<!DOCTYPE svg PUBLIC "-//W3C//DTD SVG 1.0//EN" "http://www.w3.org/TR/2001/REC-SVG-20010904/DTD/svg10.dtd">
<svg version="1.0" id="Layer_1" xmlns="http://www.w3.org/2000/svg" xmlns:xlink="http://www.w3.org/1999/xlink" x="0px" y="0px"
	 width="109.753px" height="99.815px" viewBox="0 0 109.753 99.815" enable-background="new 0 0 109.753 99.815"
	 xml:space="preserve">
<path fill="none" stroke="#414042" stroke-width="2" stroke-miterlimit="10" d="M109.753,26"/>
<path fill="none" stroke="#414042" stroke-width="2" stroke-miterlimit="10" d="M30.5,43.369c0,0,4.991-3.369,11.294-0.01
	c8.743,4.659,8.721-0.009,8.721-0.009c0-10.135,8.22-18.352,18.359-18.352H79.51v9l0.037,0.008h10.371
	c0.322,0,0.583,0.358,0.583,0.799v2.396c0,0.44-0.261,0.799-0.583,0.799H79.504v0.038v11.944v0.003h10.407
	c0.326,0,0.589,0.358,0.589,0.803v2.409c0,0.443-0.264,0.803-0.589,0.803H79.5l0.01,0.128V62H68.883
	c-6.179,0-11.645-3.175-14.968-8.041"/>
</svg>
