<?xml version="1.0" encoding="utf-8"?>
<!-- Generator: Adobe Illustrator 15.0.0, SVG Export Plug-In . SVG Version: 6.00 Build 0)  -->
<!DOCTYPE svg PUBLIC "-//W3C//DTD SVG 1.0//EN" "http://www.w3.org/TR/2001/REC-SVG-20010904/DTD/svg10.dtd">
<svg version="1.0" id="Layer_1" xmlns="http://www.w3.org/2000/svg" xmlns:xlink="http://www.w3.org/1999/xlink" x="0px" y="0px"
	 width="109.753px" height="99.815px" viewBox="0 0 109.753 99.815" enable-background="new 0 0 109.753 99.815"
	 xml:space="preserve">
<path fill="none" stroke="#414042" stroke-width="2" stroke-miterlimit="10" d="M109.753,26"/>
<path fill="none" stroke="#414042" stroke-width="2" stroke-miterlimit="10" d="M50.763,62.124l22.5,0.001
	c0,0,3.931,1.384,5.026,1.061l0.525-0.154c1.095-0.322,1.839-1.077,1.659-1.685L69.594,24.66c-0.179-0.607-1.213-0.837-2.309-0.515
	l-0.525,0.155c-1.096,0.323-3.672,3.526-3.672,3.526L28.045,50.745c-0.963,0.285-1.597,1.006-1.418,1.613l2.766,9.182
	c0.18,0.606,1.104,0.867,2.065,0.583H43.5v9.979l8.2,13.897"/>
</svg>
