<?xml version="1.0" encoding="utf-8"?>
<!-- Generator: Adobe Illustrator 15.0.0, SVG Export Plug-In . SVG Version: 6.00 Build 0)  -->
<!DOCTYPE svg PUBLIC "-//W3C//DTD SVG 1.0//EN" "http://www.w3.org/TR/2001/REC-SVG-20010904/DTD/svg10.dtd">
<svg version="1.0" id="Layer_1" xmlns="http://www.w3.org/2000/svg" xmlns:xlink="http://www.w3.org/1999/xlink" x="0px" y="0px"
	 width="109.753px" height="99.815px" viewBox="0 0 109.753 99.815" enable-background="new 0 0 109.753 99.815"
	 xml:space="preserve">
<path fill="none" stroke="#414042" stroke-width="2" stroke-miterlimit="10" d="M109.753,26"/>
<polygon fill="none" stroke="#414042" stroke-width="2" stroke-miterlimit="10" points="26.279,78.161 21.517,69.115 26.279,60.068 
	36.708,60.068 41.468,69.115 36.708,78.161 "/>
<ellipse fill="none" stroke="#414042" stroke-width="2" stroke-miterlimit="10" cx="31.518" cy="69.104" rx="5.021" ry="4.997"/>
<path fill="none" stroke="#414042" stroke-width="2" stroke-miterlimit="10" d="M76.62,30.686c1.371,1.372,2.166,2.8,0.03,4.937
	c-2.138,2.136-4.272,2.047-5.645,0.677c-1.37-1.372-1.459-3.507,0.678-5.643C73.821,28.519,75.249,29.314,76.62,30.686z"/>
<path fill="none" stroke="#414042" stroke-width="2" stroke-miterlimit="10" d="M49.998,48.041
	c-6.602-3.034-11.966-4.885-17.356,0.506c-2.436,2.437-3.997,5.41-4.706,8.547h8.857l1.444-1.443
	c0.655-0.657,1.815-0.558,2.592,0.217l9.836,9.835c0.774,0.774,0.874,1.937,0.217,2.594L40.73,78.446
	c5.99,1.655,12.637,0.168,17.308-4.503c5.392-5.392,3.553-10.743,0.518-17.347l25.017-20.772c0.694-0.695,2.513-4.247-1.877-8.636
	l-1.578-1.578c-3.695-3.696-7.941-2.574-8.638-1.878L59.09,37.753"/>
</svg>
