<?xml version="1.0" encoding="utf-8"?>
<!-- Generator: Adobe Illustrator 15.0.0, SVG Export Plug-In . SVG Version: 6.00 Build 0)  -->
<!DOCTYPE svg PUBLIC "-//W3C//DTD SVG 1.0//EN" "http://www.w3.org/TR/2001/REC-SVG-20010904/DTD/svg10.dtd">
<svg version="1.0" id="Layer_1" xmlns="http://www.w3.org/2000/svg" xmlns:xlink="http://www.w3.org/1999/xlink" x="0px" y="0px"
	 width="109.753px" height="99.815px" viewBox="0 0 109.753 99.815" enable-background="new 0 0 109.753 99.815"
	 xml:space="preserve">
<path fill="none" stroke="#414042" stroke-width="2" stroke-miterlimit="10" d="M109.753,26"/>
<path fill="none" stroke="#414042" stroke-width="2" stroke-miterlimit="10" d="M43.131,18.059C47.65,15.475,52.88,14,58.455,14
	c17.097,0,30.956,13.879,30.956,31S75.552,76,58.455,76C41.359,76,27.5,62.121,27.5,45c0-6.809,2.191-13.104,5.906-18.218"/>
<path fill="none" stroke="#414042" stroke-width="2" stroke-miterlimit="10" d="M35.425,44c0-12.701,10.312-22.997,23.03-22.997
	S81.485,31.299,81.485,44l-4.95,2.125"/>
<path fill="none" stroke="#414042" stroke-width="2" stroke-miterlimit="10" d="M54.536,59.938c0-2.174,1.791-21.938,4-21.938
	s4,19.764,4,21.938c0,2.175-1.791,3.938-4,3.938"/>
</svg>
