<?xml version="1.0" encoding="utf-8"?>
<!-- Generator: Adobe Illustrator 15.0.0, SVG Export Plug-In . SVG Version: 6.00 Build 0)  -->
<!DOCTYPE svg PUBLIC "-//W3C//DTD SVG 1.0//EN" "http://www.w3.org/TR/2001/REC-SVG-20010904/DTD/svg10.dtd">
<svg version="1.0" id="Layer_1" xmlns="http://www.w3.org/2000/svg" xmlns:xlink="http://www.w3.org/1999/xlink" x="0px" y="0px"
	 width="109.753px" height="99.815px" viewBox="0 0 109.753 99.815" enable-background="new 0 0 109.753 99.815"
	 xml:space="preserve">
<path fill="none" stroke="#414042" stroke-width="2" stroke-miterlimit="10" d="M109.753,26"/>
<g>
	<g>
		<g>
			<path fill="none" stroke="#333333" stroke-width="2" stroke-miterlimit="10" d="M56.808,23.163
				c17.054-1.512,32.102,11.067,33.61,28.099c1.51,17.031-11.089,32.063-28.143,33.575c-17.055,1.512-32.104-11.068-33.612-28.1
				C27.52,43.841,34.467,32.091,45.311,26.49"/>
		</g>
	</g>
	<line fill="none" stroke="#333333" stroke-width="2" stroke-miterlimit="10" x1="38.994" y1="74.506" x2="80.006" y2="33.494"/>
	<line fill="none" stroke="#333333" stroke-width="2" stroke-miterlimit="10" x1="38.994" y1="33.493" x2="80.006" y2="74.506"/>
	<path fill="none" stroke="#333333" stroke-width="2" stroke-miterlimit="10" d="M88.564,53.613
		c-6.071,1.115-14.161-1.96-20.65-8.449c-6.447-6.446-9.524-14.47-8.471-20.529"/>
	<path fill="none" stroke="#333333" stroke-width="2" stroke-miterlimit="10" d="M30.061,54.017
		c6.811-1.854,15.414,0.708,21.904,7.198c6.447,6.446,9.018,14.978,7.234,21.766"/>
</g>
</svg>
