<?xml version="1.0" encoding="utf-8"?>
<!-- Generator: Adobe Illustrator 15.0.0, SVG Export Plug-In . SVG Version: 6.00 Build 0)  -->
<!DOCTYPE svg PUBLIC "-//W3C//DTD SVG 1.0//EN" "http://www.w3.org/TR/2001/REC-SVG-20010904/DTD/svg10.dtd">
<svg version="1.0" id="Layer_1" xmlns="http://www.w3.org/2000/svg" xmlns:xlink="http://www.w3.org/1999/xlink" x="0px" y="0px"
	 width="109.753px" height="99.815px" viewBox="0 0 109.753 99.815" enable-background="new 0 0 109.753 99.815"
	 xml:space="preserve">
<path fill="none" stroke="#414042" stroke-width="2" stroke-miterlimit="10" d="M109.753,26"/>
<path fill="none" stroke="#414042" stroke-width="2" stroke-miterlimit="10" d="M63.5,26c0.553,0,1,0.448,1,1v10
	c0,0.552-0.447,1-1,1"/>
<path fill="none" stroke="#414042" stroke-width="2" stroke-miterlimit="10" d="M65.5,90c-0.553,0-1-0.447-1-1V79
	c0-0.552,0.447-1,1-1"/>
<path fill="none" stroke="#414042" stroke-width="2" stroke-miterlimit="10" d="M96.5,57c0,0.553-0.447,1-1,1h-10
	c-0.552,0-1-0.447-1-1"/>
<path fill="none" stroke="#414042" stroke-width="2" stroke-miterlimit="10" d="M44.5,57c0,0.553-0.447,1-1,1h-10
	c-0.552,0-1-0.447-1-1"/>
<path fill="none" stroke="#414042" stroke-width="2" stroke-miterlimit="10" d="M86.42,34.665c0.391,0.391,0.391,1.024,0,1.414
	l-7.07,7.071c-0.391,0.391-1.022,0.391-1.414,0"/>
<path fill="none" stroke="#414042" stroke-width="2" stroke-miterlimit="10" d="M42.58,81.334c-0.391-0.39-0.391-1.023,0-1.414
	l7.07-7.07c0.391-0.391,1.023-0.391,1.414,0"/>
<path fill="none" stroke="#414042" stroke-width="2" stroke-miterlimit="10" d="M87.127,80.627c-0.391,0.391-1.023,0.391-1.414,0
	l-7.07-7.071c-0.391-0.39-0.391-1.022,0-1.414"/>
<path fill="none" stroke="#414042" stroke-width="2" stroke-miterlimit="10" d="M50.357,43.857c-0.392,0.391-1.023,0.391-1.414,0
	l-7.07-7.071c-0.392-0.39-0.392-1.023,0-1.414"/>
<path fill="none" stroke="#414042" stroke-width="2" stroke-miterlimit="10" d="M78.416,58c0,7.688-6.23,13.916-13.916,13.916
	S50.584,65.688,50.584,58s6.23-13.916,13.916-13.916"/>
</svg>
