<?xml version="1.0" encoding="utf-8"?>
<!-- Generator: Adobe Illustrator 15.0.0, SVG Export Plug-In . SVG Version: 6.00 Build 0)  -->
<!DOCTYPE svg PUBLIC "-//W3C//DTD SVG 1.0//EN" "http://www.w3.org/TR/2001/REC-SVG-20010904/DTD/svg10.dtd">
<svg version="1.0" id="Layer_1" xmlns="http://www.w3.org/2000/svg" xmlns:xlink="http://www.w3.org/1999/xlink" x="0px" y="0px"
	 width="109.753px" height="99.815px" viewBox="0 0 109.753 99.815" enable-background="new 0 0 109.753 99.815"
	 xml:space="preserve">
<path fill="none" stroke="#414042" stroke-width="2" stroke-miterlimit="10" d="M109.753,26"/>
<g>
	<g>
		<path fill="none" stroke="#414042" stroke-width="2" stroke-miterlimit="10" d="M40.855,31.774L18.793,53.836
			c-0.391,0.39-0.391,1.024,0,1.414l25.455,25.456c0.392,0.391,1.022,0.39,1.415,0l31.819-31.82
			c0.291-0.291,1.788-16.659,2.9-25.384l-4.387-4.386c-8.728,1.11-25.094,2.609-25.384,2.9l-0.759,0.757"/>
		<path fill="none" stroke="#414042" stroke-width="2" stroke-miterlimit="10" d="M74.654,30.502c-1.562,1.562-4.096,1.562-5.656,0
			c-1.562-1.562-1.562-4.095,0-5.657c1.562-1.562,4.095-1.562,5.656,0"/>
	</g>
	<g>
		<line fill="none" stroke="#414042" stroke-width="2" stroke-miterlimit="10" x1="35.855" y1="46.188" x2="44.341" y2="54.674"/>
		<line fill="none" stroke="#414042" stroke-width="2" stroke-miterlimit="10" x1="44.341" y1="46.188" x2="35.855" y2="54.674"/>
		<path fill="none" stroke="#414042" stroke-width="2" stroke-miterlimit="10" d="M47.168,53.462c0,0,5.658,5.455,13.436-2.323
			l-16.971,16.97"/>
		<line fill="none" stroke="#414042" stroke-width="2" stroke-miterlimit="10" x1="40.098" y1="64.573" x2="47.169" y2="71.645"/>
	</g>
</g>
</svg>
