<?xml version="1.0" encoding="utf-8"?>
<!-- Generator: Adobe Illustrator 15.0.0, SVG Export Plug-In . SVG Version: 6.00 Build 0)  -->
<!DOCTYPE svg PUBLIC "-//W3C//DTD SVG 1.0//EN" "http://www.w3.org/TR/2001/REC-SVG-20010904/DTD/svg10.dtd">
<svg version="1.0" id="Layer_1" xmlns="http://www.w3.org/2000/svg" xmlns:xlink="http://www.w3.org/1999/xlink" x="0px" y="0px"
	 width="109.753px" height="99.815px" viewBox="0 0 109.753 99.815" enable-background="new 0 0 109.753 99.815"
	 xml:space="preserve">
<path fill="none" stroke="#414042" stroke-width="2" stroke-miterlimit="10" d="M109.753,26"/>
<g>
	<path fill="none" stroke="#414042" stroke-width="2" stroke-miterlimit="10" d="M60.5,28.13L38.438,50.192
		c-0.391,0.39-0.39,1.023,0,1.413l25.457,25.457c0.391,0.391,1.022,0.391,1.413,0l31.82-31.82c0.29-0.291,1.789-16.658,2.901-25.383
		l-4.388-4.388c-8.726,1.11-25.094,2.609-25.384,2.9l-0.757,0.757"/>
	<path fill="none" stroke="#414042" stroke-width="2" stroke-miterlimit="10" d="M94.299,26.857c-1.562,1.562-4.095,1.562-5.657,0
		c-1.562-1.562-1.562-4.096,0-5.656c1.562-1.562,4.096-1.562,5.657,0"/>
</g>
</svg>
