<?xml version="1.0" encoding="utf-8"?>
<!-- Generator: Adobe Illustrator 15.0.0, SVG Export Plug-In . SVG Version: 6.00 Build 0)  -->
<!DOCTYPE svg PUBLIC "-//W3C//DTD SVG 1.0//EN" "http://www.w3.org/TR/2001/REC-SVG-20010904/DTD/svg10.dtd">
<svg version="1.0" id="Layer_1" xmlns="http://www.w3.org/2000/svg" xmlns:xlink="http://www.w3.org/1999/xlink" x="0px" y="0px"
	 width="109.753px" height="99.815px" viewBox="0 0 109.753 99.815" enable-background="new 0 0 109.753 99.815"
	 xml:space="preserve">
<path fill="none" stroke="#414042" stroke-width="2" stroke-miterlimit="10" d="M109.753,26"/>
<g>
	<path fill="none" stroke="#414042" stroke-width="2" stroke-miterlimit="10" d="M57.896,77.596
		c-5.838,2.552-13.118,5.925-14.586,5.607"/>
	<path fill="none" stroke="#414042" stroke-width="2" stroke-miterlimit="10" d="M46.78,72.354c0.403-1.172,0.415-2.116-0.314-2.607
		C39.781,65.244,35.5,58.326,35.5,50.568C35.5,36.998,48.595,26,64.743,26c13.35,0,24.61,7.515,28.112,17.785"/>
	<path fill="none" stroke="#414042" stroke-width="2" stroke-miterlimit="10" d="M88.36,76.987
		c-0.293-0.842-0.302-1.521,0.227-1.873c4.823-3.236,7.913-8.209,7.913-13.785c0-9.753-9.449-17.659-21.104-17.659
		c-11.655,0-21.104,7.906-21.104,17.659c0,9.752,9.447,17.658,21.104,17.658c1.82,0,14.141,6.36,15.826,5.998"/>
</g>
</svg>
