<?xml version="1.0" encoding="utf-8"?>
<!-- Generator: Adobe Illustrator 15.0.0, SVG Export Plug-In . SVG Version: 6.00 Build 0)  -->
<!DOCTYPE svg PUBLIC "-//W3C//DTD SVG 1.0//EN" "http://www.w3.org/TR/2001/REC-SVG-20010904/DTD/svg10.dtd">
<svg version="1.0" id="Layer_1" xmlns="http://www.w3.org/2000/svg" xmlns:xlink="http://www.w3.org/1999/xlink" x="0px" y="0px"
	 width="109.753px" height="99.815px" viewBox="0 0 109.753 99.815" enable-background="new 0 0 109.753 99.815"
	 xml:space="preserve">
<path fill="none" stroke="#414042" stroke-width="2" stroke-miterlimit="10" d="M109.753,26"/>
<g>
	<path fill="none" stroke="#414042" stroke-width="2" stroke-miterlimit="10" d="M79.995,34.712c0,0-4.32-4.352-5.889-5.921
		c-7.733-7.732-17.081-11.705-25.545-3.244L33.381,40.73c-1.08,1.079-1.119,2.793-0.088,3.824l19.314,19.314
		c2.46,2.46,9.029,2.41,11.834-0.395l20.17-20.17c1.082-1.08,1.118-2.792,0.086-3.824"/>
	<polyline fill="none" stroke="#414042" stroke-width="2" stroke-miterlimit="10" points="82.392,38.427 94.06,26.757 97.8,30.498 	
		"/>
	<path fill="none" stroke="#414042" stroke-width="2" stroke-miterlimit="10" d="M50.218,33.838
		c4.875-4.876,12.785-4.87,17.666,0.01c4.881,4.881,4.885,12.79,0.01,17.666c-4.874,4.873-12.784,4.871-17.665-0.011"/>
	<path fill="none" stroke="#414042" stroke-width="2" stroke-miterlimit="10" d="M66.907,18.688c0,0,4.906,2.164,10.453,7.711"/>
	
		<ellipse transform="matrix(-0.7071 -0.7071 0.7071 -0.7071 70.6071 114.6712)" fill="none" stroke="#414042" stroke-width="2" stroke-miterlimit="10" cx="59.053" cy="42.712" rx="6.431" ry="6.523"/>
</g>
</svg>
