<?xml version="1.0" encoding="utf-8"?>
<!-- Generator: Adobe Illustrator 15.0.0, SVG Export Plug-In . SVG Version: 6.00 Build 0)  -->
<!DOCTYPE svg PUBLIC "-//W3C//DTD SVG 1.0//EN" "http://www.w3.org/TR/2001/REC-SVG-20010904/DTD/svg10.dtd">
<svg version="1.0" id="Layer_1" xmlns="http://www.w3.org/2000/svg" xmlns:xlink="http://www.w3.org/1999/xlink" x="0px" y="0px"
	 width="109.753px" height="99.815px" viewBox="0 0 109.753 99.815" enable-background="new 0 0 109.753 99.815"
	 xml:space="preserve">
<path fill="none" stroke="#414042" stroke-width="2" stroke-miterlimit="10" d="M109.753,26"/>
<g>
	<path fill="none" stroke="#414042" stroke-width="2" stroke-miterlimit="10" d="M67.479,60.264c0,2.564-2.077,4.644-4.641,4.644
		H33.143c-2.563,0-4.643-2.078-4.643-4.644V34.736c0-2.563,2.078-4.642,4.643-4.642h29.695c2.562,0,4.641,2.077,4.641,4.642v18.107"
		/>
	<path fill="none" stroke="#414042" stroke-width="2" stroke-miterlimit="10" d="M23.5,27.938V26c0-1.104,0.896-2,2-2h57.979
		c1.105,0,2,0.896,2,2v43c0,1.104-0.895,2-2,2H25.5c-1.104,0-2-0.896-2-2V43.082"/>
	<path fill="none" stroke="#414042" stroke-width="2" stroke-miterlimit="10" d="M76.479,38c-2.209,0-4-1.791-4-4s1.791-4,4-4
		s4,1.791,4,4"/>
	<path fill="none" stroke="#414042" stroke-width="2" stroke-miterlimit="10" d="M76.479,50c-2.209,0-4-1.791-4-4s1.791-4,4-4
		s4,1.791,4,4"/>
	<line fill="none" stroke="#414042" stroke-width="2" stroke-miterlimit="10" x1="71.479" y1="57" x2="81.479" y2="57"/>
	<line fill="none" stroke="#414042" stroke-width="2" stroke-miterlimit="10" x1="71.479" y1="61" x2="81.479" y2="61"/>
	<line fill="none" stroke="#414042" stroke-width="2" stroke-miterlimit="10" x1="71.479" y1="65" x2="81.479" y2="65"/>
	<line fill="none" stroke="#414042" stroke-width="2" stroke-miterlimit="10" x1="55.479" y1="24" x2="61.479" y2="8"/>
	<line fill="none" stroke="#414042" stroke-width="2" stroke-miterlimit="10" x1="46.479" y1="24" x2="40.479" y2="8"/>
	<line fill="none" stroke="#414042" stroke-width="2" stroke-miterlimit="10" x1="74.541" y1="35.938" x2="78.416" y2="32.062"/>
	<line fill="none" stroke="#414042" stroke-width="2" stroke-miterlimit="10" x1="74.729" y1="47.75" x2="78.229" y2="44.25"/>
	<path fill="none" stroke="#414042" stroke-width="2" stroke-miterlimit="10" d="M28.5,51.556c0,0,7.979,4,19.979,0s19,0,19,0"/>
	<path fill="none" stroke="#414042" stroke-width="2" stroke-miterlimit="10" d="M28.5,45.777c0,0,7.979,4,19.979,0s19,0,19,0"/>
</g>
</svg>
