<?xml version="1.0" encoding="utf-8"?>
<!-- Generator: Adobe Illustrator 15.0.0, SVG Export Plug-In . SVG Version: 6.00 Build 0)  -->
<!DOCTYPE svg PUBLIC "-//W3C//DTD SVG 1.0//EN" "http://www.w3.org/TR/2001/REC-SVG-20010904/DTD/svg10.dtd">
<svg version="1.0" id="Layer_1" xmlns="http://www.w3.org/2000/svg" xmlns:xlink="http://www.w3.org/1999/xlink" x="0px" y="0px"
	 width="109.753px" height="99.815px" viewBox="0 0 109.753 99.815" enable-background="new 0 0 109.753 99.815"
	 xml:space="preserve">
<path fill="none" stroke="#414042" stroke-width="2" stroke-miterlimit="10" d="M109.753,26"/>
<path fill="none" stroke="#414042" stroke-width="2" stroke-miterlimit="10" d="M82.224,33.847l-6.128,6.475
	c-0.391,0.391-1.095,0.319-1.571-0.158l-5.298-5.296c-0.478-0.479-0.549-1.183-0.156-1.573l17.627-18.627
	c0.391-0.39,1.095-0.319,1.572,0.159l5.297,5.296c0.478,0.478,0.549,1.181,0.157,1.573"/>
<path fill="none" stroke="#414042" stroke-width="2" stroke-miterlimit="10" d="M62.236,40.026
	c-4.68-3.459-9.719-4.235-16.429,2.476c-8.564,8.565-16.529,26.008-10.685,31.854c5.846,5.845,23.288-2.12,31.854-10.686
	c6.762-6.76,5.924-11.826,2.396-16.534"/>
<path fill="none" stroke="#414042" stroke-width="2" stroke-miterlimit="10" d="M73.355,38.907l-2.918-2.917L59.203,47.225
	c-0.323-0.078-0.657-0.133-1.005-0.133c-2.349,0-4.25,1.902-4.25,4.25c0,2.349,1.901,4.25,4.25,4.25c2.348,0,4.25-1.901,4.25-4.25
	c0-0.458-0.091-0.891-0.226-1.303L73.355,38.907z"/>
</svg>
