<?xml version="1.0" encoding="utf-8"?>
<!-- Generator: Adobe Illustrator 15.0.0, SVG Export Plug-In . SVG Version: 6.00 Build 0)  -->
<!DOCTYPE svg PUBLIC "-//W3C//DTD SVG 1.0//EN" "http://www.w3.org/TR/2001/REC-SVG-20010904/DTD/svg10.dtd">
<svg version="1.0" id="Layer_1" xmlns="http://www.w3.org/2000/svg" xmlns:xlink="http://www.w3.org/1999/xlink" x="0px" y="0px"
	 width="109.753px" height="99.815px" viewBox="0 0 109.753 99.815" enable-background="new 0 0 109.753 99.815"
	 xml:space="preserve">
<path fill="none" stroke="#414042" stroke-width="2" stroke-miterlimit="10" d="M109.753,26"/>
<path fill="none" stroke="#414042" stroke-width="2" stroke-miterlimit="10" d="M67.354,60.078c0,2.305-7.012,2.922-15.791,2.922
	c-6.11,0-11.465-0.783-14.155-2.035c-2.24-1.152-1.558-2.977-1.558-2.977l7.976-29.982c0-1.062,0.752-1.922,1.682-1.922h13.029
	c0.93,0,1.682,0.859,1.682,1.922l6.64,24.961L67.062,53h8.498c0.555,0,1.002,0.471,1.002,1.053l3,14.896
	c0,0.581-0.447,1.052-1.002,1.052H23.486c-0.557,0-1.006-0.471-1.006-1.052l4-14.896c0-0.582,0.448-1.053,1.006-1.053h1.348"/>
<path fill="none" stroke="#414042" stroke-width="2" stroke-miterlimit="10" d="M63.035,40.036C60.883,41.804,56.746,43,51.996,43
	c-4.781,0-8.943-1.213-11.084-3.002"/>
<path fill="none" stroke="#414042" stroke-width="2" stroke-miterlimit="10" d="M64.758,47.036C62.27,48.804,57.488,50,52,50
	c-5.527,0-10.336-1.213-12.809-3.002"/>
</svg>
