<?xml version="1.0" encoding="utf-8"?>
<!-- Generator: Adobe Illustrator 15.0.0, SVG Export Plug-In . SVG Version: 6.00 Build 0)  -->
<!DOCTYPE svg PUBLIC "-//W3C//DTD SVG 1.0//EN" "http://www.w3.org/TR/2001/REC-SVG-20010904/DTD/svg10.dtd">
<svg version="1.0" id="Layer_1" xmlns="http://www.w3.org/2000/svg" xmlns:xlink="http://www.w3.org/1999/xlink" x="0px" y="0px"
	 width="109.753px" height="99.815px" viewBox="0 0 109.753 99.815" enable-background="new 0 0 109.753 99.815"
	 xml:space="preserve">
<path fill="none" stroke="#414042" stroke-width="2" stroke-miterlimit="10" d="M109.753,26"/>
<path fill="none" stroke="#414042" stroke-width="2" stroke-miterlimit="10" d="M78.396,65c0,0.553-0.45,1-1.01,1H26.571
	c-0.558,0-1.009-0.447-1.009-1v-4c0-0.552,0.451-1,1.009-1h50.815c0.56,0,1.01,0.448,1.01,1V65z"/>
<path fill="none" stroke="#414042" stroke-width="2" stroke-miterlimit="10" d="M62.09,32l-2.486-11.035
	c0-0.533-0.436-0.965-0.973-0.965h-14.18c-0.537,0-0.973,0.432-0.973,0.965L40.992,32H62.09z"/>
<path fill="none" stroke="#414042" stroke-width="2" stroke-miterlimit="10" d="M38.514,41l-2.035,9.035
	c0,0.533,0.437,0.965,0.974,0.965h28.18c0.537,0,0.973-0.432,0.973-0.965L64.57,41H38.514z"/>
</svg>
