<?xml version="1.0" encoding="utf-8"?>
<!-- Generator: Adobe Illustrator 15.0.0, SVG Export Plug-In . SVG Version: 6.00 Build 0)  -->
<!DOCTYPE svg PUBLIC "-//W3C//DTD SVG 1.0//EN" "http://www.w3.org/TR/2001/REC-SVG-20010904/DTD/svg10.dtd">
<svg version="1.0" id="Layer_1" xmlns="http://www.w3.org/2000/svg" xmlns:xlink="http://www.w3.org/1999/xlink" x="0px" y="0px"
	 width="109.753px" height="99.815px" viewBox="0 0 109.753 99.815" enable-background="new 0 0 109.753 99.815"
	 xml:space="preserve">
<path fill="none" stroke="#414042" stroke-width="2" stroke-miterlimit="10" d="M109.753,26"/>
<path fill="none" stroke="#414042" stroke-width="2" stroke-miterlimit="10" d="M72.562,34.094L71.29,78.553
	c0,0.834-0.685,1.51-1.528,1.51H34.32c-0.844,0-1.526-0.676-1.526-1.51l-2.582-49.628c-0.118-1.956-5.522-1.581-4.68-1.581
	l0.031-4.339h19.919c0-2.338,1.822-2.005,6.039-2.005s6.021-0.292,6.021,2.005h19.941"/>
<line fill="none" stroke="#414042" stroke-width="2" stroke-miterlimit="10" x1="51.511" y1="40.046" x2="51.511" y2="70.969"/>
<line fill="none" stroke="#414042" stroke-width="2" stroke-miterlimit="10" x1="42.547" y1="40.046" x2="42.547" y2="70.969"/>
<line fill="none" stroke="#414042" stroke-width="2" stroke-miterlimit="10" x1="60.521" y1="40.046" x2="60.521" y2="70.969"/>
<line fill="none" stroke="#414042" stroke-width="2" stroke-miterlimit="10" x1="32.562" y1="28.005" x2="70.417" y2="28.005"/>
</svg>
