<?xml version="1.0" encoding="utf-8"?>
<!-- Generator: Adobe Illustrator 15.0.0, SVG Export Plug-In . SVG Version: 6.00 Build 0)  -->
<!DOCTYPE svg PUBLIC "-//W3C//DTD SVG 1.0//EN" "http://www.w3.org/TR/2001/REC-SVG-20010904/DTD/svg10.dtd">
<svg version="1.0" id="Layer_1" xmlns="http://www.w3.org/2000/svg" xmlns:xlink="http://www.w3.org/1999/xlink" x="0px" y="0px"
	 width="109.753px" height="99.815px" viewBox="0 0 109.753 99.815" enable-background="new 0 0 109.753 99.815"
	 xml:space="preserve">
<path fill="none" stroke="#414042" stroke-width="2" stroke-miterlimit="10" d="M109.753,26"/>
<path fill="none" stroke="#414042" stroke-width="2" stroke-miterlimit="10" d="M59.583,60.914h16.465
	c0.597-0.781,0.597-2.047,0.001-2.828l-9.274-12.128h6.182c0.528-0.689,0.528-1.81,0.001-2.499l-9.8-12.428h5.156
	c0.435-0.57,0.435-1.493,0-2.061L56.828,11.953c-0.436-0.569-1.14-0.569-1.575,0L43.77,28.971c-0.436,0.567-0.436,1.49,0,2.059
	h5.154l-9.801,12.429c-0.527,0.689-0.527,1.81,0,2.499h6.184l-9.274,12.128c-0.597,0.781-0.597,2.047,0,2.828h18.386v11.836"/>
</svg>
