<?xml version="1.0" encoding="utf-8"?>
<!-- Generator: Adobe Illustrator 15.0.0, SVG Export Plug-In . SVG Version: 6.00 Build 0)  -->
<!DOCTYPE svg PUBLIC "-//W3C//DTD SVG 1.0//EN" "http://www.w3.org/TR/2001/REC-SVG-20010904/DTD/svg10.dtd">
<svg version="1.0" id="Layer_1" xmlns="http://www.w3.org/2000/svg" xmlns:xlink="http://www.w3.org/1999/xlink" x="0px" y="0px"
	 width="109.753px" height="99.815px" viewBox="0 0 109.753 99.815" enable-background="new 0 0 109.753 99.815"
	 xml:space="preserve">
<path fill="none" stroke="#414042" stroke-width="2" stroke-miterlimit="10" d="M109.753,26"/>
<g>
	<rect x="44.5" y="74" fill="#414042" width="28" height="2"/>
	<rect x="36.5" y="70" fill="#414042" width="4" height="2"/>
	<rect x="39.5" y="66" fill="#414042" width="4" height="2"/>
	<rect x="45.5" y="66" fill="#414042" width="4" height="2"/>
	<rect x="51.5" y="66" fill="#414042" width="4" height="2"/>
	<rect x="57.5" y="66" fill="#414042" width="4" height="2"/>
	<rect x="63.5" y="66" fill="#414042" width="4" height="2"/>
	<rect x="69.5" y="66" fill="#414042" width="4" height="2"/>
	<rect x="39.5" y="58" fill="#414042" width="4" height="2"/>
	<rect x="45.5" y="58" fill="#414042" width="4" height="2"/>
	<rect x="51.5" y="58" fill="#414042" width="4" height="2"/>
	<rect x="57.5" y="58" fill="#414042" width="4" height="2"/>
	<rect x="63.5" y="58" fill="#414042" width="4" height="2"/>
	<rect x="69.5" y="58" fill="#414042" width="4" height="2"/>
	<rect x="42.5" y="70" fill="#414042" width="4" height="2"/>
	<rect x="48.5" y="70" fill="#414042" width="4" height="2"/>
	<rect x="54.5" y="70" fill="#414042" width="4" height="2"/>
	<rect x="60.5" y="70" fill="#414042" width="4" height="2"/>
	<rect x="66.5" y="70" fill="#414042" width="4" height="2"/>
	<rect x="72.5" y="70" fill="#414042" width="4" height="2"/>
	<rect x="36.5" y="62" fill="#414042" width="4" height="2"/>
	<rect x="42.5" y="62" fill="#414042" width="4" height="2"/>
	<rect x="48.5" y="62" fill="#414042" width="4" height="2"/>
	<rect x="54.5" y="62" fill="#414042" width="4" height="2"/>
	<rect x="60.5" y="62" fill="#414042" width="4" height="2"/>
	<rect x="66.5" y="62" fill="#414042" width="4" height="2"/>
	<rect x="72.5" y="62" fill="#414042" width="4" height="2"/>
	<path fill="none" stroke="#414042" stroke-width="2" stroke-miterlimit="10" d="M29.439,74.066L28.5,78c0,0.552,0.447,1,1,1h54
		c0.553,0,1-0.448,1-1l-5-20.938V51c0-0.552-0.447-1-1-1H66.113c-1.188,2.308-5.037,4-9.613,4s-8.426-1.692-9.613-4H34.5
		c-0.553,0-1,0.448-1,1v3.334v2.729l-2.202,9.222"/>
	<path fill="none" stroke="#414042" stroke-width="2" stroke-miterlimit="10" d="M78.5,42c0.553,0,1,0.448,1,1v1
		c0,0.552-0.447,1-1,1h-44c-0.553,0-1-0.448-1-1v-3c0-0.552-0.459-1-1-1h-2.959"/>
	<line fill="none" stroke="#414042" stroke-width="2" stroke-miterlimit="10" x1="40.515" y1="43.958" x2="40.579" y2="29.084"/>
	<path fill="none" stroke="#414042" stroke-width="2" stroke-miterlimit="10" d="M40.579,22.868v-2.025
		c0-0.442,0.358-0.802,0.799-0.802h18.854l12.354,15.935l-0.062,7.983"/>
	<path fill="none" stroke="#414042" stroke-width="2" stroke-miterlimit="10" d="M68.475,35.976h-9.19
		c-0.433,0-0.779-0.36-0.779-0.803V25.091"/>
</g>
</svg>
