<?xml version="1.0" encoding="utf-8"?>
<!-- Generator: Adobe Illustrator 15.0.0, SVG Export Plug-In . SVG Version: 6.00 Build 0)  -->
<!DOCTYPE svg PUBLIC "-//W3C//DTD SVG 1.0//EN" "http://www.w3.org/TR/2001/REC-SVG-20010904/DTD/svg10.dtd">
<svg version="1.0" id="Layer_1" xmlns="http://www.w3.org/2000/svg" xmlns:xlink="http://www.w3.org/1999/xlink" x="0px" y="0px"
	 width="109.753px" height="99.815px" viewBox="0 0 109.753 99.815" enable-background="new 0 0 109.753 99.815"
	 xml:space="preserve">
<path fill="none" stroke="#414042" stroke-width="2" stroke-miterlimit="10" d="M109.753,26"/>
<path fill="none" stroke="#414042" stroke-width="2" stroke-miterlimit="10" d="M37.383,48.875v-2.11
	c0-0.417,0.333-0.754,0.745-0.754h35.683c0.41,0,0.743,0.337,0.743,0.754v32.419c0,0.416-0.333,0.754-0.743,0.754H38.128
	c-0.411,0-0.745-0.338-0.745-0.754V57.167"/>
<path fill="none" stroke="#414042" stroke-width="2" stroke-miterlimit="10" d="M69.455,46.01V34.078
	c0-8.362,6.95-15.141,15.523-15.141l0,0c8.574,0,15.525,6.778,15.525,15.141V46.01"/>
<path fill="none" stroke="#414042" stroke-width="2" stroke-miterlimit="10" d="M59.496,69.964l-1.667-5.646
	c1.005-0.731,1.667-1.916,1.667-3.264c0-2.224-1.785-4.026-3.985-4.026s-3.984,1.803-3.984,4.026c0,1.367,0.676,2.57,1.704,3.296
	l-1.654,5.613"/>
</svg>
