<?xml version="1.0" encoding="utf-8"?>
<!-- Generator: Adobe Illustrator 15.0.0, SVG Export Plug-In . SVG Version: 6.00 Build 0)  -->
<!DOCTYPE svg PUBLIC "-//W3C//DTD SVG 1.0//EN" "http://www.w3.org/TR/2001/REC-SVG-20010904/DTD/svg10.dtd">
<svg version="1.0" id="Layer_1" xmlns="http://www.w3.org/2000/svg" xmlns:xlink="http://www.w3.org/1999/xlink" x="0px" y="0px"
	 width="109.753px" height="99.815px" viewBox="0 0 109.753 99.815" enable-background="new 0 0 109.753 99.815"
	 xml:space="preserve">
<path fill="none" stroke="#414042" stroke-width="2" stroke-miterlimit="10" d="M109.753,26"/>
<g>
	<path fill="none" stroke="#414042" stroke-width="2" stroke-miterlimit="10" d="M52.484,11.996h12.062V42.06h4.044
		c1.589,0,1.879,3.68,1.879,1.88v28.182c0,1.039-0.841,1.879-1.879,1.879H25.378c-1.037,0-1.879-0.84-1.879-1.879V43.939
		c0-1.038,0.842-1.88,1.879-1.88h4.104V11.996h17l0.062,8.062h-2v4.938h1.875v13.062"/>
	<line fill="none" stroke="#414042" stroke-width="2" stroke-miterlimit="10" x1="32.672" y1="42.119" x2="61.298" y2="42.119"/>
	<polyline fill="none" stroke="#414042" stroke-width="2" stroke-miterlimit="10" points="34.484,26.059 34.484,18.059 
		40.484,18.059 	"/>
	<polyline fill="none" stroke="#414042" stroke-width="2" stroke-miterlimit="10" points="54.484,26.059 54.484,18.059 
		60.484,18.059 	"/>
</g>
</svg>
