<?xml version="1.0" encoding="utf-8"?>
<!-- Generator: Adobe Illustrator 15.0.0, SVG Export Plug-In . SVG Version: 6.00 Build 0)  -->
<!DOCTYPE svg PUBLIC "-//W3C//DTD SVG 1.0//EN" "http://www.w3.org/TR/2001/REC-SVG-20010904/DTD/svg10.dtd">
<svg version="1.0" id="Layer_1" xmlns="http://www.w3.org/2000/svg" xmlns:xlink="http://www.w3.org/1999/xlink" x="0px" y="0px"
	 width="109.753px" height="99.815px" viewBox="0 0 109.753 99.815" enable-background="new 0 0 109.753 99.815"
	 xml:space="preserve">
<path fill="none" stroke="#414042" stroke-width="2" stroke-miterlimit="10" d="M109.753,26"/>
<g>
	<path fill="none" stroke="#414042" stroke-width="2" stroke-miterlimit="10" d="M60.515,12.996h12.062V43.06h4.043
		c1.589,0,1.879,3.68,1.879,1.88v28.182c0,1.039-0.841,1.879-1.879,1.879H33.408c-1.038,0-1.879-0.84-1.879-1.879V44.939
		c0-1.038,0.841-1.88,1.879-1.88h4.105V12.996h17l0.062,8.062h-2v4.938h1.875v13.062"/>
	<line fill="none" stroke="#414042" stroke-width="2" stroke-miterlimit="10" x1="40.703" y1="43.119" x2="69.328" y2="43.119"/>
	<polyline fill="none" stroke="#414042" stroke-width="2" stroke-miterlimit="10" points="42.515,27.059 42.515,19.059 
		48.515,19.059 	"/>
	<polyline fill="none" stroke="#414042" stroke-width="2" stroke-miterlimit="10" points="62.515,27.059 62.515,19.059 
		68.515,19.059 	"/>
</g>
<path fill="none" stroke="#333333" stroke-width="2" stroke-miterlimit="10" d="M49.25,58.693c0,0.057,5.625,4.307,5.625,4.307
	l7.625-9.5"/>
</svg>
