<?xml version="1.0" encoding="utf-8"?>
<!-- Generator: Adobe Illustrator 15.0.0, SVG Export Plug-In . SVG Version: 6.00 Build 0)  -->
<!DOCTYPE svg PUBLIC "-//W3C//DTD SVG 1.0//EN" "http://www.w3.org/TR/2001/REC-SVG-20010904/DTD/svg10.dtd">
<svg version="1.0" id="Layer_1" xmlns="http://www.w3.org/2000/svg" xmlns:xlink="http://www.w3.org/1999/xlink" x="0px" y="0px"
	 width="109.753px" height="99.815px" viewBox="0 0 109.753 99.815" enable-background="new 0 0 109.753 99.815"
	 xml:space="preserve">
<path fill="none" stroke="#414042" stroke-width="2" stroke-miterlimit="10" d="M109.753,26"/>
<path fill="none" stroke="#414042" stroke-width="2" stroke-miterlimit="10" d="M40.375,43c0-6.896,4.878-12.642,11.343-13.933
	c-16.925,1.262-28.24,13.955-28.24,13.955S35.06,55.971,52.227,57.01C45.513,55.925,40.375,50.075,40.375,43z"/>
<path fill="none" stroke="#414042" stroke-width="2" stroke-miterlimit="10" d="M68.562,43c0,7.035-5.075,12.858-11.735,13.992
	c17.043-1.155,28.486-13.97,28.486-13.97S74.129,30.448,57.32,29.084C63.738,30.414,68.562,36.139,68.562,43z"/>
<path fill="none" stroke="#414042" stroke-width="2" stroke-miterlimit="10" d="M58.229,41.25c-2.207,0-4-1.791-4-4
	c0-0.422,0.084-0.82,0.205-1.202c-3.812,0.019-6.896,3.123-6.896,6.952c0,3.841,3.104,6.954,6.933,6.954s6.935-3.113,6.935-6.954
	c0-0.974-0.201-1.9-0.562-2.742C60.138,40.868,59.232,41.25,58.229,41.25z"/>
</svg>
