<?xml version="1.0" encoding="utf-8"?>
<!-- Generator: Adobe Illustrator 15.0.0, SVG Export Plug-In . SVG Version: 6.00 Build 0)  -->
<!DOCTYPE svg PUBLIC "-//W3C//DTD SVG 1.0//EN" "http://www.w3.org/TR/2001/REC-SVG-20010904/DTD/svg10.dtd">
<svg version="1.0" id="Layer_1" xmlns="http://www.w3.org/2000/svg" xmlns:xlink="http://www.w3.org/1999/xlink" x="0px" y="0px"
	 width="109.753px" height="99.815px" viewBox="0 0 109.753 99.815" enable-background="new 0 0 109.753 99.815"
	 xml:space="preserve">
<path fill="none" stroke="#414042" stroke-width="2" stroke-miterlimit="10" d="M109.753,26"/>
<g>
	<line fill="none" stroke="#414042" stroke-width="2" stroke-miterlimit="10" x1="28.479" y1="26" x2="75.479" y2="26"/>
	<line fill="none" stroke="#414042" stroke-width="2" stroke-miterlimit="10" x1="28.479" y1="38" x2="92.479" y2="38"/>
	<line fill="none" stroke="#414042" stroke-width="2" stroke-miterlimit="10" x1="28.479" y1="50" x2="92.479" y2="50"/>
	<line fill="none" stroke="#414042" stroke-width="2" stroke-miterlimit="10" x1="28.479" y1="62" x2="92.479" y2="62"/>
	<line fill="none" stroke="#414042" stroke-width="2" stroke-miterlimit="10" x1="29.479" y1="27" x2="29.479" y2="37"/>
	<line fill="none" stroke="#414042" stroke-width="2" stroke-miterlimit="10" x1="52.479" y1="27" x2="52.479" y2="37"/>
	<line fill="none" stroke="#414042" stroke-width="2" stroke-miterlimit="10" x1="74.479" y1="27" x2="74.479" y2="37"/>
	<line fill="none" stroke="#414042" stroke-width="2" stroke-miterlimit="10" x1="41.479" y1="39" x2="41.479" y2="49"/>
	<line fill="none" stroke="#414042" stroke-width="2" stroke-miterlimit="10" x1="29.479" y1="39" x2="29.479" y2="49"/>
	<line fill="none" stroke="#414042" stroke-width="2" stroke-miterlimit="10" x1="51.479" y1="51" x2="51.479" y2="61"/>
	<line fill="none" stroke="#414042" stroke-width="2" stroke-miterlimit="10" x1="75.479" y1="51" x2="75.479" y2="61"/>
	<line fill="none" stroke="#414042" stroke-width="2" stroke-miterlimit="10" x1="29.479" y1="51" x2="29.479" y2="61"/>
	<line fill="none" stroke="#414042" stroke-width="2" stroke-miterlimit="10" x1="66.479" y1="39" x2="66.479" y2="49"/>
	<line fill="none" stroke="#414042" stroke-width="2" stroke-miterlimit="10" x1="88.479" y1="39" x2="88.479" y2="49"/>
</g>
</svg>
