<?xml version="1.0" encoding="utf-8"?>
<!-- Generator: Adobe Illustrator 15.0.0, SVG Export Plug-In . SVG Version: 6.00 Build 0)  -->
<!DOCTYPE svg PUBLIC "-//W3C//DTD SVG 1.0//EN" "http://www.w3.org/TR/2001/REC-SVG-20010904/DTD/svg10.dtd">
<svg version="1.0" id="Layer_1" xmlns="http://www.w3.org/2000/svg" xmlns:xlink="http://www.w3.org/1999/xlink" x="0px" y="0px"
	 width="109.753px" height="99.815px" viewBox="0 0 109.753 99.815" enable-background="new 0 0 109.753 99.815"
	 xml:space="preserve">
<path fill="none" stroke="#414042" stroke-width="2" stroke-miterlimit="10" d="M109.753,26"/>
<g>
	<path fill="none" stroke="#414042" stroke-width="2" stroke-miterlimit="10" d="M39.578,44.817
		c2.639-2.321,6.101-3.729,9.891-3.729c8.275,0,14.984,6.709,14.984,14.984c0,8.274-6.709,14.983-14.984,14.983
		c-8.274,0-14.983-6.709-14.983-14.983c0-0.658,0.043-1.308,0.125-1.943"/>
	<path fill="none" stroke="#414042" stroke-width="2" stroke-miterlimit="10" d="M40.512,38.934l1-11.356
		c0-0.917,0.832-1.66,1.857-1.66h12.217c1.025,0,1.855,0.743,1.855,1.66l1,11.356"/>
	<path fill="none" stroke="#414042" stroke-width="2" stroke-miterlimit="10" d="M58.504,73.008l-1,11.372
		c0,0.918-0.834,1.662-1.863,1.662H43.375c-1.028,0-1.863-0.744-1.863-1.662l-1-11.372"/>
	<line fill="none" stroke="#414042" stroke-width="2" stroke-miterlimit="10" x1="49.469" y1="56.927" x2="49.469" y2="48"/>
	<line fill="none" stroke="#414042" stroke-width="2" stroke-miterlimit="10" x1="49.469" y1="56.073" x2="54.375" y2="56.073"/>
</g>
</svg>
