<?xml version="1.0" encoding="utf-8"?>
<!-- Generator: Adobe Illustrator 15.0.0, SVG Export Plug-In . SVG Version: 6.00 Build 0)  -->
<!DOCTYPE svg PUBLIC "-//W3C//DTD SVG 1.0//EN" "http://www.w3.org/TR/2001/REC-SVG-20010904/DTD/svg10.dtd">
<svg version="1.0" id="Layer_1" xmlns="http://www.w3.org/2000/svg" xmlns:xlink="http://www.w3.org/1999/xlink" x="0px" y="0px"
	 width="109.753px" height="99.815px" viewBox="0 0 109.753 99.815" enable-background="new 0 0 109.753 99.815"
	 xml:space="preserve">
<path fill="none" stroke="#414042" stroke-width="2" stroke-miterlimit="10" d="M109.753,26"/>
<path fill="none" stroke="#414042" stroke-width="2" stroke-miterlimit="10" d="M70.904,21.949
	c-12.718,0-23.026,10.281-23.026,22.965c0,4.596,1.366,8.864,3.696,12.453L34.292,74.539c-0.452,0.452-0.484,1.153-0.072,1.564
	l6.545,6.526c0.412,0.412,1.115,0.38,1.568-0.073l17.573-17.464c3.27,1.772,7.017,2.785,10.998,2.785
	c12.72,0,23.027-10.282,23.027-22.966C93.932,32.23,83.623,21.949,70.904,21.949z"/>
<path fill="none" stroke="#414042" stroke-width="2" stroke-miterlimit="10" d="M86.93,44.938c0.002,8.863-7.162,16.052-16,16.052
	c-8.834-0.001-15.998-7.188-16-16.052c0.004-8.865,7.166-16.051,16-16.051"/>
<line fill="none" stroke="#414042" stroke-width="2" stroke-miterlimit="10" x1="64.93" y1="44.941" x2="76.93" y2="44.941"/>
<line fill="none" stroke="#414042" stroke-width="2" stroke-miterlimit="10" x1="70.93" y1="38.941" x2="70.93" y2="50.879"/>
</svg>
