<?xml version="1.0" encoding="utf-8"?>
<!-- Generator: Adobe Illustrator 15.0.0, SVG Export Plug-In . SVG Version: 6.00 Build 0)  -->
<!DOCTYPE svg PUBLIC "-//W3C//DTD SVG 1.0//EN" "http://www.w3.org/TR/2001/REC-SVG-20010904/DTD/svg10.dtd">
<svg version="1.0" id="Layer_1" xmlns="http://www.w3.org/2000/svg" xmlns:xlink="http://www.w3.org/1999/xlink" x="0px" y="0px"
	 width="109.753px" height="99.815px" viewBox="0 0 109.753 99.815" enable-background="new 0 0 109.753 99.815"
	 xml:space="preserve">
<path fill="none" stroke="#414042" stroke-width="2" stroke-miterlimit="10" d="M109.753,26"/>
<path fill="none" stroke="#414042" stroke-width="2" stroke-miterlimit="10" d="M97.479,54c0,4.92,0.029,16.689,0.048,23.938
	C97.535,81.521,97.542,84,97.542,84s-20.846,0-30.063,0c-16.567,0-30-13.432-30-30s13.433-30,30-30
	C84.047,24,97.479,37.432,97.479,54z"/>
<path fill="none" stroke="#414042" stroke-width="2" stroke-miterlimit="10" d="M67.479,33c11.599,0,21,9.402,21,21s-9.401,21-21,21
	c-11.597,0-21-9.402-21-21"/>
<circle fill="none" stroke="#414042" stroke-width="2" stroke-miterlimit="10" cx="89.479" cy="76" r="4"/>
</svg>
