<?xml version="1.0" encoding="utf-8"?>
<!-- Generator: Adobe Illustrator 15.0.0, SVG Export Plug-In . SVG Version: 6.00 Build 0)  -->
<!DOCTYPE svg PUBLIC "-//W3C//DTD SVG 1.0//EN" "http://www.w3.org/TR/2001/REC-SVG-20010904/DTD/svg10.dtd">
<svg version="1.0" id="Layer_1" xmlns="http://www.w3.org/2000/svg" xmlns:xlink="http://www.w3.org/1999/xlink" x="0px" y="0px"
	 width="109.753px" height="99.815px" viewBox="0 0 109.753 99.815" enable-background="new 0 0 109.753 99.815"
	 xml:space="preserve">
<path fill="none" stroke="#414042" stroke-width="2" stroke-miterlimit="10" d="M109.753,26"/>
<path fill="none" stroke="#414042" stroke-width="2" stroke-miterlimit="10" d="M70.551,14.029
	c-12.676,0-22.951,10.228-22.951,22.846c0,4.571,1.361,8.819,3.686,12.39L33.486,67c-0.451,0.45-0.484,1.147-0.072,1.557
	l3.318,3.303l3.204,3.19c0.411,0.41,1.112,0.377,1.562-0.073l18.088-18.026c3.259,1.766,6.992,2.77,10.963,2.77
	c12.677,0,22.951-10.229,22.951-22.846C93.502,24.257,83.227,14.029,70.551,14.029z"/>
<path fill="none" stroke="#414042" stroke-width="2" stroke-miterlimit="10" d="M86.5,36.976c0.002,8.841-7.162,16.01-16,16.01
	c-8.834-0.001-15.998-7.17-16-16.009c0.004-8.844,7.166-16.01,16-16.01"/>
<line fill="none" stroke="#414042" stroke-width="2" stroke-miterlimit="10" x1="64.5" y1="37.021" x2="76.5" y2="37.021"/>
</svg>
